<?xml version="1.0" encoding="us-ascii" standalone="no"?><svg xmlns="http://www.w3.org/2000/svg" xmlns:xlink="http://www.w3.org/1999/xlink" contentStyleType="text/css" height="384px" preserveAspectRatio="none" style="width:250px;height:384px;background:#FFFFFF;" version="1.1" viewBox="0 0 250 384" width="250px" zoomAndPan="magnify"><defs/><g><!--cluster SPA--><g id="cluster_SPA"><path d="M8.5,6 L36.5,6 A3.75,3.75 0 0 1 39,8.5 L46,28.4883 L240.5,28.4883 A2.5,2.5 0 0 1 243,30.9883 L243,374.96 A2.5,2.5 0 0 1 240.5,377.46 L8.5,377.46 A2.5,2.5 0 0 1 6,374.96 L6,8.5 A2.5,2.5 0 0 1 8.5,6 " fill="none" style="stroke:#000000;stroke-width:1.5;"/><line style="stroke:#000000;stroke-width:1.5;" x1="6" x2="46" y1="28.4883" y2="28.4883"/><text fill="#000000" font-family="sans-serif" font-size="14" font-weight="bold" lengthAdjust="spacing" textLength="27" x="10" y="21.5352">SPA</text></g><!--entity UI--><g id="elem_UI"><rect fill="#F1F1F1" height="46.4883" rx="2.5" ry="2.5" style="stroke:#181818;stroke-width:0.5;" width="54" x="66" y="41"/><rect fill="#F1F1F1" height="10" style="stroke:#181818;stroke-width:0.5;" width="15" x="100" y="46"/><rect fill="#F1F1F1" height="2" style="stroke:#181818;stroke-width:0.5;" width="4" x="98" y="48"/><rect fill="#F1F1F1" height="2" style="stroke:#181818;stroke-width:0.5;" width="4" x="98" y="52"/><text fill="#000000" font-family="sans-serif" font-size="14" lengthAdjust="spacing" textLength="14" x="81" y="74.5352">UI</text></g><!--entity Component--><g id="elem_Component"><rect fill="#F1F1F1" height="46.4883" rx="2.5" ry="2.5" style="stroke:#181818;stroke-width:0.5;" width="121" x="32.5" y="147.48"/><rect fill="#F1F1F1" height="10" style="stroke:#181818;stroke-width:0.5;" width="15" x="133.5" y="152.48"/><rect fill="#F1F1F1" height="2" style="stroke:#181818;stroke-width:0.5;" width="4" x="131.5" y="154.48"/><rect fill="#F1F1F1" height="2" style="stroke:#181818;stroke-width:0.5;" width="4" x="131.5" y="158.48"/><text fill="#000000" font-family="sans-serif" font-size="14" lengthAdjust="spacing" textLength="81" x="47.5" y="181.0152">Component</text></g><!--entity Service--><g id="elem_Service"><rect fill="#F1F1F1" height="46.4883" rx="2.5" ry="2.5" style="stroke:#181818;stroke-width:0.5;" width="88" x="22" y="314.97"/><rect fill="#F1F1F1" height="10" style="stroke:#181818;stroke-width:0.5;" width="15" x="90" y="319.97"/><rect fill="#F1F1F1" height="2" style="stroke:#181818;stroke-width:0.5;" width="4" x="88" y="321.97"/><rect fill="#F1F1F1" height="2" style="stroke:#181818;stroke-width:0.5;" width="4" x="88" y="325.97"/><text fill="#000000" font-family="sans-serif" font-size="14" lengthAdjust="spacing" textLength="48" x="37" y="348.5052">Service</text></g><!--entity Model--><g id="elem_Model"><rect fill="#F1F1F1" height="46.4883" rx="2.5" ry="2.5" style="stroke:#181818;stroke-width:0.5;" width="82" x="145" y="314.97"/><rect fill="#F1F1F1" height="10" style="stroke:#181818;stroke-width:0.5;" width="15" x="207" y="319.97"/><rect fill="#F1F1F1" height="2" style="stroke:#181818;stroke-width:0.5;" width="4" x="205" y="321.97"/><rect fill="#F1F1F1" height="2" style="stroke:#181818;stroke-width:0.5;" width="4" x="205" y="325.97"/><text fill="#000000" font-family="sans-serif" font-size="14" lengthAdjust="spacing" textLength="42" x="160" y="348.5052">Model</text></g><!--link UI to Component--><g id="link_UI_Component"><path d="M93,87.91 C93,105.44 93,123.58 93,141.1 " fill="none" id="UI-to-Component" style="stroke:#181818;stroke-width:1.0;stroke-dasharray:7.0,7.0;"/><polygon fill="#181818" points="93,147.1,97,138.1,93,142.1,89,138.1,93,147.1" style="stroke:#181818;stroke-width:1.0;"/></g><!--link Component to Service--><g id="link_Component_Service"><path d="M89.3,194.39 C84.15,225.99 75.8151,277.0381 70.6651,308.6381 " fill="none" id="Component-to-Service" style="stroke:#181818;stroke-width:1.0;stroke-dasharray:7.0,7.0;"/><polygon fill="#181818" points="69.7,314.56,75.0956,306.3206,70.5043,309.6251,67.1998,305.0338,69.7,314.56" style="stroke:#181818;stroke-width:1.0;"/></g><!--link Component to Model--><g id="link_Component_Model"><path d="M105.74,194.39 C123.5,225.99 152.5703,277.7295 170.3303,309.3295 " fill="none" id="Component-to-Model" style="stroke:#181818;stroke-width:1.0;stroke-dasharray:7.0,7.0;"/><polygon fill="#181818" points="173.27,314.56,172.3475,304.7544,170.8203,310.2012,165.3735,308.674,173.27,314.56" style="stroke:#181818;stroke-width:1.0;"/></g><!--SRC=[AqXCpavCJrLG2WvmL5Aevb9GY0xrZ0LHplcv1VbvgNabO5vmQb5PPd8gcEsRdvAQ4yi5P49KA-ZfsQ6hH_20iY1fP0Cm964crd810000]--></g></svg>