<?xml version="1.0" encoding="us-ascii" standalone="no"?><svg xmlns="http://www.w3.org/2000/svg" xmlns:xlink="http://www.w3.org/1999/xlink" contentStyleType="text/css" height="1000px" preserveAspectRatio="none" style="width:1189px;height:1000px;background:#FFFFFF;" version="1.1" viewBox="0 0 1189 1000" width="1189px" zoomAndPan="magnify"><defs/><g><text fill="#000000" font-family="sans-serif" font-size="14" font-weight="bold" lengthAdjust="spacing" textLength="349" x="421" y="28.5352">Container Sequence Diagram (SD) - US1210 (N3)</text><rect fill="#FFFFFF" height="437.6582" style="stroke:#181818;stroke-width:1.0;" width="10" x="335" y="150.2871"/><rect fill="#FFFFFF" height="284.1055" style="stroke:#181818;stroke-width:1.0;" width="10" x="335" y="617.2559"/><rect fill="#FFFFFF" height="379.0371" style="stroke:#181818;stroke-width:1.0;" width="10" x="543" y="179.5977"/><rect fill="#FFFFFF" height="225.4844" style="stroke:#181818;stroke-width:1.0;" width="10" x="543" y="646.5664"/><rect fill="#FFFFFF" height="145.5527" style="stroke:#181818;stroke-width:1.0;" width="10" x="741" y="208.9082"/><rect fill="#FFFFFF" height="145.5527" style="stroke:#181818;stroke-width:1.0;" width="10" x="741" y="383.7715"/><rect fill="#FFFFFF" height="166.8633" style="stroke:#181818;stroke-width:1.0;" width="10" x="741" y="675.877"/><rect fill="#FFFFFF" height="86.9316" style="stroke:#181818;stroke-width:1.0;" width="10" x="939" y="238.2188"/><rect fill="#FFFFFF" height="86.9316" style="stroke:#181818;stroke-width:1.0;" width="10" x="939" y="413.082"/><rect fill="#FFFFFF" height="97.5869" style="stroke:#181818;stroke-width:1.0;" width="10" x="939" y="705.1875"/><line style="stroke:#181818;stroke-width:0.5;stroke-dasharray:5.0,5.0;" x1="71" x2="71" y1="118.9766" y2="919.3613"/><line style="stroke:#181818;stroke-width:0.5;stroke-dasharray:5.0,5.0;" x1="339.5" x2="339.5" y1="118.9766" y2="919.3613"/><line style="stroke:#181818;stroke-width:0.5;stroke-dasharray:5.0,5.0;" x1="547.5" x2="547.5" y1="118.9766" y2="919.3613"/><line style="stroke:#181818;stroke-width:0.5;stroke-dasharray:5.0,5.0;" x1="746" x2="746" y1="118.9766" y2="919.3613"/><line style="stroke:#181818;stroke-width:0.5;stroke-dasharray:5.0,5.0;" x1="944" x2="944" y1="118.9766" y2="919.3613"/><text fill="#000000" font-family="sans-serif" font-size="14" lengthAdjust="spacing" textLength="126" x="5" y="116.0234">Gestor de Campus</text><ellipse cx="71" cy="50.9883" fill="#E3E3E3" rx="8" ry="8" style="stroke:#181818;stroke-width:0.5;"/><path d="M71,58.9883 L71,85.9883 M58,66.9883 L84,66.9883 M71,85.9883 L58,100.9883 M71,85.9883 L84,100.9883 " fill="none" style="stroke:#181818;stroke-width:0.5;"/><text fill="#000000" font-family="sans-serif" font-size="14" lengthAdjust="spacing" textLength="126" x="5" y="931.8965">Gestor de Campus</text><ellipse cx="71" cy="943.3496" fill="#E3E3E3" rx="8" ry="8" style="stroke:#181818;stroke-width:0.5;"/><path d="M71,951.3496 L71,978.3496 M58,959.3496 L84,959.3496 M71,978.3496 L58,993.3496 M71,978.3496 L84,993.3496 " fill="none" style="stroke:#181818;stroke-width:0.5;"/><rect fill="#E3E3E3" height="46.9766" rx="2.5" ry="2.5" style="stroke:#181818;stroke-width:0.5;" width="119" x="280.5" y="71"/><text fill="#000000" font-family="sans-serif" font-size="14" lengthAdjust="spacing" textLength="105" x="287.5" y="91.5352">&#171;C4:Container&#187;</text><text fill="#000000" font-family="sans-serif" font-size="14" lengthAdjust="spacing" textLength="89" x="295.5" y="108.0234">:Visualiza&#231;&#227;o</text><rect fill="#E3E3E3" height="46.9766" rx="2.5" ry="2.5" style="stroke:#181818;stroke-width:0.5;" width="119" x="280.5" y="918.3613"/><text fill="#000000" font-family="sans-serif" font-size="14" lengthAdjust="spacing" textLength="105" x="287.5" y="938.8965">&#171;C4:Container&#187;</text><text fill="#000000" font-family="sans-serif" font-size="14" lengthAdjust="spacing" textLength="89" x="295.5" y="955.3848">:Visualiza&#231;&#227;o</text><rect fill="#E3E3E3" height="30.4883" rx="2.5" ry="2.5" style="stroke:#181818;stroke-width:0.5;" width="95" x="500.5" y="87.4883"/><text fill="#000000" font-family="sans-serif" font-size="14" lengthAdjust="spacing" textLength="81" x="507.5" y="108.0234">Component</text><rect fill="#E3E3E3" height="30.4883" rx="2.5" ry="2.5" style="stroke:#181818;stroke-width:0.5;" width="95" x="500.5" y="918.3613"/><text fill="#000000" font-family="sans-serif" font-size="14" lengthAdjust="spacing" textLength="81" x="507.5" y="938.8965">Component</text><rect fill="#E3E3E3" height="30.4883" rx="2.5" ry="2.5" style="stroke:#181818;stroke-width:0.5;" width="62" x="715" y="87.4883"/><text fill="#000000" font-family="sans-serif" font-size="14" lengthAdjust="spacing" textLength="48" x="722" y="108.0234">Service</text><rect fill="#E3E3E3" height="30.4883" rx="2.5" ry="2.5" style="stroke:#181818;stroke-width:0.5;" width="62" x="715" y="918.3613"/><text fill="#000000" font-family="sans-serif" font-size="14" lengthAdjust="spacing" textLength="48" x="722" y="938.8965">Service</text><rect fill="#E3E3E3" height="63.4648" rx="2.5" ry="2.5" style="stroke:#181818;stroke-width:0.5;" width="138" x="875" y="54.5117"/><text fill="#000000" font-family="sans-serif" font-size="14" lengthAdjust="spacing" textLength="105" x="891.5" y="75.0469">&#171;C4:Container&#187;</text><text fill="#000000" font-family="sans-serif" font-size="14" lengthAdjust="spacing" textLength="124" x="882" y="91.5352">M&#243;dulo de Gest&#227;o</text><text fill="#000000" font-family="sans-serif" font-size="14" lengthAdjust="spacing" textLength="99" x="894.5" y="108.0234">de Informa&#231;&#227;o</text><rect fill="#E3E3E3" height="63.4648" rx="2.5" ry="2.5" style="stroke:#181818;stroke-width:0.5;" width="138" x="875" y="918.3613"/><text fill="#000000" font-family="sans-serif" font-size="14" lengthAdjust="spacing" textLength="105" x="891.5" y="938.8965">&#171;C4:Container&#187;</text><text fill="#000000" font-family="sans-serif" font-size="14" lengthAdjust="spacing" textLength="124" x="882" y="955.3848">M&#243;dulo de Gest&#227;o</text><text fill="#000000" font-family="sans-serif" font-size="14" lengthAdjust="spacing" textLength="99" x="894.5" y="971.873">de Informa&#231;&#227;o</text><rect fill="#FFFFFF" height="437.6582" style="stroke:#181818;stroke-width:1.0;" width="10" x="335" y="150.2871"/><rect fill="#FFFFFF" height="284.1055" style="stroke:#181818;stroke-width:1.0;" width="10" x="335" y="617.2559"/><rect fill="#FFFFFF" height="379.0371" style="stroke:#181818;stroke-width:1.0;" width="10" x="543" y="179.5977"/><rect fill="#FFFFFF" height="225.4844" style="stroke:#181818;stroke-width:1.0;" width="10" x="543" y="646.5664"/><rect fill="#FFFFFF" height="145.5527" style="stroke:#181818;stroke-width:1.0;" width="10" x="741" y="208.9082"/><rect fill="#FFFFFF" height="145.5527" style="stroke:#181818;stroke-width:1.0;" width="10" x="741" y="383.7715"/><rect fill="#FFFFFF" height="166.8633" style="stroke:#181818;stroke-width:1.0;" width="10" x="741" y="675.877"/><rect fill="#FFFFFF" height="86.9316" style="stroke:#181818;stroke-width:1.0;" width="10" x="939" y="238.2188"/><rect fill="#FFFFFF" height="86.9316" style="stroke:#181818;stroke-width:1.0;" width="10" x="939" y="413.082"/><rect fill="#FFFFFF" height="97.5869" style="stroke:#181818;stroke-width:1.0;" width="10" x="939" y="705.1875"/><polygon fill="#181818" points="323,146.2871,333,150.2871,323,154.2871,327,150.2871" style="stroke:#181818;stroke-width:1.0;"/><line style="stroke:#181818;stroke-width:1.0;" x1="71" x2="329" y1="150.2871" y2="150.2871"/><text fill="#000000" font-family="sans-serif" font-size="13" font-weight="bold" lengthAdjust="spacing" textLength="9" x="78" y="145.5449">1</text><text fill="#000000" font-family="sans-serif" font-size="13" lengthAdjust="spacing" textLength="225" x="91" y="145.5449">Inicia opera&#231;&#227;o de criar sala de piso</text><polygon fill="#181818" points="531,175.5977,541,179.5977,531,183.5977,535,179.5977" style="stroke:#181818;stroke-width:1.0;"/><line style="stroke:#181818;stroke-width:1.0;" x1="345" x2="537" y1="179.5977" y2="179.5977"/><text fill="#000000" font-family="sans-serif" font-size="13" font-weight="bold" lengthAdjust="spacing" textLength="9" x="352" y="174.8555">2</text><text fill="#000000" font-family="sans-serif" font-size="13" lengthAdjust="spacing" textLength="45" x="365" y="174.8555">ngInit()</text><polygon fill="#181818" points="729,204.9082,739,208.9082,729,212.9082,733,208.9082" style="stroke:#181818;stroke-width:1.0;"/><line style="stroke:#181818;stroke-width:1.0;" x1="553" x2="735" y1="208.9082" y2="208.9082"/><text fill="#000000" font-family="sans-serif" font-size="13" font-weight="bold" lengthAdjust="spacing" textLength="9" x="560" y="204.166">3</text><text fill="#000000" font-family="sans-serif" font-size="13" lengthAdjust="spacing" textLength="67" x="573" y="204.166">getFloors()</text><polygon fill="#181818" points="927,234.2188,937,238.2188,927,242.2188,931,238.2188" style="stroke:#181818;stroke-width:1.0;"/><line style="stroke:#181818;stroke-width:1.0;" x1="751" x2="933" y1="238.2188" y2="238.2188"/><text fill="#000000" font-family="sans-serif" font-size="13" font-weight="bold" lengthAdjust="spacing" textLength="9" x="758" y="233.4766">4</text><text fill="#000000" font-family="sans-serif" font-size="13" lengthAdjust="spacing" textLength="67" x="771" y="233.4766">getFloors()</text><line style="stroke:#181818;stroke-width:1.0;" x1="949" x2="991" y1="282.8398" y2="282.8398"/><line style="stroke:#181818;stroke-width:1.0;" x1="991" x2="991" y1="282.8398" y2="295.8398"/><line style="stroke:#181818;stroke-width:1.0;" x1="950" x2="991" y1="295.8398" y2="295.8398"/><polygon fill="#181818" points="960,291.8398,950,295.8398,960,299.8398,956,295.8398" style="stroke:#181818;stroke-width:1.0;"/><text fill="#000000" font-family="sans-serif" font-size="13" font-weight="bold" lengthAdjust="spacing" textLength="9" x="956" y="270.4424">5</text><text fill="#000000" font-family="sans-serif" font-size="13" lengthAdjust="spacing" textLength="137" x="969" y="262.7871">middleware.rolecheck</text><text fill="#000000" font-family="sans-serif" font-size="13" lengthAdjust="spacing" textLength="202" x="969" y="278.0977">("Admin" || "Gestor de Campus")</text><polygon fill="#181818" points="762,321.1504,752,325.1504,762,329.1504,758,325.1504" style="stroke:#181818;stroke-width:1.0;"/><line style="stroke:#181818;stroke-width:1.0;stroke-dasharray:2.0,2.0;" x1="756" x2="943" y1="325.1504" y2="325.1504"/><text fill="#000000" font-family="sans-serif" font-size="13" font-weight="bold" lengthAdjust="spacing" textLength="9" x="768" y="320.4082">6</text><text fill="#000000" font-family="sans-serif" font-size="13" lengthAdjust="spacing" textLength="87" x="781" y="320.4082">Lista de pisos</text><polygon fill="#181818" points="564,350.4609,554,354.4609,564,358.4609,560,354.4609" style="stroke:#181818;stroke-width:1.0;"/><line style="stroke:#181818;stroke-width:1.0;stroke-dasharray:2.0,2.0;" x1="558" x2="745" y1="354.4609" y2="354.4609"/><text fill="#000000" font-family="sans-serif" font-size="13" font-weight="bold" lengthAdjust="spacing" textLength="9" x="570" y="349.7188">7</text><text fill="#000000" font-family="sans-serif" font-size="13" lengthAdjust="spacing" textLength="87" x="583" y="349.7188">Lista de pisos</text><polygon fill="#181818" points="729,379.7715,739,383.7715,729,387.7715,733,383.7715" style="stroke:#181818;stroke-width:1.0;"/><line style="stroke:#181818;stroke-width:1.0;" x1="553" x2="735" y1="383.7715" y2="383.7715"/><text fill="#000000" font-family="sans-serif" font-size="13" font-weight="bold" lengthAdjust="spacing" textLength="9" x="560" y="379.0293">8</text><text fill="#000000" font-family="sans-serif" font-size="13" lengthAdjust="spacing" textLength="71" x="573" y="379.0293">getRooms()</text><polygon fill="#181818" points="927,409.082,937,413.082,927,417.082,931,413.082" style="stroke:#181818;stroke-width:1.0;"/><line style="stroke:#181818;stroke-width:1.0;" x1="751" x2="933" y1="413.082" y2="413.082"/><text fill="#000000" font-family="sans-serif" font-size="13" font-weight="bold" lengthAdjust="spacing" textLength="9" x="758" y="408.3398">9</text><text fill="#000000" font-family="sans-serif" font-size="13" lengthAdjust="spacing" textLength="71" x="771" y="408.3398">getRooms()</text><line style="stroke:#181818;stroke-width:1.0;" x1="949" x2="991" y1="457.7031" y2="457.7031"/><line style="stroke:#181818;stroke-width:1.0;" x1="991" x2="991" y1="457.7031" y2="470.7031"/><line style="stroke:#181818;stroke-width:1.0;" x1="950" x2="991" y1="470.7031" y2="470.7031"/><polygon fill="#181818" points="960,466.7031,950,470.7031,960,474.7031,956,470.7031" style="stroke:#181818;stroke-width:1.0;"/><text fill="#000000" font-family="sans-serif" font-size="13" font-weight="bold" lengthAdjust="spacing" textLength="18" x="956" y="445.3057">10</text><text fill="#000000" font-family="sans-serif" font-size="13" lengthAdjust="spacing" textLength="137" x="978" y="437.6504">middleware.rolecheck</text><text fill="#000000" font-family="sans-serif" font-size="13" lengthAdjust="spacing" textLength="202" x="978" y="452.9609">("Admin" || "Gestor de Campus")</text><polygon fill="#181818" points="762,496.0137,752,500.0137,762,504.0137,758,500.0137" style="stroke:#181818;stroke-width:1.0;"/><line style="stroke:#181818;stroke-width:1.0;stroke-dasharray:2.0,2.0;" x1="756" x2="943" y1="500.0137" y2="500.0137"/><text fill="#000000" font-family="sans-serif" font-size="13" font-weight="bold" lengthAdjust="spacing" textLength="18" x="768" y="495.2715">11</text><text fill="#000000" font-family="sans-serif" font-size="13" lengthAdjust="spacing" textLength="142" x="790" y="495.2715">Lista de sala de pisoes</text><polygon fill="#181818" points="564,525.3242,554,529.3242,564,533.3242,560,529.3242" style="stroke:#181818;stroke-width:1.0;"/><line style="stroke:#181818;stroke-width:1.0;stroke-dasharray:2.0,2.0;" x1="558" x2="745" y1="529.3242" y2="529.3242"/><text fill="#000000" font-family="sans-serif" font-size="13" font-weight="bold" lengthAdjust="spacing" textLength="18" x="570" y="524.582">12</text><text fill="#000000" font-family="sans-serif" font-size="13" lengthAdjust="spacing" textLength="142" x="592" y="524.582">Lista de sala de pisoes</text><polygon fill="#181818" points="356,554.6348,346,558.6348,356,562.6348,352,558.6348" style="stroke:#181818;stroke-width:1.0;"/><line style="stroke:#181818;stroke-width:1.0;stroke-dasharray:2.0,2.0;" x1="350" x2="547" y1="558.6348" y2="558.6348"/><text fill="#000000" font-family="sans-serif" font-size="13" font-weight="bold" lengthAdjust="spacing" textLength="18" x="362" y="553.8926">13</text><text fill="#000000" font-family="sans-serif" font-size="13" lengthAdjust="spacing" textLength="152" x="384" y="553.8926">buildings, floors, rooms</text><polygon fill="#181818" points="82,583.9453,72,587.9453,82,591.9453,78,587.9453" style="stroke:#181818;stroke-width:1.0;"/><line style="stroke:#181818;stroke-width:1.0;stroke-dasharray:2.0,2.0;" x1="76" x2="339" y1="587.9453" y2="587.9453"/><text fill="#000000" font-family="sans-serif" font-size="13" font-weight="bold" lengthAdjust="spacing" textLength="18" x="88" y="583.2031">14</text><text fill="#000000" font-family="sans-serif" font-size="13" lengthAdjust="spacing" textLength="218" x="110" y="583.2031">Solicita dados que pretende mudar</text><polygon fill="#181818" points="323,613.2559,333,617.2559,323,621.2559,327,617.2559" style="stroke:#181818;stroke-width:1.0;"/><line style="stroke:#181818;stroke-width:1.0;" x1="71" x2="329" y1="617.2559" y2="617.2559"/><text fill="#000000" font-family="sans-serif" font-size="13" font-weight="bold" lengthAdjust="spacing" textLength="18" x="78" y="612.5137">15</text><text fill="#000000" font-family="sans-serif" font-size="13" lengthAdjust="spacing" textLength="168" x="100" y="612.5137">Introduz dados solicitados</text><polygon fill="#181818" points="531,642.5664,541,646.5664,531,650.5664,535,646.5664" style="stroke:#181818;stroke-width:1.0;"/><line style="stroke:#181818;stroke-width:1.0;" x1="345" x2="537" y1="646.5664" y2="646.5664"/><text fill="#000000" font-family="sans-serif" font-size="13" font-weight="bold" lengthAdjust="spacing" textLength="18" x="352" y="641.8242">16</text><text fill="#000000" font-family="sans-serif" font-size="13" lengthAdjust="spacing" textLength="79" x="374" y="641.8242">create(room)</text><polygon fill="#181818" points="729,671.877,739,675.877,729,679.877,733,675.877" style="stroke:#181818;stroke-width:1.0;"/><line style="stroke:#181818;stroke-width:1.0;" x1="553" x2="735" y1="675.877" y2="675.877"/><text fill="#000000" font-family="sans-serif" font-size="13" font-weight="bold" lengthAdjust="spacing" textLength="18" x="560" y="671.1348">17</text><text fill="#000000" font-family="sans-serif" font-size="13" lengthAdjust="spacing" textLength="79" x="582" y="671.1348">create(room)</text><polygon fill="#181818" points="927,701.1875,937,705.1875,927,709.1875,931,705.1875" style="stroke:#181818;stroke-width:1.0;"/><line style="stroke:#181818;stroke-width:1.0;" x1="751" x2="933" y1="705.1875" y2="705.1875"/><text fill="#000000" font-family="sans-serif" font-size="13" font-weight="bold" lengthAdjust="spacing" textLength="18" x="758" y="700.4453">18</text><text fill="#000000" font-family="sans-serif" font-size="13" lengthAdjust="spacing" textLength="79" x="780" y="700.4453">create(room)</text><line style="stroke:#181818;stroke-width:1.0;" x1="949" x2="991" y1="749.8086" y2="749.8086"/><line style="stroke:#181818;stroke-width:1.0;" x1="991" x2="991" y1="749.8086" y2="762.8086"/><line style="stroke:#181818;stroke-width:1.0;" x1="950" x2="991" y1="762.8086" y2="762.8086"/><polygon fill="#181818" points="960,758.8086,950,762.8086,960,766.8086,956,762.8086" style="stroke:#181818;stroke-width:1.0;"/><text fill="#000000" font-family="sans-serif" font-size="13" font-weight="bold" lengthAdjust="spacing" textLength="18" x="956" y="737.4111">19</text><text fill="#000000" font-family="sans-serif" font-size="13" lengthAdjust="spacing" textLength="137" x="978" y="729.7559">middleware.rolecheck</text><text fill="#000000" font-family="sans-serif" font-size="13" lengthAdjust="spacing" textLength="202" x="978" y="745.0664">("Admin" || "Gestor de Campus")</text><polygon fill="#181818" points="762,798.7744,752,802.7744,762,806.7744,758,802.7744" style="stroke:#181818;stroke-width:1.0;"/><line style="stroke:#181818;stroke-width:1.0;stroke-dasharray:2.0,2.0;" x1="756" x2="943" y1="802.7744" y2="802.7744"/><text fill="#000000" font-family="sans-serif" font-size="13" font-weight="bold" lengthAdjust="spacing" textLength="18" x="768" y="798.0322">20</text><text fill="#000000" font-family="sans-serif" font-size="13" lengthAdjust="spacing" textLength="83" x="790" y="798.0322">201 OK room</text><path d="M954,775.8086 L954,815.8086 L1182,815.8086 L1182,785.8086 L1172,775.8086 L954,775.8086 " fill="#FAFAFA" style="stroke:#181818;stroke-width:0.5;"/><path d="M1172,775.8086 L1172,785.8086 L1182,785.8086 L1172,775.8086 " fill="#FAFAFA" style="stroke:#181818;stroke-width:0.5;"/><text fill="#000000" font-family="sans-serif" font-size="13" lengthAdjust="spacing" textLength="207" x="960" y="793.377">M&#243;dulo de Gest&#227;o de Informa&#231;&#227;o</text><text fill="#000000" font-family="sans-serif" font-size="13" lengthAdjust="spacing" textLength="184" x="960" y="808.6875">&#233; a representa&#231;&#227;o do Sprint A</text><polygon fill="#181818" points="564,838.7402,554,842.7402,564,846.7402,560,842.7402" style="stroke:#181818;stroke-width:1.0;"/><line style="stroke:#181818;stroke-width:1.0;stroke-dasharray:2.0,2.0;" x1="558" x2="745" y1="842.7402" y2="842.7402"/><text fill="#000000" font-family="sans-serif" font-size="13" font-weight="bold" lengthAdjust="spacing" textLength="18" x="570" y="837.998">21</text><text fill="#000000" font-family="sans-serif" font-size="13" lengthAdjust="spacing" textLength="83" x="592" y="837.998">201 OK room</text><polygon fill="#181818" points="356,868.0508,346,872.0508,356,876.0508,352,872.0508" style="stroke:#181818;stroke-width:1.0;"/><line style="stroke:#181818;stroke-width:1.0;stroke-dasharray:2.0,2.0;" x1="350" x2="547" y1="872.0508" y2="872.0508"/><text fill="#000000" font-family="sans-serif" font-size="13" font-weight="bold" lengthAdjust="spacing" textLength="18" x="362" y="867.3086">22</text><text fill="#000000" font-family="sans-serif" font-size="13" lengthAdjust="spacing" textLength="83" x="384" y="867.3086">201 OK room</text><polygon fill="#181818" points="82,897.3613,72,901.3613,82,905.3613,78,901.3613" style="stroke:#181818;stroke-width:1.0;"/><line style="stroke:#181818;stroke-width:1.0;stroke-dasharray:2.0,2.0;" x1="76" x2="339" y1="901.3613" y2="901.3613"/><text fill="#000000" font-family="sans-serif" font-size="13" font-weight="bold" lengthAdjust="spacing" textLength="18" x="88" y="896.6191">23</text><text fill="#000000" font-family="sans-serif" font-size="13" lengthAdjust="spacing" textLength="141" x="110" y="896.6191">Mensagem de sucesso</text><!--SRC=[xLQzRjim4Dxv50TDDX0NSTf9C0m43be4RLgWGZjvOQYpJ5WaLP9Aq21lqw7et4VmY_NesB9IoQtiE5icKUJzV3n-_8vk8NN1BLUWZ3PYRer2yBP4vggLWei5pp3nttC4Yy9pdULr0pVdgRcLEeCPpnqovgKdqudHdakD5XByLg8M21UIPy6ZbrpqOG1Vak7Py1Hw7r_t6UEbDxfKrsXfBBon4Br35xufnUAgA5t4M7CE1cE8HgF9cxXAE1vFTVnLkfBdyeulVov_c2Y6Ios5v60Aj0zp8OYmabjmFEVXhv3EXEJoXdli4fLri0a09qOLHgFsCUYCWFXUVvkdMcJLAFWaQ6ya5Is63FtRt1ZhwbxhPROnQo_3rV9tMkQhhORA4Pwffl6bdXchDW1tP3Wm73iKnk4xY479DCtnbbjyPKsEOevYCTMzw3nLKaTmVz_2flxXI1yTpmVfV4KVnr9ySWMhCwrJvv-PDcpOpQ3FngXM0XsDGOqCBmJgGA3QgTPb29-FI9qojX2gcz0I5wvBcQVK3zm9p5QgSW8sSACUVojwtJGq96ySG0o9oKdLmsQe1pcWFWE5HO-X5AfCkVrF5Hk2_hGEuwr9oxir6BV6HkFdRIfKSc6HelT2cVVfBErkHsqjZrAyQCEUsd1sEeHFxrVNXnr34BGXPokpEQb0qm7-if_gvI_WzEYZE-M8F9jtau6ai9B8TBvBOUguZwGgEq9kENw4yhHS_j5WqEtsNw5sz4vMArqj1JfwI-uhFdy0]--></g></svg>