<?xml version="1.0" encoding="us-ascii" standalone="no"?><svg xmlns="http://www.w3.org/2000/svg" xmlns:xlink="http://www.w3.org/1999/xlink" contentStyleType="text/css" height="1002px" preserveAspectRatio="none" style="width:2660px;height:1002px;background:#FFFFFF;" version="1.1" viewBox="0 0 2660 1002" width="2660px" zoomAndPan="magnify"><defs/><g><text fill="#000000" font-family="sans-serif" font-size="14" font-weight="bold" lengthAdjust="spacing" textLength="340" x="1159.25" y="28.5352">Container Sequence Diagram (SD) - US240 (N3)</text><rect fill="#FFFFFF" height="59.9316" style="stroke:#181818;stroke-width:1.0;" width="10" x="449" y="165.5977"/><rect fill="#FFFFFF" height="648.1875" style="stroke:#181818;stroke-width:1.0;" width="10" x="449" y="254.8398"/><rect fill="#FFFFFF" height="574.2559" style="stroke:#181818;stroke-width:1.0;" width="10" x="893" y="299.4609"/><rect fill="#FFFFFF" height="500.3242" style="stroke:#181818;stroke-width:1.0;" width="10" x="1337" y="344.082"/><rect fill="#FFFFFF" height="441.7031" style="stroke:#181818;stroke-width:1.0;" width="10" x="1781" y="373.3926"/><rect fill="#FFFFFF" height="383.082" style="stroke:#181818;stroke-width:1.0;" width="10" x="2225" y="402.7031"/><rect fill="#FFFFFF" height="236.4844" style="stroke:#181818;stroke-width:1.0;" width="10" x="2480" y="432.0137"/><rect fill="#FFFFFF" height="30" style="stroke:#181818;stroke-width:1.0;" width="10" x="2480" y="755.7852"/><rect fill="none" height="193.1738" style="stroke:#000000;stroke-width:1.5;" width="2547.5" x="10" y="447.0137"/><line style="stroke:#181818;stroke-width:0.5;stroke-dasharray:5.0,5.0;" x1="86" x2="86" y1="118.9766" y2="921.0273"/><line style="stroke:#181818;stroke-width:0.5;stroke-dasharray:5.0,5.0;" x1="453.5" x2="453.5" y1="118.9766" y2="921.0273"/><line style="stroke:#181818;stroke-width:0.5;stroke-dasharray:5.0,5.0;" x1="898" x2="898" y1="118.9766" y2="921.0273"/><line style="stroke:#181818;stroke-width:0.5;stroke-dasharray:5.0,5.0;" x1="1342" x2="1342" y1="118.9766" y2="921.0273"/><line style="stroke:#181818;stroke-width:0.5;stroke-dasharray:5.0,5.0;" x1="1786" x2="1786" y1="118.9766" y2="921.0273"/><line style="stroke:#181818;stroke-width:0.5;stroke-dasharray:5.0,5.0;" x1="2230" x2="2230" y1="118.9766" y2="921.0273"/><line style="stroke:#181818;stroke-width:0.5;stroke-dasharray:5.0,5.0;" x1="2484.5" x2="2484.5" y1="118.9766" y2="921.0273"/><line style="stroke:#181818;stroke-width:0.5;stroke-dasharray:5.0,5.0;" x1="2605.5" x2="2605.5" y1="715.4863" y2="921.0273"/><text fill="#000000" font-family="sans-serif" font-size="14" lengthAdjust="spacing" textLength="126" x="20" y="116.0234">Gestor de Campus</text><ellipse cx="86" cy="50.9883" fill="#E3E3E3" rx="8" ry="8" style="stroke:#181818;stroke-width:0.5;"/><path d="M86,58.9883 L86,85.9883 M73,66.9883 L99,66.9883 M86,85.9883 L73,100.9883 M86,85.9883 L99,100.9883 " fill="none" style="stroke:#181818;stroke-width:0.5;"/><text fill="#000000" font-family="sans-serif" font-size="14" lengthAdjust="spacing" textLength="126" x="20" y="933.5625">Gestor de Campus</text><ellipse cx="86" cy="945.0156" fill="#E3E3E3" rx="8" ry="8" style="stroke:#181818;stroke-width:0.5;"/><path d="M86,953.0156 L86,980.0156 M73,961.0156 L99,961.0156 M86,980.0156 L73,995.0156 M86,980.0156 L99,995.0156 " fill="none" style="stroke:#181818;stroke-width:0.5;"/><rect fill="#E3E3E3" height="46.9766" rx="2.5" ry="2.5" style="stroke:#181818;stroke-width:0.5;" width="119" x="394.5" y="71"/><text fill="#000000" font-family="sans-serif" font-size="14" lengthAdjust="spacing" textLength="105" x="401.5" y="91.5352">&#171;C4:Container&#187;</text><text fill="#000000" font-family="sans-serif" font-size="14" lengthAdjust="spacing" textLength="89" x="409.5" y="108.0234">:Visualiza&#231;&#227;o</text><rect fill="#E3E3E3" height="46.9766" rx="2.5" ry="2.5" style="stroke:#181818;stroke-width:0.5;" width="119" x="394.5" y="920.0273"/><text fill="#000000" font-family="sans-serif" font-size="14" lengthAdjust="spacing" textLength="105" x="401.5" y="940.5625">&#171;C4:Container&#187;</text><text fill="#000000" font-family="sans-serif" font-size="14" lengthAdjust="spacing" textLength="89" x="409.5" y="957.0508">:Visualiza&#231;&#227;o</text><rect fill="#E3E3E3" height="63.4648" rx="2.5" ry="2.5" style="stroke:#181818;stroke-width:0.5;" width="138" x="829" y="54.5117"/><text fill="#000000" font-family="sans-serif" font-size="14" lengthAdjust="spacing" textLength="105" x="845.5" y="75.0469">&#171;C4:Container&#187;</text><text fill="#000000" font-family="sans-serif" font-size="14" lengthAdjust="spacing" textLength="124" x="836" y="91.5352">M&#243;dulo de Gest&#227;o</text><text fill="#000000" font-family="sans-serif" font-size="14" lengthAdjust="spacing" textLength="99" x="848.5" y="108.0234">de Informa&#231;&#227;o</text><rect fill="#E3E3E3" height="63.4648" rx="2.5" ry="2.5" style="stroke:#181818;stroke-width:0.5;" width="138" x="829" y="920.0273"/><text fill="#000000" font-family="sans-serif" font-size="14" lengthAdjust="spacing" textLength="105" x="845.5" y="940.5625">&#171;C4:Container&#187;</text><text fill="#000000" font-family="sans-serif" font-size="14" lengthAdjust="spacing" textLength="124" x="836" y="957.0508">M&#243;dulo de Gest&#227;o</text><text fill="#000000" font-family="sans-serif" font-size="14" lengthAdjust="spacing" textLength="99" x="848.5" y="973.5391">de Informa&#231;&#227;o</text><rect fill="#E3E3E3" height="30.4883" rx="2.5" ry="2.5" style="stroke:#181818;stroke-width:0.5;" width="130" x="1277" y="87.4883"/><text fill="#000000" font-family="sans-serif" font-size="14" lengthAdjust="spacing" textLength="116" x="1284" y="108.0234">connectionRoute</text><rect fill="#E3E3E3" height="30.4883" rx="2.5" ry="2.5" style="stroke:#181818;stroke-width:0.5;" width="130" x="1277" y="920.0273"/><text fill="#000000" font-family="sans-serif" font-size="14" lengthAdjust="spacing" textLength="116" x="1284" y="940.5625">connectionRoute</text><rect fill="#E3E3E3" height="30.4883" rx="2.5" ry="2.5" style="stroke:#181818;stroke-width:0.5;" width="160" x="1706" y="87.4883"/><text fill="#000000" font-family="sans-serif" font-size="14" lengthAdjust="spacing" textLength="146" x="1713" y="108.0234">connectionController</text><rect fill="#E3E3E3" height="30.4883" rx="2.5" ry="2.5" style="stroke:#181818;stroke-width:0.5;" width="160" x="1706" y="920.0273"/><text fill="#000000" font-family="sans-serif" font-size="14" lengthAdjust="spacing" textLength="146" x="1713" y="940.5625">connectionController</text><rect fill="#E3E3E3" height="30.4883" rx="2.5" ry="2.5" style="stroke:#181818;stroke-width:0.5;" width="138" x="2161" y="87.4883"/><text fill="#000000" font-family="sans-serif" font-size="14" lengthAdjust="spacing" textLength="124" x="2168" y="108.0234">connectionService</text><rect fill="#E3E3E3" height="30.4883" rx="2.5" ry="2.5" style="stroke:#181818;stroke-width:0.5;" width="138" x="2161" y="920.0273"/><text fill="#000000" font-family="sans-serif" font-size="14" lengthAdjust="spacing" textLength="124" x="2168" y="940.5625">connectionService</text><rect fill="#E3E3E3" height="30.4883" rx="2.5" ry="2.5" style="stroke:#181818;stroke-width:0.5;" width="125" x="2422.5" y="87.4883"/><text fill="#000000" font-family="sans-serif" font-size="14" lengthAdjust="spacing" textLength="111" x="2429.5" y="108.0234">connectionRepo</text><rect fill="#E3E3E3" height="30.4883" rx="2.5" ry="2.5" style="stroke:#181818;stroke-width:0.5;" width="125" x="2422.5" y="920.0273"/><text fill="#000000" font-family="sans-serif" font-size="14" lengthAdjust="spacing" textLength="111" x="2429.5" y="940.5625">connectionRepo</text><rect fill="#E3E3E3" height="46.9766" rx="2.5" ry="2.5" style="stroke:#181818;stroke-width:0.5;" width="97" x="2557.5" y="920.0273"/><text fill="#000000" font-family="sans-serif" font-size="14" lengthAdjust="spacing" textLength="76" x="2568" y="940.5625">connection</text><text fill="#000000" font-family="sans-serif" font-size="14" lengthAdjust="spacing" textLength="83" x="2564.5" y="957.0508">:Connection</text><rect fill="#FFFFFF" height="59.9316" style="stroke:#181818;stroke-width:1.0;" width="10" x="449" y="165.5977"/><rect fill="#FFFFFF" height="648.1875" style="stroke:#181818;stroke-width:1.0;" width="10" x="449" y="254.8398"/><rect fill="#FFFFFF" height="574.2559" style="stroke:#181818;stroke-width:1.0;" width="10" x="893" y="299.4609"/><rect fill="#FFFFFF" height="500.3242" style="stroke:#181818;stroke-width:1.0;" width="10" x="1337" y="344.082"/><rect fill="#FFFFFF" height="441.7031" style="stroke:#181818;stroke-width:1.0;" width="10" x="1781" y="373.3926"/><rect fill="#FFFFFF" height="383.082" style="stroke:#181818;stroke-width:1.0;" width="10" x="2225" y="402.7031"/><rect fill="#FFFFFF" height="236.4844" style="stroke:#181818;stroke-width:1.0;" width="10" x="2480" y="432.0137"/><rect fill="#FFFFFF" height="30" style="stroke:#181818;stroke-width:1.0;" width="10" x="2480" y="755.7852"/><polygon fill="#181818" points="437,161.5977,447,165.5977,437,169.5977,441,165.5977" style="stroke:#181818;stroke-width:1.0;"/><line style="stroke:#181818;stroke-width:1.0;" x1="86" x2="443" y1="165.5977" y2="165.5977"/><text fill="#000000" font-family="sans-serif" font-size="13" font-weight="bold" lengthAdjust="spacing" textLength="9" x="93" y="153.2002">1</text><text fill="#000000" font-family="sans-serif" font-size="13" lengthAdjust="spacing" textLength="249" x="106" y="145.5449">Inicia opera&#231;&#227;o de criar passagem entre</text><text fill="#000000" font-family="sans-serif" font-size="13" lengthAdjust="spacing" textLength="85" x="106" y="160.8555">dois edif&#237;cios</text><polygon fill="#181818" points="97,221.5293,87,225.5293,97,229.5293,93,225.5293" style="stroke:#181818;stroke-width:1.0;"/><line style="stroke:#181818;stroke-width:1.0;stroke-dasharray:2.0,2.0;" x1="91" x2="453" y1="225.5293" y2="225.5293"/><text fill="#000000" font-family="sans-serif" font-size="13" font-weight="bold" lengthAdjust="spacing" textLength="9" x="103" y="205.4766">2</text><text fill="#000000" font-family="sans-serif" font-size="13" lengthAdjust="spacing" textLength="260" x="116" y="190.166">Solicita dados necess&#225;rios (connectionId,</text><text fill="#000000" font-family="sans-serif" font-size="13" lengthAdjust="spacing" textLength="326" x="116" y="205.4766">buildingfromId, buildingtoId, floorfromId, floortoId,</text><text fill="#000000" font-family="sans-serif" font-size="13" lengthAdjust="spacing" textLength="130" x="120" y="220.7871">locationX, locationY)</text><polygon fill="#181818" points="437,250.8398,447,254.8398,437,258.8398,441,254.8398" style="stroke:#181818;stroke-width:1.0;"/><line style="stroke:#181818;stroke-width:1.0;" x1="86" x2="443" y1="254.8398" y2="254.8398"/><text fill="#000000" font-family="sans-serif" font-size="13" font-weight="bold" lengthAdjust="spacing" textLength="9" x="93" y="250.0977">3</text><text fill="#000000" font-family="sans-serif" font-size="13" lengthAdjust="spacing" textLength="168" x="106" y="250.0977">Introduz dados solicitados</text><polygon fill="#181818" points="881,295.4609,891,299.4609,881,303.4609,885,299.4609" style="stroke:#181818;stroke-width:1.0;"/><line style="stroke:#181818;stroke-width:1.0;" x1="459" x2="887" y1="299.4609" y2="299.4609"/><text fill="#000000" font-family="sans-serif" font-size="13" font-weight="bold" lengthAdjust="spacing" textLength="9" x="466" y="287.0635">4</text><text fill="#000000" font-family="sans-serif" font-size="13" lengthAdjust="spacing" textLength="323" x="479" y="279.4082">POST /connections/ {connectionId, buildingfromId,</text><text fill="#000000" font-family="sans-serif" font-size="13" lengthAdjust="spacing" textLength="358" x="479" y="294.7188">buildingtoId, floorfromId, floortoId, locationX, locationY}</text><polygon fill="#181818" points="1325,340.082,1335,344.082,1325,348.082,1329,344.082" style="stroke:#181818;stroke-width:1.0;"/><line style="stroke:#181818;stroke-width:1.0;" x1="903" x2="1331" y1="344.082" y2="344.082"/><text fill="#000000" font-family="sans-serif" font-size="13" font-weight="bold" lengthAdjust="spacing" textLength="9" x="910" y="331.6846">5</text><text fill="#000000" font-family="sans-serif" font-size="13" lengthAdjust="spacing" textLength="323" x="923" y="324.0293">POST /connections/ {connectionId, buildingfromId,</text><text fill="#000000" font-family="sans-serif" font-size="13" lengthAdjust="spacing" textLength="358" x="923" y="339.3398">buildingtoId, floorfromId, floortoId, locationX, locationY}</text><polygon fill="#181818" points="1769,369.3926,1779,373.3926,1769,377.3926,1773,373.3926" style="stroke:#181818;stroke-width:1.0;"/><line style="stroke:#181818;stroke-width:1.0;" x1="1347" x2="1775" y1="373.3926" y2="373.3926"/><text fill="#000000" font-family="sans-serif" font-size="13" font-weight="bold" lengthAdjust="spacing" textLength="9" x="1354" y="368.6504">6</text><text fill="#000000" font-family="sans-serif" font-size="13" lengthAdjust="spacing" textLength="165" x="1367" y="368.6504">createConnection(req, res)</text><polygon fill="#181818" points="2213,398.7031,2223,402.7031,2213,406.7031,2217,402.7031" style="stroke:#181818;stroke-width:1.0;"/><line style="stroke:#181818;stroke-width:1.0;" x1="1791" x2="2219" y1="402.7031" y2="402.7031"/><text fill="#000000" font-family="sans-serif" font-size="13" font-weight="bold" lengthAdjust="spacing" textLength="9" x="1798" y="397.9609">7</text><text fill="#000000" font-family="sans-serif" font-size="13" lengthAdjust="spacing" textLength="165" x="1811" y="397.9609">createConnection(req, res)</text><polygon fill="#181818" points="2468,428.0137,2478,432.0137,2468,436.0137,2472,432.0137" style="stroke:#181818;stroke-width:1.0;"/><line style="stroke:#181818;stroke-width:1.0;" x1="2235" x2="2474" y1="432.0137" y2="432.0137"/><text fill="#000000" font-family="sans-serif" font-size="13" font-weight="bold" lengthAdjust="spacing" textLength="9" x="2242" y="427.2715">8</text><text fill="#000000" font-family="sans-serif" font-size="13" lengthAdjust="spacing" textLength="213" x="2255" y="427.2715">findByConnectionId(connectionId)</text><path d="M10,447.0137 L72,447.0137 L72,454.3242 L62,464.3242 L10,464.3242 L10,447.0137 " fill="#EEEEEE" style="stroke:#000000;stroke-width:1.5;"/><rect fill="none" height="193.1738" style="stroke:#000000;stroke-width:1.5;" width="2547.5" x="10" y="447.0137"/><text fill="#000000" font-family="sans-serif" font-size="13" font-weight="bold" lengthAdjust="spacing" textLength="17" x="25" y="460.582">alt</text><text fill="#000000" font-family="sans-serif" font-size="11" font-weight="bold" lengthAdjust="spacing" textLength="111" x="87" y="459.6484">[connection != null]</text><polygon fill="#181818" points="2246,481.6348,2236,485.6348,2246,489.6348,2242,485.6348" style="stroke:#181818;stroke-width:1.0;"/><line style="stroke:#181818;stroke-width:1.0;stroke-dasharray:2.0,2.0;" x1="2240" x2="2479" y1="485.6348" y2="485.6348"/><text fill="#000000" font-family="sans-serif" font-size="13" font-weight="bold" lengthAdjust="spacing" textLength="9" x="2252" y="480.8926">9</text><text fill="#000000" font-family="sans-serif" font-size="13" lengthAdjust="spacing" textLength="70" x="2265" y="480.8926">connection</text><polygon fill="#181818" points="1802,510.9453,1792,514.9453,1802,518.9453,1798,514.9453" style="stroke:#181818;stroke-width:1.0;"/><line style="stroke:#181818;stroke-width:1.0;" x1="1796" x2="2224" y1="514.9453" y2="514.9453"/><text fill="#000000" font-family="sans-serif" font-size="13" font-weight="bold" lengthAdjust="spacing" textLength="18" x="1808" y="510.2031">10</text><text fill="#000000" font-family="sans-serif" font-size="13" lengthAdjust="spacing" textLength="388" x="1830" y="510.2031">res.status(400).send({ message: "Connection already exists" })</text><polygon fill="#181818" points="1358,540.2559,1348,544.2559,1358,548.2559,1354,544.2559" style="stroke:#181818;stroke-width:1.0;"/><line style="stroke:#181818;stroke-width:1.0;stroke-dasharray:2.0,2.0;" x1="1352" x2="1780" y1="544.2559" y2="544.2559"/><text fill="#000000" font-family="sans-serif" font-size="13" font-weight="bold" lengthAdjust="spacing" textLength="18" x="1364" y="539.5137">11</text><text fill="#000000" font-family="sans-serif" font-size="13" lengthAdjust="spacing" textLength="388" x="1386" y="539.5137">res.status(400).send({ message: "Connection already exists" })</text><polygon fill="#181818" points="914,569.5664,904,573.5664,914,577.5664,910,573.5664" style="stroke:#181818;stroke-width:1.0;"/><line style="stroke:#181818;stroke-width:1.0;stroke-dasharray:2.0,2.0;" x1="908" x2="1336" y1="573.5664" y2="573.5664"/><text fill="#000000" font-family="sans-serif" font-size="13" font-weight="bold" lengthAdjust="spacing" textLength="18" x="920" y="568.8242">12</text><text fill="#000000" font-family="sans-serif" font-size="13" lengthAdjust="spacing" textLength="388" x="942" y="568.8242">res.status(400).send({ message: "Connection already exists" })</text><polygon fill="#181818" points="470,598.877,460,602.877,470,606.877,466,602.877" style="stroke:#181818;stroke-width:1.0;"/><line style="stroke:#181818;stroke-width:1.0;stroke-dasharray:2.0,2.0;" x1="464" x2="892" y1="602.877" y2="602.877"/><text fill="#000000" font-family="sans-serif" font-size="13" font-weight="bold" lengthAdjust="spacing" textLength="18" x="476" y="598.1348">13</text><text fill="#000000" font-family="sans-serif" font-size="13" lengthAdjust="spacing" textLength="388" x="498" y="598.1348">res.status(400).send({ message: "Connection already exists" })</text><polygon fill="#181818" points="97,628.1875,87,632.1875,97,636.1875,93,632.1875" style="stroke:#181818;stroke-width:1.0;"/><line style="stroke:#181818;stroke-width:1.0;stroke-dasharray:2.0,2.0;" x1="91" x2="448" y1="632.1875" y2="632.1875"/><text fill="#000000" font-family="sans-serif" font-size="13" font-weight="bold" lengthAdjust="spacing" textLength="18" x="103" y="627.4453">14</text><text fill="#000000" font-family="sans-serif" font-size="13" lengthAdjust="spacing" textLength="163" x="125" y="627.4453">Mostra mensagem de erro</text><polygon fill="#181818" points="2246,664.498,2236,668.498,2246,672.498,2242,668.498" style="stroke:#181818;stroke-width:1.0;"/><line style="stroke:#181818;stroke-width:1.0;stroke-dasharray:2.0,2.0;" x1="2240" x2="2484" y1="668.498" y2="668.498"/><text fill="#000000" font-family="sans-serif" font-size="13" font-weight="bold" lengthAdjust="spacing" textLength="18" x="2252" y="663.7559">15</text><text fill="#000000" font-family="sans-serif" font-size="13" lengthAdjust="spacing" textLength="24" x="2274" y="663.7559">null</text><polygon fill="#181818" points="2545.5,693.8086,2555.5,697.8086,2545.5,701.8086,2549.5,697.8086" style="stroke:#181818;stroke-width:1.0;"/><line style="stroke:#181818;stroke-width:1.0;" x1="2235" x2="2551.5" y1="697.8086" y2="697.8086"/><text fill="#000000" font-family="sans-serif" font-size="13" font-weight="bold" lengthAdjust="spacing" textLength="18" x="2242" y="693.0664">16</text><text fill="#000000" font-family="sans-serif" font-size="13" lengthAdjust="spacing" textLength="101" x="2264" y="693.0664">create(req.body)</text><rect fill="#E3E3E3" height="46.9766" rx="2.5" ry="2.5" style="stroke:#181818;stroke-width:0.5;" width="97" x="2557.5" y="676.498"/><text fill="#000000" font-family="sans-serif" font-size="14" lengthAdjust="spacing" textLength="76" x="2568" y="697.0332">connection</text><text fill="#000000" font-family="sans-serif" font-size="14" lengthAdjust="spacing" textLength="83" x="2564.5" y="713.5215">:Connection</text><polygon fill="#181818" points="2468,751.7852,2478,755.7852,2468,759.7852,2472,755.7852" style="stroke:#181818;stroke-width:1.0;"/><line style="stroke:#181818;stroke-width:1.0;" x1="2235" x2="2474" y1="755.7852" y2="755.7852"/><text fill="#000000" font-family="sans-serif" font-size="13" font-weight="bold" lengthAdjust="spacing" textLength="18" x="2242" y="751.043">17</text><text fill="#000000" font-family="sans-serif" font-size="13" lengthAdjust="spacing" textLength="106" x="2264" y="751.043">save(connection)</text><polygon fill="#181818" points="1358,811.0957,1348,815.0957,1358,819.0957,1354,815.0957" style="stroke:#181818;stroke-width:1.0;"/><line style="stroke:#181818;stroke-width:1.0;stroke-dasharray:2.0,2.0;" x1="1352" x2="1785" y1="815.0957" y2="815.0957"/><text fill="#000000" font-family="sans-serif" font-size="13" font-weight="bold" lengthAdjust="spacing" textLength="18" x="1364" y="810.3535">18</text><text fill="#000000" font-family="sans-serif" font-size="13" lengthAdjust="spacing" textLength="120" x="1386" y="810.3535">201 OK connection</text><polygon fill="#181818" points="914,840.4063,904,844.4063,914,848.4063,910,844.4063" style="stroke:#181818;stroke-width:1.0;"/><line style="stroke:#181818;stroke-width:1.0;stroke-dasharray:2.0,2.0;" x1="908" x2="1341" y1="844.4063" y2="844.4063"/><text fill="#000000" font-family="sans-serif" font-size="13" font-weight="bold" lengthAdjust="spacing" textLength="18" x="920" y="839.6641">19</text><text fill="#000000" font-family="sans-serif" font-size="13" lengthAdjust="spacing" textLength="120" x="942" y="839.6641">201 OK connection</text><polygon fill="#181818" points="470,869.7168,460,873.7168,470,877.7168,466,873.7168" style="stroke:#181818;stroke-width:1.0;"/><line style="stroke:#181818;stroke-width:1.0;stroke-dasharray:2.0,2.0;" x1="464" x2="897" y1="873.7168" y2="873.7168"/><text fill="#000000" font-family="sans-serif" font-size="13" font-weight="bold" lengthAdjust="spacing" textLength="18" x="476" y="868.9746">20</text><text fill="#000000" font-family="sans-serif" font-size="13" lengthAdjust="spacing" textLength="120" x="498" y="868.9746">201 OK connection</text><polygon fill="#181818" points="97,899.0273,87,903.0273,97,907.0273,93,903.0273" style="stroke:#181818;stroke-width:1.0;"/><line style="stroke:#181818;stroke-width:1.0;stroke-dasharray:2.0,2.0;" x1="91" x2="453" y1="903.0273" y2="903.0273"/><text fill="#000000" font-family="sans-serif" font-size="13" font-weight="bold" lengthAdjust="spacing" textLength="18" x="103" y="898.2852">21</text><text fill="#000000" font-family="sans-serif" font-size="13" lengthAdjust="spacing" textLength="261" x="125" y="898.2852">Mostra passagem que acaba de ser criada</text><!--SRC=[lLRDRXCn4BxxAOOzPQkc3QMdLUc1L48LAaKi891ocQmdgLMldThUGbhrOH07JfnuXBmOTfhkvcSRjWtbjEknP-Rxvi-svqADq60EkLOwEpCw9t2c86RBdH5cvpYar8qbWQ7CeHhA-GFs3Bd-AjGG1YWjCUQ4yqUxMZaKYWoaT56GoWYE10w3HYizYg4D7zEz_Gwqthw86SF2QLNaVJB-FtFQGFIQRFXoRmhpKM4ZnbPbq3w4wE2Wkv-K_WuFUohv96o1KbpXvEVaXuuIE5OY4mXwHEPM5enaHg3n3Atr37CWvGpr5DV20d4ncFpAXBO1ZxX4HqqSiGPde1r0hr198DNIWtG8t4VKWgACh9ryDnu4j3AjlC09hOxvTa_r2o6v3_h0vymBu6xjT5WDfDRcRckwcCfx2gJEC1Zvl5t-VeaPfmUHt2mHpcXUNCr8sXbd_YI1hiLqCldD2pajW433d_Gv9mzie4rUudntcdw0tIhgTXUk5t80IoceSh8s1xKPk65hoJT1p1wf5u9KyNgl2qV_dNp9VGa8MrelOWrKZPQIJE8xcRn-jznh6RhOzkFAndN6AqrM9rnqavAv51azrCTCZQr8bW9E8vt0G2Z-QjoTY_12lzSw29eCfPiJmRENe0efsUAfwS2f8rIA_ePoFjIUy8vrw0hRskzquXrBYhUk8QVf54qWgcW0IXypFWRw9gppG-8clYVWTKNupnpDQcUJQR0XbaVtPjEf-k_nDRwrJhHr1hqhTNkB-ZqoHZFc8JGin6dDpjr1IqLUMvnH9VLWAthHrjPTguO6tUbhFewRTQ75Ivhhk_kxxdwejJkhes1zwKC2UvtdSFfclaDhBTSEietBlRd_sodzvDMz5isZxylLDyn1kzqCqApcovUZV-02PjZ7OCtwh8QN9SU7lgl-0000]--></g></svg>