<?xml version="1.0" encoding="us-ascii" standalone="no"?><svg xmlns="http://www.w3.org/2000/svg" xmlns:xlink="http://www.w3.org/1999/xlink" contentStyleType="text/css" height="1000px" preserveAspectRatio="none" style="width:2493px;height:1000px;background:#FFFFFF;" version="1.1" viewBox="0 0 2493 1000" width="2493px" zoomAndPan="magnify"><defs/><g><text fill="#000000" font-family="sans-serif" font-size="14" font-weight="bold" lengthAdjust="spacing" textLength="340" x="1075.5" y="28.5352">Container Sequence Diagram (SD) - US160 (N3)</text><rect fill="#FFFFFF" height="772.7402" style="stroke:#181818;stroke-width:1.0;" width="10" x="81" y="128.9766"/><rect fill="#FFFFFF" height="44.6211" style="stroke:#181818;stroke-width:1.0;" width="10" x="466" y="150.2871"/><rect fill="#FFFFFF" height="677.498" style="stroke:#181818;stroke-width:1.0;" width="10" x="466" y="224.2188"/><rect fill="#FFFFFF" height="603.5664" style="stroke:#181818;stroke-width:1.0;" width="10" x="868" y="268.8398"/><rect fill="#FFFFFF" height="529.6348" style="stroke:#181818;stroke-width:1.0;" width="10" x="1270" y="313.4609"/><rect fill="#FFFFFF" height="471.0137" style="stroke:#181818;stroke-width:1.0;" width="10" x="1672" y="342.7715"/><rect fill="#FFFFFF" height="412.3926" style="stroke:#181818;stroke-width:1.0;" width="10" x="2141" y="372.082"/><rect fill="#FFFFFF" height="236.4844" style="stroke:#181818;stroke-width:1.0;" width="10" x="2345" y="401.3926"/><rect fill="#FFFFFF" height="30" style="stroke:#181818;stroke-width:1.0;" width="10" x="2345" y="725.1641"/><rect fill="none" height="193.1738" style="stroke:#000000;stroke-width:1.5;" width="2403" x="10" y="416.3926"/><line style="stroke:#181818;stroke-width:0.5;stroke-dasharray:5.0,5.0;" x1="86" x2="86" y1="118.9766" y2="919.7168"/><line style="stroke:#181818;stroke-width:0.5;stroke-dasharray:5.0,5.0;" x1="470.5" x2="470.5" y1="118.9766" y2="919.7168"/><line style="stroke:#181818;stroke-width:0.5;stroke-dasharray:5.0,5.0;" x1="873" x2="873" y1="118.9766" y2="919.7168"/><line style="stroke:#181818;stroke-width:0.5;stroke-dasharray:5.0,5.0;" x1="1274.5" x2="1274.5" y1="118.9766" y2="919.7168"/><line style="stroke:#181818;stroke-width:0.5;stroke-dasharray:5.0,5.0;" x1="1676.5" x2="1676.5" y1="118.9766" y2="919.7168"/><line style="stroke:#181818;stroke-width:0.5;stroke-dasharray:5.0,5.0;" x1="2145.5" x2="2145.5" y1="118.9766" y2="919.7168"/><line style="stroke:#181818;stroke-width:0.5;stroke-dasharray:5.0,5.0;" x1="2350" x2="2350" y1="118.9766" y2="919.7168"/><line style="stroke:#181818;stroke-width:0.5;stroke-dasharray:5.0,5.0;" x1="2450" x2="2450" y1="684.8652" y2="919.7168"/><text fill="#000000" font-family="sans-serif" font-size="14" lengthAdjust="spacing" textLength="126" x="20" y="116.0234">Gestor de Campus</text><ellipse cx="86" cy="50.9883" fill="#E3E3E3" rx="8" ry="8" style="stroke:#181818;stroke-width:0.5;"/><path d="M86,58.9883 L86,85.9883 M73,66.9883 L99,66.9883 M86,85.9883 L73,100.9883 M86,85.9883 L99,100.9883 " fill="none" style="stroke:#181818;stroke-width:0.5;"/><text fill="#000000" font-family="sans-serif" font-size="14" lengthAdjust="spacing" textLength="126" x="20" y="932.252">Gestor de Campus</text><ellipse cx="86" cy="943.7051" fill="#E3E3E3" rx="8" ry="8" style="stroke:#181818;stroke-width:0.5;"/><path d="M86,951.7051 L86,978.7051 M73,959.7051 L99,959.7051 M86,978.7051 L73,993.7051 M86,978.7051 L99,993.7051 " fill="none" style="stroke:#181818;stroke-width:0.5;"/><rect fill="#E3E3E3" height="46.9766" rx="2.5" ry="2.5" style="stroke:#181818;stroke-width:0.5;" width="119" x="411.5" y="71"/><text fill="#000000" font-family="sans-serif" font-size="14" lengthAdjust="spacing" textLength="105" x="418.5" y="91.5352">&#171;C4:Container&#187;</text><text fill="#000000" font-family="sans-serif" font-size="14" lengthAdjust="spacing" textLength="89" x="426.5" y="108.0234">:Visualiza&#231;&#227;o</text><rect fill="#E3E3E3" height="46.9766" rx="2.5" ry="2.5" style="stroke:#181818;stroke-width:0.5;" width="119" x="411.5" y="918.7168"/><text fill="#000000" font-family="sans-serif" font-size="14" lengthAdjust="spacing" textLength="105" x="418.5" y="939.252">&#171;C4:Container&#187;</text><text fill="#000000" font-family="sans-serif" font-size="14" lengthAdjust="spacing" textLength="89" x="426.5" y="955.7402">:Visualiza&#231;&#227;o</text><rect fill="#E3E3E3" height="63.4648" rx="2.5" ry="2.5" style="stroke:#181818;stroke-width:0.5;" width="138" x="804" y="54.5117"/><text fill="#000000" font-family="sans-serif" font-size="14" lengthAdjust="spacing" textLength="105" x="820.5" y="75.0469">&#171;C4:Container&#187;</text><text fill="#000000" font-family="sans-serif" font-size="14" lengthAdjust="spacing" textLength="124" x="811" y="91.5352">M&#243;dulo de Gest&#227;o</text><text fill="#000000" font-family="sans-serif" font-size="14" lengthAdjust="spacing" textLength="99" x="823.5" y="108.0234">de Informa&#231;&#227;o</text><rect fill="#E3E3E3" height="63.4648" rx="2.5" ry="2.5" style="stroke:#181818;stroke-width:0.5;" width="138" x="804" y="918.7168"/><text fill="#000000" font-family="sans-serif" font-size="14" lengthAdjust="spacing" textLength="105" x="820.5" y="939.252">&#171;C4:Container&#187;</text><text fill="#000000" font-family="sans-serif" font-size="14" lengthAdjust="spacing" textLength="124" x="811" y="955.7402">M&#243;dulo de Gest&#227;o</text><text fill="#000000" font-family="sans-serif" font-size="14" lengthAdjust="spacing" textLength="99" x="823.5" y="972.2285">de Informa&#231;&#227;o</text><rect fill="#E3E3E3" height="30.4883" rx="2.5" ry="2.5" style="stroke:#181818;stroke-width:0.5;" width="111" x="1219.5" y="87.4883"/><text fill="#000000" font-family="sans-serif" font-size="14" lengthAdjust="spacing" textLength="97" x="1226.5" y="108.0234">buildingRoute</text><rect fill="#E3E3E3" height="30.4883" rx="2.5" ry="2.5" style="stroke:#181818;stroke-width:0.5;" width="111" x="1219.5" y="918.7168"/><text fill="#000000" font-family="sans-serif" font-size="14" lengthAdjust="spacing" textLength="97" x="1226.5" y="939.252">buildingRoute</text><rect fill="#E3E3E3" height="30.4883" rx="2.5" ry="2.5" style="stroke:#181818;stroke-width:0.5;" width="141" x="1606.5" y="87.4883"/><text fill="#000000" font-family="sans-serif" font-size="14" lengthAdjust="spacing" textLength="127" x="1613.5" y="108.0234">buildingController</text><rect fill="#E3E3E3" height="30.4883" rx="2.5" ry="2.5" style="stroke:#181818;stroke-width:0.5;" width="141" x="1606.5" y="918.7168"/><text fill="#000000" font-family="sans-serif" font-size="14" lengthAdjust="spacing" textLength="127" x="1613.5" y="939.252">buildingController</text><rect fill="#E3E3E3" height="30.4883" rx="2.5" ry="2.5" style="stroke:#181818;stroke-width:0.5;" width="119" x="2086.5" y="87.4883"/><text fill="#000000" font-family="sans-serif" font-size="14" lengthAdjust="spacing" textLength="105" x="2093.5" y="108.0234">buildingService</text><rect fill="#E3E3E3" height="30.4883" rx="2.5" ry="2.5" style="stroke:#181818;stroke-width:0.5;" width="119" x="2086.5" y="918.7168"/><text fill="#000000" font-family="sans-serif" font-size="14" lengthAdjust="spacing" textLength="105" x="2093.5" y="939.252">buildingService</text><rect fill="#E3E3E3" height="30.4883" rx="2.5" ry="2.5" style="stroke:#181818;stroke-width:0.5;" width="106" x="2297" y="87.4883"/><text fill="#000000" font-family="sans-serif" font-size="14" lengthAdjust="spacing" textLength="92" x="2304" y="108.0234">buildingRepo</text><rect fill="#E3E3E3" height="30.4883" rx="2.5" ry="2.5" style="stroke:#181818;stroke-width:0.5;" width="106" x="2297" y="918.7168"/><text fill="#000000" font-family="sans-serif" font-size="14" lengthAdjust="spacing" textLength="92" x="2304" y="939.252">buildingRepo</text><rect fill="#E3E3E3" height="46.9766" rx="2.5" ry="2.5" style="stroke:#181818;stroke-width:0.5;" width="74" x="2413" y="918.7168"/><text fill="#000000" font-family="sans-serif" font-size="14" lengthAdjust="spacing" textLength="57" x="2421.5" y="939.252">building</text><text fill="#000000" font-family="sans-serif" font-size="14" lengthAdjust="spacing" textLength="60" x="2420" y="955.7402">:Building</text><rect fill="#FFFFFF" height="772.7402" style="stroke:#181818;stroke-width:1.0;" width="10" x="81" y="128.9766"/><rect fill="#FFFFFF" height="44.6211" style="stroke:#181818;stroke-width:1.0;" width="10" x="466" y="150.2871"/><rect fill="#FFFFFF" height="677.498" style="stroke:#181818;stroke-width:1.0;" width="10" x="466" y="224.2188"/><rect fill="#FFFFFF" height="603.5664" style="stroke:#181818;stroke-width:1.0;" width="10" x="868" y="268.8398"/><rect fill="#FFFFFF" height="529.6348" style="stroke:#181818;stroke-width:1.0;" width="10" x="1270" y="313.4609"/><rect fill="#FFFFFF" height="471.0137" style="stroke:#181818;stroke-width:1.0;" width="10" x="1672" y="342.7715"/><rect fill="#FFFFFF" height="412.3926" style="stroke:#181818;stroke-width:1.0;" width="10" x="2141" y="372.082"/><rect fill="#FFFFFF" height="236.4844" style="stroke:#181818;stroke-width:1.0;" width="10" x="2345" y="401.3926"/><rect fill="#FFFFFF" height="30" style="stroke:#181818;stroke-width:1.0;" width="10" x="2345" y="725.1641"/><polygon fill="#181818" points="454,146.2871,464,150.2871,454,154.2871,458,150.2871" style="stroke:#181818;stroke-width:1.0;"/><line style="stroke:#181818;stroke-width:1.0;" x1="91" x2="460" y1="150.2871" y2="150.2871"/><text fill="#000000" font-family="sans-serif" font-size="13" font-weight="bold" lengthAdjust="spacing" textLength="9" x="98" y="145.5449">1</text><text fill="#000000" font-family="sans-serif" font-size="13" lengthAdjust="spacing" textLength="205" x="111" y="145.5449">Inicia opera&#231;&#227;o de editar edif&#237;cio</text><polygon fill="#181818" points="102,190.9082,92,194.9082,102,198.9082,98,194.9082" style="stroke:#181818;stroke-width:1.0;"/><line style="stroke:#181818;stroke-width:1.0;stroke-dasharray:2.0,2.0;" x1="96" x2="470" y1="194.9082" y2="194.9082"/><text fill="#000000" font-family="sans-serif" font-size="13" font-weight="bold" lengthAdjust="spacing" textLength="9" x="108" y="182.5107">2</text><text fill="#000000" font-family="sans-serif" font-size="13" lengthAdjust="spacing" textLength="338" x="121" y="174.8555">Solicita dados necess&#225;rios (buildingId, buildingName,</text><text fill="#000000" font-family="sans-serif" font-size="13" lengthAdjust="spacing" textLength="319" x="121" y="190.166">buildingDescription, numberOfFloors, dimX, dimY)</text><polygon fill="#181818" points="454,220.2188,464,224.2188,454,228.2188,458,224.2188" style="stroke:#181818;stroke-width:1.0;"/><line style="stroke:#181818;stroke-width:1.0;" x1="91" x2="460" y1="224.2188" y2="224.2188"/><text fill="#000000" font-family="sans-serif" font-size="13" font-weight="bold" lengthAdjust="spacing" textLength="9" x="98" y="219.4766">3</text><text fill="#000000" font-family="sans-serif" font-size="13" lengthAdjust="spacing" textLength="168" x="111" y="219.4766">Introduz dados solicitados</text><polygon fill="#181818" points="856,264.8398,866,268.8398,856,272.8398,860,268.8398" style="stroke:#181818;stroke-width:1.0;"/><line style="stroke:#181818;stroke-width:1.0;" x1="476" x2="862" y1="268.8398" y2="268.8398"/><text fill="#000000" font-family="sans-serif" font-size="13" font-weight="bold" lengthAdjust="spacing" textLength="9" x="483" y="256.4424">4</text><text fill="#000000" font-family="sans-serif" font-size="13" lengthAdjust="spacing" textLength="273" x="496" y="248.7871">PUT /buildings/ {buildingId, buildingName,</text><text fill="#000000" font-family="sans-serif" font-size="13" lengthAdjust="spacing" textLength="319" x="496" y="264.0977">buildingDescription, numberOfFloors, dimX, dimY}</text><polygon fill="#181818" points="1258,309.4609,1268,313.4609,1258,317.4609,1262,313.4609" style="stroke:#181818;stroke-width:1.0;"/><line style="stroke:#181818;stroke-width:1.0;" x1="878" x2="1264" y1="313.4609" y2="313.4609"/><text fill="#000000" font-family="sans-serif" font-size="13" font-weight="bold" lengthAdjust="spacing" textLength="9" x="885" y="301.0635">5</text><text fill="#000000" font-family="sans-serif" font-size="13" lengthAdjust="spacing" textLength="273" x="898" y="293.4082">PUT /buildings/ {buildingId, buildingName,</text><text fill="#000000" font-family="sans-serif" font-size="13" lengthAdjust="spacing" textLength="319" x="898" y="308.7188">buildingDescription, numberOfFloors, dimX, dimY}</text><polygon fill="#181818" points="1660,338.7715,1670,342.7715,1660,346.7715,1664,342.7715" style="stroke:#181818;stroke-width:1.0;"/><line style="stroke:#181818;stroke-width:1.0;" x1="1280" x2="1666" y1="342.7715" y2="342.7715"/><text fill="#000000" font-family="sans-serif" font-size="13" font-weight="bold" lengthAdjust="spacing" textLength="9" x="1287" y="338.0293">6</text><text fill="#000000" font-family="sans-serif" font-size="13" lengthAdjust="spacing" textLength="149" x="1300" y="338.0293">updateBuilding(req, res)</text><polygon fill="#181818" points="2129,368.082,2139,372.082,2129,376.082,2133,372.082" style="stroke:#181818;stroke-width:1.0;"/><line style="stroke:#181818;stroke-width:1.0;" x1="1682" x2="2135" y1="372.082" y2="372.082"/><text fill="#000000" font-family="sans-serif" font-size="13" font-weight="bold" lengthAdjust="spacing" textLength="9" x="1689" y="367.3398">7</text><text fill="#000000" font-family="sans-serif" font-size="13" lengthAdjust="spacing" textLength="149" x="1702" y="367.3398">updateBuilding(req, res)</text><polygon fill="#181818" points="2333,397.3926,2343,401.3926,2333,405.3926,2337,401.3926" style="stroke:#181818;stroke-width:1.0;"/><line style="stroke:#181818;stroke-width:1.0;" x1="2151" x2="2339" y1="401.3926" y2="401.3926"/><text fill="#000000" font-family="sans-serif" font-size="13" font-weight="bold" lengthAdjust="spacing" textLength="9" x="2158" y="396.6504">8</text><text fill="#000000" font-family="sans-serif" font-size="13" lengthAdjust="spacing" textLength="162" x="2171" y="396.6504">findByBuildingId(building)</text><path d="M10,416.3926 L72,416.3926 L72,423.7031 L62,433.7031 L10,433.7031 L10,416.3926 " fill="#EEEEEE" style="stroke:#000000;stroke-width:1.5;"/><rect fill="none" height="193.1738" style="stroke:#000000;stroke-width:1.5;" width="2403" x="10" y="416.3926"/><text fill="#000000" font-family="sans-serif" font-size="13" font-weight="bold" lengthAdjust="spacing" textLength="17" x="25" y="429.9609">alt</text><text fill="#000000" font-family="sans-serif" font-size="11" font-weight="bold" lengthAdjust="spacing" textLength="146" x="87" y="429.0273">[building == oldBuilding]</text><polygon fill="#181818" points="2162,451.0137,2152,455.0137,2162,459.0137,2158,455.0137" style="stroke:#181818;stroke-width:1.0;"/><line style="stroke:#181818;stroke-width:1.0;stroke-dasharray:2.0,2.0;" x1="2156" x2="2344" y1="455.0137" y2="455.0137"/><text fill="#000000" font-family="sans-serif" font-size="13" font-weight="bold" lengthAdjust="spacing" textLength="9" x="2168" y="450.2715">9</text><text fill="#000000" font-family="sans-serif" font-size="13" lengthAdjust="spacing" textLength="52" x="2181" y="450.2715">building</text><polygon fill="#181818" points="1693,480.3242,1683,484.3242,1693,488.3242,1689,484.3242" style="stroke:#181818;stroke-width:1.0;"/><line style="stroke:#181818;stroke-width:1.0;" x1="1687" x2="2140" y1="484.3242" y2="484.3242"/><text fill="#000000" font-family="sans-serif" font-size="13" font-weight="bold" lengthAdjust="spacing" textLength="18" x="1699" y="479.582">10</text><text fill="#000000" font-family="sans-serif" font-size="13" lengthAdjust="spacing" textLength="346" x="1721" y="479.582">res.status(400).send({ message: "Building not found." })</text><polygon fill="#181818" points="1291,509.6348,1281,513.6348,1291,517.6348,1287,513.6348" style="stroke:#181818;stroke-width:1.0;"/><line style="stroke:#181818;stroke-width:1.0;stroke-dasharray:2.0,2.0;" x1="1285" x2="1671" y1="513.6348" y2="513.6348"/><text fill="#000000" font-family="sans-serif" font-size="13" font-weight="bold" lengthAdjust="spacing" textLength="18" x="1297" y="508.8926">11</text><text fill="#000000" font-family="sans-serif" font-size="13" lengthAdjust="spacing" textLength="346" x="1319" y="508.8926">res.status(400).send({ message: "Building not found." })</text><polygon fill="#181818" points="889,538.9453,879,542.9453,889,546.9453,885,542.9453" style="stroke:#181818;stroke-width:1.0;"/><line style="stroke:#181818;stroke-width:1.0;stroke-dasharray:2.0,2.0;" x1="883" x2="1269" y1="542.9453" y2="542.9453"/><text fill="#000000" font-family="sans-serif" font-size="13" font-weight="bold" lengthAdjust="spacing" textLength="18" x="895" y="538.2031">12</text><text fill="#000000" font-family="sans-serif" font-size="13" lengthAdjust="spacing" textLength="346" x="917" y="538.2031">res.status(404).send({ message: "Building not found." })</text><polygon fill="#181818" points="487,568.2559,477,572.2559,487,576.2559,483,572.2559" style="stroke:#181818;stroke-width:1.0;"/><line style="stroke:#181818;stroke-width:1.0;stroke-dasharray:2.0,2.0;" x1="481" x2="867" y1="572.2559" y2="572.2559"/><text fill="#000000" font-family="sans-serif" font-size="13" font-weight="bold" lengthAdjust="spacing" textLength="18" x="493" y="567.5137">13</text><text fill="#000000" font-family="sans-serif" font-size="13" lengthAdjust="spacing" textLength="346" x="515" y="567.5137">res.status(404).send({ message: "Building not found." })</text><polygon fill="#181818" points="102,597.5664,92,601.5664,102,605.5664,98,601.5664" style="stroke:#181818;stroke-width:1.0;"/><line style="stroke:#181818;stroke-width:1.0;stroke-dasharray:2.0,2.0;" x1="96" x2="465" y1="601.5664" y2="601.5664"/><text fill="#000000" font-family="sans-serif" font-size="13" font-weight="bold" lengthAdjust="spacing" textLength="18" x="108" y="596.8242">14</text><text fill="#000000" font-family="sans-serif" font-size="13" lengthAdjust="spacing" textLength="172" x="130" y="596.8242">Imprime mensagem de erro</text><polygon fill="#181818" points="2162,633.877,2152,637.877,2162,641.877,2158,637.877" style="stroke:#181818;stroke-width:1.0;"/><line style="stroke:#181818;stroke-width:1.0;stroke-dasharray:2.0,2.0;" x1="2156" x2="2349" y1="637.877" y2="637.877"/><text fill="#000000" font-family="sans-serif" font-size="13" font-weight="bold" lengthAdjust="spacing" textLength="18" x="2168" y="633.1348">15</text><text fill="#000000" font-family="sans-serif" font-size="13" lengthAdjust="spacing" textLength="24" x="2190" y="633.1348">null</text><polygon fill="#181818" points="2401,663.1875,2411,667.1875,2401,671.1875,2405,667.1875" style="stroke:#181818;stroke-width:1.0;"/><line style="stroke:#181818;stroke-width:1.0;" x1="2151" x2="2407" y1="667.1875" y2="667.1875"/><text fill="#000000" font-family="sans-serif" font-size="13" font-weight="bold" lengthAdjust="spacing" textLength="18" x="2158" y="662.4453">16</text><text fill="#000000" font-family="sans-serif" font-size="13" lengthAdjust="spacing" textLength="101" x="2180" y="662.4453">create(req.body)</text><rect fill="#E3E3E3" height="46.9766" rx="2.5" ry="2.5" style="stroke:#181818;stroke-width:0.5;" width="74" x="2413" y="645.877"/><text fill="#000000" font-family="sans-serif" font-size="14" lengthAdjust="spacing" textLength="57" x="2421.5" y="666.4121">building</text><text fill="#000000" font-family="sans-serif" font-size="14" lengthAdjust="spacing" textLength="60" x="2420" y="682.9004">:Building</text><polygon fill="#181818" points="2333,721.1641,2343,725.1641,2333,729.1641,2337,725.1641" style="stroke:#181818;stroke-width:1.0;"/><line style="stroke:#181818;stroke-width:1.0;" x1="2151" x2="2339" y1="725.1641" y2="725.1641"/><text fill="#000000" font-family="sans-serif" font-size="13" font-weight="bold" lengthAdjust="spacing" textLength="18" x="2158" y="720.4219">17</text><text fill="#000000" font-family="sans-serif" font-size="13" lengthAdjust="spacing" textLength="128" x="2180" y="720.4219">updateOne(building)</text><polygon fill="#181818" points="1693,780.4746,1683,784.4746,1693,788.4746,1689,784.4746" style="stroke:#181818;stroke-width:1.0;"/><line style="stroke:#181818;stroke-width:1.0;" x1="1687" x2="2145" y1="784.4746" y2="784.4746"/><text fill="#000000" font-family="sans-serif" font-size="13" font-weight="bold" lengthAdjust="spacing" textLength="18" x="1699" y="779.7324">18</text><text fill="#000000" font-family="sans-serif" font-size="13" lengthAdjust="spacing" textLength="413" x="1721" y="779.7324">res.status(201).send({ message: "Building updated successfully" })</text><polygon fill="#181818" points="1291,809.7852,1281,813.7852,1291,817.7852,1287,813.7852" style="stroke:#181818;stroke-width:1.0;"/><line style="stroke:#181818;stroke-width:1.0;stroke-dasharray:2.0,2.0;" x1="1285" x2="1676" y1="813.7852" y2="813.7852"/><text fill="#000000" font-family="sans-serif" font-size="13" font-weight="bold" lengthAdjust="spacing" textLength="18" x="1297" y="809.043">19</text><text fill="#000000" font-family="sans-serif" font-size="13" lengthAdjust="spacing" textLength="102" x="1319" y="809.043">200 OK building</text><polygon fill="#181818" points="889,839.0957,879,843.0957,889,847.0957,885,843.0957" style="stroke:#181818;stroke-width:1.0;"/><line style="stroke:#181818;stroke-width:1.0;stroke-dasharray:2.0,2.0;" x1="883" x2="1274" y1="843.0957" y2="843.0957"/><text fill="#000000" font-family="sans-serif" font-size="13" font-weight="bold" lengthAdjust="spacing" textLength="18" x="895" y="838.3535">20</text><text fill="#000000" font-family="sans-serif" font-size="13" lengthAdjust="spacing" textLength="102" x="917" y="838.3535">200 OK building</text><polygon fill="#181818" points="487,868.4063,477,872.4063,487,876.4063,483,872.4063" style="stroke:#181818;stroke-width:1.0;"/><line style="stroke:#181818;stroke-width:1.0;stroke-dasharray:2.0,2.0;" x1="481" x2="872" y1="872.4063" y2="872.4063"/><text fill="#000000" font-family="sans-serif" font-size="13" font-weight="bold" lengthAdjust="spacing" textLength="18" x="493" y="867.6641">21</text><text fill="#000000" font-family="sans-serif" font-size="13" lengthAdjust="spacing" textLength="102" x="515" y="867.6641">200 OK building</text><polygon fill="#181818" points="97,897.7168,87,901.7168,97,905.7168,93,901.7168" style="stroke:#181818;stroke-width:1.0;"/><line style="stroke:#181818;stroke-width:1.0;stroke-dasharray:2.0,2.0;" x1="91" x2="470" y1="901.7168" y2="901.7168"/><text fill="#000000" font-family="sans-serif" font-size="13" font-weight="bold" lengthAdjust="spacing" textLength="18" x="103" y="896.9746">22</text><text fill="#000000" font-family="sans-serif" font-size="13" lengthAdjust="spacing" textLength="209" x="125" y="896.9746">Apresenta mensagem de sucesso</text><!--SRC=[jLRDJjj04BxlKunyYb4I0aKzM06fW5f5LQ5gIjLAN3RUSLXXxvhzeGg8XwbwwAcdFa9UhEiaDWws4eV0nTwVcTblljrlTlKr5obLD8542XbUAPaW66MHw68cfU4r7UFGJ684XQ6XOXoN3VGLPV8d5sE8QAoH4CEDCpsHmb0kKC4GRooA4E6Kqt7cqHgU-j21Y-7UsnwqpjxuX51hfB3929LhXqOgy3wWplxCXQ99QhKtc-6tr63TP7K8EaVWzVid1q61vUZeKWJVkBOqvdTq-cVwMte130GFEGMPefgFPK6GSKDLzekcVqCkIuklZqaQs40dmrT17S1GnWwFeS0SiHe4XgZrz9VYhjCQMHupH_Q0jI5ldz44svSYxvwY3XLF3PUY3NDIpwFtiPHAju7nvFli-yCd33VAQJkAZPBCtYroqeiKNViLUAt5z6dwZzbujhLP6ixoKhZsG4HI9GNEpnTVOJSdKk_2_Sln_K1Mfje47tccNqP9ZlQBj0PVET4YpwL5oLAlZ2bBICauHXM0JPdpF5xCj1JUj5tPqNurwACNgGwLmmzHtV8GDuczS25F-aj4OYe3YBXWnvFZWhn2e3L1Cmz2OrCCmE4Xo9ZbtgHiE2iFbGn6JqrhW9NPTDbrjQ76wjP1h-TtDGhMkeV4LHHNr0FmyhL1I0EHj89rFNZmQncjdgAjmo-EmZQINS9mi066PukfQT5xIMIDRuz1aYhkhl44HRPAChlBb9A4kDKRd31XuxXyComTtffJv-LZ3cEUZxUp4q2eqFbd8kkE99luwxKqb-UvmBKYsW3V6bNiz_PMRSmS4WDjm-mMZXmvazaMrI1uMZDMIGS2sE_ruFpZew9h8jPKkAq5qspbUS5-TOMiGFBiAxBwIEbtEitWl4lToK1digGUj_Tkw-McpwMoUSrRzZy0]--></g></svg>