<?xml version="1.0" encoding="us-ascii" standalone="no"?><svg xmlns="http://www.w3.org/2000/svg" xmlns:xlink="http://www.w3.org/1999/xlink" contentStyleType="text/css" height="765px" preserveAspectRatio="none" style="width:1850px;height:765px;background:#FFFFFF;" version="1.1" viewBox="0 0 1850 765" width="1850px" zoomAndPan="magnify"><defs/><g><text fill="#000000" font-family="sans-serif" font-size="14" font-weight="bold" lengthAdjust="spacing" textLength="340" x="754" y="28.5352">Container Sequence Diagram (SD) - US180 (N3)</text><rect fill="#FFFFFF" height="537.5215" style="stroke:#181818;stroke-width:1.0;" width="10" x="66" y="128.9766"/><rect fill="#FFFFFF" height="29.3105" style="stroke:#181818;stroke-width:1.0;" width="10" x="350" y="165.5977"/><rect fill="#FFFFFF" height="426.9688" style="stroke:#181818;stroke-width:1.0;" width="10" x="350" y="239.5293"/><rect fill="#FFFFFF" height="337.7266" style="stroke:#181818;stroke-width:1.0;" width="10" x="551" y="268.8398"/><rect fill="#FFFFFF" height="279.1055" style="stroke:#181818;stroke-width:1.0;" width="10" x="752" y="298.1504"/><rect fill="#FFFFFF" height="220.4844" style="stroke:#181818;stroke-width:1.0;" width="10" x="980" y="327.4609"/><rect fill="#FFFFFF" height="161.8633" style="stroke:#181818;stroke-width:1.0;" width="10" x="1310" y="356.7715"/><rect fill="#FFFFFF" height="103.2422" style="stroke:#181818;stroke-width:1.0;" width="10" x="1538" y="386.082"/><rect fill="#FFFFFF" height="29.3105" style="stroke:#181818;stroke-width:1.0;" width="10" x="1777" y="430.7031"/><line style="stroke:#181818;stroke-width:0.5;stroke-dasharray:5.0,5.0;" x1="71" x2="71" y1="118.9766" y2="684.498"/><line style="stroke:#181818;stroke-width:0.5;stroke-dasharray:5.0,5.0;" x1="354.5" x2="354.5" y1="118.9766" y2="684.498"/><line style="stroke:#181818;stroke-width:0.5;stroke-dasharray:5.0,5.0;" x1="556" x2="556" y1="118.9766" y2="684.498"/><line style="stroke:#181818;stroke-width:0.5;stroke-dasharray:5.0,5.0;" x1="756.5" x2="756.5" y1="118.9766" y2="684.498"/><line style="stroke:#181818;stroke-width:0.5;stroke-dasharray:5.0,5.0;" x1="984.5" x2="984.5" y1="118.9766" y2="684.498"/><line style="stroke:#181818;stroke-width:0.5;stroke-dasharray:5.0,5.0;" x1="1314.5" x2="1314.5" y1="118.9766" y2="684.498"/><line style="stroke:#181818;stroke-width:0.5;stroke-dasharray:5.0,5.0;" x1="1543" x2="1543" y1="118.9766" y2="684.498"/><line style="stroke:#181818;stroke-width:0.5;stroke-dasharray:5.0,5.0;" x1="1782" x2="1782" y1="118.9766" y2="684.498"/><text fill="#000000" font-family="sans-serif" font-size="14" lengthAdjust="spacing" textLength="126" x="5" y="116.0234">Gestor de Campus</text><ellipse cx="71" cy="50.9883" fill="#E3E3E3" rx="8" ry="8" style="stroke:#181818;stroke-width:0.5;"/><path d="M71,58.9883 L71,85.9883 M58,66.9883 L84,66.9883 M71,85.9883 L58,100.9883 M71,85.9883 L84,100.9883 " fill="none" style="stroke:#181818;stroke-width:0.5;"/><text fill="#000000" font-family="sans-serif" font-size="14" lengthAdjust="spacing" textLength="126" x="5" y="697.0332">Gestor de Campus</text><ellipse cx="71" cy="708.4863" fill="#E3E3E3" rx="8" ry="8" style="stroke:#181818;stroke-width:0.5;"/><path d="M71,716.4863 L71,743.4863 M58,724.4863 L84,724.4863 M71,743.4863 L58,758.4863 M71,743.4863 L84,758.4863 " fill="none" style="stroke:#181818;stroke-width:0.5;"/><rect fill="#E3E3E3" height="46.9766" rx="2.5" ry="2.5" style="stroke:#181818;stroke-width:0.5;" width="119" x="295.5" y="71"/><text fill="#000000" font-family="sans-serif" font-size="14" lengthAdjust="spacing" textLength="105" x="302.5" y="91.5352">&#171;C4:Container&#187;</text><text fill="#000000" font-family="sans-serif" font-size="14" lengthAdjust="spacing" textLength="89" x="310.5" y="108.0234">:Visualiza&#231;&#227;o</text><rect fill="#E3E3E3" height="46.9766" rx="2.5" ry="2.5" style="stroke:#181818;stroke-width:0.5;" width="119" x="295.5" y="683.498"/><text fill="#000000" font-family="sans-serif" font-size="14" lengthAdjust="spacing" textLength="105" x="302.5" y="704.0332">&#171;C4:Container&#187;</text><text fill="#000000" font-family="sans-serif" font-size="14" lengthAdjust="spacing" textLength="89" x="310.5" y="720.5215">:Visualiza&#231;&#227;o</text><rect fill="#E3E3E3" height="63.4648" rx="2.5" ry="2.5" style="stroke:#181818;stroke-width:0.5;" width="138" x="487" y="54.5117"/><text fill="#000000" font-family="sans-serif" font-size="14" lengthAdjust="spacing" textLength="105" x="503.5" y="75.0469">&#171;C4:Container&#187;</text><text fill="#000000" font-family="sans-serif" font-size="14" lengthAdjust="spacing" textLength="124" x="494" y="91.5352">M&#243;dulo de Gest&#227;o</text><text fill="#000000" font-family="sans-serif" font-size="14" lengthAdjust="spacing" textLength="99" x="506.5" y="108.0234">de Informa&#231;&#227;o</text><rect fill="#E3E3E3" height="63.4648" rx="2.5" ry="2.5" style="stroke:#181818;stroke-width:0.5;" width="138" x="487" y="683.498"/><text fill="#000000" font-family="sans-serif" font-size="14" lengthAdjust="spacing" textLength="105" x="503.5" y="704.0332">&#171;C4:Container&#187;</text><text fill="#000000" font-family="sans-serif" font-size="14" lengthAdjust="spacing" textLength="124" x="494" y="720.5215">M&#243;dulo de Gest&#227;o</text><text fill="#000000" font-family="sans-serif" font-size="14" lengthAdjust="spacing" textLength="99" x="506.5" y="737.0098">de Informa&#231;&#227;o</text><rect fill="#E3E3E3" height="30.4883" rx="2.5" ry="2.5" style="stroke:#181818;stroke-width:0.5;" width="111" x="701.5" y="87.4883"/><text fill="#000000" font-family="sans-serif" font-size="14" lengthAdjust="spacing" textLength="97" x="708.5" y="108.0234">buildingRoute</text><rect fill="#E3E3E3" height="30.4883" rx="2.5" ry="2.5" style="stroke:#181818;stroke-width:0.5;" width="111" x="701.5" y="683.498"/><text fill="#000000" font-family="sans-serif" font-size="14" lengthAdjust="spacing" textLength="97" x="708.5" y="704.0332">buildingRoute</text><rect fill="#E3E3E3" height="30.4883" rx="2.5" ry="2.5" style="stroke:#181818;stroke-width:0.5;" width="141" x="914.5" y="87.4883"/><text fill="#000000" font-family="sans-serif" font-size="14" lengthAdjust="spacing" textLength="127" x="921.5" y="108.0234">buildingController</text><rect fill="#E3E3E3" height="30.4883" rx="2.5" ry="2.5" style="stroke:#181818;stroke-width:0.5;" width="141" x="914.5" y="683.498"/><text fill="#000000" font-family="sans-serif" font-size="14" lengthAdjust="spacing" textLength="127" x="921.5" y="704.0332">buildingController</text><rect fill="#E3E3E3" height="30.4883" rx="2.5" ry="2.5" style="stroke:#181818;stroke-width:0.5;" width="119" x="1255.5" y="87.4883"/><text fill="#000000" font-family="sans-serif" font-size="14" lengthAdjust="spacing" textLength="105" x="1262.5" y="108.0234">buildingService</text><rect fill="#E3E3E3" height="30.4883" rx="2.5" ry="2.5" style="stroke:#181818;stroke-width:0.5;" width="119" x="1255.5" y="683.498"/><text fill="#000000" font-family="sans-serif" font-size="14" lengthAdjust="spacing" textLength="105" x="1262.5" y="704.0332">buildingService</text><rect fill="#E3E3E3" height="30.4883" rx="2.5" ry="2.5" style="stroke:#181818;stroke-width:0.5;" width="106" x="1490" y="87.4883"/><text fill="#000000" font-family="sans-serif" font-size="14" lengthAdjust="spacing" textLength="92" x="1497" y="108.0234">buildingRepo</text><rect fill="#E3E3E3" height="30.4883" rx="2.5" ry="2.5" style="stroke:#181818;stroke-width:0.5;" width="106" x="1490" y="683.498"/><text fill="#000000" font-family="sans-serif" font-size="14" lengthAdjust="spacing" textLength="92" x="1497" y="704.0332">buildingRepo</text><rect fill="#E3E3E3" height="30.4883" rx="2.5" ry="2.5" style="stroke:#181818;stroke-width:0.5;" width="124" x="1720" y="87.4883"/><text fill="#000000" font-family="sans-serif" font-size="14" lengthAdjust="spacing" textLength="110" x="1727" y="108.0234">buildingSchema</text><rect fill="#E3E3E3" height="30.4883" rx="2.5" ry="2.5" style="stroke:#181818;stroke-width:0.5;" width="124" x="1720" y="683.498"/><text fill="#000000" font-family="sans-serif" font-size="14" lengthAdjust="spacing" textLength="110" x="1727" y="704.0332">buildingSchema</text><rect fill="#FFFFFF" height="537.5215" style="stroke:#181818;stroke-width:1.0;" width="10" x="66" y="128.9766"/><rect fill="#FFFFFF" height="29.3105" style="stroke:#181818;stroke-width:1.0;" width="10" x="350" y="165.5977"/><rect fill="#FFFFFF" height="426.9688" style="stroke:#181818;stroke-width:1.0;" width="10" x="350" y="239.5293"/><rect fill="#FFFFFF" height="337.7266" style="stroke:#181818;stroke-width:1.0;" width="10" x="551" y="268.8398"/><rect fill="#FFFFFF" height="279.1055" style="stroke:#181818;stroke-width:1.0;" width="10" x="752" y="298.1504"/><rect fill="#FFFFFF" height="220.4844" style="stroke:#181818;stroke-width:1.0;" width="10" x="980" y="327.4609"/><rect fill="#FFFFFF" height="161.8633" style="stroke:#181818;stroke-width:1.0;" width="10" x="1310" y="356.7715"/><rect fill="#FFFFFF" height="103.2422" style="stroke:#181818;stroke-width:1.0;" width="10" x="1538" y="386.082"/><rect fill="#FFFFFF" height="29.3105" style="stroke:#181818;stroke-width:1.0;" width="10" x="1777" y="430.7031"/><polygon fill="#181818" points="338,161.5977,348,165.5977,338,169.5977,342,165.5977" style="stroke:#181818;stroke-width:1.0;"/><line style="stroke:#181818;stroke-width:1.0;" x1="76" x2="344" y1="165.5977" y2="165.5977"/><text fill="#000000" font-family="sans-serif" font-size="13" font-weight="bold" lengthAdjust="spacing" textLength="9" x="83" y="153.2002">1</text><text fill="#000000" font-family="sans-serif" font-size="13" lengthAdjust="spacing" textLength="185" x="96" y="145.5449">Solicita lista de edif&#237;cios com</text><text fill="#000000" font-family="sans-serif" font-size="13" lengthAdjust="spacing" textLength="171" x="96" y="160.8555">m&#237;nimo e m&#225;ximo de pisos</text><polygon fill="#181818" points="87,190.9082,77,194.9082,87,198.9082,83,194.9082" style="stroke:#181818;stroke-width:1.0;"/><line style="stroke:#181818;stroke-width:1.0;stroke-dasharray:2.0,2.0;" x1="81" x2="354" y1="194.9082" y2="194.9082"/><text fill="#000000" font-family="sans-serif" font-size="13" font-weight="bold" lengthAdjust="spacing" textLength="9" x="93" y="190.166">2</text><text fill="#000000" font-family="sans-serif" font-size="13" lengthAdjust="spacing" textLength="237" x="106" y="190.166">Solicita dados necess&#225;rios (max, min)</text><polygon fill="#181818" points="338,235.5293,348,239.5293,338,243.5293,342,239.5293" style="stroke:#181818;stroke-width:1.0;"/><line style="stroke:#181818;stroke-width:1.0;" x1="76" x2="344" y1="239.5293" y2="239.5293"/><text fill="#000000" font-family="sans-serif" font-size="13" font-weight="bold" lengthAdjust="spacing" textLength="9" x="83" y="227.1318">3</text><text fill="#000000" font-family="sans-serif" font-size="13" lengthAdjust="spacing" textLength="208" x="96" y="219.4766">Apresenta informa&#231;&#227;o necess&#225;ria</text><text fill="#000000" font-family="sans-serif" font-size="13" lengthAdjust="spacing" textLength="172" x="96" y="234.7871">para a realiza&#231;&#227;o do pedido</text><polygon fill="#181818" points="539,264.8398,549,268.8398,539,272.8398,543,268.8398" style="stroke:#181818;stroke-width:1.0;"/><line style="stroke:#181818;stroke-width:1.0;" x1="360" x2="545" y1="268.8398" y2="268.8398"/><text fill="#000000" font-family="sans-serif" font-size="13" font-weight="bold" lengthAdjust="spacing" textLength="9" x="367" y="264.0977">4</text><text fill="#000000" font-family="sans-serif" font-size="13" lengthAdjust="spacing" textLength="159" x="380" y="264.0977">GET /buildings/max/min</text><polygon fill="#181818" points="740,294.1504,750,298.1504,740,302.1504,744,298.1504" style="stroke:#181818;stroke-width:1.0;"/><line style="stroke:#181818;stroke-width:1.0;" x1="561" x2="746" y1="298.1504" y2="298.1504"/><text fill="#000000" font-family="sans-serif" font-size="13" font-weight="bold" lengthAdjust="spacing" textLength="9" x="568" y="293.4082">5</text><text fill="#000000" font-family="sans-serif" font-size="13" lengthAdjust="spacing" textLength="159" x="581" y="293.4082">GET /buildings/max/min</text><polygon fill="#181818" points="968,323.4609,978,327.4609,968,331.4609,972,327.4609" style="stroke:#181818;stroke-width:1.0;"/><line style="stroke:#181818;stroke-width:1.0;" x1="762" x2="974" y1="327.4609" y2="327.4609"/><text fill="#000000" font-family="sans-serif" font-size="13" font-weight="bold" lengthAdjust="spacing" textLength="9" x="769" y="322.7188">6</text><text fill="#000000" font-family="sans-serif" font-size="13" lengthAdjust="spacing" textLength="186" x="782" y="322.7188">getBuildingsByFloors(req, res)</text><polygon fill="#181818" points="1298,352.7715,1308,356.7715,1298,360.7715,1302,356.7715" style="stroke:#181818;stroke-width:1.0;"/><line style="stroke:#181818;stroke-width:1.0;" x1="990" x2="1304" y1="356.7715" y2="356.7715"/><text fill="#000000" font-family="sans-serif" font-size="13" font-weight="bold" lengthAdjust="spacing" textLength="9" x="997" y="352.0293">7</text><text fill="#000000" font-family="sans-serif" font-size="13" lengthAdjust="spacing" textLength="186" x="1010" y="352.0293">getBuildingsByFloors(req, res)</text><polygon fill="#181818" points="1526,382.082,1536,386.082,1526,390.082,1530,386.082" style="stroke:#181818;stroke-width:1.0;"/><line style="stroke:#181818;stroke-width:1.0;" x1="1320" x2="1532" y1="386.082" y2="386.082"/><text fill="#000000" font-family="sans-serif" font-size="13" font-weight="bold" lengthAdjust="spacing" textLength="9" x="1327" y="381.3398">8</text><text fill="#000000" font-family="sans-serif" font-size="13" lengthAdjust="spacing" textLength="186" x="1340" y="381.3398">getBuildingsByFloors(req, res)</text><polygon fill="#181818" points="1765,426.7031,1775,430.7031,1765,434.7031,1769,430.7031" style="stroke:#181818;stroke-width:1.0;"/><line style="stroke:#181818;stroke-width:1.0;" x1="1548" x2="1771" y1="430.7031" y2="430.7031"/><text fill="#000000" font-family="sans-serif" font-size="13" font-weight="bold" lengthAdjust="spacing" textLength="9" x="1555" y="418.3057">9</text><text fill="#000000" font-family="sans-serif" font-size="13" lengthAdjust="spacing" textLength="197" x="1568" y="410.6504">find({ buildingNumberOfFloors:</text><text fill="#000000" font-family="sans-serif" font-size="13" lengthAdjust="spacing" textLength="143" x="1568" y="425.9609">{$gte: min, $lte: max}})</text><polygon fill="#181818" points="1559,456.0137,1549,460.0137,1559,464.0137,1555,460.0137" style="stroke:#181818;stroke-width:1.0;"/><line style="stroke:#181818;stroke-width:1.0;stroke-dasharray:2.0,2.0;" x1="1553" x2="1781" y1="460.0137" y2="460.0137"/><text fill="#000000" font-family="sans-serif" font-size="13" font-weight="bold" lengthAdjust="spacing" textLength="18" x="1565" y="455.2715">10</text><text fill="#000000" font-family="sans-serif" font-size="13" lengthAdjust="spacing" textLength="59" x="1587" y="455.2715">buildings</text><polygon fill="#181818" points="1331,485.3242,1321,489.3242,1331,493.3242,1327,489.3242" style="stroke:#181818;stroke-width:1.0;"/><line style="stroke:#181818;stroke-width:1.0;stroke-dasharray:2.0,2.0;" x1="1325" x2="1542" y1="489.3242" y2="489.3242"/><text fill="#000000" font-family="sans-serif" font-size="13" font-weight="bold" lengthAdjust="spacing" textLength="18" x="1337" y="484.582">11</text><text fill="#000000" font-family="sans-serif" font-size="13" lengthAdjust="spacing" textLength="59" x="1359" y="484.582">buildings</text><polygon fill="#181818" points="1001,514.6348,991,518.6348,1001,522.6348,997,518.6348" style="stroke:#181818;stroke-width:1.0;"/><line style="stroke:#181818;stroke-width:1.0;" x1="995" x2="1314" y1="518.6348" y2="518.6348"/><text fill="#000000" font-family="sans-serif" font-size="13" font-weight="bold" lengthAdjust="spacing" textLength="18" x="1007" y="513.8926">12</text><text fill="#000000" font-family="sans-serif" font-size="13" lengthAdjust="spacing" textLength="274" x="1029" y="513.8926">res.status(201).send({ message: buildings })</text><polygon fill="#181818" points="773,543.9453,763,547.9453,773,551.9453,769,547.9453" style="stroke:#181818;stroke-width:1.0;"/><line style="stroke:#181818;stroke-width:1.0;stroke-dasharray:2.0,2.0;" x1="767" x2="984" y1="547.9453" y2="547.9453"/><text fill="#000000" font-family="sans-serif" font-size="13" font-weight="bold" lengthAdjust="spacing" textLength="18" x="779" y="543.2031">13</text><text fill="#000000" font-family="sans-serif" font-size="13" lengthAdjust="spacing" textLength="109" x="801" y="543.2031">200 OK buildings</text><polygon fill="#181818" points="572,573.2559,562,577.2559,572,581.2559,568,577.2559" style="stroke:#181818;stroke-width:1.0;"/><line style="stroke:#181818;stroke-width:1.0;stroke-dasharray:2.0,2.0;" x1="566" x2="756" y1="577.2559" y2="577.2559"/><text fill="#000000" font-family="sans-serif" font-size="13" font-weight="bold" lengthAdjust="spacing" textLength="18" x="578" y="572.5137">14</text><text fill="#000000" font-family="sans-serif" font-size="13" lengthAdjust="spacing" textLength="109" x="600" y="572.5137">200 OK buildings</text><polygon fill="#181818" points="371,602.5664,361,606.5664,371,610.5664,367,606.5664" style="stroke:#181818;stroke-width:1.0;"/><line style="stroke:#181818;stroke-width:1.0;stroke-dasharray:2.0,2.0;" x1="365" x2="555" y1="606.5664" y2="606.5664"/><text fill="#000000" font-family="sans-serif" font-size="13" font-weight="bold" lengthAdjust="spacing" textLength="18" x="377" y="601.8242">15</text><text fill="#000000" font-family="sans-serif" font-size="13" lengthAdjust="spacing" textLength="109" x="399" y="601.8242">200 OK buildings</text><polygon fill="#181818" points="82,662.498,72,666.498,82,670.498,78,666.498" style="stroke:#181818;stroke-width:1.0;"/><line style="stroke:#181818;stroke-width:1.0;stroke-dasharray:2.0,2.0;" x1="76" x2="354" y1="666.498" y2="666.498"/><text fill="#000000" font-family="sans-serif" font-size="13" font-weight="bold" lengthAdjust="spacing" textLength="18" x="88" y="646.4453">16</text><text fill="#000000" font-family="sans-serif" font-size="13" lengthAdjust="spacing" textLength="171" x="110" y="631.1348">Apresenta lista de edif&#237;cios</text><text fill="#000000" font-family="sans-serif" font-size="13" lengthAdjust="spacing" textLength="140" x="110" y="646.4453">com as caracter&#237;sticas</text><text fill="#000000" font-family="sans-serif" font-size="13" lengthAdjust="spacing" textLength="187" x="110" y="661.7559">pedidas presentes no sistema</text><!--SRC=[jLRDJXin4BxxAKOHXqGY46WFrIgALA15LLMGsBQdN8nt4YpMzc9xAHJbOL0FFUNKHzWNw-m6WZTPqYHIBudjcVdypNX-rbrBdN7B5IYZZRYoHY5ucoDpSqd6nJKVO-plKmIBmdCzJaC5TyKJyqFgCOnuwf0nBpsf7XljkTHe8SQR7BL0E95yN5gquvCETE5RVF2k1-spDnt6UEwDpjKbMbeBRooqJj6L_mb1SPNbhbL9v2tts2HSFeBk05hz_l7RQCvbC1ZgwBjqEK_bJrxyBdwPLWInIQMGdaCg7VqI0YPoL4o5D0w4KKEjYgcMoW22AXxloXKfPT8P5t3wzrLi3HtebhINd0bO9XHl1ne5EbSysf9aM_6xNL1ITrY2cp7QFcplCuiEIGMa7XchPeA061zMAGASykR54X836GKuCVyXTetKlnH_aZojtgpqbZI7cjQV0jRapkc7hx1_cSiqeLns-nJHVGeeMqbo7MIsfLtfp3ET2vDxV9NYd65DdTLs8Lf9nPeqHHl16FtHC-3H_SVK6ElQ5czswSrSPndwnPOj7uMNn6XlfS3DRtWoP0lxMZWmCvi3brOitDJeYYjKF8AHr4dxONvyLlMayz4CFHhgXvrn-H8KzbtOIQiblvjCcloe45bzMrLttOtvUuQb-mh8Z7LJb5UYr3nlY6UO41IxFUg2FdVjmzv1Puygl0o8efgcCH1S19DE8-E5vmkpOp6Z8OB3NW_EFw-ctv1pJpczVRslUVMiahQku7LRwIegMxUTvSxUxtOtRUqD8t6eQIO2fz58pLrujCNKUIau2Qg-Jf8dSwGnPS0HH9d46qwcKBtXM-0l]--></g></svg>