<?xml version="1.0" encoding="us-ascii" standalone="no"?><svg xmlns="http://www.w3.org/2000/svg" xmlns:xlink="http://www.w3.org/1999/xlink" contentStyleType="text/css" height="1016px" preserveAspectRatio="none" style="width:2444px;height:1016px;background:#FFFFFF;" version="1.1" viewBox="0 0 2444 1016" width="2444px" zoomAndPan="magnify"><defs/><g><text fill="#000000" font-family="sans-serif" font-size="14" font-weight="bold" lengthAdjust="spacing" textLength="340" x="1051" y="28.5352">Container Sequence Diagram (SD) - US190 (N3)</text><rect fill="#FFFFFF" height="788.0508" style="stroke:#181818;stroke-width:1.0;" width="10" x="81" y="128.9766"/><rect fill="#FFFFFF" height="44.6211" style="stroke:#181818;stroke-width:1.0;" width="10" x="508" y="150.2871"/><rect fill="#FFFFFF" height="692.8086" style="stroke:#181818;stroke-width:1.0;" width="10" x="508" y="224.2188"/><rect fill="#FFFFFF" height="603.5664" style="stroke:#181818;stroke-width:1.0;" width="10" x="912" y="268.8398"/><rect fill="#FFFFFF" height="529.6348" style="stroke:#181818;stroke-width:1.0;" width="10" x="1316" y="313.4609"/><rect fill="#FFFFFF" height="471.0137" style="stroke:#181818;stroke-width:1.0;" width="10" x="1720" y="342.7715"/><rect fill="#FFFFFF" height="412.3926" style="stroke:#181818;stroke-width:1.0;" width="10" x="2165" y="372.082"/><rect fill="#FFFFFF" height="236.4844" style="stroke:#181818;stroke-width:1.0;" width="10" x="2328" y="401.3926"/><rect fill="#FFFFFF" height="30" style="stroke:#181818;stroke-width:1.0;" width="10" x="2328" y="725.1641"/><rect fill="none" height="193.1738" style="stroke:#000000;stroke-width:1.5;" width="2374" x="10" y="416.3926"/><line style="stroke:#181818;stroke-width:0.5;stroke-dasharray:5.0,5.0;" x1="86" x2="86" y1="118.9766" y2="935.0273"/><line style="stroke:#181818;stroke-width:0.5;stroke-dasharray:5.0,5.0;" x1="512.5" x2="512.5" y1="118.9766" y2="935.0273"/><line style="stroke:#181818;stroke-width:0.5;stroke-dasharray:5.0,5.0;" x1="917" x2="917" y1="118.9766" y2="935.0273"/><line style="stroke:#181818;stroke-width:0.5;stroke-dasharray:5.0,5.0;" x1="1320.5" x2="1320.5" y1="118.9766" y2="935.0273"/><line style="stroke:#181818;stroke-width:0.5;stroke-dasharray:5.0,5.0;" x1="1724.5" x2="1724.5" y1="118.9766" y2="935.0273"/><line style="stroke:#181818;stroke-width:0.5;stroke-dasharray:5.0,5.0;" x1="2169.5" x2="2169.5" y1="118.9766" y2="935.0273"/><line style="stroke:#181818;stroke-width:0.5;stroke-dasharray:5.0,5.0;" x1="2333" x2="2333" y1="118.9766" y2="935.0273"/><line style="stroke:#181818;stroke-width:0.5;stroke-dasharray:5.0,5.0;" x1="2411" x2="2411" y1="684.8652" y2="935.0273"/><text fill="#000000" font-family="sans-serif" font-size="14" lengthAdjust="spacing" textLength="126" x="20" y="116.0234">Gestor de Campus</text><ellipse cx="86" cy="50.9883" fill="#E3E3E3" rx="8" ry="8" style="stroke:#181818;stroke-width:0.5;"/><path d="M86,58.9883 L86,85.9883 M73,66.9883 L99,66.9883 M86,85.9883 L73,100.9883 M86,85.9883 L99,100.9883 " fill="none" style="stroke:#181818;stroke-width:0.5;"/><text fill="#000000" font-family="sans-serif" font-size="14" lengthAdjust="spacing" textLength="126" x="20" y="947.5625">Gestor de Campus</text><ellipse cx="86" cy="959.0156" fill="#E3E3E3" rx="8" ry="8" style="stroke:#181818;stroke-width:0.5;"/><path d="M86,967.0156 L86,994.0156 M73,975.0156 L99,975.0156 M86,994.0156 L73,1009.0156 M86,994.0156 L99,1009.0156 " fill="none" style="stroke:#181818;stroke-width:0.5;"/><rect fill="#E3E3E3" height="46.9766" rx="2.5" ry="2.5" style="stroke:#181818;stroke-width:0.5;" width="119" x="453.5" y="71"/><text fill="#000000" font-family="sans-serif" font-size="14" lengthAdjust="spacing" textLength="105" x="460.5" y="91.5352">&#171;C4:Container&#187;</text><text fill="#000000" font-family="sans-serif" font-size="14" lengthAdjust="spacing" textLength="89" x="468.5" y="108.0234">:Visualiza&#231;&#227;o</text><rect fill="#E3E3E3" height="46.9766" rx="2.5" ry="2.5" style="stroke:#181818;stroke-width:0.5;" width="119" x="453.5" y="934.0273"/><text fill="#000000" font-family="sans-serif" font-size="14" lengthAdjust="spacing" textLength="105" x="460.5" y="954.5625">&#171;C4:Container&#187;</text><text fill="#000000" font-family="sans-serif" font-size="14" lengthAdjust="spacing" textLength="89" x="468.5" y="971.0508">:Visualiza&#231;&#227;o</text><rect fill="#E3E3E3" height="63.4648" rx="2.5" ry="2.5" style="stroke:#181818;stroke-width:0.5;" width="138" x="848" y="54.5117"/><text fill="#000000" font-family="sans-serif" font-size="14" lengthAdjust="spacing" textLength="105" x="864.5" y="75.0469">&#171;C4:Container&#187;</text><text fill="#000000" font-family="sans-serif" font-size="14" lengthAdjust="spacing" textLength="124" x="855" y="91.5352">M&#243;dulo de Gest&#227;o</text><text fill="#000000" font-family="sans-serif" font-size="14" lengthAdjust="spacing" textLength="99" x="867.5" y="108.0234">de Informa&#231;&#227;o</text><rect fill="#E3E3E3" height="63.4648" rx="2.5" ry="2.5" style="stroke:#181818;stroke-width:0.5;" width="138" x="848" y="934.0273"/><text fill="#000000" font-family="sans-serif" font-size="14" lengthAdjust="spacing" textLength="105" x="864.5" y="954.5625">&#171;C4:Container&#187;</text><text fill="#000000" font-family="sans-serif" font-size="14" lengthAdjust="spacing" textLength="124" x="855" y="971.0508">M&#243;dulo de Gest&#227;o</text><text fill="#000000" font-family="sans-serif" font-size="14" lengthAdjust="spacing" textLength="99" x="867.5" y="987.5391">de Informa&#231;&#227;o</text><rect fill="#E3E3E3" height="30.4883" rx="2.5" ry="2.5" style="stroke:#181818;stroke-width:0.5;" width="87" x="1277.5" y="87.4883"/><text fill="#000000" font-family="sans-serif" font-size="14" lengthAdjust="spacing" textLength="73" x="1284.5" y="108.0234">floorRoute</text><rect fill="#E3E3E3" height="30.4883" rx="2.5" ry="2.5" style="stroke:#181818;stroke-width:0.5;" width="87" x="1277.5" y="934.0273"/><text fill="#000000" font-family="sans-serif" font-size="14" lengthAdjust="spacing" textLength="73" x="1284.5" y="954.5625">floorRoute</text><rect fill="#E3E3E3" height="30.4883" rx="2.5" ry="2.5" style="stroke:#181818;stroke-width:0.5;" width="117" x="1666.5" y="87.4883"/><text fill="#000000" font-family="sans-serif" font-size="14" lengthAdjust="spacing" textLength="103" x="1673.5" y="108.0234">floorController</text><rect fill="#E3E3E3" height="30.4883" rx="2.5" ry="2.5" style="stroke:#181818;stroke-width:0.5;" width="117" x="1666.5" y="934.0273"/><text fill="#000000" font-family="sans-serif" font-size="14" lengthAdjust="spacing" textLength="103" x="1673.5" y="954.5625">floorController</text><rect fill="#E3E3E3" height="30.4883" rx="2.5" ry="2.5" style="stroke:#181818;stroke-width:0.5;" width="95" x="2122.5" y="87.4883"/><text fill="#000000" font-family="sans-serif" font-size="14" lengthAdjust="spacing" textLength="81" x="2129.5" y="108.0234">floorService</text><rect fill="#E3E3E3" height="30.4883" rx="2.5" ry="2.5" style="stroke:#181818;stroke-width:0.5;" width="95" x="2122.5" y="934.0273"/><text fill="#000000" font-family="sans-serif" font-size="14" lengthAdjust="spacing" textLength="81" x="2129.5" y="954.5625">floorService</text><rect fill="#E3E3E3" height="30.4883" rx="2.5" ry="2.5" style="stroke:#181818;stroke-width:0.5;" width="82" x="2292" y="87.4883"/><text fill="#000000" font-family="sans-serif" font-size="14" lengthAdjust="spacing" textLength="68" x="2299" y="108.0234">floorRepo</text><rect fill="#E3E3E3" height="30.4883" rx="2.5" ry="2.5" style="stroke:#181818;stroke-width:0.5;" width="82" x="2292" y="934.0273"/><text fill="#000000" font-family="sans-serif" font-size="14" lengthAdjust="spacing" textLength="68" x="2299" y="954.5625">floorRepo</text><rect fill="#E3E3E3" height="46.9766" rx="2.5" ry="2.5" style="stroke:#181818;stroke-width:0.5;" width="54" x="2384" y="934.0273"/><text fill="#000000" font-family="sans-serif" font-size="14" lengthAdjust="spacing" textLength="33" x="2394.5" y="954.5625">floor</text><text fill="#000000" font-family="sans-serif" font-size="14" lengthAdjust="spacing" textLength="40" x="2391" y="971.0508">:Floor</text><rect fill="#FFFFFF" height="788.0508" style="stroke:#181818;stroke-width:1.0;" width="10" x="81" y="128.9766"/><rect fill="#FFFFFF" height="44.6211" style="stroke:#181818;stroke-width:1.0;" width="10" x="508" y="150.2871"/><rect fill="#FFFFFF" height="692.8086" style="stroke:#181818;stroke-width:1.0;" width="10" x="508" y="224.2188"/><rect fill="#FFFFFF" height="603.5664" style="stroke:#181818;stroke-width:1.0;" width="10" x="912" y="268.8398"/><rect fill="#FFFFFF" height="529.6348" style="stroke:#181818;stroke-width:1.0;" width="10" x="1316" y="313.4609"/><rect fill="#FFFFFF" height="471.0137" style="stroke:#181818;stroke-width:1.0;" width="10" x="1720" y="342.7715"/><rect fill="#FFFFFF" height="412.3926" style="stroke:#181818;stroke-width:1.0;" width="10" x="2165" y="372.082"/><rect fill="#FFFFFF" height="236.4844" style="stroke:#181818;stroke-width:1.0;" width="10" x="2328" y="401.3926"/><rect fill="#FFFFFF" height="30" style="stroke:#181818;stroke-width:1.0;" width="10" x="2328" y="725.1641"/><polygon fill="#181818" points="496,146.2871,506,150.2871,496,154.2871,500,150.2871" style="stroke:#181818;stroke-width:1.0;"/><line style="stroke:#181818;stroke-width:1.0;" x1="91" x2="502" y1="150.2871" y2="150.2871"/><text fill="#000000" font-family="sans-serif" font-size="13" font-weight="bold" lengthAdjust="spacing" textLength="9" x="98" y="145.5449">1</text><text fill="#000000" font-family="sans-serif" font-size="13" lengthAdjust="spacing" textLength="247" x="111" y="145.5449">Inicia opera&#231;&#227;o de criar piso de edif&#237;cio</text><polygon fill="#181818" points="102,190.9082,92,194.9082,102,198.9082,98,194.9082" style="stroke:#181818;stroke-width:1.0;"/><line style="stroke:#181818;stroke-width:1.0;stroke-dasharray:2.0,2.0;" x1="96" x2="512" y1="194.9082" y2="194.9082"/><text fill="#000000" font-family="sans-serif" font-size="13" font-weight="bold" lengthAdjust="spacing" textLength="9" x="108" y="182.5107">2</text><text fill="#000000" font-family="sans-serif" font-size="13" lengthAdjust="spacing" textLength="380" x="121" y="174.8555">Solicita dados necess&#225;rios (buildingId, floorId, floorNumber,</text><text fill="#000000" font-family="sans-serif" font-size="13" lengthAdjust="spacing" textLength="157" x="121" y="190.166">floorId, floorDescription)</text><polygon fill="#181818" points="496,220.2188,506,224.2188,496,228.2188,500,224.2188" style="stroke:#181818;stroke-width:1.0;"/><line style="stroke:#181818;stroke-width:1.0;" x1="91" x2="502" y1="224.2188" y2="224.2188"/><text fill="#000000" font-family="sans-serif" font-size="13" font-weight="bold" lengthAdjust="spacing" textLength="9" x="98" y="219.4766">3</text><text fill="#000000" font-family="sans-serif" font-size="13" lengthAdjust="spacing" textLength="168" x="111" y="219.4766">Introduz dados solicitados</text><polygon fill="#181818" points="900,264.8398,910,268.8398,900,272.8398,904,268.8398" style="stroke:#181818;stroke-width:1.0;"/><line style="stroke:#181818;stroke-width:1.0;" x1="518" x2="906" y1="268.8398" y2="268.8398"/><text fill="#000000" font-family="sans-serif" font-size="13" font-weight="bold" lengthAdjust="spacing" textLength="9" x="525" y="256.4424">4</text><text fill="#000000" font-family="sans-serif" font-size="13" lengthAdjust="spacing" textLength="301" x="538" y="248.7871">POST /floors/ {buildingId, floorId, floorNumber,</text><text fill="#000000" font-family="sans-serif" font-size="13" lengthAdjust="spacing" textLength="157" x="538" y="264.0977">floorId, floorDescription}</text><polygon fill="#181818" points="1304,309.4609,1314,313.4609,1304,317.4609,1308,313.4609" style="stroke:#181818;stroke-width:1.0;"/><line style="stroke:#181818;stroke-width:1.0;" x1="922" x2="1310" y1="313.4609" y2="313.4609"/><text fill="#000000" font-family="sans-serif" font-size="13" font-weight="bold" lengthAdjust="spacing" textLength="9" x="929" y="301.0635">5</text><text fill="#000000" font-family="sans-serif" font-size="13" lengthAdjust="spacing" textLength="301" x="942" y="293.4082">POST /floors/ {buildingId, floorId, floorNumber,</text><text fill="#000000" font-family="sans-serif" font-size="13" lengthAdjust="spacing" textLength="157" x="942" y="308.7188">floorId, floorDescription}</text><polygon fill="#181818" points="1708,338.7715,1718,342.7715,1708,346.7715,1712,342.7715" style="stroke:#181818;stroke-width:1.0;"/><line style="stroke:#181818;stroke-width:1.0;" x1="1326" x2="1714" y1="342.7715" y2="342.7715"/><text fill="#000000" font-family="sans-serif" font-size="13" font-weight="bold" lengthAdjust="spacing" textLength="9" x="1333" y="338.0293">6</text><text fill="#000000" font-family="sans-serif" font-size="13" lengthAdjust="spacing" textLength="125" x="1346" y="338.0293">createFloor(req, res)</text><polygon fill="#181818" points="2153,368.082,2163,372.082,2153,376.082,2157,372.082" style="stroke:#181818;stroke-width:1.0;"/><line style="stroke:#181818;stroke-width:1.0;" x1="1730" x2="2159" y1="372.082" y2="372.082"/><text fill="#000000" font-family="sans-serif" font-size="13" font-weight="bold" lengthAdjust="spacing" textLength="9" x="1737" y="367.3398">7</text><text fill="#000000" font-family="sans-serif" font-size="13" lengthAdjust="spacing" textLength="125" x="1750" y="367.3398">createFloor(req, res)</text><polygon fill="#181818" points="2316,397.3926,2326,401.3926,2316,405.3926,2320,401.3926" style="stroke:#181818;stroke-width:1.0;"/><line style="stroke:#181818;stroke-width:1.0;" x1="2175" x2="2322" y1="401.3926" y2="401.3926"/><text fill="#000000" font-family="sans-serif" font-size="13" font-weight="bold" lengthAdjust="spacing" textLength="9" x="2182" y="396.6504">8</text><text fill="#000000" font-family="sans-serif" font-size="13" lengthAdjust="spacing" textLength="121" x="2195" y="396.6504">findByFloorId(floor)</text><path d="M10,416.3926 L72,416.3926 L72,423.7031 L62,433.7031 L10,433.7031 L10,416.3926 " fill="#EEEEEE" style="stroke:#000000;stroke-width:1.5;"/><rect fill="none" height="193.1738" style="stroke:#000000;stroke-width:1.5;" width="2374" x="10" y="416.3926"/><text fill="#000000" font-family="sans-serif" font-size="13" font-weight="bold" lengthAdjust="spacing" textLength="17" x="25" y="429.9609">alt</text><text fill="#000000" font-family="sans-serif" font-size="11" font-weight="bold" lengthAdjust="spacing" textLength="78" x="87" y="429.0273">[floor != null]</text><polygon fill="#181818" points="2186,451.0137,2176,455.0137,2186,459.0137,2182,455.0137" style="stroke:#181818;stroke-width:1.0;"/><line style="stroke:#181818;stroke-width:1.0;stroke-dasharray:2.0,2.0;" x1="2180" x2="2327" y1="455.0137" y2="455.0137"/><text fill="#000000" font-family="sans-serif" font-size="13" font-weight="bold" lengthAdjust="spacing" textLength="9" x="2192" y="450.2715">9</text><text fill="#000000" font-family="sans-serif" font-size="13" lengthAdjust="spacing" textLength="30" x="2205" y="450.2715">floor</text><polygon fill="#181818" points="1741,480.3242,1731,484.3242,1741,488.3242,1737,484.3242" style="stroke:#181818;stroke-width:1.0;"/><line style="stroke:#181818;stroke-width:1.0;" x1="1735" x2="2164" y1="484.3242" y2="484.3242"/><text fill="#000000" font-family="sans-serif" font-size="13" font-weight="bold" lengthAdjust="spacing" textLength="18" x="1747" y="479.582">10</text><text fill="#000000" font-family="sans-serif" font-size="13" lengthAdjust="spacing" textLength="348" x="1769" y="479.582">res.status(400).send({ message: "Floor already exists" })</text><polygon fill="#181818" points="1337,509.6348,1327,513.6348,1337,517.6348,1333,513.6348" style="stroke:#181818;stroke-width:1.0;"/><line style="stroke:#181818;stroke-width:1.0;stroke-dasharray:2.0,2.0;" x1="1331" x2="1719" y1="513.6348" y2="513.6348"/><text fill="#000000" font-family="sans-serif" font-size="13" font-weight="bold" lengthAdjust="spacing" textLength="18" x="1343" y="508.8926">11</text><text fill="#000000" font-family="sans-serif" font-size="13" lengthAdjust="spacing" textLength="348" x="1365" y="508.8926">res.status(400).send({ message: "Floor already exists" })</text><polygon fill="#181818" points="933,538.9453,923,542.9453,933,546.9453,929,542.9453" style="stroke:#181818;stroke-width:1.0;"/><line style="stroke:#181818;stroke-width:1.0;stroke-dasharray:2.0,2.0;" x1="927" x2="1315" y1="542.9453" y2="542.9453"/><text fill="#000000" font-family="sans-serif" font-size="13" font-weight="bold" lengthAdjust="spacing" textLength="18" x="939" y="538.2031">12</text><text fill="#000000" font-family="sans-serif" font-size="13" lengthAdjust="spacing" textLength="348" x="961" y="538.2031">res.status(400).send({ message: "Floor already exists" })</text><polygon fill="#181818" points="529,568.2559,519,572.2559,529,576.2559,525,572.2559" style="stroke:#181818;stroke-width:1.0;"/><line style="stroke:#181818;stroke-width:1.0;stroke-dasharray:2.0,2.0;" x1="523" x2="911" y1="572.2559" y2="572.2559"/><text fill="#000000" font-family="sans-serif" font-size="13" font-weight="bold" lengthAdjust="spacing" textLength="18" x="535" y="567.5137">13</text><text fill="#000000" font-family="sans-serif" font-size="13" lengthAdjust="spacing" textLength="348" x="557" y="567.5137">res.status(400).send({ message: "Floor already exists" })</text><polygon fill="#181818" points="102,597.5664,92,601.5664,102,605.5664,98,601.5664" style="stroke:#181818;stroke-width:1.0;"/><line style="stroke:#181818;stroke-width:1.0;stroke-dasharray:2.0,2.0;" x1="96" x2="507" y1="601.5664" y2="601.5664"/><text fill="#000000" font-family="sans-serif" font-size="13" font-weight="bold" lengthAdjust="spacing" textLength="18" x="108" y="596.8242">14</text><text fill="#000000" font-family="sans-serif" font-size="13" lengthAdjust="spacing" textLength="163" x="130" y="596.8242">Mostra mensagem de erro</text><polygon fill="#181818" points="2186,633.877,2176,637.877,2186,641.877,2182,637.877" style="stroke:#181818;stroke-width:1.0;"/><line style="stroke:#181818;stroke-width:1.0;stroke-dasharray:2.0,2.0;" x1="2180" x2="2332" y1="637.877" y2="637.877"/><text fill="#000000" font-family="sans-serif" font-size="13" font-weight="bold" lengthAdjust="spacing" textLength="18" x="2192" y="633.1348">15</text><text fill="#000000" font-family="sans-serif" font-size="13" lengthAdjust="spacing" textLength="24" x="2214" y="633.1348">null</text><polygon fill="#181818" points="2372,663.1875,2382,667.1875,2372,671.1875,2376,667.1875" style="stroke:#181818;stroke-width:1.0;"/><line style="stroke:#181818;stroke-width:1.0;" x1="2175" x2="2378" y1="667.1875" y2="667.1875"/><text fill="#000000" font-family="sans-serif" font-size="13" font-weight="bold" lengthAdjust="spacing" textLength="18" x="2182" y="662.4453">16</text><text fill="#000000" font-family="sans-serif" font-size="13" lengthAdjust="spacing" textLength="101" x="2204" y="662.4453">create(req.body)</text><rect fill="#E3E3E3" height="46.9766" rx="2.5" ry="2.5" style="stroke:#181818;stroke-width:0.5;" width="54" x="2384" y="645.877"/><text fill="#000000" font-family="sans-serif" font-size="14" lengthAdjust="spacing" textLength="33" x="2394.5" y="666.4121">floor</text><text fill="#000000" font-family="sans-serif" font-size="14" lengthAdjust="spacing" textLength="40" x="2391" y="682.9004">:Floor</text><polygon fill="#181818" points="2316,721.1641,2326,725.1641,2316,729.1641,2320,725.1641" style="stroke:#181818;stroke-width:1.0;"/><line style="stroke:#181818;stroke-width:1.0;" x1="2175" x2="2322" y1="725.1641" y2="725.1641"/><text fill="#000000" font-family="sans-serif" font-size="13" font-weight="bold" lengthAdjust="spacing" textLength="18" x="2182" y="720.4219">17</text><text fill="#000000" font-family="sans-serif" font-size="13" lengthAdjust="spacing" textLength="66" x="2204" y="720.4219">save(floor)</text><polygon fill="#181818" points="1741,780.4746,1731,784.4746,1741,788.4746,1737,784.4746" style="stroke:#181818;stroke-width:1.0;"/><line style="stroke:#181818;stroke-width:1.0;" x1="1735" x2="2169" y1="784.4746" y2="784.4746"/><text fill="#000000" font-family="sans-serif" font-size="13" font-weight="bold" lengthAdjust="spacing" textLength="18" x="1747" y="779.7324">18</text><text fill="#000000" font-family="sans-serif" font-size="13" lengthAdjust="spacing" textLength="389" x="1769" y="779.7324">res.status(201).send({ message: "Floor created successfully" })</text><polygon fill="#181818" points="1337,809.7852,1327,813.7852,1337,817.7852,1333,813.7852" style="stroke:#181818;stroke-width:1.0;"/><line style="stroke:#181818;stroke-width:1.0;stroke-dasharray:2.0,2.0;" x1="1331" x2="1724" y1="813.7852" y2="813.7852"/><text fill="#000000" font-family="sans-serif" font-size="13" font-weight="bold" lengthAdjust="spacing" textLength="18" x="1343" y="809.043">19</text><text fill="#000000" font-family="sans-serif" font-size="13" lengthAdjust="spacing" textLength="80" x="1365" y="809.043">200 OK floor</text><polygon fill="#181818" points="933,839.0957,923,843.0957,933,847.0957,929,843.0957" style="stroke:#181818;stroke-width:1.0;"/><line style="stroke:#181818;stroke-width:1.0;stroke-dasharray:2.0,2.0;" x1="927" x2="1320" y1="843.0957" y2="843.0957"/><text fill="#000000" font-family="sans-serif" font-size="13" font-weight="bold" lengthAdjust="spacing" textLength="18" x="939" y="838.3535">20</text><text fill="#000000" font-family="sans-serif" font-size="13" lengthAdjust="spacing" textLength="80" x="961" y="838.3535">200 OK floor</text><polygon fill="#181818" points="529,868.4063,519,872.4063,529,876.4063,525,872.4063" style="stroke:#181818;stroke-width:1.0;"/><line style="stroke:#181818;stroke-width:1.0;stroke-dasharray:2.0,2.0;" x1="523" x2="916" y1="872.4063" y2="872.4063"/><text fill="#000000" font-family="sans-serif" font-size="13" font-weight="bold" lengthAdjust="spacing" textLength="18" x="535" y="867.6641">21</text><text fill="#000000" font-family="sans-serif" font-size="13" lengthAdjust="spacing" textLength="80" x="557" y="867.6641">200 OK floor</text><polygon fill="#181818" points="97,913.0273,87,917.0273,97,921.0273,93,917.0273" style="stroke:#181818;stroke-width:1.0;"/><line style="stroke:#181818;stroke-width:1.0;stroke-dasharray:2.0,2.0;" x1="91" x2="512" y1="917.0273" y2="917.0273"/><text fill="#000000" font-family="sans-serif" font-size="13" font-weight="bold" lengthAdjust="spacing" textLength="18" x="103" y="904.6299">22</text><text fill="#000000" font-family="sans-serif" font-size="13" lengthAdjust="spacing" textLength="273" x="125" y="896.9746">Apresenta piso de ed&#237;ficio que acaba de ser</text><text fill="#000000" font-family="sans-serif" font-size="13" lengthAdjust="spacing" textLength="177" x="125" y="912.2852">criado e os seus par&#226;metros</text><!--SRC=[jLR1Kjim4BthAxO-9Go1GBdKGvbfOUWm7Q1JjprnKQnDq61BHf9f0yF7j3tqnAcVa1_hIacTu8GG4ZXPMgrttpxjhjPUI5LmmtF8jTBfkT4vWZCbCbkT53ozu3rCN3z3C9WwhdhPf88zvq9_bwe7NPvPPCn9HwhxMZak5Hf8yB94bI8SIDxpVpIIWoQqu6kozQODZPFNJSPuwRGgymuQMgTE6uW-eFLVGQPuNfGs2YVoYZkSTJWjWjOUHBkx-pjnXMLlxqp5twGjUIQl-U3FuBUEOZXICfKST85cAFD6KYEvWKBQi4CXkuExLEe938-RPWleGCl3d08VGw8pWkKu2EBNWi8KhHtyD98sZKufCq6S7ubrw6PQcsfn4bXSFrFtnGTeAQB2IQsQJE2JebYDMsUqAAz7KTXHKBH-0IPdOZeU_1Lb5cxHXq6QPuhMHwghJLxX_7IQV87DG9NTX9jL-BrbSqDR10zRyZzFGO3pMPSEdpcgAgYn1pPULguzQAEp34rCHOJqmw4NDmnUhbC3iSsQeR4-g-qhamcQAvdYOlP6ocnoC-O52nr3Lohnldyu3BKH3kfMl2BZcHlkuDLRK6MMiUeibErzS64ts-qa9mHvmphkIjlOQRUR6nQLQDn0JjLDVJQ6AE02db6ieW_uGrf71NVRdAQdTjihMXvTuofLj3o2fHD-qKRqhD0MRkB7sZh3oOloNlBmb1YZ6IFlSvCfPDj4dnudPJt1eY0WJ260Q6tjVvdu2jdeQD5lpgi5owzmJWai165UZc-tjnuaUuXJW2rJ_xXrAUP-eBpkzLvDFrW14CDskmsd7qUbMBTIxpGh9_nZ3eSzyiLJ-o4CIpy-qy_zRgkr69Pt1Tqzaih4w3IuwzAZhu76GE0fxt0ljaWvwuSieG71ZmPOMfespU1NZdHDzgbJogJwZDdn7m00]--></g></svg>