<?xml version="1.0" encoding="us-ascii" standalone="no"?><svg xmlns="http://www.w3.org/2000/svg" xmlns:xlink="http://www.w3.org/1999/xlink" contentStyleType="text/css" height="751px" preserveAspectRatio="none" style="width:1995px;height:751px;background:#FFFFFF;" version="1.1" viewBox="0 0 1995 751" width="1995px" zoomAndPan="magnify"><defs/><g><text fill="#000000" font-family="sans-serif" font-size="14" font-weight="bold" lengthAdjust="spacing" textLength="340" x="826.5" y="28.5352">Container Sequence Diagram (SD) - US250 (N3)</text><rect fill="#FFFFFF" height="59.9316" style="stroke:#181818;stroke-width:1.0;" width="10" x="449" y="150.2871"/><rect fill="#FFFFFF" height="413.0137" style="stroke:#181818;stroke-width:1.0;" width="10" x="449" y="239.5293"/><rect fill="#FFFFFF" height="323.7715" style="stroke:#181818;stroke-width:1.0;" width="10" x="817" y="299.4609"/><rect fill="#FFFFFF" height="234.5293" style="stroke:#181818;stroke-width:1.0;" width="10" x="1185" y="359.3926"/><rect fill="#FFFFFF" height="175.9082" style="stroke:#181818;stroke-width:1.0;" width="10" x="1397" y="388.7031"/><rect fill="#FFFFFF" height="117.2871" style="stroke:#181818;stroke-width:1.0;" width="10" x="1609" y="418.0137"/><rect fill="#FFFFFF" height="30" style="stroke:#181818;stroke-width:1.0;" width="10" x="1921.5" y="505.3008"/><line style="stroke:#181818;stroke-width:0.5;stroke-dasharray:5.0,5.0;" x1="71" x2="71" y1="118.9766" y2="670.543"/><line style="stroke:#181818;stroke-width:0.5;stroke-dasharray:5.0,5.0;" x1="453.5" x2="453.5" y1="118.9766" y2="670.543"/><line style="stroke:#181818;stroke-width:0.5;stroke-dasharray:5.0,5.0;" x1="822" x2="822" y1="118.9766" y2="670.543"/><line style="stroke:#181818;stroke-width:0.5;stroke-dasharray:5.0,5.0;" x1="1190" x2="1190" y1="118.9766" y2="670.543"/><line style="stroke:#181818;stroke-width:0.5;stroke-dasharray:5.0,5.0;" x1="1402" x2="1402" y1="118.9766" y2="670.543"/><line style="stroke:#181818;stroke-width:0.5;stroke-dasharray:5.0,5.0;" x1="1614" x2="1614" y1="118.9766" y2="670.543"/><line style="stroke:#181818;stroke-width:0.5;stroke-dasharray:5.0,5.0;" x1="1805" x2="1805" y1="465.002" y2="670.543"/><line style="stroke:#181818;stroke-width:0.5;stroke-dasharray:5.0,5.0;" x1="1926" x2="1926" y1="118.9766" y2="670.543"/><text fill="#000000" font-family="sans-serif" font-size="14" lengthAdjust="spacing" textLength="126" x="5" y="116.0234">Gestor de Campus</text><ellipse cx="71" cy="50.9883" fill="#E3E3E3" rx="8" ry="8" style="stroke:#181818;stroke-width:0.5;"/><path d="M71,58.9883 L71,85.9883 M58,66.9883 L84,66.9883 M71,85.9883 L58,100.9883 M71,85.9883 L84,100.9883 " fill="none" style="stroke:#181818;stroke-width:0.5;"/><text fill="#000000" font-family="sans-serif" font-size="14" lengthAdjust="spacing" textLength="126" x="5" y="683.0781">Gestor de Campus</text><ellipse cx="71" cy="694.5313" fill="#E3E3E3" rx="8" ry="8" style="stroke:#181818;stroke-width:0.5;"/><path d="M71,702.5313 L71,729.5313 M58,710.5313 L84,710.5313 M71,729.5313 L58,744.5313 M71,729.5313 L84,744.5313 " fill="none" style="stroke:#181818;stroke-width:0.5;"/><rect fill="#E3E3E3" height="46.9766" rx="2.5" ry="2.5" style="stroke:#181818;stroke-width:0.5;" width="119" x="394.5" y="71"/><text fill="#000000" font-family="sans-serif" font-size="14" lengthAdjust="spacing" textLength="105" x="401.5" y="91.5352">&#171;C4:Container&#187;</text><text fill="#000000" font-family="sans-serif" font-size="14" lengthAdjust="spacing" textLength="89" x="409.5" y="108.0234">:Visualiza&#231;&#227;o</text><rect fill="#E3E3E3" height="46.9766" rx="2.5" ry="2.5" style="stroke:#181818;stroke-width:0.5;" width="119" x="394.5" y="669.543"/><text fill="#000000" font-family="sans-serif" font-size="14" lengthAdjust="spacing" textLength="105" x="401.5" y="690.0781">&#171;C4:Container&#187;</text><text fill="#000000" font-family="sans-serif" font-size="14" lengthAdjust="spacing" textLength="89" x="409.5" y="706.5664">:Visualiza&#231;&#227;o</text><rect fill="#E3E3E3" height="63.4648" rx="2.5" ry="2.5" style="stroke:#181818;stroke-width:0.5;" width="138" x="753" y="54.5117"/><text fill="#000000" font-family="sans-serif" font-size="14" lengthAdjust="spacing" textLength="105" x="769.5" y="75.0469">&#171;C4:Container&#187;</text><text fill="#000000" font-family="sans-serif" font-size="14" lengthAdjust="spacing" textLength="124" x="760" y="91.5352">M&#243;dulo de Gest&#227;o</text><text fill="#000000" font-family="sans-serif" font-size="14" lengthAdjust="spacing" textLength="99" x="772.5" y="108.0234">de Informa&#231;&#227;o</text><rect fill="#E3E3E3" height="63.4648" rx="2.5" ry="2.5" style="stroke:#181818;stroke-width:0.5;" width="138" x="753" y="669.543"/><text fill="#000000" font-family="sans-serif" font-size="14" lengthAdjust="spacing" textLength="105" x="769.5" y="690.0781">&#171;C4:Container&#187;</text><text fill="#000000" font-family="sans-serif" font-size="14" lengthAdjust="spacing" textLength="124" x="760" y="706.5664">M&#243;dulo de Gest&#227;o</text><text fill="#000000" font-family="sans-serif" font-size="14" lengthAdjust="spacing" textLength="99" x="772.5" y="723.0547">de Informa&#231;&#227;o</text><rect fill="#E3E3E3" height="30.4883" rx="2.5" ry="2.5" style="stroke:#181818;stroke-width:0.5;" width="130" x="1125" y="87.4883"/><text fill="#000000" font-family="sans-serif" font-size="14" lengthAdjust="spacing" textLength="116" x="1132" y="108.0234">connectionRoute</text><rect fill="#E3E3E3" height="30.4883" rx="2.5" ry="2.5" style="stroke:#181818;stroke-width:0.5;" width="130" x="1125" y="669.543"/><text fill="#000000" font-family="sans-serif" font-size="14" lengthAdjust="spacing" textLength="116" x="1132" y="690.0781">connectionRoute</text><rect fill="#E3E3E3" height="30.4883" rx="2.5" ry="2.5" style="stroke:#181818;stroke-width:0.5;" width="160" x="1322" y="87.4883"/><text fill="#000000" font-family="sans-serif" font-size="14" lengthAdjust="spacing" textLength="146" x="1329" y="108.0234">connectionController</text><rect fill="#E3E3E3" height="30.4883" rx="2.5" ry="2.5" style="stroke:#181818;stroke-width:0.5;" width="160" x="1322" y="669.543"/><text fill="#000000" font-family="sans-serif" font-size="14" lengthAdjust="spacing" textLength="146" x="1329" y="690.0781">connectionController</text><rect fill="#E3E3E3" height="30.4883" rx="2.5" ry="2.5" style="stroke:#181818;stroke-width:0.5;" width="138" x="1545" y="87.4883"/><text fill="#000000" font-family="sans-serif" font-size="14" lengthAdjust="spacing" textLength="124" x="1552" y="108.0234">connectionService</text><rect fill="#E3E3E3" height="30.4883" rx="2.5" ry="2.5" style="stroke:#181818;stroke-width:0.5;" width="138" x="1545" y="669.543"/><text fill="#000000" font-family="sans-serif" font-size="14" lengthAdjust="spacing" textLength="124" x="1552" y="690.0781">connectionService</text><rect fill="#E3E3E3" height="46.9766" rx="2.5" ry="2.5" style="stroke:#181818;stroke-width:0.5;" width="97" x="1757" y="669.543"/><text fill="#000000" font-family="sans-serif" font-size="14" lengthAdjust="spacing" textLength="76" x="1767.5" y="690.0781">connection</text><text fill="#000000" font-family="sans-serif" font-size="14" lengthAdjust="spacing" textLength="83" x="1764" y="706.5664">:Connection</text><rect fill="#E3E3E3" height="30.4883" rx="2.5" ry="2.5" style="stroke:#181818;stroke-width:0.5;" width="125" x="1864" y="87.4883"/><text fill="#000000" font-family="sans-serif" font-size="14" lengthAdjust="spacing" textLength="111" x="1871" y="108.0234">connectionRepo</text><rect fill="#E3E3E3" height="30.4883" rx="2.5" ry="2.5" style="stroke:#181818;stroke-width:0.5;" width="125" x="1864" y="669.543"/><text fill="#000000" font-family="sans-serif" font-size="14" lengthAdjust="spacing" textLength="111" x="1871" y="690.0781">connectionRepo</text><rect fill="#FFFFFF" height="59.9316" style="stroke:#181818;stroke-width:1.0;" width="10" x="449" y="150.2871"/><rect fill="#FFFFFF" height="413.0137" style="stroke:#181818;stroke-width:1.0;" width="10" x="449" y="239.5293"/><rect fill="#FFFFFF" height="323.7715" style="stroke:#181818;stroke-width:1.0;" width="10" x="817" y="299.4609"/><rect fill="#FFFFFF" height="234.5293" style="stroke:#181818;stroke-width:1.0;" width="10" x="1185" y="359.3926"/><rect fill="#FFFFFF" height="175.9082" style="stroke:#181818;stroke-width:1.0;" width="10" x="1397" y="388.7031"/><rect fill="#FFFFFF" height="117.2871" style="stroke:#181818;stroke-width:1.0;" width="10" x="1609" y="418.0137"/><rect fill="#FFFFFF" height="30" style="stroke:#181818;stroke-width:1.0;" width="10" x="1921.5" y="505.3008"/><polygon fill="#181818" points="437,146.2871,447,150.2871,437,154.2871,441,150.2871" style="stroke:#181818;stroke-width:1.0;"/><line style="stroke:#181818;stroke-width:1.0;" x1="71" x2="443" y1="150.2871" y2="150.2871"/><text fill="#000000" font-family="sans-serif" font-size="13" font-weight="bold" lengthAdjust="spacing" textLength="9" x="78" y="145.5449">1</text><text fill="#000000" font-family="sans-serif" font-size="13" lengthAdjust="spacing" textLength="346" x="91" y="145.5449">Inicia opera&#231;&#227;o de editar passagem entre dois edificios</text><polygon fill="#181818" points="82,206.2188,72,210.2188,82,214.2188,78,210.2188" style="stroke:#181818;stroke-width:1.0;"/><line style="stroke:#181818;stroke-width:1.0;stroke-dasharray:2.0,2.0;" x1="76" x2="453" y1="210.2188" y2="210.2188"/><text fill="#000000" font-family="sans-serif" font-size="13" font-weight="bold" lengthAdjust="spacing" textLength="9" x="88" y="190.166">2</text><text fill="#000000" font-family="sans-serif" font-size="13" lengthAdjust="spacing" textLength="260" x="101" y="174.8555">Solicita dados necess&#225;rios (connectionId,</text><text fill="#000000" font-family="sans-serif" font-size="13" lengthAdjust="spacing" textLength="326" x="101" y="190.166">buildingfromId, buildingtoId, floorfromId, floortoId,</text><text fill="#000000" font-family="sans-serif" font-size="13" lengthAdjust="spacing" textLength="130" x="105" y="205.4766">locationX, locationY)</text><polygon fill="#181818" points="437,235.5293,447,239.5293,437,243.5293,441,239.5293" style="stroke:#181818;stroke-width:1.0;"/><line style="stroke:#181818;stroke-width:1.0;" x1="71" x2="443" y1="239.5293" y2="239.5293"/><text fill="#000000" font-family="sans-serif" font-size="13" font-weight="bold" lengthAdjust="spacing" textLength="9" x="78" y="234.7871">3</text><text fill="#000000" font-family="sans-serif" font-size="13" lengthAdjust="spacing" textLength="168" x="91" y="234.7871">Introduz dados solicitados</text><polygon fill="#181818" points="805,295.4609,815,299.4609,805,303.4609,809,299.4609" style="stroke:#181818;stroke-width:1.0;"/><line style="stroke:#181818;stroke-width:1.0;" x1="459" x2="811" y1="299.4609" y2="299.4609"/><text fill="#000000" font-family="sans-serif" font-size="13" font-weight="bold" lengthAdjust="spacing" textLength="9" x="466" y="279.4082">4</text><text fill="#000000" font-family="sans-serif" font-size="13" lengthAdjust="spacing" textLength="213" x="479" y="264.0977">PUT /connections/ {connectionId,</text><text fill="#000000" font-family="sans-serif" font-size="13" lengthAdjust="spacing" textLength="326" x="479" y="279.4082">buildingfromId, buildingtoId, floorfromId, floortoId,</text><text fill="#000000" font-family="sans-serif" font-size="13" lengthAdjust="spacing" textLength="130" x="483" y="294.7188">locationX, locationY}</text><polygon fill="#181818" points="1173,355.3926,1183,359.3926,1173,363.3926,1177,359.3926" style="stroke:#181818;stroke-width:1.0;"/><line style="stroke:#181818;stroke-width:1.0;" x1="827" x2="1179" y1="359.3926" y2="359.3926"/><text fill="#000000" font-family="sans-serif" font-size="13" font-weight="bold" lengthAdjust="spacing" textLength="9" x="834" y="339.3398">5</text><text fill="#000000" font-family="sans-serif" font-size="13" lengthAdjust="spacing" textLength="213" x="847" y="324.0293">PUT /connections/ {connectionId,</text><text fill="#000000" font-family="sans-serif" font-size="13" lengthAdjust="spacing" textLength="326" x="847" y="339.3398">buildingfromId, buildingtoId, floorfromId, floortoId,</text><text fill="#000000" font-family="sans-serif" font-size="13" lengthAdjust="spacing" textLength="130" x="851" y="354.6504">locationX, locationY}</text><polygon fill="#181818" points="1385,384.7031,1395,388.7031,1385,392.7031,1389,388.7031" style="stroke:#181818;stroke-width:1.0;"/><line style="stroke:#181818;stroke-width:1.0;" x1="1195" x2="1391" y1="388.7031" y2="388.7031"/><text fill="#000000" font-family="sans-serif" font-size="13" font-weight="bold" lengthAdjust="spacing" textLength="9" x="1202" y="383.9609">6</text><text fill="#000000" font-family="sans-serif" font-size="13" lengthAdjust="spacing" textLength="170" x="1215" y="383.9609">updateConnection(req, res)</text><polygon fill="#181818" points="1597,414.0137,1607,418.0137,1597,422.0137,1601,418.0137" style="stroke:#181818;stroke-width:1.0;"/><line style="stroke:#181818;stroke-width:1.0;" x1="1407" x2="1603" y1="418.0137" y2="418.0137"/><text fill="#000000" font-family="sans-serif" font-size="13" font-weight="bold" lengthAdjust="spacing" textLength="9" x="1414" y="413.2715">7</text><text fill="#000000" font-family="sans-serif" font-size="13" lengthAdjust="spacing" textLength="170" x="1427" y="413.2715">updateConnection(req, res)</text><polygon fill="#181818" points="1745,443.3242,1755,447.3242,1745,451.3242,1749,447.3242" style="stroke:#181818;stroke-width:1.0;"/><line style="stroke:#181818;stroke-width:1.0;" x1="1619" x2="1751" y1="447.3242" y2="447.3242"/><text fill="#000000" font-family="sans-serif" font-size="13" font-weight="bold" lengthAdjust="spacing" textLength="9" x="1626" y="442.582">8</text><text fill="#000000" font-family="sans-serif" font-size="13" lengthAdjust="spacing" textLength="101" x="1639" y="442.582">create(req.body)</text><rect fill="#E3E3E3" height="46.9766" rx="2.5" ry="2.5" style="stroke:#181818;stroke-width:0.5;" width="97" x="1757" y="426.0137"/><text fill="#000000" font-family="sans-serif" font-size="14" lengthAdjust="spacing" textLength="76" x="1767.5" y="446.5488">connection</text><text fill="#000000" font-family="sans-serif" font-size="14" lengthAdjust="spacing" textLength="83" x="1764" y="463.0371">:Connection</text><polygon fill="#181818" points="1909.5,501.3008,1919.5,505.3008,1909.5,509.3008,1913.5,505.3008" style="stroke:#181818;stroke-width:1.0;"/><line style="stroke:#181818;stroke-width:1.0;" x1="1619" x2="1915.5" y1="505.3008" y2="505.3008"/><text fill="#000000" font-family="sans-serif" font-size="13" font-weight="bold" lengthAdjust="spacing" textLength="9" x="1626" y="500.5586">9</text><text fill="#000000" font-family="sans-serif" font-size="13" lengthAdjust="spacing" textLength="121" x="1639" y="500.5586">update(connection)</text><polygon fill="#181818" points="1206,560.6113,1196,564.6113,1206,568.6113,1202,564.6113" style="stroke:#181818;stroke-width:1.0;"/><line style="stroke:#181818;stroke-width:1.0;stroke-dasharray:2.0,2.0;" x1="1200" x2="1401" y1="564.6113" y2="564.6113"/><text fill="#000000" font-family="sans-serif" font-size="13" font-weight="bold" lengthAdjust="spacing" textLength="18" x="1212" y="559.8691">10</text><text fill="#000000" font-family="sans-serif" font-size="13" lengthAdjust="spacing" textLength="120" x="1234" y="559.8691">200 OK connection</text><polygon fill="#181818" points="838,589.9219,828,593.9219,838,597.9219,834,593.9219" style="stroke:#181818;stroke-width:1.0;"/><line style="stroke:#181818;stroke-width:1.0;stroke-dasharray:2.0,2.0;" x1="832" x2="1189" y1="593.9219" y2="593.9219"/><text fill="#000000" font-family="sans-serif" font-size="13" font-weight="bold" lengthAdjust="spacing" textLength="18" x="844" y="589.1797">11</text><text fill="#000000" font-family="sans-serif" font-size="13" lengthAdjust="spacing" textLength="120" x="866" y="589.1797">200 OK connection</text><polygon fill="#181818" points="470,619.2324,460,623.2324,470,627.2324,466,623.2324" style="stroke:#181818;stroke-width:1.0;"/><line style="stroke:#181818;stroke-width:1.0;stroke-dasharray:2.0,2.0;" x1="464" x2="821" y1="623.2324" y2="623.2324"/><text fill="#000000" font-family="sans-serif" font-size="13" font-weight="bold" lengthAdjust="spacing" textLength="18" x="476" y="618.4902">12</text><text fill="#000000" font-family="sans-serif" font-size="13" lengthAdjust="spacing" textLength="120" x="498" y="618.4902">200 OK connection</text><polygon fill="#181818" points="82,648.543,72,652.543,82,656.543,78,652.543" style="stroke:#181818;stroke-width:1.0;"/><line style="stroke:#181818;stroke-width:1.0;stroke-dasharray:2.0,2.0;" x1="76" x2="453" y1="652.543" y2="652.543"/><text fill="#000000" font-family="sans-serif" font-size="13" font-weight="bold" lengthAdjust="spacing" textLength="18" x="88" y="647.8008">13</text><text fill="#000000" font-family="sans-serif" font-size="13" lengthAdjust="spacing" textLength="278" x="110" y="647.8008">Imprime passagem que acaba de ser editada</text><!--SRC=[lLLBRjim4Dtp50ElxC1kZBJT28Ot3b0OHJ-ecg85lA79iKD4uYZyf4YA7gRe8WVe4NonaeujAv4Go0wIbSJvlZT3pjWBfGjkU0uvQHBdXd84PpmoMseABYxu4bDtdI4O58xhPLOriETSqa-bbx3WcKN6d7B1T4BQSQNHG8gN7hL0E5Ly6JswwMaF1d2MdhmTGlVZwnvZt3lIFf-Z2V_2aO7EExJnAqCedXVUTXYhos0mXiveD7cJbFd6uvbElYdhUQPk-EfszPSw2Kor4ee35MZkP348IkMu2HIj3HHpGEqCWYHbeseHFCX6EEgAEsoJXxMmWK74N6EIG4fPoEWuo51G2ne5MhlwOm88w0hIGU0KwQdip_JSgqo6cYz2ou80jcT7yRJ8YCnMjJwivJCD6GaUWtplbxy_UapYNYIVrWTdIFgR3KcxuIoVfT2Dc3wi_acVhViVQGJBcGx_KxqWavSuFvzzXUDTqUqn_7h65lncZx9l0vaTw1Uhj6FsXRp3bsTVad-0X3qutmSRkHhACZG9-486_qcfwngyx8TvPNjDmNUUh4buFqsAvae9t3V7netL9EjxkPE6YxiBsJawIa0O3A5Yz5TpajUzvX2Lqc11MtILGT68AjfMttiRJPr9jLJr-mC9d0o7yEbzHT4SkR4FcquV_dhRvx-xP0U_dBP3xr4q1x_t-X0U3GOjft1U61LsVRdvmeO6BlYSnt0sj7Mz6YNVTpNy1m00]--></g></svg>