<?xml version="1.0" encoding="us-ascii" standalone="no"?><svg xmlns="http://www.w3.org/2000/svg" xmlns:xlink="http://www.w3.org/1999/xlink" contentStyleType="text/css" height="1017px" preserveAspectRatio="none" style="width:2591px;height:1017px;background:#FFFFFF;" version="1.1" viewBox="0 0 2591 1017" width="2591px" zoomAndPan="magnify"><defs/><g><text fill="#000000" font-family="sans-serif" font-size="14" font-weight="bold" lengthAdjust="spacing" textLength="340" x="1124.75" y="28.5352">Container Sequence Diagram (SD) - US250 (N3)</text><rect fill="#FFFFFF" height="59.9316" style="stroke:#181818;stroke-width:1.0;" width="10" x="464" y="150.2871"/><rect fill="#FFFFFF" height="678.8086" style="stroke:#181818;stroke-width:1.0;" width="10" x="464" y="239.5293"/><rect fill="#FFFFFF" height="589.5664" style="stroke:#181818;stroke-width:1.0;" width="10" x="887" y="299.4609"/><rect fill="#FFFFFF" height="500.3242" style="stroke:#181818;stroke-width:1.0;" width="10" x="1310" y="359.3926"/><rect fill="#FFFFFF" height="441.7031" style="stroke:#181818;stroke-width:1.0;" width="10" x="1733" y="388.7031"/><rect fill="#FFFFFF" height="383.082" style="stroke:#181818;stroke-width:1.0;" width="10" x="2156" y="418.0137"/><rect fill="#FFFFFF" height="236.4844" style="stroke:#181818;stroke-width:1.0;" width="10" x="2411" y="447.3242"/><rect fill="#FFFFFF" height="30" style="stroke:#181818;stroke-width:1.0;" width="10" x="2411" y="771.0957"/><rect fill="none" height="193.1738" style="stroke:#000000;stroke-width:1.5;" width="2478.5" x="10" y="462.3242"/><line style="stroke:#181818;stroke-width:0.5;stroke-dasharray:5.0,5.0;" x1="86" x2="86" y1="118.9766" y2="936.3379"/><line style="stroke:#181818;stroke-width:0.5;stroke-dasharray:5.0,5.0;" x1="468.5" x2="468.5" y1="118.9766" y2="936.3379"/><line style="stroke:#181818;stroke-width:0.5;stroke-dasharray:5.0,5.0;" x1="892" x2="892" y1="118.9766" y2="936.3379"/><line style="stroke:#181818;stroke-width:0.5;stroke-dasharray:5.0,5.0;" x1="1315" x2="1315" y1="118.9766" y2="936.3379"/><line style="stroke:#181818;stroke-width:0.5;stroke-dasharray:5.0,5.0;" x1="1738" x2="1738" y1="118.9766" y2="936.3379"/><line style="stroke:#181818;stroke-width:0.5;stroke-dasharray:5.0,5.0;" x1="2161" x2="2161" y1="118.9766" y2="936.3379"/><line style="stroke:#181818;stroke-width:0.5;stroke-dasharray:5.0,5.0;" x1="2415.5" x2="2415.5" y1="118.9766" y2="936.3379"/><line style="stroke:#181818;stroke-width:0.5;stroke-dasharray:5.0,5.0;" x1="2536.5" x2="2536.5" y1="730.7969" y2="936.3379"/><text fill="#000000" font-family="sans-serif" font-size="14" lengthAdjust="spacing" textLength="126" x="20" y="116.0234">Gestor de Campus</text><ellipse cx="86" cy="50.9883" fill="#E3E3E3" rx="8" ry="8" style="stroke:#181818;stroke-width:0.5;"/><path d="M86,58.9883 L86,85.9883 M73,66.9883 L99,66.9883 M86,85.9883 L73,100.9883 M86,85.9883 L99,100.9883 " fill="none" style="stroke:#181818;stroke-width:0.5;"/><text fill="#000000" font-family="sans-serif" font-size="14" lengthAdjust="spacing" textLength="126" x="20" y="948.873">Gestor de Campus</text><ellipse cx="86" cy="960.3262" fill="#E3E3E3" rx="8" ry="8" style="stroke:#181818;stroke-width:0.5;"/><path d="M86,968.3262 L86,995.3262 M73,976.3262 L99,976.3262 M86,995.3262 L73,1010.3262 M86,995.3262 L99,1010.3262 " fill="none" style="stroke:#181818;stroke-width:0.5;"/><rect fill="#E3E3E3" height="46.9766" rx="2.5" ry="2.5" style="stroke:#181818;stroke-width:0.5;" width="119" x="409.5" y="71"/><text fill="#000000" font-family="sans-serif" font-size="14" lengthAdjust="spacing" textLength="105" x="416.5" y="91.5352">&#171;C4:Container&#187;</text><text fill="#000000" font-family="sans-serif" font-size="14" lengthAdjust="spacing" textLength="89" x="424.5" y="108.0234">:Visualiza&#231;&#227;o</text><rect fill="#E3E3E3" height="46.9766" rx="2.5" ry="2.5" style="stroke:#181818;stroke-width:0.5;" width="119" x="409.5" y="935.3379"/><text fill="#000000" font-family="sans-serif" font-size="14" lengthAdjust="spacing" textLength="105" x="416.5" y="955.873">&#171;C4:Container&#187;</text><text fill="#000000" font-family="sans-serif" font-size="14" lengthAdjust="spacing" textLength="89" x="424.5" y="972.3613">:Visualiza&#231;&#227;o</text><rect fill="#E3E3E3" height="63.4648" rx="2.5" ry="2.5" style="stroke:#181818;stroke-width:0.5;" width="138" x="823" y="54.5117"/><text fill="#000000" font-family="sans-serif" font-size="14" lengthAdjust="spacing" textLength="105" x="839.5" y="75.0469">&#171;C4:Container&#187;</text><text fill="#000000" font-family="sans-serif" font-size="14" lengthAdjust="spacing" textLength="124" x="830" y="91.5352">M&#243;dulo de Gest&#227;o</text><text fill="#000000" font-family="sans-serif" font-size="14" lengthAdjust="spacing" textLength="99" x="842.5" y="108.0234">de Informa&#231;&#227;o</text><rect fill="#E3E3E3" height="63.4648" rx="2.5" ry="2.5" style="stroke:#181818;stroke-width:0.5;" width="138" x="823" y="935.3379"/><text fill="#000000" font-family="sans-serif" font-size="14" lengthAdjust="spacing" textLength="105" x="839.5" y="955.873">&#171;C4:Container&#187;</text><text fill="#000000" font-family="sans-serif" font-size="14" lengthAdjust="spacing" textLength="124" x="830" y="972.3613">M&#243;dulo de Gest&#227;o</text><text fill="#000000" font-family="sans-serif" font-size="14" lengthAdjust="spacing" textLength="99" x="842.5" y="988.8496">de Informa&#231;&#227;o</text><rect fill="#E3E3E3" height="30.4883" rx="2.5" ry="2.5" style="stroke:#181818;stroke-width:0.5;" width="130" x="1250" y="87.4883"/><text fill="#000000" font-family="sans-serif" font-size="14" lengthAdjust="spacing" textLength="116" x="1257" y="108.0234">connectionRoute</text><rect fill="#E3E3E3" height="30.4883" rx="2.5" ry="2.5" style="stroke:#181818;stroke-width:0.5;" width="130" x="1250" y="935.3379"/><text fill="#000000" font-family="sans-serif" font-size="14" lengthAdjust="spacing" textLength="116" x="1257" y="955.873">connectionRoute</text><rect fill="#E3E3E3" height="30.4883" rx="2.5" ry="2.5" style="stroke:#181818;stroke-width:0.5;" width="160" x="1658" y="87.4883"/><text fill="#000000" font-family="sans-serif" font-size="14" lengthAdjust="spacing" textLength="146" x="1665" y="108.0234">connectionController</text><rect fill="#E3E3E3" height="30.4883" rx="2.5" ry="2.5" style="stroke:#181818;stroke-width:0.5;" width="160" x="1658" y="935.3379"/><text fill="#000000" font-family="sans-serif" font-size="14" lengthAdjust="spacing" textLength="146" x="1665" y="955.873">connectionController</text><rect fill="#E3E3E3" height="30.4883" rx="2.5" ry="2.5" style="stroke:#181818;stroke-width:0.5;" width="138" x="2092" y="87.4883"/><text fill="#000000" font-family="sans-serif" font-size="14" lengthAdjust="spacing" textLength="124" x="2099" y="108.0234">connectionService</text><rect fill="#E3E3E3" height="30.4883" rx="2.5" ry="2.5" style="stroke:#181818;stroke-width:0.5;" width="138" x="2092" y="935.3379"/><text fill="#000000" font-family="sans-serif" font-size="14" lengthAdjust="spacing" textLength="124" x="2099" y="955.873">connectionService</text><rect fill="#E3E3E3" height="30.4883" rx="2.5" ry="2.5" style="stroke:#181818;stroke-width:0.5;" width="125" x="2353.5" y="87.4883"/><text fill="#000000" font-family="sans-serif" font-size="14" lengthAdjust="spacing" textLength="111" x="2360.5" y="108.0234">connectionRepo</text><rect fill="#E3E3E3" height="30.4883" rx="2.5" ry="2.5" style="stroke:#181818;stroke-width:0.5;" width="125" x="2353.5" y="935.3379"/><text fill="#000000" font-family="sans-serif" font-size="14" lengthAdjust="spacing" textLength="111" x="2360.5" y="955.873">connectionRepo</text><rect fill="#E3E3E3" height="46.9766" rx="2.5" ry="2.5" style="stroke:#181818;stroke-width:0.5;" width="97" x="2488.5" y="935.3379"/><text fill="#000000" font-family="sans-serif" font-size="14" lengthAdjust="spacing" textLength="76" x="2499" y="955.873">connection</text><text fill="#000000" font-family="sans-serif" font-size="14" lengthAdjust="spacing" textLength="83" x="2495.5" y="972.3613">:Connection</text><rect fill="#FFFFFF" height="59.9316" style="stroke:#181818;stroke-width:1.0;" width="10" x="464" y="150.2871"/><rect fill="#FFFFFF" height="678.8086" style="stroke:#181818;stroke-width:1.0;" width="10" x="464" y="239.5293"/><rect fill="#FFFFFF" height="589.5664" style="stroke:#181818;stroke-width:1.0;" width="10" x="887" y="299.4609"/><rect fill="#FFFFFF" height="500.3242" style="stroke:#181818;stroke-width:1.0;" width="10" x="1310" y="359.3926"/><rect fill="#FFFFFF" height="441.7031" style="stroke:#181818;stroke-width:1.0;" width="10" x="1733" y="388.7031"/><rect fill="#FFFFFF" height="383.082" style="stroke:#181818;stroke-width:1.0;" width="10" x="2156" y="418.0137"/><rect fill="#FFFFFF" height="236.4844" style="stroke:#181818;stroke-width:1.0;" width="10" x="2411" y="447.3242"/><rect fill="#FFFFFF" height="30" style="stroke:#181818;stroke-width:1.0;" width="10" x="2411" y="771.0957"/><polygon fill="#181818" points="452,146.2871,462,150.2871,452,154.2871,456,150.2871" style="stroke:#181818;stroke-width:1.0;"/><line style="stroke:#181818;stroke-width:1.0;" x1="86" x2="458" y1="150.2871" y2="150.2871"/><text fill="#000000" font-family="sans-serif" font-size="13" font-weight="bold" lengthAdjust="spacing" textLength="9" x="93" y="145.5449">1</text><text fill="#000000" font-family="sans-serif" font-size="13" lengthAdjust="spacing" textLength="346" x="106" y="145.5449">Inicia opera&#231;&#227;o de editar passagem entre dois edificios</text><polygon fill="#181818" points="97,206.2188,87,210.2188,97,214.2188,93,210.2188" style="stroke:#181818;stroke-width:1.0;"/><line style="stroke:#181818;stroke-width:1.0;stroke-dasharray:2.0,2.0;" x1="91" x2="468" y1="210.2188" y2="210.2188"/><text fill="#000000" font-family="sans-serif" font-size="13" font-weight="bold" lengthAdjust="spacing" textLength="9" x="103" y="190.166">2</text><text fill="#000000" font-family="sans-serif" font-size="13" lengthAdjust="spacing" textLength="260" x="116" y="174.8555">Solicita dados necess&#225;rios (connectionId,</text><text fill="#000000" font-family="sans-serif" font-size="13" lengthAdjust="spacing" textLength="326" x="116" y="190.166">buildingfromId, buildingtoId, floorfromId, floortoId,</text><text fill="#000000" font-family="sans-serif" font-size="13" lengthAdjust="spacing" textLength="130" x="120" y="205.4766">locationX, locationY)</text><polygon fill="#181818" points="452,235.5293,462,239.5293,452,243.5293,456,239.5293" style="stroke:#181818;stroke-width:1.0;"/><line style="stroke:#181818;stroke-width:1.0;" x1="86" x2="458" y1="239.5293" y2="239.5293"/><text fill="#000000" font-family="sans-serif" font-size="13" font-weight="bold" lengthAdjust="spacing" textLength="9" x="93" y="234.7871">3</text><text fill="#000000" font-family="sans-serif" font-size="13" lengthAdjust="spacing" textLength="168" x="106" y="234.7871">Introduz dados solicitados</text><polygon fill="#181818" points="875,295.4609,885,299.4609,875,303.4609,879,299.4609" style="stroke:#181818;stroke-width:1.0;"/><line style="stroke:#181818;stroke-width:1.0;" x1="474" x2="881" y1="299.4609" y2="299.4609"/><text fill="#000000" font-family="sans-serif" font-size="13" font-weight="bold" lengthAdjust="spacing" textLength="9" x="481" y="279.4082">4</text><text fill="#000000" font-family="sans-serif" font-size="13" lengthAdjust="spacing" textLength="213" x="494" y="264.0977">PUT /connections/ {connectionId,</text><text fill="#000000" font-family="sans-serif" font-size="13" lengthAdjust="spacing" textLength="326" x="494" y="279.4082">buildingfromId, buildingtoId, floorfromId, floortoId,</text><text fill="#000000" font-family="sans-serif" font-size="13" lengthAdjust="spacing" textLength="130" x="498" y="294.7188">locationX, locationY}</text><polygon fill="#181818" points="1298,355.3926,1308,359.3926,1298,363.3926,1302,359.3926" style="stroke:#181818;stroke-width:1.0;"/><line style="stroke:#181818;stroke-width:1.0;" x1="897" x2="1304" y1="359.3926" y2="359.3926"/><text fill="#000000" font-family="sans-serif" font-size="13" font-weight="bold" lengthAdjust="spacing" textLength="9" x="904" y="339.3398">5</text><text fill="#000000" font-family="sans-serif" font-size="13" lengthAdjust="spacing" textLength="213" x="917" y="324.0293">PUT /connections/ {connectionId,</text><text fill="#000000" font-family="sans-serif" font-size="13" lengthAdjust="spacing" textLength="326" x="917" y="339.3398">buildingfromId, buildingtoId, floorfromId, floortoId,</text><text fill="#000000" font-family="sans-serif" font-size="13" lengthAdjust="spacing" textLength="130" x="921" y="354.6504">locationX, locationY}</text><polygon fill="#181818" points="1721,384.7031,1731,388.7031,1721,392.7031,1725,388.7031" style="stroke:#181818;stroke-width:1.0;"/><line style="stroke:#181818;stroke-width:1.0;" x1="1320" x2="1727" y1="388.7031" y2="388.7031"/><text fill="#000000" font-family="sans-serif" font-size="13" font-weight="bold" lengthAdjust="spacing" textLength="9" x="1327" y="383.9609">6</text><text fill="#000000" font-family="sans-serif" font-size="13" lengthAdjust="spacing" textLength="170" x="1340" y="383.9609">updateConnection(req, res)</text><polygon fill="#181818" points="2144,414.0137,2154,418.0137,2144,422.0137,2148,418.0137" style="stroke:#181818;stroke-width:1.0;"/><line style="stroke:#181818;stroke-width:1.0;" x1="1743" x2="2150" y1="418.0137" y2="418.0137"/><text fill="#000000" font-family="sans-serif" font-size="13" font-weight="bold" lengthAdjust="spacing" textLength="9" x="1750" y="413.2715">7</text><text fill="#000000" font-family="sans-serif" font-size="13" lengthAdjust="spacing" textLength="170" x="1763" y="413.2715">updateConnection(req, res)</text><polygon fill="#181818" points="2399,443.3242,2409,447.3242,2399,451.3242,2403,447.3242" style="stroke:#181818;stroke-width:1.0;"/><line style="stroke:#181818;stroke-width:1.0;" x1="2166" x2="2405" y1="447.3242" y2="447.3242"/><text fill="#000000" font-family="sans-serif" font-size="13" font-weight="bold" lengthAdjust="spacing" textLength="9" x="2173" y="442.582">8</text><text fill="#000000" font-family="sans-serif" font-size="13" lengthAdjust="spacing" textLength="213" x="2186" y="442.582">findByConnectionId(connectionId)</text><path d="M10,462.3242 L72,462.3242 L72,469.6348 L62,479.6348 L10,479.6348 L10,462.3242 " fill="#EEEEEE" style="stroke:#000000;stroke-width:1.5;"/><rect fill="none" height="193.1738" style="stroke:#000000;stroke-width:1.5;" width="2478.5" x="10" y="462.3242"/><text fill="#000000" font-family="sans-serif" font-size="13" font-weight="bold" lengthAdjust="spacing" textLength="17" x="25" y="475.8926">alt</text><text fill="#000000" font-family="sans-serif" font-size="11" font-weight="bold" lengthAdjust="spacing" textLength="117" x="87" y="474.959">[connection == null]</text><polygon fill="#181818" points="2177,496.9453,2167,500.9453,2177,504.9453,2173,500.9453" style="stroke:#181818;stroke-width:1.0;"/><line style="stroke:#181818;stroke-width:1.0;stroke-dasharray:2.0,2.0;" x1="2171" x2="2410" y1="500.9453" y2="500.9453"/><text fill="#000000" font-family="sans-serif" font-size="13" font-weight="bold" lengthAdjust="spacing" textLength="9" x="2183" y="496.2031">9</text><text fill="#000000" font-family="sans-serif" font-size="13" lengthAdjust="spacing" textLength="70" x="2196" y="496.2031">connection</text><polygon fill="#181818" points="1754,526.2559,1744,530.2559,1754,534.2559,1750,530.2559" style="stroke:#181818;stroke-width:1.0;"/><line style="stroke:#181818;stroke-width:1.0;" x1="1748" x2="2155" y1="530.2559" y2="530.2559"/><text fill="#000000" font-family="sans-serif" font-size="13" font-weight="bold" lengthAdjust="spacing" textLength="18" x="1760" y="525.5137">10</text><text fill="#000000" font-family="sans-serif" font-size="13" lengthAdjust="spacing" textLength="367" x="1782" y="525.5137">res.status(404).send({ message: "Connection not found." })</text><polygon fill="#181818" points="1331,555.5664,1321,559.5664,1331,563.5664,1327,559.5664" style="stroke:#181818;stroke-width:1.0;"/><line style="stroke:#181818;stroke-width:1.0;stroke-dasharray:2.0,2.0;" x1="1325" x2="1732" y1="559.5664" y2="559.5664"/><text fill="#000000" font-family="sans-serif" font-size="13" font-weight="bold" lengthAdjust="spacing" textLength="18" x="1337" y="554.8242">11</text><text fill="#000000" font-family="sans-serif" font-size="13" lengthAdjust="spacing" textLength="367" x="1359" y="554.8242">res.status(404).send({ message: "Connection not found." })</text><polygon fill="#181818" points="908,584.877,898,588.877,908,592.877,904,588.877" style="stroke:#181818;stroke-width:1.0;"/><line style="stroke:#181818;stroke-width:1.0;stroke-dasharray:2.0,2.0;" x1="902" x2="1309" y1="588.877" y2="588.877"/><text fill="#000000" font-family="sans-serif" font-size="13" font-weight="bold" lengthAdjust="spacing" textLength="18" x="914" y="584.1348">12</text><text fill="#000000" font-family="sans-serif" font-size="13" lengthAdjust="spacing" textLength="367" x="936" y="584.1348">res.status(404).send({ message: "Connection not found." })</text><polygon fill="#181818" points="485,614.1875,475,618.1875,485,622.1875,481,618.1875" style="stroke:#181818;stroke-width:1.0;"/><line style="stroke:#181818;stroke-width:1.0;stroke-dasharray:2.0,2.0;" x1="479" x2="886" y1="618.1875" y2="618.1875"/><text fill="#000000" font-family="sans-serif" font-size="13" font-weight="bold" lengthAdjust="spacing" textLength="18" x="491" y="613.4453">13</text><text fill="#000000" font-family="sans-serif" font-size="13" lengthAdjust="spacing" textLength="367" x="513" y="613.4453">res.status(404).send({ message: "Connection not found." })</text><polygon fill="#181818" points="97,643.498,87,647.498,97,651.498,93,647.498" style="stroke:#181818;stroke-width:1.0;"/><line style="stroke:#181818;stroke-width:1.0;stroke-dasharray:2.0,2.0;" x1="91" x2="463" y1="647.498" y2="647.498"/><text fill="#000000" font-family="sans-serif" font-size="13" font-weight="bold" lengthAdjust="spacing" textLength="18" x="103" y="642.7559">14</text><text fill="#000000" font-family="sans-serif" font-size="13" lengthAdjust="spacing" textLength="163" x="125" y="642.7559">Mostra mensagem de erro</text><polygon fill="#181818" points="2177,679.8086,2167,683.8086,2177,687.8086,2173,683.8086" style="stroke:#181818;stroke-width:1.0;"/><line style="stroke:#181818;stroke-width:1.0;stroke-dasharray:2.0,2.0;" x1="2171" x2="2415" y1="683.8086" y2="683.8086"/><text fill="#000000" font-family="sans-serif" font-size="13" font-weight="bold" lengthAdjust="spacing" textLength="18" x="2183" y="679.0664">15</text><text fill="#000000" font-family="sans-serif" font-size="13" lengthAdjust="spacing" textLength="24" x="2205" y="679.0664">null</text><polygon fill="#181818" points="2476.5,709.1191,2486.5,713.1191,2476.5,717.1191,2480.5,713.1191" style="stroke:#181818;stroke-width:1.0;"/><line style="stroke:#181818;stroke-width:1.0;" x1="2166" x2="2482.5" y1="713.1191" y2="713.1191"/><text fill="#000000" font-family="sans-serif" font-size="13" font-weight="bold" lengthAdjust="spacing" textLength="18" x="2173" y="708.377">16</text><text fill="#000000" font-family="sans-serif" font-size="13" lengthAdjust="spacing" textLength="101" x="2195" y="708.377">create(req.body)</text><rect fill="#E3E3E3" height="46.9766" rx="2.5" ry="2.5" style="stroke:#181818;stroke-width:0.5;" width="97" x="2488.5" y="691.8086"/><text fill="#000000" font-family="sans-serif" font-size="14" lengthAdjust="spacing" textLength="76" x="2499" y="712.3438">connection</text><text fill="#000000" font-family="sans-serif" font-size="14" lengthAdjust="spacing" textLength="83" x="2495.5" y="728.832">:Connection</text><polygon fill="#181818" points="2399,767.0957,2409,771.0957,2399,775.0957,2403,771.0957" style="stroke:#181818;stroke-width:1.0;"/><line style="stroke:#181818;stroke-width:1.0;" x1="2166" x2="2405" y1="771.0957" y2="771.0957"/><text fill="#000000" font-family="sans-serif" font-size="13" font-weight="bold" lengthAdjust="spacing" textLength="18" x="2173" y="766.3535">17</text><text fill="#000000" font-family="sans-serif" font-size="13" lengthAdjust="spacing" textLength="121" x="2195" y="766.3535">update(connection)</text><polygon fill="#181818" points="1331,826.4063,1321,830.4063,1331,834.4063,1327,830.4063" style="stroke:#181818;stroke-width:1.0;"/><line style="stroke:#181818;stroke-width:1.0;stroke-dasharray:2.0,2.0;" x1="1325" x2="1737" y1="830.4063" y2="830.4063"/><text fill="#000000" font-family="sans-serif" font-size="13" font-weight="bold" lengthAdjust="spacing" textLength="18" x="1337" y="825.6641">18</text><text fill="#000000" font-family="sans-serif" font-size="13" lengthAdjust="spacing" textLength="120" x="1359" y="825.6641">200 OK connection</text><polygon fill="#181818" points="908,855.7168,898,859.7168,908,863.7168,904,859.7168" style="stroke:#181818;stroke-width:1.0;"/><line style="stroke:#181818;stroke-width:1.0;stroke-dasharray:2.0,2.0;" x1="902" x2="1314" y1="859.7168" y2="859.7168"/><text fill="#000000" font-family="sans-serif" font-size="13" font-weight="bold" lengthAdjust="spacing" textLength="18" x="914" y="854.9746">19</text><text fill="#000000" font-family="sans-serif" font-size="13" lengthAdjust="spacing" textLength="120" x="936" y="854.9746">200 OK connection</text><polygon fill="#181818" points="485,885.0273,475,889.0273,485,893.0273,481,889.0273" style="stroke:#181818;stroke-width:1.0;"/><line style="stroke:#181818;stroke-width:1.0;stroke-dasharray:2.0,2.0;" x1="479" x2="891" y1="889.0273" y2="889.0273"/><text fill="#000000" font-family="sans-serif" font-size="13" font-weight="bold" lengthAdjust="spacing" textLength="18" x="491" y="884.2852">20</text><text fill="#000000" font-family="sans-serif" font-size="13" lengthAdjust="spacing" textLength="120" x="513" y="884.2852">200 OK connection</text><polygon fill="#181818" points="97,914.3379,87,918.3379,97,922.3379,93,918.3379" style="stroke:#181818;stroke-width:1.0;"/><line style="stroke:#181818;stroke-width:1.0;stroke-dasharray:2.0,2.0;" x1="91" x2="468" y1="918.3379" y2="918.3379"/><text fill="#000000" font-family="sans-serif" font-size="13" font-weight="bold" lengthAdjust="spacing" textLength="18" x="103" y="913.5957">21</text><text fill="#000000" font-family="sans-serif" font-size="13" lengthAdjust="spacing" textLength="278" x="125" y="913.5957">Imprime passagem que acaba de ser editada</text><!--SRC=[lLRDRjim3BxhAGYVug99Wwwx66qFIu6X6BeDopfiG2wAHQT2PIdLJuUssCCCE-m1zWXviKbEQZk9cxbDkvCjIYI_Zo8fcaikfrJJ778bLNgXLOvWjKDYofqfJI_f18VsHY1eJ2sL4r4_O2ueKz-vd416XK52BBV-w419Ixb43KEySYXJX1DE9q6ZCpo9eGldm_tNVUYyVnKJGfrLqkLZrFu_jKf3z1PD-39lYkPJPo92rcNGFORey71ma9J-Zez7Cld2ZQE2tzBPxzal5ILmAddAAQWfwhai6476BTMUeZ6UOWuehKPWYfkmbNaDPG8SVaqjjl53Mfo1Ri2ynYI1eHBUewN0V40DI4pHcDbFxK509rNI2onNyfJjZkJOSS5yp3D_PLu0zskhmYeJIkdxhM9Ho4SIX4ffCF9rj_pz5XE6ZoAvtJrOhPYxNP0q2yxiHGBTYEbizeSvKTn_eE5FZgJ_FvMPqdc9y-FvPzYhWcxsuEu5h-07sSY-3MJoHBqGfOhP9-Ki_d_s9VaL96HblGmsSDLA2DG9k2dp-eDohwFnQjVtAnCt6QyqIPDmsSqGzJLFSQEF9YSBFR8cMGavJbK26PVipSsW5kIbacza4JG95ROcWgCZa4u8idogw3aDZ2hHlr3MO-qPzuobrfdEGVyWxXcKh7C7EHPjD86eeW5IMSYKawmNmO_uWMWtfU2pE5aapJQDO0iSJwx8jitqUR6rVgZEbB6QUZTo_co6brHhHOXttpBnYXojFJihITsOZ54bzM0hQj7EZizaZTvEgCZUMB6Rk5tLpIkwLcaFrzd3O1jtrej_Sy930llzFdnuLw_9HikDlMlhH6_lVzwONpotDw9vyXkvFhWSThij9vTyghcVZyjfqK-rG5Cwfi6SyTTQZ9ECFdQS-Wi0]--></g></svg>