<?xml version="1.0" encoding="us-ascii" standalone="no"?><svg xmlns="http://www.w3.org/2000/svg" xmlns:xlink="http://www.w3.org/1999/xlink" contentStyleType="text/css" height="825px" preserveAspectRatio="none" style="width:1055px;height:825px;background:#FFFFFF;" version="1.1" viewBox="0 0 1055 825" width="1055px" zoomAndPan="magnify"><defs/><g><text fill="#000000" font-family="sans-serif" font-size="14" font-weight="bold" lengthAdjust="spacing" textLength="349" x="354" y="28.5352">Container Sequence Diagram (SD) - US1050 (N3)</text><rect fill="#FFFFFF" height="606.5215" style="stroke:#181818;stroke-width:1.0;" width="10" x="66" y="128.9766"/><rect fill="#FFFFFF" height="262.7949" style="stroke:#181818;stroke-width:1.0;" width="10" x="331" y="150.2871"/><rect fill="#FFFFFF" height="284.1055" style="stroke:#181818;stroke-width:1.0;" width="10" x="331" y="442.3926"/><rect fill="#FFFFFF" height="204.1738" style="stroke:#181818;stroke-width:1.0;" width="10" x="489" y="179.5977"/><rect fill="#FFFFFF" height="225.4844" style="stroke:#181818;stroke-width:1.0;" width="10" x="489" y="471.7031"/><rect fill="#FFFFFF" height="145.5527" style="stroke:#181818;stroke-width:1.0;" width="10" x="647" y="208.9082"/><rect fill="#FFFFFF" height="166.8633" style="stroke:#181818;stroke-width:1.0;" width="10" x="647" y="501.0137"/><rect fill="#FFFFFF" height="86.9316" style="stroke:#181818;stroke-width:1.0;" width="10" x="805" y="238.2188"/><rect fill="#FFFFFF" height="97.5869" style="stroke:#181818;stroke-width:1.0;" width="10" x="805" y="530.3242"/><line style="stroke:#181818;stroke-width:0.5;stroke-dasharray:5.0,5.0;" x1="71" x2="71" y1="118.9766" y2="744.498"/><line style="stroke:#181818;stroke-width:0.5;stroke-dasharray:5.0,5.0;" x1="335.5" x2="335.5" y1="118.9766" y2="744.498"/><line style="stroke:#181818;stroke-width:0.5;stroke-dasharray:5.0,5.0;" x1="493.5" x2="493.5" y1="118.9766" y2="744.498"/><line style="stroke:#181818;stroke-width:0.5;stroke-dasharray:5.0,5.0;" x1="652" x2="652" y1="118.9766" y2="744.498"/><line style="stroke:#181818;stroke-width:0.5;stroke-dasharray:5.0,5.0;" x1="810" x2="810" y1="118.9766" y2="744.498"/><text fill="#000000" font-family="sans-serif" font-size="14" lengthAdjust="spacing" textLength="126" x="5" y="116.0234">Gestor de Campus</text><ellipse cx="71" cy="50.9883" fill="#E3E3E3" rx="8" ry="8" style="stroke:#181818;stroke-width:0.5;"/><path d="M71,58.9883 L71,85.9883 M58,66.9883 L84,66.9883 M71,85.9883 L58,100.9883 M71,85.9883 L84,100.9883 " fill="none" style="stroke:#181818;stroke-width:0.5;"/><text fill="#000000" font-family="sans-serif" font-size="14" lengthAdjust="spacing" textLength="126" x="5" y="757.0332">Gestor de Campus</text><ellipse cx="71" cy="768.4863" fill="#E3E3E3" rx="8" ry="8" style="stroke:#181818;stroke-width:0.5;"/><path d="M71,776.4863 L71,803.4863 M58,784.4863 L84,784.4863 M71,803.4863 L58,818.4863 M71,803.4863 L84,818.4863 " fill="none" style="stroke:#181818;stroke-width:0.5;"/><rect fill="#E3E3E3" height="46.9766" rx="2.5" ry="2.5" style="stroke:#181818;stroke-width:0.5;" width="119" x="276.5" y="71"/><text fill="#000000" font-family="sans-serif" font-size="14" lengthAdjust="spacing" textLength="105" x="283.5" y="91.5352">&#171;C4:Container&#187;</text><text fill="#000000" font-family="sans-serif" font-size="14" lengthAdjust="spacing" textLength="89" x="291.5" y="108.0234">:Visualiza&#231;&#227;o</text><rect fill="#E3E3E3" height="46.9766" rx="2.5" ry="2.5" style="stroke:#181818;stroke-width:0.5;" width="119" x="276.5" y="743.498"/><text fill="#000000" font-family="sans-serif" font-size="14" lengthAdjust="spacing" textLength="105" x="283.5" y="764.0332">&#171;C4:Container&#187;</text><text fill="#000000" font-family="sans-serif" font-size="14" lengthAdjust="spacing" textLength="89" x="291.5" y="780.5215">:Visualiza&#231;&#227;o</text><rect fill="#E3E3E3" height="30.4883" rx="2.5" ry="2.5" style="stroke:#181818;stroke-width:0.5;" width="95" x="446.5" y="87.4883"/><text fill="#000000" font-family="sans-serif" font-size="14" lengthAdjust="spacing" textLength="81" x="453.5" y="108.0234">Component</text><rect fill="#E3E3E3" height="30.4883" rx="2.5" ry="2.5" style="stroke:#181818;stroke-width:0.5;" width="95" x="446.5" y="743.498"/><text fill="#000000" font-family="sans-serif" font-size="14" lengthAdjust="spacing" textLength="81" x="453.5" y="764.0332">Component</text><rect fill="#E3E3E3" height="30.4883" rx="2.5" ry="2.5" style="stroke:#181818;stroke-width:0.5;" width="62" x="621" y="87.4883"/><text fill="#000000" font-family="sans-serif" font-size="14" lengthAdjust="spacing" textLength="48" x="628" y="108.0234">Service</text><rect fill="#E3E3E3" height="30.4883" rx="2.5" ry="2.5" style="stroke:#181818;stroke-width:0.5;" width="62" x="621" y="743.498"/><text fill="#000000" font-family="sans-serif" font-size="14" lengthAdjust="spacing" textLength="48" x="628" y="764.0332">Service</text><rect fill="#E3E3E3" height="63.4648" rx="2.5" ry="2.5" style="stroke:#181818;stroke-width:0.5;" width="138" x="741" y="54.5117"/><text fill="#000000" font-family="sans-serif" font-size="14" lengthAdjust="spacing" textLength="105" x="757.5" y="75.0469">&#171;C4:Container&#187;</text><text fill="#000000" font-family="sans-serif" font-size="14" lengthAdjust="spacing" textLength="124" x="748" y="91.5352">M&#243;dulo de Gest&#227;o</text><text fill="#000000" font-family="sans-serif" font-size="14" lengthAdjust="spacing" textLength="99" x="760.5" y="108.0234">de Informa&#231;&#227;o</text><rect fill="#E3E3E3" height="63.4648" rx="2.5" ry="2.5" style="stroke:#181818;stroke-width:0.5;" width="138" x="741" y="743.498"/><text fill="#000000" font-family="sans-serif" font-size="14" lengthAdjust="spacing" textLength="105" x="757.5" y="764.0332">&#171;C4:Container&#187;</text><text fill="#000000" font-family="sans-serif" font-size="14" lengthAdjust="spacing" textLength="124" x="748" y="780.5215">M&#243;dulo de Gest&#227;o</text><text fill="#000000" font-family="sans-serif" font-size="14" lengthAdjust="spacing" textLength="99" x="760.5" y="797.0098">de Informa&#231;&#227;o</text><rect fill="#FFFFFF" height="606.5215" style="stroke:#181818;stroke-width:1.0;" width="10" x="66" y="128.9766"/><rect fill="#FFFFFF" height="262.7949" style="stroke:#181818;stroke-width:1.0;" width="10" x="331" y="150.2871"/><rect fill="#FFFFFF" height="284.1055" style="stroke:#181818;stroke-width:1.0;" width="10" x="331" y="442.3926"/><rect fill="#FFFFFF" height="204.1738" style="stroke:#181818;stroke-width:1.0;" width="10" x="489" y="179.5977"/><rect fill="#FFFFFF" height="225.4844" style="stroke:#181818;stroke-width:1.0;" width="10" x="489" y="471.7031"/><rect fill="#FFFFFF" height="145.5527" style="stroke:#181818;stroke-width:1.0;" width="10" x="647" y="208.9082"/><rect fill="#FFFFFF" height="166.8633" style="stroke:#181818;stroke-width:1.0;" width="10" x="647" y="501.0137"/><rect fill="#FFFFFF" height="86.9316" style="stroke:#181818;stroke-width:1.0;" width="10" x="805" y="238.2188"/><rect fill="#FFFFFF" height="97.5869" style="stroke:#181818;stroke-width:1.0;" width="10" x="805" y="530.3242"/><polygon fill="#181818" points="319,146.2871,329,150.2871,319,154.2871,323,150.2871" style="stroke:#181818;stroke-width:1.0;"/><line style="stroke:#181818;stroke-width:1.0;" x1="76" x2="325" y1="150.2871" y2="150.2871"/><text fill="#000000" font-family="sans-serif" font-size="13" font-weight="bold" lengthAdjust="spacing" textLength="9" x="83" y="145.5449">1</text><text fill="#000000" font-family="sans-serif" font-size="13" lengthAdjust="spacing" textLength="197" x="96" y="145.5449">Inicia opera&#231;&#227;o de criar edificio</text><polygon fill="#181818" points="477,175.5977,487,179.5977,477,183.5977,481,179.5977" style="stroke:#181818;stroke-width:1.0;"/><line style="stroke:#181818;stroke-width:1.0;" x1="341" x2="483" y1="179.5977" y2="179.5977"/><text fill="#000000" font-family="sans-serif" font-size="13" font-weight="bold" lengthAdjust="spacing" textLength="9" x="348" y="174.8555">2</text><text fill="#000000" font-family="sans-serif" font-size="13" lengthAdjust="spacing" textLength="45" x="361" y="174.8555">ngInit()</text><polygon fill="#181818" points="635,204.9082,645,208.9082,635,212.9082,639,208.9082" style="stroke:#181818;stroke-width:1.0;"/><line style="stroke:#181818;stroke-width:1.0;" x1="499" x2="641" y1="208.9082" y2="208.9082"/><text fill="#000000" font-family="sans-serif" font-size="13" font-weight="bold" lengthAdjust="spacing" textLength="9" x="506" y="204.166">3</text><text fill="#000000" font-family="sans-serif" font-size="13" lengthAdjust="spacing" textLength="86" x="519" y="204.166">getBuildings()</text><polygon fill="#181818" points="793,234.2188,803,238.2188,793,242.2188,797,238.2188" style="stroke:#181818;stroke-width:1.0;"/><line style="stroke:#181818;stroke-width:1.0;" x1="657" x2="799" y1="238.2188" y2="238.2188"/><text fill="#000000" font-family="sans-serif" font-size="13" font-weight="bold" lengthAdjust="spacing" textLength="9" x="664" y="233.4766">4</text><text fill="#000000" font-family="sans-serif" font-size="13" lengthAdjust="spacing" textLength="86" x="677" y="233.4766">getBuildings()</text><line style="stroke:#181818;stroke-width:1.0;" x1="815" x2="857" y1="282.8398" y2="282.8398"/><line style="stroke:#181818;stroke-width:1.0;" x1="857" x2="857" y1="282.8398" y2="295.8398"/><line style="stroke:#181818;stroke-width:1.0;" x1="816" x2="857" y1="295.8398" y2="295.8398"/><polygon fill="#181818" points="826,291.8398,816,295.8398,826,299.8398,822,295.8398" style="stroke:#181818;stroke-width:1.0;"/><text fill="#000000" font-family="sans-serif" font-size="13" font-weight="bold" lengthAdjust="spacing" textLength="9" x="822" y="270.4424">5</text><text fill="#000000" font-family="sans-serif" font-size="13" lengthAdjust="spacing" textLength="137" x="835" y="262.7871">middleware.rolecheck</text><text fill="#000000" font-family="sans-serif" font-size="13" lengthAdjust="spacing" textLength="202" x="835" y="278.0977">("Admin" || "Gestor de Campus")</text><polygon fill="#181818" points="668,321.1504,658,325.1504,668,329.1504,664,325.1504" style="stroke:#181818;stroke-width:1.0;"/><line style="stroke:#181818;stroke-width:1.0;stroke-dasharray:2.0,2.0;" x1="662" x2="809" y1="325.1504" y2="325.1504"/><text fill="#000000" font-family="sans-serif" font-size="13" font-weight="bold" lengthAdjust="spacing" textLength="9" x="674" y="320.4082">6</text><text fill="#000000" font-family="sans-serif" font-size="13" lengthAdjust="spacing" textLength="107" x="687" y="320.4082">Lista de edif&#237;cios</text><polygon fill="#181818" points="510,350.4609,500,354.4609,510,358.4609,506,354.4609" style="stroke:#181818;stroke-width:1.0;"/><line style="stroke:#181818;stroke-width:1.0;stroke-dasharray:2.0,2.0;" x1="504" x2="651" y1="354.4609" y2="354.4609"/><text fill="#000000" font-family="sans-serif" font-size="13" font-weight="bold" lengthAdjust="spacing" textLength="9" x="516" y="349.7188">7</text><text fill="#000000" font-family="sans-serif" font-size="13" lengthAdjust="spacing" textLength="107" x="529" y="349.7188">Lista de edif&#237;cios</text><polygon fill="#181818" points="352,379.7715,342,383.7715,352,387.7715,348,383.7715" style="stroke:#181818;stroke-width:1.0;"/><line style="stroke:#181818;stroke-width:1.0;stroke-dasharray:2.0,2.0;" x1="346" x2="493" y1="383.7715" y2="383.7715"/><text fill="#000000" font-family="sans-serif" font-size="13" font-weight="bold" lengthAdjust="spacing" textLength="9" x="358" y="379.0293">8</text><text fill="#000000" font-family="sans-serif" font-size="13" lengthAdjust="spacing" textLength="59" x="371" y="379.0293">buildings</text><polygon fill="#181818" points="87,409.082,77,413.082,87,417.082,83,413.082" style="stroke:#181818;stroke-width:1.0;"/><line style="stroke:#181818;stroke-width:1.0;stroke-dasharray:2.0,2.0;" x1="81" x2="335" y1="413.082" y2="413.082"/><text fill="#000000" font-family="sans-serif" font-size="13" font-weight="bold" lengthAdjust="spacing" textLength="9" x="93" y="408.3398">9</text><text fill="#000000" font-family="sans-serif" font-size="13" lengthAdjust="spacing" textLength="218" x="106" y="408.3398">Solicita dados que pretende mudar</text><polygon fill="#181818" points="319,438.3926,329,442.3926,319,446.3926,323,442.3926" style="stroke:#181818;stroke-width:1.0;"/><line style="stroke:#181818;stroke-width:1.0;" x1="76" x2="325" y1="442.3926" y2="442.3926"/><text fill="#000000" font-family="sans-serif" font-size="13" font-weight="bold" lengthAdjust="spacing" textLength="18" x="83" y="437.6504">10</text><text fill="#000000" font-family="sans-serif" font-size="13" lengthAdjust="spacing" textLength="168" x="105" y="437.6504">Introduz dados solicitados</text><polygon fill="#181818" points="477,467.7031,487,471.7031,477,475.7031,481,471.7031" style="stroke:#181818;stroke-width:1.0;"/><line style="stroke:#181818;stroke-width:1.0;" x1="341" x2="483" y1="471.7031" y2="471.7031"/><text fill="#000000" font-family="sans-serif" font-size="13" font-weight="bold" lengthAdjust="spacing" textLength="18" x="348" y="466.9609">11</text><text fill="#000000" font-family="sans-serif" font-size="13" lengthAdjust="spacing" textLength="98" x="370" y="466.9609">create(building)</text><polygon fill="#181818" points="635,497.0137,645,501.0137,635,505.0137,639,501.0137" style="stroke:#181818;stroke-width:1.0;"/><line style="stroke:#181818;stroke-width:1.0;" x1="499" x2="641" y1="501.0137" y2="501.0137"/><text fill="#000000" font-family="sans-serif" font-size="13" font-weight="bold" lengthAdjust="spacing" textLength="18" x="506" y="496.2715">12</text><text fill="#000000" font-family="sans-serif" font-size="13" lengthAdjust="spacing" textLength="98" x="528" y="496.2715">create(building)</text><polygon fill="#181818" points="793,526.3242,803,530.3242,793,534.3242,797,530.3242" style="stroke:#181818;stroke-width:1.0;"/><line style="stroke:#181818;stroke-width:1.0;" x1="657" x2="799" y1="530.3242" y2="530.3242"/><text fill="#000000" font-family="sans-serif" font-size="13" font-weight="bold" lengthAdjust="spacing" textLength="18" x="664" y="525.582">13</text><text fill="#000000" font-family="sans-serif" font-size="13" lengthAdjust="spacing" textLength="98" x="686" y="525.582">create(building)</text><line style="stroke:#181818;stroke-width:1.0;" x1="815" x2="857" y1="574.9453" y2="574.9453"/><line style="stroke:#181818;stroke-width:1.0;" x1="857" x2="857" y1="574.9453" y2="587.9453"/><line style="stroke:#181818;stroke-width:1.0;" x1="816" x2="857" y1="587.9453" y2="587.9453"/><polygon fill="#181818" points="826,583.9453,816,587.9453,826,591.9453,822,587.9453" style="stroke:#181818;stroke-width:1.0;"/><text fill="#000000" font-family="sans-serif" font-size="13" font-weight="bold" lengthAdjust="spacing" textLength="18" x="822" y="562.5479">14</text><text fill="#000000" font-family="sans-serif" font-size="13" lengthAdjust="spacing" textLength="137" x="844" y="554.8926">middleware.rolecheck</text><text fill="#000000" font-family="sans-serif" font-size="13" lengthAdjust="spacing" textLength="202" x="844" y="570.2031">("Admin" || "Gestor de Campus")</text><polygon fill="#181818" points="668,623.9111,658,627.9111,668,631.9111,664,627.9111" style="stroke:#181818;stroke-width:1.0;"/><line style="stroke:#181818;stroke-width:1.0;stroke-dasharray:2.0,2.0;" x1="662" x2="809" y1="627.9111" y2="627.9111"/><text fill="#000000" font-family="sans-serif" font-size="13" font-weight="bold" lengthAdjust="spacing" textLength="18" x="674" y="623.1689">15</text><text fill="#000000" font-family="sans-serif" font-size="13" lengthAdjust="spacing" textLength="102" x="696" y="623.1689">201 OK building</text><path d="M820,600.9453 L820,640.9453 L1048,640.9453 L1048,610.9453 L1038,600.9453 L820,600.9453 " fill="#FAFAFA" style="stroke:#181818;stroke-width:0.5;"/><path d="M1038,600.9453 L1038,610.9453 L1048,610.9453 L1038,600.9453 " fill="#FAFAFA" style="stroke:#181818;stroke-width:0.5;"/><text fill="#000000" font-family="sans-serif" font-size="13" lengthAdjust="spacing" textLength="207" x="826" y="618.5137">M&#243;dulo de Gest&#227;o de Informa&#231;&#227;o</text><text fill="#000000" font-family="sans-serif" font-size="13" lengthAdjust="spacing" textLength="184" x="826" y="633.8242">&#233; a representa&#231;&#227;o do Sprint A</text><polygon fill="#181818" points="510,663.877,500,667.877,510,671.877,506,667.877" style="stroke:#181818;stroke-width:1.0;"/><line style="stroke:#181818;stroke-width:1.0;stroke-dasharray:2.0,2.0;" x1="504" x2="651" y1="667.877" y2="667.877"/><text fill="#000000" font-family="sans-serif" font-size="13" font-weight="bold" lengthAdjust="spacing" textLength="18" x="516" y="663.1348">16</text><text fill="#000000" font-family="sans-serif" font-size="13" lengthAdjust="spacing" textLength="102" x="538" y="663.1348">201 OK building</text><polygon fill="#181818" points="352,693.1875,342,697.1875,352,701.1875,348,697.1875" style="stroke:#181818;stroke-width:1.0;"/><line style="stroke:#181818;stroke-width:1.0;stroke-dasharray:2.0,2.0;" x1="346" x2="493" y1="697.1875" y2="697.1875"/><text fill="#000000" font-family="sans-serif" font-size="13" font-weight="bold" lengthAdjust="spacing" textLength="18" x="358" y="692.4453">17</text><text fill="#000000" font-family="sans-serif" font-size="13" lengthAdjust="spacing" textLength="102" x="380" y="692.4453">201 OK building</text><polygon fill="#181818" points="87,722.498,77,726.498,87,730.498,83,726.498" style="stroke:#181818;stroke-width:1.0;"/><line style="stroke:#181818;stroke-width:1.0;stroke-dasharray:2.0,2.0;" x1="81" x2="335" y1="726.498" y2="726.498"/><text fill="#000000" font-family="sans-serif" font-size="13" font-weight="bold" lengthAdjust="spacing" textLength="18" x="93" y="721.7559">18</text><text fill="#000000" font-family="sans-serif" font-size="13" lengthAdjust="spacing" textLength="141" x="115" y="721.7559">Mensagem de sucesso</text><!--SRC=[xLOzRzim4DtvAmwQxC65quz5C0oa3b04RTf1Q2Sl37cM2Okaoey43V9lEXGTElKd-8_rcDYoK3cnuxXR9n4wtjtZqxj7-OKoDNTSWxR6Yhcp6Y6uYCmtaPgB1I-n2Dyg18SYS5DMxGr-pgMzLgQ46QyyCXPKeAqJQm9N1XqK-3MY4GXdYfSferUSzM40dukJuPiXz3w-wZF6Ox0cwajqj1R1EiZUeKzFIRMuhgFFxYBgYWVS5ko-Wi4Oij5eyZflm8p7KvD_KJxoIjtmvO_bTvlbS6wKK1niZUx-NIeYdE8EKAeP1MshzUwAR8yz2Tp4wjeQD247KnA8qEjl-ZH1rgnIJe7kIWdCeSJmDgfA4lE-dRVQm5RF1qYuMFwMiRexQEAD44qDhS_Dp3gzXlXmamChCdOebCDFaODMKbPupHs-SBP2CKUnc9fUTYgrCXdStcwHK_zmf9kFH0H-K3xmb924jFn5Il9CuhDvR3vkMqMxswsrqLBKVZD2fI_NEcWNt8XqFysdRXskSoXiHKEMa9ENU22_WDfXm7Hm7ILtEpZh3E3pt20uA-FD2enVOQFrlpK1ubWufEgzDTLxky6ZgKSrX4wR_vxmD4_8uUNm13wzR-Q97SCFcB6KxLGvfxkacm5_9KpDyYTmkivfoZn9QNthMIXgfqXQfziTfWl-IERoIDcDye_0qnPR60q6-_d21HfFVq8w9Vieq7lxL5lw0m00]--></g></svg>