<?xml version="1.0" encoding="us-ascii" standalone="no"?><svg xmlns="http://www.w3.org/2000/svg" xmlns:xlink="http://www.w3.org/1999/xlink" contentStyleType="text/css" height="806px" preserveAspectRatio="none" style="width:1012px;height:806px;background:#FFFFFF;" version="1.1" viewBox="0 0 1012 806" width="1012px" zoomAndPan="magnify"><defs/><g><text fill="#000000" font-family="sans-serif" font-size="14" font-weight="bold" lengthAdjust="spacing" textLength="349" x="330.5" y="28.5352">Container Sequence Diagram (SD) - US1090 (N3)</text><rect fill="#FFFFFF" height="587.2109" style="stroke:#181818;stroke-width:1.0;" width="10" x="66" y="128.9766"/><rect fill="#FFFFFF" height="322.416" style="stroke:#181818;stroke-width:1.0;" width="10" x="355" y="150.2871"/><rect fill="#FFFFFF" height="205.1738" style="stroke:#181818;stroke-width:1.0;" width="10" x="355" y="502.0137"/><rect fill="#FFFFFF" height="263.7949" style="stroke:#181818;stroke-width:1.0;" width="10" x="515" y="179.5977"/><rect fill="#FFFFFF" height="146.5527" style="stroke:#181818;stroke-width:1.0;" width="10" x="515" y="531.3242"/><rect fill="#FFFFFF" height="87.9316" style="stroke:#181818;stroke-width:1.0;" width="10" x="728" y="208.9082"/><rect fill="#FFFFFF" height="87.9316" style="stroke:#181818;stroke-width:1.0;" width="10" x="728" y="326.1504"/><rect fill="#FFFFFF" height="87.9316" style="stroke:#181818;stroke-width:1.0;" width="10" x="728" y="560.6348"/><rect fill="#FFFFFF" height="29.3105" style="stroke:#181818;stroke-width:1.0;" width="10" x="932" y="238.2188"/><rect fill="#FFFFFF" height="29.3105" style="stroke:#181818;stroke-width:1.0;" width="10" x="932" y="355.4609"/><rect fill="#FFFFFF" height="29.3105" style="stroke:#181818;stroke-width:1.0;" width="10" x="932" y="589.9453"/><line style="stroke:#181818;stroke-width:0.5;stroke-dasharray:5.0,5.0;" x1="71" x2="71" y1="118.9766" y2="725.1875"/><line style="stroke:#181818;stroke-width:0.5;stroke-dasharray:5.0,5.0;" x1="359.5" x2="359.5" y1="118.9766" y2="725.1875"/><line style="stroke:#181818;stroke-width:0.5;stroke-dasharray:5.0,5.0;" x1="519.5" x2="519.5" y1="118.9766" y2="725.1875"/><line style="stroke:#181818;stroke-width:0.5;stroke-dasharray:5.0,5.0;" x1="733" x2="733" y1="118.9766" y2="725.1875"/><line style="stroke:#181818;stroke-width:0.5;stroke-dasharray:5.0,5.0;" x1="937" x2="937" y1="118.9766" y2="725.1875"/><text fill="#000000" font-family="sans-serif" font-size="14" lengthAdjust="spacing" textLength="126" x="5" y="116.0234">Gestor de Campus</text><ellipse cx="71" cy="50.9883" fill="#E3E3E3" rx="8" ry="8" style="stroke:#181818;stroke-width:0.5;"/><path d="M71,58.9883 L71,85.9883 M58,66.9883 L84,66.9883 M71,85.9883 L58,100.9883 M71,85.9883 L84,100.9883 " fill="none" style="stroke:#181818;stroke-width:0.5;"/><text fill="#000000" font-family="sans-serif" font-size="14" lengthAdjust="spacing" textLength="126" x="5" y="737.7227">Gestor de Campus</text><ellipse cx="71" cy="749.1758" fill="#E3E3E3" rx="8" ry="8" style="stroke:#181818;stroke-width:0.5;"/><path d="M71,757.1758 L71,784.1758 M58,765.1758 L84,765.1758 M71,784.1758 L58,799.1758 M71,784.1758 L84,799.1758 " fill="none" style="stroke:#181818;stroke-width:0.5;"/><rect fill="#E3E3E3" height="46.9766" rx="2.5" ry="2.5" style="stroke:#181818;stroke-width:0.5;" width="119" x="300.5" y="71"/><text fill="#000000" font-family="sans-serif" font-size="14" lengthAdjust="spacing" textLength="105" x="307.5" y="91.5352">&#171;C4:Container&#187;</text><text fill="#000000" font-family="sans-serif" font-size="14" lengthAdjust="spacing" textLength="89" x="315.5" y="108.0234">:Visualiza&#231;&#227;o</text><rect fill="#E3E3E3" height="46.9766" rx="2.5" ry="2.5" style="stroke:#181818;stroke-width:0.5;" width="119" x="300.5" y="724.1875"/><text fill="#000000" font-family="sans-serif" font-size="14" lengthAdjust="spacing" textLength="105" x="307.5" y="744.7227">&#171;C4:Container&#187;</text><text fill="#000000" font-family="sans-serif" font-size="14" lengthAdjust="spacing" textLength="89" x="315.5" y="761.2109">:Visualiza&#231;&#227;o</text><rect fill="#E3E3E3" height="30.4883" rx="2.5" ry="2.5" style="stroke:#181818;stroke-width:0.5;" width="95" x="472.5" y="87.4883"/><text fill="#000000" font-family="sans-serif" font-size="14" lengthAdjust="spacing" textLength="81" x="479.5" y="108.0234">Component</text><rect fill="#E3E3E3" height="30.4883" rx="2.5" ry="2.5" style="stroke:#181818;stroke-width:0.5;" width="95" x="472.5" y="724.1875"/><text fill="#000000" font-family="sans-serif" font-size="14" lengthAdjust="spacing" textLength="81" x="479.5" y="744.7227">Component</text><rect fill="#E3E3E3" height="30.4883" rx="2.5" ry="2.5" style="stroke:#181818;stroke-width:0.5;" width="62" x="702" y="87.4883"/><text fill="#000000" font-family="sans-serif" font-size="14" lengthAdjust="spacing" textLength="48" x="709" y="108.0234">Service</text><rect fill="#E3E3E3" height="30.4883" rx="2.5" ry="2.5" style="stroke:#181818;stroke-width:0.5;" width="62" x="702" y="724.1875"/><text fill="#000000" font-family="sans-serif" font-size="14" lengthAdjust="spacing" textLength="48" x="709" y="744.7227">Service</text><rect fill="#E3E3E3" height="63.4648" rx="2.5" ry="2.5" style="stroke:#181818;stroke-width:0.5;" width="138" x="868" y="54.5117"/><text fill="#000000" font-family="sans-serif" font-size="14" lengthAdjust="spacing" textLength="105" x="884.5" y="75.0469">&#171;C4:Container&#187;</text><text fill="#000000" font-family="sans-serif" font-size="14" lengthAdjust="spacing" textLength="124" x="875" y="91.5352">M&#243;dulo de Gest&#227;o</text><text fill="#000000" font-family="sans-serif" font-size="14" lengthAdjust="spacing" textLength="99" x="887.5" y="108.0234">de Informa&#231;&#227;o</text><rect fill="#E3E3E3" height="63.4648" rx="2.5" ry="2.5" style="stroke:#181818;stroke-width:0.5;" width="138" x="868" y="724.1875"/><text fill="#000000" font-family="sans-serif" font-size="14" lengthAdjust="spacing" textLength="105" x="884.5" y="744.7227">&#171;C4:Container&#187;</text><text fill="#000000" font-family="sans-serif" font-size="14" lengthAdjust="spacing" textLength="124" x="875" y="761.2109">M&#243;dulo de Gest&#227;o</text><text fill="#000000" font-family="sans-serif" font-size="14" lengthAdjust="spacing" textLength="99" x="887.5" y="777.6992">de Informa&#231;&#227;o</text><rect fill="#FFFFFF" height="587.2109" style="stroke:#181818;stroke-width:1.0;" width="10" x="66" y="128.9766"/><rect fill="#FFFFFF" height="322.416" style="stroke:#181818;stroke-width:1.0;" width="10" x="355" y="150.2871"/><rect fill="#FFFFFF" height="205.1738" style="stroke:#181818;stroke-width:1.0;" width="10" x="355" y="502.0137"/><rect fill="#FFFFFF" height="263.7949" style="stroke:#181818;stroke-width:1.0;" width="10" x="515" y="179.5977"/><rect fill="#FFFFFF" height="146.5527" style="stroke:#181818;stroke-width:1.0;" width="10" x="515" y="531.3242"/><rect fill="#FFFFFF" height="87.9316" style="stroke:#181818;stroke-width:1.0;" width="10" x="728" y="208.9082"/><rect fill="#FFFFFF" height="87.9316" style="stroke:#181818;stroke-width:1.0;" width="10" x="728" y="326.1504"/><rect fill="#FFFFFF" height="87.9316" style="stroke:#181818;stroke-width:1.0;" width="10" x="728" y="560.6348"/><rect fill="#FFFFFF" height="29.3105" style="stroke:#181818;stroke-width:1.0;" width="10" x="932" y="238.2188"/><rect fill="#FFFFFF" height="29.3105" style="stroke:#181818;stroke-width:1.0;" width="10" x="932" y="355.4609"/><rect fill="#FFFFFF" height="29.3105" style="stroke:#181818;stroke-width:1.0;" width="10" x="932" y="589.9453"/><polygon fill="#181818" points="343,146.2871,353,150.2871,343,154.2871,347,150.2871" style="stroke:#181818;stroke-width:1.0;"/><line style="stroke:#181818;stroke-width:1.0;" x1="76" x2="349" y1="150.2871" y2="150.2871"/><text fill="#000000" font-family="sans-serif" font-size="13" font-weight="bold" lengthAdjust="spacing" textLength="9" x="83" y="145.5449">1</text><text fill="#000000" font-family="sans-serif" font-size="13" lengthAdjust="spacing" textLength="247" x="96" y="145.5449">Inicia opera&#231;&#227;o de criar piso de edificio</text><polygon fill="#181818" points="503,175.5977,513,179.5977,503,183.5977,507,179.5977" style="stroke:#181818;stroke-width:1.0;"/><line style="stroke:#181818;stroke-width:1.0;" x1="365" x2="509" y1="179.5977" y2="179.5977"/><text fill="#000000" font-family="sans-serif" font-size="13" font-weight="bold" lengthAdjust="spacing" textLength="9" x="372" y="174.8555">2</text><text fill="#000000" font-family="sans-serif" font-size="13" lengthAdjust="spacing" textLength="45" x="385" y="174.8555">ngInit()</text><polygon fill="#181818" points="716,204.9082,726,208.9082,716,212.9082,720,208.9082" style="stroke:#181818;stroke-width:1.0;"/><line style="stroke:#181818;stroke-width:1.0;" x1="525" x2="722" y1="208.9082" y2="208.9082"/><text fill="#000000" font-family="sans-serif" font-size="13" font-weight="bold" lengthAdjust="spacing" textLength="9" x="532" y="204.166">3</text><text fill="#000000" font-family="sans-serif" font-size="13" lengthAdjust="spacing" textLength="86" x="545" y="204.166">getBuildings()</text><polygon fill="#181818" points="920,234.2188,930,238.2188,920,242.2188,924,238.2188" style="stroke:#181818;stroke-width:1.0;"/><line style="stroke:#181818;stroke-width:1.0;" x1="738" x2="926" y1="238.2188" y2="238.2188"/><text fill="#000000" font-family="sans-serif" font-size="13" font-weight="bold" lengthAdjust="spacing" textLength="9" x="745" y="233.4766">4</text><text fill="#000000" font-family="sans-serif" font-size="13" lengthAdjust="spacing" textLength="86" x="758" y="233.4766">getBuildings()</text><polygon fill="#181818" points="749,263.5293,739,267.5293,749,271.5293,745,267.5293" style="stroke:#181818;stroke-width:1.0;"/><line style="stroke:#181818;stroke-width:1.0;stroke-dasharray:2.0,2.0;" x1="743" x2="936" y1="267.5293" y2="267.5293"/><text fill="#000000" font-family="sans-serif" font-size="13" font-weight="bold" lengthAdjust="spacing" textLength="9" x="755" y="262.7871">5</text><text fill="#000000" font-family="sans-serif" font-size="13" lengthAdjust="spacing" textLength="107" x="768" y="262.7871">Lista de edificios</text><polygon fill="#181818" points="536,292.8398,526,296.8398,536,300.8398,532,296.8398" style="stroke:#181818;stroke-width:1.0;"/><line style="stroke:#181818;stroke-width:1.0;stroke-dasharray:2.0,2.0;" x1="530" x2="732" y1="296.8398" y2="296.8398"/><text fill="#000000" font-family="sans-serif" font-size="13" font-weight="bold" lengthAdjust="spacing" textLength="9" x="542" y="292.0977">6</text><text fill="#000000" font-family="sans-serif" font-size="13" lengthAdjust="spacing" textLength="107" x="555" y="292.0977">Lista de edificios</text><polygon fill="#181818" points="716,322.1504,726,326.1504,716,330.1504,720,326.1504" style="stroke:#181818;stroke-width:1.0;"/><line style="stroke:#181818;stroke-width:1.0;" x1="525" x2="722" y1="326.1504" y2="326.1504"/><text fill="#000000" font-family="sans-serif" font-size="13" font-weight="bold" lengthAdjust="spacing" textLength="9" x="532" y="321.4082">7</text><text fill="#000000" font-family="sans-serif" font-size="13" lengthAdjust="spacing" textLength="67" x="545" y="321.4082">getFloors()</text><polygon fill="#181818" points="920,351.4609,930,355.4609,920,359.4609,924,355.4609" style="stroke:#181818;stroke-width:1.0;"/><line style="stroke:#181818;stroke-width:1.0;" x1="738" x2="926" y1="355.4609" y2="355.4609"/><text fill="#000000" font-family="sans-serif" font-size="13" font-weight="bold" lengthAdjust="spacing" textLength="9" x="745" y="350.7188">8</text><text fill="#000000" font-family="sans-serif" font-size="13" lengthAdjust="spacing" textLength="67" x="758" y="350.7188">getFloors()</text><polygon fill="#181818" points="749,380.7715,739,384.7715,749,388.7715,745,384.7715" style="stroke:#181818;stroke-width:1.0;"/><line style="stroke:#181818;stroke-width:1.0;stroke-dasharray:2.0,2.0;" x1="743" x2="936" y1="384.7715" y2="384.7715"/><text fill="#000000" font-family="sans-serif" font-size="13" font-weight="bold" lengthAdjust="spacing" textLength="9" x="755" y="380.0293">9</text><text fill="#000000" font-family="sans-serif" font-size="13" lengthAdjust="spacing" textLength="157" x="768" y="380.0293">Lista de pisos de edificio</text><polygon fill="#181818" points="536,410.082,526,414.082,536,418.082,532,414.082" style="stroke:#181818;stroke-width:1.0;"/><line style="stroke:#181818;stroke-width:1.0;stroke-dasharray:2.0,2.0;" x1="530" x2="732" y1="414.082" y2="414.082"/><text fill="#000000" font-family="sans-serif" font-size="13" font-weight="bold" lengthAdjust="spacing" textLength="18" x="542" y="409.3398">10</text><text fill="#000000" font-family="sans-serif" font-size="13" lengthAdjust="spacing" textLength="157" x="564" y="409.3398">Lista de pisos de edificio</text><polygon fill="#181818" points="376,439.3926,366,443.3926,376,447.3926,372,443.3926" style="stroke:#181818;stroke-width:1.0;"/><line style="stroke:#181818;stroke-width:1.0;stroke-dasharray:2.0,2.0;" x1="370" x2="519" y1="443.3926" y2="443.3926"/><text fill="#000000" font-family="sans-serif" font-size="13" font-weight="bold" lengthAdjust="spacing" textLength="18" x="382" y="438.6504">11</text><text fill="#000000" font-family="sans-serif" font-size="13" lengthAdjust="spacing" textLength="104" x="404" y="438.6504">buildings, floors</text><polygon fill="#181818" points="87,468.7031,77,472.7031,87,476.7031,83,472.7031" style="stroke:#181818;stroke-width:1.0;"/><line style="stroke:#181818;stroke-width:1.0;stroke-dasharray:2.0,2.0;" x1="81" x2="359" y1="472.7031" y2="472.7031"/><text fill="#000000" font-family="sans-serif" font-size="13" font-weight="bold" lengthAdjust="spacing" textLength="18" x="93" y="467.9609">12</text><text fill="#000000" font-family="sans-serif" font-size="13" lengthAdjust="spacing" textLength="218" x="115" y="467.9609">Solicita dados que pretende mudar</text><polygon fill="#181818" points="343,498.0137,353,502.0137,343,506.0137,347,502.0137" style="stroke:#181818;stroke-width:1.0;"/><line style="stroke:#181818;stroke-width:1.0;" x1="76" x2="349" y1="502.0137" y2="502.0137"/><text fill="#000000" font-family="sans-serif" font-size="13" font-weight="bold" lengthAdjust="spacing" textLength="18" x="83" y="497.2715">13</text><text fill="#000000" font-family="sans-serif" font-size="13" lengthAdjust="spacing" textLength="168" x="105" y="497.2715">Introduz dados solicitados</text><polygon fill="#181818" points="503,527.3242,513,531.3242,503,535.3242,507,531.3242" style="stroke:#181818;stroke-width:1.0;"/><line style="stroke:#181818;stroke-width:1.0;" x1="365" x2="509" y1="531.3242" y2="531.3242"/><text fill="#000000" font-family="sans-serif" font-size="13" font-weight="bold" lengthAdjust="spacing" textLength="18" x="372" y="526.582">14</text><text fill="#000000" font-family="sans-serif" font-size="13" lengthAdjust="spacing" textLength="76" x="394" y="526.582">create(floor)</text><polygon fill="#181818" points="716,556.6348,726,560.6348,716,564.6348,720,560.6348" style="stroke:#181818;stroke-width:1.0;"/><line style="stroke:#181818;stroke-width:1.0;" x1="525" x2="722" y1="560.6348" y2="560.6348"/><text fill="#000000" font-family="sans-serif" font-size="13" font-weight="bold" lengthAdjust="spacing" textLength="18" x="532" y="555.8926">15</text><text fill="#000000" font-family="sans-serif" font-size="13" lengthAdjust="spacing" textLength="76" x="554" y="555.8926">create(floor)</text><polygon fill="#181818" points="920,585.9453,930,589.9453,920,593.9453,924,589.9453" style="stroke:#181818;stroke-width:1.0;"/><line style="stroke:#181818;stroke-width:1.0;" x1="738" x2="926" y1="589.9453" y2="589.9453"/><text fill="#000000" font-family="sans-serif" font-size="13" font-weight="bold" lengthAdjust="spacing" textLength="18" x="745" y="585.2031">16</text><text fill="#000000" font-family="sans-serif" font-size="13" lengthAdjust="spacing" textLength="76" x="767" y="585.2031">create(floor)</text><polygon fill="#181818" points="749,615.2559,739,619.2559,749,623.2559,745,619.2559" style="stroke:#181818;stroke-width:1.0;"/><line style="stroke:#181818;stroke-width:1.0;stroke-dasharray:2.0,2.0;" x1="743" x2="936" y1="619.2559" y2="619.2559"/><text fill="#000000" font-family="sans-serif" font-size="13" font-weight="bold" lengthAdjust="spacing" textLength="18" x="755" y="614.5137">17</text><text fill="#000000" font-family="sans-serif" font-size="13" lengthAdjust="spacing" textLength="80" x="777" y="614.5137">201 OK floor</text><polygon fill="#181818" points="536,644.5664,526,648.5664,536,652.5664,532,648.5664" style="stroke:#181818;stroke-width:1.0;"/><line style="stroke:#181818;stroke-width:1.0;stroke-dasharray:2.0,2.0;" x1="530" x2="732" y1="648.5664" y2="648.5664"/><text fill="#000000" font-family="sans-serif" font-size="13" font-weight="bold" lengthAdjust="spacing" textLength="18" x="542" y="643.8242">18</text><text fill="#000000" font-family="sans-serif" font-size="13" lengthAdjust="spacing" textLength="80" x="564" y="643.8242">201 OK floor</text><polygon fill="#181818" points="376,673.877,366,677.877,376,681.877,372,677.877" style="stroke:#181818;stroke-width:1.0;"/><line style="stroke:#181818;stroke-width:1.0;stroke-dasharray:2.0,2.0;" x1="370" x2="519" y1="677.877" y2="677.877"/><text fill="#000000" font-family="sans-serif" font-size="13" font-weight="bold" lengthAdjust="spacing" textLength="18" x="382" y="673.1348">19</text><text fill="#000000" font-family="sans-serif" font-size="13" lengthAdjust="spacing" textLength="80" x="404" y="673.1348">201 OK floor</text><polygon fill="#181818" points="87,703.1875,77,707.1875,87,711.1875,83,707.1875" style="stroke:#181818;stroke-width:1.0;"/><line style="stroke:#181818;stroke-width:1.0;stroke-dasharray:2.0,2.0;" x1="81" x2="359" y1="707.1875" y2="707.1875"/><text fill="#000000" font-family="sans-serif" font-size="13" font-weight="bold" lengthAdjust="spacing" textLength="18" x="93" y="702.4453">20</text><text fill="#000000" font-family="sans-serif" font-size="13" lengthAdjust="spacing" textLength="141" x="115" y="702.4453">Mensagem de sucesso</text><!--SRC=[pLPBRjim4Dtp50ElRA02dAQR2eONST0YIDCkX7QL3KED5I8YH-KdHNETBdg07i4NAwdOiX9RiPhOHLQYo9bvZs_q1h8tKbVSS0MAD8bhGmh16O_CDYSL5pUymCpzB14C2iTrKRO3x3NFwOVK1SnvQP4n9rq8dP5sN6eqaE5tZreWd4fUn8nXTZg21BvcH-FtOnX-FXunnhqZxTKLch0MZWmCFgADpppKughoTb2Vo5lkSDlXvXOaKnXC9hDtQKDcEhtKwJTfFI_b7L_yNloYGGfdMWh9WIeqztknY32I6wYahTymb_CGH2qAkokp7Z6Hv8nKHHgrIq4NWOmRZjOupI5hLZ4dGtCh1QPGe3lniin31smxRnd0biyECIuMVt9VrbUC-WL6bpgip_ISZ5fHx0PvPaNsN2R9-kQ1rITf7Mztnx8SNyoj4QpTcPreAxaxc_IX9387xT0cmYjfJpIHVU2Y_z6c9r6tjAlVj0W8Loidl85vBNcxyDgk_TmVKJScLmePbO5ol4YOhXR218NAeCEeW_8vDpiat1X5BvkFpb3kxvPax99RM1zs70QjXS5GVLZht7ieTkVjrN8FCLw5wr9uEpw2B-Vt7oOxcCyUuUp9M5qrrztUmtss-62I9FsCS87QXfyX5PEj5sWj_QiF_m80]--></g></svg>