<?xml version="1.0" encoding="us-ascii" standalone="no"?><svg xmlns="http://www.w3.org/2000/svg" xmlns:xlink="http://www.w3.org/1999/xlink" contentStyleType="text/css" height="1000px" preserveAspectRatio="none" style="width:1191px;height:1000px;background:#FFFFFF;" version="1.1" viewBox="0 0 1191 1000" width="1191px" zoomAndPan="magnify"><defs/><g><text fill="#000000" font-family="sans-serif" font-size="14" font-weight="bold" lengthAdjust="spacing" textLength="349" x="422" y="28.5352">Container Sequence Diagram (SD) - US1090 (N3)</text><rect fill="#FFFFFF" height="781.3848" style="stroke:#181818;stroke-width:1.0;" width="10" x="66" y="128.9766"/><rect fill="#FFFFFF" height="437.6582" style="stroke:#181818;stroke-width:1.0;" width="10" x="355" y="150.2871"/><rect fill="#FFFFFF" height="284.1055" style="stroke:#181818;stroke-width:1.0;" width="10" x="355" y="617.2559"/><rect fill="#FFFFFF" height="379.0371" style="stroke:#181818;stroke-width:1.0;" width="10" x="515" y="179.5977"/><rect fill="#FFFFFF" height="225.4844" style="stroke:#181818;stroke-width:1.0;" width="10" x="515" y="646.5664"/><rect fill="#FFFFFF" height="145.5527" style="stroke:#181818;stroke-width:1.0;" width="10" x="728" y="208.9082"/><rect fill="#FFFFFF" height="145.5527" style="stroke:#181818;stroke-width:1.0;" width="10" x="728" y="383.7715"/><rect fill="#FFFFFF" height="166.8633" style="stroke:#181818;stroke-width:1.0;" width="10" x="728" y="675.877"/><rect fill="#FFFFFF" height="86.9316" style="stroke:#181818;stroke-width:1.0;" width="10" x="941" y="238.2188"/><rect fill="#FFFFFF" height="86.9316" style="stroke:#181818;stroke-width:1.0;" width="10" x="941" y="413.082"/><rect fill="#FFFFFF" height="97.5869" style="stroke:#181818;stroke-width:1.0;" width="10" x="941" y="705.1875"/><line style="stroke:#181818;stroke-width:0.5;stroke-dasharray:5.0,5.0;" x1="71" x2="71" y1="118.9766" y2="919.3613"/><line style="stroke:#181818;stroke-width:0.5;stroke-dasharray:5.0,5.0;" x1="359.5" x2="359.5" y1="118.9766" y2="919.3613"/><line style="stroke:#181818;stroke-width:0.5;stroke-dasharray:5.0,5.0;" x1="519.5" x2="519.5" y1="118.9766" y2="919.3613"/><line style="stroke:#181818;stroke-width:0.5;stroke-dasharray:5.0,5.0;" x1="733" x2="733" y1="118.9766" y2="919.3613"/><line style="stroke:#181818;stroke-width:0.5;stroke-dasharray:5.0,5.0;" x1="946" x2="946" y1="118.9766" y2="919.3613"/><text fill="#000000" font-family="sans-serif" font-size="14" lengthAdjust="spacing" textLength="126" x="5" y="116.0234">Gestor de Campus</text><ellipse cx="71" cy="50.9883" fill="#E3E3E3" rx="8" ry="8" style="stroke:#181818;stroke-width:0.5;"/><path d="M71,58.9883 L71,85.9883 M58,66.9883 L84,66.9883 M71,85.9883 L58,100.9883 M71,85.9883 L84,100.9883 " fill="none" style="stroke:#181818;stroke-width:0.5;"/><text fill="#000000" font-family="sans-serif" font-size="14" lengthAdjust="spacing" textLength="126" x="5" y="931.8965">Gestor de Campus</text><ellipse cx="71" cy="943.3496" fill="#E3E3E3" rx="8" ry="8" style="stroke:#181818;stroke-width:0.5;"/><path d="M71,951.3496 L71,978.3496 M58,959.3496 L84,959.3496 M71,978.3496 L58,993.3496 M71,978.3496 L84,993.3496 " fill="none" style="stroke:#181818;stroke-width:0.5;"/><rect fill="#E3E3E3" height="46.9766" rx="2.5" ry="2.5" style="stroke:#181818;stroke-width:0.5;" width="119" x="300.5" y="71"/><text fill="#000000" font-family="sans-serif" font-size="14" lengthAdjust="spacing" textLength="105" x="307.5" y="91.5352">&#171;C4:Container&#187;</text><text fill="#000000" font-family="sans-serif" font-size="14" lengthAdjust="spacing" textLength="89" x="315.5" y="108.0234">:Visualiza&#231;&#227;o</text><rect fill="#E3E3E3" height="46.9766" rx="2.5" ry="2.5" style="stroke:#181818;stroke-width:0.5;" width="119" x="300.5" y="918.3613"/><text fill="#000000" font-family="sans-serif" font-size="14" lengthAdjust="spacing" textLength="105" x="307.5" y="938.8965">&#171;C4:Container&#187;</text><text fill="#000000" font-family="sans-serif" font-size="14" lengthAdjust="spacing" textLength="89" x="315.5" y="955.3848">:Visualiza&#231;&#227;o</text><rect fill="#E3E3E3" height="30.4883" rx="2.5" ry="2.5" style="stroke:#181818;stroke-width:0.5;" width="95" x="472.5" y="87.4883"/><text fill="#000000" font-family="sans-serif" font-size="14" lengthAdjust="spacing" textLength="81" x="479.5" y="108.0234">Component</text><rect fill="#E3E3E3" height="30.4883" rx="2.5" ry="2.5" style="stroke:#181818;stroke-width:0.5;" width="95" x="472.5" y="918.3613"/><text fill="#000000" font-family="sans-serif" font-size="14" lengthAdjust="spacing" textLength="81" x="479.5" y="938.8965">Component</text><rect fill="#E3E3E3" height="30.4883" rx="2.5" ry="2.5" style="stroke:#181818;stroke-width:0.5;" width="62" x="702" y="87.4883"/><text fill="#000000" font-family="sans-serif" font-size="14" lengthAdjust="spacing" textLength="48" x="709" y="108.0234">Service</text><rect fill="#E3E3E3" height="30.4883" rx="2.5" ry="2.5" style="stroke:#181818;stroke-width:0.5;" width="62" x="702" y="918.3613"/><text fill="#000000" font-family="sans-serif" font-size="14" lengthAdjust="spacing" textLength="48" x="709" y="938.8965">Service</text><rect fill="#E3E3E3" height="63.4648" rx="2.5" ry="2.5" style="stroke:#181818;stroke-width:0.5;" width="138" x="877" y="54.5117"/><text fill="#000000" font-family="sans-serif" font-size="14" lengthAdjust="spacing" textLength="105" x="893.5" y="75.0469">&#171;C4:Container&#187;</text><text fill="#000000" font-family="sans-serif" font-size="14" lengthAdjust="spacing" textLength="124" x="884" y="91.5352">M&#243;dulo de Gest&#227;o</text><text fill="#000000" font-family="sans-serif" font-size="14" lengthAdjust="spacing" textLength="99" x="896.5" y="108.0234">de Informa&#231;&#227;o</text><rect fill="#E3E3E3" height="63.4648" rx="2.5" ry="2.5" style="stroke:#181818;stroke-width:0.5;" width="138" x="877" y="918.3613"/><text fill="#000000" font-family="sans-serif" font-size="14" lengthAdjust="spacing" textLength="105" x="893.5" y="938.8965">&#171;C4:Container&#187;</text><text fill="#000000" font-family="sans-serif" font-size="14" lengthAdjust="spacing" textLength="124" x="884" y="955.3848">M&#243;dulo de Gest&#227;o</text><text fill="#000000" font-family="sans-serif" font-size="14" lengthAdjust="spacing" textLength="99" x="896.5" y="971.873">de Informa&#231;&#227;o</text><rect fill="#FFFFFF" height="781.3848" style="stroke:#181818;stroke-width:1.0;" width="10" x="66" y="128.9766"/><rect fill="#FFFFFF" height="437.6582" style="stroke:#181818;stroke-width:1.0;" width="10" x="355" y="150.2871"/><rect fill="#FFFFFF" height="284.1055" style="stroke:#181818;stroke-width:1.0;" width="10" x="355" y="617.2559"/><rect fill="#FFFFFF" height="379.0371" style="stroke:#181818;stroke-width:1.0;" width="10" x="515" y="179.5977"/><rect fill="#FFFFFF" height="225.4844" style="stroke:#181818;stroke-width:1.0;" width="10" x="515" y="646.5664"/><rect fill="#FFFFFF" height="145.5527" style="stroke:#181818;stroke-width:1.0;" width="10" x="728" y="208.9082"/><rect fill="#FFFFFF" height="145.5527" style="stroke:#181818;stroke-width:1.0;" width="10" x="728" y="383.7715"/><rect fill="#FFFFFF" height="166.8633" style="stroke:#181818;stroke-width:1.0;" width="10" x="728" y="675.877"/><rect fill="#FFFFFF" height="86.9316" style="stroke:#181818;stroke-width:1.0;" width="10" x="941" y="238.2188"/><rect fill="#FFFFFF" height="86.9316" style="stroke:#181818;stroke-width:1.0;" width="10" x="941" y="413.082"/><rect fill="#FFFFFF" height="97.5869" style="stroke:#181818;stroke-width:1.0;" width="10" x="941" y="705.1875"/><polygon fill="#181818" points="343,146.2871,353,150.2871,343,154.2871,347,150.2871" style="stroke:#181818;stroke-width:1.0;"/><line style="stroke:#181818;stroke-width:1.0;" x1="76" x2="349" y1="150.2871" y2="150.2871"/><text fill="#000000" font-family="sans-serif" font-size="13" font-weight="bold" lengthAdjust="spacing" textLength="9" x="83" y="145.5449">1</text><text fill="#000000" font-family="sans-serif" font-size="13" lengthAdjust="spacing" textLength="247" x="96" y="145.5449">Inicia opera&#231;&#227;o de criar piso de edificio</text><polygon fill="#181818" points="503,175.5977,513,179.5977,503,183.5977,507,179.5977" style="stroke:#181818;stroke-width:1.0;"/><line style="stroke:#181818;stroke-width:1.0;" x1="365" x2="509" y1="179.5977" y2="179.5977"/><text fill="#000000" font-family="sans-serif" font-size="13" font-weight="bold" lengthAdjust="spacing" textLength="9" x="372" y="174.8555">2</text><text fill="#000000" font-family="sans-serif" font-size="13" lengthAdjust="spacing" textLength="45" x="385" y="174.8555">ngInit()</text><polygon fill="#181818" points="716,204.9082,726,208.9082,716,212.9082,720,208.9082" style="stroke:#181818;stroke-width:1.0;"/><line style="stroke:#181818;stroke-width:1.0;" x1="525" x2="722" y1="208.9082" y2="208.9082"/><text fill="#000000" font-family="sans-serif" font-size="13" font-weight="bold" lengthAdjust="spacing" textLength="9" x="532" y="204.166">3</text><text fill="#000000" font-family="sans-serif" font-size="13" lengthAdjust="spacing" textLength="86" x="545" y="204.166">getBuildings()</text><polygon fill="#181818" points="929,234.2188,939,238.2188,929,242.2188,933,238.2188" style="stroke:#181818;stroke-width:1.0;"/><line style="stroke:#181818;stroke-width:1.0;" x1="738" x2="935" y1="238.2188" y2="238.2188"/><text fill="#000000" font-family="sans-serif" font-size="13" font-weight="bold" lengthAdjust="spacing" textLength="9" x="745" y="233.4766">4</text><text fill="#000000" font-family="sans-serif" font-size="13" lengthAdjust="spacing" textLength="86" x="758" y="233.4766">getBuildings()</text><line style="stroke:#181818;stroke-width:1.0;" x1="951" x2="993" y1="282.8398" y2="282.8398"/><line style="stroke:#181818;stroke-width:1.0;" x1="993" x2="993" y1="282.8398" y2="295.8398"/><line style="stroke:#181818;stroke-width:1.0;" x1="952" x2="993" y1="295.8398" y2="295.8398"/><polygon fill="#181818" points="962,291.8398,952,295.8398,962,299.8398,958,295.8398" style="stroke:#181818;stroke-width:1.0;"/><text fill="#000000" font-family="sans-serif" font-size="13" font-weight="bold" lengthAdjust="spacing" textLength="9" x="958" y="270.4424">5</text><text fill="#000000" font-family="sans-serif" font-size="13" lengthAdjust="spacing" textLength="137" x="971" y="262.7871">middleware.rolecheck</text><text fill="#000000" font-family="sans-serif" font-size="13" lengthAdjust="spacing" textLength="202" x="971" y="278.0977">("Admin" || "Gestor de Campus")</text><polygon fill="#181818" points="749,321.1504,739,325.1504,749,329.1504,745,325.1504" style="stroke:#181818;stroke-width:1.0;"/><line style="stroke:#181818;stroke-width:1.0;stroke-dasharray:2.0,2.0;" x1="743" x2="945" y1="325.1504" y2="325.1504"/><text fill="#000000" font-family="sans-serif" font-size="13" font-weight="bold" lengthAdjust="spacing" textLength="9" x="755" y="320.4082">6</text><text fill="#000000" font-family="sans-serif" font-size="13" lengthAdjust="spacing" textLength="107" x="768" y="320.4082">Lista de edificios</text><polygon fill="#181818" points="536,350.4609,526,354.4609,536,358.4609,532,354.4609" style="stroke:#181818;stroke-width:1.0;"/><line style="stroke:#181818;stroke-width:1.0;stroke-dasharray:2.0,2.0;" x1="530" x2="732" y1="354.4609" y2="354.4609"/><text fill="#000000" font-family="sans-serif" font-size="13" font-weight="bold" lengthAdjust="spacing" textLength="9" x="542" y="349.7188">7</text><text fill="#000000" font-family="sans-serif" font-size="13" lengthAdjust="spacing" textLength="107" x="555" y="349.7188">Lista de edificios</text><polygon fill="#181818" points="716,379.7715,726,383.7715,716,387.7715,720,383.7715" style="stroke:#181818;stroke-width:1.0;"/><line style="stroke:#181818;stroke-width:1.0;" x1="525" x2="722" y1="383.7715" y2="383.7715"/><text fill="#000000" font-family="sans-serif" font-size="13" font-weight="bold" lengthAdjust="spacing" textLength="9" x="532" y="379.0293">8</text><text fill="#000000" font-family="sans-serif" font-size="13" lengthAdjust="spacing" textLength="67" x="545" y="379.0293">getFloors()</text><polygon fill="#181818" points="929,409.082,939,413.082,929,417.082,933,413.082" style="stroke:#181818;stroke-width:1.0;"/><line style="stroke:#181818;stroke-width:1.0;" x1="738" x2="935" y1="413.082" y2="413.082"/><text fill="#000000" font-family="sans-serif" font-size="13" font-weight="bold" lengthAdjust="spacing" textLength="9" x="745" y="408.3398">9</text><text fill="#000000" font-family="sans-serif" font-size="13" lengthAdjust="spacing" textLength="67" x="758" y="408.3398">getFloors()</text><line style="stroke:#181818;stroke-width:1.0;" x1="951" x2="993" y1="457.7031" y2="457.7031"/><line style="stroke:#181818;stroke-width:1.0;" x1="993" x2="993" y1="457.7031" y2="470.7031"/><line style="stroke:#181818;stroke-width:1.0;" x1="952" x2="993" y1="470.7031" y2="470.7031"/><polygon fill="#181818" points="962,466.7031,952,470.7031,962,474.7031,958,470.7031" style="stroke:#181818;stroke-width:1.0;"/><text fill="#000000" font-family="sans-serif" font-size="13" font-weight="bold" lengthAdjust="spacing" textLength="18" x="958" y="445.3057">10</text><text fill="#000000" font-family="sans-serif" font-size="13" lengthAdjust="spacing" textLength="137" x="980" y="437.6504">middleware.rolecheck</text><text fill="#000000" font-family="sans-serif" font-size="13" lengthAdjust="spacing" textLength="202" x="980" y="452.9609">("Admin" || "Gestor de Campus")</text><polygon fill="#181818" points="749,496.0137,739,500.0137,749,504.0137,745,500.0137" style="stroke:#181818;stroke-width:1.0;"/><line style="stroke:#181818;stroke-width:1.0;stroke-dasharray:2.0,2.0;" x1="743" x2="945" y1="500.0137" y2="500.0137"/><text fill="#000000" font-family="sans-serif" font-size="13" font-weight="bold" lengthAdjust="spacing" textLength="18" x="755" y="495.2715">11</text><text fill="#000000" font-family="sans-serif" font-size="13" lengthAdjust="spacing" textLength="157" x="777" y="495.2715">Lista de pisos de edificio</text><polygon fill="#181818" points="536,525.3242,526,529.3242,536,533.3242,532,529.3242" style="stroke:#181818;stroke-width:1.0;"/><line style="stroke:#181818;stroke-width:1.0;stroke-dasharray:2.0,2.0;" x1="530" x2="732" y1="529.3242" y2="529.3242"/><text fill="#000000" font-family="sans-serif" font-size="13" font-weight="bold" lengthAdjust="spacing" textLength="18" x="542" y="524.582">12</text><text fill="#000000" font-family="sans-serif" font-size="13" lengthAdjust="spacing" textLength="157" x="564" y="524.582">Lista de pisos de edificio</text><polygon fill="#181818" points="376,554.6348,366,558.6348,376,562.6348,372,558.6348" style="stroke:#181818;stroke-width:1.0;"/><line style="stroke:#181818;stroke-width:1.0;stroke-dasharray:2.0,2.0;" x1="370" x2="519" y1="558.6348" y2="558.6348"/><text fill="#000000" font-family="sans-serif" font-size="13" font-weight="bold" lengthAdjust="spacing" textLength="18" x="382" y="553.8926">13</text><text fill="#000000" font-family="sans-serif" font-size="13" lengthAdjust="spacing" textLength="104" x="404" y="553.8926">buildings, floors</text><polygon fill="#181818" points="87,583.9453,77,587.9453,87,591.9453,83,587.9453" style="stroke:#181818;stroke-width:1.0;"/><line style="stroke:#181818;stroke-width:1.0;stroke-dasharray:2.0,2.0;" x1="81" x2="359" y1="587.9453" y2="587.9453"/><text fill="#000000" font-family="sans-serif" font-size="13" font-weight="bold" lengthAdjust="spacing" textLength="18" x="93" y="583.2031">14</text><text fill="#000000" font-family="sans-serif" font-size="13" lengthAdjust="spacing" textLength="218" x="115" y="583.2031">Solicita dados que pretende mudar</text><polygon fill="#181818" points="343,613.2559,353,617.2559,343,621.2559,347,617.2559" style="stroke:#181818;stroke-width:1.0;"/><line style="stroke:#181818;stroke-width:1.0;" x1="76" x2="349" y1="617.2559" y2="617.2559"/><text fill="#000000" font-family="sans-serif" font-size="13" font-weight="bold" lengthAdjust="spacing" textLength="18" x="83" y="612.5137">15</text><text fill="#000000" font-family="sans-serif" font-size="13" lengthAdjust="spacing" textLength="168" x="105" y="612.5137">Introduz dados solicitados</text><polygon fill="#181818" points="503,642.5664,513,646.5664,503,650.5664,507,646.5664" style="stroke:#181818;stroke-width:1.0;"/><line style="stroke:#181818;stroke-width:1.0;" x1="365" x2="509" y1="646.5664" y2="646.5664"/><text fill="#000000" font-family="sans-serif" font-size="13" font-weight="bold" lengthAdjust="spacing" textLength="18" x="372" y="641.8242">16</text><text fill="#000000" font-family="sans-serif" font-size="13" lengthAdjust="spacing" textLength="76" x="394" y="641.8242">create(floor)</text><polygon fill="#181818" points="716,671.877,726,675.877,716,679.877,720,675.877" style="stroke:#181818;stroke-width:1.0;"/><line style="stroke:#181818;stroke-width:1.0;" x1="525" x2="722" y1="675.877" y2="675.877"/><text fill="#000000" font-family="sans-serif" font-size="13" font-weight="bold" lengthAdjust="spacing" textLength="18" x="532" y="671.1348">17</text><text fill="#000000" font-family="sans-serif" font-size="13" lengthAdjust="spacing" textLength="76" x="554" y="671.1348">create(floor)</text><polygon fill="#181818" points="929,701.1875,939,705.1875,929,709.1875,933,705.1875" style="stroke:#181818;stroke-width:1.0;"/><line style="stroke:#181818;stroke-width:1.0;" x1="738" x2="935" y1="705.1875" y2="705.1875"/><text fill="#000000" font-family="sans-serif" font-size="13" font-weight="bold" lengthAdjust="spacing" textLength="18" x="745" y="700.4453">18</text><text fill="#000000" font-family="sans-serif" font-size="13" lengthAdjust="spacing" textLength="76" x="767" y="700.4453">create(floor)</text><line style="stroke:#181818;stroke-width:1.0;" x1="951" x2="993" y1="749.8086" y2="749.8086"/><line style="stroke:#181818;stroke-width:1.0;" x1="993" x2="993" y1="749.8086" y2="762.8086"/><line style="stroke:#181818;stroke-width:1.0;" x1="952" x2="993" y1="762.8086" y2="762.8086"/><polygon fill="#181818" points="962,758.8086,952,762.8086,962,766.8086,958,762.8086" style="stroke:#181818;stroke-width:1.0;"/><text fill="#000000" font-family="sans-serif" font-size="13" font-weight="bold" lengthAdjust="spacing" textLength="18" x="958" y="737.4111">19</text><text fill="#000000" font-family="sans-serif" font-size="13" lengthAdjust="spacing" textLength="137" x="980" y="729.7559">middleware.rolecheck</text><text fill="#000000" font-family="sans-serif" font-size="13" lengthAdjust="spacing" textLength="202" x="980" y="745.0664">("Admin" || "Gestor de Campus")</text><polygon fill="#181818" points="749,798.7744,739,802.7744,749,806.7744,745,802.7744" style="stroke:#181818;stroke-width:1.0;"/><line style="stroke:#181818;stroke-width:1.0;stroke-dasharray:2.0,2.0;" x1="743" x2="945" y1="802.7744" y2="802.7744"/><text fill="#000000" font-family="sans-serif" font-size="13" font-weight="bold" lengthAdjust="spacing" textLength="18" x="755" y="798.0322">20</text><text fill="#000000" font-family="sans-serif" font-size="13" lengthAdjust="spacing" textLength="80" x="777" y="798.0322">201 OK floor</text><path d="M956,775.8086 L956,815.8086 L1184,815.8086 L1184,785.8086 L1174,775.8086 L956,775.8086 " fill="#FAFAFA" style="stroke:#181818;stroke-width:0.5;"/><path d="M1174,775.8086 L1174,785.8086 L1184,785.8086 L1174,775.8086 " fill="#FAFAFA" style="stroke:#181818;stroke-width:0.5;"/><text fill="#000000" font-family="sans-serif" font-size="13" lengthAdjust="spacing" textLength="207" x="962" y="793.377">M&#243;dulo de Gest&#227;o de Informa&#231;&#227;o</text><text fill="#000000" font-family="sans-serif" font-size="13" lengthAdjust="spacing" textLength="184" x="962" y="808.6875">&#233; a representa&#231;&#227;o do Sprint A</text><polygon fill="#181818" points="536,838.7402,526,842.7402,536,846.7402,532,842.7402" style="stroke:#181818;stroke-width:1.0;"/><line style="stroke:#181818;stroke-width:1.0;stroke-dasharray:2.0,2.0;" x1="530" x2="732" y1="842.7402" y2="842.7402"/><text fill="#000000" font-family="sans-serif" font-size="13" font-weight="bold" lengthAdjust="spacing" textLength="18" x="542" y="837.998">21</text><text fill="#000000" font-family="sans-serif" font-size="13" lengthAdjust="spacing" textLength="80" x="564" y="837.998">201 OK floor</text><polygon fill="#181818" points="376,868.0508,366,872.0508,376,876.0508,372,872.0508" style="stroke:#181818;stroke-width:1.0;"/><line style="stroke:#181818;stroke-width:1.0;stroke-dasharray:2.0,2.0;" x1="370" x2="519" y1="872.0508" y2="872.0508"/><text fill="#000000" font-family="sans-serif" font-size="13" font-weight="bold" lengthAdjust="spacing" textLength="18" x="382" y="867.3086">22</text><text fill="#000000" font-family="sans-serif" font-size="13" lengthAdjust="spacing" textLength="80" x="404" y="867.3086">201 OK floor</text><polygon fill="#181818" points="87,897.3613,77,901.3613,87,905.3613,83,901.3613" style="stroke:#181818;stroke-width:1.0;"/><line style="stroke:#181818;stroke-width:1.0;stroke-dasharray:2.0,2.0;" x1="81" x2="359" y1="901.3613" y2="901.3613"/><text fill="#000000" font-family="sans-serif" font-size="13" font-weight="bold" lengthAdjust="spacing" textLength="18" x="93" y="896.6191">23</text><text fill="#000000" font-family="sans-serif" font-size="13" lengthAdjust="spacing" textLength="141" x="115" y="896.6191">Mensagem de sucesso</text><!--SRC=[xLRBRXCn5DtxAwvcDP48Ie4DeoXIIGMgeB0OmIeRrxwPM9cn1pzQKVLlM23MV49-ZEiqZscJa4TJLbsDnxwFu-lZS-t6IjVSyWegeuqOMLCXU1kGkSLApSMO5vZx7oM2HU6vBigcWHjnQQwLBc38IuUCUUN9j6-qvqgZXHo_1zG2uKpn8dga-LaBsl0rF-cyxK3w-NMBCHwyqQ6wH4jZuOs5v0Ew-9KKYrTrSCbqHLrnZ-iMLwUWtOEas-s_oHPWUhs1phuf5tYfRlZar-IdIJ8urqee3gP6UpSNWmYhk8LQkUaVIZKa8zE0i3qosy4cWkoRgZOQjSz05mJ6fwrbdiKYMuoYJuxsIWdCe43_BgXIqWcufj_CWCs-6ufnCVaZGpdTOgmV8Hfe6f_heR7L7EBc90T6P8SYENmJ6LHAoXAlkSMNrfGeHYZ60vqcfx9IEe7RspMiQXsET7b6LBzFoddUv95Z4XzTnSNHDZcqDTkS61lfzBuqnZufbrOpF1DfJo95ONBtbEb_4EgVMTSGQpS5fWoNStLv0SCfEPg1bnAucwB6h2ida45kIe8SDq8Tom5r9QWjUenrg8BaTai9L-JzSJt7MoF3pGoCcs6ZyTEs6Agri4ZHqscTTsuqc_sEAWxtSpphmrxwaC6hpWby-NXtXTWn544RShQg6D7RPDK17jWFzEGtS7ecqhron9_vQyf0Nbj5V3fTBp4FW1z9KpR5N1Bz20LQ8m7TTdit3RX0xUXjNKLd5mGwP_QLeBy0]--></g></svg>