<?xml version="1.0" encoding="us-ascii" standalone="no"?><svg xmlns="http://www.w3.org/2000/svg" xmlns:xlink="http://www.w3.org/1999/xlink" contentStyleType="text/css" height="836px" preserveAspectRatio="none" style="width:923px;height:836px;background:#FFFFFF;" version="1.1" viewBox="0 0 923 836" width="923px" zoomAndPan="magnify"><defs/><g><text fill="#000000" font-family="sans-serif" font-size="14" font-weight="bold" lengthAdjust="spacing" textLength="349" x="286" y="28.5352">Container Sequence Diagram (SD) - US1070 (N3)</text><rect fill="#FFFFFF" height="617.832" style="stroke:#181818;stroke-width:1.0;" width="10" x="66" y="128.9766"/><rect fill="#FFFFFF" height="337.7266" style="stroke:#181818;stroke-width:1.0;" width="10" x="340" y="165.5977"/><rect fill="#FFFFFF" height="205.1738" style="stroke:#181818;stroke-width:1.0;" width="10" x="340" y="532.6348"/><rect fill="#FFFFFF" height="279.1055" style="stroke:#181818;stroke-width:1.0;" width="10" x="476" y="194.9082"/><rect fill="#FFFFFF" height="146.5527" style="stroke:#181818;stroke-width:1.0;" width="10" x="476" y="561.9453"/><rect fill="#FFFFFF" height="87.9316" style="stroke:#181818;stroke-width:1.0;" width="10" x="689" y="224.2188"/><rect fill="#FFFFFF" height="103.2422" style="stroke:#181818;stroke-width:1.0;" width="10" x="689" y="341.4609"/><rect fill="#FFFFFF" height="87.9316" style="stroke:#181818;stroke-width:1.0;" width="10" x="689" y="591.2559"/><rect fill="#FFFFFF" height="29.3105" style="stroke:#181818;stroke-width:1.0;" width="10" x="843" y="253.5293"/><rect fill="#FFFFFF" height="44.6211" style="stroke:#181818;stroke-width:1.0;" width="10" x="843" y="370.7715"/><rect fill="#FFFFFF" height="29.3105" style="stroke:#181818;stroke-width:1.0;" width="10" x="843" y="620.5664"/><line style="stroke:#181818;stroke-width:0.5;stroke-dasharray:5.0,5.0;" x1="71" x2="71" y1="118.9766" y2="755.8086"/><line style="stroke:#181818;stroke-width:0.5;stroke-dasharray:5.0,5.0;" x1="344.5" x2="344.5" y1="118.9766" y2="755.8086"/><line style="stroke:#181818;stroke-width:0.5;stroke-dasharray:5.0,5.0;" x1="480.5" x2="480.5" y1="118.9766" y2="755.8086"/><line style="stroke:#181818;stroke-width:0.5;stroke-dasharray:5.0,5.0;" x1="694" x2="694" y1="118.9766" y2="755.8086"/><line style="stroke:#181818;stroke-width:0.5;stroke-dasharray:5.0,5.0;" x1="848" x2="848" y1="118.9766" y2="755.8086"/><text fill="#000000" font-family="sans-serif" font-size="14" lengthAdjust="spacing" textLength="126" x="5" y="116.0234">Gestor de Campus</text><ellipse cx="71" cy="50.9883" fill="#E3E3E3" rx="8" ry="8" style="stroke:#181818;stroke-width:0.5;"/><path d="M71,58.9883 L71,85.9883 M58,66.9883 L84,66.9883 M71,85.9883 L58,100.9883 M71,85.9883 L84,100.9883 " fill="none" style="stroke:#181818;stroke-width:0.5;"/><text fill="#000000" font-family="sans-serif" font-size="14" lengthAdjust="spacing" textLength="126" x="5" y="768.3438">Gestor de Campus</text><ellipse cx="71" cy="779.7969" fill="#E3E3E3" rx="8" ry="8" style="stroke:#181818;stroke-width:0.5;"/><path d="M71,787.7969 L71,814.7969 M58,795.7969 L84,795.7969 M71,814.7969 L58,829.7969 M71,814.7969 L84,829.7969 " fill="none" style="stroke:#181818;stroke-width:0.5;"/><rect fill="#E3E3E3" height="46.9766" rx="2.5" ry="2.5" style="stroke:#181818;stroke-width:0.5;" width="119" x="285.5" y="71"/><text fill="#000000" font-family="sans-serif" font-size="14" lengthAdjust="spacing" textLength="105" x="292.5" y="91.5352">&#171;C4:Container&#187;</text><text fill="#000000" font-family="sans-serif" font-size="14" lengthAdjust="spacing" textLength="89" x="300.5" y="108.0234">:Visualiza&#231;&#227;o</text><rect fill="#E3E3E3" height="46.9766" rx="2.5" ry="2.5" style="stroke:#181818;stroke-width:0.5;" width="119" x="285.5" y="754.8086"/><text fill="#000000" font-family="sans-serif" font-size="14" lengthAdjust="spacing" textLength="105" x="292.5" y="775.3438">&#171;C4:Container&#187;</text><text fill="#000000" font-family="sans-serif" font-size="14" lengthAdjust="spacing" textLength="89" x="300.5" y="791.832">:Visualiza&#231;&#227;o</text><rect fill="#E3E3E3" height="30.4883" rx="2.5" ry="2.5" style="stroke:#181818;stroke-width:0.5;" width="95" x="433.5" y="87.4883"/><text fill="#000000" font-family="sans-serif" font-size="14" lengthAdjust="spacing" textLength="81" x="440.5" y="108.0234">Component</text><rect fill="#E3E3E3" height="30.4883" rx="2.5" ry="2.5" style="stroke:#181818;stroke-width:0.5;" width="95" x="433.5" y="754.8086"/><text fill="#000000" font-family="sans-serif" font-size="14" lengthAdjust="spacing" textLength="81" x="440.5" y="775.3438">Component</text><rect fill="#E3E3E3" height="30.4883" rx="2.5" ry="2.5" style="stroke:#181818;stroke-width:0.5;" width="62" x="663" y="87.4883"/><text fill="#000000" font-family="sans-serif" font-size="14" lengthAdjust="spacing" textLength="48" x="670" y="108.0234">Service</text><rect fill="#E3E3E3" height="30.4883" rx="2.5" ry="2.5" style="stroke:#181818;stroke-width:0.5;" width="62" x="663" y="754.8086"/><text fill="#000000" font-family="sans-serif" font-size="14" lengthAdjust="spacing" textLength="48" x="670" y="775.3438">Service</text><rect fill="#E3E3E3" height="63.4648" rx="2.5" ry="2.5" style="stroke:#181818;stroke-width:0.5;" width="138" x="779" y="54.5117"/><text fill="#000000" font-family="sans-serif" font-size="14" lengthAdjust="spacing" textLength="105" x="795.5" y="75.0469">&#171;C4:Container&#187;</text><text fill="#000000" font-family="sans-serif" font-size="14" lengthAdjust="spacing" textLength="124" x="786" y="91.5352">M&#243;dulo de Gest&#227;o</text><text fill="#000000" font-family="sans-serif" font-size="14" lengthAdjust="spacing" textLength="99" x="798.5" y="108.0234">de Informa&#231;&#227;o</text><rect fill="#E3E3E3" height="63.4648" rx="2.5" ry="2.5" style="stroke:#181818;stroke-width:0.5;" width="138" x="779" y="754.8086"/><text fill="#000000" font-family="sans-serif" font-size="14" lengthAdjust="spacing" textLength="105" x="795.5" y="775.3438">&#171;C4:Container&#187;</text><text fill="#000000" font-family="sans-serif" font-size="14" lengthAdjust="spacing" textLength="124" x="786" y="791.832">M&#243;dulo de Gest&#227;o</text><text fill="#000000" font-family="sans-serif" font-size="14" lengthAdjust="spacing" textLength="99" x="798.5" y="808.3203">de Informa&#231;&#227;o</text><rect fill="#FFFFFF" height="617.832" style="stroke:#181818;stroke-width:1.0;" width="10" x="66" y="128.9766"/><rect fill="#FFFFFF" height="337.7266" style="stroke:#181818;stroke-width:1.0;" width="10" x="340" y="165.5977"/><rect fill="#FFFFFF" height="205.1738" style="stroke:#181818;stroke-width:1.0;" width="10" x="340" y="532.6348"/><rect fill="#FFFFFF" height="279.1055" style="stroke:#181818;stroke-width:1.0;" width="10" x="476" y="194.9082"/><rect fill="#FFFFFF" height="146.5527" style="stroke:#181818;stroke-width:1.0;" width="10" x="476" y="561.9453"/><rect fill="#FFFFFF" height="87.9316" style="stroke:#181818;stroke-width:1.0;" width="10" x="689" y="224.2188"/><rect fill="#FFFFFF" height="103.2422" style="stroke:#181818;stroke-width:1.0;" width="10" x="689" y="341.4609"/><rect fill="#FFFFFF" height="87.9316" style="stroke:#181818;stroke-width:1.0;" width="10" x="689" y="591.2559"/><rect fill="#FFFFFF" height="29.3105" style="stroke:#181818;stroke-width:1.0;" width="10" x="843" y="253.5293"/><rect fill="#FFFFFF" height="44.6211" style="stroke:#181818;stroke-width:1.0;" width="10" x="843" y="370.7715"/><rect fill="#FFFFFF" height="29.3105" style="stroke:#181818;stroke-width:1.0;" width="10" x="843" y="620.5664"/><polygon fill="#181818" points="328,161.5977,338,165.5977,328,169.5977,332,165.5977" style="stroke:#181818;stroke-width:1.0;"/><line style="stroke:#181818;stroke-width:1.0;" x1="76" x2="334" y1="165.5977" y2="165.5977"/><text fill="#000000" font-family="sans-serif" font-size="13" font-weight="bold" lengthAdjust="spacing" textLength="9" x="83" y="153.2002">1</text><text fill="#000000" font-family="sans-serif" font-size="13" lengthAdjust="spacing" textLength="154" x="96" y="145.5449">Inicia opera&#231;&#227;o de editar</text><text fill="#000000" font-family="sans-serif" font-size="13" lengthAdjust="spacing" textLength="97" x="96" y="160.8555">piso de edificio</text><polygon fill="#181818" points="464,190.9082,474,194.9082,464,198.9082,468,194.9082" style="stroke:#181818;stroke-width:1.0;"/><line style="stroke:#181818;stroke-width:1.0;" x1="350" x2="470" y1="194.9082" y2="194.9082"/><text fill="#000000" font-family="sans-serif" font-size="13" font-weight="bold" lengthAdjust="spacing" textLength="9" x="357" y="190.166">2</text><text fill="#000000" font-family="sans-serif" font-size="13" lengthAdjust="spacing" textLength="45" x="370" y="190.166">ngInit()</text><polygon fill="#181818" points="677,220.2188,687,224.2188,677,228.2188,681,224.2188" style="stroke:#181818;stroke-width:1.0;"/><line style="stroke:#181818;stroke-width:1.0;" x1="486" x2="683" y1="224.2188" y2="224.2188"/><text fill="#000000" font-family="sans-serif" font-size="13" font-weight="bold" lengthAdjust="spacing" textLength="9" x="493" y="219.4766">3</text><text fill="#000000" font-family="sans-serif" font-size="13" lengthAdjust="spacing" textLength="86" x="506" y="219.4766">getBuildings()</text><polygon fill="#181818" points="831,249.5293,841,253.5293,831,257.5293,835,253.5293" style="stroke:#181818;stroke-width:1.0;"/><line style="stroke:#181818;stroke-width:1.0;" x1="699" x2="837" y1="253.5293" y2="253.5293"/><text fill="#000000" font-family="sans-serif" font-size="13" font-weight="bold" lengthAdjust="spacing" textLength="9" x="706" y="248.7871">4</text><text fill="#000000" font-family="sans-serif" font-size="13" lengthAdjust="spacing" textLength="86" x="719" y="248.7871">getBuildings()</text><polygon fill="#181818" points="710,278.8398,700,282.8398,710,286.8398,706,282.8398" style="stroke:#181818;stroke-width:1.0;"/><line style="stroke:#181818;stroke-width:1.0;stroke-dasharray:2.0,2.0;" x1="704" x2="847" y1="282.8398" y2="282.8398"/><text fill="#000000" font-family="sans-serif" font-size="13" font-weight="bold" lengthAdjust="spacing" textLength="9" x="716" y="278.0977">5</text><text fill="#000000" font-family="sans-serif" font-size="13" lengthAdjust="spacing" textLength="107" x="729" y="278.0977">Lista de edif&#237;cios</text><polygon fill="#181818" points="497,308.1504,487,312.1504,497,316.1504,493,312.1504" style="stroke:#181818;stroke-width:1.0;"/><line style="stroke:#181818;stroke-width:1.0;stroke-dasharray:2.0,2.0;" x1="491" x2="693" y1="312.1504" y2="312.1504"/><text fill="#000000" font-family="sans-serif" font-size="13" font-weight="bold" lengthAdjust="spacing" textLength="9" x="503" y="307.4082">6</text><text fill="#000000" font-family="sans-serif" font-size="13" lengthAdjust="spacing" textLength="107" x="516" y="307.4082">Lista de edif&#237;cios</text><polygon fill="#181818" points="677,337.4609,687,341.4609,677,345.4609,681,341.4609" style="stroke:#181818;stroke-width:1.0;"/><line style="stroke:#181818;stroke-width:1.0;" x1="486" x2="683" y1="341.4609" y2="341.4609"/><text fill="#000000" font-family="sans-serif" font-size="13" font-weight="bold" lengthAdjust="spacing" textLength="9" x="493" y="336.7188">7</text><text fill="#000000" font-family="sans-serif" font-size="13" lengthAdjust="spacing" textLength="67" x="506" y="336.7188">getFloors()</text><polygon fill="#181818" points="831,366.7715,841,370.7715,831,374.7715,835,370.7715" style="stroke:#181818;stroke-width:1.0;"/><line style="stroke:#181818;stroke-width:1.0;" x1="699" x2="837" y1="370.7715" y2="370.7715"/><text fill="#000000" font-family="sans-serif" font-size="13" font-weight="bold" lengthAdjust="spacing" textLength="9" x="706" y="366.0293">8</text><text fill="#000000" font-family="sans-serif" font-size="13" lengthAdjust="spacing" textLength="67" x="719" y="366.0293">getFloors()</text><polygon fill="#181818" points="710,411.3926,700,415.3926,710,419.3926,706,415.3926" style="stroke:#181818;stroke-width:1.0;"/><line style="stroke:#181818;stroke-width:1.0;stroke-dasharray:2.0,2.0;" x1="704" x2="847" y1="415.3926" y2="415.3926"/><text fill="#000000" font-family="sans-serif" font-size="13" font-weight="bold" lengthAdjust="spacing" textLength="9" x="716" y="402.9951">9</text><text fill="#000000" font-family="sans-serif" font-size="13" lengthAdjust="spacing" textLength="87" x="729" y="395.3398">Lista de pisos</text><text fill="#000000" font-family="sans-serif" font-size="13" lengthAdjust="spacing" textLength="66" x="729" y="410.6504">de edificio</text><polygon fill="#181818" points="497,440.7031,487,444.7031,497,448.7031,493,444.7031" style="stroke:#181818;stroke-width:1.0;"/><line style="stroke:#181818;stroke-width:1.0;stroke-dasharray:2.0,2.0;" x1="491" x2="693" y1="444.7031" y2="444.7031"/><text fill="#000000" font-family="sans-serif" font-size="13" font-weight="bold" lengthAdjust="spacing" textLength="18" x="503" y="439.9609">10</text><text fill="#000000" font-family="sans-serif" font-size="13" lengthAdjust="spacing" textLength="157" x="525" y="439.9609">Lista de pisos de edificio</text><polygon fill="#181818" points="361,470.0137,351,474.0137,361,478.0137,357,474.0137" style="stroke:#181818;stroke-width:1.0;"/><line style="stroke:#181818;stroke-width:1.0;stroke-dasharray:2.0,2.0;" x1="355" x2="480" y1="474.0137" y2="474.0137"/><text fill="#000000" font-family="sans-serif" font-size="13" font-weight="bold" lengthAdjust="spacing" textLength="18" x="367" y="469.2715">11</text><text fill="#000000" font-family="sans-serif" font-size="13" lengthAdjust="spacing" textLength="37" x="389" y="469.2715">floors</text><polygon fill="#181818" points="87,499.3242,77,503.3242,87,507.3242,83,503.3242" style="stroke:#181818;stroke-width:1.0;"/><line style="stroke:#181818;stroke-width:1.0;stroke-dasharray:2.0,2.0;" x1="81" x2="344" y1="503.3242" y2="503.3242"/><text fill="#000000" font-family="sans-serif" font-size="13" font-weight="bold" lengthAdjust="spacing" textLength="18" x="93" y="498.582">12</text><text fill="#000000" font-family="sans-serif" font-size="13" lengthAdjust="spacing" textLength="218" x="115" y="498.582">Solicita dados que pretende mudar</text><polygon fill="#181818" points="328,528.6348,338,532.6348,328,536.6348,332,532.6348" style="stroke:#181818;stroke-width:1.0;"/><line style="stroke:#181818;stroke-width:1.0;" x1="76" x2="334" y1="532.6348" y2="532.6348"/><text fill="#000000" font-family="sans-serif" font-size="13" font-weight="bold" lengthAdjust="spacing" textLength="18" x="83" y="527.8926">13</text><text fill="#000000" font-family="sans-serif" font-size="13" lengthAdjust="spacing" textLength="168" x="105" y="527.8926">Introduz dados solicitados</text><polygon fill="#181818" points="464,557.9453,474,561.9453,464,565.9453,468,561.9453" style="stroke:#181818;stroke-width:1.0;"/><line style="stroke:#181818;stroke-width:1.0;" x1="350" x2="470" y1="561.9453" y2="561.9453"/><text fill="#000000" font-family="sans-serif" font-size="13" font-weight="bold" lengthAdjust="spacing" textLength="18" x="357" y="557.2031">14</text><text fill="#000000" font-family="sans-serif" font-size="13" lengthAdjust="spacing" textLength="81" x="379" y="557.2031">update(floor)</text><polygon fill="#181818" points="677,587.2559,687,591.2559,677,595.2559,681,591.2559" style="stroke:#181818;stroke-width:1.0;"/><line style="stroke:#181818;stroke-width:1.0;" x1="486" x2="683" y1="591.2559" y2="591.2559"/><text fill="#000000" font-family="sans-serif" font-size="13" font-weight="bold" lengthAdjust="spacing" textLength="18" x="493" y="586.5137">15</text><text fill="#000000" font-family="sans-serif" font-size="13" lengthAdjust="spacing" textLength="81" x="515" y="586.5137">update(floor)</text><polygon fill="#181818" points="831,616.5664,841,620.5664,831,624.5664,835,620.5664" style="stroke:#181818;stroke-width:1.0;"/><line style="stroke:#181818;stroke-width:1.0;" x1="699" x2="837" y1="620.5664" y2="620.5664"/><text fill="#000000" font-family="sans-serif" font-size="13" font-weight="bold" lengthAdjust="spacing" textLength="18" x="706" y="615.8242">16</text><text fill="#000000" font-family="sans-serif" font-size="13" lengthAdjust="spacing" textLength="81" x="728" y="615.8242">update(floor)</text><polygon fill="#181818" points="710,645.877,700,649.877,710,653.877,706,649.877" style="stroke:#181818;stroke-width:1.0;"/><line style="stroke:#181818;stroke-width:1.0;stroke-dasharray:2.0,2.0;" x1="704" x2="847" y1="649.877" y2="649.877"/><text fill="#000000" font-family="sans-serif" font-size="13" font-weight="bold" lengthAdjust="spacing" textLength="18" x="716" y="645.1348">17</text><text fill="#000000" font-family="sans-serif" font-size="13" lengthAdjust="spacing" textLength="80" x="738" y="645.1348">200 OK floor</text><polygon fill="#181818" points="497,675.1875,487,679.1875,497,683.1875,493,679.1875" style="stroke:#181818;stroke-width:1.0;"/><line style="stroke:#181818;stroke-width:1.0;stroke-dasharray:2.0,2.0;" x1="491" x2="693" y1="679.1875" y2="679.1875"/><text fill="#000000" font-family="sans-serif" font-size="13" font-weight="bold" lengthAdjust="spacing" textLength="18" x="503" y="674.4453">18</text><text fill="#000000" font-family="sans-serif" font-size="13" lengthAdjust="spacing" textLength="80" x="525" y="674.4453">200 OK floor</text><polygon fill="#181818" points="361,704.498,351,708.498,361,712.498,357,708.498" style="stroke:#181818;stroke-width:1.0;"/><line style="stroke:#181818;stroke-width:1.0;stroke-dasharray:2.0,2.0;" x1="355" x2="480" y1="708.498" y2="708.498"/><text fill="#000000" font-family="sans-serif" font-size="13" font-weight="bold" lengthAdjust="spacing" textLength="18" x="367" y="703.7559">19</text><text fill="#000000" font-family="sans-serif" font-size="13" lengthAdjust="spacing" textLength="80" x="389" y="703.7559">200 OK floor</text><polygon fill="#181818" points="87,733.8086,77,737.8086,87,741.8086,83,737.8086" style="stroke:#181818;stroke-width:1.0;"/><line style="stroke:#181818;stroke-width:1.0;stroke-dasharray:2.0,2.0;" x1="81" x2="344" y1="737.8086" y2="737.8086"/><text fill="#000000" font-family="sans-serif" font-size="13" font-weight="bold" lengthAdjust="spacing" textLength="18" x="93" y="733.0664">20</text><text fill="#000000" font-family="sans-serif" font-size="13" lengthAdjust="spacing" textLength="141" x="115" y="733.0664">Mensagem de sucesso</text><!--SRC=[pLOzRzim4DtvAmwUx460qnGe81WUwg11qAOTX7RomefdXOX8gln8qVoT3fqwzIVuZ_MeMB8IHx6Qn4Kc4kJTlSTxUWUvIwahRha2PRJ9BwnH2Du6PAwzgNX-oGlC_8yImMBkkIxARe2xuC9ybxg05IyTCkQbfz25qPvBZHOo_1PGvmWdaXSnOvoTJ221pzdHzCqKnX-F9upnu8qEwYjQskVUM1YTeekhe5fSLS6DwXjvnJtUTxbx1CaSHhFPudNQafdFbphz8btWfRpcwr_hdsQKmfcMkUHWAhGtPx482kcvXQMkf6iELXHdEYps5sS3OYBFXL6LqQXz2heWFduysUAqbwpTnPmCxPNCCOK2_TiWIq4Yk6xU9e1jrfv-dA__Y53MJumj94PBJViplJ9MDHJxGHvPaJsMIR9zER7w89tdZJhhtoIFOmAVJAxjM5UQ_N1DmtjbUbSQOm-gqIx22n4esiZLuQsH_eTGDIpqe3RDxmesR6WGnAhkTBVSrgV3R1-XTgPM2fafYMYaJvFL0KrFg2nwZAzNGN2xft4xC-Xfiz5R8yBrXepRSAFzOUSWDJXKWggFwpuFdeRzUS_gjDiOBy9iARoQJk7J-viFantCNNTm7Xv_WztKLtEhzZEyvnuVp99ac17EKJlw4L8nsOKSdJF_wiE_]--></g></svg>