<?xml version="1.0" encoding="us-ascii" standalone="no"?><svg xmlns="http://www.w3.org/2000/svg" xmlns:xlink="http://www.w3.org/1999/xlink" contentStyleType="text/css" height="1030px" preserveAspectRatio="none" style="width:1093px;height:1030px;background:#FFFFFF;" version="1.1" viewBox="0 0 1093 1030" width="1093px" zoomAndPan="magnify"><defs/><g><text fill="#000000" font-family="sans-serif" font-size="14" font-weight="bold" lengthAdjust="spacing" textLength="349" x="373" y="28.5352">Container Sequence Diagram (SD) - US1070 (N3)</text><rect fill="#FFFFFF" height="812.0059" style="stroke:#181818;stroke-width:1.0;" width="10" x="66" y="128.9766"/><rect fill="#FFFFFF" height="452.9688" style="stroke:#181818;stroke-width:1.0;" width="10" x="340" y="165.5977"/><rect fill="#FFFFFF" height="284.1055" style="stroke:#181818;stroke-width:1.0;" width="10" x="340" y="647.877"/><rect fill="#FFFFFF" height="394.3477" style="stroke:#181818;stroke-width:1.0;" width="10" x="476" y="194.9082"/><rect fill="#FFFFFF" height="225.4844" style="stroke:#181818;stroke-width:1.0;" width="10" x="476" y="677.1875"/><rect fill="#FFFFFF" height="145.5527" style="stroke:#181818;stroke-width:1.0;" width="10" x="689" y="224.2188"/><rect fill="#FFFFFF" height="160.8633" style="stroke:#181818;stroke-width:1.0;" width="10" x="689" y="399.082"/><rect fill="#FFFFFF" height="166.8633" style="stroke:#181818;stroke-width:1.0;" width="10" x="689" y="706.498"/><rect fill="#FFFFFF" height="86.9316" style="stroke:#181818;stroke-width:1.0;" width="10" x="843" y="253.5293"/><rect fill="#FFFFFF" height="102.2422" style="stroke:#181818;stroke-width:1.0;" width="10" x="843" y="428.3926"/><rect fill="#FFFFFF" height="97.5869" style="stroke:#181818;stroke-width:1.0;" width="10" x="843" y="735.8086"/><line style="stroke:#181818;stroke-width:0.5;stroke-dasharray:5.0,5.0;" x1="71" x2="71" y1="118.9766" y2="949.9824"/><line style="stroke:#181818;stroke-width:0.5;stroke-dasharray:5.0,5.0;" x1="344.5" x2="344.5" y1="118.9766" y2="949.9824"/><line style="stroke:#181818;stroke-width:0.5;stroke-dasharray:5.0,5.0;" x1="480.5" x2="480.5" y1="118.9766" y2="949.9824"/><line style="stroke:#181818;stroke-width:0.5;stroke-dasharray:5.0,5.0;" x1="694" x2="694" y1="118.9766" y2="949.9824"/><line style="stroke:#181818;stroke-width:0.5;stroke-dasharray:5.0,5.0;" x1="848" x2="848" y1="118.9766" y2="949.9824"/><text fill="#000000" font-family="sans-serif" font-size="14" lengthAdjust="spacing" textLength="126" x="5" y="116.0234">Gestor de Campus</text><ellipse cx="71" cy="50.9883" fill="#E3E3E3" rx="8" ry="8" style="stroke:#181818;stroke-width:0.5;"/><path d="M71,58.9883 L71,85.9883 M58,66.9883 L84,66.9883 M71,85.9883 L58,100.9883 M71,85.9883 L84,100.9883 " fill="none" style="stroke:#181818;stroke-width:0.5;"/><text fill="#000000" font-family="sans-serif" font-size="14" lengthAdjust="spacing" textLength="126" x="5" y="962.5176">Gestor de Campus</text><ellipse cx="71" cy="973.9707" fill="#E3E3E3" rx="8" ry="8" style="stroke:#181818;stroke-width:0.5;"/><path d="M71,981.9707 L71,1008.9707 M58,989.9707 L84,989.9707 M71,1008.9707 L58,1023.9707 M71,1008.9707 L84,1023.9707 " fill="none" style="stroke:#181818;stroke-width:0.5;"/><rect fill="#E3E3E3" height="46.9766" rx="2.5" ry="2.5" style="stroke:#181818;stroke-width:0.5;" width="119" x="285.5" y="71"/><text fill="#000000" font-family="sans-serif" font-size="14" lengthAdjust="spacing" textLength="105" x="292.5" y="91.5352">&#171;C4:Container&#187;</text><text fill="#000000" font-family="sans-serif" font-size="14" lengthAdjust="spacing" textLength="89" x="300.5" y="108.0234">:Visualiza&#231;&#227;o</text><rect fill="#E3E3E3" height="46.9766" rx="2.5" ry="2.5" style="stroke:#181818;stroke-width:0.5;" width="119" x="285.5" y="948.9824"/><text fill="#000000" font-family="sans-serif" font-size="14" lengthAdjust="spacing" textLength="105" x="292.5" y="969.5176">&#171;C4:Container&#187;</text><text fill="#000000" font-family="sans-serif" font-size="14" lengthAdjust="spacing" textLength="89" x="300.5" y="986.0059">:Visualiza&#231;&#227;o</text><rect fill="#E3E3E3" height="30.4883" rx="2.5" ry="2.5" style="stroke:#181818;stroke-width:0.5;" width="95" x="433.5" y="87.4883"/><text fill="#000000" font-family="sans-serif" font-size="14" lengthAdjust="spacing" textLength="81" x="440.5" y="108.0234">Component</text><rect fill="#E3E3E3" height="30.4883" rx="2.5" ry="2.5" style="stroke:#181818;stroke-width:0.5;" width="95" x="433.5" y="948.9824"/><text fill="#000000" font-family="sans-serif" font-size="14" lengthAdjust="spacing" textLength="81" x="440.5" y="969.5176">Component</text><rect fill="#E3E3E3" height="30.4883" rx="2.5" ry="2.5" style="stroke:#181818;stroke-width:0.5;" width="62" x="663" y="87.4883"/><text fill="#000000" font-family="sans-serif" font-size="14" lengthAdjust="spacing" textLength="48" x="670" y="108.0234">Service</text><rect fill="#E3E3E3" height="30.4883" rx="2.5" ry="2.5" style="stroke:#181818;stroke-width:0.5;" width="62" x="663" y="948.9824"/><text fill="#000000" font-family="sans-serif" font-size="14" lengthAdjust="spacing" textLength="48" x="670" y="969.5176">Service</text><rect fill="#E3E3E3" height="63.4648" rx="2.5" ry="2.5" style="stroke:#181818;stroke-width:0.5;" width="138" x="779" y="54.5117"/><text fill="#000000" font-family="sans-serif" font-size="14" lengthAdjust="spacing" textLength="105" x="795.5" y="75.0469">&#171;C4:Container&#187;</text><text fill="#000000" font-family="sans-serif" font-size="14" lengthAdjust="spacing" textLength="124" x="786" y="91.5352">M&#243;dulo de Gest&#227;o</text><text fill="#000000" font-family="sans-serif" font-size="14" lengthAdjust="spacing" textLength="99" x="798.5" y="108.0234">de Informa&#231;&#227;o</text><rect fill="#E3E3E3" height="63.4648" rx="2.5" ry="2.5" style="stroke:#181818;stroke-width:0.5;" width="138" x="779" y="948.9824"/><text fill="#000000" font-family="sans-serif" font-size="14" lengthAdjust="spacing" textLength="105" x="795.5" y="969.5176">&#171;C4:Container&#187;</text><text fill="#000000" font-family="sans-serif" font-size="14" lengthAdjust="spacing" textLength="124" x="786" y="986.0059">M&#243;dulo de Gest&#227;o</text><text fill="#000000" font-family="sans-serif" font-size="14" lengthAdjust="spacing" textLength="99" x="798.5" y="1002.4941">de Informa&#231;&#227;o</text><rect fill="#FFFFFF" height="812.0059" style="stroke:#181818;stroke-width:1.0;" width="10" x="66" y="128.9766"/><rect fill="#FFFFFF" height="452.9688" style="stroke:#181818;stroke-width:1.0;" width="10" x="340" y="165.5977"/><rect fill="#FFFFFF" height="284.1055" style="stroke:#181818;stroke-width:1.0;" width="10" x="340" y="647.877"/><rect fill="#FFFFFF" height="394.3477" style="stroke:#181818;stroke-width:1.0;" width="10" x="476" y="194.9082"/><rect fill="#FFFFFF" height="225.4844" style="stroke:#181818;stroke-width:1.0;" width="10" x="476" y="677.1875"/><rect fill="#FFFFFF" height="145.5527" style="stroke:#181818;stroke-width:1.0;" width="10" x="689" y="224.2188"/><rect fill="#FFFFFF" height="160.8633" style="stroke:#181818;stroke-width:1.0;" width="10" x="689" y="399.082"/><rect fill="#FFFFFF" height="166.8633" style="stroke:#181818;stroke-width:1.0;" width="10" x="689" y="706.498"/><rect fill="#FFFFFF" height="86.9316" style="stroke:#181818;stroke-width:1.0;" width="10" x="843" y="253.5293"/><rect fill="#FFFFFF" height="102.2422" style="stroke:#181818;stroke-width:1.0;" width="10" x="843" y="428.3926"/><rect fill="#FFFFFF" height="97.5869" style="stroke:#181818;stroke-width:1.0;" width="10" x="843" y="735.8086"/><polygon fill="#181818" points="328,161.5977,338,165.5977,328,169.5977,332,165.5977" style="stroke:#181818;stroke-width:1.0;"/><line style="stroke:#181818;stroke-width:1.0;" x1="76" x2="334" y1="165.5977" y2="165.5977"/><text fill="#000000" font-family="sans-serif" font-size="13" font-weight="bold" lengthAdjust="spacing" textLength="9" x="83" y="153.2002">1</text><text fill="#000000" font-family="sans-serif" font-size="13" lengthAdjust="spacing" textLength="154" x="96" y="145.5449">Inicia opera&#231;&#227;o de editar</text><text fill="#000000" font-family="sans-serif" font-size="13" lengthAdjust="spacing" textLength="97" x="96" y="160.8555">piso de edificio</text><polygon fill="#181818" points="464,190.9082,474,194.9082,464,198.9082,468,194.9082" style="stroke:#181818;stroke-width:1.0;"/><line style="stroke:#181818;stroke-width:1.0;" x1="350" x2="470" y1="194.9082" y2="194.9082"/><text fill="#000000" font-family="sans-serif" font-size="13" font-weight="bold" lengthAdjust="spacing" textLength="9" x="357" y="190.166">2</text><text fill="#000000" font-family="sans-serif" font-size="13" lengthAdjust="spacing" textLength="45" x="370" y="190.166">ngInit()</text><polygon fill="#181818" points="677,220.2188,687,224.2188,677,228.2188,681,224.2188" style="stroke:#181818;stroke-width:1.0;"/><line style="stroke:#181818;stroke-width:1.0;" x1="486" x2="683" y1="224.2188" y2="224.2188"/><text fill="#000000" font-family="sans-serif" font-size="13" font-weight="bold" lengthAdjust="spacing" textLength="9" x="493" y="219.4766">3</text><text fill="#000000" font-family="sans-serif" font-size="13" lengthAdjust="spacing" textLength="86" x="506" y="219.4766">getBuildings()</text><polygon fill="#181818" points="831,249.5293,841,253.5293,831,257.5293,835,253.5293" style="stroke:#181818;stroke-width:1.0;"/><line style="stroke:#181818;stroke-width:1.0;" x1="699" x2="837" y1="253.5293" y2="253.5293"/><text fill="#000000" font-family="sans-serif" font-size="13" font-weight="bold" lengthAdjust="spacing" textLength="9" x="706" y="248.7871">4</text><text fill="#000000" font-family="sans-serif" font-size="13" lengthAdjust="spacing" textLength="86" x="719" y="248.7871">getBuildings()</text><line style="stroke:#181818;stroke-width:1.0;" x1="853" x2="895" y1="298.1504" y2="298.1504"/><line style="stroke:#181818;stroke-width:1.0;" x1="895" x2="895" y1="298.1504" y2="311.1504"/><line style="stroke:#181818;stroke-width:1.0;" x1="854" x2="895" y1="311.1504" y2="311.1504"/><polygon fill="#181818" points="864,307.1504,854,311.1504,864,315.1504,860,311.1504" style="stroke:#181818;stroke-width:1.0;"/><text fill="#000000" font-family="sans-serif" font-size="13" font-weight="bold" lengthAdjust="spacing" textLength="9" x="860" y="285.7529">5</text><text fill="#000000" font-family="sans-serif" font-size="13" lengthAdjust="spacing" textLength="137" x="873" y="278.0977">middleware.rolecheck</text><text fill="#000000" font-family="sans-serif" font-size="13" lengthAdjust="spacing" textLength="202" x="873" y="293.4082">("Admin" || "Gestor de Campus")</text><polygon fill="#181818" points="710,336.4609,700,340.4609,710,344.4609,706,340.4609" style="stroke:#181818;stroke-width:1.0;"/><line style="stroke:#181818;stroke-width:1.0;stroke-dasharray:2.0,2.0;" x1="704" x2="847" y1="340.4609" y2="340.4609"/><text fill="#000000" font-family="sans-serif" font-size="13" font-weight="bold" lengthAdjust="spacing" textLength="9" x="716" y="335.7188">6</text><text fill="#000000" font-family="sans-serif" font-size="13" lengthAdjust="spacing" textLength="107" x="729" y="335.7188">Lista de edif&#237;cios</text><polygon fill="#181818" points="497,365.7715,487,369.7715,497,373.7715,493,369.7715" style="stroke:#181818;stroke-width:1.0;"/><line style="stroke:#181818;stroke-width:1.0;stroke-dasharray:2.0,2.0;" x1="491" x2="693" y1="369.7715" y2="369.7715"/><text fill="#000000" font-family="sans-serif" font-size="13" font-weight="bold" lengthAdjust="spacing" textLength="9" x="503" y="365.0293">7</text><text fill="#000000" font-family="sans-serif" font-size="13" lengthAdjust="spacing" textLength="107" x="516" y="365.0293">Lista de edif&#237;cios</text><polygon fill="#181818" points="677,395.082,687,399.082,677,403.082,681,399.082" style="stroke:#181818;stroke-width:1.0;"/><line style="stroke:#181818;stroke-width:1.0;" x1="486" x2="683" y1="399.082" y2="399.082"/><text fill="#000000" font-family="sans-serif" font-size="13" font-weight="bold" lengthAdjust="spacing" textLength="9" x="493" y="394.3398">8</text><text fill="#000000" font-family="sans-serif" font-size="13" lengthAdjust="spacing" textLength="67" x="506" y="394.3398">getFloors()</text><polygon fill="#181818" points="831,424.3926,841,428.3926,831,432.3926,835,428.3926" style="stroke:#181818;stroke-width:1.0;"/><line style="stroke:#181818;stroke-width:1.0;" x1="699" x2="837" y1="428.3926" y2="428.3926"/><text fill="#000000" font-family="sans-serif" font-size="13" font-weight="bold" lengthAdjust="spacing" textLength="9" x="706" y="423.6504">9</text><text fill="#000000" font-family="sans-serif" font-size="13" lengthAdjust="spacing" textLength="67" x="719" y="423.6504">getFloors()</text><line style="stroke:#181818;stroke-width:1.0;" x1="853" x2="895" y1="473.0137" y2="473.0137"/><line style="stroke:#181818;stroke-width:1.0;" x1="895" x2="895" y1="473.0137" y2="486.0137"/><line style="stroke:#181818;stroke-width:1.0;" x1="854" x2="895" y1="486.0137" y2="486.0137"/><polygon fill="#181818" points="864,482.0137,854,486.0137,864,490.0137,860,486.0137" style="stroke:#181818;stroke-width:1.0;"/><text fill="#000000" font-family="sans-serif" font-size="13" font-weight="bold" lengthAdjust="spacing" textLength="18" x="860" y="460.6162">10</text><text fill="#000000" font-family="sans-serif" font-size="13" lengthAdjust="spacing" textLength="137" x="882" y="452.9609">middleware.rolecheck</text><text fill="#000000" font-family="sans-serif" font-size="13" lengthAdjust="spacing" textLength="202" x="882" y="468.2715">("Admin" || "Gestor de Campus")</text><polygon fill="#181818" points="710,526.6348,700,530.6348,710,534.6348,706,530.6348" style="stroke:#181818;stroke-width:1.0;"/><line style="stroke:#181818;stroke-width:1.0;stroke-dasharray:2.0,2.0;" x1="704" x2="847" y1="530.6348" y2="530.6348"/><text fill="#000000" font-family="sans-serif" font-size="13" font-weight="bold" lengthAdjust="spacing" textLength="18" x="716" y="518.2373">11</text><text fill="#000000" font-family="sans-serif" font-size="13" lengthAdjust="spacing" textLength="87" x="738" y="510.582">Lista de pisos</text><text fill="#000000" font-family="sans-serif" font-size="13" lengthAdjust="spacing" textLength="66" x="738" y="525.8926">de edificio</text><polygon fill="#181818" points="497,555.9453,487,559.9453,497,563.9453,493,559.9453" style="stroke:#181818;stroke-width:1.0;"/><line style="stroke:#181818;stroke-width:1.0;stroke-dasharray:2.0,2.0;" x1="491" x2="693" y1="559.9453" y2="559.9453"/><text fill="#000000" font-family="sans-serif" font-size="13" font-weight="bold" lengthAdjust="spacing" textLength="18" x="503" y="555.2031">12</text><text fill="#000000" font-family="sans-serif" font-size="13" lengthAdjust="spacing" textLength="157" x="525" y="555.2031">Lista de pisos de edificio</text><polygon fill="#181818" points="361,585.2559,351,589.2559,361,593.2559,357,589.2559" style="stroke:#181818;stroke-width:1.0;"/><line style="stroke:#181818;stroke-width:1.0;stroke-dasharray:2.0,2.0;" x1="355" x2="480" y1="589.2559" y2="589.2559"/><text fill="#000000" font-family="sans-serif" font-size="13" font-weight="bold" lengthAdjust="spacing" textLength="18" x="367" y="584.5137">13</text><text fill="#000000" font-family="sans-serif" font-size="13" lengthAdjust="spacing" textLength="37" x="389" y="584.5137">floors</text><polygon fill="#181818" points="87,614.5664,77,618.5664,87,622.5664,83,618.5664" style="stroke:#181818;stroke-width:1.0;"/><line style="stroke:#181818;stroke-width:1.0;stroke-dasharray:2.0,2.0;" x1="81" x2="344" y1="618.5664" y2="618.5664"/><text fill="#000000" font-family="sans-serif" font-size="13" font-weight="bold" lengthAdjust="spacing" textLength="18" x="93" y="613.8242">14</text><text fill="#000000" font-family="sans-serif" font-size="13" lengthAdjust="spacing" textLength="218" x="115" y="613.8242">Solicita dados que pretende mudar</text><polygon fill="#181818" points="328,643.877,338,647.877,328,651.877,332,647.877" style="stroke:#181818;stroke-width:1.0;"/><line style="stroke:#181818;stroke-width:1.0;" x1="76" x2="334" y1="647.877" y2="647.877"/><text fill="#000000" font-family="sans-serif" font-size="13" font-weight="bold" lengthAdjust="spacing" textLength="18" x="83" y="643.1348">15</text><text fill="#000000" font-family="sans-serif" font-size="13" lengthAdjust="spacing" textLength="168" x="105" y="643.1348">Introduz dados solicitados</text><polygon fill="#181818" points="464,673.1875,474,677.1875,464,681.1875,468,677.1875" style="stroke:#181818;stroke-width:1.0;"/><line style="stroke:#181818;stroke-width:1.0;" x1="350" x2="470" y1="677.1875" y2="677.1875"/><text fill="#000000" font-family="sans-serif" font-size="13" font-weight="bold" lengthAdjust="spacing" textLength="18" x="357" y="672.4453">16</text><text fill="#000000" font-family="sans-serif" font-size="13" lengthAdjust="spacing" textLength="81" x="379" y="672.4453">update(floor)</text><polygon fill="#181818" points="677,702.498,687,706.498,677,710.498,681,706.498" style="stroke:#181818;stroke-width:1.0;"/><line style="stroke:#181818;stroke-width:1.0;" x1="486" x2="683" y1="706.498" y2="706.498"/><text fill="#000000" font-family="sans-serif" font-size="13" font-weight="bold" lengthAdjust="spacing" textLength="18" x="493" y="701.7559">17</text><text fill="#000000" font-family="sans-serif" font-size="13" lengthAdjust="spacing" textLength="81" x="515" y="701.7559">update(floor)</text><polygon fill="#181818" points="831,731.8086,841,735.8086,831,739.8086,835,735.8086" style="stroke:#181818;stroke-width:1.0;"/><line style="stroke:#181818;stroke-width:1.0;" x1="699" x2="837" y1="735.8086" y2="735.8086"/><text fill="#000000" font-family="sans-serif" font-size="13" font-weight="bold" lengthAdjust="spacing" textLength="18" x="706" y="731.0664">18</text><text fill="#000000" font-family="sans-serif" font-size="13" lengthAdjust="spacing" textLength="81" x="728" y="731.0664">update(floor)</text><line style="stroke:#181818;stroke-width:1.0;" x1="853" x2="895" y1="780.4297" y2="780.4297"/><line style="stroke:#181818;stroke-width:1.0;" x1="895" x2="895" y1="780.4297" y2="793.4297"/><line style="stroke:#181818;stroke-width:1.0;" x1="854" x2="895" y1="793.4297" y2="793.4297"/><polygon fill="#181818" points="864,789.4297,854,793.4297,864,797.4297,860,793.4297" style="stroke:#181818;stroke-width:1.0;"/><text fill="#000000" font-family="sans-serif" font-size="13" font-weight="bold" lengthAdjust="spacing" textLength="18" x="860" y="768.0322">19</text><text fill="#000000" font-family="sans-serif" font-size="13" lengthAdjust="spacing" textLength="137" x="882" y="760.377">middleware.rolecheck</text><text fill="#000000" font-family="sans-serif" font-size="13" lengthAdjust="spacing" textLength="202" x="882" y="775.6875">("Admin" || "Gestor de Campus")</text><polygon fill="#181818" points="710,829.3955,700,833.3955,710,837.3955,706,833.3955" style="stroke:#181818;stroke-width:1.0;"/><line style="stroke:#181818;stroke-width:1.0;stroke-dasharray:2.0,2.0;" x1="704" x2="847" y1="833.3955" y2="833.3955"/><text fill="#000000" font-family="sans-serif" font-size="13" font-weight="bold" lengthAdjust="spacing" textLength="18" x="716" y="828.6533">20</text><text fill="#000000" font-family="sans-serif" font-size="13" lengthAdjust="spacing" textLength="80" x="738" y="828.6533">200 OK floor</text><path d="M858,806.4297 L858,846.4297 L1086,846.4297 L1086,816.4297 L1076,806.4297 L858,806.4297 " fill="#FAFAFA" style="stroke:#181818;stroke-width:0.5;"/><path d="M1076,806.4297 L1076,816.4297 L1086,816.4297 L1076,806.4297 " fill="#FAFAFA" style="stroke:#181818;stroke-width:0.5;"/><text fill="#000000" font-family="sans-serif" font-size="13" lengthAdjust="spacing" textLength="207" x="864" y="823.998">M&#243;dulo de Gest&#227;o de Informa&#231;&#227;o</text><text fill="#000000" font-family="sans-serif" font-size="13" lengthAdjust="spacing" textLength="184" x="864" y="839.3086">&#233; a representa&#231;&#227;o do Sprint A</text><polygon fill="#181818" points="497,869.3613,487,873.3613,497,877.3613,493,873.3613" style="stroke:#181818;stroke-width:1.0;"/><line style="stroke:#181818;stroke-width:1.0;stroke-dasharray:2.0,2.0;" x1="491" x2="693" y1="873.3613" y2="873.3613"/><text fill="#000000" font-family="sans-serif" font-size="13" font-weight="bold" lengthAdjust="spacing" textLength="18" x="503" y="868.6191">21</text><text fill="#000000" font-family="sans-serif" font-size="13" lengthAdjust="spacing" textLength="80" x="525" y="868.6191">200 OK floor</text><polygon fill="#181818" points="361,898.6719,351,902.6719,361,906.6719,357,902.6719" style="stroke:#181818;stroke-width:1.0;"/><line style="stroke:#181818;stroke-width:1.0;stroke-dasharray:2.0,2.0;" x1="355" x2="480" y1="902.6719" y2="902.6719"/><text fill="#000000" font-family="sans-serif" font-size="13" font-weight="bold" lengthAdjust="spacing" textLength="18" x="367" y="897.9297">22</text><text fill="#000000" font-family="sans-serif" font-size="13" lengthAdjust="spacing" textLength="80" x="389" y="897.9297">200 OK floor</text><polygon fill="#181818" points="87,927.9824,77,931.9824,87,935.9824,83,931.9824" style="stroke:#181818;stroke-width:1.0;"/><line style="stroke:#181818;stroke-width:1.0;stroke-dasharray:2.0,2.0;" x1="81" x2="344" y1="931.9824" y2="931.9824"/><text fill="#000000" font-family="sans-serif" font-size="13" font-weight="bold" lengthAdjust="spacing" textLength="18" x="93" y="927.2402">23</text><text fill="#000000" font-family="sans-serif" font-size="13" lengthAdjust="spacing" textLength="141" x="115" y="927.2402">Mensagem de sucesso</text><!--SRC=[xLQxRjim5Dtr5HUQxC65-m0A28Q1n46Be4qx2EtaXHMlPS8YgVAHe47-faFHeLC_mJ-MAyMIrTYAPSVfb8a4UH-7buVdqYw4ofbX4gHMEfaRBH6SyHZOUYTdoOAb6BiV6OB1n36LPaq3EsTSNmcLmenb5eF02KUc4wqS4meDnFZTeqeGpWHB2uzUVDQ70No9NmxV3g7twNK_29XtMddv3GtD4wSDXE_H5YEdM4pcteRbZhXa3hTjRYx1O0pXQ3Hv4zLWnkEfYhuAwrachjdor_Ad3YCuLo8H37IEvcwj289SE6PWgd9XguKPsUa6Yjt1Wmus1Sw9bhbMg5m4AYKyhjTVvwatWtfM-CHeBaM24QJeJht8E5s2RVgj38BLs5AFY-LVxhFoY4K92T5KqVnSpRIH5SJs90T630v5SlWX8f22ymolcC4NHcUOp35PJ5KlFE5Ig11kRhOGgtyuqlKTKVq-2kjOnQFb7oAI3JW-keprtJP9j3jTHOrMGhtBj3PFogRD3CzKsfDAXJJPqhmMf_z1gJ8jj6IjQDAaLZSXfXIpaXFDS6ljwoQbHQgDmaSGwuo05l2fMrcWZWIvGOV5wQNdpEmet8QkFwxVEAEvlrw1iIjiD7_Qta85zZcdwBsopfqxJBlVKJNXtnpFih2NB4JmQZY4pn_kdb1m31rGcfoDIEVqATbqW7lsKxNy3Oo-YFIkBF6d-abfY7CZY4ydsuNb7l27UrHd8McBkIRw4GgqHG96Wq4t3RX0PUbVBGjdwnEqLkyhGRS0]--></g></svg>