<?xml version="1.0" encoding="us-ascii" standalone="no"?><svg xmlns="http://www.w3.org/2000/svg" xmlns:xlink="http://www.w3.org/1999/xlink" contentStyleType="text/css" height="528px" preserveAspectRatio="none" style="width:655px;height:528px;background:#FFFFFF;" version="1.1" viewBox="0 0 655 528" width="655px" zoomAndPan="magnify"><defs/><g><text fill="#000000" font-family="sans-serif" font-size="14" font-weight="bold" lengthAdjust="spacing" textLength="357" x="148" y="28.5352">Container Sequence Diagram (SSD) - US1110 (N2)</text><rect fill="#FFFFFF" height="300.416" style="stroke:#181818;stroke-width:1.0;" width="10" x="66" y="128.9766"/><rect fill="#FFFFFF" height="146.5527" style="stroke:#181818;stroke-width:1.0;" width="10" x="426" y="150.2871"/><rect fill="#FFFFFF" height="103.2422" style="stroke:#181818;stroke-width:1.0;" width="10" x="426" y="326.1504"/><rect fill="#FFFFFF" height="29.3105" style="stroke:#181818;stroke-width:1.0;" width="10" x="575" y="179.5977"/><rect fill="#FFFFFF" height="29.3105" style="stroke:#181818;stroke-width:1.0;" width="10" x="575" y="238.2188"/><rect fill="#FFFFFF" height="29.3105" style="stroke:#181818;stroke-width:1.0;" width="10" x="575" y="355.4609"/><line style="stroke:#181818;stroke-width:0.5;stroke-dasharray:5.0,5.0;" x1="71" x2="71" y1="118.9766" y2="447.3926"/><line style="stroke:#181818;stroke-width:0.5;stroke-dasharray:5.0,5.0;" x1="430.5" x2="430.5" y1="118.9766" y2="447.3926"/><line style="stroke:#181818;stroke-width:0.5;stroke-dasharray:5.0,5.0;" x1="580" x2="580" y1="118.9766" y2="447.3926"/><text fill="#000000" font-family="sans-serif" font-size="14" lengthAdjust="spacing" textLength="126" x="5" y="116.0234">Gestor de Campus</text><ellipse cx="71" cy="50.9883" fill="#E3E3E3" rx="8" ry="8" style="stroke:#181818;stroke-width:0.5;"/><path d="M71,58.9883 L71,85.9883 M58,66.9883 L84,66.9883 M71,85.9883 L58,100.9883 M71,85.9883 L84,100.9883 " fill="none" style="stroke:#181818;stroke-width:0.5;"/><text fill="#000000" font-family="sans-serif" font-size="14" lengthAdjust="spacing" textLength="126" x="5" y="459.9277">Gestor de Campus</text><ellipse cx="71" cy="471.3809" fill="#E3E3E3" rx="8" ry="8" style="stroke:#181818;stroke-width:0.5;"/><path d="M71,479.3809 L71,506.3809 M58,487.3809 L84,487.3809 M71,506.3809 L58,521.3809 M71,506.3809 L84,521.3809 " fill="none" style="stroke:#181818;stroke-width:0.5;"/><rect fill="#E3E3E3" height="46.9766" rx="2.5" ry="2.5" style="stroke:#181818;stroke-width:0.5;" width="119" x="371.5" y="71"/><text fill="#000000" font-family="sans-serif" font-size="14" lengthAdjust="spacing" textLength="105" x="378.5" y="91.5352">&#171;C4:Container&#187;</text><text fill="#000000" font-family="sans-serif" font-size="14" lengthAdjust="spacing" textLength="89" x="386.5" y="108.0234">:Visualiza&#231;&#227;o</text><rect fill="#E3E3E3" height="46.9766" rx="2.5" ry="2.5" style="stroke:#181818;stroke-width:0.5;" width="119" x="371.5" y="446.3926"/><text fill="#000000" font-family="sans-serif" font-size="14" lengthAdjust="spacing" textLength="105" x="378.5" y="466.9277">&#171;C4:Container&#187;</text><text fill="#000000" font-family="sans-serif" font-size="14" lengthAdjust="spacing" textLength="89" x="386.5" y="483.416">:Visualiza&#231;&#227;o</text><rect fill="#E3E3E3" height="63.4648" rx="2.5" ry="2.5" style="stroke:#181818;stroke-width:0.5;" width="138" x="511" y="54.5117"/><text fill="#000000" font-family="sans-serif" font-size="14" lengthAdjust="spacing" textLength="105" x="527.5" y="75.0469">&#171;C4:Container&#187;</text><text fill="#000000" font-family="sans-serif" font-size="14" lengthAdjust="spacing" textLength="124" x="518" y="91.5352">M&#243;dulo de Gest&#227;o</text><text fill="#000000" font-family="sans-serif" font-size="14" lengthAdjust="spacing" textLength="99" x="530.5" y="108.0234">de Informa&#231;&#227;o</text><rect fill="#E3E3E3" height="63.4648" rx="2.5" ry="2.5" style="stroke:#181818;stroke-width:0.5;" width="138" x="511" y="446.3926"/><text fill="#000000" font-family="sans-serif" font-size="14" lengthAdjust="spacing" textLength="105" x="527.5" y="466.9277">&#171;C4:Container&#187;</text><text fill="#000000" font-family="sans-serif" font-size="14" lengthAdjust="spacing" textLength="124" x="518" y="483.416">M&#243;dulo de Gest&#227;o</text><text fill="#000000" font-family="sans-serif" font-size="14" lengthAdjust="spacing" textLength="99" x="530.5" y="499.9043">de Informa&#231;&#227;o</text><rect fill="#FFFFFF" height="300.416" style="stroke:#181818;stroke-width:1.0;" width="10" x="66" y="128.9766"/><rect fill="#FFFFFF" height="146.5527" style="stroke:#181818;stroke-width:1.0;" width="10" x="426" y="150.2871"/><rect fill="#FFFFFF" height="103.2422" style="stroke:#181818;stroke-width:1.0;" width="10" x="426" y="326.1504"/><rect fill="#FFFFFF" height="29.3105" style="stroke:#181818;stroke-width:1.0;" width="10" x="575" y="179.5977"/><rect fill="#FFFFFF" height="29.3105" style="stroke:#181818;stroke-width:1.0;" width="10" x="575" y="238.2188"/><rect fill="#FFFFFF" height="29.3105" style="stroke:#181818;stroke-width:1.0;" width="10" x="575" y="355.4609"/><polygon fill="#181818" points="414,146.2871,424,150.2871,414,154.2871,418,150.2871" style="stroke:#181818;stroke-width:1.0;"/><line style="stroke:#181818;stroke-width:1.0;" x1="76" x2="420" y1="150.2871" y2="150.2871"/><text fill="#000000" font-family="sans-serif" font-size="13" font-weight="bold" lengthAdjust="spacing" textLength="9" x="83" y="145.5449">1</text><text fill="#000000" font-family="sans-serif" font-size="13" lengthAdjust="spacing" textLength="255" x="96" y="145.5449">Inicia opera&#231;&#227;o de editar piso de edif&#237;cio</text><polygon fill="#181818" points="563,175.5977,573,179.5977,563,183.5977,567,179.5977" style="stroke:#181818;stroke-width:1.0;"/><line style="stroke:#181818;stroke-width:1.0;" x1="436" x2="569" y1="179.5977" y2="179.5977"/><text fill="#000000" font-family="sans-serif" font-size="13" font-weight="bold" lengthAdjust="spacing" textLength="9" x="443" y="174.8555">2</text><text fill="#000000" font-family="sans-serif" font-size="13" lengthAdjust="spacing" textLength="101" x="456" y="174.8555">GET /buildings/</text><polygon fill="#181818" points="447,204.9082,437,208.9082,447,212.9082,443,208.9082" style="stroke:#181818;stroke-width:1.0;"/><line style="stroke:#181818;stroke-width:1.0;" x1="441" x2="579" y1="208.9082" y2="208.9082"/><text fill="#000000" font-family="sans-serif" font-size="13" font-weight="bold" lengthAdjust="spacing" textLength="9" x="453" y="204.166">3</text><text fill="#000000" font-family="sans-serif" font-size="13" lengthAdjust="spacing" textLength="102" x="466" y="204.166">200 OK building</text><polygon fill="#181818" points="563,234.2188,573,238.2188,563,242.2188,567,238.2188" style="stroke:#181818;stroke-width:1.0;"/><line style="stroke:#181818;stroke-width:1.0;" x1="436" x2="569" y1="238.2188" y2="238.2188"/><text fill="#000000" font-family="sans-serif" font-size="13" font-weight="bold" lengthAdjust="spacing" textLength="9" x="443" y="233.4766">4</text><text fill="#000000" font-family="sans-serif" font-size="13" lengthAdjust="spacing" textLength="79" x="456" y="233.4766">GET /floors/</text><polygon fill="#181818" points="447,263.5293,437,267.5293,447,271.5293,443,267.5293" style="stroke:#181818;stroke-width:1.0;"/><line style="stroke:#181818;stroke-width:1.0;" x1="441" x2="579" y1="267.5293" y2="267.5293"/><text fill="#000000" font-family="sans-serif" font-size="13" font-weight="bold" lengthAdjust="spacing" textLength="9" x="453" y="262.7871">5</text><text fill="#000000" font-family="sans-serif" font-size="13" lengthAdjust="spacing" textLength="80" x="466" y="262.7871">200 OK floor</text><polygon fill="#181818" points="87,292.8398,77,296.8398,87,300.8398,83,296.8398" style="stroke:#181818;stroke-width:1.0;"/><line style="stroke:#181818;stroke-width:1.0;stroke-dasharray:2.0,2.0;" x1="81" x2="430" y1="296.8398" y2="296.8398"/><text fill="#000000" font-family="sans-serif" font-size="13" font-weight="bold" lengthAdjust="spacing" textLength="9" x="93" y="292.0977">6</text><text fill="#000000" font-family="sans-serif" font-size="13" lengthAdjust="spacing" textLength="159" x="106" y="292.0977">Solicita dados necess&#225;rio</text><polygon fill="#181818" points="414,322.1504,424,326.1504,414,330.1504,418,326.1504" style="stroke:#181818;stroke-width:1.0;"/><line style="stroke:#181818;stroke-width:1.0;" x1="76" x2="420" y1="326.1504" y2="326.1504"/><text fill="#000000" font-family="sans-serif" font-size="13" font-weight="bold" lengthAdjust="spacing" textLength="9" x="83" y="321.4082">7</text><text fill="#000000" font-family="sans-serif" font-size="13" lengthAdjust="spacing" textLength="168" x="96" y="321.4082">Introduz dados solicitados</text><polygon fill="#181818" points="563,351.4609,573,355.4609,563,359.4609,567,355.4609" style="stroke:#181818;stroke-width:1.0;"/><line style="stroke:#181818;stroke-width:1.0;stroke-dasharray:2.0,2.0;" x1="436" x2="569" y1="355.4609" y2="355.4609"/><text fill="#000000" font-family="sans-serif" font-size="13" font-weight="bold" lengthAdjust="spacing" textLength="9" x="443" y="350.7188">8</text><text fill="#000000" font-family="sans-serif" font-size="13" lengthAdjust="spacing" textLength="79" x="456" y="350.7188">PUT /floors/</text><polygon fill="#181818" points="447,380.7715,437,384.7715,447,388.7715,443,384.7715" style="stroke:#181818;stroke-width:1.0;"/><line style="stroke:#181818;stroke-width:1.0;stroke-dasharray:2.0,2.0;" x1="441" x2="579" y1="384.7715" y2="384.7715"/><text fill="#000000" font-family="sans-serif" font-size="13" font-weight="bold" lengthAdjust="spacing" textLength="9" x="453" y="380.0293">9</text><text fill="#000000" font-family="sans-serif" font-size="13" lengthAdjust="spacing" textLength="80" x="466" y="380.0293">200 OK floor</text><polygon fill="#181818" points="82,425.3926,72,429.3926,82,433.3926,78,429.3926" style="stroke:#181818;stroke-width:1.0;"/><line style="stroke:#181818;stroke-width:1.0;stroke-dasharray:2.0,2.0;" x1="76" x2="430" y1="429.3926" y2="429.3926"/><text fill="#000000" font-family="sans-serif" font-size="13" font-weight="bold" lengthAdjust="spacing" textLength="18" x="88" y="416.9951">10</text><text fill="#000000" font-family="sans-serif" font-size="13" lengthAdjust="spacing" textLength="304" x="110" y="409.3398">Mostra piso de edif&#237;cio que acaba de ser editado</text><text fill="#000000" font-family="sans-serif" font-size="13" lengthAdjust="spacing" textLength="134" x="110" y="424.6504">e os seus parametros</text><!--SRC=[rPKxJyCm483t_8fJftQe-X1JLNK1X13Y8GMOMAxsjLXDxE2pGVJV80Oc9dv2_XXEA5Mby0YKvnJdxdp-VBu7pvJEq68AgT56d5kJ4ZZhAUAb9aCnmod5xZeXi2GSwccoQi3dACsLqbEOOC8KHKwvOBffj4EboK9C5vwq8DXIE2rsDEDugmLjE8bxlLuNcWVzLXIXTqRxT4msh8Kp5XexnCLN1cUOPfuRfKPTegENb5KHj4VG60utDmPBcj7eJ0zE5NjCr1ppk_pMD0QmgvLG22OZ-oGhd91K3YraYfz_9_czK6O5udtVKGsRLp3tymVfa_BiucR1yao7zQwU69ikqNUsZw4pzYgHuGcuyoPS7O_H9_VLZdM_suN3FNX6ZYIjZVmpGPuanjX_5E6Izol2Mokw1Lob00SGcoIKbaEGeKimQ1B4dD_OK4PlarKAQRtwTjP8FrzGy08ghB-XcDT9jAEJFv5elvPfrISUjjlrMFODEulLTWrX-W0A76CXvZ2GoiOkm_a4HJAGPoX76OKauO-cvQfvTIOz0W00]--></g></svg>