<?xml version="1.0" encoding="us-ascii" standalone="no"?><svg xmlns="http://www.w3.org/2000/svg" xmlns:xlink="http://www.w3.org/1999/xlink" contentStyleType="text/css" height="886px" preserveAspectRatio="none" style="width:1206px;height:886px;background:#FFFFFF;" version="1.1" viewBox="0 0 1206 886" width="1206px" zoomAndPan="magnify"><defs/><g><text fill="#000000" font-family="sans-serif" font-size="14" font-weight="bold" lengthAdjust="spacing" textLength="349" x="429.5" y="28.5352">Container Sequence Diagram (SD) - US1190 (N3)</text><rect fill="#FFFFFF" height="667.1426" style="stroke:#181818;stroke-width:1.0;" width="10" x="66" y="128.9766"/><rect fill="#FFFFFF" height="488.9688" style="stroke:#181818;stroke-width:1.0;" width="10" x="361" y="165.5977"/><rect fill="#FFFFFF" height="103.2422" style="stroke:#181818;stroke-width:1.0;" width="10" x="361" y="683.877"/><rect fill="#FFFFFF" height="430.3477" style="stroke:#181818;stroke-width:1.0;" width="10" x="606" y="194.9082"/><rect fill="#FFFFFF" height="29.3105" style="stroke:#181818;stroke-width:1.0;" width="10" x="606" y="713.1875"/><rect fill="#FFFFFF" height="145.5527" style="stroke:#181818;stroke-width:1.0;" width="10" x="781" y="254.2188"/><rect fill="#FFFFFF" height="166.8633" style="stroke:#181818;stroke-width:1.0;" width="10" x="781" y="429.082"/><rect fill="#FFFFFF" height="86.9316" style="stroke:#181818;stroke-width:1.0;" width="10" x="956" y="283.5293"/><rect fill="#FFFFFF" height="97.5869" style="stroke:#181818;stroke-width:1.0;" width="10" x="956" y="458.3926"/><line style="stroke:#181818;stroke-width:0.5;stroke-dasharray:5.0,5.0;" x1="71" x2="71" y1="118.9766" y2="805.1191"/><line style="stroke:#181818;stroke-width:0.5;stroke-dasharray:5.0,5.0;" x1="365.5" x2="365.5" y1="118.9766" y2="805.1191"/><line style="stroke:#181818;stroke-width:0.5;stroke-dasharray:5.0,5.0;" x1="610.5" x2="610.5" y1="118.9766" y2="805.1191"/><line style="stroke:#181818;stroke-width:0.5;stroke-dasharray:5.0,5.0;" x1="786" x2="786" y1="118.9766" y2="805.1191"/><line style="stroke:#181818;stroke-width:0.5;stroke-dasharray:5.0,5.0;" x1="961" x2="961" y1="118.9766" y2="805.1191"/><text fill="#000000" font-family="sans-serif" font-size="14" lengthAdjust="spacing" textLength="126" x="5" y="116.0234">Gestor de Campus</text><ellipse cx="71" cy="50.9883" fill="#E3E3E3" rx="8" ry="8" style="stroke:#181818;stroke-width:0.5;"/><path d="M71,58.9883 L71,85.9883 M58,66.9883 L84,66.9883 M71,85.9883 L58,100.9883 M71,85.9883 L84,100.9883 " fill="none" style="stroke:#181818;stroke-width:0.5;"/><text fill="#000000" font-family="sans-serif" font-size="14" lengthAdjust="spacing" textLength="126" x="5" y="817.6543">Gestor de Campus</text><ellipse cx="71" cy="829.1074" fill="#E3E3E3" rx="8" ry="8" style="stroke:#181818;stroke-width:0.5;"/><path d="M71,837.1074 L71,864.1074 M58,845.1074 L84,845.1074 M71,864.1074 L58,879.1074 M71,864.1074 L84,879.1074 " fill="none" style="stroke:#181818;stroke-width:0.5;"/><rect fill="#E3E3E3" height="46.9766" rx="2.5" ry="2.5" style="stroke:#181818;stroke-width:0.5;" width="119" x="306.5" y="71"/><text fill="#000000" font-family="sans-serif" font-size="14" lengthAdjust="spacing" textLength="105" x="313.5" y="91.5352">&#171;C4:Container&#187;</text><text fill="#000000" font-family="sans-serif" font-size="14" lengthAdjust="spacing" textLength="89" x="321.5" y="108.0234">:Visualiza&#231;&#227;o</text><rect fill="#E3E3E3" height="46.9766" rx="2.5" ry="2.5" style="stroke:#181818;stroke-width:0.5;" width="119" x="306.5" y="804.1191"/><text fill="#000000" font-family="sans-serif" font-size="14" lengthAdjust="spacing" textLength="105" x="313.5" y="824.6543">&#171;C4:Container&#187;</text><text fill="#000000" font-family="sans-serif" font-size="14" lengthAdjust="spacing" textLength="89" x="321.5" y="841.1426">:Visualiza&#231;&#227;o</text><rect fill="#E3E3E3" height="30.4883" rx="2.5" ry="2.5" style="stroke:#181818;stroke-width:0.5;" width="95" x="563.5" y="87.4883"/><text fill="#000000" font-family="sans-serif" font-size="14" lengthAdjust="spacing" textLength="81" x="570.5" y="108.0234">Component</text><rect fill="#E3E3E3" height="30.4883" rx="2.5" ry="2.5" style="stroke:#181818;stroke-width:0.5;" width="95" x="563.5" y="804.1191"/><text fill="#000000" font-family="sans-serif" font-size="14" lengthAdjust="spacing" textLength="81" x="570.5" y="824.6543">Component</text><rect fill="#E3E3E3" height="30.4883" rx="2.5" ry="2.5" style="stroke:#181818;stroke-width:0.5;" width="62" x="755" y="87.4883"/><text fill="#000000" font-family="sans-serif" font-size="14" lengthAdjust="spacing" textLength="48" x="762" y="108.0234">Service</text><rect fill="#E3E3E3" height="30.4883" rx="2.5" ry="2.5" style="stroke:#181818;stroke-width:0.5;" width="62" x="755" y="804.1191"/><text fill="#000000" font-family="sans-serif" font-size="14" lengthAdjust="spacing" textLength="48" x="762" y="824.6543">Service</text><rect fill="#E3E3E3" height="63.4648" rx="2.5" ry="2.5" style="stroke:#181818;stroke-width:0.5;" width="138" x="892" y="54.5117"/><text fill="#000000" font-family="sans-serif" font-size="14" lengthAdjust="spacing" textLength="105" x="908.5" y="75.0469">&#171;C4:Container&#187;</text><text fill="#000000" font-family="sans-serif" font-size="14" lengthAdjust="spacing" textLength="124" x="899" y="91.5352">M&#243;dulo de Gest&#227;o</text><text fill="#000000" font-family="sans-serif" font-size="14" lengthAdjust="spacing" textLength="99" x="911.5" y="108.0234">de Informa&#231;&#227;o</text><rect fill="#E3E3E3" height="63.4648" rx="2.5" ry="2.5" style="stroke:#181818;stroke-width:0.5;" width="138" x="892" y="804.1191"/><text fill="#000000" font-family="sans-serif" font-size="14" lengthAdjust="spacing" textLength="105" x="908.5" y="824.6543">&#171;C4:Container&#187;</text><text fill="#000000" font-family="sans-serif" font-size="14" lengthAdjust="spacing" textLength="124" x="899" y="841.1426">M&#243;dulo de Gest&#227;o</text><text fill="#000000" font-family="sans-serif" font-size="14" lengthAdjust="spacing" textLength="99" x="911.5" y="857.6309">de Informa&#231;&#227;o</text><rect fill="#FFFFFF" height="667.1426" style="stroke:#181818;stroke-width:1.0;" width="10" x="66" y="128.9766"/><rect fill="#FFFFFF" height="488.9688" style="stroke:#181818;stroke-width:1.0;" width="10" x="361" y="165.5977"/><rect fill="#FFFFFF" height="103.2422" style="stroke:#181818;stroke-width:1.0;" width="10" x="361" y="683.877"/><rect fill="#FFFFFF" height="430.3477" style="stroke:#181818;stroke-width:1.0;" width="10" x="606" y="194.9082"/><rect fill="#FFFFFF" height="29.3105" style="stroke:#181818;stroke-width:1.0;" width="10" x="606" y="713.1875"/><rect fill="#FFFFFF" height="145.5527" style="stroke:#181818;stroke-width:1.0;" width="10" x="781" y="254.2188"/><rect fill="#FFFFFF" height="166.8633" style="stroke:#181818;stroke-width:1.0;" width="10" x="781" y="429.082"/><rect fill="#FFFFFF" height="86.9316" style="stroke:#181818;stroke-width:1.0;" width="10" x="956" y="283.5293"/><rect fill="#FFFFFF" height="97.5869" style="stroke:#181818;stroke-width:1.0;" width="10" x="956" y="458.3926"/><polygon fill="#181818" points="349,161.5977,359,165.5977,349,169.5977,353,165.5977" style="stroke:#181818;stroke-width:1.0;"/><line style="stroke:#181818;stroke-width:1.0;" x1="76" x2="355" y1="165.5977" y2="165.5977"/><text fill="#000000" font-family="sans-serif" font-size="13" font-weight="bold" lengthAdjust="spacing" textLength="9" x="83" y="153.2002">1</text><text fill="#000000" font-family="sans-serif" font-size="13" lengthAdjust="spacing" textLength="253" x="96" y="145.5449">Inicia opera&#231;&#227;o de listar passagem entre</text><text fill="#000000" font-family="sans-serif" font-size="13" lengthAdjust="spacing" textLength="85" x="96" y="160.8555">dois edif&#237;cios</text><polygon fill="#181818" points="594,190.9082,604,194.9082,594,198.9082,598,194.9082" style="stroke:#181818;stroke-width:1.0;"/><line style="stroke:#181818;stroke-width:1.0;" x1="371" x2="600" y1="194.9082" y2="194.9082"/><text fill="#000000" font-family="sans-serif" font-size="13" font-weight="bold" lengthAdjust="spacing" textLength="9" x="378" y="190.166">2</text><text fill="#000000" font-family="sans-serif" font-size="13" lengthAdjust="spacing" textLength="45" x="391" y="190.166">ngInit()</text><polygon fill="#181818" points="769,250.2188,779,254.2188,769,258.2188,773,254.2188" style="stroke:#181818;stroke-width:1.0;"/><line style="stroke:#181818;stroke-width:1.0;" x1="616" x2="775" y1="254.2188" y2="254.2188"/><text fill="#000000" font-family="sans-serif" font-size="13" font-weight="bold" lengthAdjust="spacing" textLength="9" x="623" y="249.4766">3</text><text fill="#000000" font-family="sans-serif" font-size="13" lengthAdjust="spacing" textLength="67" x="636" y="249.4766">getFloors()</text><polygon fill="#181818" points="944,279.5293,954,283.5293,944,287.5293,948,283.5293" style="stroke:#181818;stroke-width:1.0;"/><line style="stroke:#181818;stroke-width:1.0;" x1="791" x2="950" y1="283.5293" y2="283.5293"/><text fill="#000000" font-family="sans-serif" font-size="13" font-weight="bold" lengthAdjust="spacing" textLength="9" x="798" y="278.7871">4</text><text fill="#000000" font-family="sans-serif" font-size="13" lengthAdjust="spacing" textLength="67" x="811" y="278.7871">getFloors()</text><line style="stroke:#181818;stroke-width:1.0;" x1="966" x2="1008" y1="328.1504" y2="328.1504"/><line style="stroke:#181818;stroke-width:1.0;" x1="1008" x2="1008" y1="328.1504" y2="341.1504"/><line style="stroke:#181818;stroke-width:1.0;" x1="967" x2="1008" y1="341.1504" y2="341.1504"/><polygon fill="#181818" points="977,337.1504,967,341.1504,977,345.1504,973,341.1504" style="stroke:#181818;stroke-width:1.0;"/><text fill="#000000" font-family="sans-serif" font-size="13" font-weight="bold" lengthAdjust="spacing" textLength="9" x="973" y="315.7529">5</text><text fill="#000000" font-family="sans-serif" font-size="13" lengthAdjust="spacing" textLength="137" x="986" y="308.0977">middleware.rolecheck</text><text fill="#000000" font-family="sans-serif" font-size="13" lengthAdjust="spacing" textLength="202" x="986" y="323.4082">("Admin" || "Gestor de Campus")</text><polygon fill="#181818" points="802,366.4609,792,370.4609,802,374.4609,798,370.4609" style="stroke:#181818;stroke-width:1.0;"/><line style="stroke:#181818;stroke-width:1.0;stroke-dasharray:2.0,2.0;" x1="796" x2="960" y1="370.4609" y2="370.4609"/><text fill="#000000" font-family="sans-serif" font-size="13" font-weight="bold" lengthAdjust="spacing" textLength="9" x="808" y="365.7188">6</text><text fill="#000000" font-family="sans-serif" font-size="13" lengthAdjust="spacing" textLength="87" x="821" y="365.7188">Lista de pisos</text><polygon fill="#181818" points="627,395.7715,617,399.7715,627,403.7715,623,399.7715" style="stroke:#181818;stroke-width:1.0;"/><line style="stroke:#181818;stroke-width:1.0;stroke-dasharray:2.0,2.0;" x1="621" x2="785" y1="399.7715" y2="399.7715"/><text fill="#000000" font-family="sans-serif" font-size="13" font-weight="bold" lengthAdjust="spacing" textLength="9" x="633" y="395.0293">7</text><text fill="#000000" font-family="sans-serif" font-size="13" lengthAdjust="spacing" textLength="87" x="646" y="395.0293">Lista de pisos</text><polygon fill="#181818" points="769,425.082,779,429.082,769,433.082,773,429.082" style="stroke:#181818;stroke-width:1.0;"/><line style="stroke:#181818;stroke-width:1.0;" x1="616" x2="775" y1="429.082" y2="429.082"/><text fill="#000000" font-family="sans-serif" font-size="13" font-weight="bold" lengthAdjust="spacing" textLength="9" x="623" y="424.3398">8</text><text fill="#000000" font-family="sans-serif" font-size="13" lengthAdjust="spacing" textLength="107" x="636" y="424.3398">getConnections()</text><polygon fill="#181818" points="944,454.3926,954,458.3926,944,462.3926,948,458.3926" style="stroke:#181818;stroke-width:1.0;"/><line style="stroke:#181818;stroke-width:1.0;" x1="791" x2="950" y1="458.3926" y2="458.3926"/><text fill="#000000" font-family="sans-serif" font-size="13" font-weight="bold" lengthAdjust="spacing" textLength="9" x="798" y="453.6504">9</text><text fill="#000000" font-family="sans-serif" font-size="13" lengthAdjust="spacing" textLength="107" x="811" y="453.6504">getConnections()</text><line style="stroke:#181818;stroke-width:1.0;" x1="966" x2="1008" y1="503.0137" y2="503.0137"/><line style="stroke:#181818;stroke-width:1.0;" x1="1008" x2="1008" y1="503.0137" y2="516.0137"/><line style="stroke:#181818;stroke-width:1.0;" x1="967" x2="1008" y1="516.0137" y2="516.0137"/><polygon fill="#181818" points="977,512.0137,967,516.0137,977,520.0137,973,516.0137" style="stroke:#181818;stroke-width:1.0;"/><text fill="#000000" font-family="sans-serif" font-size="13" font-weight="bold" lengthAdjust="spacing" textLength="18" x="973" y="490.6162">10</text><text fill="#000000" font-family="sans-serif" font-size="13" lengthAdjust="spacing" textLength="137" x="995" y="482.9609">middleware.rolecheck</text><text fill="#000000" font-family="sans-serif" font-size="13" lengthAdjust="spacing" textLength="202" x="995" y="498.2715">("Admin" || "Gestor de Campus")</text><polygon fill="#181818" points="802,551.9795,792,555.9795,802,559.9795,798,555.9795" style="stroke:#181818;stroke-width:1.0;"/><line style="stroke:#181818;stroke-width:1.0;stroke-dasharray:2.0,2.0;" x1="796" x2="960" y1="555.9795" y2="555.9795"/><text fill="#000000" font-family="sans-serif" font-size="13" font-weight="bold" lengthAdjust="spacing" textLength="18" x="808" y="551.2373">11</text><text fill="#000000" font-family="sans-serif" font-size="13" lengthAdjust="spacing" textLength="119" x="830" y="551.2373">Lista de passagens</text><path d="M971,529.0137 L971,569.0137 L1199,569.0137 L1199,539.0137 L1189,529.0137 L971,529.0137 " fill="#FAFAFA" style="stroke:#181818;stroke-width:0.5;"/><path d="M1189,529.0137 L1189,539.0137 L1199,539.0137 L1189,529.0137 " fill="#FAFAFA" style="stroke:#181818;stroke-width:0.5;"/><text fill="#000000" font-family="sans-serif" font-size="13" lengthAdjust="spacing" textLength="207" x="977" y="546.582">M&#243;dulo de Gest&#227;o de Informa&#231;&#227;o</text><text fill="#000000" font-family="sans-serif" font-size="13" lengthAdjust="spacing" textLength="184" x="977" y="561.8926">&#233; a representa&#231;&#227;o do Sprint A</text><polygon fill="#181818" points="627,591.9453,617,595.9453,627,599.9453,623,595.9453" style="stroke:#181818;stroke-width:1.0;"/><line style="stroke:#181818;stroke-width:1.0;stroke-dasharray:2.0,2.0;" x1="621" x2="785" y1="595.9453" y2="595.9453"/><text fill="#000000" font-family="sans-serif" font-size="13" font-weight="bold" lengthAdjust="spacing" textLength="18" x="633" y="591.2031">12</text><text fill="#000000" font-family="sans-serif" font-size="13" lengthAdjust="spacing" textLength="119" x="655" y="591.2031">Lista de passagens</text><polygon fill="#181818" points="382,621.2559,372,625.2559,382,629.2559,378,625.2559" style="stroke:#181818;stroke-width:1.0;"/><line style="stroke:#181818;stroke-width:1.0;stroke-dasharray:2.0,2.0;" x1="376" x2="610" y1="625.2559" y2="625.2559"/><text fill="#000000" font-family="sans-serif" font-size="13" font-weight="bold" lengthAdjust="spacing" textLength="18" x="388" y="620.5137">13</text><text fill="#000000" font-family="sans-serif" font-size="13" lengthAdjust="spacing" textLength="189" x="410" y="620.5137">buildings, floors, connections</text><polygon fill="#181818" points="87,650.5664,77,654.5664,87,658.5664,83,654.5664" style="stroke:#181818;stroke-width:1.0;"/><line style="stroke:#181818;stroke-width:1.0;stroke-dasharray:2.0,2.0;" x1="81" x2="365" y1="654.5664" y2="654.5664"/><text fill="#000000" font-family="sans-serif" font-size="13" font-weight="bold" lengthAdjust="spacing" textLength="18" x="93" y="649.8242">14</text><text fill="#000000" font-family="sans-serif" font-size="13" lengthAdjust="spacing" textLength="169" x="115" y="649.8242">Solicita crit&#233;rios desejados</text><polygon fill="#181818" points="349,679.877,359,683.877,349,687.877,353,683.877" style="stroke:#181818;stroke-width:1.0;"/><line style="stroke:#181818;stroke-width:1.0;" x1="76" x2="355" y1="683.877" y2="683.877"/><text fill="#000000" font-family="sans-serif" font-size="13" font-weight="bold" lengthAdjust="spacing" textLength="18" x="83" y="679.1348">15</text><text fill="#000000" font-family="sans-serif" font-size="13" lengthAdjust="spacing" textLength="168" x="105" y="679.1348">Introduz dados solicitados</text><polygon fill="#181818" points="594,709.1875,604,713.1875,594,717.1875,598,713.1875" style="stroke:#181818;stroke-width:1.0;"/><line style="stroke:#181818;stroke-width:1.0;" x1="371" x2="600" y1="713.1875" y2="713.1875"/><text fill="#000000" font-family="sans-serif" font-size="13" font-weight="bold" lengthAdjust="spacing" textLength="18" x="378" y="708.4453">16</text><text fill="#000000" font-family="sans-serif" font-size="13" lengthAdjust="spacing" textLength="189" x="400" y="708.4453">filterConnectionsByBuildings()</text><polygon fill="#181818" points="382,738.498,372,742.498,382,746.498,378,742.498" style="stroke:#181818;stroke-width:1.0;"/><line style="stroke:#181818;stroke-width:1.0;stroke-dasharray:2.0,2.0;" x1="376" x2="610" y1="742.498" y2="742.498"/><text fill="#000000" font-family="sans-serif" font-size="13" font-weight="bold" lengthAdjust="spacing" textLength="18" x="388" y="737.7559">17</text><text fill="#000000" font-family="sans-serif" font-size="13" lengthAdjust="spacing" textLength="77" x="410" y="737.7559">connections</text><polygon fill="#181818" points="87,783.1191,77,787.1191,87,791.1191,83,787.1191" style="stroke:#181818;stroke-width:1.0;"/><line style="stroke:#181818;stroke-width:1.0;stroke-dasharray:2.0,2.0;" x1="81" x2="365" y1="787.1191" y2="787.1191"/><text fill="#000000" font-family="sans-serif" font-size="13" font-weight="bold" lengthAdjust="spacing" textLength="18" x="93" y="774.7217">18</text><text fill="#000000" font-family="sans-serif" font-size="13" lengthAdjust="spacing" textLength="155" x="115" y="767.0664">Lista de passagens entre</text><text fill="#000000" font-family="sans-serif" font-size="13" lengthAdjust="spacing" textLength="104" x="115" y="782.377">os dois ed&#237;ficios</text><!--SRC=[xPR1Rjim38RlVWh2fmHeXXNRPKOGe4snOS2sYx6TSb4jsk4YIvuajsZHjzbXwA6dFO9VR7HIEzxYDfdNtdPA84haB_8pARSYNGWhSiYDDidIcXp1sn83rreAaQn4Xh6_KWWM4ozqfheRt598SqawWrGeXq7WoVFMkT5Ua4OBCNuhKIS8PoIo-iGeFXl313x7nyTlNiBeqwjn48ZI6rtcvsZvV-ADXV0TklfNiY-H5wKBrnQw41xxZBjBC9b1E9tENqUjcDbieQClv4gXw5fKFwhl9epWlQQ419W2xMQjTgB8UM7v_ixn_ND0xIqkj3Ja02MbrLr2ndKaxOyK7B2d5ZqtUM4q1un0PopEZyRREAqnaDWkncWlAC6WDTPkxXSXWWpzMsMCTLr7pPbcMt-sFbO_PQdM6QaJp18v1yWfIutD6yqFH1ZeBXWgO_WD8iX9IeMNmk8BQnGcIqnM2pqAJsHEEeIRcnxcniEL_bQU3pLgzO6272FLgUlG3BOrxTBqQAJz1B4ApTy_6TsBqPDnz42S_p0T05Etmfl6fLsW3QVFKhRaVhBh4Fxmjz3LBGXkzOL5nnmq7T50N5XYBawU3T1UzOypUbYBPx3EIrAIfvGxWdJTg8uWsOBMZR9ji8Vrwrh2JZKZY8tYgSAtIIpvwjRoi62xmwyyBlTzupk3uz-ccxT6bjSWwyZWxdN9vnvUdFIKb4VR-Q1FhqwRElJFj26btLl79-2r9__JoUIm0kn2tJmcQYGsxudgBgNrU-8lmVW5]--></g></svg>