<?xml version="1.0" encoding="us-ascii" standalone="no"?><svg xmlns="http://www.w3.org/2000/svg" xmlns:xlink="http://www.w3.org/1999/xlink" contentStyleType="text/css" height="453px" preserveAspectRatio="none" style="width:744px;height:453px;background:#FFFFFF;" version="1.1" viewBox="0 0 744 453" width="744px" zoomAndPan="magnify"><defs/><g><text fill="#000000" font-family="sans-serif" font-size="14" font-weight="bold" lengthAdjust="spacing" textLength="339" x="201.5" y="28.5352">System Sequence Diagram (SSD) - US1190 (N2)</text><rect fill="#FFFFFF" height="87.9316" style="stroke:#181818;stroke-width:1.0;" width="10" x="438" y="150.2871"/><rect fill="#FFFFFF" height="86.9316" style="stroke:#181818;stroke-width:1.0;" width="10" x="438" y="267.5293"/><rect fill="#FFFFFF" height="29.3105" style="stroke:#181818;stroke-width:1.0;" width="10" x="664" y="179.5977"/><line style="stroke:#181818;stroke-width:0.5;stroke-dasharray:5.0,5.0;" x1="71" x2="71" y1="118.9766" y2="372.4609"/><line style="stroke:#181818;stroke-width:0.5;stroke-dasharray:5.0,5.0;" x1="442.5" x2="442.5" y1="118.9766" y2="372.4609"/><line style="stroke:#181818;stroke-width:0.5;stroke-dasharray:5.0,5.0;" x1="669" x2="669" y1="118.9766" y2="372.4609"/><text fill="#000000" font-family="sans-serif" font-size="14" lengthAdjust="spacing" textLength="126" x="5" y="116.0234">Gestor de Campus</text><ellipse cx="71" cy="50.9883" fill="#E3E3E3" rx="8" ry="8" style="stroke:#181818;stroke-width:0.5;"/><path d="M71,58.9883 L71,85.9883 M58,66.9883 L84,66.9883 M71,85.9883 L58,100.9883 M71,85.9883 L84,100.9883 " fill="none" style="stroke:#181818;stroke-width:0.5;"/><text fill="#000000" font-family="sans-serif" font-size="14" lengthAdjust="spacing" textLength="126" x="5" y="384.9961">Gestor de Campus</text><ellipse cx="71" cy="396.4492" fill="#E3E3E3" rx="8" ry="8" style="stroke:#181818;stroke-width:0.5;"/><path d="M71,404.4492 L71,431.4492 M58,412.4492 L84,412.4492 M71,431.4492 L58,446.4492 M71,431.4492 L84,446.4492 " fill="none" style="stroke:#181818;stroke-width:0.5;"/><rect fill="#E3E3E3" height="46.9766" rx="2.5" ry="2.5" style="stroke:#181818;stroke-width:0.5;" width="119" x="383.5" y="71"/><text fill="#000000" font-family="sans-serif" font-size="14" lengthAdjust="spacing" textLength="105" x="390.5" y="91.5352">&#171;C4:Container&#187;</text><text fill="#000000" font-family="sans-serif" font-size="14" lengthAdjust="spacing" textLength="89" x="398.5" y="108.0234">:Visualiza&#231;&#227;o</text><rect fill="#E3E3E3" height="46.9766" rx="2.5" ry="2.5" style="stroke:#181818;stroke-width:0.5;" width="119" x="383.5" y="371.4609"/><text fill="#000000" font-family="sans-serif" font-size="14" lengthAdjust="spacing" textLength="105" x="390.5" y="391.9961">&#171;C4:Container&#187;</text><text fill="#000000" font-family="sans-serif" font-size="14" lengthAdjust="spacing" textLength="89" x="398.5" y="408.4844">:Visualiza&#231;&#227;o</text><rect fill="#E3E3E3" height="63.4648" rx="2.5" ry="2.5" style="stroke:#181818;stroke-width:0.5;" width="138" x="600" y="54.5117"/><text fill="#000000" font-family="sans-serif" font-size="14" lengthAdjust="spacing" textLength="105" x="616.5" y="75.0469">&#171;C4:Container&#187;</text><text fill="#000000" font-family="sans-serif" font-size="14" lengthAdjust="spacing" textLength="124" x="607" y="91.5352">M&#243;dulo de Gest&#227;o</text><text fill="#000000" font-family="sans-serif" font-size="14" lengthAdjust="spacing" textLength="99" x="619.5" y="108.0234">de Informa&#231;&#227;o</text><rect fill="#E3E3E3" height="63.4648" rx="2.5" ry="2.5" style="stroke:#181818;stroke-width:0.5;" width="138" x="600" y="371.4609"/><text fill="#000000" font-family="sans-serif" font-size="14" lengthAdjust="spacing" textLength="105" x="616.5" y="391.9961">&#171;C4:Container&#187;</text><text fill="#000000" font-family="sans-serif" font-size="14" lengthAdjust="spacing" textLength="124" x="607" y="408.4844">M&#243;dulo de Gest&#227;o</text><text fill="#000000" font-family="sans-serif" font-size="14" lengthAdjust="spacing" textLength="99" x="619.5" y="424.9727">de Informa&#231;&#227;o</text><rect fill="#FFFFFF" height="87.9316" style="stroke:#181818;stroke-width:1.0;" width="10" x="438" y="150.2871"/><rect fill="#FFFFFF" height="86.9316" style="stroke:#181818;stroke-width:1.0;" width="10" x="438" y="267.5293"/><rect fill="#FFFFFF" height="29.3105" style="stroke:#181818;stroke-width:1.0;" width="10" x="664" y="179.5977"/><polygon fill="#181818" points="426,146.2871,436,150.2871,426,154.2871,430,150.2871" style="stroke:#181818;stroke-width:1.0;"/><line style="stroke:#181818;stroke-width:1.0;" x1="71" x2="432" y1="150.2871" y2="150.2871"/><text fill="#000000" font-family="sans-serif" font-size="13" font-weight="bold" lengthAdjust="spacing" textLength="9" x="78" y="145.5449">1</text><text fill="#000000" font-family="sans-serif" font-size="13" lengthAdjust="spacing" textLength="291" x="91" y="145.5449">Solicita lista de passagens entre dois edif&#237;cios</text><polygon fill="#181818" points="652,175.5977,662,179.5977,652,183.5977,656,179.5977" style="stroke:#181818;stroke-width:1.0;"/><line style="stroke:#181818;stroke-width:1.0;" x1="448" x2="658" y1="179.5977" y2="179.5977"/><text fill="#000000" font-family="sans-serif" font-size="13" font-weight="bold" lengthAdjust="spacing" textLength="9" x="455" y="174.8555">2</text><text fill="#000000" font-family="sans-serif" font-size="13" lengthAdjust="spacing" textLength="94" x="468" y="174.8555">GET /buildings</text><polygon fill="#181818" points="459,204.9082,449,208.9082,459,212.9082,455,208.9082" style="stroke:#181818;stroke-width:1.0;"/><line style="stroke:#181818;stroke-width:1.0;stroke-dasharray:2.0,2.0;" x1="453" x2="668" y1="208.9082" y2="208.9082"/><text fill="#000000" font-family="sans-serif" font-size="13" font-weight="bold" lengthAdjust="spacing" textLength="9" x="465" y="204.166">3</text><text fill="#000000" font-family="sans-serif" font-size="13" lengthAdjust="spacing" textLength="109" x="478" y="204.166">200 OK buildings</text><polygon fill="#181818" points="82,234.2188,72,238.2188,82,242.2188,78,238.2188" style="stroke:#181818;stroke-width:1.0;"/><line style="stroke:#181818;stroke-width:1.0;stroke-dasharray:2.0,2.0;" x1="76" x2="442" y1="238.2188" y2="238.2188"/><text fill="#000000" font-family="sans-serif" font-size="13" font-weight="bold" lengthAdjust="spacing" textLength="9" x="88" y="233.4766">4</text><text fill="#000000" font-family="sans-serif" font-size="13" lengthAdjust="spacing" textLength="330" x="101" y="233.4766">Solicita dados necess&#225;rios (buildingId1, buildingId2)</text><polygon fill="#181818" points="426,263.5293,436,267.5293,426,271.5293,430,267.5293" style="stroke:#181818;stroke-width:1.0;"/><line style="stroke:#181818;stroke-width:1.0;" x1="71" x2="432" y1="267.5293" y2="267.5293"/><text fill="#000000" font-family="sans-serif" font-size="13" font-weight="bold" lengthAdjust="spacing" textLength="9" x="78" y="262.7871">5</text><text fill="#000000" font-family="sans-serif" font-size="13" lengthAdjust="spacing" textLength="168" x="91" y="262.7871">Introduz dados solicitados</text><line style="stroke:#181818;stroke-width:1.0;" x1="448" x2="490" y1="296.8398" y2="296.8398"/><line style="stroke:#181818;stroke-width:1.0;" x1="490" x2="490" y1="296.8398" y2="309.8398"/><line style="stroke:#181818;stroke-width:1.0;" x1="449" x2="490" y1="309.8398" y2="309.8398"/><polygon fill="#181818" points="459,305.8398,449,309.8398,459,313.8398,455,309.8398" style="stroke:#181818;stroke-width:1.0;"/><text fill="#000000" font-family="sans-serif" font-size="13" font-weight="bold" lengthAdjust="spacing" textLength="9" x="455" y="292.0977">6</text><text fill="#000000" font-family="sans-serif" font-size="13" lengthAdjust="spacing" textLength="189" x="468" y="292.0977">filterConnectionsByBuildings()</text><polygon fill="#181818" points="82,350.4609,72,354.4609,82,358.4609,78,354.4609" style="stroke:#181818;stroke-width:1.0;"/><line style="stroke:#181818;stroke-width:1.0;stroke-dasharray:2.0,2.0;" x1="76" x2="442" y1="354.4609" y2="354.4609"/><text fill="#000000" font-family="sans-serif" font-size="13" font-weight="bold" lengthAdjust="spacing" textLength="9" x="88" y="342.0635">7</text><text fill="#000000" font-family="sans-serif" font-size="13" lengthAdjust="spacing" textLength="269" x="101" y="334.4082">Imprime a lista de passagens entre os dois</text><text fill="#000000" font-family="sans-serif" font-size="13" lengthAdjust="spacing" textLength="126" x="101" y="349.7188">edif&#237;cios escolhidos</text><!--SRC=[lPJ1Rjim38RlUWeYfmIOiQJePK6GGzEY28Pr1wyxvQ9AJ49KbbnHsf2-pR33JZlr4VnYeu6sAU0jy5gq5vksAUBZpv_cQ_ArZhg2AlXWjZ5K22bcLFpufTRcMc-mJ3k74D4axJVkQG9ljGtVoMzWhHsZKecIf9OxJbX1YJSPlK4u9RrfquTbUJg20YxBoUJ368ONHoEbT4x1v-eAeyGcXGY3S-JsRX4Mkgep3vJgleDY3eFPR74yNGIVD7cCy_dAJxyIP-teLZU_cfzXC8KoE3AKD3XYkKg5MZDBNvu1VOe8Df24bjRDRqE1MmpwfXFsgQzwvFm3zLDpPxCBBL7RdMIklCHBlmwnUiG_F_i2xwyoEIiw7sRhKr0zynmKVVK-6e_XyqVO8rjy3UYko2rWnoPFvc_5h0mU3J8tFw9C6eOFb4ixUGVx1p7cOUgE3LxYqAMuCDXyUq_8zy3sxQpOPLgJInWbIVHA53oVx4uU9ZeS_QtRML7qRBUg8ydVvi16YWhjKgxyVYi1sGItfLQL_vpD7m00]--></g></svg>