<?xml version="1.0" encoding="us-ascii" standalone="no"?><svg xmlns="http://www.w3.org/2000/svg" xmlns:xlink="http://www.w3.org/1999/xlink" contentStyleType="text/css" height="1304px" preserveAspectRatio="none" style="width:669px;height:1304px;background:#FFFFFF;" version="1.1" viewBox="0 0 669 1304" width="669px" zoomAndPan="magnify"><defs/><g><!--entity Utente--><g id="elem_Utente"><ellipse cx="66.5" cy="985.34" fill="#F1F1F1" rx="8" ry="8" style="stroke:#181818;stroke-width:0.5;"/><path d="M66.5,993.34 L66.5,1020.34 M53.5,1001.34 L79.5,1001.34 M66.5,1020.34 L53.5,1035.34 M66.5,1020.34 L79.5,1035.34 " fill="none" style="stroke:#181818;stroke-width:0.5;"/><text fill="#000000" font-family="sans-serif" font-size="14" lengthAdjust="spacing" textLength="45" x="44" y="1050.3752">Utente</text></g><!--entity Administrador--><g id="elem_Administrador"><ellipse cx="66.5" cy="644.34" fill="#F1F1F1" rx="8" ry="8" style="stroke:#181818;stroke-width:0.5;"/><path d="M66.5,652.34 L66.5,679.34 M53.5,660.34 L79.5,660.34 M66.5,679.34 L53.5,694.34 M66.5,679.34 L79.5,694.34 " fill="none" style="stroke:#181818;stroke-width:0.5;"/><text fill="#000000" font-family="sans-serif" font-size="14" lengthAdjust="spacing" textLength="99" x="17" y="709.3752">Administrador</text></g><!--entity Utilizador--><g id="elem_Utilizador"><ellipse cx="66.5" cy="480.34" fill="#F1F1F1" rx="8" ry="8" style="stroke:#181818;stroke-width:0.5;"/><path d="M66.5,488.34 L66.5,515.34 M53.5,496.34 L79.5,496.34 M66.5,515.34 L53.5,530.34 M66.5,515.34 L79.5,530.34 " fill="none" style="stroke:#181818;stroke-width:0.5;"/><text fill="#000000" font-family="sans-serif" font-size="14" lengthAdjust="spacing" textLength="67" x="33" y="545.3752">Utilizador</text></g><!--entity Gestor de Tarefas--><g id="elem_Gestor de Tarefas"><ellipse cx="66.5" cy="185.34" fill="#F1F1F1" rx="8" ry="8" style="stroke:#181818;stroke-width:0.5;"/><path d="M66.5,193.34 L66.5,220.34 M53.5,201.34 L79.5,201.34 M66.5,220.34 L53.5,235.34 M66.5,220.34 L79.5,235.34 " fill="none" style="stroke:#181818;stroke-width:0.5;"/><text fill="#000000" font-family="sans-serif" font-size="14" lengthAdjust="spacing" textLength="121" x="6" y="250.3752">Gestor de Tarefas</text></g><g id="elem_Registar-me como utente do sistema"><ellipse cx="425.1538" cy="829.0828" fill="#F1F1F1" rx="141.7638" ry="30.7528" style="stroke:#181818;stroke-width:0.5;"/><text fill="#000000" font-family="sans-serif" font-size="14" lengthAdjust="spacing" textLength="253" x="298.6538" y="832.3738">Registar-me como utente do sistema</text></g><g id="elem_Retificar/Alterar os meus dados"><ellipse cx="425.1539" cy="922.0788" fill="#F1F1F1" rx="124.6939" ry="27.3388" style="stroke:#181818;stroke-width:0.5;"/><text fill="#000000" font-family="sans-serif" font-size="14" lengthAdjust="spacing" textLength="217" x="316.6539" y="925.3698">Retificar/Alterar os meus dados</text></g><g id="elem_Uma c&#243;pia dos meus dados pessoais"><ellipse cx="425.1493" cy="1015.0819" fill="#F1F1F1" rx="140.8093" ry="30.5619" style="stroke:#181818;stroke-width:0.5;"/><text fill="#000000" font-family="sans-serif" font-size="14" lengthAdjust="spacing" textLength="251" x="299.6493" y="1018.3729">Uma c&#243;pia dos meus dados pessoais</text></g><g id="elem_Cancelar a minha conta garantindo que os meus\ndados s&#227;o apagados"><ellipse cx="425.147" cy="1122.0774" fill="#F1F1F1" rx="193.737" ry="41.1474" style="stroke:#181818;stroke-width:0.5;"/><text fill="#000000" font-family="sans-serif" font-size="14" lengthAdjust="spacing" textLength="332" x="259.147" y="1117.1243">Cancelar a minha conta garantindo que os meus</text><text fill="#000000" font-family="sans-serif" font-size="14" lengthAdjust="spacing" textLength="141" x="354.647" y="1133.6125">dados s&#227;o apagados</text></g><g id="elem_Requisitar uma tarefa indicando os par&#226;metros\nnecess&#225;rios &#224; sua execu&#231;&#227;o, nomeadamente\no ponto inicial e\no t&#233;rmino e qual a tarefa pretendida"><ellipse cx="425.1457" cy="1248.0791" fill="#F1F1F1" rx="238.1457" ry="50.0291" style="stroke:#181818;stroke-width:0.5;"/><text fill="#000000" font-family="sans-serif" font-size="14" lengthAdjust="spacing" textLength="322" x="261.1457" y="1227.3643">Requisitar uma tarefa indicando os par&#226;metros</text><text fill="#000000" font-family="sans-serif" font-size="14" lengthAdjust="spacing" textLength="304" x="270.1457" y="1243.8526">necess&#225;rios &#224; sua execu&#231;&#227;o, nomeadamente</text><text fill="#000000" font-family="sans-serif" font-size="14" lengthAdjust="spacing" textLength="110" x="367.1457" y="1260.3409">o ponto inicial e</text><text fill="#000000" font-family="sans-serif" font-size="14" lengthAdjust="spacing" textLength="248" x="298.1457" y="1276.8291">o t&#233;rmino e qual a tarefa pretendida</text></g><g id="elem_Aprovar ou recusar o registo de um utente"><ellipse cx="425.1501" cy="621.078" fill="#F1F1F1" rx="160.4901" ry="34.498" style="stroke:#181818;stroke-width:0.5;"/><text fill="#000000" font-family="sans-serif" font-size="14" lengthAdjust="spacing" textLength="292" x="279.1501" y="624.369">Aprovar ou recusar o registo de um utente</text></g><g id="elem_Criar um utilizador de sistema indicando\nas suas permiss&#245;es"><ellipse cx="425.1529" cy="727.0766" fill="#F1F1F1" rx="170.2329" ry="36.4466" style="stroke:#181818;stroke-width:0.5;"/><text fill="#000000" font-family="sans-serif" font-size="14" lengthAdjust="spacing" textLength="279" x="285.6529" y="722.1235">Criar um utilizador de sistema indicando</text><text fill="#000000" font-family="sans-serif" font-size="14" lengthAdjust="spacing" textLength="132" x="359.1529" y="738.6117">as suas permiss&#245;es</text></g><g id="elem_Menu da aplica&#231;&#227;o se ajuste ao meu tipo de utilizador"><ellipse cx="425.15" cy="510.084" fill="#F1F1F1" rx="197.42" ry="41.884" style="stroke:#181818;stroke-width:0.5;"/><text fill="#000000" font-family="sans-serif" font-size="14" lengthAdjust="spacing" textLength="368" x="241.15" y="513.375">Menu da aplica&#231;&#227;o se ajuste ao meu tipo de utilizador</text></g><g id="elem_Aprovar/Reprovar requisi&#231;&#227;o de uma tarefa"><ellipse cx="425.1475" cy="41.0775" fill="#F1F1F1" rx="163.3875" ry="35.0775" style="stroke:#181818;stroke-width:0.5;"/><text fill="#000000" font-family="sans-serif" font-size="14" lengthAdjust="spacing" textLength="298" x="276.1475" y="44.3685">Aprovar/Reprovar requisi&#231;&#227;o de uma tarefa</text></g><g id="elem_Consultar as requisi&#231;&#245;es de tarefas ainda n&#227;o aprovadas"><ellipse cx="425.154" cy="155.0828" fill="#F1F1F1" rx="206.714" ry="43.7428" style="stroke:#181818;stroke-width:0.5;"/><text fill="#000000" font-family="sans-serif" font-size="14" lengthAdjust="spacing" textLength="387" x="231.654" y="158.3738">Consultar as requisi&#231;&#245;es de tarefas ainda n&#227;o aprovadas</text></g><g id="elem_Pesquisar as requisi&#231;&#245;es de tarefas por estado,\npor tipo de dispositivo, ou utente"><ellipse cx="425.1525" cy="274.0785" fill="#F1F1F1" rx="188.7925" ry="40.1585" style="stroke:#181818;stroke-width:0.5;"/><text fill="#000000" font-family="sans-serif" font-size="14" lengthAdjust="spacing" textLength="321" x="264.6525" y="269.1254">Pesquisar as requisi&#231;&#245;es de tarefas por estado,</text><text fill="#000000" font-family="sans-serif" font-size="14" lengthAdjust="spacing" textLength="228" x="311.1525" y="285.6136">por tipo de dispositivo, ou utente</text></g><g id="elem_Obter a sequencia de execu&#231;&#227;o das tarefas aprovadas"><ellipse cx="425.15" cy="391.084" fill="#F1F1F1" rx="197.42" ry="41.884" style="stroke:#181818;stroke-width:0.5;"/><text fill="#000000" font-family="sans-serif" font-size="14" lengthAdjust="spacing" textLength="368" x="241.15" y="394.375">Obter a sequencia de execu&#231;&#227;o das tarefas aprovadas</text></g><!--link Utente to Registar-me como utente do sistema--><g id="link_Utente_Registar-me como utente do sistema"><path d="M89.43,978.22 C110.39,946.34 144.99,901.61 187,877.08 C218.65,858.6 250.3834,848.3009 286.2334,841.2309 " fill="none" id="Utente-to-Registar-me como utente do sistema" style="stroke:#181818;stroke-width:1.0;"/><polygon fill="#181818" points="292.12,840.07,282.5161,837.8869,287.2145,841.0374,284.064,845.7358,292.12,840.07" style="stroke:#181818;stroke-width:1.0;"/></g><!--link Utente to Retificar/Alterar os meus dados--><g id="link_Utente_Retificar/Alterar os meus dados"><path d="M89.07,1004.93 C112.66,994.18 151.81,977.38 187,967.08 C230.03,954.49 272.6089,945.5892 314.4789,938.2992 " fill="none" id="Utente-to-Retificar/Alterar os meus dados" style="stroke:#181818;stroke-width:1.0;"/><polygon fill="#181818" points="320.39,937.27,310.8373,934.8731,315.4641,938.1276,312.2095,942.7545,320.39,937.27" style="stroke:#181818;stroke-width:1.0;"/></g><!--link Utente to Uma c?pia dos meus dados pessoais--><g id="link_Utente_Uma c&#243;pia dos meus dados pessoais"><path d="M89.27,1015.08 C127.69,1015.08 204.4,1015.08 278.01,1015.08 " fill="none" id="Utente-to-Uma c&#243;pia dos meus dados pessoais" style="stroke:#181818;stroke-width:1.0;"/><polygon fill="#181818" points="284.01,1015.08,275.01,1011.08,279.01,1015.08,275.01,1019.08,284.01,1015.08" style="stroke:#181818;stroke-width:1.0;"/></g><!--link Utente to Cancelar a minha conta garantindo que os meus\ndados s?o apagados--><g id="link_Utente_Cancelar a minha conta garantindo que os meus\ndados s&#227;o apagados"><path d="M89.19,1024.85 C112.88,1035.27 152.11,1051.79 187,1063.08 C220.1,1073.79 250.5101,1082.2312 284.4601,1090.7412 " fill="none" id="Utente-to-Cancelar a minha conta garantindo que os meus\ndados s&#227;o apagados" style="stroke:#181818;stroke-width:1.0;"/><polygon fill="#181818" points="290.28,1092.2,282.5226,1086.1318,285.43,1090.9843,280.5775,1093.8917,290.28,1092.2" style="stroke:#181818;stroke-width:1.0;"/></g><!--link Utente to Requisitar uma tarefa indicando os par?metros\nnecess?rios ? sua execu??o, nomeadamente\no ponto inicial e\no t?rmino e qual a tarefa pretendida--><g id="link_Utente_Requisitar uma tarefa indicando os par&#226;metros\nnecess&#225;rios &#224; sua execu&#231;&#227;o, nomeadamente\no ponto inicial e\no t&#233;rmino e qual a tarefa pretendida"><path d="M85.49,1053.5 C105.2,1091.43 140.32,1148.38 187,1181.08 C206.1,1194.46 222.2086,1203.0297 244.5586,1211.6097 " fill="none" id="Utente-to-Requisitar uma tarefa indicando os par&#226;metros\nnecess&#225;rios &#224; sua execu&#231;&#227;o, nomeadamente\no ponto inicial e\no t&#233;rmino e qual a tarefa pretendida" style="stroke:#181818;stroke-width:1.0;"/><polygon fill="#181818" points="250.16,1213.76,243.1914,1206.8002,245.4921,1211.968,240.3243,1214.2688,250.16,1213.76" style="stroke:#181818;stroke-width:1.0;"/></g><!--link Administrador to Aprovar ou recusar o registo de um utente--><g id="link_Administrador_Aprovar ou recusar o registo de um utente"><path d="M116.34,666.82 C161.56,660.1 224.9251,650.6814 286.3351,641.5614 " fill="none" id="Administrador-to-Aprovar ou recusar o registo de um utente" style="stroke:#181818;stroke-width:1.0;"/><polygon fill="#181818" points="292.27,640.68,282.78,638.0455,287.3242,641.4145,283.9552,645.9587,292.27,640.68" style="stroke:#181818;stroke-width:1.0;"/></g><!--link Administrador to Criar um utilizador de sistema indicando\nas suas permiss?es--><g id="link_Administrador_Criar um utilizador de sistema indicando\nas suas permiss&#245;es"><path d="M116.34,681.34 C159.65,687.77 219.1251,696.6188 278.5251,705.4388 " fill="none" id="Administrador-to-Criar um utilizador de sistema indicando\nas suas permiss&#245;es" style="stroke:#181818;stroke-width:1.0;"/><polygon fill="#181818" points="284.46,706.32,276.1451,701.0415,279.5142,705.5856,274.9701,708.9547,284.46,706.32" style="stroke:#181818;stroke-width:1.0;"/></g><!--link Utilizador to Menu da aplica??o se ajuste ao meu tipo de utilizador--><g id="link_Utilizador_Menu da aplica&#231;&#227;o se ajuste ao meu tipo de utilizador"><path d="M100.41,510.08 C130.59,510.08 171.96,510.08 221.24,510.08 " fill="none" id="Utilizador-to-Menu da aplica&#231;&#227;o se ajuste ao meu tipo de utilizador" style="stroke:#181818;stroke-width:1.0;"/><polygon fill="#181818" points="227.24,510.08,218.24,506.08,222.24,510.08,218.24,514.08,227.24,510.08" style="stroke:#181818;stroke-width:1.0;"/></g><!--link Gestor de Tarefas to Aprovar/Reprovar requisi??o de uma tarefa--><g id="link_Gestor de Tarefas_Aprovar/Reprovar requisi&#231;&#227;o de uma tarefa"><path d="M95.67,176.55 C117.57,149.4 150.32,114.39 187,94.08 C216.34,77.83 244.492,67.945 277.412,60.135 " fill="none" id="Gestor de Tarefas-to-Aprovar/Reprovar requisi&#231;&#227;o de uma tarefa" style="stroke:#181818;stroke-width:1.0;"/><polygon fill="#181818" points="283.25,58.75,273.5697,56.9355,278.385,59.9042,275.4164,64.7195,283.25,58.75" style="stroke:#181818;stroke-width:1.0;"/></g><!--link Gestor de Tarefas to Consultar as requisi??es de tarefas ainda n?o aprovadas--><g id="link_Gestor de Tarefas_Consultar as requisi&#231;&#245;es de tarefas ainda n&#227;o aprovadas"><path d="M127.19,205.04 C164.38,198.78 208.2331,191.4054 256.3831,183.3054 " fill="none" id="Gestor de Tarefas-to-Consultar as requisi&#231;&#245;es de tarefas ainda n&#227;o aprovadas" style="stroke:#181818;stroke-width:1.0;"/><polygon fill="#181818" points="262.3,182.31,252.7611,179.8585,257.3693,183.1395,254.0883,187.7476,262.3,182.31" style="stroke:#181818;stroke-width:1.0;"/></g><!--link Gestor de Tarefas to Pesquisar as requisi??es de tarefas por estado,\npor tipo de dispositivo, ou utente--><g id="link_Gestor de Tarefas_Pesquisar as requisi&#231;&#245;es de tarefas por estado,\npor tipo de dispositivo, ou utente"><path d="M127.19,224.96 C167.65,231.65 217.0903,239.8314 269.0503,248.4214 " fill="none" id="Gestor de Tarefas-to-Pesquisar as requisi&#231;&#245;es de tarefas por estado,\npor tipo de dispositivo, ou utente" style="stroke:#181818;stroke-width:1.0;"/><polygon fill="#181818" points="274.97,249.4,266.7429,243.9856,270.037,248.5845,265.4381,251.8785,274.97,249.4" style="stroke:#181818;stroke-width:1.0;"/></g><!--link Gestor de Tarefas to Obter a sequencia de execu??o das tarefas aprovadas--><g id="link_Gestor de Tarefas_Obter a sequencia de execu&#231;&#227;o das tarefas aprovadas"><path d="M97.49,253.73 C119.56,279.6 151.76,312.4 187,332.08 C212.19,346.15 234.9677,355.228 263.2977,363.448 " fill="none" id="Gestor de Tarefas-to-Obter a sequencia de execu&#231;&#227;o das tarefas aprovadas" style="stroke:#181818;stroke-width:1.0;"/><polygon fill="#181818" points="269.06,365.12,261.5311,358.7705,264.258,363.7267,259.3019,366.4536,269.06,365.12" style="stroke:#181818;stroke-width:1.0;"/></g><!--SRC=[XLFBRjim4BpxAnO-MK2C_441muUUYXP6S_DbAwwTBIHIuP91aA_fur3qNFGBz6CTIbOKrqdhYoLoPtPcPzN88L4A5FLucyXfb3ffy8i5rob4MjuayKcMq-l6jUhLKcGNud8kqaOVpuxUYfL_9_IHenpObel5QYIhQBr-GwkT7474STqArQ4Db8TRSe4C5z9oTO58Uj2Qu_McIH8vKZ1g9HivzBQ_oszQfhh_rIc3ytaXTM8MM2yGM_QrDE1bWirRm8DFJ4UEx9DwABlBCZNT-v7C-k-1kEFZInfsSfVL53OfGquQPa6WWet2LyHmxB-rac80fPSQslglKN7JVo7BJF8WTUv_eCqL-T0AEsvBYxqFr45W09_MoWqDHwd_6Q4-a40j3f-wTb4WpQd3O1UhioHFQZTT3FTbh9cm1zdA8vvAJg54cTjJIDNB-6tKmIYgfeKei5ESi-szPolMIXBG2iE_nQfXGIRSYV6T-8pGCDy6q648P4ByEOEIE9GaA6atoflHuBhOm7EJrpivkOrZHYFvu78QMVKwopPuoqt95Ivc1lWejIFSY66PoOyRKhevjd-GVX0hHFyXxG050NnUxNrvcVmxjIvWsVGUcu8Cdx9whT_xJ_YCi226LkBhyg78itN3u6ssCkiVVdy0]--></g></svg>