<?xml version="1.0" encoding="us-ascii" standalone="no"?><svg xmlns="http://www.w3.org/2000/svg" xmlns:xlink="http://www.w3.org/1999/xlink" contentStyleType="text/css" height="783px" preserveAspectRatio="none" style="width:1126px;height:783px;background:#FFFFFF;" version="1.1" viewBox="0 0 1126 783" width="1126px" zoomAndPan="magnify"><defs/><g><text fill="#000000" font-family="sans-serif" font-size="14" font-weight="bold" lengthAdjust="spacing" textLength="340" x="394.25" y="28.5352">Container Sequence Diagram (SD) - US010 (N3)</text><rect fill="#FFFFFF" height="262.7949" style="stroke:#181818;stroke-width:1.0;" width="10" x="312.5" y="150.2871"/><rect fill="#FFFFFF" height="241.7949" style="stroke:#181818;stroke-width:1.0;" width="10" x="312.5" y="442.3926"/><rect fill="#FFFFFF" height="204.1738" style="stroke:#181818;stroke-width:1.0;" width="10" x="461.5" y="179.5977"/><rect fill="#FFFFFF" height="183.1738" style="stroke:#181818;stroke-width:1.0;" width="10" x="461.5" y="471.7031"/><rect fill="#FFFFFF" height="145.5527" style="stroke:#181818;stroke-width:1.0;" width="10" x="697.5" y="208.9082"/><rect fill="#FFFFFF" height="109.2422" style="stroke:#181818;stroke-width:1.0;" width="10" x="697.5" y="516.3242"/><rect fill="#FFFFFF" height="86.9316" style="stroke:#181818;stroke-width:1.0;" width="10" x="876.5" y="238.2188"/><rect fill="#FFFFFF" height="39.9658" style="stroke:#181818;stroke-width:1.0;" width="10" x="876.5" y="545.6348"/><line style="stroke:#181818;stroke-width:0.5;stroke-dasharray:5.0,5.0;" x1="57" x2="57" y1="118.9766" y2="702.1875"/><line style="stroke:#181818;stroke-width:0.5;stroke-dasharray:5.0,5.0;" x1="317" x2="317" y1="118.9766" y2="702.1875"/><line style="stroke:#181818;stroke-width:0.5;stroke-dasharray:5.0,5.0;" x1="466" x2="466" y1="118.9766" y2="702.1875"/><line style="stroke:#181818;stroke-width:0.5;stroke-dasharray:5.0,5.0;" x1="702.5" x2="702.5" y1="118.9766" y2="702.1875"/><line style="stroke:#181818;stroke-width:0.5;stroke-dasharray:5.0,5.0;" x1="881.5" x2="881.5" y1="118.9766" y2="702.1875"/><text fill="#000000" font-family="sans-serif" font-size="14" lengthAdjust="spacing" textLength="99" x="5" y="116.0234">Administrador</text><ellipse cx="57.5" cy="50.9883" fill="#E3E3E3" rx="8" ry="8" style="stroke:#181818;stroke-width:0.5;"/><path d="M57.5,58.9883 L57.5,85.9883 M44.5,66.9883 L70.5,66.9883 M57.5,85.9883 L44.5,100.9883 M57.5,85.9883 L70.5,100.9883 " fill="none" style="stroke:#181818;stroke-width:0.5;"/><text fill="#000000" font-family="sans-serif" font-size="14" lengthAdjust="spacing" textLength="99" x="5" y="714.7227">Administrador</text><ellipse cx="57.5" cy="726.1758" fill="#E3E3E3" rx="8" ry="8" style="stroke:#181818;stroke-width:0.5;"/><path d="M57.5,734.1758 L57.5,761.1758 M44.5,742.1758 L70.5,742.1758 M57.5,761.1758 L44.5,776.1758 M57.5,761.1758 L70.5,776.1758 " fill="none" style="stroke:#181818;stroke-width:0.5;"/><rect fill="#E3E3E3" height="46.9766" rx="2.5" ry="2.5" style="stroke:#181818;stroke-width:0.5;" width="119" x="258" y="71"/><text fill="#000000" font-family="sans-serif" font-size="14" lengthAdjust="spacing" textLength="105" x="265" y="91.5352">&#171;C4:Container&#187;</text><text fill="#000000" font-family="sans-serif" font-size="14" lengthAdjust="spacing" textLength="89" x="273" y="108.0234">:Visualiza&#231;&#227;o</text><rect fill="#E3E3E3" height="46.9766" rx="2.5" ry="2.5" style="stroke:#181818;stroke-width:0.5;" width="119" x="258" y="701.1875"/><text fill="#000000" font-family="sans-serif" font-size="14" lengthAdjust="spacing" textLength="105" x="265" y="721.7227">&#171;C4:Container&#187;</text><text fill="#000000" font-family="sans-serif" font-size="14" lengthAdjust="spacing" textLength="89" x="273" y="738.2109">:Visualiza&#231;&#227;o</text><rect fill="#E3E3E3" height="30.4883" rx="2.5" ry="2.5" style="stroke:#181818;stroke-width:0.5;" width="95" x="419" y="87.4883"/><text fill="#000000" font-family="sans-serif" font-size="14" lengthAdjust="spacing" textLength="81" x="426" y="108.0234">Component</text><rect fill="#E3E3E3" height="30.4883" rx="2.5" ry="2.5" style="stroke:#181818;stroke-width:0.5;" width="95" x="419" y="701.1875"/><text fill="#000000" font-family="sans-serif" font-size="14" lengthAdjust="spacing" textLength="81" x="426" y="721.7227">Component</text><rect fill="#E3E3E3" height="30.4883" rx="2.5" ry="2.5" style="stroke:#181818;stroke-width:0.5;" width="62" x="671.5" y="87.4883"/><text fill="#000000" font-family="sans-serif" font-size="14" lengthAdjust="spacing" textLength="48" x="678.5" y="108.0234">Service</text><rect fill="#E3E3E3" height="30.4883" rx="2.5" ry="2.5" style="stroke:#181818;stroke-width:0.5;" width="62" x="671.5" y="701.1875"/><text fill="#000000" font-family="sans-serif" font-size="14" lengthAdjust="spacing" textLength="48" x="678.5" y="721.7227">Service</text><rect fill="#E3E3E3" height="63.4648" rx="2.5" ry="2.5" style="stroke:#181818;stroke-width:0.5;" width="138" x="812.5" y="54.5117"/><text fill="#000000" font-family="sans-serif" font-size="14" lengthAdjust="spacing" textLength="105" x="829" y="75.0469">&#171;C4:Container&#187;</text><text fill="#000000" font-family="sans-serif" font-size="14" lengthAdjust="spacing" textLength="124" x="819.5" y="91.5352">M&#243;dulo de Gest&#227;o</text><text fill="#000000" font-family="sans-serif" font-size="14" lengthAdjust="spacing" textLength="99" x="832" y="108.0234">de Informa&#231;&#227;o</text><rect fill="#E3E3E3" height="63.4648" rx="2.5" ry="2.5" style="stroke:#181818;stroke-width:0.5;" width="138" x="812.5" y="701.1875"/><text fill="#000000" font-family="sans-serif" font-size="14" lengthAdjust="spacing" textLength="105" x="829" y="721.7227">&#171;C4:Container&#187;</text><text fill="#000000" font-family="sans-serif" font-size="14" lengthAdjust="spacing" textLength="124" x="819.5" y="738.2109">M&#243;dulo de Gest&#227;o</text><text fill="#000000" font-family="sans-serif" font-size="14" lengthAdjust="spacing" textLength="99" x="832" y="754.6992">de Informa&#231;&#227;o</text><rect fill="#FFFFFF" height="262.7949" style="stroke:#181818;stroke-width:1.0;" width="10" x="312.5" y="150.2871"/><rect fill="#FFFFFF" height="241.7949" style="stroke:#181818;stroke-width:1.0;" width="10" x="312.5" y="442.3926"/><rect fill="#FFFFFF" height="204.1738" style="stroke:#181818;stroke-width:1.0;" width="10" x="461.5" y="179.5977"/><rect fill="#FFFFFF" height="183.1738" style="stroke:#181818;stroke-width:1.0;" width="10" x="461.5" y="471.7031"/><rect fill="#FFFFFF" height="145.5527" style="stroke:#181818;stroke-width:1.0;" width="10" x="697.5" y="208.9082"/><rect fill="#FFFFFF" height="109.2422" style="stroke:#181818;stroke-width:1.0;" width="10" x="697.5" y="516.3242"/><rect fill="#FFFFFF" height="86.9316" style="stroke:#181818;stroke-width:1.0;" width="10" x="876.5" y="238.2188"/><rect fill="#FFFFFF" height="39.9658" style="stroke:#181818;stroke-width:1.0;" width="10" x="876.5" y="545.6348"/><polygon fill="#181818" points="300.5,146.2871,310.5,150.2871,300.5,154.2871,304.5,150.2871" style="stroke:#181818;stroke-width:1.0;"/><line style="stroke:#181818;stroke-width:1.0;" x1="57.5" x2="306.5" y1="150.2871" y2="150.2871"/><text fill="#000000" font-family="sans-serif" font-size="13" font-weight="bold" lengthAdjust="spacing" textLength="9" x="64.5" y="145.5449">1</text><text fill="#000000" font-family="sans-serif" font-size="13" lengthAdjust="spacing" textLength="210" x="77.5" y="145.5449">Inicia opera&#231;&#227;o de criar utilizador</text><polygon fill="#181818" points="449.5,175.5977,459.5,179.5977,449.5,183.5977,453.5,179.5977" style="stroke:#181818;stroke-width:1.0;"/><line style="stroke:#181818;stroke-width:1.0;" x1="322.5" x2="455.5" y1="179.5977" y2="179.5977"/><text fill="#000000" font-family="sans-serif" font-size="13" font-weight="bold" lengthAdjust="spacing" textLength="9" x="329.5" y="174.8555">2</text><text fill="#000000" font-family="sans-serif" font-size="13" lengthAdjust="spacing" textLength="45" x="342.5" y="174.8555">ngInit()</text><polygon fill="#181818" points="685.5,204.9082,695.5,208.9082,685.5,212.9082,689.5,208.9082" style="stroke:#181818;stroke-width:1.0;"/><line style="stroke:#181818;stroke-width:1.0;" x1="471.5" x2="691.5" y1="208.9082" y2="208.9082"/><text fill="#000000" font-family="sans-serif" font-size="13" font-weight="bold" lengthAdjust="spacing" textLength="9" x="478.5" y="204.166">3</text><text fill="#000000" font-family="sans-serif" font-size="13" lengthAdjust="spacing" textLength="62" x="491.5" y="204.166">getRoles()</text><polygon fill="#181818" points="864.5,234.2188,874.5,238.2188,864.5,242.2188,868.5,238.2188" style="stroke:#181818;stroke-width:1.0;"/><line style="stroke:#181818;stroke-width:1.0;" x1="707.5" x2="870.5" y1="238.2188" y2="238.2188"/><text fill="#000000" font-family="sans-serif" font-size="13" font-weight="bold" lengthAdjust="spacing" textLength="9" x="714.5" y="233.4766">4</text><text fill="#000000" font-family="sans-serif" font-size="13" lengthAdjust="spacing" textLength="62" x="727.5" y="233.4766">getRoles()</text><line style="stroke:#181818;stroke-width:1.0;" x1="886.5" x2="928.5" y1="282.8398" y2="282.8398"/><line style="stroke:#181818;stroke-width:1.0;" x1="928.5" x2="928.5" y1="282.8398" y2="295.8398"/><line style="stroke:#181818;stroke-width:1.0;" x1="887.5" x2="928.5" y1="295.8398" y2="295.8398"/><polygon fill="#181818" points="897.5,291.8398,887.5,295.8398,897.5,299.8398,893.5,295.8398" style="stroke:#181818;stroke-width:1.0;"/><text fill="#000000" font-family="sans-serif" font-size="13" font-weight="bold" lengthAdjust="spacing" textLength="9" x="893.5" y="270.4424">5</text><text fill="#000000" font-family="sans-serif" font-size="13" lengthAdjust="spacing" textLength="137" x="906.5" y="262.7871">middleware.rolecheck</text><text fill="#000000" font-family="sans-serif" font-size="13" lengthAdjust="spacing" textLength="177" x="906.5" y="278.0977">("Admin" || "Administrador")</text><polygon fill="#181818" points="718.5,321.1504,708.5,325.1504,718.5,329.1504,714.5,325.1504" style="stroke:#181818;stroke-width:1.0;"/><line style="stroke:#181818;stroke-width:1.0;stroke-dasharray:2.0,2.0;" x1="712.5" x2="880.5" y1="325.1504" y2="325.1504"/><text fill="#000000" font-family="sans-serif" font-size="13" font-weight="bold" lengthAdjust="spacing" textLength="9" x="724.5" y="320.4082">6</text><text fill="#000000" font-family="sans-serif" font-size="13" lengthAdjust="spacing" textLength="84" x="737.5" y="320.4082">Lista de roles</text><polygon fill="#181818" points="482.5,350.4609,472.5,354.4609,482.5,358.4609,478.5,354.4609" style="stroke:#181818;stroke-width:1.0;"/><line style="stroke:#181818;stroke-width:1.0;stroke-dasharray:2.0,2.0;" x1="476.5" x2="701.5" y1="354.4609" y2="354.4609"/><text fill="#000000" font-family="sans-serif" font-size="13" font-weight="bold" lengthAdjust="spacing" textLength="9" x="488.5" y="349.7188">7</text><text fill="#000000" font-family="sans-serif" font-size="13" lengthAdjust="spacing" textLength="84" x="501.5" y="349.7188">Lista de roles</text><polygon fill="#181818" points="333.5,379.7715,323.5,383.7715,333.5,387.7715,329.5,383.7715" style="stroke:#181818;stroke-width:1.0;"/><line style="stroke:#181818;stroke-width:1.0;stroke-dasharray:2.0,2.0;" x1="327.5" x2="465.5" y1="383.7715" y2="383.7715"/><text fill="#000000" font-family="sans-serif" font-size="13" font-weight="bold" lengthAdjust="spacing" textLength="9" x="339.5" y="379.0293">8</text><text fill="#000000" font-family="sans-serif" font-size="13" lengthAdjust="spacing" textLength="31" x="352.5" y="379.0293">roles</text><polygon fill="#181818" points="68.5,409.082,58.5,413.082,68.5,417.082,64.5,413.082" style="stroke:#181818;stroke-width:1.0;"/><line style="stroke:#181818;stroke-width:1.0;stroke-dasharray:2.0,2.0;" x1="62.5" x2="316.5" y1="413.082" y2="413.082"/><text fill="#000000" font-family="sans-serif" font-size="13" font-weight="bold" lengthAdjust="spacing" textLength="9" x="74.5" y="408.3398">9</text><text fill="#000000" font-family="sans-serif" font-size="13" lengthAdjust="spacing" textLength="218" x="87.5" y="408.3398">Solicita dados que pretende mudar</text><polygon fill="#181818" points="300.5,438.3926,310.5,442.3926,300.5,446.3926,304.5,442.3926" style="stroke:#181818;stroke-width:1.0;"/><line style="stroke:#181818;stroke-width:1.0;" x1="57.5" x2="306.5" y1="442.3926" y2="442.3926"/><text fill="#000000" font-family="sans-serif" font-size="13" font-weight="bold" lengthAdjust="spacing" textLength="18" x="64.5" y="437.6504">10</text><text fill="#000000" font-family="sans-serif" font-size="13" lengthAdjust="spacing" textLength="168" x="86.5" y="437.6504">Introduz dados solicitados</text><polygon fill="#181818" points="449.5,467.7031,459.5,471.7031,449.5,475.7031,453.5,471.7031" style="stroke:#181818;stroke-width:1.0;"/><line style="stroke:#181818;stroke-width:1.0;" x1="322.5" x2="455.5" y1="471.7031" y2="471.7031"/><text fill="#000000" font-family="sans-serif" font-size="13" font-weight="bold" lengthAdjust="spacing" textLength="18" x="329.5" y="466.9609">11</text><text fill="#000000" font-family="sans-serif" font-size="13" lengthAdjust="spacing" textLength="98" x="351.5" y="466.9609">onSubmit(form)</text><polygon fill="#181818" points="685.5,512.3242,695.5,516.3242,685.5,520.3242,689.5,516.3242" style="stroke:#181818;stroke-width:1.0;"/><line style="stroke:#181818;stroke-width:1.0;" x1="471.5" x2="691.5" y1="516.3242" y2="516.3242"/><text fill="#000000" font-family="sans-serif" font-size="13" font-weight="bold" lengthAdjust="spacing" textLength="18" x="478.5" y="503.9268">12</text><text fill="#000000" font-family="sans-serif" font-size="13" lengthAdjust="spacing" textLength="181" x="500.5" y="496.2715">SignUp(firstName, lastName,</text><text fill="#000000" font-family="sans-serif" font-size="13" lengthAdjust="spacing" textLength="134" x="500.5" y="511.582">email, password, role</text><polygon fill="#181818" points="864.5,541.6348,874.5,545.6348,864.5,549.6348,868.5,545.6348" style="stroke:#181818;stroke-width:1.0;"/><line style="stroke:#181818;stroke-width:1.0;" x1="707.5" x2="870.5" y1="545.6348" y2="545.6348"/><text fill="#000000" font-family="sans-serif" font-size="13" font-weight="bold" lengthAdjust="spacing" textLength="18" x="714.5" y="540.8926">13</text><text fill="#000000" font-family="sans-serif" font-size="13" lengthAdjust="spacing" textLength="128" x="736.5" y="540.8926">POST /auth/signup/</text><polygon fill="#181818" points="718.5,581.6006,708.5,585.6006,718.5,589.6006,714.5,585.6006" style="stroke:#181818;stroke-width:1.0;"/><line style="stroke:#181818;stroke-width:1.0;stroke-dasharray:2.0,2.0;" x1="712.5" x2="880.5" y1="585.6006" y2="585.6006"/><text fill="#000000" font-family="sans-serif" font-size="13" font-weight="bold" lengthAdjust="spacing" textLength="18" x="724.5" y="580.8584">14</text><text fill="#000000" font-family="sans-serif" font-size="13" lengthAdjust="spacing" textLength="77" x="746.5" y="580.8584">201 OK user</text><path d="M891,558.6348 L891,598.6348 L1119,598.6348 L1119,568.6348 L1109,558.6348 L891,558.6348 " fill="#FAFAFA" style="stroke:#181818;stroke-width:0.5;"/><path d="M1109,558.6348 L1109,568.6348 L1119,568.6348 L1109,558.6348 " fill="#FAFAFA" style="stroke:#181818;stroke-width:0.5;"/><text fill="#000000" font-family="sans-serif" font-size="13" lengthAdjust="spacing" textLength="207" x="897" y="576.2031">M&#243;dulo de Gest&#227;o de Informa&#231;&#227;o</text><text fill="#000000" font-family="sans-serif" font-size="13" lengthAdjust="spacing" textLength="184" x="897" y="591.5137">&#233; a representa&#231;&#227;o do Sprint A</text><polygon fill="#181818" points="482.5,621.5664,472.5,625.5664,482.5,629.5664,478.5,625.5664" style="stroke:#181818;stroke-width:1.0;"/><line style="stroke:#181818;stroke-width:1.0;stroke-dasharray:2.0,2.0;" x1="476.5" x2="701.5" y1="625.5664" y2="625.5664"/><text fill="#000000" font-family="sans-serif" font-size="13" font-weight="bold" lengthAdjust="spacing" textLength="18" x="488.5" y="620.8242">15</text><text fill="#000000" font-family="sans-serif" font-size="13" lengthAdjust="spacing" textLength="77" x="510.5" y="620.8242">201 OK user</text><polygon fill="#181818" points="333.5,650.877,323.5,654.877,333.5,658.877,329.5,654.877" style="stroke:#181818;stroke-width:1.0;"/><line style="stroke:#181818;stroke-width:1.0;stroke-dasharray:2.0,2.0;" x1="327.5" x2="465.5" y1="654.877" y2="654.877"/><text fill="#000000" font-family="sans-serif" font-size="13" font-weight="bold" lengthAdjust="spacing" textLength="18" x="339.5" y="650.1348">16</text><text fill="#000000" font-family="sans-serif" font-size="13" lengthAdjust="spacing" textLength="77" x="361.5" y="650.1348">201 OK user</text><polygon fill="#181818" points="68.5,680.1875,58.5,684.1875,68.5,688.1875,64.5,684.1875" style="stroke:#181818;stroke-width:1.0;"/><line style="stroke:#181818;stroke-width:1.0;stroke-dasharray:2.0,2.0;" x1="62.5" x2="316.5" y1="684.1875" y2="684.1875"/><text fill="#000000" font-family="sans-serif" font-size="13" font-weight="bold" lengthAdjust="spacing" textLength="18" x="74.5" y="679.4453">17</text><text fill="#000000" font-family="sans-serif" font-size="13" lengthAdjust="spacing" textLength="141" x="96.5" y="679.4453">Mensagem de sucesso</text><!--SRC=[nLRDRXCn4BxxAKOv9L92Kk2qYY9LgOGgQ8jOoYaNTtUoiRAsbx7TYAflmm5nvX7oOepR_3L9OKbRSTgHFJ_V_7pZTLDbAabIWxR6PXEo6i5JGE5MDvNCfhB0r7yh4GWpBqrHRYguYSpjJ9a2nh9qA8HNdbM7rdYf31Aa-3MWoH1Eb2oYHJCzQK47BjFUKG-QvszQGiZWhGdw2edbp5k2nd6kbL7E4xkdXX1R1z0PGAFV7xvDLf46Wv59lYWNPAbkvFp7_Bjj971gLAOas0hf_WnoX8oK90XUHKrs5uEgQ-cnZazHGoV26rfTMOF69s0AXk6RhNMSrQLOIT4cHRfM6IPGeFzaItIRDejBiVW-KeAp-Qyyb7TflaFd6St8i7ngnfRq4jx-00Tw4uUYE3o11BJAyn9dal0LSHxP1BFfo3JlnwG1jxVR8zGw7EQwCLou3-nHHeCOreaSdro-LJytX-QFaPQJiETeOvpgKOG3xVXVJsUzOO-H7bOxWTIMpBoO01yuu2K05Q77cByEkQI_b6w7TazO0Pvi7cuMIDm26Cilotkkh3LfkD9C_TZlslHdmrGLvh9gZXKvVourjg6KIsbaK4jLjdavEpUpbBVlElX2Y-BZHVePkhoX9rt7e4BL5VznOspkoDUz8xXu3y75P-CPU6Wi6vCg9honTmrWItzavZz1yfl8K-suVylNnK9QaU9-7kydzaFSpyJWHrokn-mPohDDltwdKuz_PsWS_qFewDw539sp_yhztm00]--></g></svg>