<?xml version="1.0" encoding="us-ascii" standalone="no"?><svg xmlns="http://www.w3.org/2000/svg" xmlns:xlink="http://www.w3.org/1999/xlink" contentStyleType="text/css" height="441px" preserveAspectRatio="none" style="width:653px;height:441px;background:#FFFFFF;" version="1.1" viewBox="0 0 653 441" width="653px" zoomAndPan="magnify"><defs/><g><text fill="#000000" font-family="sans-serif" font-size="14" font-weight="bold" lengthAdjust="spacing" textLength="348" x="151.5" y="28.5352">Container Sequence Diagram (SSD) - US180 (N2)</text><rect fill="#FFFFFF" height="213.7949" style="stroke:#181818;stroke-width:1.0;" width="10" x="66" y="128.9766"/><rect fill="#FFFFFF" height="44.6211" style="stroke:#181818;stroke-width:1.0;" width="10" x="372" y="165.5977"/><rect fill="#FFFFFF" height="103.2422" style="stroke:#181818;stroke-width:1.0;" width="10" x="372" y="239.5293"/><rect fill="#FFFFFF" height="29.3105" style="stroke:#181818;stroke-width:1.0;" width="10" x="573" y="268.8398"/><line style="stroke:#181818;stroke-width:0.5;stroke-dasharray:5.0,5.0;" x1="71" x2="71" y1="118.9766" y2="360.7715"/><line style="stroke:#181818;stroke-width:0.5;stroke-dasharray:5.0,5.0;" x1="376.5" x2="376.5" y1="118.9766" y2="360.7715"/><line style="stroke:#181818;stroke-width:0.5;stroke-dasharray:5.0,5.0;" x1="578" x2="578" y1="118.9766" y2="360.7715"/><text fill="#000000" font-family="sans-serif" font-size="14" lengthAdjust="spacing" textLength="126" x="5" y="116.0234">Gestor de Campus</text><ellipse cx="71" cy="50.9883" fill="#E3E3E3" rx="8" ry="8" style="stroke:#181818;stroke-width:0.5;"/><path d="M71,58.9883 L71,85.9883 M58,66.9883 L84,66.9883 M71,85.9883 L58,100.9883 M71,85.9883 L84,100.9883 " fill="none" style="stroke:#181818;stroke-width:0.5;"/><text fill="#000000" font-family="sans-serif" font-size="14" lengthAdjust="spacing" textLength="126" x="5" y="373.3066">Gestor de Campus</text><ellipse cx="71" cy="384.7598" fill="#E3E3E3" rx="8" ry="8" style="stroke:#181818;stroke-width:0.5;"/><path d="M71,392.7598 L71,419.7598 M58,400.7598 L84,400.7598 M71,419.7598 L58,434.7598 M71,419.7598 L84,434.7598 " fill="none" style="stroke:#181818;stroke-width:0.5;"/><rect fill="#E3E3E3" height="46.9766" rx="2.5" ry="2.5" style="stroke:#181818;stroke-width:0.5;" width="119" x="317.5" y="71"/><text fill="#000000" font-family="sans-serif" font-size="14" lengthAdjust="spacing" textLength="105" x="324.5" y="91.5352">&#171;C4:Container&#187;</text><text fill="#000000" font-family="sans-serif" font-size="14" lengthAdjust="spacing" textLength="89" x="332.5" y="108.0234">:Visualiza&#231;&#227;o</text><rect fill="#E3E3E3" height="46.9766" rx="2.5" ry="2.5" style="stroke:#181818;stroke-width:0.5;" width="119" x="317.5" y="359.7715"/><text fill="#000000" font-family="sans-serif" font-size="14" lengthAdjust="spacing" textLength="105" x="324.5" y="380.3066">&#171;C4:Container&#187;</text><text fill="#000000" font-family="sans-serif" font-size="14" lengthAdjust="spacing" textLength="89" x="332.5" y="396.7949">:Visualiza&#231;&#227;o</text><rect fill="#E3E3E3" height="63.4648" rx="2.5" ry="2.5" style="stroke:#181818;stroke-width:0.5;" width="138" x="509" y="54.5117"/><text fill="#000000" font-family="sans-serif" font-size="14" lengthAdjust="spacing" textLength="105" x="525.5" y="75.0469">&#171;C4:Container&#187;</text><text fill="#000000" font-family="sans-serif" font-size="14" lengthAdjust="spacing" textLength="124" x="516" y="91.5352">M&#243;dulo de Gest&#227;o</text><text fill="#000000" font-family="sans-serif" font-size="14" lengthAdjust="spacing" textLength="99" x="528.5" y="108.0234">de Informa&#231;&#227;o</text><rect fill="#E3E3E3" height="63.4648" rx="2.5" ry="2.5" style="stroke:#181818;stroke-width:0.5;" width="138" x="509" y="359.7715"/><text fill="#000000" font-family="sans-serif" font-size="14" lengthAdjust="spacing" textLength="105" x="525.5" y="380.3066">&#171;C4:Container&#187;</text><text fill="#000000" font-family="sans-serif" font-size="14" lengthAdjust="spacing" textLength="124" x="516" y="396.7949">M&#243;dulo de Gest&#227;o</text><text fill="#000000" font-family="sans-serif" font-size="14" lengthAdjust="spacing" textLength="99" x="528.5" y="413.2832">de Informa&#231;&#227;o</text><rect fill="#FFFFFF" height="213.7949" style="stroke:#181818;stroke-width:1.0;" width="10" x="66" y="128.9766"/><rect fill="#FFFFFF" height="44.6211" style="stroke:#181818;stroke-width:1.0;" width="10" x="372" y="165.5977"/><rect fill="#FFFFFF" height="103.2422" style="stroke:#181818;stroke-width:1.0;" width="10" x="372" y="239.5293"/><rect fill="#FFFFFF" height="29.3105" style="stroke:#181818;stroke-width:1.0;" width="10" x="573" y="268.8398"/><polygon fill="#181818" points="360,161.5977,370,165.5977,360,169.5977,364,165.5977" style="stroke:#181818;stroke-width:1.0;"/><line style="stroke:#181818;stroke-width:1.0;" x1="76" x2="366" y1="165.5977" y2="165.5977"/><text fill="#000000" font-family="sans-serif" font-size="13" font-weight="bold" lengthAdjust="spacing" textLength="9" x="83" y="153.2002">1</text><text fill="#000000" font-family="sans-serif" font-size="13" lengthAdjust="spacing" textLength="246" x="96" y="145.5449">Requesita a listagem dos edif&#237;cios com</text><text fill="#000000" font-family="sans-serif" font-size="13" lengthAdjust="spacing" textLength="171" x="96" y="160.8555">m&#225;ximo e m&#237;nimo de pisos</text><polygon fill="#181818" points="87,206.2188,77,210.2188,87,214.2188,83,210.2188" style="stroke:#181818;stroke-width:1.0;"/><line style="stroke:#181818;stroke-width:1.0;" x1="81" x2="376" y1="210.2188" y2="210.2188"/><text fill="#000000" font-family="sans-serif" font-size="13" font-weight="bold" lengthAdjust="spacing" textLength="9" x="93" y="197.8213">2</text><text fill="#000000" font-family="sans-serif" font-size="13" lengthAdjust="spacing" textLength="191" x="106" y="190.166">Solicita informa&#231;&#227;o necess&#225;ria</text><text fill="#000000" font-family="sans-serif" font-size="13" lengthAdjust="spacing" textLength="259" x="106" y="205.4766">para a listagem dos edif&#237;cios (max e min)</text><polygon fill="#181818" points="360,235.5293,370,239.5293,360,243.5293,364,239.5293" style="stroke:#181818;stroke-width:1.0;"/><line style="stroke:#181818;stroke-width:1.0;" x1="76" x2="366" y1="239.5293" y2="239.5293"/><text fill="#000000" font-family="sans-serif" font-size="13" font-weight="bold" lengthAdjust="spacing" textLength="9" x="83" y="234.7871">3</text><text fill="#000000" font-family="sans-serif" font-size="13" lengthAdjust="spacing" textLength="183" x="96" y="234.7871">Apresenta dados necess&#225;rios</text><polygon fill="#181818" points="561,264.8398,571,268.8398,561,272.8398,565,268.8398" style="stroke:#181818;stroke-width:1.0;"/><line style="stroke:#181818;stroke-width:1.0;stroke-dasharray:2.0,2.0;" x1="382" x2="567" y1="268.8398" y2="268.8398"/><text fill="#000000" font-family="sans-serif" font-size="13" font-weight="bold" lengthAdjust="spacing" textLength="9" x="389" y="264.0977">4</text><text fill="#000000" font-family="sans-serif" font-size="13" lengthAdjust="spacing" textLength="159" x="402" y="264.0977">GET /buildings/max/min</text><polygon fill="#181818" points="393,294.1504,383,298.1504,393,302.1504,389,298.1504" style="stroke:#181818;stroke-width:1.0;"/><line style="stroke:#181818;stroke-width:1.0;stroke-dasharray:2.0,2.0;" x1="387" x2="577" y1="298.1504" y2="298.1504"/><text fill="#000000" font-family="sans-serif" font-size="13" font-weight="bold" lengthAdjust="spacing" textLength="9" x="399" y="293.4082">5</text><text fill="#000000" font-family="sans-serif" font-size="13" lengthAdjust="spacing" textLength="109" x="412" y="293.4082">200 OK buildings</text><polygon fill="#181818" points="82,338.7715,72,342.7715,82,346.7715,78,342.7715" style="stroke:#181818;stroke-width:1.0;"/><line style="stroke:#181818;stroke-width:1.0;stroke-dasharray:2.0,2.0;" x1="76" x2="376" y1="342.7715" y2="342.7715"/><text fill="#000000" font-family="sans-serif" font-size="13" font-weight="bold" lengthAdjust="spacing" textLength="9" x="88" y="330.374">6</text><text fill="#000000" font-family="sans-serif" font-size="13" lengthAdjust="spacing" textLength="160" x="101" y="322.7188">Imprime lista de edif&#237;cios</text><text fill="#000000" font-family="sans-serif" font-size="13" lengthAdjust="spacing" textLength="188" x="101" y="338.0293">com os par&#226;metros desejados</text><!--SRC=[jPJFJkCm4CRlUOfHJ-sXQa4SK5LLGh12QCKYRO1JBeCzBRF4TjPsbZzl0nmuSU8HycACWrGgXOM2n2cZp6VxDpEV7IxOLkZHW77MgNFl347qDMLXcQbGNU22ydXT4dXI4UsYN1M4SzJkakq2vbW6ohB8KQIxpaPaInvo-bkJLGHxZ8kqef_dUmCOmac-iJs6_g_DGPPX7PsjpHbvYLLq7dhx5D9NorvegZhqsWp_mqXl9Rk_O3Y3tdIwkpLPmincXPsSSgYnv1ji7ffxrvl0xqGOE28Wb1oYr6j0km2aUTuyAfPGELDOqznUiN50O9f7co8vhUBWmWhQnoTcQsXQ-4v94yXToIgXifqxRrxKO4bH2CsjPopQkRnJIT_WLQg0xI3Jz3dkh_Tuf_8KI2IWCG6z4dzByzx6EcoUT5ssKqkLYBIm4X-ij59GztySm-YivbABgyD8sZMIPhqBkSx6sHVN_Q-OReytnsCu-WbBz0_6knvqT-JJuN0zdWDJUPOdfNLYsk7LXOML2mNY0p5hSsSeUecrEEHFSiTdVRagxxuCpm00]--></g></svg>