<?xml version="1.0" encoding="us-ascii" standalone="no"?><svg xmlns="http://www.w3.org/2000/svg" xmlns:xlink="http://www.w3.org/1999/xlink" contentStyleType="text/css" height="704px" preserveAspectRatio="none" style="width:2532px;height:704px;background:#FFFFFF;" version="1.1" viewBox="0 0 2532 704" width="2532px" zoomAndPan="magnify"><defs/><g><text fill="#000000" font-family="sans-serif" font-size="14" font-weight="bold" lengthAdjust="spacing" textLength="340" x="1095.25" y="28.5352">Container Sequence Diagram (SD) - US260 (N3)</text><rect fill="#FFFFFF" height="29.3105" style="stroke:#181818;stroke-width:1.0;" width="10" x="496" y="150.2871"/><rect fill="#FFFFFF" height="396.3477" style="stroke:#181818;stroke-width:1.0;" width="10" x="496" y="208.9082"/><rect fill="#FFFFFF" height="337.7266" style="stroke:#181818;stroke-width:1.0;" width="10" x="824" y="238.2188"/><rect fill="#FFFFFF" height="279.1055" style="stroke:#181818;stroke-width:1.0;" width="10" x="1152" y="267.5293"/><rect fill="#FFFFFF" height="220.4844" style="stroke:#181818;stroke-width:1.0;" width="10" x="1399" y="296.8398"/><rect fill="#FFFFFF" height="161.8633" style="stroke:#181818;stroke-width:1.0;" width="10" x="1646" y="326.1504"/><rect fill="#FFFFFF" height="103.2422" style="stroke:#181818;stroke-width:1.0;" width="10" x="1893" y="355.4609"/><rect fill="#FFFFFF" height="29.3105" style="stroke:#181818;stroke-width:1.0;" width="10" x="2450" y="400.082"/><line style="stroke:#181818;stroke-width:0.5;stroke-dasharray:5.0,5.0;" x1="71" x2="71" y1="118.9766" y2="623.2559"/><line style="stroke:#181818;stroke-width:0.5;stroke-dasharray:5.0,5.0;" x1="500.5" x2="500.5" y1="118.9766" y2="623.2559"/><line style="stroke:#181818;stroke-width:0.5;stroke-dasharray:5.0,5.0;" x1="829" x2="829" y1="118.9766" y2="623.2559"/><line style="stroke:#181818;stroke-width:0.5;stroke-dasharray:5.0,5.0;" x1="1157" x2="1157" y1="118.9766" y2="623.2559"/><line style="stroke:#181818;stroke-width:0.5;stroke-dasharray:5.0,5.0;" x1="1404" x2="1404" y1="118.9766" y2="623.2559"/><line style="stroke:#181818;stroke-width:0.5;stroke-dasharray:5.0,5.0;" x1="1651" x2="1651" y1="118.9766" y2="623.2559"/><line style="stroke:#181818;stroke-width:0.5;stroke-dasharray:5.0,5.0;" x1="1897.5" x2="1897.5" y1="118.9766" y2="623.2559"/><line style="stroke:#181818;stroke-width:0.5;stroke-dasharray:5.0,5.0;" x1="2454.5" x2="2454.5" y1="118.9766" y2="623.2559"/><text fill="#000000" font-family="sans-serif" font-size="14" lengthAdjust="spacing" textLength="126" x="5" y="116.0234">Gestor de Campus</text><ellipse cx="71" cy="50.9883" fill="#E3E3E3" rx="8" ry="8" style="stroke:#181818;stroke-width:0.5;"/><path d="M71,58.9883 L71,85.9883 M58,66.9883 L84,66.9883 M71,85.9883 L58,100.9883 M71,85.9883 L84,100.9883 " fill="none" style="stroke:#181818;stroke-width:0.5;"/><text fill="#000000" font-family="sans-serif" font-size="14" lengthAdjust="spacing" textLength="126" x="5" y="635.791">Gestor de Campus</text><ellipse cx="71" cy="647.2441" fill="#E3E3E3" rx="8" ry="8" style="stroke:#181818;stroke-width:0.5;"/><path d="M71,655.2441 L71,682.2441 M58,663.2441 L84,663.2441 M71,682.2441 L58,697.2441 M71,682.2441 L84,697.2441 " fill="none" style="stroke:#181818;stroke-width:0.5;"/><rect fill="#E3E3E3" height="46.9766" rx="2.5" ry="2.5" style="stroke:#181818;stroke-width:0.5;" width="119" x="441.5" y="71"/><text fill="#000000" font-family="sans-serif" font-size="14" lengthAdjust="spacing" textLength="105" x="448.5" y="91.5352">&#171;C4:Container&#187;</text><text fill="#000000" font-family="sans-serif" font-size="14" lengthAdjust="spacing" textLength="89" x="456.5" y="108.0234">:Visualiza&#231;&#227;o</text><rect fill="#E3E3E3" height="46.9766" rx="2.5" ry="2.5" style="stroke:#181818;stroke-width:0.5;" width="119" x="441.5" y="622.2559"/><text fill="#000000" font-family="sans-serif" font-size="14" lengthAdjust="spacing" textLength="105" x="448.5" y="642.791">&#171;C4:Container&#187;</text><text fill="#000000" font-family="sans-serif" font-size="14" lengthAdjust="spacing" textLength="89" x="456.5" y="659.2793">:Visualiza&#231;&#227;o</text><rect fill="#E3E3E3" height="63.4648" rx="2.5" ry="2.5" style="stroke:#181818;stroke-width:0.5;" width="138" x="760" y="54.5117"/><text fill="#000000" font-family="sans-serif" font-size="14" lengthAdjust="spacing" textLength="105" x="776.5" y="75.0469">&#171;C4:Container&#187;</text><text fill="#000000" font-family="sans-serif" font-size="14" lengthAdjust="spacing" textLength="124" x="767" y="91.5352">M&#243;dulo de Gest&#227;o</text><text fill="#000000" font-family="sans-serif" font-size="14" lengthAdjust="spacing" textLength="99" x="779.5" y="108.0234">de Informa&#231;&#227;o</text><rect fill="#E3E3E3" height="63.4648" rx="2.5" ry="2.5" style="stroke:#181818;stroke-width:0.5;" width="138" x="760" y="622.2559"/><text fill="#000000" font-family="sans-serif" font-size="14" lengthAdjust="spacing" textLength="105" x="776.5" y="642.791">&#171;C4:Container&#187;</text><text fill="#000000" font-family="sans-serif" font-size="14" lengthAdjust="spacing" textLength="124" x="767" y="659.2793">M&#243;dulo de Gest&#227;o</text><text fill="#000000" font-family="sans-serif" font-size="14" lengthAdjust="spacing" textLength="99" x="779.5" y="675.7676">de Informa&#231;&#227;o</text><rect fill="#E3E3E3" height="30.4883" rx="2.5" ry="2.5" style="stroke:#181818;stroke-width:0.5;" width="130" x="1092" y="87.4883"/><text fill="#000000" font-family="sans-serif" font-size="14" lengthAdjust="spacing" textLength="116" x="1099" y="108.0234">connectionRoute</text><rect fill="#E3E3E3" height="30.4883" rx="2.5" ry="2.5" style="stroke:#181818;stroke-width:0.5;" width="130" x="1092" y="622.2559"/><text fill="#000000" font-family="sans-serif" font-size="14" lengthAdjust="spacing" textLength="116" x="1099" y="642.791">connectionRoute</text><rect fill="#E3E3E3" height="30.4883" rx="2.5" ry="2.5" style="stroke:#181818;stroke-width:0.5;" width="160" x="1324" y="87.4883"/><text fill="#000000" font-family="sans-serif" font-size="14" lengthAdjust="spacing" textLength="146" x="1331" y="108.0234">connectionController</text><rect fill="#E3E3E3" height="30.4883" rx="2.5" ry="2.5" style="stroke:#181818;stroke-width:0.5;" width="160" x="1324" y="622.2559"/><text fill="#000000" font-family="sans-serif" font-size="14" lengthAdjust="spacing" textLength="146" x="1331" y="642.791">connectionController</text><rect fill="#E3E3E3" height="30.4883" rx="2.5" ry="2.5" style="stroke:#181818;stroke-width:0.5;" width="138" x="1582" y="87.4883"/><text fill="#000000" font-family="sans-serif" font-size="14" lengthAdjust="spacing" textLength="124" x="1589" y="108.0234">connectionService</text><rect fill="#E3E3E3" height="30.4883" rx="2.5" ry="2.5" style="stroke:#181818;stroke-width:0.5;" width="138" x="1582" y="622.2559"/><text fill="#000000" font-family="sans-serif" font-size="14" lengthAdjust="spacing" textLength="124" x="1589" y="642.791">connectionService</text><rect fill="#E3E3E3" height="30.4883" rx="2.5" ry="2.5" style="stroke:#181818;stroke-width:0.5;" width="125" x="1835.5" y="87.4883"/><text fill="#000000" font-family="sans-serif" font-size="14" lengthAdjust="spacing" textLength="111" x="1842.5" y="108.0234">connectionRepo</text><rect fill="#E3E3E3" height="30.4883" rx="2.5" ry="2.5" style="stroke:#181818;stroke-width:0.5;" width="125" x="1835.5" y="622.2559"/><text fill="#000000" font-family="sans-serif" font-size="14" lengthAdjust="spacing" textLength="111" x="1842.5" y="642.791">connectionRepo</text><rect fill="#E3E3E3" height="30.4883" rx="2.5" ry="2.5" style="stroke:#181818;stroke-width:0.5;" width="143" x="2383.5" y="87.4883"/><text fill="#000000" font-family="sans-serif" font-size="14" lengthAdjust="spacing" textLength="129" x="2390.5" y="108.0234">connectionSchema</text><rect fill="#E3E3E3" height="30.4883" rx="2.5" ry="2.5" style="stroke:#181818;stroke-width:0.5;" width="143" x="2383.5" y="622.2559"/><text fill="#000000" font-family="sans-serif" font-size="14" lengthAdjust="spacing" textLength="129" x="2390.5" y="642.791">connectionSchema</text><rect fill="#FFFFFF" height="29.3105" style="stroke:#181818;stroke-width:1.0;" width="10" x="496" y="150.2871"/><rect fill="#FFFFFF" height="396.3477" style="stroke:#181818;stroke-width:1.0;" width="10" x="496" y="208.9082"/><rect fill="#FFFFFF" height="337.7266" style="stroke:#181818;stroke-width:1.0;" width="10" x="824" y="238.2188"/><rect fill="#FFFFFF" height="279.1055" style="stroke:#181818;stroke-width:1.0;" width="10" x="1152" y="267.5293"/><rect fill="#FFFFFF" height="220.4844" style="stroke:#181818;stroke-width:1.0;" width="10" x="1399" y="296.8398"/><rect fill="#FFFFFF" height="161.8633" style="stroke:#181818;stroke-width:1.0;" width="10" x="1646" y="326.1504"/><rect fill="#FFFFFF" height="103.2422" style="stroke:#181818;stroke-width:1.0;" width="10" x="1893" y="355.4609"/><rect fill="#FFFFFF" height="29.3105" style="stroke:#181818;stroke-width:1.0;" width="10" x="2450" y="400.082"/><polygon fill="#181818" points="484,146.2871,494,150.2871,484,154.2871,488,150.2871" style="stroke:#181818;stroke-width:1.0;"/><line style="stroke:#181818;stroke-width:1.0;" x1="71" x2="490" y1="150.2871" y2="150.2871"/><text fill="#000000" font-family="sans-serif" font-size="13" font-weight="bold" lengthAdjust="spacing" textLength="9" x="78" y="145.5449">1</text><text fill="#000000" font-family="sans-serif" font-size="13" lengthAdjust="spacing" textLength="274" x="91" y="145.5449">Pede lista de passagens entre dois edif&#237;cios</text><polygon fill="#181818" points="82,175.5977,72,179.5977,82,183.5977,78,179.5977" style="stroke:#181818;stroke-width:1.0;"/><line style="stroke:#181818;stroke-width:1.0;stroke-dasharray:2.0,2.0;" x1="76" x2="500" y1="179.5977" y2="179.5977"/><text fill="#000000" font-family="sans-serif" font-size="13" font-weight="bold" lengthAdjust="spacing" textLength="9" x="88" y="174.8555">2</text><text fill="#000000" font-family="sans-serif" font-size="13" lengthAdjust="spacing" textLength="330" x="101" y="174.8555">Solicita dados necess&#225;rios (buildingId1, buildingId2)</text><polygon fill="#181818" points="484,204.9082,494,208.9082,484,212.9082,488,208.9082" style="stroke:#181818;stroke-width:1.0;"/><line style="stroke:#181818;stroke-width:1.0;" x1="71" x2="490" y1="208.9082" y2="208.9082"/><text fill="#000000" font-family="sans-serif" font-size="13" font-weight="bold" lengthAdjust="spacing" textLength="9" x="78" y="204.166">3</text><text fill="#000000" font-family="sans-serif" font-size="13" lengthAdjust="spacing" textLength="168" x="91" y="204.166">Introduz dados solicitados</text><polygon fill="#181818" points="812,234.2188,822,238.2188,812,242.2188,816,238.2188" style="stroke:#181818;stroke-width:1.0;"/><line style="stroke:#181818;stroke-width:1.0;" x1="506" x2="818" y1="238.2188" y2="238.2188"/><text fill="#000000" font-family="sans-serif" font-size="13" font-weight="bold" lengthAdjust="spacing" textLength="9" x="513" y="233.4766">4</text><text fill="#000000" font-family="sans-serif" font-size="13" lengthAdjust="spacing" textLength="286" x="526" y="233.4766">GET /connections/{buildingId1}/{buildingId2}</text><polygon fill="#181818" points="1140,263.5293,1150,267.5293,1140,271.5293,1144,267.5293" style="stroke:#181818;stroke-width:1.0;"/><line style="stroke:#181818;stroke-width:1.0;" x1="834" x2="1146" y1="267.5293" y2="267.5293"/><text fill="#000000" font-family="sans-serif" font-size="13" font-weight="bold" lengthAdjust="spacing" textLength="9" x="841" y="262.7871">5</text><text fill="#000000" font-family="sans-serif" font-size="13" lengthAdjust="spacing" textLength="286" x="854" y="262.7871">GET /connections/{buildingId1}/{buildingId2}</text><polygon fill="#181818" points="1387,292.8398,1397,296.8398,1387,300.8398,1391,296.8398" style="stroke:#181818;stroke-width:1.0;"/><line style="stroke:#181818;stroke-width:1.0;" x1="1162" x2="1393" y1="296.8398" y2="296.8398"/><text fill="#000000" font-family="sans-serif" font-size="13" font-weight="bold" lengthAdjust="spacing" textLength="9" x="1169" y="292.0977">6</text><text fill="#000000" font-family="sans-serif" font-size="13" lengthAdjust="spacing" textLength="205" x="1182" y="292.0977">getConnectionsBetween(req, res)</text><polygon fill="#181818" points="1634,322.1504,1644,326.1504,1634,330.1504,1638,326.1504" style="stroke:#181818;stroke-width:1.0;"/><line style="stroke:#181818;stroke-width:1.0;" x1="1409" x2="1640" y1="326.1504" y2="326.1504"/><text fill="#000000" font-family="sans-serif" font-size="13" font-weight="bold" lengthAdjust="spacing" textLength="9" x="1416" y="321.4082">7</text><text fill="#000000" font-family="sans-serif" font-size="13" lengthAdjust="spacing" textLength="205" x="1429" y="321.4082">getConnectionsBetween(req, res)</text><polygon fill="#181818" points="1881,351.4609,1891,355.4609,1881,359.4609,1885,355.4609" style="stroke:#181818;stroke-width:1.0;"/><line style="stroke:#181818;stroke-width:1.0;" x1="1656" x2="1887" y1="355.4609" y2="355.4609"/><text fill="#000000" font-family="sans-serif" font-size="13" font-weight="bold" lengthAdjust="spacing" textLength="9" x="1663" y="350.7188">8</text><text fill="#000000" font-family="sans-serif" font-size="13" lengthAdjust="spacing" textLength="205" x="1676" y="350.7188">getConnectionsBetween(req, res)</text><polygon fill="#181818" points="2438,396.082,2448,400.082,2438,404.082,2442,400.082" style="stroke:#181818;stroke-width:1.0;"/><line style="stroke:#181818;stroke-width:1.0;" x1="1903" x2="2444" y1="400.082" y2="400.082"/><text fill="#000000" font-family="sans-serif" font-size="13" font-weight="bold" lengthAdjust="spacing" textLength="9" x="1910" y="387.6846">9</text><text fill="#000000" font-family="sans-serif" font-size="13" lengthAdjust="spacing" textLength="515" x="1923" y="380.0293">find($or: [ { buildingfromId: { $eq: buildingId1 }, buildingtoId: { $eq: buildingId2 } }</text><text fill="#000000" font-family="sans-serif" font-size="13" lengthAdjust="spacing" textLength="465" x="1923" y="395.3398">,{ buildingfromId: { $eq: buildingId2 }, buildingtoId: { $eq: buildingId1 } } ])</text><polygon fill="#181818" points="1914,425.3926,1904,429.3926,1914,433.3926,1910,429.3926" style="stroke:#181818;stroke-width:1.0;"/><line style="stroke:#181818;stroke-width:1.0;stroke-dasharray:2.0,2.0;" x1="1908" x2="2454" y1="429.3926" y2="429.3926"/><text fill="#000000" font-family="sans-serif" font-size="13" font-weight="bold" lengthAdjust="spacing" textLength="18" x="1920" y="424.6504">10</text><text fill="#000000" font-family="sans-serif" font-size="13" lengthAdjust="spacing" textLength="134" x="1942" y="424.6504">connectionDTOresult</text><polygon fill="#181818" points="1667,454.7031,1657,458.7031,1667,462.7031,1663,458.7031" style="stroke:#181818;stroke-width:1.0;"/><line style="stroke:#181818;stroke-width:1.0;stroke-dasharray:2.0,2.0;" x1="1661" x2="1897" y1="458.7031" y2="458.7031"/><text fill="#000000" font-family="sans-serif" font-size="13" font-weight="bold" lengthAdjust="spacing" textLength="18" x="1673" y="453.9609">11</text><text fill="#000000" font-family="sans-serif" font-size="13" lengthAdjust="spacing" textLength="134" x="1695" y="453.9609">connectionDTOresult</text><polygon fill="#181818" points="1420,484.0137,1410,488.0137,1420,492.0137,1416,488.0137" style="stroke:#181818;stroke-width:1.0;"/><line style="stroke:#181818;stroke-width:1.0;stroke-dasharray:2.0,2.0;" x1="1414" x2="1650" y1="488.0137" y2="488.0137"/><text fill="#000000" font-family="sans-serif" font-size="13" font-weight="bold" lengthAdjust="spacing" textLength="18" x="1426" y="483.2715">12</text><text fill="#000000" font-family="sans-serif" font-size="13" lengthAdjust="spacing" textLength="134" x="1448" y="483.2715">connectionDTOresult</text><polygon fill="#181818" points="1173,513.3242,1163,517.3242,1173,521.3242,1169,517.3242" style="stroke:#181818;stroke-width:1.0;"/><line style="stroke:#181818;stroke-width:1.0;stroke-dasharray:2.0,2.0;" x1="1167" x2="1403" y1="517.3242" y2="517.3242"/><text fill="#000000" font-family="sans-serif" font-size="13" font-weight="bold" lengthAdjust="spacing" textLength="18" x="1179" y="512.582">13</text><text fill="#000000" font-family="sans-serif" font-size="13" lengthAdjust="spacing" textLength="120" x="1201" y="512.582">200 OK connection</text><polygon fill="#181818" points="845,542.6348,835,546.6348,845,550.6348,841,546.6348" style="stroke:#181818;stroke-width:1.0;"/><line style="stroke:#181818;stroke-width:1.0;stroke-dasharray:2.0,2.0;" x1="839" x2="1156" y1="546.6348" y2="546.6348"/><text fill="#000000" font-family="sans-serif" font-size="13" font-weight="bold" lengthAdjust="spacing" textLength="18" x="851" y="541.8926">14</text><text fill="#000000" font-family="sans-serif" font-size="13" lengthAdjust="spacing" textLength="120" x="873" y="541.8926">200 OK connection</text><polygon fill="#181818" points="517,571.9453,507,575.9453,517,579.9453,513,575.9453" style="stroke:#181818;stroke-width:1.0;"/><line style="stroke:#181818;stroke-width:1.0;stroke-dasharray:2.0,2.0;" x1="511" x2="828" y1="575.9453" y2="575.9453"/><text fill="#000000" font-family="sans-serif" font-size="13" font-weight="bold" lengthAdjust="spacing" textLength="18" x="523" y="571.2031">15</text><text fill="#000000" font-family="sans-serif" font-size="13" lengthAdjust="spacing" textLength="120" x="545" y="571.2031">200 OK connection</text><polygon fill="#181818" points="82,601.2559,72,605.2559,82,609.2559,78,605.2559" style="stroke:#181818;stroke-width:1.0;"/><line style="stroke:#181818;stroke-width:1.0;stroke-dasharray:2.0,2.0;" x1="76" x2="500" y1="605.2559" y2="605.2559"/><text fill="#000000" font-family="sans-serif" font-size="13" font-weight="bold" lengthAdjust="spacing" textLength="18" x="88" y="600.5137">16</text><text fill="#000000" font-family="sans-serif" font-size="13" lengthAdjust="spacing" textLength="379" x="110" y="600.5137">Mostra lista de passagens entre os dois edif&#237;cios escolhidos</text><!--SRC=[jLMnRjim4Dtv5GSZWmtOYAqM7GJ3G-qYC8eqHPLsgJimujacGf4sIILe0dzCqQ5Jftw2VwnaObYof1YoYauYJtVl7XzvT-QMonNLD854IHKljKeGh4wHcFsV5OrlwG8Z-rqWQ8mjbGkHTp1BojGzbmkOKs6G4CkjSnqhQIcNg272TOeoHfXmkl0HxMZIWHvyZe8tVMX_UDKXXAPMoJIvGUtMiLKQMXTe_9SvA9giKjCYf6o3tWXQm-7uTRZFDnhDPFY5cvGA_a2tlxO_LIk4Z-Y213UM-kWLDSOTIXf0QJK2Kzmj6PzlVyTS6K-1tr6BTR193H_eUPubzY54Il2OUr9EH0CIOpHc-qCx4j2-IRbWJjWf6tGXsmGTml0aXlyYtDG9f5Zwi6DeTeJPVr6fajFbzWzBXVBa_J6SvqowzLJEbKxsF2_UNSDvhAIJq78bpVbZJhvDVXTio57gTVAHXd7-Y1d9JogrU2BrFVC232di3pDvebe9WJg41Tfnbkmjsdj4sTQuxhhwDfsg35augJ8UvefGt_4O6oNQnPAIfI0ShbGZV1z83hS5yl4I4nh2d4lMFbDEhg_mk2- -kUkGKnOwonckmrnD3c2JbQXLbJu1R60pazqQS44Dk867Ws_LCZwTWXGDJsseg6AsdrnVETrIOVFzvGZeithLTr-5MWrRk9BzVR_uVkiJBZsc_9CjLoA44FJxSFK-zwCQkR8UTcNNl8dLp_zSyOrxKDtUVvHDuyvPdaN3NgyUeKjbhAOlpt4te0gZ7D34IYovdrSdJis_]--></g></svg>