<?xml version="1.0" encoding="us-ascii" standalone="no"?><svg xmlns="http://www.w3.org/2000/svg" xmlns:xlink="http://www.w3.org/1999/xlink" contentStyleType="text/css" height="441px" preserveAspectRatio="none" style="width:914px;height:441px;background:#FFFFFF;" version="1.1" viewBox="0 0 914 441" width="914px" zoomAndPan="magnify"><defs/><g><text fill="#000000" font-family="sans-serif" font-size="14" font-weight="bold" lengthAdjust="spacing" textLength="330" x="291" y="28.5352">System Sequence Diagram (SSD) - US250 (N2)</text><rect fill="#FFFFFF" height="59.9316" style="stroke:#181818;stroke-width:1.0;" width="10" x="434" y="150.2871"/><rect fill="#FFFFFF" height="103.2422" style="stroke:#181818;stroke-width:1.0;" width="10" x="434" y="239.5293"/><rect fill="#FFFFFF" height="29.3105" style="stroke:#181818;stroke-width:1.0;" width="10" x="834" y="284.1504"/><line style="stroke:#181818;stroke-width:0.5;stroke-dasharray:5.0,5.0;" x1="71" x2="71" y1="118.9766" y2="360.7715"/><line style="stroke:#181818;stroke-width:0.5;stroke-dasharray:5.0,5.0;" x1="438.5" x2="438.5" y1="118.9766" y2="360.7715"/><line style="stroke:#181818;stroke-width:0.5;stroke-dasharray:5.0,5.0;" x1="839" x2="839" y1="118.9766" y2="360.7715"/><text fill="#000000" font-family="sans-serif" font-size="14" lengthAdjust="spacing" textLength="126" x="5" y="116.0234">Gestor de Campus</text><ellipse cx="71" cy="50.9883" fill="#E3E3E3" rx="8" ry="8" style="stroke:#181818;stroke-width:0.5;"/><path d="M71,58.9883 L71,85.9883 M58,66.9883 L84,66.9883 M71,85.9883 L58,100.9883 M71,85.9883 L84,100.9883 " fill="none" style="stroke:#181818;stroke-width:0.5;"/><text fill="#000000" font-family="sans-serif" font-size="14" lengthAdjust="spacing" textLength="126" x="5" y="373.3066">Gestor de Campus</text><ellipse cx="71" cy="384.7598" fill="#E3E3E3" rx="8" ry="8" style="stroke:#181818;stroke-width:0.5;"/><path d="M71,392.7598 L71,419.7598 M58,400.7598 L84,400.7598 M71,419.7598 L58,434.7598 M71,419.7598 L84,434.7598 " fill="none" style="stroke:#181818;stroke-width:0.5;"/><rect fill="#E3E3E3" height="46.9766" rx="2.5" ry="2.5" style="stroke:#181818;stroke-width:0.5;" width="119" x="379.5" y="71"/><text fill="#000000" font-family="sans-serif" font-size="14" lengthAdjust="spacing" textLength="105" x="386.5" y="91.5352">&#171;C4:Container&#187;</text><text fill="#000000" font-family="sans-serif" font-size="14" lengthAdjust="spacing" textLength="89" x="394.5" y="108.0234">:Visualiza&#231;&#227;o</text><rect fill="#E3E3E3" height="46.9766" rx="2.5" ry="2.5" style="stroke:#181818;stroke-width:0.5;" width="119" x="379.5" y="359.7715"/><text fill="#000000" font-family="sans-serif" font-size="14" lengthAdjust="spacing" textLength="105" x="386.5" y="380.3066">&#171;C4:Container&#187;</text><text fill="#000000" font-family="sans-serif" font-size="14" lengthAdjust="spacing" textLength="89" x="394.5" y="396.7949">:Visualiza&#231;&#227;o</text><rect fill="#E3E3E3" height="63.4648" rx="2.5" ry="2.5" style="stroke:#181818;stroke-width:0.5;" width="138" x="770" y="54.5117"/><text fill="#000000" font-family="sans-serif" font-size="14" lengthAdjust="spacing" textLength="105" x="786.5" y="75.0469">&#171;C4:Container&#187;</text><text fill="#000000" font-family="sans-serif" font-size="14" lengthAdjust="spacing" textLength="124" x="777" y="91.5352">M&#243;dulo de Gest&#227;o</text><text fill="#000000" font-family="sans-serif" font-size="14" lengthAdjust="spacing" textLength="99" x="789.5" y="108.0234">de Informa&#231;&#227;o</text><rect fill="#E3E3E3" height="63.4648" rx="2.5" ry="2.5" style="stroke:#181818;stroke-width:0.5;" width="138" x="770" y="359.7715"/><text fill="#000000" font-family="sans-serif" font-size="14" lengthAdjust="spacing" textLength="105" x="786.5" y="380.3066">&#171;C4:Container&#187;</text><text fill="#000000" font-family="sans-serif" font-size="14" lengthAdjust="spacing" textLength="124" x="777" y="396.7949">M&#243;dulo de Gest&#227;o</text><text fill="#000000" font-family="sans-serif" font-size="14" lengthAdjust="spacing" textLength="99" x="789.5" y="413.2832">de Informa&#231;&#227;o</text><rect fill="#FFFFFF" height="59.9316" style="stroke:#181818;stroke-width:1.0;" width="10" x="434" y="150.2871"/><rect fill="#FFFFFF" height="103.2422" style="stroke:#181818;stroke-width:1.0;" width="10" x="434" y="239.5293"/><rect fill="#FFFFFF" height="29.3105" style="stroke:#181818;stroke-width:1.0;" width="10" x="834" y="284.1504"/><polygon fill="#181818" points="422,146.2871,432,150.2871,422,154.2871,426,150.2871" style="stroke:#181818;stroke-width:1.0;"/><line style="stroke:#181818;stroke-width:1.0;" x1="71" x2="428" y1="150.2871" y2="150.2871"/><text fill="#000000" font-family="sans-serif" font-size="13" font-weight="bold" lengthAdjust="spacing" textLength="9" x="78" y="145.5449">1</text><text fill="#000000" font-family="sans-serif" font-size="13" lengthAdjust="spacing" textLength="271" x="91" y="145.5449">Solicita edi&#231;&#227;o de passagem entre edif&#237;cios</text><polygon fill="#181818" points="82,206.2188,72,210.2188,82,214.2188,78,210.2188" style="stroke:#181818;stroke-width:1.0;"/><line style="stroke:#181818;stroke-width:1.0;stroke-dasharray:2.0,2.0;" x1="76" x2="438" y1="210.2188" y2="210.2188"/><text fill="#000000" font-family="sans-serif" font-size="13" font-weight="bold" lengthAdjust="spacing" textLength="9" x="88" y="190.166">2</text><text fill="#000000" font-family="sans-serif" font-size="13" lengthAdjust="spacing" textLength="260" x="101" y="174.8555">Solicita dados necess&#225;rios (connectionId,</text><text fill="#000000" font-family="sans-serif" font-size="13" lengthAdjust="spacing" textLength="326" x="101" y="190.166">buildingfromId, buildingtoId, floorfromId, floortoId,</text><text fill="#000000" font-family="sans-serif" font-size="13" lengthAdjust="spacing" textLength="130" x="105" y="205.4766">locationX, locationY)</text><polygon fill="#181818" points="422,235.5293,432,239.5293,422,243.5293,426,239.5293" style="stroke:#181818;stroke-width:1.0;"/><line style="stroke:#181818;stroke-width:1.0;" x1="71" x2="428" y1="239.5293" y2="239.5293"/><text fill="#000000" font-family="sans-serif" font-size="13" font-weight="bold" lengthAdjust="spacing" textLength="9" x="78" y="234.7871">3</text><text fill="#000000" font-family="sans-serif" font-size="13" lengthAdjust="spacing" textLength="168" x="91" y="234.7871">Introduz dados solicitados</text><polygon fill="#181818" points="822,280.1504,832,284.1504,822,288.1504,826,284.1504" style="stroke:#181818;stroke-width:1.0;"/><line style="stroke:#181818;stroke-width:1.0;" x1="444" x2="828" y1="284.1504" y2="284.1504"/><text fill="#000000" font-family="sans-serif" font-size="13" font-weight="bold" lengthAdjust="spacing" textLength="9" x="451" y="271.7529">4</text><text fill="#000000" font-family="sans-serif" font-size="13" lengthAdjust="spacing" textLength="315" x="464" y="264.0977">PUT /connections/ {connectionId, buildingfromId,</text><text fill="#000000" font-family="sans-serif" font-size="13" lengthAdjust="spacing" textLength="358" x="464" y="279.4082">buildingtoId, floorfromId, floortoId, locationX, locationY}</text><polygon fill="#181818" points="455,309.4609,445,313.4609,455,317.4609,451,313.4609" style="stroke:#181818;stroke-width:1.0;"/><line style="stroke:#181818;stroke-width:1.0;stroke-dasharray:2.0,2.0;" x1="449" x2="838" y1="313.4609" y2="313.4609"/><text fill="#000000" font-family="sans-serif" font-size="13" font-weight="bold" lengthAdjust="spacing" textLength="9" x="461" y="308.7188">5</text><text fill="#000000" font-family="sans-serif" font-size="13" lengthAdjust="spacing" textLength="173" x="474" y="308.7188">200 OK updatedConnection</text><polygon fill="#181818" points="82,338.7715,72,342.7715,82,346.7715,78,342.7715" style="stroke:#181818;stroke-width:1.0;"/><line style="stroke:#181818;stroke-width:1.0;stroke-dasharray:2.0,2.0;" x1="76" x2="438" y1="342.7715" y2="342.7715"/><text fill="#000000" font-family="sans-serif" font-size="13" font-weight="bold" lengthAdjust="spacing" textLength="9" x="88" y="338.0293">6</text><text fill="#000000" font-family="sans-serif" font-size="13" lengthAdjust="spacing" textLength="283" x="101" y="338.0293">Mostra a passagem entre edif&#237;cios atualizada</text><!--SRC=[jLDBQnin4BxhLmm-sP0bnYGNOtnn89YIDh1DQS6NiJJhY6WrMprIaj8VKthegQV-XFrZaPp4UJX9DoqzxRmqV8zPVwPjWmvhgDcoF7LS4mGNIVXDfq5vXYigmuKXS2G3sfMvF-1FKV4NRLTGeV4aHD0XZPONFb0D9NsEP2N1WSPL7k-NvS402ZWfH_j3wByT3OJ06DZ6UaaknJAmWzuX-VnL13Eic-XxGcpNe9X2RpAPxOrdR0DgIsuwNTZn1-qZ6ds9xS_s1_V6KBBHKWS4KdfToqiQz3ungu5iS9HRLVjBQlOPWpx7G5sMYmupK6IWM_3luL99Gm-M97dVVdS91FGbsrG8ckrSxIpiCcgZainLSYaLu3OFdBFACBlRrZfPrnSM34lCIpxkRC9F0w7eLIJ_HVnvafTLlBmXwMyug_yYz9EOZjhVAfgrwPb6cbpO5CzjnQxUu3m-UG-xTwBxNVZwm09uvC2T9IzQyAG1trwatWMl-CjtrxVOnRVHS0Zlta1iL8AfPXif_d0xtS1ldzEaABhXEc8V708-_mC3Xkid2bzxw5S0]--></g></svg>