<?xml version="1.0" encoding="us-ascii" standalone="no"?><svg xmlns="http://www.w3.org/2000/svg" xmlns:xlink="http://www.w3.org/1999/xlink" contentStyleType="text/css" height="1163px" preserveAspectRatio="none" style="width:1290px;height:1163px;background:#FFFFFF;" version="1.1" viewBox="0 0 1290 1163" width="1290px" zoomAndPan="magnify"><defs/><g><text fill="#000000" font-family="sans-serif" font-size="14" font-weight="bold" lengthAdjust="spacing" textLength="349" x="471.5" y="28.5352">Container Sequence Diagram (SD) - US1170 (N3)</text><rect fill="#FFFFFF" height="643.1426" style="stroke:#181818;stroke-width:1.0;" width="10" x="443" y="165.5977"/><rect fill="#FFFFFF" height="226.4844" style="stroke:#181818;stroke-width:1.0;" width="10" x="443" y="838.0508"/><rect fill="#FFFFFF" height="553.9004" style="stroke:#181818;stroke-width:1.0;" width="10" x="688" y="194.9082"/><rect fill="#FFFFFF" height="167.8633" style="stroke:#181818;stroke-width:1.0;" width="10" x="688" y="867.3613"/><rect fill="#FFFFFF" height="145.5527" style="stroke:#181818;stroke-width:1.0;" width="10" x="864" y="224.2188"/><rect fill="#FFFFFF" height="145.5527" style="stroke:#181818;stroke-width:1.0;" width="10" x="864" y="399.082"/><rect fill="#FFFFFF" height="145.5527" style="stroke:#181818;stroke-width:1.0;" width="10" x="864" y="573.9453"/><rect fill="#FFFFFF" height="109.2422" style="stroke:#181818;stroke-width:1.0;" width="10" x="864" y="896.6719"/><rect fill="#FFFFFF" height="86.9316" style="stroke:#181818;stroke-width:1.0;" width="10" x="1040" y="253.5293"/><rect fill="#FFFFFF" height="86.9316" style="stroke:#181818;stroke-width:1.0;" width="10" x="1040" y="428.3926"/><rect fill="#FFFFFF" height="86.9316" style="stroke:#181818;stroke-width:1.0;" width="10" x="1040" y="603.2559"/><rect fill="#FFFFFF" height="39.9658" style="stroke:#181818;stroke-width:1.0;" width="10" x="1040" y="936.6377"/><line style="stroke:#181818;stroke-width:0.5;stroke-dasharray:5.0,5.0;" x1="71" x2="71" y1="118.9766" y2="1082.5352"/><line style="stroke:#181818;stroke-width:0.5;stroke-dasharray:5.0,5.0;" x1="447.5" x2="447.5" y1="118.9766" y2="1082.5352"/><line style="stroke:#181818;stroke-width:0.5;stroke-dasharray:5.0,5.0;" x1="692.5" x2="692.5" y1="118.9766" y2="1082.5352"/><line style="stroke:#181818;stroke-width:0.5;stroke-dasharray:5.0,5.0;" x1="869" x2="869" y1="118.9766" y2="1082.5352"/><line style="stroke:#181818;stroke-width:0.5;stroke-dasharray:5.0,5.0;" x1="1045" x2="1045" y1="118.9766" y2="1082.5352"/><text fill="#000000" font-family="sans-serif" font-size="14" lengthAdjust="spacing" textLength="126" x="5" y="116.0234">Gestor de Campus</text><ellipse cx="71" cy="50.9883" fill="#E3E3E3" rx="8" ry="8" style="stroke:#181818;stroke-width:0.5;"/><path d="M71,58.9883 L71,85.9883 M58,66.9883 L84,66.9883 M71,85.9883 L58,100.9883 M71,85.9883 L84,100.9883 " fill="none" style="stroke:#181818;stroke-width:0.5;"/><text fill="#000000" font-family="sans-serif" font-size="14" lengthAdjust="spacing" textLength="126" x="5" y="1095.0703">Gestor de Campus</text><ellipse cx="71" cy="1106.5234" fill="#E3E3E3" rx="8" ry="8" style="stroke:#181818;stroke-width:0.5;"/><path d="M71,1114.5234 L71,1141.5234 M58,1122.5234 L84,1122.5234 M71,1141.5234 L58,1156.5234 M71,1141.5234 L84,1156.5234 " fill="none" style="stroke:#181818;stroke-width:0.5;"/><rect fill="#E3E3E3" height="46.9766" rx="2.5" ry="2.5" style="stroke:#181818;stroke-width:0.5;" width="119" x="388.5" y="71"/><text fill="#000000" font-family="sans-serif" font-size="14" lengthAdjust="spacing" textLength="105" x="395.5" y="91.5352">&#171;C4:Container&#187;</text><text fill="#000000" font-family="sans-serif" font-size="14" lengthAdjust="spacing" textLength="89" x="403.5" y="108.0234">:Visualiza&#231;&#227;o</text><rect fill="#E3E3E3" height="46.9766" rx="2.5" ry="2.5" style="stroke:#181818;stroke-width:0.5;" width="119" x="388.5" y="1081.5352"/><text fill="#000000" font-family="sans-serif" font-size="14" lengthAdjust="spacing" textLength="105" x="395.5" y="1102.0703">&#171;C4:Container&#187;</text><text fill="#000000" font-family="sans-serif" font-size="14" lengthAdjust="spacing" textLength="89" x="403.5" y="1118.5586">:Visualiza&#231;&#227;o</text><rect fill="#E3E3E3" height="30.4883" rx="2.5" ry="2.5" style="stroke:#181818;stroke-width:0.5;" width="95" x="645.5" y="87.4883"/><text fill="#000000" font-family="sans-serif" font-size="14" lengthAdjust="spacing" textLength="81" x="652.5" y="108.0234">Component</text><rect fill="#E3E3E3" height="30.4883" rx="2.5" ry="2.5" style="stroke:#181818;stroke-width:0.5;" width="95" x="645.5" y="1081.5352"/><text fill="#000000" font-family="sans-serif" font-size="14" lengthAdjust="spacing" textLength="81" x="652.5" y="1102.0703">Component</text><rect fill="#E3E3E3" height="30.4883" rx="2.5" ry="2.5" style="stroke:#181818;stroke-width:0.5;" width="62" x="838" y="87.4883"/><text fill="#000000" font-family="sans-serif" font-size="14" lengthAdjust="spacing" textLength="48" x="845" y="108.0234">Service</text><rect fill="#E3E3E3" height="30.4883" rx="2.5" ry="2.5" style="stroke:#181818;stroke-width:0.5;" width="62" x="838" y="1081.5352"/><text fill="#000000" font-family="sans-serif" font-size="14" lengthAdjust="spacing" textLength="48" x="845" y="1102.0703">Service</text><rect fill="#E3E3E3" height="63.4648" rx="2.5" ry="2.5" style="stroke:#181818;stroke-width:0.5;" width="138" x="976" y="54.5117"/><text fill="#000000" font-family="sans-serif" font-size="14" lengthAdjust="spacing" textLength="105" x="992.5" y="75.0469">&#171;C4:Container&#187;</text><text fill="#000000" font-family="sans-serif" font-size="14" lengthAdjust="spacing" textLength="124" x="983" y="91.5352">M&#243;dulo de Gest&#227;o</text><text fill="#000000" font-family="sans-serif" font-size="14" lengthAdjust="spacing" textLength="99" x="995.5" y="108.0234">de Informa&#231;&#227;o</text><rect fill="#E3E3E3" height="63.4648" rx="2.5" ry="2.5" style="stroke:#181818;stroke-width:0.5;" width="138" x="976" y="1081.5352"/><text fill="#000000" font-family="sans-serif" font-size="14" lengthAdjust="spacing" textLength="105" x="992.5" y="1102.0703">&#171;C4:Container&#187;</text><text fill="#000000" font-family="sans-serif" font-size="14" lengthAdjust="spacing" textLength="124" x="983" y="1118.5586">M&#243;dulo de Gest&#227;o</text><text fill="#000000" font-family="sans-serif" font-size="14" lengthAdjust="spacing" textLength="99" x="995.5" y="1135.0469">de Informa&#231;&#227;o</text><rect fill="#FFFFFF" height="643.1426" style="stroke:#181818;stroke-width:1.0;" width="10" x="443" y="165.5977"/><rect fill="#FFFFFF" height="226.4844" style="stroke:#181818;stroke-width:1.0;" width="10" x="443" y="838.0508"/><rect fill="#FFFFFF" height="553.9004" style="stroke:#181818;stroke-width:1.0;" width="10" x="688" y="194.9082"/><rect fill="#FFFFFF" height="167.8633" style="stroke:#181818;stroke-width:1.0;" width="10" x="688" y="867.3613"/><rect fill="#FFFFFF" height="145.5527" style="stroke:#181818;stroke-width:1.0;" width="10" x="864" y="224.2188"/><rect fill="#FFFFFF" height="145.5527" style="stroke:#181818;stroke-width:1.0;" width="10" x="864" y="399.082"/><rect fill="#FFFFFF" height="145.5527" style="stroke:#181818;stroke-width:1.0;" width="10" x="864" y="573.9453"/><rect fill="#FFFFFF" height="109.2422" style="stroke:#181818;stroke-width:1.0;" width="10" x="864" y="896.6719"/><rect fill="#FFFFFF" height="86.9316" style="stroke:#181818;stroke-width:1.0;" width="10" x="1040" y="253.5293"/><rect fill="#FFFFFF" height="86.9316" style="stroke:#181818;stroke-width:1.0;" width="10" x="1040" y="428.3926"/><rect fill="#FFFFFF" height="86.9316" style="stroke:#181818;stroke-width:1.0;" width="10" x="1040" y="603.2559"/><rect fill="#FFFFFF" height="39.9658" style="stroke:#181818;stroke-width:1.0;" width="10" x="1040" y="936.6377"/><polygon fill="#181818" points="431,161.5977,441,165.5977,431,169.5977,435,165.5977" style="stroke:#181818;stroke-width:1.0;"/><line style="stroke:#181818;stroke-width:1.0;" x1="71" x2="437" y1="165.5977" y2="165.5977"/><text fill="#000000" font-family="sans-serif" font-size="13" font-weight="bold" lengthAdjust="spacing" textLength="9" x="78" y="153.2002">1</text><text fill="#000000" font-family="sans-serif" font-size="13" lengthAdjust="spacing" textLength="249" x="91" y="145.5449">Inicia opera&#231;&#227;o de criar passagem entre</text><text fill="#000000" font-family="sans-serif" font-size="13" lengthAdjust="spacing" textLength="85" x="91" y="160.8555">dois edif&#237;cios</text><polygon fill="#181818" points="676,190.9082,686,194.9082,676,198.9082,680,194.9082" style="stroke:#181818;stroke-width:1.0;"/><line style="stroke:#181818;stroke-width:1.0;" x1="453" x2="682" y1="194.9082" y2="194.9082"/><text fill="#000000" font-family="sans-serif" font-size="13" font-weight="bold" lengthAdjust="spacing" textLength="9" x="460" y="190.166">2</text><text fill="#000000" font-family="sans-serif" font-size="13" lengthAdjust="spacing" textLength="45" x="473" y="190.166">ngInit()</text><polygon fill="#181818" points="852,220.2188,862,224.2188,852,228.2188,856,224.2188" style="stroke:#181818;stroke-width:1.0;"/><line style="stroke:#181818;stroke-width:1.0;" x1="698" x2="858" y1="224.2188" y2="224.2188"/><text fill="#000000" font-family="sans-serif" font-size="13" font-weight="bold" lengthAdjust="spacing" textLength="9" x="705" y="219.4766">3</text><text fill="#000000" font-family="sans-serif" font-size="13" lengthAdjust="spacing" textLength="86" x="718" y="219.4766">getBuildings()</text><polygon fill="#181818" points="1028,249.5293,1038,253.5293,1028,257.5293,1032,253.5293" style="stroke:#181818;stroke-width:1.0;"/><line style="stroke:#181818;stroke-width:1.0;" x1="874" x2="1034" y1="253.5293" y2="253.5293"/><text fill="#000000" font-family="sans-serif" font-size="13" font-weight="bold" lengthAdjust="spacing" textLength="9" x="881" y="248.7871">4</text><text fill="#000000" font-family="sans-serif" font-size="13" lengthAdjust="spacing" textLength="86" x="894" y="248.7871">getBuildings()</text><line style="stroke:#181818;stroke-width:1.0;" x1="1050" x2="1092" y1="298.1504" y2="298.1504"/><line style="stroke:#181818;stroke-width:1.0;" x1="1092" x2="1092" y1="298.1504" y2="311.1504"/><line style="stroke:#181818;stroke-width:1.0;" x1="1051" x2="1092" y1="311.1504" y2="311.1504"/><polygon fill="#181818" points="1061,307.1504,1051,311.1504,1061,315.1504,1057,311.1504" style="stroke:#181818;stroke-width:1.0;"/><text fill="#000000" font-family="sans-serif" font-size="13" font-weight="bold" lengthAdjust="spacing" textLength="9" x="1057" y="285.7529">5</text><text fill="#000000" font-family="sans-serif" font-size="13" lengthAdjust="spacing" textLength="137" x="1070" y="278.0977">middleware.rolecheck</text><text fill="#000000" font-family="sans-serif" font-size="13" lengthAdjust="spacing" textLength="202" x="1070" y="293.4082">("Admin" || "Gestor de Campus")</text><polygon fill="#181818" points="885,336.4609,875,340.4609,885,344.4609,881,340.4609" style="stroke:#181818;stroke-width:1.0;"/><line style="stroke:#181818;stroke-width:1.0;stroke-dasharray:2.0,2.0;" x1="879" x2="1044" y1="340.4609" y2="340.4609"/><text fill="#000000" font-family="sans-serif" font-size="13" font-weight="bold" lengthAdjust="spacing" textLength="9" x="891" y="335.7188">6</text><text fill="#000000" font-family="sans-serif" font-size="13" lengthAdjust="spacing" textLength="107" x="904" y="335.7188">Lista de edif&#237;cios</text><polygon fill="#181818" points="709,365.7715,699,369.7715,709,373.7715,705,369.7715" style="stroke:#181818;stroke-width:1.0;"/><line style="stroke:#181818;stroke-width:1.0;stroke-dasharray:2.0,2.0;" x1="703" x2="868" y1="369.7715" y2="369.7715"/><text fill="#000000" font-family="sans-serif" font-size="13" font-weight="bold" lengthAdjust="spacing" textLength="9" x="715" y="365.0293">7</text><text fill="#000000" font-family="sans-serif" font-size="13" lengthAdjust="spacing" textLength="107" x="728" y="365.0293">Lista de edif&#237;cios</text><polygon fill="#181818" points="852,395.082,862,399.082,852,403.082,856,399.082" style="stroke:#181818;stroke-width:1.0;"/><line style="stroke:#181818;stroke-width:1.0;" x1="698" x2="858" y1="399.082" y2="399.082"/><text fill="#000000" font-family="sans-serif" font-size="13" font-weight="bold" lengthAdjust="spacing" textLength="9" x="705" y="394.3398">8</text><text fill="#000000" font-family="sans-serif" font-size="13" lengthAdjust="spacing" textLength="67" x="718" y="394.3398">getFloors()</text><polygon fill="#181818" points="1028,424.3926,1038,428.3926,1028,432.3926,1032,428.3926" style="stroke:#181818;stroke-width:1.0;"/><line style="stroke:#181818;stroke-width:1.0;" x1="874" x2="1034" y1="428.3926" y2="428.3926"/><text fill="#000000" font-family="sans-serif" font-size="13" font-weight="bold" lengthAdjust="spacing" textLength="9" x="881" y="423.6504">9</text><text fill="#000000" font-family="sans-serif" font-size="13" lengthAdjust="spacing" textLength="67" x="894" y="423.6504">getFloors()</text><line style="stroke:#181818;stroke-width:1.0;" x1="1050" x2="1092" y1="473.0137" y2="473.0137"/><line style="stroke:#181818;stroke-width:1.0;" x1="1092" x2="1092" y1="473.0137" y2="486.0137"/><line style="stroke:#181818;stroke-width:1.0;" x1="1051" x2="1092" y1="486.0137" y2="486.0137"/><polygon fill="#181818" points="1061,482.0137,1051,486.0137,1061,490.0137,1057,486.0137" style="stroke:#181818;stroke-width:1.0;"/><text fill="#000000" font-family="sans-serif" font-size="13" font-weight="bold" lengthAdjust="spacing" textLength="18" x="1057" y="460.6162">10</text><text fill="#000000" font-family="sans-serif" font-size="13" lengthAdjust="spacing" textLength="137" x="1079" y="452.9609">middleware.rolecheck</text><text fill="#000000" font-family="sans-serif" font-size="13" lengthAdjust="spacing" textLength="202" x="1079" y="468.2715">("Admin" || "Gestor de Campus")</text><polygon fill="#181818" points="885,511.3242,875,515.3242,885,519.3242,881,515.3242" style="stroke:#181818;stroke-width:1.0;"/><line style="stroke:#181818;stroke-width:1.0;stroke-dasharray:2.0,2.0;" x1="879" x2="1044" y1="515.3242" y2="515.3242"/><text fill="#000000" font-family="sans-serif" font-size="13" font-weight="bold" lengthAdjust="spacing" textLength="18" x="891" y="510.582">11</text><text fill="#000000" font-family="sans-serif" font-size="13" lengthAdjust="spacing" textLength="87" x="913" y="510.582">Lista de pisos</text><polygon fill="#181818" points="709,540.6348,699,544.6348,709,548.6348,705,544.6348" style="stroke:#181818;stroke-width:1.0;"/><line style="stroke:#181818;stroke-width:1.0;stroke-dasharray:2.0,2.0;" x1="703" x2="868" y1="544.6348" y2="544.6348"/><text fill="#000000" font-family="sans-serif" font-size="13" font-weight="bold" lengthAdjust="spacing" textLength="18" x="715" y="539.8926">12</text><text fill="#000000" font-family="sans-serif" font-size="13" lengthAdjust="spacing" textLength="87" x="737" y="539.8926">Lista de pisos</text><polygon fill="#181818" points="852,569.9453,862,573.9453,852,577.9453,856,573.9453" style="stroke:#181818;stroke-width:1.0;"/><line style="stroke:#181818;stroke-width:1.0;" x1="698" x2="858" y1="573.9453" y2="573.9453"/><text fill="#000000" font-family="sans-serif" font-size="13" font-weight="bold" lengthAdjust="spacing" textLength="18" x="705" y="569.2031">13</text><text fill="#000000" font-family="sans-serif" font-size="13" lengthAdjust="spacing" textLength="107" x="727" y="569.2031">getConnections()</text><polygon fill="#181818" points="1028,599.2559,1038,603.2559,1028,607.2559,1032,603.2559" style="stroke:#181818;stroke-width:1.0;"/><line style="stroke:#181818;stroke-width:1.0;" x1="874" x2="1034" y1="603.2559" y2="603.2559"/><text fill="#000000" font-family="sans-serif" font-size="13" font-weight="bold" lengthAdjust="spacing" textLength="18" x="881" y="598.5137">14</text><text fill="#000000" font-family="sans-serif" font-size="13" lengthAdjust="spacing" textLength="107" x="903" y="598.5137">getConnections()</text><line style="stroke:#181818;stroke-width:1.0;" x1="1050" x2="1092" y1="647.877" y2="647.877"/><line style="stroke:#181818;stroke-width:1.0;" x1="1092" x2="1092" y1="647.877" y2="660.877"/><line style="stroke:#181818;stroke-width:1.0;" x1="1051" x2="1092" y1="660.877" y2="660.877"/><polygon fill="#181818" points="1061,656.877,1051,660.877,1061,664.877,1057,660.877" style="stroke:#181818;stroke-width:1.0;"/><text fill="#000000" font-family="sans-serif" font-size="13" font-weight="bold" lengthAdjust="spacing" textLength="18" x="1057" y="635.4795">15</text><text fill="#000000" font-family="sans-serif" font-size="13" lengthAdjust="spacing" textLength="137" x="1079" y="627.8242">middleware.rolecheck</text><text fill="#000000" font-family="sans-serif" font-size="13" lengthAdjust="spacing" textLength="202" x="1079" y="643.1348">("Admin" || "Gestor de Campus")</text><polygon fill="#181818" points="885,686.1875,875,690.1875,885,694.1875,881,690.1875" style="stroke:#181818;stroke-width:1.0;"/><line style="stroke:#181818;stroke-width:1.0;stroke-dasharray:2.0,2.0;" x1="879" x2="1044" y1="690.1875" y2="690.1875"/><text fill="#000000" font-family="sans-serif" font-size="13" font-weight="bold" lengthAdjust="spacing" textLength="18" x="891" y="685.4453">16</text><text fill="#000000" font-family="sans-serif" font-size="13" lengthAdjust="spacing" textLength="119" x="913" y="685.4453">Lista de passagens</text><polygon fill="#181818" points="709,715.498,699,719.498,709,723.498,705,719.498" style="stroke:#181818;stroke-width:1.0;"/><line style="stroke:#181818;stroke-width:1.0;stroke-dasharray:2.0,2.0;" x1="703" x2="868" y1="719.498" y2="719.498"/><text fill="#000000" font-family="sans-serif" font-size="13" font-weight="bold" lengthAdjust="spacing" textLength="18" x="715" y="714.7559">17</text><text fill="#000000" font-family="sans-serif" font-size="13" lengthAdjust="spacing" textLength="119" x="737" y="714.7559">Lista de passagens</text><polygon fill="#181818" points="464,744.8086,454,748.8086,464,752.8086,460,748.8086" style="stroke:#181818;stroke-width:1.0;"/><line style="stroke:#181818;stroke-width:1.0;stroke-dasharray:2.0,2.0;" x1="458" x2="692" y1="748.8086" y2="748.8086"/><text fill="#000000" font-family="sans-serif" font-size="13" font-weight="bold" lengthAdjust="spacing" textLength="18" x="470" y="744.0664">18</text><text fill="#000000" font-family="sans-serif" font-size="13" lengthAdjust="spacing" textLength="189" x="492" y="744.0664">buildings, floors, connections</text><polygon fill="#181818" points="82,804.7402,72,808.7402,82,812.7402,78,808.7402" style="stroke:#181818;stroke-width:1.0;"/><line style="stroke:#181818;stroke-width:1.0;stroke-dasharray:2.0,2.0;" x1="76" x2="447" y1="808.7402" y2="808.7402"/><text fill="#000000" font-family="sans-serif" font-size="13" font-weight="bold" lengthAdjust="spacing" textLength="18" x="88" y="788.6875">19</text><text fill="#000000" font-family="sans-serif" font-size="13" lengthAdjust="spacing" textLength="260" x="110" y="773.377">Solicita dados necess&#225;rios (connectionId,</text><text fill="#000000" font-family="sans-serif" font-size="13" lengthAdjust="spacing" textLength="326" x="110" y="788.6875">buildingfromId, buildingtoId, floorfromId, floortoId,</text><text fill="#000000" font-family="sans-serif" font-size="13" lengthAdjust="spacing" textLength="130" x="114" y="803.998">locationX, locationY)</text><polygon fill="#181818" points="431,834.0508,441,838.0508,431,842.0508,435,838.0508" style="stroke:#181818;stroke-width:1.0;"/><line style="stroke:#181818;stroke-width:1.0;" x1="71" x2="437" y1="838.0508" y2="838.0508"/><text fill="#000000" font-family="sans-serif" font-size="13" font-weight="bold" lengthAdjust="spacing" textLength="18" x="78" y="833.3086">20</text><text fill="#000000" font-family="sans-serif" font-size="13" lengthAdjust="spacing" textLength="168" x="100" y="833.3086">Introduz dados solicitados</text><polygon fill="#181818" points="676,863.3613,686,867.3613,676,871.3613,680,867.3613" style="stroke:#181818;stroke-width:1.0;"/><line style="stroke:#181818;stroke-width:1.0;" x1="453" x2="682" y1="867.3613" y2="867.3613"/><text fill="#000000" font-family="sans-serif" font-size="13" font-weight="bold" lengthAdjust="spacing" textLength="18" x="460" y="862.6191">21</text><text fill="#000000" font-family="sans-serif" font-size="13" lengthAdjust="spacing" textLength="116" x="482" y="862.6191">create(connection)</text><polygon fill="#181818" points="852,892.6719,862,896.6719,852,900.6719,856,896.6719" style="stroke:#181818;stroke-width:1.0;"/><line style="stroke:#181818;stroke-width:1.0;" x1="698" x2="858" y1="896.6719" y2="896.6719"/><text fill="#000000" font-family="sans-serif" font-size="13" font-weight="bold" lengthAdjust="spacing" textLength="18" x="705" y="891.9297">22</text><text fill="#000000" font-family="sans-serif" font-size="13" lengthAdjust="spacing" textLength="116" x="727" y="891.9297">create(connection)</text><polygon fill="#181818" points="1028,932.6377,1038,936.6377,1028,940.6377,1032,936.6377" style="stroke:#181818;stroke-width:1.0;"/><line style="stroke:#181818;stroke-width:1.0;" x1="874" x2="1034" y1="936.6377" y2="936.6377"/><text fill="#000000" font-family="sans-serif" font-size="13" font-weight="bold" lengthAdjust="spacing" textLength="18" x="881" y="931.8955">23</text><text fill="#000000" font-family="sans-serif" font-size="13" lengthAdjust="spacing" textLength="116" x="903" y="931.8955">create(connection)</text><path d="M1055,909.6719 L1055,949.6719 L1283,949.6719 L1283,919.6719 L1273,909.6719 L1055,909.6719 " fill="#FAFAFA" style="stroke:#181818;stroke-width:0.5;"/><path d="M1273,909.6719 L1273,919.6719 L1283,919.6719 L1273,909.6719 " fill="#FAFAFA" style="stroke:#181818;stroke-width:0.5;"/><text fill="#000000" font-family="sans-serif" font-size="13" lengthAdjust="spacing" textLength="207" x="1061" y="927.2402">M&#243;dulo de Gest&#227;o de Informa&#231;&#227;o</text><text fill="#000000" font-family="sans-serif" font-size="13" lengthAdjust="spacing" textLength="184" x="1061" y="942.5508">&#233; a representa&#231;&#227;o do Sprint A</text><polygon fill="#181818" points="885,972.6035,875,976.6035,885,980.6035,881,976.6035" style="stroke:#181818;stroke-width:1.0;"/><line style="stroke:#181818;stroke-width:1.0;stroke-dasharray:2.0,2.0;" x1="879" x2="1044" y1="976.6035" y2="976.6035"/><text fill="#000000" font-family="sans-serif" font-size="13" font-weight="bold" lengthAdjust="spacing" textLength="18" x="891" y="971.8613">24</text><text fill="#000000" font-family="sans-serif" font-size="13" lengthAdjust="spacing" textLength="120" x="913" y="971.8613">201 OK connection</text><polygon fill="#181818" points="709,1001.9141,699,1005.9141,709,1009.9141,705,1005.9141" style="stroke:#181818;stroke-width:1.0;"/><line style="stroke:#181818;stroke-width:1.0;stroke-dasharray:2.0,2.0;" x1="703" x2="868" y1="1005.9141" y2="1005.9141"/><text fill="#000000" font-family="sans-serif" font-size="13" font-weight="bold" lengthAdjust="spacing" textLength="18" x="715" y="1001.1719">25</text><text fill="#000000" font-family="sans-serif" font-size="13" lengthAdjust="spacing" textLength="120" x="737" y="1001.1719">201 OK connection</text><polygon fill="#181818" points="464,1031.2246,454,1035.2246,464,1039.2246,460,1035.2246" style="stroke:#181818;stroke-width:1.0;"/><line style="stroke:#181818;stroke-width:1.0;stroke-dasharray:2.0,2.0;" x1="458" x2="692" y1="1035.2246" y2="1035.2246"/><text fill="#000000" font-family="sans-serif" font-size="13" font-weight="bold" lengthAdjust="spacing" textLength="18" x="470" y="1030.4824">26</text><text fill="#000000" font-family="sans-serif" font-size="13" lengthAdjust="spacing" textLength="120" x="492" y="1030.4824">201 OK connection</text><polygon fill="#181818" points="82,1060.5352,72,1064.5352,82,1068.5352,78,1064.5352" style="stroke:#181818;stroke-width:1.0;"/><line style="stroke:#181818;stroke-width:1.0;stroke-dasharray:2.0,2.0;" x1="76" x2="447" y1="1064.5352" y2="1064.5352"/><text fill="#000000" font-family="sans-serif" font-size="13" font-weight="bold" lengthAdjust="spacing" textLength="18" x="88" y="1059.793">27</text><text fill="#000000" font-family="sans-serif" font-size="13" lengthAdjust="spacing" textLength="141" x="110" y="1059.793">Mensagem de sucesso</text><!--SRC=[xLVDQjj04BxhAGQVRB1Bt1OA8WHIXvRGfZs8bXPysUoEvINIZhgxIcZ8ovGUIWuzzH7yOfrrR5bK3bOSkwUSj5hjp3Sp-ysFt8KsXR0YXvmCoQcb7C7R4YDNVIc4l10f9lvxXc1HUc7Ih7x0JOMYAsrIc8ZCOHHvxVdeY8mNsg251B-LQ2J2YHPfaEWc9pqOmATaE7nr0DqFBtfH94fFfipFqV9QUhBGUOikF1Nh4dbHkauKDVTWS0ITmyFHoxW2F3eQc_YpTgN8zBMO_Phzf4uCfqPBBO0Aj7TxGOcqMbXsqJbsCGSqtkBOAD8EKEd9xBVKv88z-b9uR0CKjJWJR1vHNf1Xm1XCohRvRc-5KtsCgbMGIT1UQeanfEXVbpfJ77HNbriSY1RFUs9pDlkZocpkVmWdMyGk8mTeGZPVcdW_o9OQesqjsTw967AjL8PNmk8pIndAASgBiUbsZbMkJGTkRjQmhBUzfQixulYzrywB851Zai97Xx6wspg9DiCjgR6EK7UN_IOZidkbKnFXYKiFv5AXtN-YKGDfCuFO2iCDGfDPIwETyUWUd2SojI1J_ORlsfxP7vysWQsXLDjsVhviJNsOpCjA7-IA5dMGLJDjrvk31OtOnv1GnWD4S8R77GUCXCxDVbYkiz1TGP-g_jWiZPlmGCKRbR6UmjlStkMd-SjyVsmW8oc2aY_zQlcrj-5s6WF8uuOaRqcLrmidtS9djUyXYFDQMcJjjKYsdeSs2E-qYwq1Udm1CiJ2LgTJJfYc0FnpVcncjo1u52yiEex4SfebI0ghEJB7kwaJpm-6yF5TBQkYFTQ99jWkoWHiKBpYrGuyMvDsXuD1kxmxuy8u_mDXOLU6oa8FJVk_]--></g></svg>