<?xml version="1.0" encoding="us-ascii" standalone="no"?><svg xmlns="http://www.w3.org/2000/svg" xmlns:xlink="http://www.w3.org/1999/xlink" contentStyleType="text/css" height="736px" preserveAspectRatio="none" style="width:2034px;height:736px;background:#FFFFFF;" version="1.1" viewBox="0 0 2034 736" width="2034px" zoomAndPan="magnify"><defs/><g><text fill="#000000" font-family="sans-serif" font-size="14" font-weight="bold" lengthAdjust="spacing" textLength="340" x="846" y="28.5352">Container Sequence Diagram (SD) - US240 (N3)</text><rect fill="#FFFFFF" height="59.9316" style="stroke:#181818;stroke-width:1.0;" width="10" x="434" y="165.5977"/><rect fill="#FFFFFF" height="382.3926" style="stroke:#181818;stroke-width:1.0;" width="10" x="434" y="254.8398"/><rect fill="#FFFFFF" height="308.4609" style="stroke:#181818;stroke-width:1.0;" width="10" x="834" y="299.4609"/><rect fill="#FFFFFF" height="234.5293" style="stroke:#181818;stroke-width:1.0;" width="10" x="1234" y="344.082"/><rect fill="#FFFFFF" height="175.9082" style="stroke:#181818;stroke-width:1.0;" width="10" x="1441" y="373.3926"/><rect fill="#FFFFFF" height="117.2871" style="stroke:#181818;stroke-width:1.0;" width="10" x="1648" y="402.7031"/><rect fill="#FFFFFF" height="30" style="stroke:#181818;stroke-width:1.0;" width="10" x="1960.5" y="489.9902"/><line style="stroke:#181818;stroke-width:0.5;stroke-dasharray:5.0,5.0;" x1="71" x2="71" y1="118.9766" y2="655.2324"/><line style="stroke:#181818;stroke-width:0.5;stroke-dasharray:5.0,5.0;" x1="438.5" x2="438.5" y1="118.9766" y2="655.2324"/><line style="stroke:#181818;stroke-width:0.5;stroke-dasharray:5.0,5.0;" x1="839" x2="839" y1="118.9766" y2="655.2324"/><line style="stroke:#181818;stroke-width:0.5;stroke-dasharray:5.0,5.0;" x1="1239" x2="1239" y1="118.9766" y2="655.2324"/><line style="stroke:#181818;stroke-width:0.5;stroke-dasharray:5.0,5.0;" x1="1446" x2="1446" y1="118.9766" y2="655.2324"/><line style="stroke:#181818;stroke-width:0.5;stroke-dasharray:5.0,5.0;" x1="1653" x2="1653" y1="118.9766" y2="655.2324"/><line style="stroke:#181818;stroke-width:0.5;stroke-dasharray:5.0,5.0;" x1="1844" x2="1844" y1="449.6914" y2="655.2324"/><line style="stroke:#181818;stroke-width:0.5;stroke-dasharray:5.0,5.0;" x1="1965" x2="1965" y1="118.9766" y2="655.2324"/><text fill="#000000" font-family="sans-serif" font-size="14" lengthAdjust="spacing" textLength="126" x="5" y="116.0234">Gestor de Campus</text><ellipse cx="71" cy="50.9883" fill="#E3E3E3" rx="8" ry="8" style="stroke:#181818;stroke-width:0.5;"/><path d="M71,58.9883 L71,85.9883 M58,66.9883 L84,66.9883 M71,85.9883 L58,100.9883 M71,85.9883 L84,100.9883 " fill="none" style="stroke:#181818;stroke-width:0.5;"/><text fill="#000000" font-family="sans-serif" font-size="14" lengthAdjust="spacing" textLength="126" x="5" y="667.7676">Gestor de Campus</text><ellipse cx="71" cy="679.2207" fill="#E3E3E3" rx="8" ry="8" style="stroke:#181818;stroke-width:0.5;"/><path d="M71,687.2207 L71,714.2207 M58,695.2207 L84,695.2207 M71,714.2207 L58,729.2207 M71,714.2207 L84,729.2207 " fill="none" style="stroke:#181818;stroke-width:0.5;"/><rect fill="#E3E3E3" height="46.9766" rx="2.5" ry="2.5" style="stroke:#181818;stroke-width:0.5;" width="119" x="379.5" y="71"/><text fill="#000000" font-family="sans-serif" font-size="14" lengthAdjust="spacing" textLength="105" x="386.5" y="91.5352">&#171;C4:Container&#187;</text><text fill="#000000" font-family="sans-serif" font-size="14" lengthAdjust="spacing" textLength="89" x="394.5" y="108.0234">:Visualiza&#231;&#227;o</text><rect fill="#E3E3E3" height="46.9766" rx="2.5" ry="2.5" style="stroke:#181818;stroke-width:0.5;" width="119" x="379.5" y="654.2324"/><text fill="#000000" font-family="sans-serif" font-size="14" lengthAdjust="spacing" textLength="105" x="386.5" y="674.7676">&#171;C4:Container&#187;</text><text fill="#000000" font-family="sans-serif" font-size="14" lengthAdjust="spacing" textLength="89" x="394.5" y="691.2559">:Visualiza&#231;&#227;o</text><rect fill="#E3E3E3" height="63.4648" rx="2.5" ry="2.5" style="stroke:#181818;stroke-width:0.5;" width="138" x="770" y="54.5117"/><text fill="#000000" font-family="sans-serif" font-size="14" lengthAdjust="spacing" textLength="105" x="786.5" y="75.0469">&#171;C4:Container&#187;</text><text fill="#000000" font-family="sans-serif" font-size="14" lengthAdjust="spacing" textLength="124" x="777" y="91.5352">M&#243;dulo de Gest&#227;o</text><text fill="#000000" font-family="sans-serif" font-size="14" lengthAdjust="spacing" textLength="99" x="789.5" y="108.0234">de Informa&#231;&#227;o</text><rect fill="#E3E3E3" height="63.4648" rx="2.5" ry="2.5" style="stroke:#181818;stroke-width:0.5;" width="138" x="770" y="654.2324"/><text fill="#000000" font-family="sans-serif" font-size="14" lengthAdjust="spacing" textLength="105" x="786.5" y="674.7676">&#171;C4:Container&#187;</text><text fill="#000000" font-family="sans-serif" font-size="14" lengthAdjust="spacing" textLength="124" x="777" y="691.2559">M&#243;dulo de Gest&#227;o</text><text fill="#000000" font-family="sans-serif" font-size="14" lengthAdjust="spacing" textLength="99" x="789.5" y="707.7441">de Informa&#231;&#227;o</text><rect fill="#E3E3E3" height="30.4883" rx="2.5" ry="2.5" style="stroke:#181818;stroke-width:0.5;" width="130" x="1174" y="87.4883"/><text fill="#000000" font-family="sans-serif" font-size="14" lengthAdjust="spacing" textLength="116" x="1181" y="108.0234">connectionRoute</text><rect fill="#E3E3E3" height="30.4883" rx="2.5" ry="2.5" style="stroke:#181818;stroke-width:0.5;" width="130" x="1174" y="654.2324"/><text fill="#000000" font-family="sans-serif" font-size="14" lengthAdjust="spacing" textLength="116" x="1181" y="674.7676">connectionRoute</text><rect fill="#E3E3E3" height="30.4883" rx="2.5" ry="2.5" style="stroke:#181818;stroke-width:0.5;" width="160" x="1366" y="87.4883"/><text fill="#000000" font-family="sans-serif" font-size="14" lengthAdjust="spacing" textLength="146" x="1373" y="108.0234">connectionController</text><rect fill="#E3E3E3" height="30.4883" rx="2.5" ry="2.5" style="stroke:#181818;stroke-width:0.5;" width="160" x="1366" y="654.2324"/><text fill="#000000" font-family="sans-serif" font-size="14" lengthAdjust="spacing" textLength="146" x="1373" y="674.7676">connectionController</text><rect fill="#E3E3E3" height="30.4883" rx="2.5" ry="2.5" style="stroke:#181818;stroke-width:0.5;" width="138" x="1584" y="87.4883"/><text fill="#000000" font-family="sans-serif" font-size="14" lengthAdjust="spacing" textLength="124" x="1591" y="108.0234">connectionService</text><rect fill="#E3E3E3" height="30.4883" rx="2.5" ry="2.5" style="stroke:#181818;stroke-width:0.5;" width="138" x="1584" y="654.2324"/><text fill="#000000" font-family="sans-serif" font-size="14" lengthAdjust="spacing" textLength="124" x="1591" y="674.7676">connectionService</text><rect fill="#E3E3E3" height="46.9766" rx="2.5" ry="2.5" style="stroke:#181818;stroke-width:0.5;" width="97" x="1796" y="654.2324"/><text fill="#000000" font-family="sans-serif" font-size="14" lengthAdjust="spacing" textLength="76" x="1806.5" y="674.7676">connection</text><text fill="#000000" font-family="sans-serif" font-size="14" lengthAdjust="spacing" textLength="83" x="1803" y="691.2559">:Connection</text><rect fill="#E3E3E3" height="30.4883" rx="2.5" ry="2.5" style="stroke:#181818;stroke-width:0.5;" width="125" x="1903" y="87.4883"/><text fill="#000000" font-family="sans-serif" font-size="14" lengthAdjust="spacing" textLength="111" x="1910" y="108.0234">connectionRepo</text><rect fill="#E3E3E3" height="30.4883" rx="2.5" ry="2.5" style="stroke:#181818;stroke-width:0.5;" width="125" x="1903" y="654.2324"/><text fill="#000000" font-family="sans-serif" font-size="14" lengthAdjust="spacing" textLength="111" x="1910" y="674.7676">connectionRepo</text><rect fill="#FFFFFF" height="59.9316" style="stroke:#181818;stroke-width:1.0;" width="10" x="434" y="165.5977"/><rect fill="#FFFFFF" height="382.3926" style="stroke:#181818;stroke-width:1.0;" width="10" x="434" y="254.8398"/><rect fill="#FFFFFF" height="308.4609" style="stroke:#181818;stroke-width:1.0;" width="10" x="834" y="299.4609"/><rect fill="#FFFFFF" height="234.5293" style="stroke:#181818;stroke-width:1.0;" width="10" x="1234" y="344.082"/><rect fill="#FFFFFF" height="175.9082" style="stroke:#181818;stroke-width:1.0;" width="10" x="1441" y="373.3926"/><rect fill="#FFFFFF" height="117.2871" style="stroke:#181818;stroke-width:1.0;" width="10" x="1648" y="402.7031"/><rect fill="#FFFFFF" height="30" style="stroke:#181818;stroke-width:1.0;" width="10" x="1960.5" y="489.9902"/><polygon fill="#181818" points="422,161.5977,432,165.5977,422,169.5977,426,165.5977" style="stroke:#181818;stroke-width:1.0;"/><line style="stroke:#181818;stroke-width:1.0;" x1="71" x2="428" y1="165.5977" y2="165.5977"/><text fill="#000000" font-family="sans-serif" font-size="13" font-weight="bold" lengthAdjust="spacing" textLength="9" x="78" y="153.2002">1</text><text fill="#000000" font-family="sans-serif" font-size="13" lengthAdjust="spacing" textLength="249" x="91" y="145.5449">Inicia opera&#231;&#227;o de criar passagem entre</text><text fill="#000000" font-family="sans-serif" font-size="13" lengthAdjust="spacing" textLength="85" x="91" y="160.8555">dois edif&#237;cios</text><polygon fill="#181818" points="82,221.5293,72,225.5293,82,229.5293,78,225.5293" style="stroke:#181818;stroke-width:1.0;"/><line style="stroke:#181818;stroke-width:1.0;stroke-dasharray:2.0,2.0;" x1="76" x2="438" y1="225.5293" y2="225.5293"/><text fill="#000000" font-family="sans-serif" font-size="13" font-weight="bold" lengthAdjust="spacing" textLength="9" x="88" y="205.4766">2</text><text fill="#000000" font-family="sans-serif" font-size="13" lengthAdjust="spacing" textLength="260" x="101" y="190.166">Solicita dados necess&#225;rios (connectionId,</text><text fill="#000000" font-family="sans-serif" font-size="13" lengthAdjust="spacing" textLength="326" x="101" y="205.4766">buildingfromId, buildingtoId, floorfromId, floortoId,</text><text fill="#000000" font-family="sans-serif" font-size="13" lengthAdjust="spacing" textLength="130" x="105" y="220.7871">locationX, locationY)</text><polygon fill="#181818" points="422,250.8398,432,254.8398,422,258.8398,426,254.8398" style="stroke:#181818;stroke-width:1.0;"/><line style="stroke:#181818;stroke-width:1.0;" x1="71" x2="428" y1="254.8398" y2="254.8398"/><text fill="#000000" font-family="sans-serif" font-size="13" font-weight="bold" lengthAdjust="spacing" textLength="9" x="78" y="250.0977">3</text><text fill="#000000" font-family="sans-serif" font-size="13" lengthAdjust="spacing" textLength="168" x="91" y="250.0977">Introduz dados solicitados</text><polygon fill="#181818" points="822,295.4609,832,299.4609,822,303.4609,826,299.4609" style="stroke:#181818;stroke-width:1.0;"/><line style="stroke:#181818;stroke-width:1.0;" x1="444" x2="828" y1="299.4609" y2="299.4609"/><text fill="#000000" font-family="sans-serif" font-size="13" font-weight="bold" lengthAdjust="spacing" textLength="9" x="451" y="287.0635">4</text><text fill="#000000" font-family="sans-serif" font-size="13" lengthAdjust="spacing" textLength="323" x="464" y="279.4082">POST /connections/ {connectionId, buildingfromId,</text><text fill="#000000" font-family="sans-serif" font-size="13" lengthAdjust="spacing" textLength="358" x="464" y="294.7188">buildingtoId, floorfromId, floortoId, locationX, locationY}</text><polygon fill="#181818" points="1222,340.082,1232,344.082,1222,348.082,1226,344.082" style="stroke:#181818;stroke-width:1.0;"/><line style="stroke:#181818;stroke-width:1.0;" x1="844" x2="1228" y1="344.082" y2="344.082"/><text fill="#000000" font-family="sans-serif" font-size="13" font-weight="bold" lengthAdjust="spacing" textLength="9" x="851" y="331.6846">5</text><text fill="#000000" font-family="sans-serif" font-size="13" lengthAdjust="spacing" textLength="323" x="864" y="324.0293">POST /connections/ {connectionId, buildingfromId,</text><text fill="#000000" font-family="sans-serif" font-size="13" lengthAdjust="spacing" textLength="358" x="864" y="339.3398">buildingtoId, floorfromId, floortoId, locationX, locationY}</text><polygon fill="#181818" points="1429,369.3926,1439,373.3926,1429,377.3926,1433,373.3926" style="stroke:#181818;stroke-width:1.0;"/><line style="stroke:#181818;stroke-width:1.0;" x1="1244" x2="1435" y1="373.3926" y2="373.3926"/><text fill="#000000" font-family="sans-serif" font-size="13" font-weight="bold" lengthAdjust="spacing" textLength="9" x="1251" y="368.6504">6</text><text fill="#000000" font-family="sans-serif" font-size="13" lengthAdjust="spacing" textLength="165" x="1264" y="368.6504">createConnection(req, res)</text><polygon fill="#181818" points="1636,398.7031,1646,402.7031,1636,406.7031,1640,402.7031" style="stroke:#181818;stroke-width:1.0;"/><line style="stroke:#181818;stroke-width:1.0;" x1="1451" x2="1642" y1="402.7031" y2="402.7031"/><text fill="#000000" font-family="sans-serif" font-size="13" font-weight="bold" lengthAdjust="spacing" textLength="9" x="1458" y="397.9609">7</text><text fill="#000000" font-family="sans-serif" font-size="13" lengthAdjust="spacing" textLength="165" x="1471" y="397.9609">createConnection(req, res)</text><polygon fill="#181818" points="1784,428.0137,1794,432.0137,1784,436.0137,1788,432.0137" style="stroke:#181818;stroke-width:1.0;"/><line style="stroke:#181818;stroke-width:1.0;" x1="1658" x2="1790" y1="432.0137" y2="432.0137"/><text fill="#000000" font-family="sans-serif" font-size="13" font-weight="bold" lengthAdjust="spacing" textLength="9" x="1665" y="427.2715">8</text><text fill="#000000" font-family="sans-serif" font-size="13" lengthAdjust="spacing" textLength="101" x="1678" y="427.2715">create(req.body)</text><rect fill="#E3E3E3" height="46.9766" rx="2.5" ry="2.5" style="stroke:#181818;stroke-width:0.5;" width="97" x="1796" y="410.7031"/><text fill="#000000" font-family="sans-serif" font-size="14" lengthAdjust="spacing" textLength="76" x="1806.5" y="431.2383">connection</text><text fill="#000000" font-family="sans-serif" font-size="14" lengthAdjust="spacing" textLength="83" x="1803" y="447.7266">:Connection</text><polygon fill="#181818" points="1948.5,485.9902,1958.5,489.9902,1948.5,493.9902,1952.5,489.9902" style="stroke:#181818;stroke-width:1.0;"/><line style="stroke:#181818;stroke-width:1.0;" x1="1658" x2="1954.5" y1="489.9902" y2="489.9902"/><text fill="#000000" font-family="sans-serif" font-size="13" font-weight="bold" lengthAdjust="spacing" textLength="9" x="1665" y="485.248">9</text><text fill="#000000" font-family="sans-serif" font-size="13" lengthAdjust="spacing" textLength="106" x="1678" y="485.248">save(connection)</text><polygon fill="#181818" points="1255,545.3008,1245,549.3008,1255,553.3008,1251,549.3008" style="stroke:#181818;stroke-width:1.0;"/><line style="stroke:#181818;stroke-width:1.0;stroke-dasharray:2.0,2.0;" x1="1249" x2="1445" y1="549.3008" y2="549.3008"/><text fill="#000000" font-family="sans-serif" font-size="13" font-weight="bold" lengthAdjust="spacing" textLength="18" x="1261" y="544.5586">10</text><text fill="#000000" font-family="sans-serif" font-size="13" lengthAdjust="spacing" textLength="120" x="1283" y="544.5586">200 OK connection</text><polygon fill="#181818" points="855,574.6113,845,578.6113,855,582.6113,851,578.6113" style="stroke:#181818;stroke-width:1.0;"/><line style="stroke:#181818;stroke-width:1.0;stroke-dasharray:2.0,2.0;" x1="849" x2="1238" y1="578.6113" y2="578.6113"/><text fill="#000000" font-family="sans-serif" font-size="13" font-weight="bold" lengthAdjust="spacing" textLength="18" x="861" y="573.8691">11</text><text fill="#000000" font-family="sans-serif" font-size="13" lengthAdjust="spacing" textLength="120" x="883" y="573.8691">200 OK connection</text><polygon fill="#181818" points="455,603.9219,445,607.9219,455,611.9219,451,607.9219" style="stroke:#181818;stroke-width:1.0;"/><line style="stroke:#181818;stroke-width:1.0;stroke-dasharray:2.0,2.0;" x1="449" x2="838" y1="607.9219" y2="607.9219"/><text fill="#000000" font-family="sans-serif" font-size="13" font-weight="bold" lengthAdjust="spacing" textLength="18" x="461" y="603.1797">12</text><text fill="#000000" font-family="sans-serif" font-size="13" lengthAdjust="spacing" textLength="120" x="483" y="603.1797">200 OK connection</text><polygon fill="#181818" points="82,633.2324,72,637.2324,82,641.2324,78,637.2324" style="stroke:#181818;stroke-width:1.0;"/><line style="stroke:#181818;stroke-width:1.0;stroke-dasharray:2.0,2.0;" x1="76" x2="438" y1="637.2324" y2="637.2324"/><text fill="#000000" font-family="sans-serif" font-size="13" font-weight="bold" lengthAdjust="spacing" textLength="18" x="88" y="632.4902">13</text><text fill="#000000" font-family="sans-serif" font-size="13" lengthAdjust="spacing" textLength="261" x="110" y="632.4902">Mostra passagem que acaba de ser criada</text><!--SRC=[lLNDRXCn4BxxAKOv9LL2ezBJAiebbL25IX4B2AHS9lOajRhhIMrlK8ju6CI14oSU8I-6dIRP_AoYJH2STZqpdlc- -SQskzTcYXPpoDcmlBES4tXRa71hpnJbFKuezOyPWINfqKoopG1tXug_Q3E1CMQEXF3QXz016u_Qa8MK7Weoak1AuoJkQAPNBUZ0X_JYiWlDDozRGc3XsHJvY6pubvujD5wHYryLKc4-BLn3Y7qRTFhGwFK6bycwNhy_DCb7xGhCz1FEVyv_S2E1QwEbHk0fsMTRJ2AjHXiOEXSOva36MneQnTe1AJsU_vAQNSIZP-YfJY5H8mOw4VGUbGHIpW98Zw12HnqOakJS_BiD8A0fsGI3rsokLNjeHeNEL6ZwE6WM3B1QUuwhSSPiLwx5Oc4V6iXOOapogRt-_TmIYeuY-NT2UCkgU5gIT4lEwfyqkXBJpVotAhB504GQ8J9eJW7Oc6s-nldsDdqFvsNNtJbytT80TYGeDJceGQK2tyH1ydKGYnFtnIQLlDvnuUc_arzptm4YTjRRM2DLorb6DWadcSB-mThNjFJG3jULQrKbBtUAAkDscPJiJ4iwjiPoczYpBAQoj8QnBLCspivMTMBs5oDMZwtg51kjeIadu7166vT49QOOkNdMwtZsUMmsQdzu886BRXTkNsyugZDNgh3K-VIJMx_-yuYTV6pgNdW7qPnysFSlu5wdKm_G3JjliNpsmkiCA764CPiBgiPdKU6nZy8V]--></g></svg>