<?xml version="1.0" encoding="us-ascii" standalone="no"?><svg xmlns="http://www.w3.org/2000/svg" xmlns:xlink="http://www.w3.org/1999/xlink" contentStyleType="text/css" height="645px" preserveAspectRatio="none" style="width:1440px;height:645px;background:#FFFFFF;" version="1.1" viewBox="0 0 1440 645" width="1440px" zoomAndPan="magnify"><defs/><g><text fill="#000000" font-family="sans-serif" font-size="14" font-weight="bold" lengthAdjust="spacing" textLength="340" x="549" y="28.5352">Container Sequence Diagram (SD) - US210 (N3)</text><rect fill="#FFFFFF" height="417.6582" style="stroke:#181818;stroke-width:1.0;" width="10" x="66" y="128.9766"/><rect fill="#FFFFFF" height="396.3477" style="stroke:#181818;stroke-width:1.0;" width="10" x="372" y="150.2871"/><rect fill="#FFFFFF" height="322.416" style="stroke:#181818;stroke-width:1.0;" width="10" x="515" y="179.5977"/><rect fill="#FFFFFF" height="263.7949" style="stroke:#181818;stroke-width:1.0;" width="10" x="658" y="208.9082"/><rect fill="#FFFFFF" height="205.1738" style="stroke:#181818;stroke-width:1.0;" width="10" x="814" y="238.2188"/><rect fill="#FFFFFF" height="146.5527" style="stroke:#181818;stroke-width:1.0;" width="10" x="1122" y="267.5293"/><rect fill="#FFFFFF" height="87.9316" style="stroke:#181818;stroke-width:1.0;" width="10" x="1278" y="296.8398"/><rect fill="#FFFFFF" height="29.3105" style="stroke:#181818;stroke-width:1.0;" width="10" x="1379" y="326.1504"/><line style="stroke:#181818;stroke-width:0.5;stroke-dasharray:5.0,5.0;" x1="71" x2="71" y1="118.9766" y2="564.6348"/><line style="stroke:#181818;stroke-width:0.5;stroke-dasharray:5.0,5.0;" x1="376.5" x2="376.5" y1="118.9766" y2="564.6348"/><line style="stroke:#181818;stroke-width:0.5;stroke-dasharray:5.0,5.0;" x1="520" x2="520" y1="118.9766" y2="564.6348"/><line style="stroke:#181818;stroke-width:0.5;stroke-dasharray:5.0,5.0;" x1="662.5" x2="662.5" y1="118.9766" y2="564.6348"/><line style="stroke:#181818;stroke-width:0.5;stroke-dasharray:5.0,5.0;" x1="818.5" x2="818.5" y1="118.9766" y2="564.6348"/><line style="stroke:#181818;stroke-width:0.5;stroke-dasharray:5.0,5.0;" x1="1126.5" x2="1126.5" y1="118.9766" y2="564.6348"/><line style="stroke:#181818;stroke-width:0.5;stroke-dasharray:5.0,5.0;" x1="1283" x2="1283" y1="118.9766" y2="564.6348"/><line style="stroke:#181818;stroke-width:0.5;stroke-dasharray:5.0,5.0;" x1="1384" x2="1384" y1="118.9766" y2="564.6348"/><text fill="#000000" font-family="sans-serif" font-size="14" lengthAdjust="spacing" textLength="126" x="5" y="116.0234">Gestor de Campus</text><ellipse cx="71" cy="50.9883" fill="#E3E3E3" rx="8" ry="8" style="stroke:#181818;stroke-width:0.5;"/><path d="M71,58.9883 L71,85.9883 M58,66.9883 L84,66.9883 M71,85.9883 L58,100.9883 M71,85.9883 L84,100.9883 " fill="none" style="stroke:#181818;stroke-width:0.5;"/><text fill="#000000" font-family="sans-serif" font-size="14" lengthAdjust="spacing" textLength="126" x="5" y="577.1699">Gestor de Campus</text><ellipse cx="71" cy="588.623" fill="#E3E3E3" rx="8" ry="8" style="stroke:#181818;stroke-width:0.5;"/><path d="M71,596.623 L71,623.623 M58,604.623 L84,604.623 M71,623.623 L58,638.623 M71,623.623 L84,638.623 " fill="none" style="stroke:#181818;stroke-width:0.5;"/><rect fill="#E3E3E3" height="46.9766" rx="2.5" ry="2.5" style="stroke:#181818;stroke-width:0.5;" width="119" x="317.5" y="71"/><text fill="#000000" font-family="sans-serif" font-size="14" lengthAdjust="spacing" textLength="105" x="324.5" y="91.5352">&#171;C4:Container&#187;</text><text fill="#000000" font-family="sans-serif" font-size="14" lengthAdjust="spacing" textLength="89" x="332.5" y="108.0234">:Visualiza&#231;&#227;o</text><rect fill="#E3E3E3" height="46.9766" rx="2.5" ry="2.5" style="stroke:#181818;stroke-width:0.5;" width="119" x="317.5" y="563.6348"/><text fill="#000000" font-family="sans-serif" font-size="14" lengthAdjust="spacing" textLength="105" x="324.5" y="584.1699">&#171;C4:Container&#187;</text><text fill="#000000" font-family="sans-serif" font-size="14" lengthAdjust="spacing" textLength="89" x="332.5" y="600.6582">:Visualiza&#231;&#227;o</text><rect fill="#E3E3E3" height="63.4648" rx="2.5" ry="2.5" style="stroke:#181818;stroke-width:0.5;" width="138" x="451" y="54.5117"/><text fill="#000000" font-family="sans-serif" font-size="14" lengthAdjust="spacing" textLength="105" x="467.5" y="75.0469">&#171;C4:Container&#187;</text><text fill="#000000" font-family="sans-serif" font-size="14" lengthAdjust="spacing" textLength="124" x="458" y="91.5352">M&#243;dulo de Gest&#227;o</text><text fill="#000000" font-family="sans-serif" font-size="14" lengthAdjust="spacing" textLength="99" x="470.5" y="108.0234">de Informa&#231;&#227;o</text><rect fill="#E3E3E3" height="63.4648" rx="2.5" ry="2.5" style="stroke:#181818;stroke-width:0.5;" width="138" x="451" y="563.6348"/><text fill="#000000" font-family="sans-serif" font-size="14" lengthAdjust="spacing" textLength="105" x="467.5" y="584.1699">&#171;C4:Container&#187;</text><text fill="#000000" font-family="sans-serif" font-size="14" lengthAdjust="spacing" textLength="124" x="458" y="600.6582">M&#243;dulo de Gest&#227;o</text><text fill="#000000" font-family="sans-serif" font-size="14" lengthAdjust="spacing" textLength="99" x="470.5" y="617.1465">de Informa&#231;&#227;o</text><rect fill="#E3E3E3" height="30.4883" rx="2.5" ry="2.5" style="stroke:#181818;stroke-width:0.5;" width="87" x="619.5" y="87.4883"/><text fill="#000000" font-family="sans-serif" font-size="14" lengthAdjust="spacing" textLength="73" x="626.5" y="108.0234">floorRoute</text><rect fill="#E3E3E3" height="30.4883" rx="2.5" ry="2.5" style="stroke:#181818;stroke-width:0.5;" width="87" x="619.5" y="563.6348"/><text fill="#000000" font-family="sans-serif" font-size="14" lengthAdjust="spacing" textLength="73" x="626.5" y="584.1699">floorRoute</text><rect fill="#E3E3E3" height="30.4883" rx="2.5" ry="2.5" style="stroke:#181818;stroke-width:0.5;" width="117" x="760.5" y="87.4883"/><text fill="#000000" font-family="sans-serif" font-size="14" lengthAdjust="spacing" textLength="103" x="767.5" y="108.0234">floorController</text><rect fill="#E3E3E3" height="30.4883" rx="2.5" ry="2.5" style="stroke:#181818;stroke-width:0.5;" width="117" x="760.5" y="563.6348"/><text fill="#000000" font-family="sans-serif" font-size="14" lengthAdjust="spacing" textLength="103" x="767.5" y="584.1699">floorController</text><rect fill="#E3E3E3" height="30.4883" rx="2.5" ry="2.5" style="stroke:#181818;stroke-width:0.5;" width="95" x="1079.5" y="87.4883"/><text fill="#000000" font-family="sans-serif" font-size="14" lengthAdjust="spacing" textLength="81" x="1086.5" y="108.0234">floorService</text><rect fill="#E3E3E3" height="30.4883" rx="2.5" ry="2.5" style="stroke:#181818;stroke-width:0.5;" width="95" x="1079.5" y="563.6348"/><text fill="#000000" font-family="sans-serif" font-size="14" lengthAdjust="spacing" textLength="81" x="1086.5" y="584.1699">floorService</text><rect fill="#E3E3E3" height="30.4883" rx="2.5" ry="2.5" style="stroke:#181818;stroke-width:0.5;" width="82" x="1242" y="87.4883"/><text fill="#000000" font-family="sans-serif" font-size="14" lengthAdjust="spacing" textLength="68" x="1249" y="108.0234">floorRepo</text><rect fill="#E3E3E3" height="30.4883" rx="2.5" ry="2.5" style="stroke:#181818;stroke-width:0.5;" width="82" x="1242" y="563.6348"/><text fill="#000000" font-family="sans-serif" font-size="14" lengthAdjust="spacing" textLength="68" x="1249" y="584.1699">floorRepo</text><rect fill="#E3E3E3" height="30.4883" rx="2.5" ry="2.5" style="stroke:#181818;stroke-width:0.5;" width="100" x="1334" y="87.4883"/><text fill="#000000" font-family="sans-serif" font-size="14" lengthAdjust="spacing" textLength="86" x="1341" y="108.0234">floorSchema</text><rect fill="#E3E3E3" height="30.4883" rx="2.5" ry="2.5" style="stroke:#181818;stroke-width:0.5;" width="100" x="1334" y="563.6348"/><text fill="#000000" font-family="sans-serif" font-size="14" lengthAdjust="spacing" textLength="86" x="1341" y="584.1699">floorSchema</text><rect fill="#FFFFFF" height="417.6582" style="stroke:#181818;stroke-width:1.0;" width="10" x="66" y="128.9766"/><rect fill="#FFFFFF" height="396.3477" style="stroke:#181818;stroke-width:1.0;" width="10" x="372" y="150.2871"/><rect fill="#FFFFFF" height="322.416" style="stroke:#181818;stroke-width:1.0;" width="10" x="515" y="179.5977"/><rect fill="#FFFFFF" height="263.7949" style="stroke:#181818;stroke-width:1.0;" width="10" x="658" y="208.9082"/><rect fill="#FFFFFF" height="205.1738" style="stroke:#181818;stroke-width:1.0;" width="10" x="814" y="238.2188"/><rect fill="#FFFFFF" height="146.5527" style="stroke:#181818;stroke-width:1.0;" width="10" x="1122" y="267.5293"/><rect fill="#FFFFFF" height="87.9316" style="stroke:#181818;stroke-width:1.0;" width="10" x="1278" y="296.8398"/><rect fill="#FFFFFF" height="29.3105" style="stroke:#181818;stroke-width:1.0;" width="10" x="1379" y="326.1504"/><polygon fill="#181818" points="360,146.2871,370,150.2871,360,154.2871,364,150.2871" style="stroke:#181818;stroke-width:1.0;"/><line style="stroke:#181818;stroke-width:1.0;" x1="76" x2="366" y1="150.2871" y2="150.2871"/><text fill="#000000" font-family="sans-serif" font-size="13" font-weight="bold" lengthAdjust="spacing" textLength="9" x="83" y="145.5449">1</text><text fill="#000000" font-family="sans-serif" font-size="13" lengthAdjust="spacing" textLength="264" x="96" y="145.5449">Pede a lista de todos os pisos de edif&#237;cios</text><polygon fill="#181818" points="503,175.5977,513,179.5977,503,183.5977,507,179.5977" style="stroke:#181818;stroke-width:1.0;"/><line style="stroke:#181818;stroke-width:1.0;" x1="382" x2="509" y1="179.5977" y2="179.5977"/><text fill="#000000" font-family="sans-serif" font-size="13" font-weight="bold" lengthAdjust="spacing" textLength="9" x="389" y="174.8555">2</text><text fill="#000000" font-family="sans-serif" font-size="13" lengthAdjust="spacing" textLength="79" x="402" y="174.8555">GET /floors/</text><polygon fill="#181818" points="646,204.9082,656,208.9082,646,212.9082,650,208.9082" style="stroke:#181818;stroke-width:1.0;"/><line style="stroke:#181818;stroke-width:1.0;" x1="525" x2="652" y1="208.9082" y2="208.9082"/><text fill="#000000" font-family="sans-serif" font-size="13" font-weight="bold" lengthAdjust="spacing" textLength="9" x="532" y="204.166">3</text><text fill="#000000" font-family="sans-serif" font-size="13" lengthAdjust="spacing" textLength="79" x="545" y="204.166">GET /floors/</text><polygon fill="#181818" points="802,234.2188,812,238.2188,802,242.2188,806,238.2188" style="stroke:#181818;stroke-width:1.0;"/><line style="stroke:#181818;stroke-width:1.0;" x1="668" x2="808" y1="238.2188" y2="238.2188"/><text fill="#000000" font-family="sans-serif" font-size="13" font-weight="bold" lengthAdjust="spacing" textLength="9" x="675" y="233.4766">4</text><text fill="#000000" font-family="sans-serif" font-size="13" lengthAdjust="spacing" textLength="114" x="688" y="233.4766">getFloors(req, res)</text><polygon fill="#181818" points="1110,263.5293,1120,267.5293,1110,271.5293,1114,267.5293" style="stroke:#181818;stroke-width:1.0;"/><line style="stroke:#181818;stroke-width:1.0;" x1="824" x2="1116" y1="267.5293" y2="267.5293"/><text fill="#000000" font-family="sans-serif" font-size="13" font-weight="bold" lengthAdjust="spacing" textLength="9" x="831" y="262.7871">5</text><text fill="#000000" font-family="sans-serif" font-size="13" lengthAdjust="spacing" textLength="114" x="844" y="262.7871">getFloors(req, res)</text><polygon fill="#181818" points="1266,292.8398,1276,296.8398,1266,300.8398,1270,296.8398" style="stroke:#181818;stroke-width:1.0;"/><line style="stroke:#181818;stroke-width:1.0;" x1="1132" x2="1272" y1="296.8398" y2="296.8398"/><text fill="#000000" font-family="sans-serif" font-size="13" font-weight="bold" lengthAdjust="spacing" textLength="9" x="1139" y="292.0977">6</text><text fill="#000000" font-family="sans-serif" font-size="13" lengthAdjust="spacing" textLength="114" x="1152" y="292.0977">getFloors(req, res)</text><polygon fill="#181818" points="1367,322.1504,1377,326.1504,1367,330.1504,1371,326.1504" style="stroke:#181818;stroke-width:1.0;"/><line style="stroke:#181818;stroke-width:1.0;" x1="1288" x2="1373" y1="326.1504" y2="326.1504"/><text fill="#000000" font-family="sans-serif" font-size="13" font-weight="bold" lengthAdjust="spacing" textLength="9" x="1295" y="321.4082">7</text><text fill="#000000" font-family="sans-serif" font-size="13" lengthAdjust="spacing" textLength="33" x="1308" y="321.4082">find()</text><polygon fill="#181818" points="1299,351.4609,1289,355.4609,1299,359.4609,1295,355.4609" style="stroke:#181818;stroke-width:1.0;"/><line style="stroke:#181818;stroke-width:1.0;stroke-dasharray:2.0,2.0;" x1="1293" x2="1383" y1="355.4609" y2="355.4609"/><text fill="#000000" font-family="sans-serif" font-size="13" font-weight="bold" lengthAdjust="spacing" textLength="9" x="1305" y="350.7188">8</text><text fill="#000000" font-family="sans-serif" font-size="13" lengthAdjust="spacing" textLength="37" x="1318" y="350.7188">floors</text><polygon fill="#181818" points="1143,380.7715,1133,384.7715,1143,388.7715,1139,384.7715" style="stroke:#181818;stroke-width:1.0;"/><line style="stroke:#181818;stroke-width:1.0;stroke-dasharray:2.0,2.0;" x1="1137" x2="1282" y1="384.7715" y2="384.7715"/><text fill="#000000" font-family="sans-serif" font-size="13" font-weight="bold" lengthAdjust="spacing" textLength="9" x="1149" y="380.0293">9</text><text fill="#000000" font-family="sans-serif" font-size="13" lengthAdjust="spacing" textLength="37" x="1162" y="380.0293">floors</text><polygon fill="#181818" points="835,410.082,825,414.082,835,418.082,831,414.082" style="stroke:#181818;stroke-width:1.0;"/><line style="stroke:#181818;stroke-width:1.0;" x1="829" x2="1126" y1="414.082" y2="414.082"/><text fill="#000000" font-family="sans-serif" font-size="13" font-weight="bold" lengthAdjust="spacing" textLength="18" x="841" y="409.3398">10</text><text fill="#000000" font-family="sans-serif" font-size="13" lengthAdjust="spacing" textLength="252" x="863" y="409.3398">res.status(201).send({ message: floors })</text><polygon fill="#181818" points="679,439.3926,669,443.3926,679,447.3926,675,443.3926" style="stroke:#181818;stroke-width:1.0;"/><line style="stroke:#181818;stroke-width:1.0;stroke-dasharray:2.0,2.0;" x1="673" x2="818" y1="443.3926" y2="443.3926"/><text fill="#000000" font-family="sans-serif" font-size="13" font-weight="bold" lengthAdjust="spacing" textLength="18" x="685" y="438.6504">11</text><text fill="#000000" font-family="sans-serif" font-size="13" lengthAdjust="spacing" textLength="87" x="707" y="438.6504">200 OK floors</text><polygon fill="#181818" points="536,468.7031,526,472.7031,536,476.7031,532,472.7031" style="stroke:#181818;stroke-width:1.0;"/><line style="stroke:#181818;stroke-width:1.0;stroke-dasharray:2.0,2.0;" x1="530" x2="662" y1="472.7031" y2="472.7031"/><text fill="#000000" font-family="sans-serif" font-size="13" font-weight="bold" lengthAdjust="spacing" textLength="18" x="542" y="467.9609">12</text><text fill="#000000" font-family="sans-serif" font-size="13" lengthAdjust="spacing" textLength="87" x="564" y="467.9609">200 OK floors</text><polygon fill="#181818" points="393,498.0137,383,502.0137,393,506.0137,389,502.0137" style="stroke:#181818;stroke-width:1.0;"/><line style="stroke:#181818;stroke-width:1.0;stroke-dasharray:2.0,2.0;" x1="387" x2="519" y1="502.0137" y2="502.0137"/><text fill="#000000" font-family="sans-serif" font-size="13" font-weight="bold" lengthAdjust="spacing" textLength="18" x="399" y="497.2715">13</text><text fill="#000000" font-family="sans-serif" font-size="13" lengthAdjust="spacing" textLength="87" x="421" y="497.2715">200 OK floors</text><polygon fill="#181818" points="82,542.6348,72,546.6348,82,550.6348,78,546.6348" style="stroke:#181818;stroke-width:1.0;"/><line style="stroke:#181818;stroke-width:1.0;stroke-dasharray:2.0,2.0;" x1="76" x2="376" y1="546.6348" y2="546.6348"/><text fill="#000000" font-family="sans-serif" font-size="13" font-weight="bold" lengthAdjust="spacing" textLength="18" x="88" y="534.2373">14</text><text fill="#000000" font-family="sans-serif" font-size="13" lengthAdjust="spacing" textLength="228" x="110" y="526.582">Apresenta lista de pisos de edif&#237;cios</text><text fill="#000000" font-family="sans-serif" font-size="13" lengthAdjust="spacing" textLength="134" x="110" y="541.8926">presentes no sistema</text><!--SRC=[dLJDRjD04BxlKunoiYNSfe6J5KL2BLG8yICCd79PxB6pghtZxgoB0F4q73XnuX7oOgoJOBjst5gHB7jsvvkPRpm_VADqAOqie21DySPGWM1DXO8RJIdZ6vbXPB_b20PZAtMMTm6yaGbzLJg3LEQCGbXb7VIIj9LAeu48RolKCSALabbjuKLNFWJmALfSpC5x-zGNGbQMT5LyGUFas9A1sJLo_KsSArcK5Szs6dKdBHvJ3gyWMC5ikRny5ZPSLgkr3ZyhhcIkliljx-qlceNm7fsHX5onbRMzfOGOt5CgTcztWubAjtzYHTpXyBXhCG4pmlBDzczIvLG7hnDpoBLsyYkTaYaQvjSlFi9vcXCPFXSFKflYJvneLwUm8_61AeizLWsf5Y5QiJ6jWnhASpGXP6XVxgmzWxTFNDEnttFJeaNlt3YCqDof6ATuEq15zz3cX2LDSLBZH2ErDE8D5ZA4LEd46mJUAKL7Xk1-tFrV50cE6-x33T8UiMnfzXFjLi3bT-Q6mLRiBUON_XcZO_y32cHsk-2_S_Zf3vbr_sMtBFTw149OpEVmxlKOpNw13yro-gmy6d7VcITFmDHTCqhYv9aTxhrb44mZyxnqXKO7QNVVaPMtrWSOCcW2Tj2w-HxcFbY5NVYHrVuF]--></g></svg>