<?xml version="1.0" encoding="us-ascii" standalone="no"?><svg xmlns="http://www.w3.org/2000/svg" xmlns:xlink="http://www.w3.org/1999/xlink" contentStyleType="text/css" height="720px" preserveAspectRatio="none" style="width:2120px;height:720px;background:#FFFFFF;" version="1.1" viewBox="0 0 2120 720" width="2120px" zoomAndPan="magnify"><defs/><g><text fill="#000000" font-family="sans-serif" font-size="14" font-weight="bold" lengthAdjust="spacing" textLength="340" x="889" y="28.5352">Container Sequence Diagram (SD) - US230 (N3)</text><rect fill="#FFFFFF" height="29.3105" style="stroke:#181818;stroke-width:1.0;" width="10" x="483" y="150.2871"/><rect fill="#FFFFFF" height="413.0137" style="stroke:#181818;stroke-width:1.0;" width="10" x="483" y="208.9082"/><rect fill="#FFFFFF" height="323.7715" style="stroke:#181818;stroke-width:1.0;" width="10" x="929" y="268.8398"/><rect fill="#FFFFFF" height="234.5293" style="stroke:#181818;stroke-width:1.0;" width="10" x="1375" y="328.7715"/><rect fill="#FFFFFF" height="175.9082" style="stroke:#181818;stroke-width:1.0;" width="10" x="1568" y="358.082"/><rect fill="#FFFFFF" height="117.2871" style="stroke:#181818;stroke-width:1.0;" width="10" x="1761" y="387.3926"/><rect fill="#FFFFFF" height="30" style="stroke:#181818;stroke-width:1.0;" width="10" x="2053" y="474.6797"/><line style="stroke:#181818;stroke-width:0.5;stroke-dasharray:5.0,5.0;" x1="71" x2="71" y1="118.9766" y2="639.9219"/><line style="stroke:#181818;stroke-width:0.5;stroke-dasharray:5.0,5.0;" x1="487.5" x2="487.5" y1="118.9766" y2="639.9219"/><line style="stroke:#181818;stroke-width:0.5;stroke-dasharray:5.0,5.0;" x1="934" x2="934" y1="118.9766" y2="639.9219"/><line style="stroke:#181818;stroke-width:0.5;stroke-dasharray:5.0,5.0;" x1="1379.5" x2="1379.5" y1="118.9766" y2="639.9219"/><line style="stroke:#181818;stroke-width:0.5;stroke-dasharray:5.0,5.0;" x1="1572.5" x2="1572.5" y1="118.9766" y2="639.9219"/><line style="stroke:#181818;stroke-width:0.5;stroke-dasharray:5.0,5.0;" x1="1765.5" x2="1765.5" y1="118.9766" y2="639.9219"/><line style="stroke:#181818;stroke-width:0.5;stroke-dasharray:5.0,5.0;" x1="1950" x2="1950" y1="434.3809" y2="639.9219"/><line style="stroke:#181818;stroke-width:0.5;stroke-dasharray:5.0,5.0;" x1="2058" x2="2058" y1="118.9766" y2="639.9219"/><text fill="#000000" font-family="sans-serif" font-size="14" lengthAdjust="spacing" textLength="126" x="5" y="116.0234">Gestor de Campus</text><ellipse cx="71" cy="50.9883" fill="#E3E3E3" rx="8" ry="8" style="stroke:#181818;stroke-width:0.5;"/><path d="M71,58.9883 L71,85.9883 M58,66.9883 L84,66.9883 M71,85.9883 L58,100.9883 M71,85.9883 L84,100.9883 " fill="none" style="stroke:#181818;stroke-width:0.5;"/><text fill="#000000" font-family="sans-serif" font-size="14" lengthAdjust="spacing" textLength="126" x="5" y="652.457">Gestor de Campus</text><ellipse cx="71" cy="663.9102" fill="#E3E3E3" rx="8" ry="8" style="stroke:#181818;stroke-width:0.5;"/><path d="M71,671.9102 L71,698.9102 M58,679.9102 L84,679.9102 M71,698.9102 L58,713.9102 M71,698.9102 L84,713.9102 " fill="none" style="stroke:#181818;stroke-width:0.5;"/><rect fill="#E3E3E3" height="46.9766" rx="2.5" ry="2.5" style="stroke:#181818;stroke-width:0.5;" width="119" x="428.5" y="71"/><text fill="#000000" font-family="sans-serif" font-size="14" lengthAdjust="spacing" textLength="105" x="435.5" y="91.5352">&#171;C4:Container&#187;</text><text fill="#000000" font-family="sans-serif" font-size="14" lengthAdjust="spacing" textLength="89" x="443.5" y="108.0234">:Visualiza&#231;&#227;o</text><rect fill="#E3E3E3" height="46.9766" rx="2.5" ry="2.5" style="stroke:#181818;stroke-width:0.5;" width="119" x="428.5" y="638.9219"/><text fill="#000000" font-family="sans-serif" font-size="14" lengthAdjust="spacing" textLength="105" x="435.5" y="659.457">&#171;C4:Container&#187;</text><text fill="#000000" font-family="sans-serif" font-size="14" lengthAdjust="spacing" textLength="89" x="443.5" y="675.9453">:Visualiza&#231;&#227;o</text><rect fill="#E3E3E3" height="63.4648" rx="2.5" ry="2.5" style="stroke:#181818;stroke-width:0.5;" width="138" x="865" y="54.5117"/><text fill="#000000" font-family="sans-serif" font-size="14" lengthAdjust="spacing" textLength="105" x="881.5" y="75.0469">&#171;C4:Container&#187;</text><text fill="#000000" font-family="sans-serif" font-size="14" lengthAdjust="spacing" textLength="124" x="872" y="91.5352">M&#243;dulo de Gest&#227;o</text><text fill="#000000" font-family="sans-serif" font-size="14" lengthAdjust="spacing" textLength="99" x="884.5" y="108.0234">de Informa&#231;&#227;o</text><rect fill="#E3E3E3" height="63.4648" rx="2.5" ry="2.5" style="stroke:#181818;stroke-width:0.5;" width="138" x="865" y="638.9219"/><text fill="#000000" font-family="sans-serif" font-size="14" lengthAdjust="spacing" textLength="105" x="881.5" y="659.457">&#171;C4:Container&#187;</text><text fill="#000000" font-family="sans-serif" font-size="14" lengthAdjust="spacing" textLength="124" x="872" y="675.9453">M&#243;dulo de Gest&#227;o</text><text fill="#000000" font-family="sans-serif" font-size="14" lengthAdjust="spacing" textLength="99" x="884.5" y="692.4336">de Informa&#231;&#227;o</text><rect fill="#E3E3E3" height="30.4883" rx="2.5" ry="2.5" style="stroke:#181818;stroke-width:0.5;" width="117" x="1321.5" y="87.4883"/><text fill="#000000" font-family="sans-serif" font-size="14" lengthAdjust="spacing" textLength="103" x="1328.5" y="108.0234">floormapRoute</text><rect fill="#E3E3E3" height="30.4883" rx="2.5" ry="2.5" style="stroke:#181818;stroke-width:0.5;" width="117" x="1321.5" y="638.9219"/><text fill="#000000" font-family="sans-serif" font-size="14" lengthAdjust="spacing" textLength="103" x="1328.5" y="659.457">floormapRoute</text><rect fill="#E3E3E3" height="30.4883" rx="2.5" ry="2.5" style="stroke:#181818;stroke-width:0.5;" width="147" x="1499.5" y="87.4883"/><text fill="#000000" font-family="sans-serif" font-size="14" lengthAdjust="spacing" textLength="133" x="1506.5" y="108.0234">floormapController</text><rect fill="#E3E3E3" height="30.4883" rx="2.5" ry="2.5" style="stroke:#181818;stroke-width:0.5;" width="147" x="1499.5" y="638.9219"/><text fill="#000000" font-family="sans-serif" font-size="14" lengthAdjust="spacing" textLength="133" x="1506.5" y="659.457">floormapController</text><rect fill="#E3E3E3" height="30.4883" rx="2.5" ry="2.5" style="stroke:#181818;stroke-width:0.5;" width="125" x="1703.5" y="87.4883"/><text fill="#000000" font-family="sans-serif" font-size="14" lengthAdjust="spacing" textLength="111" x="1710.5" y="108.0234">floormapService</text><rect fill="#E3E3E3" height="30.4883" rx="2.5" ry="2.5" style="stroke:#181818;stroke-width:0.5;" width="125" x="1703.5" y="638.9219"/><text fill="#000000" font-family="sans-serif" font-size="14" lengthAdjust="spacing" textLength="111" x="1710.5" y="659.457">floormapService</text><rect fill="#E3E3E3" height="46.9766" rx="2.5" ry="2.5" style="stroke:#181818;stroke-width:0.5;" width="83" x="1909" y="638.9219"/><text fill="#000000" font-family="sans-serif" font-size="14" lengthAdjust="spacing" textLength="63" x="1919" y="659.457">floormap</text><text fill="#000000" font-family="sans-serif" font-size="14" lengthAdjust="spacing" textLength="69" x="1916" y="675.9453">:FloorMap</text><rect fill="#E3E3E3" height="30.4883" rx="2.5" ry="2.5" style="stroke:#181818;stroke-width:0.5;" width="112" x="2002" y="87.4883"/><text fill="#000000" font-family="sans-serif" font-size="14" lengthAdjust="spacing" textLength="98" x="2009" y="108.0234">floormapRepo</text><rect fill="#E3E3E3" height="30.4883" rx="2.5" ry="2.5" style="stroke:#181818;stroke-width:0.5;" width="112" x="2002" y="638.9219"/><text fill="#000000" font-family="sans-serif" font-size="14" lengthAdjust="spacing" textLength="98" x="2009" y="659.457">floormapRepo</text><rect fill="#FFFFFF" height="29.3105" style="stroke:#181818;stroke-width:1.0;" width="10" x="483" y="150.2871"/><rect fill="#FFFFFF" height="413.0137" style="stroke:#181818;stroke-width:1.0;" width="10" x="483" y="208.9082"/><rect fill="#FFFFFF" height="323.7715" style="stroke:#181818;stroke-width:1.0;" width="10" x="929" y="268.8398"/><rect fill="#FFFFFF" height="234.5293" style="stroke:#181818;stroke-width:1.0;" width="10" x="1375" y="328.7715"/><rect fill="#FFFFFF" height="175.9082" style="stroke:#181818;stroke-width:1.0;" width="10" x="1568" y="358.082"/><rect fill="#FFFFFF" height="117.2871" style="stroke:#181818;stroke-width:1.0;" width="10" x="1761" y="387.3926"/><rect fill="#FFFFFF" height="30" style="stroke:#181818;stroke-width:1.0;" width="10" x="2053" y="474.6797"/><polygon fill="#181818" points="471,146.2871,481,150.2871,471,154.2871,475,150.2871" style="stroke:#181818;stroke-width:1.0;"/><line style="stroke:#181818;stroke-width:1.0;" x1="71" x2="477" y1="150.2871" y2="150.2871"/><text fill="#000000" font-family="sans-serif" font-size="13" font-weight="bold" lengthAdjust="spacing" textLength="9" x="78" y="145.5449">1</text><text fill="#000000" font-family="sans-serif" font-size="13" lengthAdjust="spacing" textLength="257" x="91" y="145.5449">Inicia opera&#231;&#227;o de carregar mapa de piso</text><polygon fill="#181818" points="82,175.5977,72,179.5977,82,183.5977,78,179.5977" style="stroke:#181818;stroke-width:1.0;"/><line style="stroke:#181818;stroke-width:1.0;stroke-dasharray:2.0,2.0;" x1="76" x2="487" y1="179.5977" y2="179.5977"/><text fill="#000000" font-family="sans-serif" font-size="13" font-weight="bold" lengthAdjust="spacing" textLength="9" x="88" y="174.8555">2</text><text fill="#000000" font-family="sans-serif" font-size="13" lengthAdjust="spacing" textLength="375" x="101" y="174.8555">Solicita dados necess&#225;rios (ficheiro do mapa/mapa de piso)</text><polygon fill="#181818" points="471,204.9082,481,208.9082,471,212.9082,475,208.9082" style="stroke:#181818;stroke-width:1.0;"/><line style="stroke:#181818;stroke-width:1.0;" x1="71" x2="477" y1="208.9082" y2="208.9082"/><text fill="#000000" font-family="sans-serif" font-size="13" font-weight="bold" lengthAdjust="spacing" textLength="9" x="78" y="204.166">3</text><text fill="#000000" font-family="sans-serif" font-size="13" lengthAdjust="spacing" textLength="168" x="91" y="204.166">Introduz dados solicitados</text><polygon fill="#181818" points="917,264.8398,927,268.8398,917,272.8398,921,268.8398" style="stroke:#181818;stroke-width:1.0;"/><line style="stroke:#181818;stroke-width:1.0;" x1="493" x2="923" y1="268.8398" y2="268.8398"/><text fill="#000000" font-family="sans-serif" font-size="13" font-weight="bold" lengthAdjust="spacing" textLength="9" x="500" y="248.7871">4</text><text fill="#000000" font-family="sans-serif" font-size="13" lengthAdjust="spacing" textLength="308" x="513" y="233.4766">PATCH {floorId, rooms[{roomId,roomName, door,</text><text fill="#000000" font-family="sans-serif" font-size="13" lengthAdjust="spacing" textLength="404" x="513" y="248.7871">height, width, locationX, locationY}], connections[{connectionId,</text><text fill="#000000" font-family="sans-serif" font-size="13" lengthAdjust="spacing" textLength="400" x="513" y="264.0977">locationX, locationY}, elevator{elevatorId, locationX, locationY}]}</text><polygon fill="#181818" points="1363,324.7715,1373,328.7715,1363,332.7715,1367,328.7715" style="stroke:#181818;stroke-width:1.0;"/><line style="stroke:#181818;stroke-width:1.0;" x1="939" x2="1369" y1="328.7715" y2="328.7715"/><text fill="#000000" font-family="sans-serif" font-size="13" font-weight="bold" lengthAdjust="spacing" textLength="9" x="946" y="308.7188">5</text><text fill="#000000" font-family="sans-serif" font-size="13" lengthAdjust="spacing" textLength="390" x="959" y="293.4082">PATCH /floormaps/ {floorId, rooms[{roomId,roomName, door,</text><text fill="#000000" font-family="sans-serif" font-size="13" lengthAdjust="spacing" textLength="404" x="959" y="308.7188">height, width, locationX, locationY}], connections[{connectionId,</text><text fill="#000000" font-family="sans-serif" font-size="13" lengthAdjust="spacing" textLength="400" x="959" y="324.0293">locationX, locationY}, elevator{elevatorId, locationX, locationY}]}</text><polygon fill="#181818" points="1556,354.082,1566,358.082,1556,362.082,1560,358.082" style="stroke:#181818;stroke-width:1.0;"/><line style="stroke:#181818;stroke-width:1.0;" x1="1385" x2="1562" y1="358.082" y2="358.082"/><text fill="#000000" font-family="sans-serif" font-size="13" font-weight="bold" lengthAdjust="spacing" textLength="9" x="1392" y="353.3398">6</text><text fill="#000000" font-family="sans-serif" font-size="13" lengthAdjust="spacing" textLength="151" x="1405" y="353.3398">createFloorMap(req, res)</text><polygon fill="#181818" points="1749,383.3926,1759,387.3926,1749,391.3926,1753,387.3926" style="stroke:#181818;stroke-width:1.0;"/><line style="stroke:#181818;stroke-width:1.0;" x1="1578" x2="1755" y1="387.3926" y2="387.3926"/><text fill="#000000" font-family="sans-serif" font-size="13" font-weight="bold" lengthAdjust="spacing" textLength="9" x="1585" y="382.6504">7</text><text fill="#000000" font-family="sans-serif" font-size="13" lengthAdjust="spacing" textLength="151" x="1598" y="382.6504">createFloorMap(req, res)</text><polygon fill="#181818" points="1897,412.7031,1907,416.7031,1897,420.7031,1901,416.7031" style="stroke:#181818;stroke-width:1.0;"/><line style="stroke:#181818;stroke-width:1.0;" x1="1771" x2="1903" y1="416.7031" y2="416.7031"/><text fill="#000000" font-family="sans-serif" font-size="13" font-weight="bold" lengthAdjust="spacing" textLength="9" x="1778" y="411.9609">8</text><text fill="#000000" font-family="sans-serif" font-size="13" lengthAdjust="spacing" textLength="101" x="1791" y="411.9609">create(req.body)</text><rect fill="#E3E3E3" height="46.9766" rx="2.5" ry="2.5" style="stroke:#181818;stroke-width:0.5;" width="83" x="1909" y="395.3926"/><text fill="#000000" font-family="sans-serif" font-size="14" lengthAdjust="spacing" textLength="63" x="1919" y="415.9277">floormap</text><text fill="#000000" font-family="sans-serif" font-size="14" lengthAdjust="spacing" textLength="69" x="1916" y="432.416">:FloorMap</text><polygon fill="#181818" points="2041,470.6797,2051,474.6797,2041,478.6797,2045,474.6797" style="stroke:#181818;stroke-width:1.0;"/><line style="stroke:#181818;stroke-width:1.0;" x1="1771" x2="2047" y1="474.6797" y2="474.6797"/><text fill="#000000" font-family="sans-serif" font-size="13" font-weight="bold" lengthAdjust="spacing" textLength="9" x="1778" y="469.9375">9</text><text fill="#000000" font-family="sans-serif" font-size="13" lengthAdjust="spacing" textLength="93" x="1791" y="469.9375">save(floormap)</text><polygon fill="#181818" points="1396,529.9902,1386,533.9902,1396,537.9902,1392,533.9902" style="stroke:#181818;stroke-width:1.0;"/><line style="stroke:#181818;stroke-width:1.0;stroke-dasharray:2.0,2.0;" x1="1390" x2="1572" y1="533.9902" y2="533.9902"/><text fill="#000000" font-family="sans-serif" font-size="13" font-weight="bold" lengthAdjust="spacing" textLength="18" x="1402" y="529.248">10</text><text fill="#000000" font-family="sans-serif" font-size="13" lengthAdjust="spacing" textLength="107" x="1424" y="529.248">200 OK floormap</text><polygon fill="#181818" points="950,559.3008,940,563.3008,950,567.3008,946,563.3008" style="stroke:#181818;stroke-width:1.0;"/><line style="stroke:#181818;stroke-width:1.0;stroke-dasharray:2.0,2.0;" x1="944" x2="1379" y1="563.3008" y2="563.3008"/><text fill="#000000" font-family="sans-serif" font-size="13" font-weight="bold" lengthAdjust="spacing" textLength="18" x="956" y="558.5586">11</text><text fill="#000000" font-family="sans-serif" font-size="13" lengthAdjust="spacing" textLength="107" x="978" y="558.5586">200 OK floormap</text><polygon fill="#181818" points="504,588.6113,494,592.6113,504,596.6113,500,592.6113" style="stroke:#181818;stroke-width:1.0;"/><line style="stroke:#181818;stroke-width:1.0;stroke-dasharray:2.0,2.0;" x1="498" x2="933" y1="592.6113" y2="592.6113"/><text fill="#000000" font-family="sans-serif" font-size="13" font-weight="bold" lengthAdjust="spacing" textLength="18" x="510" y="587.8691">12</text><text fill="#000000" font-family="sans-serif" font-size="13" lengthAdjust="spacing" textLength="107" x="532" y="587.8691">200 OK floormap</text><polygon fill="#181818" points="82,617.9219,72,621.9219,82,625.9219,78,621.9219" style="stroke:#181818;stroke-width:1.0;"/><line style="stroke:#181818;stroke-width:1.0;stroke-dasharray:2.0,2.0;" x1="76" x2="487" y1="621.9219" y2="621.9219"/><text fill="#000000" font-family="sans-serif" font-size="13" font-weight="bold" lengthAdjust="spacing" textLength="18" x="88" y="617.1797">13</text><text fill="#000000" font-family="sans-serif" font-size="13" lengthAdjust="spacing" textLength="198" x="110" y="617.1797">Imprime mensagem de sucesso</text><!--SRC=[rLN1RXen4BtxAqQS85eAIdfQ8QIAg2sgabQbhLgL7Xpl05PsFPknDr62yZ5L3_s0VW8_LfkmG62L0bKFFNbcx7b-ysoFxQKskMIPGKQ6r8GfGt1SeB3BcLogIpd6WRjD4HYLasQShY-m4vdGZJPZ6CdKeX1EEx-qHyP9RP1XW5S56eLmgkKuPDG7fmremiV1yKaRwkSd3I5auSWKsGMojvKZXjehj65CF9JCyiBMXDYEGRCBjKwdzpnUxjVj3atyITj2flfEpdxEVb0jXhxHIakW7FaX5a2KPCQnPCXaBaCWrvR2_lfQEjm5MEom1fg1v1Rr60QKUbBEx-mLj61GeRMpxwozKnzfDK7DdYVDwRNMEJP4WdlH_3lf75DIt2resWLhR_y3gIevdSr-9KKwFx9GXbyvDDxkcn5njkJvxiM7tckOZb8YxYSHC55clqx3uDqmdCiC8oyeSJGqNjtnn4LmenCtYI0b9PqcytbbVhd_5e4Yumyck1vhvNZ4eQdCYG1JzA8GJqiZiAd6ltzImbtg5WVc1QddKlbxzPuAXwM0hJ9gM_-lc8yg4u-yzSA3QanfYXo3OlIPByFCcSphZ5U-QhIDRT1LbjWEhSCFaA-rmdsm5obYmvy_Z3Bctqq9LJiwAj43whCBIcuRLSbB2J2d6AoyndePgc0HLgstc3_5Drclox5vpo26utORthvPXgiGApHUdDxXBMAtdH-kpC6lQjUk-WIJWpl1Te_lD9ixDlaiP-r__moDzTzz5a1i4JuaslUl-Gq0]--></g></svg>