<?xml version="1.0" encoding="us-ascii" standalone="no"?><svg xmlns="http://www.w3.org/2000/svg" xmlns:xlink="http://www.w3.org/1999/xlink" contentStyleType="text/css" height="1117px" preserveAspectRatio="none" style="width:1162px;height:1117px;background:#FFFFFF;" version="1.1" viewBox="0 0 1162 1117" width="1162px" zoomAndPan="magnify"><defs/><g><text fill="#000000" font-family="sans-serif" font-size="14" font-weight="bold" lengthAdjust="spacing" textLength="349" x="407.5" y="28.5352">Container Sequence Diagram (SD) - US1180 (N3)</text><rect fill="#FFFFFF" height="612.5215" style="stroke:#181818;stroke-width:1.0;" width="10" x="335" y="150.2871"/><rect fill="#FFFFFF" height="226.4844" style="stroke:#181818;stroke-width:1.0;" width="10" x="335" y="792.1191"/><rect fill="#FFFFFF" height="553.9004" style="stroke:#181818;stroke-width:1.0;" width="10" x="560" y="179.5977"/><rect fill="#FFFFFF" height="167.8633" style="stroke:#181818;stroke-width:1.0;" width="10" x="560" y="821.4297"/><rect fill="#FFFFFF" height="145.5527" style="stroke:#181818;stroke-width:1.0;" width="10" x="736" y="208.9082"/><rect fill="#FFFFFF" height="145.5527" style="stroke:#181818;stroke-width:1.0;" width="10" x="736" y="383.7715"/><rect fill="#FFFFFF" height="145.5527" style="stroke:#181818;stroke-width:1.0;" width="10" x="736" y="558.6348"/><rect fill="#FFFFFF" height="109.2422" style="stroke:#181818;stroke-width:1.0;" width="10" x="736" y="850.7402"/><rect fill="#FFFFFF" height="86.9316" style="stroke:#181818;stroke-width:1.0;" width="10" x="912" y="238.2188"/><rect fill="#FFFFFF" height="86.9316" style="stroke:#181818;stroke-width:1.0;" width="10" x="912" y="413.082"/><rect fill="#FFFFFF" height="86.9316" style="stroke:#181818;stroke-width:1.0;" width="10" x="912" y="587.9453"/><rect fill="#FFFFFF" height="39.9658" style="stroke:#181818;stroke-width:1.0;" width="10" x="912" y="880.0508"/><line style="stroke:#181818;stroke-width:0.5;stroke-dasharray:5.0,5.0;" x1="71" x2="71" y1="118.9766" y2="1036.6035"/><line style="stroke:#181818;stroke-width:0.5;stroke-dasharray:5.0,5.0;" x1="339.5" x2="339.5" y1="118.9766" y2="1036.6035"/><line style="stroke:#181818;stroke-width:0.5;stroke-dasharray:5.0,5.0;" x1="564.5" x2="564.5" y1="118.9766" y2="1036.6035"/><line style="stroke:#181818;stroke-width:0.5;stroke-dasharray:5.0,5.0;" x1="741" x2="741" y1="118.9766" y2="1036.6035"/><line style="stroke:#181818;stroke-width:0.5;stroke-dasharray:5.0,5.0;" x1="917" x2="917" y1="118.9766" y2="1036.6035"/><text fill="#000000" font-family="sans-serif" font-size="14" lengthAdjust="spacing" textLength="126" x="5" y="116.0234">Gestor de Campus</text><ellipse cx="71" cy="50.9883" fill="#E3E3E3" rx="8" ry="8" style="stroke:#181818;stroke-width:0.5;"/><path d="M71,58.9883 L71,85.9883 M58,66.9883 L84,66.9883 M71,85.9883 L58,100.9883 M71,85.9883 L84,100.9883 " fill="none" style="stroke:#181818;stroke-width:0.5;"/><text fill="#000000" font-family="sans-serif" font-size="14" lengthAdjust="spacing" textLength="126" x="5" y="1049.1387">Gestor de Campus</text><ellipse cx="71" cy="1060.5918" fill="#E3E3E3" rx="8" ry="8" style="stroke:#181818;stroke-width:0.5;"/><path d="M71,1068.5918 L71,1095.5918 M58,1076.5918 L84,1076.5918 M71,1095.5918 L58,1110.5918 M71,1095.5918 L84,1110.5918 " fill="none" style="stroke:#181818;stroke-width:0.5;"/><rect fill="#E3E3E3" height="46.9766" rx="2.5" ry="2.5" style="stroke:#181818;stroke-width:0.5;" width="119" x="280.5" y="71"/><text fill="#000000" font-family="sans-serif" font-size="14" lengthAdjust="spacing" textLength="105" x="287.5" y="91.5352">&#171;C4:Container&#187;</text><text fill="#000000" font-family="sans-serif" font-size="14" lengthAdjust="spacing" textLength="89" x="295.5" y="108.0234">:Visualiza&#231;&#227;o</text><rect fill="#E3E3E3" height="46.9766" rx="2.5" ry="2.5" style="stroke:#181818;stroke-width:0.5;" width="119" x="280.5" y="1035.6035"/><text fill="#000000" font-family="sans-serif" font-size="14" lengthAdjust="spacing" textLength="105" x="287.5" y="1056.1387">&#171;C4:Container&#187;</text><text fill="#000000" font-family="sans-serif" font-size="14" lengthAdjust="spacing" textLength="89" x="295.5" y="1072.627">:Visualiza&#231;&#227;o</text><rect fill="#E3E3E3" height="30.4883" rx="2.5" ry="2.5" style="stroke:#181818;stroke-width:0.5;" width="95" x="517.5" y="87.4883"/><text fill="#000000" font-family="sans-serif" font-size="14" lengthAdjust="spacing" textLength="81" x="524.5" y="108.0234">Component</text><rect fill="#E3E3E3" height="30.4883" rx="2.5" ry="2.5" style="stroke:#181818;stroke-width:0.5;" width="95" x="517.5" y="1035.6035"/><text fill="#000000" font-family="sans-serif" font-size="14" lengthAdjust="spacing" textLength="81" x="524.5" y="1056.1387">Component</text><rect fill="#E3E3E3" height="30.4883" rx="2.5" ry="2.5" style="stroke:#181818;stroke-width:0.5;" width="62" x="710" y="87.4883"/><text fill="#000000" font-family="sans-serif" font-size="14" lengthAdjust="spacing" textLength="48" x="717" y="108.0234">Service</text><rect fill="#E3E3E3" height="30.4883" rx="2.5" ry="2.5" style="stroke:#181818;stroke-width:0.5;" width="62" x="710" y="1035.6035"/><text fill="#000000" font-family="sans-serif" font-size="14" lengthAdjust="spacing" textLength="48" x="717" y="1056.1387">Service</text><rect fill="#E3E3E3" height="63.4648" rx="2.5" ry="2.5" style="stroke:#181818;stroke-width:0.5;" width="138" x="848" y="54.5117"/><text fill="#000000" font-family="sans-serif" font-size="14" lengthAdjust="spacing" textLength="105" x="864.5" y="75.0469">&#171;C4:Container&#187;</text><text fill="#000000" font-family="sans-serif" font-size="14" lengthAdjust="spacing" textLength="124" x="855" y="91.5352">M&#243;dulo de Gest&#227;o</text><text fill="#000000" font-family="sans-serif" font-size="14" lengthAdjust="spacing" textLength="99" x="867.5" y="108.0234">de Informa&#231;&#227;o</text><rect fill="#E3E3E3" height="63.4648" rx="2.5" ry="2.5" style="stroke:#181818;stroke-width:0.5;" width="138" x="848" y="1035.6035"/><text fill="#000000" font-family="sans-serif" font-size="14" lengthAdjust="spacing" textLength="105" x="864.5" y="1056.1387">&#171;C4:Container&#187;</text><text fill="#000000" font-family="sans-serif" font-size="14" lengthAdjust="spacing" textLength="124" x="855" y="1072.627">M&#243;dulo de Gest&#227;o</text><text fill="#000000" font-family="sans-serif" font-size="14" lengthAdjust="spacing" textLength="99" x="867.5" y="1089.1152">de Informa&#231;&#227;o</text><rect fill="#FFFFFF" height="612.5215" style="stroke:#181818;stroke-width:1.0;" width="10" x="335" y="150.2871"/><rect fill="#FFFFFF" height="226.4844" style="stroke:#181818;stroke-width:1.0;" width="10" x="335" y="792.1191"/><rect fill="#FFFFFF" height="553.9004" style="stroke:#181818;stroke-width:1.0;" width="10" x="560" y="179.5977"/><rect fill="#FFFFFF" height="167.8633" style="stroke:#181818;stroke-width:1.0;" width="10" x="560" y="821.4297"/><rect fill="#FFFFFF" height="145.5527" style="stroke:#181818;stroke-width:1.0;" width="10" x="736" y="208.9082"/><rect fill="#FFFFFF" height="145.5527" style="stroke:#181818;stroke-width:1.0;" width="10" x="736" y="383.7715"/><rect fill="#FFFFFF" height="145.5527" style="stroke:#181818;stroke-width:1.0;" width="10" x="736" y="558.6348"/><rect fill="#FFFFFF" height="109.2422" style="stroke:#181818;stroke-width:1.0;" width="10" x="736" y="850.7402"/><rect fill="#FFFFFF" height="86.9316" style="stroke:#181818;stroke-width:1.0;" width="10" x="912" y="238.2188"/><rect fill="#FFFFFF" height="86.9316" style="stroke:#181818;stroke-width:1.0;" width="10" x="912" y="413.082"/><rect fill="#FFFFFF" height="86.9316" style="stroke:#181818;stroke-width:1.0;" width="10" x="912" y="587.9453"/><rect fill="#FFFFFF" height="39.9658" style="stroke:#181818;stroke-width:1.0;" width="10" x="912" y="880.0508"/><polygon fill="#181818" points="323,146.2871,333,150.2871,323,154.2871,327,150.2871" style="stroke:#181818;stroke-width:1.0;"/><line style="stroke:#181818;stroke-width:1.0;" x1="71" x2="329" y1="150.2871" y2="150.2871"/><text fill="#000000" font-family="sans-serif" font-size="13" font-weight="bold" lengthAdjust="spacing" textLength="9" x="78" y="145.5449">1</text><text fill="#000000" font-family="sans-serif" font-size="13" lengthAdjust="spacing" textLength="203" x="91" y="145.5449">Inicia opera&#231;&#227;o de criar elevador</text><polygon fill="#181818" points="548,175.5977,558,179.5977,548,183.5977,552,179.5977" style="stroke:#181818;stroke-width:1.0;"/><line style="stroke:#181818;stroke-width:1.0;" x1="345" x2="554" y1="179.5977" y2="179.5977"/><text fill="#000000" font-family="sans-serif" font-size="13" font-weight="bold" lengthAdjust="spacing" textLength="9" x="352" y="174.8555">2</text><text fill="#000000" font-family="sans-serif" font-size="13" lengthAdjust="spacing" textLength="45" x="365" y="174.8555">ngInit()</text><polygon fill="#181818" points="724,204.9082,734,208.9082,724,212.9082,728,208.9082" style="stroke:#181818;stroke-width:1.0;"/><line style="stroke:#181818;stroke-width:1.0;" x1="570" x2="730" y1="208.9082" y2="208.9082"/><text fill="#000000" font-family="sans-serif" font-size="13" font-weight="bold" lengthAdjust="spacing" textLength="9" x="577" y="204.166">3</text><text fill="#000000" font-family="sans-serif" font-size="13" lengthAdjust="spacing" textLength="86" x="590" y="204.166">getBuildings()</text><polygon fill="#181818" points="900,234.2188,910,238.2188,900,242.2188,904,238.2188" style="stroke:#181818;stroke-width:1.0;"/><line style="stroke:#181818;stroke-width:1.0;" x1="746" x2="906" y1="238.2188" y2="238.2188"/><text fill="#000000" font-family="sans-serif" font-size="13" font-weight="bold" lengthAdjust="spacing" textLength="9" x="753" y="233.4766">4</text><text fill="#000000" font-family="sans-serif" font-size="13" lengthAdjust="spacing" textLength="86" x="766" y="233.4766">getBuildings()</text><line style="stroke:#181818;stroke-width:1.0;" x1="922" x2="964" y1="282.8398" y2="282.8398"/><line style="stroke:#181818;stroke-width:1.0;" x1="964" x2="964" y1="282.8398" y2="295.8398"/><line style="stroke:#181818;stroke-width:1.0;" x1="923" x2="964" y1="295.8398" y2="295.8398"/><polygon fill="#181818" points="933,291.8398,923,295.8398,933,299.8398,929,295.8398" style="stroke:#181818;stroke-width:1.0;"/><text fill="#000000" font-family="sans-serif" font-size="13" font-weight="bold" lengthAdjust="spacing" textLength="9" x="929" y="270.4424">5</text><text fill="#000000" font-family="sans-serif" font-size="13" lengthAdjust="spacing" textLength="137" x="942" y="262.7871">middleware.rolecheck</text><text fill="#000000" font-family="sans-serif" font-size="13" lengthAdjust="spacing" textLength="202" x="942" y="278.0977">("Admin" || "Gestor de Campus")</text><polygon fill="#181818" points="757,321.1504,747,325.1504,757,329.1504,753,325.1504" style="stroke:#181818;stroke-width:1.0;"/><line style="stroke:#181818;stroke-width:1.0;stroke-dasharray:2.0,2.0;" x1="751" x2="916" y1="325.1504" y2="325.1504"/><text fill="#000000" font-family="sans-serif" font-size="13" font-weight="bold" lengthAdjust="spacing" textLength="9" x="763" y="320.4082">6</text><text fill="#000000" font-family="sans-serif" font-size="13" lengthAdjust="spacing" textLength="107" x="776" y="320.4082">Lista de edif&#237;cios</text><polygon fill="#181818" points="581,350.4609,571,354.4609,581,358.4609,577,354.4609" style="stroke:#181818;stroke-width:1.0;"/><line style="stroke:#181818;stroke-width:1.0;stroke-dasharray:2.0,2.0;" x1="575" x2="740" y1="354.4609" y2="354.4609"/><text fill="#000000" font-family="sans-serif" font-size="13" font-weight="bold" lengthAdjust="spacing" textLength="9" x="587" y="349.7188">7</text><text fill="#000000" font-family="sans-serif" font-size="13" lengthAdjust="spacing" textLength="107" x="600" y="349.7188">Lista de edif&#237;cios</text><polygon fill="#181818" points="724,379.7715,734,383.7715,724,387.7715,728,383.7715" style="stroke:#181818;stroke-width:1.0;"/><line style="stroke:#181818;stroke-width:1.0;" x1="570" x2="730" y1="383.7715" y2="383.7715"/><text fill="#000000" font-family="sans-serif" font-size="13" font-weight="bold" lengthAdjust="spacing" textLength="9" x="577" y="379.0293">8</text><text fill="#000000" font-family="sans-serif" font-size="13" lengthAdjust="spacing" textLength="67" x="590" y="379.0293">getFloors()</text><polygon fill="#181818" points="900,409.082,910,413.082,900,417.082,904,413.082" style="stroke:#181818;stroke-width:1.0;"/><line style="stroke:#181818;stroke-width:1.0;" x1="746" x2="906" y1="413.082" y2="413.082"/><text fill="#000000" font-family="sans-serif" font-size="13" font-weight="bold" lengthAdjust="spacing" textLength="9" x="753" y="408.3398">9</text><text fill="#000000" font-family="sans-serif" font-size="13" lengthAdjust="spacing" textLength="67" x="766" y="408.3398">getFloors()</text><line style="stroke:#181818;stroke-width:1.0;" x1="922" x2="964" y1="457.7031" y2="457.7031"/><line style="stroke:#181818;stroke-width:1.0;" x1="964" x2="964" y1="457.7031" y2="470.7031"/><line style="stroke:#181818;stroke-width:1.0;" x1="923" x2="964" y1="470.7031" y2="470.7031"/><polygon fill="#181818" points="933,466.7031,923,470.7031,933,474.7031,929,470.7031" style="stroke:#181818;stroke-width:1.0;"/><text fill="#000000" font-family="sans-serif" font-size="13" font-weight="bold" lengthAdjust="spacing" textLength="18" x="929" y="445.3057">10</text><text fill="#000000" font-family="sans-serif" font-size="13" lengthAdjust="spacing" textLength="137" x="951" y="437.6504">middleware.rolecheck</text><text fill="#000000" font-family="sans-serif" font-size="13" lengthAdjust="spacing" textLength="202" x="951" y="452.9609">("Admin" || "Gestor de Campus")</text><polygon fill="#181818" points="757,496.0137,747,500.0137,757,504.0137,753,500.0137" style="stroke:#181818;stroke-width:1.0;"/><line style="stroke:#181818;stroke-width:1.0;stroke-dasharray:2.0,2.0;" x1="751" x2="916" y1="500.0137" y2="500.0137"/><text fill="#000000" font-family="sans-serif" font-size="13" font-weight="bold" lengthAdjust="spacing" textLength="18" x="763" y="495.2715">11</text><text fill="#000000" font-family="sans-serif" font-size="13" lengthAdjust="spacing" textLength="87" x="785" y="495.2715">Lista de pisos</text><polygon fill="#181818" points="581,525.3242,571,529.3242,581,533.3242,577,529.3242" style="stroke:#181818;stroke-width:1.0;"/><line style="stroke:#181818;stroke-width:1.0;stroke-dasharray:2.0,2.0;" x1="575" x2="740" y1="529.3242" y2="529.3242"/><text fill="#000000" font-family="sans-serif" font-size="13" font-weight="bold" lengthAdjust="spacing" textLength="18" x="587" y="524.582">12</text><text fill="#000000" font-family="sans-serif" font-size="13" lengthAdjust="spacing" textLength="87" x="609" y="524.582">Lista de pisos</text><polygon fill="#181818" points="724,554.6348,734,558.6348,724,562.6348,728,558.6348" style="stroke:#181818;stroke-width:1.0;"/><line style="stroke:#181818;stroke-width:1.0;" x1="570" x2="730" y1="558.6348" y2="558.6348"/><text fill="#000000" font-family="sans-serif" font-size="13" font-weight="bold" lengthAdjust="spacing" textLength="18" x="577" y="553.8926">13</text><text fill="#000000" font-family="sans-serif" font-size="13" lengthAdjust="spacing" textLength="85" x="599" y="553.8926">getElevators()</text><polygon fill="#181818" points="900,583.9453,910,587.9453,900,591.9453,904,587.9453" style="stroke:#181818;stroke-width:1.0;"/><line style="stroke:#181818;stroke-width:1.0;" x1="746" x2="906" y1="587.9453" y2="587.9453"/><text fill="#000000" font-family="sans-serif" font-size="13" font-weight="bold" lengthAdjust="spacing" textLength="18" x="753" y="583.2031">14</text><text fill="#000000" font-family="sans-serif" font-size="13" lengthAdjust="spacing" textLength="85" x="775" y="583.2031">getElevators()</text><line style="stroke:#181818;stroke-width:1.0;" x1="922" x2="964" y1="632.5664" y2="632.5664"/><line style="stroke:#181818;stroke-width:1.0;" x1="964" x2="964" y1="632.5664" y2="645.5664"/><line style="stroke:#181818;stroke-width:1.0;" x1="923" x2="964" y1="645.5664" y2="645.5664"/><polygon fill="#181818" points="933,641.5664,923,645.5664,933,649.5664,929,645.5664" style="stroke:#181818;stroke-width:1.0;"/><text fill="#000000" font-family="sans-serif" font-size="13" font-weight="bold" lengthAdjust="spacing" textLength="18" x="929" y="620.1689">15</text><text fill="#000000" font-family="sans-serif" font-size="13" lengthAdjust="spacing" textLength="137" x="951" y="612.5137">middleware.rolecheck</text><text fill="#000000" font-family="sans-serif" font-size="13" lengthAdjust="spacing" textLength="202" x="951" y="627.8242">("Admin" || "Gestor de Campus")</text><polygon fill="#181818" points="757,670.877,747,674.877,757,678.877,753,674.877" style="stroke:#181818;stroke-width:1.0;"/><line style="stroke:#181818;stroke-width:1.0;stroke-dasharray:2.0,2.0;" x1="751" x2="916" y1="674.877" y2="674.877"/><text fill="#000000" font-family="sans-serif" font-size="13" font-weight="bold" lengthAdjust="spacing" textLength="18" x="763" y="670.1348">16</text><text fill="#000000" font-family="sans-serif" font-size="13" lengthAdjust="spacing" textLength="120" x="785" y="670.1348">Lista de elevadores</text><polygon fill="#181818" points="581,700.1875,571,704.1875,581,708.1875,577,704.1875" style="stroke:#181818;stroke-width:1.0;"/><line style="stroke:#181818;stroke-width:1.0;stroke-dasharray:2.0,2.0;" x1="575" x2="740" y1="704.1875" y2="704.1875"/><text fill="#000000" font-family="sans-serif" font-size="13" font-weight="bold" lengthAdjust="spacing" textLength="18" x="587" y="699.4453">17</text><text fill="#000000" font-family="sans-serif" font-size="13" lengthAdjust="spacing" textLength="120" x="609" y="699.4453">Lista de elevadores</text><polygon fill="#181818" points="356,729.498,346,733.498,356,737.498,352,733.498" style="stroke:#181818;stroke-width:1.0;"/><line style="stroke:#181818;stroke-width:1.0;stroke-dasharray:2.0,2.0;" x1="350" x2="564" y1="733.498" y2="733.498"/><text fill="#000000" font-family="sans-serif" font-size="13" font-weight="bold" lengthAdjust="spacing" textLength="18" x="362" y="728.7559">18</text><text fill="#000000" font-family="sans-serif" font-size="13" lengthAdjust="spacing" textLength="169" x="384" y="728.7559">buildings, floors, elevators</text><polygon fill="#181818" points="82,758.8086,72,762.8086,82,766.8086,78,762.8086" style="stroke:#181818;stroke-width:1.0;"/><line style="stroke:#181818;stroke-width:1.0;stroke-dasharray:2.0,2.0;" x1="76" x2="339" y1="762.8086" y2="762.8086"/><text fill="#000000" font-family="sans-serif" font-size="13" font-weight="bold" lengthAdjust="spacing" textLength="18" x="88" y="758.0664">19</text><text fill="#000000" font-family="sans-serif" font-size="13" lengthAdjust="spacing" textLength="218" x="110" y="758.0664">Solicita dados que pretende mudar</text><polygon fill="#181818" points="323,788.1191,333,792.1191,323,796.1191,327,792.1191" style="stroke:#181818;stroke-width:1.0;"/><line style="stroke:#181818;stroke-width:1.0;" x1="71" x2="329" y1="792.1191" y2="792.1191"/><text fill="#000000" font-family="sans-serif" font-size="13" font-weight="bold" lengthAdjust="spacing" textLength="18" x="78" y="787.377">20</text><text fill="#000000" font-family="sans-serif" font-size="13" lengthAdjust="spacing" textLength="168" x="100" y="787.377">Introduz dados solicitados</text><polygon fill="#181818" points="548,817.4297,558,821.4297,548,825.4297,552,821.4297" style="stroke:#181818;stroke-width:1.0;"/><line style="stroke:#181818;stroke-width:1.0;" x1="345" x2="554" y1="821.4297" y2="821.4297"/><text fill="#000000" font-family="sans-serif" font-size="13" font-weight="bold" lengthAdjust="spacing" textLength="18" x="352" y="816.6875">21</text><text fill="#000000" font-family="sans-serif" font-size="13" lengthAdjust="spacing" textLength="96" x="374" y="816.6875">create(elevator)</text><polygon fill="#181818" points="724,846.7402,734,850.7402,724,854.7402,728,850.7402" style="stroke:#181818;stroke-width:1.0;"/><line style="stroke:#181818;stroke-width:1.0;" x1="570" x2="730" y1="850.7402" y2="850.7402"/><text fill="#000000" font-family="sans-serif" font-size="13" font-weight="bold" lengthAdjust="spacing" textLength="18" x="577" y="845.998">22</text><text fill="#000000" font-family="sans-serif" font-size="13" lengthAdjust="spacing" textLength="96" x="599" y="845.998">create(elevator)</text><polygon fill="#181818" points="900,876.0508,910,880.0508,900,884.0508,904,880.0508" style="stroke:#181818;stroke-width:1.0;"/><line style="stroke:#181818;stroke-width:1.0;" x1="746" x2="906" y1="880.0508" y2="880.0508"/><text fill="#000000" font-family="sans-serif" font-size="13" font-weight="bold" lengthAdjust="spacing" textLength="18" x="753" y="875.3086">23</text><text fill="#000000" font-family="sans-serif" font-size="13" lengthAdjust="spacing" textLength="96" x="775" y="875.3086">create(elevator)</text><polygon fill="#181818" points="757,916.0166,747,920.0166,757,924.0166,753,920.0166" style="stroke:#181818;stroke-width:1.0;"/><line style="stroke:#181818;stroke-width:1.0;stroke-dasharray:2.0,2.0;" x1="751" x2="916" y1="920.0166" y2="920.0166"/><text fill="#000000" font-family="sans-serif" font-size="13" font-weight="bold" lengthAdjust="spacing" textLength="18" x="763" y="915.2744">24</text><text fill="#000000" font-family="sans-serif" font-size="13" lengthAdjust="spacing" textLength="100" x="785" y="915.2744">201 OK elevator</text><path d="M927,893.0508 L927,933.0508 L1155,933.0508 L1155,903.0508 L1145,893.0508 L927,893.0508 " fill="#FAFAFA" style="stroke:#181818;stroke-width:0.5;"/><path d="M1145,893.0508 L1145,903.0508 L1155,903.0508 L1145,893.0508 " fill="#FAFAFA" style="stroke:#181818;stroke-width:0.5;"/><text fill="#000000" font-family="sans-serif" font-size="13" lengthAdjust="spacing" textLength="207" x="933" y="910.6191">M&#243;dulo de Gest&#227;o de Informa&#231;&#227;o</text><text fill="#000000" font-family="sans-serif" font-size="13" lengthAdjust="spacing" textLength="184" x="933" y="925.9297">&#233; a representa&#231;&#227;o do Sprint A</text><polygon fill="#181818" points="581,955.9824,571,959.9824,581,963.9824,577,959.9824" style="stroke:#181818;stroke-width:1.0;"/><line style="stroke:#181818;stroke-width:1.0;stroke-dasharray:2.0,2.0;" x1="575" x2="740" y1="959.9824" y2="959.9824"/><text fill="#000000" font-family="sans-serif" font-size="13" font-weight="bold" lengthAdjust="spacing" textLength="18" x="587" y="955.2402">25</text><text fill="#000000" font-family="sans-serif" font-size="13" lengthAdjust="spacing" textLength="100" x="609" y="955.2402">201 OK elevator</text><polygon fill="#181818" points="356,985.293,346,989.293,356,993.293,352,989.293" style="stroke:#181818;stroke-width:1.0;"/><line style="stroke:#181818;stroke-width:1.0;stroke-dasharray:2.0,2.0;" x1="350" x2="564" y1="989.293" y2="989.293"/><text fill="#000000" font-family="sans-serif" font-size="13" font-weight="bold" lengthAdjust="spacing" textLength="18" x="362" y="984.5508">26</text><text fill="#000000" font-family="sans-serif" font-size="13" lengthAdjust="spacing" textLength="100" x="384" y="984.5508">201 OK elevator</text><polygon fill="#181818" points="82,1014.6035,72,1018.6035,82,1022.6035,78,1018.6035" style="stroke:#181818;stroke-width:1.0;"/><line style="stroke:#181818;stroke-width:1.0;stroke-dasharray:2.0,2.0;" x1="76" x2="339" y1="1018.6035" y2="1018.6035"/><text fill="#000000" font-family="sans-serif" font-size="13" font-weight="bold" lengthAdjust="spacing" textLength="18" x="88" y="1013.8613">27</text><text fill="#000000" font-family="sans-serif" font-size="13" lengthAdjust="spacing" textLength="141" x="110" y="1013.8613">Mensagem de sucesso</text><!--SRC=[xLUnRjim4Dtv5GTDDX0NSTkX40m3YTCMGPjs4Dh92qETPS8IgPAKWmRvcmv5Xqxv1FzOZx4j2v4TAuwTBfb4IBnxTu_lU2SxaIhdXcUGQQN5sEWCmPa2cIs_v5nCU8AH-vaY61IEgoIjRh1Z7kihgH8OyTGYOquwsZhGod6fq424FmfK0k5CyiHRjAApDdJWMzJjlZk6rfStRSPuuRGgiaiqj1PE6mW-elNFc7pnB2zim5Zz7NJw4FHwWxTX2TZl3rNuNTg2f_AQptxFVkaWX7CbXUIWSpJpTzw9C98Rm1Idb8Fnm7BA7JRno1hiyS4DT9PhXSg5e18AmhNQAvpo8ojNtYP2CvK2GqZGdHOoZObTMxLRR62BvmOIBcQtSP7U9UfveuY6YjRdQgHDjWnnCyYE7jckaUoUH0YPZECKhxZ1LqQdACOe9aFL2axYJAe0RcxMoAczUwIhCoB-Falhk3V0M8vcVuNKbiNuP1hBiwsAQ3lSKXhh13K_x0-frkQWSgeZl6ZfaLhAfNqc6TMGjYlelRymtGOHxKr5Qr5UXDH0IDLBOj7Ry71YsegsHb3DkZRfu7BPcOvWT7Uh7Cr1l2wg6AjEsgmn-m1gv8SGwPJ619yCfM611XV83JhqL6H5pCqM5cjJmjD65cTqN5mlWh6Bs6Xzs4c5Q1S6oNjhINNZaUL1qxsscHhCVxmZgfNt-hWBNp-L8cNxA3kboTZ8P4orLZU0U_k7QlO7ECtgf5nBnxCSTpL4kP5qN2URwlX-x7kguGVShjIq1vhMb5glqsbMQnUeBFtcPDxO5WAjrOyjzNy0]--></g></svg>