<?xml version="1.0" encoding="us-ascii" standalone="no"?><svg xmlns="http://www.w3.org/2000/svg" xmlns:xlink="http://www.w3.org/1999/xlink" contentStyleType="text/css" height="533px" preserveAspectRatio="none" style="width:929px;height:533px;background:#FFFFFF;" version="1.1" viewBox="0 0 929 533" width="929px" zoomAndPan="magnify"><defs/><g><text fill="#000000" font-family="sans-serif" font-size="14" font-weight="bold" lengthAdjust="spacing" textLength="340" x="293.25" y="28.5352">Container Sequence Diagram (SD) - US120 (N3)</text><rect fill="#FFFFFF" height="268.7949" style="stroke:#181818;stroke-width:1.0;" width="10" x="234.5" y="165.5977"/><rect fill="#FFFFFF" height="210.1738" style="stroke:#181818;stroke-width:1.0;" width="10" x="374.5" y="194.9082"/><rect fill="#FFFFFF" height="151.5527" style="stroke:#181818;stroke-width:1.0;" width="10" x="514.5" y="224.2188"/><rect fill="#FFFFFF" height="32.3105" style="stroke:#181818;stroke-width:1.0;" width="10" x="679.5" y="271.8398"/><line style="stroke:#181818;stroke-width:0.5;stroke-dasharray:5.0,5.0;" x1="30" x2="30" y1="118.9766" y2="452.3926"/><line style="stroke:#181818;stroke-width:0.5;stroke-dasharray:5.0,5.0;" x1="239" x2="239" y1="118.9766" y2="452.3926"/><line style="stroke:#181818;stroke-width:0.5;stroke-dasharray:5.0,5.0;" x1="379" x2="379" y1="118.9766" y2="452.3926"/><line style="stroke:#181818;stroke-width:0.5;stroke-dasharray:5.0,5.0;" x1="519.5" x2="519.5" y1="118.9766" y2="452.3926"/><line style="stroke:#181818;stroke-width:0.5;stroke-dasharray:5.0,5.0;" x1="684.5" x2="684.5" y1="118.9766" y2="452.3926"/><text fill="#000000" font-family="sans-serif" font-size="14" lengthAdjust="spacing" textLength="45" x="5" y="116.0234">Utente</text><ellipse cx="30.5" cy="50.9883" fill="#E3E3E3" rx="8" ry="8" style="stroke:#181818;stroke-width:0.5;"/><path d="M30.5,58.9883 L30.5,85.9883 M17.5,66.9883 L43.5,66.9883 M30.5,85.9883 L17.5,100.9883 M30.5,85.9883 L43.5,100.9883 " fill="none" style="stroke:#181818;stroke-width:0.5;"/><text fill="#000000" font-family="sans-serif" font-size="14" lengthAdjust="spacing" textLength="45" x="5" y="464.9277">Utente</text><ellipse cx="30.5" cy="476.3809" fill="#E3E3E3" rx="8" ry="8" style="stroke:#181818;stroke-width:0.5;"/><path d="M30.5,484.3809 L30.5,511.3809 M17.5,492.3809 L43.5,492.3809 M30.5,511.3809 L17.5,526.3809 M30.5,511.3809 L43.5,526.3809 " fill="none" style="stroke:#181818;stroke-width:0.5;"/><rect fill="#E3E3E3" height="46.9766" rx="2.5" ry="2.5" style="stroke:#181818;stroke-width:0.5;" width="119" x="180" y="71"/><text fill="#000000" font-family="sans-serif" font-size="14" lengthAdjust="spacing" textLength="105" x="187" y="91.5352">&#171;C4:Container&#187;</text><text fill="#000000" font-family="sans-serif" font-size="14" lengthAdjust="spacing" textLength="89" x="195" y="108.0234">:Visualiza&#231;&#227;o</text><rect fill="#E3E3E3" height="46.9766" rx="2.5" ry="2.5" style="stroke:#181818;stroke-width:0.5;" width="119" x="180" y="451.3926"/><text fill="#000000" font-family="sans-serif" font-size="14" lengthAdjust="spacing" textLength="105" x="187" y="471.9277">&#171;C4:Container&#187;</text><text fill="#000000" font-family="sans-serif" font-size="14" lengthAdjust="spacing" textLength="89" x="195" y="488.416">:Visualiza&#231;&#227;o</text><rect fill="#E3E3E3" height="30.4883" rx="2.5" ry="2.5" style="stroke:#181818;stroke-width:0.5;" width="95" x="332" y="87.4883"/><text fill="#000000" font-family="sans-serif" font-size="14" lengthAdjust="spacing" textLength="81" x="339" y="108.0234">Component</text><rect fill="#E3E3E3" height="30.4883" rx="2.5" ry="2.5" style="stroke:#181818;stroke-width:0.5;" width="95" x="332" y="451.3926"/><text fill="#000000" font-family="sans-serif" font-size="14" lengthAdjust="spacing" textLength="81" x="339" y="471.9277">Component</text><rect fill="#E3E3E3" height="30.4883" rx="2.5" ry="2.5" style="stroke:#181818;stroke-width:0.5;" width="62" x="488.5" y="87.4883"/><text fill="#000000" font-family="sans-serif" font-size="14" lengthAdjust="spacing" textLength="48" x="495.5" y="108.0234">Service</text><rect fill="#E3E3E3" height="30.4883" rx="2.5" ry="2.5" style="stroke:#181818;stroke-width:0.5;" width="62" x="488.5" y="451.3926"/><text fill="#000000" font-family="sans-serif" font-size="14" lengthAdjust="spacing" textLength="48" x="495.5" y="471.9277">Service</text><rect fill="#E3E3E3" height="63.4648" rx="2.5" ry="2.5" style="stroke:#181818;stroke-width:0.5;" width="138" x="615.5" y="54.5117"/><text fill="#000000" font-family="sans-serif" font-size="14" lengthAdjust="spacing" textLength="105" x="632" y="75.0469">&#171;C4:Container&#187;</text><text fill="#000000" font-family="sans-serif" font-size="14" lengthAdjust="spacing" textLength="124" x="622.5" y="91.5352">M&#243;dulo de Gest&#227;o</text><text fill="#000000" font-family="sans-serif" font-size="14" lengthAdjust="spacing" textLength="99" x="635" y="108.0234">de Informa&#231;&#227;o</text><rect fill="#E3E3E3" height="63.4648" rx="2.5" ry="2.5" style="stroke:#181818;stroke-width:0.5;" width="138" x="615.5" y="451.3926"/><text fill="#000000" font-family="sans-serif" font-size="14" lengthAdjust="spacing" textLength="105" x="632" y="471.9277">&#171;C4:Container&#187;</text><text fill="#000000" font-family="sans-serif" font-size="14" lengthAdjust="spacing" textLength="124" x="622.5" y="488.416">M&#243;dulo de Gest&#227;o</text><text fill="#000000" font-family="sans-serif" font-size="14" lengthAdjust="spacing" textLength="99" x="635" y="504.9043">de Informa&#231;&#227;o</text><rect fill="#FFFFFF" height="268.7949" style="stroke:#181818;stroke-width:1.0;" width="10" x="234.5" y="165.5977"/><rect fill="#FFFFFF" height="210.1738" style="stroke:#181818;stroke-width:1.0;" width="10" x="374.5" y="194.9082"/><rect fill="#FFFFFF" height="151.5527" style="stroke:#181818;stroke-width:1.0;" width="10" x="514.5" y="224.2188"/><rect fill="#FFFFFF" height="32.3105" style="stroke:#181818;stroke-width:1.0;" width="10" x="679.5" y="271.8398"/><polygon fill="#181818" points="222.5,161.5977,232.5,165.5977,222.5,169.5977,226.5,165.5977" style="stroke:#181818;stroke-width:1.0;"/><line style="stroke:#181818;stroke-width:1.0;" x1="30.5" x2="228.5" y1="165.5977" y2="165.5977"/><text fill="#000000" font-family="sans-serif" font-size="13" font-weight="bold" lengthAdjust="spacing" textLength="9" x="37.5" y="153.2002">1</text><text fill="#000000" font-family="sans-serif" font-size="13" lengthAdjust="spacing" textLength="172" x="50.5" y="145.5449">Solicitar dele&#231;&#227;o de conta e</text><text fill="#000000" font-family="sans-serif" font-size="13" lengthAdjust="spacing" textLength="97" x="54.5" y="160.8555">dados pessoais</text><polygon fill="#181818" points="362.5,190.9082,372.5,194.9082,362.5,198.9082,366.5,194.9082" style="stroke:#181818;stroke-width:1.0;"/><line style="stroke:#181818;stroke-width:1.0;" x1="244.5" x2="368.5" y1="194.9082" y2="194.9082"/><text fill="#000000" font-family="sans-serif" font-size="13" font-weight="bold" lengthAdjust="spacing" textLength="9" x="251.5" y="190.166">2</text><text fill="#000000" font-family="sans-serif" font-size="13" lengthAdjust="spacing" textLength="98" x="264.5" y="190.166">deleteAccount()</text><polygon fill="#181818" points="502.5,220.2188,512.5,224.2188,502.5,228.2188,506.5,224.2188" style="stroke:#181818;stroke-width:1.0;"/><line style="stroke:#181818;stroke-width:1.0;" x1="384.5" x2="508.5" y1="224.2188" y2="224.2188"/><text fill="#000000" font-family="sans-serif" font-size="13" font-weight="bold" lengthAdjust="spacing" textLength="9" x="391.5" y="219.4766">3</text><text fill="#000000" font-family="sans-serif" font-size="13" lengthAdjust="spacing" textLength="98" x="404.5" y="219.4766">deleteAccount()</text><polygon fill="#181818" points="667.5,267.8398,677.5,271.8398,667.5,275.8398,671.5,271.8398" style="stroke:#181818;stroke-width:1.0;"/><line style="stroke:#181818;stroke-width:1.0;" x1="524.5" x2="673.5" y1="271.8398" y2="271.8398"/><text fill="#000000" font-family="sans-serif" font-size="13" font-weight="bold" lengthAdjust="spacing" textLength="9" x="531.5" y="259.4424">4</text><text fill="#000000" font-family="sans-serif" font-size="13" lengthAdjust="spacing" textLength="123" x="544.5" y="251.7871">POST /auth/delete/</text><text fill="#000000" font-family="sans-serif" font-size="13" lengthAdjust="spacing" textLength="42" x="544.5" y="267.0977">{email)</text><path d="M694,237.2188 L694,277.2188 L922,277.2188 L922,247.2188 L912,237.2188 L694,237.2188 " fill="#FAFAFA" style="stroke:#181818;stroke-width:0.5;"/><path d="M912,237.2188 L912,247.2188 L922,247.2188 L912,237.2188 " fill="#FAFAFA" style="stroke:#181818;stroke-width:0.5;"/><text fill="#000000" font-family="sans-serif" font-size="13" lengthAdjust="spacing" textLength="207" x="700" y="254.7871">M&#243;dulo de Gest&#227;o de Informa&#231;&#227;o</text><text fill="#000000" font-family="sans-serif" font-size="13" lengthAdjust="spacing" textLength="184" x="700" y="270.0977">&#233; a representa&#231;&#227;o do Sprint A</text><polygon fill="#181818" points="535.5,300.1504,525.5,304.1504,535.5,308.1504,531.5,304.1504" style="stroke:#181818;stroke-width:1.0;"/><line style="stroke:#181818;stroke-width:1.0;stroke-dasharray:2.0,2.0;" x1="529.5" x2="683.5" y1="304.1504" y2="304.1504"/><text fill="#000000" font-family="sans-serif" font-size="13" font-weight="bold" lengthAdjust="spacing" textLength="9" x="541.5" y="299.4082">5</text><text fill="#000000" font-family="sans-serif" font-size="13" lengthAdjust="spacing" textLength="46" x="554.5" y="299.4082">200 OK</text><line style="stroke:#181818;stroke-width:1.0;" x1="524.5" x2="566.5" y1="333.4609" y2="333.4609"/><line style="stroke:#181818;stroke-width:1.0;" x1="566.5" x2="566.5" y1="333.4609" y2="346.4609"/><line style="stroke:#181818;stroke-width:1.0;" x1="525.5" x2="566.5" y1="346.4609" y2="346.4609"/><polygon fill="#181818" points="535.5,342.4609,525.5,346.4609,535.5,350.4609,531.5,346.4609" style="stroke:#181818;stroke-width:1.0;"/><text fill="#000000" font-family="sans-serif" font-size="13" font-weight="bold" lengthAdjust="spacing" textLength="9" x="531.5" y="328.7188">6</text><text fill="#000000" font-family="sans-serif" font-size="13" lengthAdjust="spacing" textLength="49" x="544.5" y="328.7188">logout()</text><polygon fill="#181818" points="395.5,371.7715,385.5,375.7715,395.5,379.7715,391.5,375.7715" style="stroke:#181818;stroke-width:1.0;"/><line style="stroke:#181818;stroke-width:1.0;stroke-dasharray:2.0,2.0;" x1="389.5" x2="518.5" y1="375.7715" y2="375.7715"/><text fill="#000000" font-family="sans-serif" font-size="13" font-weight="bold" lengthAdjust="spacing" textLength="9" x="401.5" y="371.0293">7</text><text fill="#000000" font-family="sans-serif" font-size="13" lengthAdjust="spacing" textLength="46" x="414.5" y="371.0293">200 OK</text><polygon fill="#181818" points="255.5,401.082,245.5,405.082,255.5,409.082,251.5,405.082" style="stroke:#181818;stroke-width:1.0;"/><line style="stroke:#181818;stroke-width:1.0;stroke-dasharray:2.0,2.0;" x1="249.5" x2="378.5" y1="405.082" y2="405.082"/><text fill="#000000" font-family="sans-serif" font-size="13" font-weight="bold" lengthAdjust="spacing" textLength="9" x="261.5" y="400.3398">8</text><text fill="#000000" font-family="sans-serif" font-size="13" lengthAdjust="spacing" textLength="46" x="274.5" y="400.3398">200 OK</text><polygon fill="#181818" points="41.5,430.3926,31.5,434.3926,41.5,438.3926,37.5,434.3926" style="stroke:#181818;stroke-width:1.0;"/><line style="stroke:#181818;stroke-width:1.0;stroke-dasharray:2.0,2.0;" x1="35.5" x2="238.5" y1="434.3926" y2="434.3926"/><text fill="#000000" font-family="sans-serif" font-size="13" font-weight="bold" lengthAdjust="spacing" textLength="9" x="47.5" y="429.6504">9</text><text fill="#000000" font-family="sans-serif" font-size="13" lengthAdjust="spacing" textLength="141" x="60.5" y="429.6504">Mensagem de sucesso</text><!--SRC=[hLJBRjj03BplLn0-sGV1RjAJO1W87A0eYZm0DJtfmguOUP4LgUmZHTlFwQ7ekP_W7-lAYMMX2H8XxOtGpf338Ib_OxX5Xmqqmg8tJXg2u28ftx-qg6-mfY9yjGIET42kxH3WDrZ95yCrNAFrf5Gm8K7NmW4DauE2RYEn9ZWrM7UCQN4wWmokYZT72vYU7y-KmXY4O_EPN8fr40UJgq0SQABKFe9i1PFbSlqsxtElLYNdduoFQCqttFxS_f193eLOeqr01nLPsdrD4UYE1LGoL4cnXvQy5pI-AsZkCD2Ox6e4fXEwbgOLJheXtwa8TAArH0xJsQ5U3r87UE8MvEvCykiPvWD4xQ5FMtEs_Lr5ksl-7VcGj9MSulTyBQxPYytXygBu2FCqWitylk2yvE_KeB4pzQmvO_8hbaHsfjw471uJu2zyoTjVW6dHMaS- -O4FunCeMcUIFoVgjOrc1sjpE5eiuEA3KXNzSuE36VJfhTGIkudrZyETwCiFgkydEjY4SViEJsKxRDP_QB0_m6MMZRl0CsAVVXfDbzT7tHtQ2q8UtTaV]--></g></svg>