<?xml version="1.0" encoding="us-ascii" standalone="no"?><svg xmlns="http://www.w3.org/2000/svg" xmlns:xlink="http://www.w3.org/1999/xlink" contentStyleType="text/css" height="697px" preserveAspectRatio="none" style="width:1250px;height:697px;background:#FFFFFF;" version="1.1" viewBox="0 0 1250 697" width="1250px" zoomAndPan="magnify"><defs/><g><text fill="#000000" font-family="sans-serif" font-size="14" font-weight="bold" lengthAdjust="spacing" textLength="349" x="449.75" y="28.5352">Container Sequence Diagram (SD) - US1170 (N3)</text><rect fill="#FFFFFF" height="448.3477" style="stroke:#181818;stroke-width:1.0;" width="10" x="233.5" y="150.2871"/><rect fill="#FFFFFF" height="205.1738" style="stroke:#181818;stroke-width:1.0;" width="10" x="894.5" y="179.5977"/><rect fill="#FFFFFF" height="29.3105" style="stroke:#181818;stroke-width:1.0;" width="10" x="1039.5" y="208.9082"/><rect fill="#FFFFFF" height="87.9316" style="stroke:#181818;stroke-width:1.0;" width="10" x="1039.5" y="267.5293"/><rect fill="#FFFFFF" height="29.3105" style="stroke:#181818;stroke-width:1.0;" width="10" x="1170.5" y="296.8398"/><line style="stroke:#181818;stroke-width:0.5;stroke-dasharray:5.0,5.0;" x1="30" x2="30" y1="118.9766" y2="616.6348"/><line style="stroke:#181818;stroke-width:0.5;stroke-dasharray:5.0,5.0;" x1="238" x2="238" y1="118.9766" y2="616.6348"/><line style="stroke:#181818;stroke-width:0.5;stroke-dasharray:5.0,5.0;" x1="899" x2="899" y1="118.9766" y2="616.6348"/><line style="stroke:#181818;stroke-width:0.5;stroke-dasharray:5.0,5.0;" x1="1044.5" x2="1044.5" y1="118.9766" y2="616.6348"/><line style="stroke:#181818;stroke-width:0.5;stroke-dasharray:5.0,5.0;" x1="1175.5" x2="1175.5" y1="118.9766" y2="616.6348"/><text fill="#000000" font-family="sans-serif" font-size="14" lengthAdjust="spacing" textLength="45" x="5" y="116.0234">Utente</text><ellipse cx="30.5" cy="50.9883" fill="#E3E3E3" rx="8" ry="8" style="stroke:#181818;stroke-width:0.5;"/><path d="M30.5,58.9883 L30.5,85.9883 M17.5,66.9883 L43.5,66.9883 M30.5,85.9883 L17.5,100.9883 M30.5,85.9883 L43.5,100.9883 " fill="none" style="stroke:#181818;stroke-width:0.5;"/><text fill="#000000" font-family="sans-serif" font-size="14" lengthAdjust="spacing" textLength="45" x="5" y="629.1699">Utente</text><ellipse cx="30.5" cy="640.623" fill="#E3E3E3" rx="8" ry="8" style="stroke:#181818;stroke-width:0.5;"/><path d="M30.5,648.623 L30.5,675.623 M17.5,656.623 L43.5,656.623 M30.5,675.623 L17.5,690.623 M30.5,675.623 L43.5,690.623 " fill="none" style="stroke:#181818;stroke-width:0.5;"/><rect fill="#E3E3E3" height="46.9766" rx="2.5" ry="2.5" style="stroke:#181818;stroke-width:0.5;" width="119" x="179" y="71"/><text fill="#000000" font-family="sans-serif" font-size="14" lengthAdjust="spacing" textLength="105" x="186" y="91.5352">&#171;C4:Container&#187;</text><text fill="#000000" font-family="sans-serif" font-size="14" lengthAdjust="spacing" textLength="89" x="194" y="108.0234">:Visualiza&#231;&#227;o</text><rect fill="#E3E3E3" height="46.9766" rx="2.5" ry="2.5" style="stroke:#181818;stroke-width:0.5;" width="119" x="179" y="615.6348"/><text fill="#000000" font-family="sans-serif" font-size="14" lengthAdjust="spacing" textLength="105" x="186" y="636.1699">&#171;C4:Container&#187;</text><text fill="#000000" font-family="sans-serif" font-size="14" lengthAdjust="spacing" textLength="89" x="194" y="652.6582">:Visualiza&#231;&#227;o</text><rect fill="#E3E3E3" height="30.4883" rx="2.5" ry="2.5" style="stroke:#181818;stroke-width:0.5;" width="95" x="852" y="87.4883"/><text fill="#000000" font-family="sans-serif" font-size="14" lengthAdjust="spacing" textLength="81" x="859" y="108.0234">Component</text><rect fill="#E3E3E3" height="30.4883" rx="2.5" ry="2.5" style="stroke:#181818;stroke-width:0.5;" width="95" x="852" y="615.6348"/><text fill="#000000" font-family="sans-serif" font-size="14" lengthAdjust="spacing" textLength="81" x="859" y="636.1699">Component</text><rect fill="#E3E3E3" height="30.4883" rx="2.5" ry="2.5" style="stroke:#181818;stroke-width:0.5;" width="62" x="1013.5" y="87.4883"/><text fill="#000000" font-family="sans-serif" font-size="14" lengthAdjust="spacing" textLength="48" x="1020.5" y="108.0234">Service</text><rect fill="#E3E3E3" height="30.4883" rx="2.5" ry="2.5" style="stroke:#181818;stroke-width:0.5;" width="62" x="1013.5" y="615.6348"/><text fill="#000000" font-family="sans-serif" font-size="14" lengthAdjust="spacing" textLength="48" x="1020.5" y="636.1699">Service</text><rect fill="#E3E3E3" height="63.4648" rx="2.5" ry="2.5" style="stroke:#181818;stroke-width:0.5;" width="138" x="1106.5" y="54.5117"/><text fill="#000000" font-family="sans-serif" font-size="14" lengthAdjust="spacing" textLength="105" x="1123" y="75.0469">&#171;C4:Container&#187;</text><text fill="#000000" font-family="sans-serif" font-size="14" lengthAdjust="spacing" textLength="124" x="1113.5" y="91.5352">M&#243;dulo de Gest&#227;o</text><text fill="#000000" font-family="sans-serif" font-size="14" lengthAdjust="spacing" textLength="99" x="1126" y="108.0234">de Informa&#231;&#227;o</text><rect fill="#E3E3E3" height="63.4648" rx="2.5" ry="2.5" style="stroke:#181818;stroke-width:0.5;" width="138" x="1106.5" y="615.6348"/><text fill="#000000" font-family="sans-serif" font-size="14" lengthAdjust="spacing" textLength="105" x="1123" y="636.1699">&#171;C4:Container&#187;</text><text fill="#000000" font-family="sans-serif" font-size="14" lengthAdjust="spacing" textLength="124" x="1113.5" y="652.6582">M&#243;dulo de Gest&#227;o</text><text fill="#000000" font-family="sans-serif" font-size="14" lengthAdjust="spacing" textLength="99" x="1126" y="669.1465">de Informa&#231;&#227;o</text><rect fill="#FFFFFF" height="448.3477" style="stroke:#181818;stroke-width:1.0;" width="10" x="233.5" y="150.2871"/><rect fill="#FFFFFF" height="205.1738" style="stroke:#181818;stroke-width:1.0;" width="10" x="894.5" y="179.5977"/><rect fill="#FFFFFF" height="29.3105" style="stroke:#181818;stroke-width:1.0;" width="10" x="1039.5" y="208.9082"/><rect fill="#FFFFFF" height="87.9316" style="stroke:#181818;stroke-width:1.0;" width="10" x="1039.5" y="267.5293"/><rect fill="#FFFFFF" height="29.3105" style="stroke:#181818;stroke-width:1.0;" width="10" x="1170.5" y="296.8398"/><polygon fill="#181818" points="221.5,146.2871,231.5,150.2871,221.5,154.2871,225.5,150.2871" style="stroke:#181818;stroke-width:1.0;"/><line style="stroke:#181818;stroke-width:1.0;" x1="30.5" x2="227.5" y1="150.2871" y2="150.2871"/><text fill="#000000" font-family="sans-serif" font-size="13" font-weight="bold" lengthAdjust="spacing" textLength="9" x="37.5" y="145.5449">1</text><text fill="#000000" font-family="sans-serif" font-size="13" lengthAdjust="spacing" textLength="130" x="50.5" y="145.5449">Faz login no sistema</text><polygon fill="#181818" points="882.5,175.5977,892.5,179.5977,882.5,183.5977,886.5,179.5977" style="stroke:#181818;stroke-width:1.0;"/><line style="stroke:#181818;stroke-width:1.0;" x1="243.5" x2="888.5" y1="179.5977" y2="179.5977"/><text fill="#000000" font-family="sans-serif" font-size="13" font-weight="bold" lengthAdjust="spacing" textLength="9" x="250.5" y="174.8555">2</text><text fill="#000000" font-family="sans-serif" font-size="13" lengthAdjust="spacing" textLength="63" x="263.5" y="174.8555">ngOnInit()</text><polygon fill="#181818" points="1027.5,204.9082,1037.5,208.9082,1027.5,212.9082,1031.5,208.9082" style="stroke:#181818;stroke-width:1.0;"/><line style="stroke:#181818;stroke-width:1.0;" x1="904.5" x2="1033.5" y1="208.9082" y2="208.9082"/><text fill="#000000" font-family="sans-serif" font-size="13" font-weight="bold" lengthAdjust="spacing" textLength="9" x="911.5" y="204.166">3</text><text fill="#000000" font-family="sans-serif" font-size="13" lengthAdjust="spacing" textLength="103" x="924.5" y="204.166">getCurrentUser()</text><polygon fill="#181818" points="915.5,234.2188,905.5,238.2188,915.5,242.2188,911.5,238.2188" style="stroke:#181818;stroke-width:1.0;"/><line style="stroke:#181818;stroke-width:1.0;stroke-dasharray:2.0,2.0;" x1="909.5" x2="1043.5" y1="238.2188" y2="238.2188"/><text fill="#000000" font-family="sans-serif" font-size="13" font-weight="bold" lengthAdjust="spacing" textLength="9" x="921.5" y="233.4766">4</text><text fill="#000000" font-family="sans-serif" font-size="13" lengthAdjust="spacing" textLength="27" x="934.5" y="233.4766">user</text><polygon fill="#181818" points="1027.5,263.5293,1037.5,267.5293,1027.5,271.5293,1031.5,267.5293" style="stroke:#181818;stroke-width:1.0;"/><line style="stroke:#181818;stroke-width:1.0;" x1="904.5" x2="1033.5" y1="267.5293" y2="267.5293"/><text fill="#000000" font-family="sans-serif" font-size="13" font-weight="bold" lengthAdjust="spacing" textLength="9" x="911.5" y="262.7871">5</text><text fill="#000000" font-family="sans-serif" font-size="13" lengthAdjust="spacing" textLength="62" x="924.5" y="262.7871">getRoles()</text><polygon fill="#181818" points="1158.5,292.8398,1168.5,296.8398,1158.5,300.8398,1162.5,296.8398" style="stroke:#181818;stroke-width:1.0;"/><line style="stroke:#181818;stroke-width:1.0;" x1="1049.5" x2="1164.5" y1="296.8398" y2="296.8398"/><text fill="#000000" font-family="sans-serif" font-size="13" font-weight="bold" lengthAdjust="spacing" textLength="9" x="1056.5" y="292.0977">6</text><text fill="#000000" font-family="sans-serif" font-size="13" lengthAdjust="spacing" textLength="62" x="1069.5" y="292.0977">getRoles()</text><polygon fill="#181818" points="1060.5,322.1504,1050.5,326.1504,1060.5,330.1504,1056.5,326.1504" style="stroke:#181818;stroke-width:1.0;"/><line style="stroke:#181818;stroke-width:1.0;stroke-dasharray:2.0,2.0;" x1="1054.5" x2="1174.5" y1="326.1504" y2="326.1504"/><text fill="#000000" font-family="sans-serif" font-size="13" font-weight="bold" lengthAdjust="spacing" textLength="9" x="1066.5" y="321.4082">7</text><text fill="#000000" font-family="sans-serif" font-size="13" lengthAdjust="spacing" textLength="84" x="1079.5" y="321.4082">Lista de roles</text><polygon fill="#181818" points="915.5,351.4609,905.5,355.4609,915.5,359.4609,911.5,355.4609" style="stroke:#181818;stroke-width:1.0;"/><line style="stroke:#181818;stroke-width:1.0;stroke-dasharray:2.0,2.0;" x1="909.5" x2="1043.5" y1="355.4609" y2="355.4609"/><text fill="#000000" font-family="sans-serif" font-size="13" font-weight="bold" lengthAdjust="spacing" textLength="9" x="921.5" y="350.7188">8</text><text fill="#000000" font-family="sans-serif" font-size="13" lengthAdjust="spacing" textLength="84" x="934.5" y="350.7188">Lista de roles</text><polygon fill="#181818" points="254.5,380.7715,244.5,384.7715,254.5,388.7715,250.5,384.7715" style="stroke:#181818;stroke-width:1.0;"/><line style="stroke:#181818;stroke-width:1.0;stroke-dasharray:2.0,2.0;" x1="248.5" x2="898.5" y1="384.7715" y2="384.7715"/><text fill="#000000" font-family="sans-serif" font-size="13" font-weight="bold" lengthAdjust="spacing" textLength="9" x="260.5" y="380.0293">9</text><text fill="#000000" font-family="sans-serif" font-size="13" lengthAdjust="spacing" textLength="66" x="273.5" y="380.0293">user, roles</text><line style="stroke:#181818;stroke-width:1.0;" x1="243.5" x2="285.5" y1="414.082" y2="414.082"/><line style="stroke:#181818;stroke-width:1.0;" x1="285.5" x2="285.5" y1="414.082" y2="427.082"/><line style="stroke:#181818;stroke-width:1.0;" x1="244.5" x2="285.5" y1="427.082" y2="427.082"/><polygon fill="#181818" points="254.5,423.082,244.5,427.082,254.5,431.082,250.5,427.082" style="stroke:#181818;stroke-width:1.0;"/><text fill="#000000" font-family="sans-serif" font-size="13" font-weight="bold" lengthAdjust="spacing" textLength="18" x="250.5" y="409.3398">10</text><text fill="#000000" font-family="sans-serif" font-size="13" lengthAdjust="spacing" textLength="615" x="272.5" y="409.3398">ngIf(currentUser.role === this.roleGestorDeCampus.id || currentUser.role === this.roleAdmin.id)</text><line style="stroke:#181818;stroke-width:1.0;" x1="243.5" x2="285.5" y1="456.3926" y2="456.3926"/><line style="stroke:#181818;stroke-width:1.0;" x1="285.5" x2="285.5" y1="456.3926" y2="469.3926"/><line style="stroke:#181818;stroke-width:1.0;" x1="244.5" x2="285.5" y1="469.3926" y2="469.3926"/><polygon fill="#181818" points="254.5,465.3926,244.5,469.3926,254.5,473.3926,250.5,469.3926" style="stroke:#181818;stroke-width:1.0;"/><text fill="#000000" font-family="sans-serif" font-size="13" font-weight="bold" lengthAdjust="spacing" textLength="18" x="250.5" y="451.6504">11</text><text fill="#000000" font-family="sans-serif" font-size="13" lengthAdjust="spacing" textLength="596" x="272.5" y="451.6504">ngIf(currentUser.role === this.roleGestorDeFrota.id || currentUser.role === this.roleAdmin.id)</text><line style="stroke:#181818;stroke-width:1.0;" x1="243.5" x2="285.5" y1="498.7031" y2="498.7031"/><line style="stroke:#181818;stroke-width:1.0;" x1="285.5" x2="285.5" y1="498.7031" y2="511.7031"/><line style="stroke:#181818;stroke-width:1.0;" x1="244.5" x2="285.5" y1="511.7031" y2="511.7031"/><polygon fill="#181818" points="254.5,507.7031,244.5,511.7031,254.5,515.7031,250.5,511.7031" style="stroke:#181818;stroke-width:1.0;"/><text fill="#000000" font-family="sans-serif" font-size="13" font-weight="bold" lengthAdjust="spacing" textLength="18" x="250.5" y="493.9609">12</text><text fill="#000000" font-family="sans-serif" font-size="13" lengthAdjust="spacing" textLength="610" x="272.5" y="493.9609">ngIf(currentUser.role === this.roleGestorDeTarefas.id || currentUser.role === this.roleAdmin.id)</text><line style="stroke:#181818;stroke-width:1.0;" x1="243.5" x2="285.5" y1="546.0137" y2="546.0137"/><line style="stroke:#181818;stroke-width:1.0;" x1="285.5" x2="285.5" y1="546.0137" y2="559.0137"/><line style="stroke:#181818;stroke-width:1.0;" x1="238.5" x2="285.5" y1="559.0137" y2="559.0137"/><polygon fill="#181818" points="248.5,555.0137,238.5,559.0137,248.5,563.0137,244.5,559.0137" style="stroke:#181818;stroke-width:1.0;"/><text fill="#000000" font-family="sans-serif" font-size="13" font-weight="bold" lengthAdjust="spacing" textLength="18" x="250.5" y="541.2715">13</text><text fill="#000000" font-family="sans-serif" font-size="13" lengthAdjust="spacing" textLength="281" x="272.5" y="541.2715">ngIf(currentUser.role === this.roleAdmin.id)</text><polygon fill="#181818" points="41.5,594.6348,31.5,598.6348,41.5,602.6348,37.5,598.6348" style="stroke:#181818;stroke-width:1.0;"/><line style="stroke:#181818;stroke-width:1.0;stroke-dasharray:2.0,2.0;" x1="35.5" x2="237.5" y1="598.6348" y2="598.6348"/><text fill="#000000" font-family="sans-serif" font-size="13" font-weight="bold" lengthAdjust="spacing" textLength="18" x="47.5" y="586.2373">14</text><text fill="#000000" font-family="sans-serif" font-size="13" lengthAdjust="spacing" textLength="157" x="69.5" y="578.582">Menu com fun&#231;&#245;es a que</text><text fill="#000000" font-family="sans-serif" font-size="13" lengthAdjust="spacing" textLength="147" x="69.5" y="593.8926">o utilizador tem acesso</text><!--SRC=[rLNDQXin4BxhAGQVREY6XXOAYsq8Qr8CJGlTkYTVfjhPjSXgvEedfI5lqqCVeFG9_6ALGh9siPCifj3sjBFID_DzcXcDtANYDLhKe0qRkR964tWRIBXkPuto4Xig_TUMm9Bqo4sx2t0hhCmNnGtKs3eImYiVeOLXZuh9GacV0x4ac2biaiUmd8qWWqLvUlhgEGpVlXW9WS4R3leJsMXBRomC5fxOqq28UmkoAGp6u-9btWMVJfUSVrGkOAkkSVDzyyqCSZZ7QsXDenZOW5FEayOKLLsXfpuXH0zCKbCOlJOSnUN0pJkUi_B3qPQfsnQTbRnAibTAKWuD-I9O6vSNZkokvnr4t7qXsoM374B4Yuhsy8Tuu9RelMd9FKfnCBaNcnzLQ0rK1A_9-NZm9KTxphMn-ZuJXmcEZ2QELP7zTkGtiUoO76pIjPkhOtKzL8k7cGvKfMyBfm8_su-uxQYU7TgBZ9jvFPJRJZn9l32PJC2lbBlzIsanTaO5wdLm9wg2cnjutEMiqeeZSlItj9vRu_7_aFe1BTNuZ-TrI_m7RbCtrCTPra_X1N40QJJKWUFQJtA049-MPHpomQi4hUAx4OSze2Jdp1CozuR-Bm00]--></g></svg>