<?xml version="1.0" encoding="us-ascii" standalone="no"?><svg xmlns="http://www.w3.org/2000/svg" xmlns:xlink="http://www.w3.org/1999/xlink" contentStyleType="text/css" height="440px" preserveAspectRatio="none" style="width:638px;height:440px;background:#FFFFFF;" version="1.1" viewBox="0 0 638 440" width="638px" zoomAndPan="magnify"><defs/><g><text fill="#000000" font-family="sans-serif" font-size="14" font-weight="bold" lengthAdjust="spacing" textLength="357" x="139.75" y="28.5352">Container Sequence Diagram (SSD) - US1300 (N2)</text><rect fill="#FFFFFF" height="191.4844" style="stroke:#181818;stroke-width:1.0;" width="10" x="250.5" y="150.2871"/><rect fill="#FFFFFF" height="29.3105" style="stroke:#181818;stroke-width:1.0;" width="10" x="558.5" y="179.5977"/><line style="stroke:#181818;stroke-width:0.5;stroke-dasharray:5.0,5.0;" x1="30" x2="30" y1="118.9766" y2="359.7715"/><line style="stroke:#181818;stroke-width:0.5;stroke-dasharray:5.0,5.0;" x1="255" x2="255" y1="118.9766" y2="359.7715"/><line style="stroke:#181818;stroke-width:0.5;stroke-dasharray:5.0,5.0;" x1="563.5" x2="563.5" y1="118.9766" y2="359.7715"/><text fill="#000000" font-family="sans-serif" font-size="14" lengthAdjust="spacing" textLength="45" x="5" y="116.0234">Utente</text><ellipse cx="30.5" cy="50.9883" fill="#E3E3E3" rx="8" ry="8" style="stroke:#181818;stroke-width:0.5;"/><path d="M30.5,58.9883 L30.5,85.9883 M17.5,66.9883 L43.5,66.9883 M30.5,85.9883 L17.5,100.9883 M30.5,85.9883 L43.5,100.9883 " fill="none" style="stroke:#181818;stroke-width:0.5;"/><text fill="#000000" font-family="sans-serif" font-size="14" lengthAdjust="spacing" textLength="45" x="5" y="372.3066">Utente</text><ellipse cx="30.5" cy="383.7598" fill="#E3E3E3" rx="8" ry="8" style="stroke:#181818;stroke-width:0.5;"/><path d="M30.5,391.7598 L30.5,418.7598 M17.5,399.7598 L43.5,399.7598 M30.5,418.7598 L17.5,433.7598 M30.5,418.7598 L43.5,433.7598 " fill="none" style="stroke:#181818;stroke-width:0.5;"/><rect fill="#E3E3E3" height="46.9766" rx="2.5" ry="2.5" style="stroke:#181818;stroke-width:0.5;" width="119" x="196" y="71"/><text fill="#000000" font-family="sans-serif" font-size="14" lengthAdjust="spacing" textLength="105" x="203" y="91.5352">&#171;C4:Container&#187;</text><text fill="#000000" font-family="sans-serif" font-size="14" lengthAdjust="spacing" textLength="89" x="211" y="108.0234">:Visualiza&#231;&#227;o</text><rect fill="#E3E3E3" height="46.9766" rx="2.5" ry="2.5" style="stroke:#181818;stroke-width:0.5;" width="119" x="196" y="358.7715"/><text fill="#000000" font-family="sans-serif" font-size="14" lengthAdjust="spacing" textLength="105" x="203" y="379.3066">&#171;C4:Container&#187;</text><text fill="#000000" font-family="sans-serif" font-size="14" lengthAdjust="spacing" textLength="89" x="211" y="395.7949">:Visualiza&#231;&#227;o</text><rect fill="#E3E3E3" height="63.4648" rx="2.5" ry="2.5" style="stroke:#181818;stroke-width:0.5;" width="138" x="494.5" y="54.5117"/><text fill="#000000" font-family="sans-serif" font-size="14" lengthAdjust="spacing" textLength="105" x="511" y="75.0469">&#171;C4:Container&#187;</text><text fill="#000000" font-family="sans-serif" font-size="14" lengthAdjust="spacing" textLength="124" x="501.5" y="91.5352">M&#243;dulo de Gest&#227;o</text><text fill="#000000" font-family="sans-serif" font-size="14" lengthAdjust="spacing" textLength="99" x="514" y="108.0234">de Informa&#231;&#227;o</text><rect fill="#E3E3E3" height="63.4648" rx="2.5" ry="2.5" style="stroke:#181818;stroke-width:0.5;" width="138" x="494.5" y="358.7715"/><text fill="#000000" font-family="sans-serif" font-size="14" lengthAdjust="spacing" textLength="105" x="511" y="379.3066">&#171;C4:Container&#187;</text><text fill="#000000" font-family="sans-serif" font-size="14" lengthAdjust="spacing" textLength="124" x="501.5" y="395.7949">M&#243;dulo de Gest&#227;o</text><text fill="#000000" font-family="sans-serif" font-size="14" lengthAdjust="spacing" textLength="99" x="514" y="412.2832">de Informa&#231;&#227;o</text><rect fill="#FFFFFF" height="191.4844" style="stroke:#181818;stroke-width:1.0;" width="10" x="250.5" y="150.2871"/><rect fill="#FFFFFF" height="29.3105" style="stroke:#181818;stroke-width:1.0;" width="10" x="558.5" y="179.5977"/><polygon fill="#181818" points="238.5,146.2871,248.5,150.2871,238.5,154.2871,242.5,150.2871" style="stroke:#181818;stroke-width:1.0;"/><line style="stroke:#181818;stroke-width:1.0;" x1="30.5" x2="244.5" y1="150.2871" y2="150.2871"/><text fill="#000000" font-family="sans-serif" font-size="13" font-weight="bold" lengthAdjust="spacing" textLength="9" x="37.5" y="145.5449">1</text><text fill="#000000" font-family="sans-serif" font-size="13" lengthAdjust="spacing" textLength="130" x="50.5" y="145.5449">Faz login no sistema</text><polygon fill="#181818" points="546.5,175.5977,556.5,179.5977,546.5,183.5977,550.5,179.5977" style="stroke:#181818;stroke-width:1.0;"/><line style="stroke:#181818;stroke-width:1.0;stroke-dasharray:2.0,2.0;" x1="260.5" x2="552.5" y1="179.5977" y2="179.5977"/><text fill="#000000" font-family="sans-serif" font-size="13" font-weight="bold" lengthAdjust="spacing" textLength="9" x="267.5" y="174.8555">2</text><text fill="#000000" font-family="sans-serif" font-size="13" lengthAdjust="spacing" textLength="101" x="280.5" y="174.8555">GET /auth/roles</text><polygon fill="#181818" points="271.5,204.9082,261.5,208.9082,271.5,212.9082,267.5,208.9082" style="stroke:#181818;stroke-width:1.0;"/><line style="stroke:#181818;stroke-width:1.0;stroke-dasharray:2.0,2.0;" x1="265.5" x2="562.5" y1="208.9082" y2="208.9082"/><text fill="#000000" font-family="sans-serif" font-size="13" font-weight="bold" lengthAdjust="spacing" textLength="9" x="277.5" y="204.166">3</text><text fill="#000000" font-family="sans-serif" font-size="13" lengthAdjust="spacing" textLength="59" x="290.5" y="204.166">200 roles</text><line style="stroke:#181818;stroke-width:1.0;" x1="260.5" x2="302.5" y1="284.1504" y2="284.1504"/><line style="stroke:#181818;stroke-width:1.0;" x1="302.5" x2="302.5" y1="284.1504" y2="297.1504"/><line style="stroke:#181818;stroke-width:1.0;" x1="261.5" x2="302.5" y1="297.1504" y2="297.1504"/><polygon fill="#181818" points="271.5,293.1504,261.5,297.1504,271.5,301.1504,267.5,297.1504" style="stroke:#181818;stroke-width:1.0;"/><text fill="#000000" font-family="sans-serif" font-size="13" font-weight="bold" lengthAdjust="spacing" textLength="9" x="267.5" y="256.4424">4</text><text fill="#000000" font-family="sans-serif" font-size="13" lengthAdjust="spacing" textLength="201" x="280.5" y="233.4766">if (currentUser.role == "Admin")</text><text fill="#000000" font-family="sans-serif" font-size="13" lengthAdjust="spacing" textLength="252" x="280.5" y="248.7871">| (currentUser.role == "Gestor de Frota")</text><text fill="#000000" font-family="sans-serif" font-size="13" lengthAdjust="spacing" textLength="271" x="280.5" y="264.0977">| (currentUser.role == "Gestor de Campus")</text><text fill="#000000" font-family="sans-serif" font-size="13" lengthAdjust="spacing" textLength="20" x="280.5" y="279.4082">(...)</text><polygon fill="#181818" points="41.5,337.7715,31.5,341.7715,41.5,345.7715,37.5,341.7715" style="stroke:#181818;stroke-width:1.0;"/><line style="stroke:#181818;stroke-width:1.0;stroke-dasharray:2.0,2.0;" x1="35.5" x2="254.5" y1="341.7715" y2="341.7715"/><text fill="#000000" font-family="sans-serif" font-size="13" font-weight="bold" lengthAdjust="spacing" textLength="9" x="47.5" y="329.374">5</text><text fill="#000000" font-family="sans-serif" font-size="13" lengthAdjust="spacing" textLength="183" x="60.5" y="321.7188">Mostra menu com aplica&#231;&#245;es</text><text fill="#000000" font-family="sans-serif" font-size="13" lengthAdjust="spacing" textLength="183" x="60.5" y="337.0293">a que o utilizador tem direito</text><!--SRC=[jPDDJYCn48NtFaMfLycYGs1OHI4I2Z-Q1MoQiCgcfhlIiTAkojZbGI1kmu8384wGY-4Mce0KVbeZpQualth-glmSLfRNwD614vPowSKHg8zamlPaZUKAQohqjY7mL2fotRmNX2LMScEvXWKsWOnHgqaw5LQqJ1uA-Xs9Iu8JYtNRqIkAapxaC2lsVmo7qBiyw1k3KOMZ-qK-rQMAXsocn4gPCNyho2UGZSVJmz7MVJAPy-ZQXeYDlSFDu-P1iX6SuHqqKbi65WWsA3biNUqVLEfYOJfe8FyOvsBpLCL6e28ufw19EkTK_-I5UBT5F3-zWhqqz7BFIqFXIxekZkOV-pwROdUf1-cjNbah-X-qk_lj26ONq2kZzoaZiq1-q4B2qH5anvMpdFNdVF-9eELBIKjqPruKkqcdwDOnjDhUO33elwLpdEVTW2yag4Tmn15ASO3hnfRjwJE5EIEa_m82KMtRLALRKtwXifwioZVBtmdo2m00]--></g></svg>