<?xml version="1.0" encoding="us-ascii" standalone="no"?><svg xmlns="http://www.w3.org/2000/svg" xmlns:xlink="http://www.w3.org/1999/xlink" contentStyleType="text/css" height="581.4px" preserveAspectRatio="none" style="width:630px;height:581px;background:#FFFFFF;" version="1.1" viewBox="0 0 630 581" width="630.6px" zoomAndPan="magnify"><defs/><g><text fill="#000000" font-family="sans-serif" font-size="8.4" font-weight="bold" lengthAdjust="spacing" textLength="209.4" x="210" y="17.1211">Container Sequence Diagram (SD) - US1170 (N3)</text><rect fill="#FFFFFF" height="282.1676" style="stroke:#181818;stroke-width:0.6;" width="6" x="265.8" y="99.3586"/><rect fill="#FFFFFF" height="123.1043" style="stroke:#181818;stroke-width:0.6;" width="6" x="265.8" y="399.1125"/><rect fill="#FFFFFF" height="228.6223" style="stroke:#181818;stroke-width:0.6;" width="6" x="371.4" y="116.9449"/><rect fill="#FFFFFF" height="87.9316" style="stroke:#181818;stroke-width:0.6;" width="6" x="371.4" y="416.6988"/><rect fill="#FFFFFF" height="52.759" style="stroke:#181818;stroke-width:0.6;" width="6" x="477" y="134.5313"/><rect fill="#FFFFFF" height="52.759" style="stroke:#181818;stroke-width:0.6;" width="6" x="477" y="204.8766"/><rect fill="#FFFFFF" height="52.759" style="stroke:#181818;stroke-width:0.6;" width="6" x="477" y="275.2219"/><rect fill="#FFFFFF" height="52.759" style="stroke:#181818;stroke-width:0.6;" width="6" x="477" y="434.2852"/><rect fill="#FFFFFF" height="17.5863" style="stroke:#181818;stroke-width:0.6;" width="6" x="582.6" y="152.1176"/><rect fill="#FFFFFF" height="17.5863" style="stroke:#181818;stroke-width:0.6;" width="6" x="582.6" y="222.4629"/><rect fill="#FFFFFF" height="17.5863" style="stroke:#181818;stroke-width:0.6;" width="6" x="582.6" y="292.8082"/><rect fill="#FFFFFF" height="17.5863" style="stroke:#181818;stroke-width:0.6;" width="6" x="582.6" y="451.8715"/><line style="stroke:#181818;stroke-width:0.3;stroke-dasharray:5.0,5.0;" x1="42.6" x2="42.6" y1="71.3859" y2="533.0168"/><line style="stroke:#181818;stroke-width:0.3;stroke-dasharray:5.0,5.0;" x1="268.5" x2="268.5" y1="71.3859" y2="533.0168"/><line style="stroke:#181818;stroke-width:0.3;stroke-dasharray:5.0,5.0;" x1="374.1" x2="374.1" y1="71.3859" y2="533.0168"/><line style="stroke:#181818;stroke-width:0.3;stroke-dasharray:5.0,5.0;" x1="480" x2="480" y1="71.3859" y2="533.0168"/><line style="stroke:#181818;stroke-width:0.3;stroke-dasharray:5.0,5.0;" x1="585.6" x2="585.6" y1="71.3859" y2="533.0168"/><text fill="#000000" font-family="sans-serif" font-size="8.4" lengthAdjust="spacing" textLength="75.6" x="3" y="69.6141">Gestor de Campus</text><ellipse cx="42.6" cy="30.593" fill="#E3E3E3" rx="4.8" ry="4.8" style="stroke:#181818;stroke-width:0.3;"/><path d="M42.6,35.393 L42.6,51.593 M34.8,40.193 L50.4,40.193 M42.6,51.593 L34.8,60.593 M42.6,51.593 L50.4,60.593 " fill="none" style="stroke:#181818;stroke-width:0.3;"/><text fill="#000000" font-family="sans-serif" font-size="8.4" lengthAdjust="spacing" textLength="75.6" x="3" y="540.5379">Gestor de Campus</text><ellipse cx="42.6" cy="547.4098" fill="#E3E3E3" rx="4.8" ry="4.8" style="stroke:#181818;stroke-width:0.3;"/><path d="M42.6,552.2098 L42.6,568.4098 M34.8,557.0098 L50.4,557.0098 M42.6,568.4098 L34.8,577.4098 M42.6,568.4098 L50.4,577.4098 " fill="none" style="stroke:#181818;stroke-width:0.3;"/><rect fill="#E3E3E3" height="28.1859" rx="1.5" ry="1.5" style="stroke:#181818;stroke-width:0.3;" width="71.4" x="233.1" y="42.6"/><text fill="#000000" font-family="sans-serif" font-size="8.4" lengthAdjust="spacing" textLength="63" x="237.3" y="54.9211">&#171;C4:Container&#187;</text><text fill="#000000" font-family="sans-serif" font-size="8.4" lengthAdjust="spacing" textLength="53.4" x="242.1" y="64.8141">:Visualiza&#231;&#227;o</text><rect fill="#E3E3E3" height="28.1859" rx="1.5" ry="1.5" style="stroke:#181818;stroke-width:0.3;" width="71.4" x="233.1" y="532.4168"/><text fill="#000000" font-family="sans-serif" font-size="8.4" lengthAdjust="spacing" textLength="63" x="237.3" y="544.7379">&#171;C4:Container&#187;</text><text fill="#000000" font-family="sans-serif" font-size="8.4" lengthAdjust="spacing" textLength="53.4" x="242.1" y="554.6309">:Visualiza&#231;&#227;o</text><rect fill="#E3E3E3" height="18.293" rx="1.5" ry="1.5" style="stroke:#181818;stroke-width:0.3;" width="57" x="345.9" y="52.493"/><text fill="#000000" font-family="sans-serif" font-size="8.4" lengthAdjust="spacing" textLength="48.6" x="350.1" y="64.8141">Component</text><rect fill="#E3E3E3" height="18.293" rx="1.5" ry="1.5" style="stroke:#181818;stroke-width:0.3;" width="57" x="345.9" y="532.4168"/><text fill="#000000" font-family="sans-serif" font-size="8.4" lengthAdjust="spacing" textLength="48.6" x="350.1" y="544.7379">Component</text><rect fill="#E3E3E3" height="18.293" rx="1.5" ry="1.5" style="stroke:#181818;stroke-width:0.3;" width="37.2" x="461.4" y="52.493"/><text fill="#000000" font-family="sans-serif" font-size="8.4" lengthAdjust="spacing" textLength="28.8" x="465.6" y="64.8141">Service</text><rect fill="#E3E3E3" height="18.293" rx="1.5" ry="1.5" style="stroke:#181818;stroke-width:0.3;" width="37.2" x="461.4" y="532.4168"/><text fill="#000000" font-family="sans-serif" font-size="8.4" lengthAdjust="spacing" textLength="28.8" x="465.6" y="544.7379">Service</text><rect fill="#E3E3E3" height="38.0789" rx="1.5" ry="1.5" style="stroke:#181818;stroke-width:0.3;" width="82.8" x="544.2" y="32.707"/><text fill="#000000" font-family="sans-serif" font-size="8.4" lengthAdjust="spacing" textLength="63" x="554.1" y="45.0281">&#171;C4:Container&#187;</text><text fill="#000000" font-family="sans-serif" font-size="8.4" lengthAdjust="spacing" textLength="74.4" x="548.4" y="54.9211">M&#243;dulo de Gest&#227;o</text><text fill="#000000" font-family="sans-serif" font-size="8.4" lengthAdjust="spacing" textLength="59.4" x="555.9" y="64.8141">de Informa&#231;&#227;o</text><rect fill="#E3E3E3" height="38.0789" rx="1.5" ry="1.5" style="stroke:#181818;stroke-width:0.3;" width="82.8" x="544.2" y="532.4168"/><text fill="#000000" font-family="sans-serif" font-size="8.4" lengthAdjust="spacing" textLength="63" x="554.1" y="544.7379">&#171;C4:Container&#187;</text><text fill="#000000" font-family="sans-serif" font-size="8.4" lengthAdjust="spacing" textLength="74.4" x="548.4" y="554.6309">M&#243;dulo de Gest&#227;o</text><text fill="#000000" font-family="sans-serif" font-size="8.4" lengthAdjust="spacing" textLength="59.4" x="555.9" y="564.5238">de Informa&#231;&#227;o</text><rect fill="#FFFFFF" height="282.1676" style="stroke:#181818;stroke-width:0.6;" width="6" x="265.8" y="99.3586"/><rect fill="#FFFFFF" height="123.1043" style="stroke:#181818;stroke-width:0.6;" width="6" x="265.8" y="399.1125"/><rect fill="#FFFFFF" height="228.6223" style="stroke:#181818;stroke-width:0.6;" width="6" x="371.4" y="116.9449"/><rect fill="#FFFFFF" height="87.9316" style="stroke:#181818;stroke-width:0.6;" width="6" x="371.4" y="416.6988"/><rect fill="#FFFFFF" height="52.759" style="stroke:#181818;stroke-width:0.6;" width="6" x="477" y="134.5313"/><rect fill="#FFFFFF" height="52.759" style="stroke:#181818;stroke-width:0.6;" width="6" x="477" y="204.8766"/><rect fill="#FFFFFF" height="52.759" style="stroke:#181818;stroke-width:0.6;" width="6" x="477" y="275.2219"/><rect fill="#FFFFFF" height="52.759" style="stroke:#181818;stroke-width:0.6;" width="6" x="477" y="434.2852"/><rect fill="#FFFFFF" height="17.5863" style="stroke:#181818;stroke-width:0.6;" width="6" x="582.6" y="152.1176"/><rect fill="#FFFFFF" height="17.5863" style="stroke:#181818;stroke-width:0.6;" width="6" x="582.6" y="222.4629"/><rect fill="#FFFFFF" height="17.5863" style="stroke:#181818;stroke-width:0.6;" width="6" x="582.6" y="292.8082"/><rect fill="#FFFFFF" height="17.5863" style="stroke:#181818;stroke-width:0.6;" width="6" x="582.6" y="451.8715"/><polygon fill="#181818" points="258.6,96.9586,264.6,99.3586,258.6,101.7586,261,99.3586" style="stroke:#181818;stroke-width:0.6;"/><line style="stroke:#181818;stroke-width:0.6;" x1="42.6" x2="262.2" y1="99.3586" y2="99.3586"/><text fill="#000000" font-family="sans-serif" font-size="7.8" font-weight="bold" lengthAdjust="spacing" textLength="5.4" x="46.8" y="91.9201">1</text><text fill="#000000" font-family="sans-serif" font-size="7.8" lengthAdjust="spacing" textLength="149.4" x="54.6" y="87.327">Inicia opera&#231;&#227;o de criar passagem entre</text><text fill="#000000" font-family="sans-serif" font-size="7.8" lengthAdjust="spacing" textLength="51" x="54.6" y="96.5133">dois edif&#237;cios</text><polygon fill="#181818" points="364.2,114.5449,370.2,116.9449,364.2,119.3449,366.6,116.9449" style="stroke:#181818;stroke-width:0.6;"/><line style="stroke:#181818;stroke-width:0.6;" x1="271.8" x2="367.8" y1="116.9449" y2="116.9449"/><text fill="#000000" font-family="sans-serif" font-size="7.8" font-weight="bold" lengthAdjust="spacing" textLength="5.4" x="276" y="114.0996">2</text><text fill="#000000" font-family="sans-serif" font-size="7.8" lengthAdjust="spacing" textLength="2.4" x="283.8" y="114.0996">&#160;</text><polygon fill="#181818" points="469.8,132.1313,475.8,134.5313,469.8,136.9313,472.2,134.5313" style="stroke:#181818;stroke-width:0.6;"/><line style="stroke:#181818;stroke-width:0.6;" x1="377.4" x2="473.4" y1="134.5313" y2="134.5313"/><text fill="#000000" font-family="sans-serif" font-size="7.8" font-weight="bold" lengthAdjust="spacing" textLength="5.4" x="381.6" y="131.6859">3</text><text fill="#000000" font-family="sans-serif" font-size="7.8" lengthAdjust="spacing" textLength="51.6" x="389.4" y="131.6859">getBuildings()</text><polygon fill="#181818" points="575.4,149.7176,581.4,152.1176,575.4,154.5176,577.8,152.1176" style="stroke:#181818;stroke-width:0.6;"/><line style="stroke:#181818;stroke-width:0.6;" x1="483" x2="579" y1="152.1176" y2="152.1176"/><text fill="#000000" font-family="sans-serif" font-size="7.8" font-weight="bold" lengthAdjust="spacing" textLength="5.4" x="487.2" y="149.2723">4</text><text fill="#000000" font-family="sans-serif" font-size="7.8" lengthAdjust="spacing" textLength="51.6" x="495" y="149.2723">getBuildings()</text><polygon fill="#181818" points="489.6,167.3039,483.6,169.7039,489.6,172.1039,487.2,169.7039" style="stroke:#181818;stroke-width:0.6;"/><line style="stroke:#181818;stroke-width:0.6;stroke-dasharray:2.0,2.0;" x1="486" x2="585" y1="169.7039" y2="169.7039"/><text fill="#000000" font-family="sans-serif" font-size="7.8" font-weight="bold" lengthAdjust="spacing" textLength="5.4" x="493.2" y="166.8586">5</text><text fill="#000000" font-family="sans-serif" font-size="7.8" lengthAdjust="spacing" textLength="64.2" x="501" y="166.8586">Lista de edif&#237;cios</text><polygon fill="#181818" points="384,184.8902,378,187.2902,384,189.6902,381.6,187.2902" style="stroke:#181818;stroke-width:0.6;"/><line style="stroke:#181818;stroke-width:0.6;stroke-dasharray:2.0,2.0;" x1="380.4" x2="479.4" y1="187.2902" y2="187.2902"/><text fill="#000000" font-family="sans-serif" font-size="7.8" font-weight="bold" lengthAdjust="spacing" textLength="5.4" x="387.6" y="184.4449">6</text><text fill="#000000" font-family="sans-serif" font-size="7.8" lengthAdjust="spacing" textLength="64.2" x="395.4" y="184.4449">Lista de edif&#237;cios</text><polygon fill="#181818" points="469.8,202.4766,475.8,204.8766,469.8,207.2766,472.2,204.8766" style="stroke:#181818;stroke-width:0.6;"/><line style="stroke:#181818;stroke-width:0.6;" x1="377.4" x2="473.4" y1="204.8766" y2="204.8766"/><text fill="#000000" font-family="sans-serif" font-size="7.8" font-weight="bold" lengthAdjust="spacing" textLength="5.4" x="381.6" y="202.0313">7</text><text fill="#000000" font-family="sans-serif" font-size="7.8" lengthAdjust="spacing" textLength="40.2" x="389.4" y="202.0313">getFloors()</text><polygon fill="#181818" points="575.4,220.0629,581.4,222.4629,575.4,224.8629,577.8,222.4629" style="stroke:#181818;stroke-width:0.6;"/><line style="stroke:#181818;stroke-width:0.6;" x1="483" x2="579" y1="222.4629" y2="222.4629"/><text fill="#000000" font-family="sans-serif" font-size="7.8" font-weight="bold" lengthAdjust="spacing" textLength="5.4" x="487.2" y="219.6176">8</text><text fill="#000000" font-family="sans-serif" font-size="7.8" lengthAdjust="spacing" textLength="40.2" x="495" y="219.6176">getFloors()</text><polygon fill="#181818" points="489.6,237.6492,483.6,240.0492,489.6,242.4492,487.2,240.0492" style="stroke:#181818;stroke-width:0.6;"/><line style="stroke:#181818;stroke-width:0.6;stroke-dasharray:2.0,2.0;" x1="486" x2="585" y1="240.0492" y2="240.0492"/><text fill="#000000" font-family="sans-serif" font-size="7.8" font-weight="bold" lengthAdjust="spacing" textLength="5.4" x="493.2" y="237.2039">9</text><text fill="#000000" font-family="sans-serif" font-size="7.8" lengthAdjust="spacing" textLength="52.2" x="501" y="237.2039">Lista de pisos</text><polygon fill="#181818" points="384,255.2355,378,257.6355,384,260.0355,381.6,257.6355" style="stroke:#181818;stroke-width:0.6;"/><line style="stroke:#181818;stroke-width:0.6;stroke-dasharray:2.0,2.0;" x1="380.4" x2="479.4" y1="257.6355" y2="257.6355"/><text fill="#000000" font-family="sans-serif" font-size="7.8" font-weight="bold" lengthAdjust="spacing" textLength="10.8" x="387.6" y="254.7902">10</text><text fill="#000000" font-family="sans-serif" font-size="7.8" lengthAdjust="spacing" textLength="52.2" x="400.8" y="254.7902">Lista de pisos</text><polygon fill="#181818" points="469.8,272.8219,475.8,275.2219,469.8,277.6219,472.2,275.2219" style="stroke:#181818;stroke-width:0.6;"/><line style="stroke:#181818;stroke-width:0.6;" x1="377.4" x2="473.4" y1="275.2219" y2="275.2219"/><text fill="#000000" font-family="sans-serif" font-size="7.8" font-weight="bold" lengthAdjust="spacing" textLength="10.8" x="381.6" y="272.3766">11</text><text fill="#000000" font-family="sans-serif" font-size="7.8" lengthAdjust="spacing" textLength="64.2" x="394.8" y="272.3766">getConnections()</text><polygon fill="#181818" points="575.4,290.4082,581.4,292.8082,575.4,295.2082,577.8,292.8082" style="stroke:#181818;stroke-width:0.6;"/><line style="stroke:#181818;stroke-width:0.6;" x1="483" x2="579" y1="292.8082" y2="292.8082"/><text fill="#000000" font-family="sans-serif" font-size="7.8" font-weight="bold" lengthAdjust="spacing" textLength="10.8" x="487.2" y="289.9629">12</text><text fill="#000000" font-family="sans-serif" font-size="7.8" lengthAdjust="spacing" textLength="64.2" x="500.4" y="289.9629">getConnections()</text><polygon fill="#181818" points="489.6,307.9945,483.6,310.3945,489.6,312.7945,487.2,310.3945" style="stroke:#181818;stroke-width:0.6;"/><line style="stroke:#181818;stroke-width:0.6;stroke-dasharray:2.0,2.0;" x1="486" x2="585" y1="310.3945" y2="310.3945"/><text fill="#000000" font-family="sans-serif" font-size="7.8" font-weight="bold" lengthAdjust="spacing" textLength="10.8" x="493.2" y="307.5492">13</text><text fill="#000000" font-family="sans-serif" font-size="7.8" lengthAdjust="spacing" textLength="71.4" x="506.4" y="307.5492">Lista de passagens</text><polygon fill="#181818" points="384,325.5809,378,327.9809,384,330.3809,381.6,327.9809" style="stroke:#181818;stroke-width:0.6;"/><line style="stroke:#181818;stroke-width:0.6;stroke-dasharray:2.0,2.0;" x1="380.4" x2="479.4" y1="327.9809" y2="327.9809"/><text fill="#000000" font-family="sans-serif" font-size="7.8" font-weight="bold" lengthAdjust="spacing" textLength="10.8" x="387.6" y="325.1355">14</text><text fill="#000000" font-family="sans-serif" font-size="7.8" lengthAdjust="spacing" textLength="71.4" x="400.8" y="325.1355">Lista de passagens</text><polygon fill="#181818" points="278.4,343.1672,272.4,345.5672,278.4,347.9672,276,345.5672" style="stroke:#181818;stroke-width:0.6;"/><line style="stroke:#181818;stroke-width:0.6;stroke-dasharray:2.0,2.0;" x1="274.8" x2="373.8" y1="345.5672" y2="345.5672"/><text fill="#000000" font-family="sans-serif" font-size="7.8" font-weight="bold" lengthAdjust="spacing" textLength="10.8" x="282" y="342.7219">15</text><text fill="#000000" font-family="sans-serif" font-size="7.8" lengthAdjust="spacing" textLength="2.4" x="295.2" y="342.7219">&#160;</text><polygon fill="#181818" points="49.2,379.1262,43.2,381.5262,49.2,383.9262,46.8,381.5262" style="stroke:#181818;stroke-width:0.6;"/><line style="stroke:#181818;stroke-width:0.6;stroke-dasharray:2.0,2.0;" x1="45.6" x2="268.2" y1="381.5262" y2="381.5262"/><text fill="#000000" font-family="sans-serif" font-size="7.8" font-weight="bold" lengthAdjust="spacing" textLength="10.8" x="52.8" y="369.4945">16</text><text fill="#000000" font-family="sans-serif" font-size="7.8" lengthAdjust="spacing" textLength="156" x="66" y="360.3082">Solicita dados necess&#225;rios (connectionId,</text><text fill="#000000" font-family="sans-serif" font-size="7.8" lengthAdjust="spacing" textLength="195.6" x="66" y="369.4945">buildingfromId, buildingtoId, floorfromId, floortoId,</text><text fill="#000000" font-family="sans-serif" font-size="7.8" lengthAdjust="spacing" textLength="78" x="68.4" y="378.6809">locationX, locationY)</text><polygon fill="#181818" points="258.6,396.7125,264.6,399.1125,258.6,401.5125,261,399.1125" style="stroke:#181818;stroke-width:0.6;"/><line style="stroke:#181818;stroke-width:0.6;" x1="42.6" x2="262.2" y1="399.1125" y2="399.1125"/><text fill="#000000" font-family="sans-serif" font-size="7.8" font-weight="bold" lengthAdjust="spacing" textLength="10.8" x="46.8" y="396.2672">17</text><text fill="#000000" font-family="sans-serif" font-size="7.8" lengthAdjust="spacing" textLength="100.8" x="60" y="396.2672">Introduz dados solicitados</text><polygon fill="#181818" points="364.2,414.2988,370.2,416.6988,364.2,419.0988,366.6,416.6988" style="stroke:#181818;stroke-width:0.6;"/><line style="stroke:#181818;stroke-width:0.6;" x1="271.8" x2="367.8" y1="416.6988" y2="416.6988"/><text fill="#000000" font-family="sans-serif" font-size="7.8" font-weight="bold" lengthAdjust="spacing" textLength="10.8" x="276" y="413.8535">18</text><text fill="#000000" font-family="sans-serif" font-size="7.8" lengthAdjust="spacing" textLength="69.6" x="289.2" y="413.8535">create(connection)</text><polygon fill="#181818" points="469.8,431.8852,475.8,434.2852,469.8,436.6852,472.2,434.2852" style="stroke:#181818;stroke-width:0.6;"/><line style="stroke:#181818;stroke-width:0.6;" x1="377.4" x2="473.4" y1="434.2852" y2="434.2852"/><text fill="#000000" font-family="sans-serif" font-size="7.8" font-weight="bold" lengthAdjust="spacing" textLength="10.8" x="381.6" y="431.4398">19</text><text fill="#000000" font-family="sans-serif" font-size="7.8" lengthAdjust="spacing" textLength="69.6" x="394.8" y="431.4398">create(connection)</text><polygon fill="#181818" points="575.4,449.4715,581.4,451.8715,575.4,454.2715,577.8,451.8715" style="stroke:#181818;stroke-width:0.6;"/><line style="stroke:#181818;stroke-width:0.6;" x1="483" x2="579" y1="451.8715" y2="451.8715"/><text fill="#000000" font-family="sans-serif" font-size="7.8" font-weight="bold" lengthAdjust="spacing" textLength="10.8" x="487.2" y="449.0262">20</text><text fill="#000000" font-family="sans-serif" font-size="7.8" lengthAdjust="spacing" textLength="69.6" x="500.4" y="449.0262">create(connection)</text><polygon fill="#181818" points="489.6,467.0578,483.6,469.4578,489.6,471.8578,487.2,469.4578" style="stroke:#181818;stroke-width:0.6;"/><line style="stroke:#181818;stroke-width:0.6;stroke-dasharray:2.0,2.0;" x1="486" x2="585" y1="469.4578" y2="469.4578"/><text fill="#000000" font-family="sans-serif" font-size="7.8" font-weight="bold" lengthAdjust="spacing" textLength="10.8" x="493.2" y="466.6125">21</text><text fill="#000000" font-family="sans-serif" font-size="7.8" lengthAdjust="spacing" textLength="72" x="506.4" y="466.6125">201 OK connection</text><polygon fill="#181818" points="384,484.6441,378,487.0441,384,489.4441,381.6,487.0441" style="stroke:#181818;stroke-width:0.6;"/><line style="stroke:#181818;stroke-width:0.6;stroke-dasharray:2.0,2.0;" x1="380.4" x2="479.4" y1="487.0441" y2="487.0441"/><text fill="#000000" font-family="sans-serif" font-size="7.8" font-weight="bold" lengthAdjust="spacing" textLength="10.8" x="387.6" y="484.1988">22</text><text fill="#000000" font-family="sans-serif" font-size="7.8" lengthAdjust="spacing" textLength="72" x="400.8" y="484.1988">201 OK connection</text><polygon fill="#181818" points="278.4,502.2305,272.4,504.6305,278.4,507.0305,276,504.6305" style="stroke:#181818;stroke-width:0.6;"/><line style="stroke:#181818;stroke-width:0.6;stroke-dasharray:2.0,2.0;" x1="274.8" x2="373.8" y1="504.6305" y2="504.6305"/><text fill="#000000" font-family="sans-serif" font-size="7.8" font-weight="bold" lengthAdjust="spacing" textLength="10.8" x="282" y="501.7852">23</text><text fill="#000000" font-family="sans-serif" font-size="7.8" lengthAdjust="spacing" textLength="72" x="295.2" y="501.7852">201 OK connection</text><polygon fill="#181818" points="49.2,519.8168,43.2,522.2168,49.2,524.6168,46.8,522.2168" style="stroke:#181818;stroke-width:0.6;"/><line style="stroke:#181818;stroke-width:0.6;stroke-dasharray:2.0,2.0;" x1="45.6" x2="268.2" y1="522.2168" y2="522.2168"/><text fill="#000000" font-family="sans-serif" font-size="7.8" font-weight="bold" lengthAdjust="spacing" textLength="10.8" x="52.8" y="519.3715">24</text><text fill="#000000" font-family="sans-serif" font-size="7.8" lengthAdjust="spacing" textLength="84.6" x="66" y="519.3715">Mensagem de sucesso</text><!--SRC=[pLRDRjim3BxhAOYS4g01cct002F8OIbM55ktWx5X0t9HPIOLQekU97TOtsROOQUTzWXviLBviGquWRqsMNkoH9FyI7ucQNUZJIwjp20ZG-hQKeRWRO72bMzogMxa0cF_8qMmgBmqYxIkuAvbGj-rMS1SfWw5yDgpwfICbzgWXHY_5MWKmfcMYs3HZyy6C8HFyMZq-XJw7ruEX9259rDaLsZvh3nPw9sZ2y-4VSaiBrnFYAOCXXFeZSVJLr49E9dCJFHPkqAc-aukVoz_KI-22wELba0vshKiE55MIyifEiSfPe36MvoPXBG3JFHy-KTfSY4UVIizTW4I7NH2p5FASZ8C65NkIvaeJq4rHdkh5KQmGF-cq6d2jNRzGMMtKH2RvvwIN2x_9aMwIZjKaGFXJ97hCYURRIFR3_90Z-AXaGohp3cgzzfv6Gngj2JuwE3AYjKPQOVR5dmNJUiIlas9x559QY8y4uPoxVuJEGsaTbuu2iCpJ9FPISx1sDc3yuGKrUksddVcU2orWUqWgjiShpkfncMteHiG6liZWfXItWmXMDvZ3fWsT6xvqtBFGr-LF5ua9pDpjPcCSzwKB83jtLEupKDBRb-jBYlvp41AIWOdNqxAuzT1I_KRgJzk-tbBIN6tIT9jSawElTsu6vH5zbwhvA3hncinFkX4tG7qJDhsnUa8Fhw3AZ9nnBPjWXsYQw75SVKP722p7Lqo7WwxjSabpwdLdo0Rko8C0lhNBhq7]--></g></svg>