<?xml version="1.0" encoding="us-ascii" standalone="no"?><svg xmlns="http://www.w3.org/2000/svg" xmlns:xlink="http://www.w3.org/1999/xlink" contentStyleType="text/css" height="1000px" preserveAspectRatio="none" style="width:2470px;height:1000px;background:#FFFFFF;" version="1.1" viewBox="0 0 2470 1000" width="2470px" zoomAndPan="magnify"><defs/><g><text fill="#000000" font-family="sans-serif" font-size="14" font-weight="bold" lengthAdjust="spacing" textLength="340" x="1064" y="28.5352">Container Sequence Diagram (SD) - US310 (N3)</text><rect fill="#FFFFFF" height="44.6211" style="stroke:#181818;stroke-width:1.0;" width="10" x="493" y="150.2871"/><rect fill="#FFFFFF" height="677.498" style="stroke:#181818;stroke-width:1.0;" width="10" x="493" y="224.2188"/><rect fill="#FFFFFF" height="603.5664" style="stroke:#181818;stroke-width:1.0;" width="10" x="901" y="268.8398"/><rect fill="#FFFFFF" height="529.6348" style="stroke:#181818;stroke-width:1.0;" width="10" x="1309" y="313.4609"/><rect fill="#FFFFFF" height="471.0137" style="stroke:#181818;stroke-width:1.0;" width="10" x="1717" y="342.7715"/><rect fill="#FFFFFF" height="412.3926" style="stroke:#181818;stroke-width:1.0;" width="10" x="2166" y="372.082"/><rect fill="#FFFFFF" height="236.4844" style="stroke:#181818;stroke-width:1.0;" width="10" x="2348" y="401.3926"/><rect fill="#FFFFFF" height="30" style="stroke:#181818;stroke-width:1.0;" width="10" x="2348" y="725.1641"/><rect fill="none" height="193.1738" style="stroke:#000000;stroke-width:1.5;" width="2396" x="10" y="416.3926"/><line style="stroke:#181818;stroke-width:0.5;stroke-dasharray:5.0,5.0;" x1="86" x2="86" y1="118.9766" y2="919.7168"/><line style="stroke:#181818;stroke-width:0.5;stroke-dasharray:5.0,5.0;" x1="497.5" x2="497.5" y1="118.9766" y2="919.7168"/><line style="stroke:#181818;stroke-width:0.5;stroke-dasharray:5.0,5.0;" x1="906" x2="906" y1="118.9766" y2="919.7168"/><line style="stroke:#181818;stroke-width:0.5;stroke-dasharray:5.0,5.0;" x1="1313.5" x2="1313.5" y1="118.9766" y2="919.7168"/><line style="stroke:#181818;stroke-width:0.5;stroke-dasharray:5.0,5.0;" x1="1721.5" x2="1721.5" y1="118.9766" y2="919.7168"/><line style="stroke:#181818;stroke-width:0.5;stroke-dasharray:5.0,5.0;" x1="2170.5" x2="2170.5" y1="118.9766" y2="919.7168"/><line style="stroke:#181818;stroke-width:0.5;stroke-dasharray:5.0,5.0;" x1="2353" x2="2353" y1="118.9766" y2="919.7168"/><line style="stroke:#181818;stroke-width:0.5;stroke-dasharray:5.0,5.0;" x1="2435" x2="2435" y1="684.8652" y2="919.7168"/><text fill="#000000" font-family="sans-serif" font-size="14" lengthAdjust="spacing" textLength="126" x="20" y="116.0234">Gestor de Campus</text><ellipse cx="86" cy="50.9883" fill="#E3E3E3" rx="8" ry="8" style="stroke:#181818;stroke-width:0.5;"/><path d="M86,58.9883 L86,85.9883 M73,66.9883 L99,66.9883 M86,85.9883 L73,100.9883 M86,85.9883 L99,100.9883 " fill="none" style="stroke:#181818;stroke-width:0.5;"/><text fill="#000000" font-family="sans-serif" font-size="14" lengthAdjust="spacing" textLength="126" x="20" y="932.252">Gestor de Campus</text><ellipse cx="86" cy="943.7051" fill="#E3E3E3" rx="8" ry="8" style="stroke:#181818;stroke-width:0.5;"/><path d="M86,951.7051 L86,978.7051 M73,959.7051 L99,959.7051 M86,978.7051 L73,993.7051 M86,978.7051 L99,993.7051 " fill="none" style="stroke:#181818;stroke-width:0.5;"/><rect fill="#E3E3E3" height="46.9766" rx="2.5" ry="2.5" style="stroke:#181818;stroke-width:0.5;" width="119" x="438.5" y="71"/><text fill="#000000" font-family="sans-serif" font-size="14" lengthAdjust="spacing" textLength="105" x="445.5" y="91.5352">&#171;C4:Container&#187;</text><text fill="#000000" font-family="sans-serif" font-size="14" lengthAdjust="spacing" textLength="89" x="453.5" y="108.0234">:Visualiza&#231;&#227;o</text><rect fill="#E3E3E3" height="46.9766" rx="2.5" ry="2.5" style="stroke:#181818;stroke-width:0.5;" width="119" x="438.5" y="918.7168"/><text fill="#000000" font-family="sans-serif" font-size="14" lengthAdjust="spacing" textLength="105" x="445.5" y="939.252">&#171;C4:Container&#187;</text><text fill="#000000" font-family="sans-serif" font-size="14" lengthAdjust="spacing" textLength="89" x="453.5" y="955.7402">:Visualiza&#231;&#227;o</text><rect fill="#E3E3E3" height="63.4648" rx="2.5" ry="2.5" style="stroke:#181818;stroke-width:0.5;" width="138" x="837" y="54.5117"/><text fill="#000000" font-family="sans-serif" font-size="14" lengthAdjust="spacing" textLength="105" x="853.5" y="75.0469">&#171;C4:Container&#187;</text><text fill="#000000" font-family="sans-serif" font-size="14" lengthAdjust="spacing" textLength="124" x="844" y="91.5352">M&#243;dulo de Gest&#227;o</text><text fill="#000000" font-family="sans-serif" font-size="14" lengthAdjust="spacing" textLength="99" x="856.5" y="108.0234">de Informa&#231;&#227;o</text><rect fill="#E3E3E3" height="63.4648" rx="2.5" ry="2.5" style="stroke:#181818;stroke-width:0.5;" width="138" x="837" y="918.7168"/><text fill="#000000" font-family="sans-serif" font-size="14" lengthAdjust="spacing" textLength="105" x="853.5" y="939.252">&#171;C4:Container&#187;</text><text fill="#000000" font-family="sans-serif" font-size="14" lengthAdjust="spacing" textLength="124" x="844" y="955.7402">M&#243;dulo de Gest&#227;o</text><text fill="#000000" font-family="sans-serif" font-size="14" lengthAdjust="spacing" textLength="99" x="856.5" y="972.2285">de Informa&#231;&#227;o</text><rect fill="#E3E3E3" height="30.4883" rx="2.5" ry="2.5" style="stroke:#181818;stroke-width:0.5;" width="91" x="1268.5" y="87.4883"/><text fill="#000000" font-family="sans-serif" font-size="14" lengthAdjust="spacing" textLength="77" x="1275.5" y="108.0234">roomRoute</text><rect fill="#E3E3E3" height="30.4883" rx="2.5" ry="2.5" style="stroke:#181818;stroke-width:0.5;" width="91" x="1268.5" y="918.7168"/><text fill="#000000" font-family="sans-serif" font-size="14" lengthAdjust="spacing" textLength="77" x="1275.5" y="939.252">roomRoute</text><rect fill="#E3E3E3" height="30.4883" rx="2.5" ry="2.5" style="stroke:#181818;stroke-width:0.5;" width="121" x="1661.5" y="87.4883"/><text fill="#000000" font-family="sans-serif" font-size="14" lengthAdjust="spacing" textLength="107" x="1668.5" y="108.0234">roomController</text><rect fill="#E3E3E3" height="30.4883" rx="2.5" ry="2.5" style="stroke:#181818;stroke-width:0.5;" width="121" x="1661.5" y="918.7168"/><text fill="#000000" font-family="sans-serif" font-size="14" lengthAdjust="spacing" textLength="107" x="1668.5" y="939.252">roomController</text><rect fill="#E3E3E3" height="30.4883" rx="2.5" ry="2.5" style="stroke:#181818;stroke-width:0.5;" width="99" x="2121.5" y="87.4883"/><text fill="#000000" font-family="sans-serif" font-size="14" lengthAdjust="spacing" textLength="85" x="2128.5" y="108.0234">roomService</text><rect fill="#E3E3E3" height="30.4883" rx="2.5" ry="2.5" style="stroke:#181818;stroke-width:0.5;" width="99" x="2121.5" y="918.7168"/><text fill="#000000" font-family="sans-serif" font-size="14" lengthAdjust="spacing" textLength="85" x="2128.5" y="939.252">roomService</text><rect fill="#E3E3E3" height="30.4883" rx="2.5" ry="2.5" style="stroke:#181818;stroke-width:0.5;" width="86" x="2310" y="87.4883"/><text fill="#000000" font-family="sans-serif" font-size="14" lengthAdjust="spacing" textLength="72" x="2317" y="108.0234">roomRepo</text><rect fill="#E3E3E3" height="30.4883" rx="2.5" ry="2.5" style="stroke:#181818;stroke-width:0.5;" width="86" x="2310" y="918.7168"/><text fill="#000000" font-family="sans-serif" font-size="14" lengthAdjust="spacing" textLength="72" x="2317" y="939.252">roomRepo</text><rect fill="#E3E3E3" height="46.9766" rx="2.5" ry="2.5" style="stroke:#181818;stroke-width:0.5;" width="58" x="2406" y="918.7168"/><text fill="#000000" font-family="sans-serif" font-size="14" lengthAdjust="spacing" textLength="37" x="2416.5" y="939.252">room</text><text fill="#000000" font-family="sans-serif" font-size="14" lengthAdjust="spacing" textLength="44" x="2413" y="955.7402">:Room</text><rect fill="#FFFFFF" height="44.6211" style="stroke:#181818;stroke-width:1.0;" width="10" x="493" y="150.2871"/><rect fill="#FFFFFF" height="677.498" style="stroke:#181818;stroke-width:1.0;" width="10" x="493" y="224.2188"/><rect fill="#FFFFFF" height="603.5664" style="stroke:#181818;stroke-width:1.0;" width="10" x="901" y="268.8398"/><rect fill="#FFFFFF" height="529.6348" style="stroke:#181818;stroke-width:1.0;" width="10" x="1309" y="313.4609"/><rect fill="#FFFFFF" height="471.0137" style="stroke:#181818;stroke-width:1.0;" width="10" x="1717" y="342.7715"/><rect fill="#FFFFFF" height="412.3926" style="stroke:#181818;stroke-width:1.0;" width="10" x="2166" y="372.082"/><rect fill="#FFFFFF" height="236.4844" style="stroke:#181818;stroke-width:1.0;" width="10" x="2348" y="401.3926"/><rect fill="#FFFFFF" height="30" style="stroke:#181818;stroke-width:1.0;" width="10" x="2348" y="725.1641"/><polygon fill="#181818" points="481,146.2871,491,150.2871,481,154.2871,485,150.2871" style="stroke:#181818;stroke-width:1.0;"/><line style="stroke:#181818;stroke-width:1.0;" x1="86" x2="487" y1="150.2871" y2="150.2871"/><text fill="#000000" font-family="sans-serif" font-size="13" font-weight="bold" lengthAdjust="spacing" textLength="9" x="93" y="145.5449">1</text><text fill="#000000" font-family="sans-serif" font-size="13" lengthAdjust="spacing" textLength="225" x="106" y="145.5449">Inicia opera&#231;&#227;o de criar sala de piso</text><polygon fill="#181818" points="97,190.9082,87,194.9082,97,198.9082,93,194.9082" style="stroke:#181818;stroke-width:1.0;"/><line style="stroke:#181818;stroke-width:1.0;stroke-dasharray:2.0,2.0;" x1="91" x2="497" y1="194.9082" y2="194.9082"/><text fill="#000000" font-family="sans-serif" font-size="13" font-weight="bold" lengthAdjust="spacing" textLength="9" x="103" y="182.5107">2</text><text fill="#000000" font-family="sans-serif" font-size="13" lengthAdjust="spacing" textLength="350" x="116" y="174.8555">Solicita dados necess&#225;rios (floorId, roomId, roomName,</text><text fill="#000000" font-family="sans-serif" font-size="13" lengthAdjust="spacing" textLength="334" x="116" y="190.166">roomDescription, roomCategory, door{doorX, doorY))</text><polygon fill="#181818" points="481,220.2188,491,224.2188,481,228.2188,485,224.2188" style="stroke:#181818;stroke-width:1.0;"/><line style="stroke:#181818;stroke-width:1.0;" x1="86" x2="487" y1="224.2188" y2="224.2188"/><text fill="#000000" font-family="sans-serif" font-size="13" font-weight="bold" lengthAdjust="spacing" textLength="9" x="93" y="219.4766">3</text><text fill="#000000" font-family="sans-serif" font-size="13" lengthAdjust="spacing" textLength="168" x="106" y="219.4766">Introduz dados solicitados</text><polygon fill="#181818" points="889,264.8398,899,268.8398,889,272.8398,893,268.8398" style="stroke:#181818;stroke-width:1.0;"/><line style="stroke:#181818;stroke-width:1.0;" x1="503" x2="895" y1="268.8398" y2="268.8398"/><text fill="#000000" font-family="sans-serif" font-size="13" font-weight="bold" lengthAdjust="spacing" textLength="9" x="510" y="256.4424">4</text><text fill="#000000" font-family="sans-serif" font-size="13" lengthAdjust="spacing" textLength="274" x="523" y="248.7871">POST /rooms/ {floorId, roomId, roomName,</text><text fill="#000000" font-family="sans-serif" font-size="13" lengthAdjust="spacing" textLength="334" x="523" y="264.0977">roomDescription, roomCategory, door{doorX, doorY)}</text><polygon fill="#181818" points="1297,309.4609,1307,313.4609,1297,317.4609,1301,313.4609" style="stroke:#181818;stroke-width:1.0;"/><line style="stroke:#181818;stroke-width:1.0;" x1="911" x2="1303" y1="313.4609" y2="313.4609"/><text fill="#000000" font-family="sans-serif" font-size="13" font-weight="bold" lengthAdjust="spacing" textLength="9" x="918" y="301.0635">5</text><text fill="#000000" font-family="sans-serif" font-size="13" lengthAdjust="spacing" textLength="274" x="931" y="293.4082">POST /rooms/ {floorId, roomId, roomName,</text><text fill="#000000" font-family="sans-serif" font-size="13" lengthAdjust="spacing" textLength="334" x="931" y="308.7188">roomDescription, roomCategory, door{doorX, doorY)}</text><polygon fill="#181818" points="1705,338.7715,1715,342.7715,1705,346.7715,1709,342.7715" style="stroke:#181818;stroke-width:1.0;"/><line style="stroke:#181818;stroke-width:1.0;" x1="1319" x2="1711" y1="342.7715" y2="342.7715"/><text fill="#000000" font-family="sans-serif" font-size="13" font-weight="bold" lengthAdjust="spacing" textLength="9" x="1326" y="338.0293">6</text><text fill="#000000" font-family="sans-serif" font-size="13" lengthAdjust="spacing" textLength="129" x="1339" y="338.0293">createRoom(req, res)</text><polygon fill="#181818" points="2154,368.082,2164,372.082,2154,376.082,2158,372.082" style="stroke:#181818;stroke-width:1.0;"/><line style="stroke:#181818;stroke-width:1.0;" x1="1727" x2="2160" y1="372.082" y2="372.082"/><text fill="#000000" font-family="sans-serif" font-size="13" font-weight="bold" lengthAdjust="spacing" textLength="9" x="1734" y="367.3398">7</text><text fill="#000000" font-family="sans-serif" font-size="13" lengthAdjust="spacing" textLength="129" x="1747" y="367.3398">createRoom(req, res)</text><polygon fill="#181818" points="2336,397.3926,2346,401.3926,2336,405.3926,2340,401.3926" style="stroke:#181818;stroke-width:1.0;"/><line style="stroke:#181818;stroke-width:1.0;" x1="2176" x2="2342" y1="401.3926" y2="401.3926"/><text fill="#000000" font-family="sans-serif" font-size="13" font-weight="bold" lengthAdjust="spacing" textLength="9" x="2183" y="396.6504">8</text><text fill="#000000" font-family="sans-serif" font-size="13" lengthAdjust="spacing" textLength="140" x="2196" y="396.6504">findByRoomId(roomId)</text><path d="M10,416.3926 L72,416.3926 L72,423.7031 L62,433.7031 L10,433.7031 L10,416.3926 " fill="#EEEEEE" style="stroke:#000000;stroke-width:1.5;"/><rect fill="none" height="193.1738" style="stroke:#000000;stroke-width:1.5;" width="2396" x="10" y="416.3926"/><text fill="#000000" font-family="sans-serif" font-size="13" font-weight="bold" lengthAdjust="spacing" textLength="17" x="25" y="429.9609">alt</text><text fill="#000000" font-family="sans-serif" font-size="11" font-weight="bold" lengthAdjust="spacing" textLength="80" x="87" y="429.0273">[room != null]</text><polygon fill="#181818" points="2187,451.0137,2177,455.0137,2187,459.0137,2183,455.0137" style="stroke:#181818;stroke-width:1.0;"/><line style="stroke:#181818;stroke-width:1.0;stroke-dasharray:2.0,2.0;" x1="2181" x2="2347" y1="455.0137" y2="455.0137"/><text fill="#000000" font-family="sans-serif" font-size="13" font-weight="bold" lengthAdjust="spacing" textLength="9" x="2193" y="450.2715">9</text><text fill="#000000" font-family="sans-serif" font-size="13" lengthAdjust="spacing" textLength="33" x="2206" y="450.2715">room</text><polygon fill="#181818" points="1738,480.3242,1728,484.3242,1738,488.3242,1734,484.3242" style="stroke:#181818;stroke-width:1.0;"/><line style="stroke:#181818;stroke-width:1.0;" x1="1732" x2="2165" y1="484.3242" y2="484.3242"/><text fill="#000000" font-family="sans-serif" font-size="13" font-weight="bold" lengthAdjust="spacing" textLength="18" x="1744" y="479.582">10</text><text fill="#000000" font-family="sans-serif" font-size="13" lengthAdjust="spacing" textLength="352" x="1766" y="479.582">res.status(400).send({ message: "Room already exists" })</text><polygon fill="#181818" points="1330,509.6348,1320,513.6348,1330,517.6348,1326,513.6348" style="stroke:#181818;stroke-width:1.0;"/><line style="stroke:#181818;stroke-width:1.0;stroke-dasharray:2.0,2.0;" x1="1324" x2="1716" y1="513.6348" y2="513.6348"/><text fill="#000000" font-family="sans-serif" font-size="13" font-weight="bold" lengthAdjust="spacing" textLength="18" x="1336" y="508.8926">11</text><text fill="#000000" font-family="sans-serif" font-size="13" lengthAdjust="spacing" textLength="352" x="1358" y="508.8926">res.status(400).send({ message: "Room already exists" })</text><polygon fill="#181818" points="922,538.9453,912,542.9453,922,546.9453,918,542.9453" style="stroke:#181818;stroke-width:1.0;"/><line style="stroke:#181818;stroke-width:1.0;stroke-dasharray:2.0,2.0;" x1="916" x2="1308" y1="542.9453" y2="542.9453"/><text fill="#000000" font-family="sans-serif" font-size="13" font-weight="bold" lengthAdjust="spacing" textLength="18" x="928" y="538.2031">12</text><text fill="#000000" font-family="sans-serif" font-size="13" lengthAdjust="spacing" textLength="352" x="950" y="538.2031">res.status(400).send({ message: "Room already exists" })</text><polygon fill="#181818" points="514,568.2559,504,572.2559,514,576.2559,510,572.2559" style="stroke:#181818;stroke-width:1.0;"/><line style="stroke:#181818;stroke-width:1.0;stroke-dasharray:2.0,2.0;" x1="508" x2="900" y1="572.2559" y2="572.2559"/><text fill="#000000" font-family="sans-serif" font-size="13" font-weight="bold" lengthAdjust="spacing" textLength="18" x="520" y="567.5137">13</text><text fill="#000000" font-family="sans-serif" font-size="13" lengthAdjust="spacing" textLength="352" x="542" y="567.5137">res.status(400).send({ message: "Room already exists" })</text><polygon fill="#181818" points="97,597.5664,87,601.5664,97,605.5664,93,601.5664" style="stroke:#181818;stroke-width:1.0;"/><line style="stroke:#181818;stroke-width:1.0;stroke-dasharray:2.0,2.0;" x1="91" x2="492" y1="601.5664" y2="601.5664"/><text fill="#000000" font-family="sans-serif" font-size="13" font-weight="bold" lengthAdjust="spacing" textLength="18" x="103" y="596.8242">14</text><text fill="#000000" font-family="sans-serif" font-size="13" lengthAdjust="spacing" textLength="163" x="125" y="596.8242">Mostra mensagem de erro</text><polygon fill="#181818" points="2187,633.877,2177,637.877,2187,641.877,2183,637.877" style="stroke:#181818;stroke-width:1.0;"/><line style="stroke:#181818;stroke-width:1.0;stroke-dasharray:2.0,2.0;" x1="2181" x2="2352" y1="637.877" y2="637.877"/><text fill="#000000" font-family="sans-serif" font-size="13" font-weight="bold" lengthAdjust="spacing" textLength="18" x="2193" y="633.1348">15</text><text fill="#000000" font-family="sans-serif" font-size="13" lengthAdjust="spacing" textLength="24" x="2215" y="633.1348">null</text><polygon fill="#181818" points="2394,663.1875,2404,667.1875,2394,671.1875,2398,667.1875" style="stroke:#181818;stroke-width:1.0;"/><line style="stroke:#181818;stroke-width:1.0;" x1="2176" x2="2400" y1="667.1875" y2="667.1875"/><text fill="#000000" font-family="sans-serif" font-size="13" font-weight="bold" lengthAdjust="spacing" textLength="18" x="2183" y="662.4453">16</text><text fill="#000000" font-family="sans-serif" font-size="13" lengthAdjust="spacing" textLength="101" x="2205" y="662.4453">create(req.body)</text><rect fill="#E3E3E3" height="46.9766" rx="2.5" ry="2.5" style="stroke:#181818;stroke-width:0.5;" width="58" x="2406" y="645.877"/><text fill="#000000" font-family="sans-serif" font-size="14" lengthAdjust="spacing" textLength="37" x="2416.5" y="666.4121">room</text><text fill="#000000" font-family="sans-serif" font-size="14" lengthAdjust="spacing" textLength="44" x="2413" y="682.9004">:Room</text><polygon fill="#181818" points="2336,721.1641,2346,725.1641,2336,729.1641,2340,725.1641" style="stroke:#181818;stroke-width:1.0;"/><line style="stroke:#181818;stroke-width:1.0;" x1="2176" x2="2342" y1="725.1641" y2="725.1641"/><text fill="#000000" font-family="sans-serif" font-size="13" font-weight="bold" lengthAdjust="spacing" textLength="18" x="2183" y="720.4219">17</text><text fill="#000000" font-family="sans-serif" font-size="13" lengthAdjust="spacing" textLength="69" x="2205" y="720.4219">save(room)</text><polygon fill="#181818" points="1738,780.4746,1728,784.4746,1738,788.4746,1734,784.4746" style="stroke:#181818;stroke-width:1.0;"/><line style="stroke:#181818;stroke-width:1.0;stroke-dasharray:2.0,2.0;" x1="1732" x2="2170" y1="784.4746" y2="784.4746"/><text fill="#000000" font-family="sans-serif" font-size="13" font-weight="bold" lengthAdjust="spacing" textLength="18" x="1744" y="779.7324">18</text><text fill="#000000" font-family="sans-serif" font-size="13" lengthAdjust="spacing" textLength="393" x="1766" y="779.7324">res.status(201).send({ message: "Room created successfully" })</text><polygon fill="#181818" points="1330,809.7852,1320,813.7852,1330,817.7852,1326,813.7852" style="stroke:#181818;stroke-width:1.0;"/><line style="stroke:#181818;stroke-width:1.0;stroke-dasharray:2.0,2.0;" x1="1324" x2="1721" y1="813.7852" y2="813.7852"/><text fill="#000000" font-family="sans-serif" font-size="13" font-weight="bold" lengthAdjust="spacing" textLength="18" x="1336" y="809.043">19</text><text fill="#000000" font-family="sans-serif" font-size="13" lengthAdjust="spacing" textLength="83" x="1358" y="809.043">201 OK room</text><polygon fill="#181818" points="922,839.0957,912,843.0957,922,847.0957,918,843.0957" style="stroke:#181818;stroke-width:1.0;"/><line style="stroke:#181818;stroke-width:1.0;stroke-dasharray:2.0,2.0;" x1="916" x2="1313" y1="843.0957" y2="843.0957"/><text fill="#000000" font-family="sans-serif" font-size="13" font-weight="bold" lengthAdjust="spacing" textLength="18" x="928" y="838.3535">20</text><text fill="#000000" font-family="sans-serif" font-size="13" lengthAdjust="spacing" textLength="83" x="950" y="838.3535">201 OK room</text><polygon fill="#181818" points="514,868.4063,504,872.4063,514,876.4063,510,872.4063" style="stroke:#181818;stroke-width:1.0;"/><line style="stroke:#181818;stroke-width:1.0;stroke-dasharray:2.0,2.0;" x1="508" x2="905" y1="872.4063" y2="872.4063"/><text fill="#000000" font-family="sans-serif" font-size="13" font-weight="bold" lengthAdjust="spacing" textLength="18" x="520" y="867.6641">21</text><text fill="#000000" font-family="sans-serif" font-size="13" lengthAdjust="spacing" textLength="83" x="542" y="867.6641">201 OK room</text><polygon fill="#181818" points="97,897.7168,87,901.7168,97,905.7168,93,901.7168" style="stroke:#181818;stroke-width:1.0;"/><line style="stroke:#181818;stroke-width:1.0;stroke-dasharray:2.0,2.0;" x1="91" x2="497" y1="901.7168" y2="901.7168"/><text fill="#000000" font-family="sans-serif" font-size="13" font-weight="bold" lengthAdjust="spacing" textLength="18" x="103" y="896.9746">22</text><text fill="#000000" font-family="sans-serif" font-size="13" lengthAdjust="spacing" textLength="361" x="125" y="896.9746">Imprime mensagem de sucesso com a sala de piso criada</text><!--SRC=[jLRDJjmm4BxxAQOv9OY5fN2AA8U2LA4Ag4XRjH8Naymk5euTR8TsMV4mg8S-G1zXNwpZP3VT7zY6NRWaddWotpVZRspRQw4ARdWEkLOwlJ8wHt2cH6QRcOAdrxoFYHj818Efuwelfnti5S_q3w7wqEFI8cDEE78zrCfneT10WZSbgXJXIF2-_oDCZYBem9TaTwSBuUbkn1WldLPbVec6ngdJ1e8FQFqxer0yBqeRCBRu3Je74Epl7-x53Tx1mOMAlmfRSYdk-EZtw9SEOZXM8XKST86c_kQ3f4Pm0vPBxgr2MEt1nIrts2OgQ-437SzmWNSCYPR4o14obS-2mXIj7JqOGKROargRusmJZDRvv7tASzoyK7vuX9Qu5qveLSyT4kM-DeDDoEZFeNzygyVVeuXb-AoqrgkpCpehxyPfsN6MD7w5qZxAwMJq9ojbjRu-3VAyK3G-LZrjyeRdfxFaCspxqjbj6BvelU_PqbJRy6Ch_kTBukcTwzBXAoVPvDW0icOquU4JC5fAD34r6vBtENqD3TuG0jfeDiW_RpPhJi8bQ6v5YcrYZLqPcpAQwc2XO-W9bRqVd5Ur2EkIpCNmVenBLndmvXseKaescQawUuQLDnx3cwu2CTsoZhlIXdlTRhHbKMNX479gVjfbOmWy8U2I4im6W3-5TTHzzz52HMPNUgsmuoLRfvrMnbzPw6qtf9TardfpFz7M6KuWoeFaVWwDqOmH-181LVgQsgmR4Sw9Al0sqV7KWusDIJ_uNjYwrDaWUbhrbjzYfVR7jFvVwEM2VjlTUQg-DS4CR9dwSwv7YGwgAiz1JjfscTeX1aA2iuzrmyr5cDj4rjRsShHwttjr4J_1OENJPV5yt-zqMXxmUM44NHEdjKshIekg8VMTD7EVggvO6N_k3UGl]--></g></svg>