<?xml version="1.0" encoding="us-ascii" standalone="no"?><svg xmlns="http://www.w3.org/2000/svg" xmlns:xlink="http://www.w3.org/1999/xlink" contentStyleType="text/css" height="705px" preserveAspectRatio="none" style="width:1880px;height:705px;background:#FFFFFF;" version="1.1" viewBox="0 0 1880 705" width="1880px" zoomAndPan="magnify"><defs/><g><text fill="#000000" font-family="sans-serif" font-size="14" font-weight="bold" lengthAdjust="spacing" textLength="340" x="769" y="28.5352">Container Sequence Diagram (SD) - US310 (N3)</text><rect fill="#FFFFFF" height="44.6211" style="stroke:#181818;stroke-width:1.0;" width="10" x="478" y="150.2871"/><rect fill="#FFFFFF" height="382.3926" style="stroke:#181818;stroke-width:1.0;" width="10" x="478" y="224.2188"/><rect fill="#FFFFFF" height="308.4609" style="stroke:#181818;stroke-width:1.0;" width="10" x="854" y="268.8398"/><rect fill="#FFFFFF" height="234.5293" style="stroke:#181818;stroke-width:1.0;" width="10" x="1230" y="313.4609"/><rect fill="#FFFFFF" height="175.9082" style="stroke:#181818;stroke-width:1.0;" width="10" x="1401" y="342.7715"/><rect fill="#FFFFFF" height="117.2871" style="stroke:#181818;stroke-width:1.0;" width="10" x="1572" y="372.082"/><rect fill="#FFFFFF" height="30" style="stroke:#181818;stroke-width:1.0;" width="10" x="1826" y="459.3691"/><line style="stroke:#181818;stroke-width:0.5;stroke-dasharray:5.0,5.0;" x1="71" x2="71" y1="118.9766" y2="624.6113"/><line style="stroke:#181818;stroke-width:0.5;stroke-dasharray:5.0,5.0;" x1="482.5" x2="482.5" y1="118.9766" y2="624.6113"/><line style="stroke:#181818;stroke-width:0.5;stroke-dasharray:5.0,5.0;" x1="859" x2="859" y1="118.9766" y2="624.6113"/><line style="stroke:#181818;stroke-width:0.5;stroke-dasharray:5.0,5.0;" x1="1234.5" x2="1234.5" y1="118.9766" y2="624.6113"/><line style="stroke:#181818;stroke-width:0.5;stroke-dasharray:5.0,5.0;" x1="1405.5" x2="1405.5" y1="118.9766" y2="624.6113"/><line style="stroke:#181818;stroke-width:0.5;stroke-dasharray:5.0,5.0;" x1="1576.5" x2="1576.5" y1="118.9766" y2="624.6113"/><line style="stroke:#181818;stroke-width:0.5;stroke-dasharray:5.0,5.0;" x1="1749" x2="1749" y1="419.0703" y2="624.6113"/><line style="stroke:#181818;stroke-width:0.5;stroke-dasharray:5.0,5.0;" x1="1831" x2="1831" y1="118.9766" y2="624.6113"/><text fill="#000000" font-family="sans-serif" font-size="14" lengthAdjust="spacing" textLength="126" x="5" y="116.0234">Gestor de Campus</text><ellipse cx="71" cy="50.9883" fill="#E3E3E3" rx="8" ry="8" style="stroke:#181818;stroke-width:0.5;"/><path d="M71,58.9883 L71,85.9883 M58,66.9883 L84,66.9883 M71,85.9883 L58,100.9883 M71,85.9883 L84,100.9883 " fill="none" style="stroke:#181818;stroke-width:0.5;"/><text fill="#000000" font-family="sans-serif" font-size="14" lengthAdjust="spacing" textLength="126" x="5" y="637.1465">Gestor de Campus</text><ellipse cx="71" cy="648.5996" fill="#E3E3E3" rx="8" ry="8" style="stroke:#181818;stroke-width:0.5;"/><path d="M71,656.5996 L71,683.5996 M58,664.5996 L84,664.5996 M71,683.5996 L58,698.5996 M71,683.5996 L84,698.5996 " fill="none" style="stroke:#181818;stroke-width:0.5;"/><rect fill="#E3E3E3" height="46.9766" rx="2.5" ry="2.5" style="stroke:#181818;stroke-width:0.5;" width="119" x="423.5" y="71"/><text fill="#000000" font-family="sans-serif" font-size="14" lengthAdjust="spacing" textLength="105" x="430.5" y="91.5352">&#171;C4:Container&#187;</text><text fill="#000000" font-family="sans-serif" font-size="14" lengthAdjust="spacing" textLength="89" x="438.5" y="108.0234">:Visualiza&#231;&#227;o</text><rect fill="#E3E3E3" height="46.9766" rx="2.5" ry="2.5" style="stroke:#181818;stroke-width:0.5;" width="119" x="423.5" y="623.6113"/><text fill="#000000" font-family="sans-serif" font-size="14" lengthAdjust="spacing" textLength="105" x="430.5" y="644.1465">&#171;C4:Container&#187;</text><text fill="#000000" font-family="sans-serif" font-size="14" lengthAdjust="spacing" textLength="89" x="438.5" y="660.6348">:Visualiza&#231;&#227;o</text><rect fill="#E3E3E3" height="63.4648" rx="2.5" ry="2.5" style="stroke:#181818;stroke-width:0.5;" width="138" x="790" y="54.5117"/><text fill="#000000" font-family="sans-serif" font-size="14" lengthAdjust="spacing" textLength="105" x="806.5" y="75.0469">&#171;C4:Container&#187;</text><text fill="#000000" font-family="sans-serif" font-size="14" lengthAdjust="spacing" textLength="124" x="797" y="91.5352">M&#243;dulo de Gest&#227;o</text><text fill="#000000" font-family="sans-serif" font-size="14" lengthAdjust="spacing" textLength="99" x="809.5" y="108.0234">de Informa&#231;&#227;o</text><rect fill="#E3E3E3" height="63.4648" rx="2.5" ry="2.5" style="stroke:#181818;stroke-width:0.5;" width="138" x="790" y="623.6113"/><text fill="#000000" font-family="sans-serif" font-size="14" lengthAdjust="spacing" textLength="105" x="806.5" y="644.1465">&#171;C4:Container&#187;</text><text fill="#000000" font-family="sans-serif" font-size="14" lengthAdjust="spacing" textLength="124" x="797" y="660.6348">M&#243;dulo de Gest&#227;o</text><text fill="#000000" font-family="sans-serif" font-size="14" lengthAdjust="spacing" textLength="99" x="809.5" y="677.123">de Informa&#231;&#227;o</text><rect fill="#E3E3E3" height="30.4883" rx="2.5" ry="2.5" style="stroke:#181818;stroke-width:0.5;" width="91" x="1189.5" y="87.4883"/><text fill="#000000" font-family="sans-serif" font-size="14" lengthAdjust="spacing" textLength="77" x="1196.5" y="108.0234">roomRoute</text><rect fill="#E3E3E3" height="30.4883" rx="2.5" ry="2.5" style="stroke:#181818;stroke-width:0.5;" width="91" x="1189.5" y="623.6113"/><text fill="#000000" font-family="sans-serif" font-size="14" lengthAdjust="spacing" textLength="77" x="1196.5" y="644.1465">roomRoute</text><rect fill="#E3E3E3" height="30.4883" rx="2.5" ry="2.5" style="stroke:#181818;stroke-width:0.5;" width="121" x="1345.5" y="87.4883"/><text fill="#000000" font-family="sans-serif" font-size="14" lengthAdjust="spacing" textLength="107" x="1352.5" y="108.0234">roomController</text><rect fill="#E3E3E3" height="30.4883" rx="2.5" ry="2.5" style="stroke:#181818;stroke-width:0.5;" width="121" x="1345.5" y="623.6113"/><text fill="#000000" font-family="sans-serif" font-size="14" lengthAdjust="spacing" textLength="107" x="1352.5" y="644.1465">roomController</text><rect fill="#E3E3E3" height="30.4883" rx="2.5" ry="2.5" style="stroke:#181818;stroke-width:0.5;" width="99" x="1527.5" y="87.4883"/><text fill="#000000" font-family="sans-serif" font-size="14" lengthAdjust="spacing" textLength="85" x="1534.5" y="108.0234">roomService</text><rect fill="#E3E3E3" height="30.4883" rx="2.5" ry="2.5" style="stroke:#181818;stroke-width:0.5;" width="99" x="1527.5" y="623.6113"/><text fill="#000000" font-family="sans-serif" font-size="14" lengthAdjust="spacing" textLength="85" x="1534.5" y="644.1465">roomService</text><rect fill="#E3E3E3" height="46.9766" rx="2.5" ry="2.5" style="stroke:#181818;stroke-width:0.5;" width="58" x="1720" y="623.6113"/><text fill="#000000" font-family="sans-serif" font-size="14" lengthAdjust="spacing" textLength="37" x="1730.5" y="644.1465">room</text><text fill="#000000" font-family="sans-serif" font-size="14" lengthAdjust="spacing" textLength="44" x="1727" y="660.6348">:Room</text><rect fill="#E3E3E3" height="30.4883" rx="2.5" ry="2.5" style="stroke:#181818;stroke-width:0.5;" width="86" x="1788" y="87.4883"/><text fill="#000000" font-family="sans-serif" font-size="14" lengthAdjust="spacing" textLength="72" x="1795" y="108.0234">roomRepo</text><rect fill="#E3E3E3" height="30.4883" rx="2.5" ry="2.5" style="stroke:#181818;stroke-width:0.5;" width="86" x="1788" y="623.6113"/><text fill="#000000" font-family="sans-serif" font-size="14" lengthAdjust="spacing" textLength="72" x="1795" y="644.1465">roomRepo</text><rect fill="#FFFFFF" height="44.6211" style="stroke:#181818;stroke-width:1.0;" width="10" x="478" y="150.2871"/><rect fill="#FFFFFF" height="382.3926" style="stroke:#181818;stroke-width:1.0;" width="10" x="478" y="224.2188"/><rect fill="#FFFFFF" height="308.4609" style="stroke:#181818;stroke-width:1.0;" width="10" x="854" y="268.8398"/><rect fill="#FFFFFF" height="234.5293" style="stroke:#181818;stroke-width:1.0;" width="10" x="1230" y="313.4609"/><rect fill="#FFFFFF" height="175.9082" style="stroke:#181818;stroke-width:1.0;" width="10" x="1401" y="342.7715"/><rect fill="#FFFFFF" height="117.2871" style="stroke:#181818;stroke-width:1.0;" width="10" x="1572" y="372.082"/><rect fill="#FFFFFF" height="30" style="stroke:#181818;stroke-width:1.0;" width="10" x="1826" y="459.3691"/><polygon fill="#181818" points="466,146.2871,476,150.2871,466,154.2871,470,150.2871" style="stroke:#181818;stroke-width:1.0;"/><line style="stroke:#181818;stroke-width:1.0;" x1="71" x2="472" y1="150.2871" y2="150.2871"/><text fill="#000000" font-family="sans-serif" font-size="13" font-weight="bold" lengthAdjust="spacing" textLength="9" x="78" y="145.5449">1</text><text fill="#000000" font-family="sans-serif" font-size="13" lengthAdjust="spacing" textLength="225" x="91" y="145.5449">Inicia opera&#231;&#227;o de criar sala de piso</text><polygon fill="#181818" points="82,190.9082,72,194.9082,82,198.9082,78,194.9082" style="stroke:#181818;stroke-width:1.0;"/><line style="stroke:#181818;stroke-width:1.0;stroke-dasharray:2.0,2.0;" x1="76" x2="482" y1="194.9082" y2="194.9082"/><text fill="#000000" font-family="sans-serif" font-size="13" font-weight="bold" lengthAdjust="spacing" textLength="9" x="88" y="182.5107">2</text><text fill="#000000" font-family="sans-serif" font-size="13" lengthAdjust="spacing" textLength="350" x="101" y="174.8555">Solicita dados necess&#225;rios (floorId, roomId, roomName,</text><text fill="#000000" font-family="sans-serif" font-size="13" lengthAdjust="spacing" textLength="334" x="101" y="190.166">roomDescription, roomCategory, door{doorX, doorY))</text><polygon fill="#181818" points="466,220.2188,476,224.2188,466,228.2188,470,224.2188" style="stroke:#181818;stroke-width:1.0;"/><line style="stroke:#181818;stroke-width:1.0;" x1="71" x2="472" y1="224.2188" y2="224.2188"/><text fill="#000000" font-family="sans-serif" font-size="13" font-weight="bold" lengthAdjust="spacing" textLength="9" x="78" y="219.4766">3</text><text fill="#000000" font-family="sans-serif" font-size="13" lengthAdjust="spacing" textLength="168" x="91" y="219.4766">Introduz dados solicitados</text><polygon fill="#181818" points="842,264.8398,852,268.8398,842,272.8398,846,268.8398" style="stroke:#181818;stroke-width:1.0;"/><line style="stroke:#181818;stroke-width:1.0;" x1="488" x2="848" y1="268.8398" y2="268.8398"/><text fill="#000000" font-family="sans-serif" font-size="13" font-weight="bold" lengthAdjust="spacing" textLength="9" x="495" y="256.4424">4</text><text fill="#000000" font-family="sans-serif" font-size="13" lengthAdjust="spacing" textLength="274" x="508" y="248.7871">POST /rooms/ {floorId, roomId, roomName,</text><text fill="#000000" font-family="sans-serif" font-size="13" lengthAdjust="spacing" textLength="334" x="508" y="264.0977">roomDescription, roomCategory, door{doorX, doorY)}</text><polygon fill="#181818" points="1218,309.4609,1228,313.4609,1218,317.4609,1222,313.4609" style="stroke:#181818;stroke-width:1.0;"/><line style="stroke:#181818;stroke-width:1.0;" x1="864" x2="1224" y1="313.4609" y2="313.4609"/><text fill="#000000" font-family="sans-serif" font-size="13" font-weight="bold" lengthAdjust="spacing" textLength="9" x="871" y="301.0635">5</text><text fill="#000000" font-family="sans-serif" font-size="13" lengthAdjust="spacing" textLength="274" x="884" y="293.4082">POST /rooms/ {floorId, roomId, roomName,</text><text fill="#000000" font-family="sans-serif" font-size="13" lengthAdjust="spacing" textLength="334" x="884" y="308.7188">roomDescription, roomCategory, door{doorX, doorY)}</text><polygon fill="#181818" points="1389,338.7715,1399,342.7715,1389,346.7715,1393,342.7715" style="stroke:#181818;stroke-width:1.0;"/><line style="stroke:#181818;stroke-width:1.0;" x1="1240" x2="1395" y1="342.7715" y2="342.7715"/><text fill="#000000" font-family="sans-serif" font-size="13" font-weight="bold" lengthAdjust="spacing" textLength="9" x="1247" y="338.0293">6</text><text fill="#000000" font-family="sans-serif" font-size="13" lengthAdjust="spacing" textLength="129" x="1260" y="338.0293">createRoom(req, res)</text><polygon fill="#181818" points="1560,368.082,1570,372.082,1560,376.082,1564,372.082" style="stroke:#181818;stroke-width:1.0;"/><line style="stroke:#181818;stroke-width:1.0;" x1="1411" x2="1566" y1="372.082" y2="372.082"/><text fill="#000000" font-family="sans-serif" font-size="13" font-weight="bold" lengthAdjust="spacing" textLength="9" x="1418" y="367.3398">7</text><text fill="#000000" font-family="sans-serif" font-size="13" lengthAdjust="spacing" textLength="129" x="1431" y="367.3398">createRoom(req, res)</text><polygon fill="#181818" points="1708,397.3926,1718,401.3926,1708,405.3926,1712,401.3926" style="stroke:#181818;stroke-width:1.0;"/><line style="stroke:#181818;stroke-width:1.0;" x1="1582" x2="1714" y1="401.3926" y2="401.3926"/><text fill="#000000" font-family="sans-serif" font-size="13" font-weight="bold" lengthAdjust="spacing" textLength="9" x="1589" y="396.6504">8</text><text fill="#000000" font-family="sans-serif" font-size="13" lengthAdjust="spacing" textLength="101" x="1602" y="396.6504">create(req.body)</text><rect fill="#E3E3E3" height="46.9766" rx="2.5" ry="2.5" style="stroke:#181818;stroke-width:0.5;" width="58" x="1720" y="380.082"/><text fill="#000000" font-family="sans-serif" font-size="14" lengthAdjust="spacing" textLength="37" x="1730.5" y="400.6172">room</text><text fill="#000000" font-family="sans-serif" font-size="14" lengthAdjust="spacing" textLength="44" x="1727" y="417.1055">:Room</text><polygon fill="#181818" points="1814,455.3691,1824,459.3691,1814,463.3691,1818,459.3691" style="stroke:#181818;stroke-width:1.0;"/><line style="stroke:#181818;stroke-width:1.0;" x1="1582" x2="1820" y1="459.3691" y2="459.3691"/><text fill="#000000" font-family="sans-serif" font-size="13" font-weight="bold" lengthAdjust="spacing" textLength="9" x="1589" y="454.627">9</text><text fill="#000000" font-family="sans-serif" font-size="13" lengthAdjust="spacing" textLength="69" x="1602" y="454.627">save(room)</text><polygon fill="#181818" points="1251,514.6797,1241,518.6797,1251,522.6797,1247,518.6797" style="stroke:#181818;stroke-width:1.0;"/><line style="stroke:#181818;stroke-width:1.0;stroke-dasharray:2.0,2.0;" x1="1245" x2="1405" y1="518.6797" y2="518.6797"/><text fill="#000000" font-family="sans-serif" font-size="13" font-weight="bold" lengthAdjust="spacing" textLength="18" x="1257" y="513.9375">10</text><text fill="#000000" font-family="sans-serif" font-size="13" lengthAdjust="spacing" textLength="83" x="1279" y="513.9375">200 OK room</text><polygon fill="#181818" points="875,543.9902,865,547.9902,875,551.9902,871,547.9902" style="stroke:#181818;stroke-width:1.0;"/><line style="stroke:#181818;stroke-width:1.0;stroke-dasharray:2.0,2.0;" x1="869" x2="1234" y1="547.9902" y2="547.9902"/><text fill="#000000" font-family="sans-serif" font-size="13" font-weight="bold" lengthAdjust="spacing" textLength="18" x="881" y="543.248">11</text><text fill="#000000" font-family="sans-serif" font-size="13" lengthAdjust="spacing" textLength="83" x="903" y="543.248">200 OK room</text><polygon fill="#181818" points="499,573.3008,489,577.3008,499,581.3008,495,577.3008" style="stroke:#181818;stroke-width:1.0;"/><line style="stroke:#181818;stroke-width:1.0;stroke-dasharray:2.0,2.0;" x1="493" x2="858" y1="577.3008" y2="577.3008"/><text fill="#000000" font-family="sans-serif" font-size="13" font-weight="bold" lengthAdjust="spacing" textLength="18" x="505" y="572.5586">12</text><text fill="#000000" font-family="sans-serif" font-size="13" lengthAdjust="spacing" textLength="83" x="527" y="572.5586">200 OK room</text><polygon fill="#181818" points="82,602.6113,72,606.6113,82,610.6113,78,606.6113" style="stroke:#181818;stroke-width:1.0;"/><line style="stroke:#181818;stroke-width:1.0;stroke-dasharray:2.0,2.0;" x1="76" x2="482" y1="606.6113" y2="606.6113"/><text fill="#000000" font-family="sans-serif" font-size="13" font-weight="bold" lengthAdjust="spacing" textLength="18" x="88" y="601.8691">13</text><text fill="#000000" font-family="sans-serif" font-size="13" lengthAdjust="spacing" textLength="361" x="110" y="601.8691">Imprime mensagem de sucesso com a sala de piso criada</text><!--SRC=[jLNDRXCn4BxxAKOvPQk41iff5UMII2X2jAWB2AHStDr9QdNjsThUeBJYOH077e17o8inpi-oIMYr3VIoEpEUd-yRssDteqmXhTIWoL1wRKaZU5kYSDLA8TCRESF4Bt84YwcNPfRN7TorpEYhCZEOojoX45vvTXsIyL8Pj93WROacHHWfEGiHxMGKGHS-9cSlUz0-Fuk4aAKdK-ehj2oddYoqtg0B_unJILsKhYN4eGsw0sZr-yFNSLLlC9YO-9DofSpLdLp-NFwWLWnZer8bWGgqQrj8abebBJYPow0Lob4ehkRIOvEiee4FT0F20zmn99Gp8i-LkNqE3ARetFAxLQoqfpcH7MSTi4Hw-p-N6ZiJ4yGHEiPUU4LclJPao3EoYmva77aVFf_NyfSe4Xa-YTQ_zTbRoigx3IstOSdoCxJshvZUBNzbPRxQtq23FIU6vR6PajKLplSNoGSu3Qrpft3_N_lzJJnAjGa-SMHSQ4c0TqcbnsScMN6i2efAsk8812pbETgOBnkozoLRsnPlkGAwQ3V97s-ngsxJ9MZdAiKckJQkeYQlpalG-IY5qDR9oJPJoFBYYh95j1-meeG5nJmcvkp7wbwbi5g_OG_PweZgrEfR1Z6ywlNWuktAj9zXhp-RJXz_2nwljjxIemzYqu7n08AZByxXwEftkmrdbowiuXTGet7yvEcGn9LXBXEaf47kF1MhroEJJnsklm40]--></g></svg>