<?xml version="1.0" encoding="us-ascii" standalone="no"?><svg xmlns="http://www.w3.org/2000/svg" xmlns:xlink="http://www.w3.org/1999/xlink" contentStyleType="text/css" height="469px" preserveAspectRatio="none" style="width:658px;height:469px;background:#FFFFFF;" version="1.1" viewBox="0 0 658 469" width="658px" zoomAndPan="magnify"><defs/><g><text fill="#000000" font-family="sans-serif" font-size="14" font-weight="bold" lengthAdjust="spacing" textLength="357" x="149.5" y="28.5352">Container Sequence Diagram (SSD) - US1070 (N2)</text><rect fill="#FFFFFF" height="241.7949" style="stroke:#181818;stroke-width:1.0;" width="10" x="66" y="128.9766"/><rect fill="#FFFFFF" height="87.9316" style="stroke:#181818;stroke-width:1.0;" width="10" x="371" y="150.2871"/><rect fill="#FFFFFF" height="103.2422" style="stroke:#181818;stroke-width:1.0;" width="10" x="371" y="267.5293"/><rect fill="#FFFFFF" height="29.3105" style="stroke:#181818;stroke-width:1.0;" width="10" x="578" y="179.5977"/><rect fill="#FFFFFF" height="29.3105" style="stroke:#181818;stroke-width:1.0;" width="10" x="578" y="296.8398"/><line style="stroke:#181818;stroke-width:0.5;stroke-dasharray:5.0,5.0;" x1="71" x2="71" y1="118.9766" y2="388.7715"/><line style="stroke:#181818;stroke-width:0.5;stroke-dasharray:5.0,5.0;" x1="375.5" x2="375.5" y1="118.9766" y2="388.7715"/><line style="stroke:#181818;stroke-width:0.5;stroke-dasharray:5.0,5.0;" x1="583" x2="583" y1="118.9766" y2="388.7715"/><text fill="#000000" font-family="sans-serif" font-size="14" lengthAdjust="spacing" textLength="126" x="5" y="116.0234">Gestor de Campus</text><ellipse cx="71" cy="50.9883" fill="#E3E3E3" rx="8" ry="8" style="stroke:#181818;stroke-width:0.5;"/><path d="M71,58.9883 L71,85.9883 M58,66.9883 L84,66.9883 M71,85.9883 L58,100.9883 M71,85.9883 L84,100.9883 " fill="none" style="stroke:#181818;stroke-width:0.5;"/><text fill="#000000" font-family="sans-serif" font-size="14" lengthAdjust="spacing" textLength="126" x="5" y="401.3066">Gestor de Campus</text><ellipse cx="71" cy="412.7598" fill="#E3E3E3" rx="8" ry="8" style="stroke:#181818;stroke-width:0.5;"/><path d="M71,420.7598 L71,447.7598 M58,428.7598 L84,428.7598 M71,447.7598 L58,462.7598 M71,447.7598 L84,462.7598 " fill="none" style="stroke:#181818;stroke-width:0.5;"/><rect fill="#E3E3E3" height="46.9766" rx="2.5" ry="2.5" style="stroke:#181818;stroke-width:0.5;" width="119" x="316.5" y="71"/><text fill="#000000" font-family="sans-serif" font-size="14" lengthAdjust="spacing" textLength="105" x="323.5" y="91.5352">&#171;C4:Container&#187;</text><text fill="#000000" font-family="sans-serif" font-size="14" lengthAdjust="spacing" textLength="89" x="331.5" y="108.0234">:Visualiza&#231;&#227;o</text><rect fill="#E3E3E3" height="46.9766" rx="2.5" ry="2.5" style="stroke:#181818;stroke-width:0.5;" width="119" x="316.5" y="387.7715"/><text fill="#000000" font-family="sans-serif" font-size="14" lengthAdjust="spacing" textLength="105" x="323.5" y="408.3066">&#171;C4:Container&#187;</text><text fill="#000000" font-family="sans-serif" font-size="14" lengthAdjust="spacing" textLength="89" x="331.5" y="424.7949">:Visualiza&#231;&#227;o</text><rect fill="#E3E3E3" height="63.4648" rx="2.5" ry="2.5" style="stroke:#181818;stroke-width:0.5;" width="138" x="514" y="54.5117"/><text fill="#000000" font-family="sans-serif" font-size="14" lengthAdjust="spacing" textLength="105" x="530.5" y="75.0469">&#171;C4:Container&#187;</text><text fill="#000000" font-family="sans-serif" font-size="14" lengthAdjust="spacing" textLength="124" x="521" y="91.5352">M&#243;dulo de Gest&#227;o</text><text fill="#000000" font-family="sans-serif" font-size="14" lengthAdjust="spacing" textLength="99" x="533.5" y="108.0234">de Informa&#231;&#227;o</text><rect fill="#E3E3E3" height="63.4648" rx="2.5" ry="2.5" style="stroke:#181818;stroke-width:0.5;" width="138" x="514" y="387.7715"/><text fill="#000000" font-family="sans-serif" font-size="14" lengthAdjust="spacing" textLength="105" x="530.5" y="408.3066">&#171;C4:Container&#187;</text><text fill="#000000" font-family="sans-serif" font-size="14" lengthAdjust="spacing" textLength="124" x="521" y="424.7949">M&#243;dulo de Gest&#227;o</text><text fill="#000000" font-family="sans-serif" font-size="14" lengthAdjust="spacing" textLength="99" x="533.5" y="441.2832">de Informa&#231;&#227;o</text><rect fill="#FFFFFF" height="241.7949" style="stroke:#181818;stroke-width:1.0;" width="10" x="66" y="128.9766"/><rect fill="#FFFFFF" height="87.9316" style="stroke:#181818;stroke-width:1.0;" width="10" x="371" y="150.2871"/><rect fill="#FFFFFF" height="103.2422" style="stroke:#181818;stroke-width:1.0;" width="10" x="371" y="267.5293"/><rect fill="#FFFFFF" height="29.3105" style="stroke:#181818;stroke-width:1.0;" width="10" x="578" y="179.5977"/><rect fill="#FFFFFF" height="29.3105" style="stroke:#181818;stroke-width:1.0;" width="10" x="578" y="296.8398"/><polygon fill="#181818" points="359,146.2871,369,150.2871,359,154.2871,363,150.2871" style="stroke:#181818;stroke-width:1.0;"/><line style="stroke:#181818;stroke-width:1.0;" x1="76" x2="365" y1="150.2871" y2="150.2871"/><text fill="#000000" font-family="sans-serif" font-size="13" font-weight="bold" lengthAdjust="spacing" textLength="9" x="83" y="145.5449">1</text><text fill="#000000" font-family="sans-serif" font-size="13" lengthAdjust="spacing" textLength="205" x="96" y="145.5449">Inicia opera&#231;&#227;o de editar edif&#237;cio</text><line style="stroke:#181818;stroke-width:1.0;" x1="576" x2="566" y1="179.5977" y2="175.5977"/><line style="stroke:#181818;stroke-width:1.0;" x1="576" x2="566" y1="179.5977" y2="183.5977"/><line style="stroke:#181818;stroke-width:1.0;" x1="381" x2="577" y1="179.5977" y2="179.5977"/><text fill="#000000" font-family="sans-serif" font-size="13" font-weight="bold" lengthAdjust="spacing" textLength="9" x="388" y="174.8555">2</text><text fill="#000000" font-family="sans-serif" font-size="13" lengthAdjust="spacing" textLength="101" x="401" y="174.8555">GET /buildings/</text><line style="stroke:#181818;stroke-width:1.0;" x1="382" x2="392" y1="208.9082" y2="204.9082"/><line style="stroke:#181818;stroke-width:1.0;" x1="382" x2="392" y1="208.9082" y2="212.9082"/><line style="stroke:#181818;stroke-width:1.0;" x1="381" x2="582" y1="208.9082" y2="208.9082"/><text fill="#000000" font-family="sans-serif" font-size="13" font-weight="bold" lengthAdjust="spacing" textLength="9" x="398" y="204.166">3</text><text fill="#000000" font-family="sans-serif" font-size="13" lengthAdjust="spacing" textLength="109" x="411" y="204.166">200 OK buildings</text><polygon fill="#181818" points="87,234.2188,77,238.2188,87,242.2188,83,238.2188" style="stroke:#181818;stroke-width:1.0;"/><line style="stroke:#181818;stroke-width:1.0;stroke-dasharray:2.0,2.0;" x1="81" x2="375" y1="238.2188" y2="238.2188"/><text fill="#000000" font-family="sans-serif" font-size="13" font-weight="bold" lengthAdjust="spacing" textLength="9" x="93" y="233.4766">4</text><text fill="#000000" font-family="sans-serif" font-size="13" lengthAdjust="spacing" textLength="166" x="106" y="233.4766">Solicita dados necess&#225;rios</text><polygon fill="#181818" points="359,263.5293,369,267.5293,359,271.5293,363,267.5293" style="stroke:#181818;stroke-width:1.0;"/><line style="stroke:#181818;stroke-width:1.0;" x1="76" x2="365" y1="267.5293" y2="267.5293"/><text fill="#000000" font-family="sans-serif" font-size="13" font-weight="bold" lengthAdjust="spacing" textLength="9" x="83" y="262.7871">5</text><text fill="#000000" font-family="sans-serif" font-size="13" lengthAdjust="spacing" textLength="168" x="96" y="262.7871">Introduz dados solicitados</text><polygon fill="#181818" points="566,292.8398,576,296.8398,566,300.8398,570,296.8398" style="stroke:#181818;stroke-width:1.0;"/><line style="stroke:#181818;stroke-width:1.0;stroke-dasharray:2.0,2.0;" x1="381" x2="572" y1="296.8398" y2="296.8398"/><text fill="#000000" font-family="sans-serif" font-size="13" font-weight="bold" lengthAdjust="spacing" textLength="9" x="388" y="292.0977">6</text><text fill="#000000" font-family="sans-serif" font-size="13" lengthAdjust="spacing" textLength="165" x="401" y="292.0977">PUT /buildings/buildingId</text><polygon fill="#181818" points="392,322.1504,382,326.1504,392,330.1504,388,326.1504" style="stroke:#181818;stroke-width:1.0;"/><line style="stroke:#181818;stroke-width:1.0;stroke-dasharray:2.0,2.0;" x1="386" x2="582" y1="326.1504" y2="326.1504"/><text fill="#000000" font-family="sans-serif" font-size="13" font-weight="bold" lengthAdjust="spacing" textLength="9" x="398" y="321.4082">7</text><text fill="#000000" font-family="sans-serif" font-size="13" lengthAdjust="spacing" textLength="102" x="411" y="321.4082">200 OK building</text><polygon fill="#181818" points="82,366.7715,72,370.7715,82,374.7715,78,370.7715" style="stroke:#181818;stroke-width:1.0;"/><line style="stroke:#181818;stroke-width:1.0;stroke-dasharray:2.0,2.0;" x1="76" x2="375" y1="370.7715" y2="370.7715"/><text fill="#000000" font-family="sans-serif" font-size="13" font-weight="bold" lengthAdjust="spacing" textLength="9" x="88" y="358.374">8</text><text fill="#000000" font-family="sans-serif" font-size="13" lengthAdjust="spacing" textLength="254" x="101" y="350.7188">Mostra edif&#237;cio que acaba de ser editado</text><text fill="#000000" font-family="sans-serif" font-size="13" lengthAdjust="spacing" textLength="134" x="101" y="366.0293">e os seus parametros</text><!--SRC=[nPJDJW8n483l-nGJJd3OWCJ4X10kO0WngCcA9ov3Eq33RelzqSZR60-UFFa8-s9s0H6pA0WIJvsqq-dNzikOYP1Jr9X0egHYOwqI0giT1MQrCaKsmH55zZ4cqCGiob6ydc36oDM3a2COOcme2AomFhMff4KXIKD4Tuua8sW976KxYb7KAa48lUYaSbQ1ucMr50Jeh98k6P3sCRDAGw5D9XkvBuR9r9d2V4NSewLDY_af21jGgDURfxKLJQFHbxLROHp6OeRfI_gi2ZNeIC44WfgINinbHOWBYpeRXkah4shjyEqrWnroFDv6lcxwnbqyPyYkv5FxqiSTELGwMJ6tps-WF70YvlxjJVb7kbqg1dlk- -uM-LUkLYfmTG4hve3JCQ3ppvnfa9EZ1f6A_RTR1EuDDY29aJ7fanPg6rhkjm-Jpsh5tMo9OPPKFZw2SU41nbttlXZt4NNuFxeNxkVUdwYN__9w6Ew6qrN6QlpiBU1R92330MRb3Eb5z-4A-f8WiuASWNd39M_Bh_rSJyztpdS0]--></g></svg>