<?xml version="1.0" encoding="us-ascii" standalone="no"?><svg xmlns="http://www.w3.org/2000/svg" xmlns:xlink="http://www.w3.org/1999/xlink" contentStyleType="text/css" height="1046px" preserveAspectRatio="none" style="width:2482px;height:1046px;background:#FFFFFF;" version="1.1" viewBox="0 0 2482 1046" width="2482px" zoomAndPan="magnify"><defs/><g><text fill="#000000" font-family="sans-serif" font-size="14" font-weight="bold" lengthAdjust="spacing" textLength="340" x="1070" y="28.5352">Container Sequence Diagram (SD) - US270 (N3)</text><rect fill="#FFFFFF" height="59.9316" style="stroke:#181818;stroke-width:1.0;" width="10" x="435" y="150.2871"/><rect fill="#FFFFFF" height="708.1191" style="stroke:#181818;stroke-width:1.0;" width="10" x="435" y="239.5293"/><rect fill="#FFFFFF" height="618.877" style="stroke:#181818;stroke-width:1.0;" width="10" x="857" y="299.4609"/><rect fill="#FFFFFF" height="529.6348" style="stroke:#181818;stroke-width:1.0;" width="10" x="1279" y="359.3926"/><rect fill="#FFFFFF" height="471.0137" style="stroke:#181818;stroke-width:1.0;" width="10" x="1701" y="388.7031"/><rect fill="#FFFFFF" height="412.3926" style="stroke:#181818;stroke-width:1.0;" width="10" x="2123" y="418.0137"/><rect fill="#FFFFFF" height="236.4844" style="stroke:#181818;stroke-width:1.0;" width="10" x="2336" y="447.3242"/><rect fill="#FFFFFF" height="30" style="stroke:#181818;stroke-width:1.0;" width="10" x="2336" y="771.0957"/><rect fill="none" height="193.1738" style="stroke:#000000;stroke-width:1.5;" width="2393" x="10" y="462.3242"/><line style="stroke:#181818;stroke-width:0.5;stroke-dasharray:5.0,5.0;" x1="86" x2="86" y1="118.9766" y2="965.6484"/><line style="stroke:#181818;stroke-width:0.5;stroke-dasharray:5.0,5.0;" x1="439.5" x2="439.5" y1="118.9766" y2="965.6484"/><line style="stroke:#181818;stroke-width:0.5;stroke-dasharray:5.0,5.0;" x1="862" x2="862" y1="118.9766" y2="965.6484"/><line style="stroke:#181818;stroke-width:0.5;stroke-dasharray:5.0,5.0;" x1="1283.5" x2="1283.5" y1="118.9766" y2="965.6484"/><line style="stroke:#181818;stroke-width:0.5;stroke-dasharray:5.0,5.0;" x1="1705.5" x2="1705.5" y1="118.9766" y2="965.6484"/><line style="stroke:#181818;stroke-width:0.5;stroke-dasharray:5.0,5.0;" x1="2127.5" x2="2127.5" y1="118.9766" y2="965.6484"/><line style="stroke:#181818;stroke-width:0.5;stroke-dasharray:5.0,5.0;" x1="2341" x2="2341" y1="118.9766" y2="965.6484"/><line style="stroke:#181818;stroke-width:0.5;stroke-dasharray:5.0,5.0;" x1="2439" x2="2439" y1="730.7969" y2="965.6484"/><text fill="#000000" font-family="sans-serif" font-size="14" lengthAdjust="spacing" textLength="126" x="20" y="116.0234">Gestor de Campus</text><ellipse cx="86" cy="50.9883" fill="#E3E3E3" rx="8" ry="8" style="stroke:#181818;stroke-width:0.5;"/><path d="M86,58.9883 L86,85.9883 M73,66.9883 L99,66.9883 M86,85.9883 L73,100.9883 M86,85.9883 L99,100.9883 " fill="none" style="stroke:#181818;stroke-width:0.5;"/><text fill="#000000" font-family="sans-serif" font-size="14" lengthAdjust="spacing" textLength="126" x="20" y="978.1836">Gestor de Campus</text><ellipse cx="86" cy="989.6367" fill="#E3E3E3" rx="8" ry="8" style="stroke:#181818;stroke-width:0.5;"/><path d="M86,997.6367 L86,1024.6367 M73,1005.6367 L99,1005.6367 M86,1024.6367 L73,1039.6367 M86,1024.6367 L99,1039.6367 " fill="none" style="stroke:#181818;stroke-width:0.5;"/><rect fill="#E3E3E3" height="46.9766" rx="2.5" ry="2.5" style="stroke:#181818;stroke-width:0.5;" width="119" x="380.5" y="71"/><text fill="#000000" font-family="sans-serif" font-size="14" lengthAdjust="spacing" textLength="105" x="387.5" y="91.5352">&#171;C4:Container&#187;</text><text fill="#000000" font-family="sans-serif" font-size="14" lengthAdjust="spacing" textLength="89" x="395.5" y="108.0234">:Visualiza&#231;&#227;o</text><rect fill="#E3E3E3" height="46.9766" rx="2.5" ry="2.5" style="stroke:#181818;stroke-width:0.5;" width="119" x="380.5" y="964.6484"/><text fill="#000000" font-family="sans-serif" font-size="14" lengthAdjust="spacing" textLength="105" x="387.5" y="985.1836">&#171;C4:Container&#187;</text><text fill="#000000" font-family="sans-serif" font-size="14" lengthAdjust="spacing" textLength="89" x="395.5" y="1001.6719">:Visualiza&#231;&#227;o</text><rect fill="#E3E3E3" height="63.4648" rx="2.5" ry="2.5" style="stroke:#181818;stroke-width:0.5;" width="138" x="793" y="54.5117"/><text fill="#000000" font-family="sans-serif" font-size="14" lengthAdjust="spacing" textLength="105" x="809.5" y="75.0469">&#171;C4:Container&#187;</text><text fill="#000000" font-family="sans-serif" font-size="14" lengthAdjust="spacing" textLength="124" x="800" y="91.5352">M&#243;dulo de Gest&#227;o</text><text fill="#000000" font-family="sans-serif" font-size="14" lengthAdjust="spacing" textLength="99" x="812.5" y="108.0234">de Informa&#231;&#227;o</text><rect fill="#E3E3E3" height="63.4648" rx="2.5" ry="2.5" style="stroke:#181818;stroke-width:0.5;" width="138" x="793" y="964.6484"/><text fill="#000000" font-family="sans-serif" font-size="14" lengthAdjust="spacing" textLength="105" x="809.5" y="985.1836">&#171;C4:Container&#187;</text><text fill="#000000" font-family="sans-serif" font-size="14" lengthAdjust="spacing" textLength="124" x="800" y="1001.6719">M&#243;dulo de Gest&#227;o</text><text fill="#000000" font-family="sans-serif" font-size="14" lengthAdjust="spacing" textLength="99" x="812.5" y="1018.1602">de Informa&#231;&#227;o</text><rect fill="#E3E3E3" height="30.4883" rx="2.5" ry="2.5" style="stroke:#181818;stroke-width:0.5;" width="109" x="1229.5" y="87.4883"/><text fill="#000000" font-family="sans-serif" font-size="14" lengthAdjust="spacing" textLength="95" x="1236.5" y="108.0234">elevatorRoute</text><rect fill="#E3E3E3" height="30.4883" rx="2.5" ry="2.5" style="stroke:#181818;stroke-width:0.5;" width="109" x="1229.5" y="964.6484"/><text fill="#000000" font-family="sans-serif" font-size="14" lengthAdjust="spacing" textLength="95" x="1236.5" y="985.1836">elevatorRoute</text><rect fill="#E3E3E3" height="30.4883" rx="2.5" ry="2.5" style="stroke:#181818;stroke-width:0.5;" width="139" x="1636.5" y="87.4883"/><text fill="#000000" font-family="sans-serif" font-size="14" lengthAdjust="spacing" textLength="125" x="1643.5" y="108.0234">elevatorController</text><rect fill="#E3E3E3" height="30.4883" rx="2.5" ry="2.5" style="stroke:#181818;stroke-width:0.5;" width="139" x="1636.5" y="964.6484"/><text fill="#000000" font-family="sans-serif" font-size="14" lengthAdjust="spacing" textLength="125" x="1643.5" y="985.1836">elevatorController</text><rect fill="#E3E3E3" height="30.4883" rx="2.5" ry="2.5" style="stroke:#181818;stroke-width:0.5;" width="117" x="2069.5" y="87.4883"/><text fill="#000000" font-family="sans-serif" font-size="14" lengthAdjust="spacing" textLength="103" x="2076.5" y="108.0234">elevatorService</text><rect fill="#E3E3E3" height="30.4883" rx="2.5" ry="2.5" style="stroke:#181818;stroke-width:0.5;" width="117" x="2069.5" y="964.6484"/><text fill="#000000" font-family="sans-serif" font-size="14" lengthAdjust="spacing" textLength="103" x="2076.5" y="985.1836">elevatorService</text><rect fill="#E3E3E3" height="30.4883" rx="2.5" ry="2.5" style="stroke:#181818;stroke-width:0.5;" width="104" x="2289" y="87.4883"/><text fill="#000000" font-family="sans-serif" font-size="14" lengthAdjust="spacing" textLength="90" x="2296" y="108.0234">elevatorRepo</text><rect fill="#E3E3E3" height="30.4883" rx="2.5" ry="2.5" style="stroke:#181818;stroke-width:0.5;" width="104" x="2289" y="964.6484"/><text fill="#000000" font-family="sans-serif" font-size="14" lengthAdjust="spacing" textLength="90" x="2296" y="985.1836">elevatorRepo</text><rect fill="#E3E3E3" height="46.9766" rx="2.5" ry="2.5" style="stroke:#181818;stroke-width:0.5;" width="73" x="2403" y="964.6484"/><text fill="#000000" font-family="sans-serif" font-size="14" lengthAdjust="spacing" textLength="55" x="2412" y="985.1836">elevator</text><text fill="#000000" font-family="sans-serif" font-size="14" lengthAdjust="spacing" textLength="59" x="2410" y="1001.6719">:Elevator</text><rect fill="#FFFFFF" height="59.9316" style="stroke:#181818;stroke-width:1.0;" width="10" x="435" y="150.2871"/><rect fill="#FFFFFF" height="708.1191" style="stroke:#181818;stroke-width:1.0;" width="10" x="435" y="239.5293"/><rect fill="#FFFFFF" height="618.877" style="stroke:#181818;stroke-width:1.0;" width="10" x="857" y="299.4609"/><rect fill="#FFFFFF" height="529.6348" style="stroke:#181818;stroke-width:1.0;" width="10" x="1279" y="359.3926"/><rect fill="#FFFFFF" height="471.0137" style="stroke:#181818;stroke-width:1.0;" width="10" x="1701" y="388.7031"/><rect fill="#FFFFFF" height="412.3926" style="stroke:#181818;stroke-width:1.0;" width="10" x="2123" y="418.0137"/><rect fill="#FFFFFF" height="236.4844" style="stroke:#181818;stroke-width:1.0;" width="10" x="2336" y="447.3242"/><rect fill="#FFFFFF" height="30" style="stroke:#181818;stroke-width:1.0;" width="10" x="2336" y="771.0957"/><polygon fill="#181818" points="423,146.2871,433,150.2871,423,154.2871,427,150.2871" style="stroke:#181818;stroke-width:1.0;"/><line style="stroke:#181818;stroke-width:1.0;" x1="86" x2="429" y1="150.2871" y2="150.2871"/><text fill="#000000" font-family="sans-serif" font-size="13" font-weight="bold" lengthAdjust="spacing" textLength="9" x="93" y="145.5449">1</text><text fill="#000000" font-family="sans-serif" font-size="13" lengthAdjust="spacing" textLength="203" x="106" y="145.5449">Inicia opera&#231;&#227;o de criar elevador</text><polygon fill="#181818" points="97,206.2188,87,210.2188,97,214.2188,93,210.2188" style="stroke:#181818;stroke-width:1.0;"/><line style="stroke:#181818;stroke-width:1.0;stroke-dasharray:2.0,2.0;" x1="91" x2="439" y1="210.2188" y2="210.2188"/><text fill="#000000" font-family="sans-serif" font-size="13" font-weight="bold" lengthAdjust="spacing" textLength="9" x="103" y="190.166">2</text><text fill="#000000" font-family="sans-serif" font-size="13" lengthAdjust="spacing" textLength="312" x="116" y="174.8555">Solicita dados necess&#225;rios (buildingId, elevatorId,</text><text fill="#000000" font-family="sans-serif" font-size="13" lengthAdjust="spacing" textLength="292" x="116" y="190.166">elevatorBrand, elevatorModel, elevatorSerNum,</text><text fill="#000000" font-family="sans-serif" font-size="13" lengthAdjust="spacing" textLength="130" x="116" y="205.4766">locationX, locationY)</text><polygon fill="#181818" points="423,235.5293,433,239.5293,423,243.5293,427,239.5293" style="stroke:#181818;stroke-width:1.0;"/><line style="stroke:#181818;stroke-width:1.0;" x1="86" x2="429" y1="239.5293" y2="239.5293"/><text fill="#000000" font-family="sans-serif" font-size="13" font-weight="bold" lengthAdjust="spacing" textLength="9" x="93" y="234.7871">3</text><text fill="#000000" font-family="sans-serif" font-size="13" lengthAdjust="spacing" textLength="168" x="106" y="234.7871">Introduz dados solicitados</text><polygon fill="#181818" points="845,295.4609,855,299.4609,845,303.4609,849,299.4609" style="stroke:#181818;stroke-width:1.0;"/><line style="stroke:#181818;stroke-width:1.0;" x1="445" x2="851" y1="299.4609" y2="299.4609"/><text fill="#000000" font-family="sans-serif" font-size="13" font-weight="bold" lengthAdjust="spacing" textLength="9" x="452" y="279.4082">4</text><text fill="#000000" font-family="sans-serif" font-size="13" lengthAdjust="spacing" textLength="253" x="465" y="264.0977">POST /elevators/ {buildingId, elevatorId,</text><text fill="#000000" font-family="sans-serif" font-size="13" lengthAdjust="spacing" textLength="292" x="465" y="279.4082">elevatorBrand, elevatorModel, elevatorSerNum,</text><text fill="#000000" font-family="sans-serif" font-size="13" lengthAdjust="spacing" textLength="130" x="465" y="294.7188">locationX, locationY}</text><polygon fill="#181818" points="1267,355.3926,1277,359.3926,1267,363.3926,1271,359.3926" style="stroke:#181818;stroke-width:1.0;"/><line style="stroke:#181818;stroke-width:1.0;" x1="867" x2="1273" y1="359.3926" y2="359.3926"/><text fill="#000000" font-family="sans-serif" font-size="13" font-weight="bold" lengthAdjust="spacing" textLength="9" x="874" y="339.3398">5</text><text fill="#000000" font-family="sans-serif" font-size="13" lengthAdjust="spacing" textLength="253" x="887" y="324.0293">POST /elevators/ {buildingId, elevatorId,</text><text fill="#000000" font-family="sans-serif" font-size="13" lengthAdjust="spacing" textLength="292" x="887" y="339.3398">elevatorBrand, elevatorModel, elevatorSerNum,</text><text fill="#000000" font-family="sans-serif" font-size="13" lengthAdjust="spacing" textLength="130" x="887" y="354.6504">locationX, locationY}</text><polygon fill="#181818" points="1689,384.7031,1699,388.7031,1689,392.7031,1693,388.7031" style="stroke:#181818;stroke-width:1.0;"/><line style="stroke:#181818;stroke-width:1.0;" x1="1289" x2="1695" y1="388.7031" y2="388.7031"/><text fill="#000000" font-family="sans-serif" font-size="13" font-weight="bold" lengthAdjust="spacing" textLength="9" x="1296" y="383.9609">6</text><text fill="#000000" font-family="sans-serif" font-size="13" lengthAdjust="spacing" textLength="143" x="1309" y="383.9609">createElevator(req, res)</text><polygon fill="#181818" points="2111,414.0137,2121,418.0137,2111,422.0137,2115,418.0137" style="stroke:#181818;stroke-width:1.0;"/><line style="stroke:#181818;stroke-width:1.0;" x1="1711" x2="2117" y1="418.0137" y2="418.0137"/><text fill="#000000" font-family="sans-serif" font-size="13" font-weight="bold" lengthAdjust="spacing" textLength="9" x="1718" y="413.2715">7</text><text fill="#000000" font-family="sans-serif" font-size="13" lengthAdjust="spacing" textLength="143" x="1731" y="413.2715">createElevator(req, res)</text><polygon fill="#181818" points="2324,443.3242,2334,447.3242,2324,451.3242,2328,447.3242" style="stroke:#181818;stroke-width:1.0;"/><line style="stroke:#181818;stroke-width:1.0;" x1="2133" x2="2330" y1="447.3242" y2="447.3242"/><text fill="#000000" font-family="sans-serif" font-size="13" font-weight="bold" lengthAdjust="spacing" textLength="9" x="2140" y="442.582">8</text><text fill="#000000" font-family="sans-serif" font-size="13" lengthAdjust="spacing" textLength="171" x="2153" y="442.582">findByElevatorId(elevatorId)</text><path d="M10,462.3242 L72,462.3242 L72,469.6348 L62,479.6348 L10,479.6348 L10,462.3242 " fill="#EEEEEE" style="stroke:#000000;stroke-width:1.5;"/><rect fill="none" height="193.1738" style="stroke:#000000;stroke-width:1.5;" width="2393" x="10" y="462.3242"/><text fill="#000000" font-family="sans-serif" font-size="13" font-weight="bold" lengthAdjust="spacing" textLength="17" x="25" y="475.8926">alt</text><text fill="#000000" font-family="sans-serif" font-size="11" font-weight="bold" lengthAdjust="spacing" textLength="95" x="87" y="474.959">[elevator != null]</text><polygon fill="#181818" points="2144,496.9453,2134,500.9453,2144,504.9453,2140,500.9453" style="stroke:#181818;stroke-width:1.0;"/><line style="stroke:#181818;stroke-width:1.0;stroke-dasharray:2.0,2.0;" x1="2138" x2="2335" y1="500.9453" y2="500.9453"/><text fill="#000000" font-family="sans-serif" font-size="13" font-weight="bold" lengthAdjust="spacing" textLength="9" x="2150" y="496.2031">9</text><text fill="#000000" font-family="sans-serif" font-size="13" lengthAdjust="spacing" textLength="50" x="2163" y="496.2031">elevator</text><polygon fill="#181818" points="1722,526.2559,1712,530.2559,1722,534.2559,1718,530.2559" style="stroke:#181818;stroke-width:1.0;"/><line style="stroke:#181818;stroke-width:1.0;" x1="1716" x2="2122" y1="530.2559" y2="530.2559"/><text fill="#000000" font-family="sans-serif" font-size="13" font-weight="bold" lengthAdjust="spacing" textLength="18" x="1728" y="525.5137">10</text><text fill="#000000" font-family="sans-serif" font-size="13" lengthAdjust="spacing" textLength="366" x="1750" y="525.5137">res.status(400).send({ message: "Elevator already exists" })</text><polygon fill="#181818" points="1300,555.5664,1290,559.5664,1300,563.5664,1296,559.5664" style="stroke:#181818;stroke-width:1.0;"/><line style="stroke:#181818;stroke-width:1.0;stroke-dasharray:2.0,2.0;" x1="1294" x2="1700" y1="559.5664" y2="559.5664"/><text fill="#000000" font-family="sans-serif" font-size="13" font-weight="bold" lengthAdjust="spacing" textLength="18" x="1306" y="554.8242">11</text><text fill="#000000" font-family="sans-serif" font-size="13" lengthAdjust="spacing" textLength="366" x="1328" y="554.8242">res.status(400).send({ message: "Elevator already exists" })</text><polygon fill="#181818" points="878,584.877,868,588.877,878,592.877,874,588.877" style="stroke:#181818;stroke-width:1.0;"/><line style="stroke:#181818;stroke-width:1.0;stroke-dasharray:2.0,2.0;" x1="872" x2="1278" y1="588.877" y2="588.877"/><text fill="#000000" font-family="sans-serif" font-size="13" font-weight="bold" lengthAdjust="spacing" textLength="18" x="884" y="584.1348">12</text><text fill="#000000" font-family="sans-serif" font-size="13" lengthAdjust="spacing" textLength="366" x="906" y="584.1348">res.status(400).send({ message: "Elevator already exists" })</text><polygon fill="#181818" points="456,614.1875,446,618.1875,456,622.1875,452,618.1875" style="stroke:#181818;stroke-width:1.0;"/><line style="stroke:#181818;stroke-width:1.0;stroke-dasharray:2.0,2.0;" x1="450" x2="856" y1="618.1875" y2="618.1875"/><text fill="#000000" font-family="sans-serif" font-size="13" font-weight="bold" lengthAdjust="spacing" textLength="18" x="462" y="613.4453">13</text><text fill="#000000" font-family="sans-serif" font-size="13" lengthAdjust="spacing" textLength="366" x="484" y="613.4453">res.status(400).send({ message: "Elevator already exists" })</text><polygon fill="#181818" points="97,643.498,87,647.498,97,651.498,93,647.498" style="stroke:#181818;stroke-width:1.0;"/><line style="stroke:#181818;stroke-width:1.0;stroke-dasharray:2.0,2.0;" x1="91" x2="434" y1="647.498" y2="647.498"/><text fill="#000000" font-family="sans-serif" font-size="13" font-weight="bold" lengthAdjust="spacing" textLength="18" x="103" y="642.7559">14</text><text fill="#000000" font-family="sans-serif" font-size="13" lengthAdjust="spacing" textLength="163" x="125" y="642.7559">Mostra mensagem de erro</text><polygon fill="#181818" points="2144,679.8086,2134,683.8086,2144,687.8086,2140,683.8086" style="stroke:#181818;stroke-width:1.0;"/><line style="stroke:#181818;stroke-width:1.0;stroke-dasharray:2.0,2.0;" x1="2138" x2="2340" y1="683.8086" y2="683.8086"/><text fill="#000000" font-family="sans-serif" font-size="13" font-weight="bold" lengthAdjust="spacing" textLength="18" x="2150" y="679.0664">15</text><text fill="#000000" font-family="sans-serif" font-size="13" lengthAdjust="spacing" textLength="24" x="2172" y="679.0664">null</text><polygon fill="#181818" points="2391,709.1191,2401,713.1191,2391,717.1191,2395,713.1191" style="stroke:#181818;stroke-width:1.0;"/><line style="stroke:#181818;stroke-width:1.0;" x1="2133" x2="2397" y1="713.1191" y2="713.1191"/><text fill="#000000" font-family="sans-serif" font-size="13" font-weight="bold" lengthAdjust="spacing" textLength="18" x="2140" y="708.377">16</text><text fill="#000000" font-family="sans-serif" font-size="13" lengthAdjust="spacing" textLength="101" x="2162" y="708.377">create(req.body)</text><rect fill="#E3E3E3" height="46.9766" rx="2.5" ry="2.5" style="stroke:#181818;stroke-width:0.5;" width="73" x="2403" y="691.8086"/><text fill="#000000" font-family="sans-serif" font-size="14" lengthAdjust="spacing" textLength="55" x="2412" y="712.3438">elevator</text><text fill="#000000" font-family="sans-serif" font-size="14" lengthAdjust="spacing" textLength="59" x="2410" y="728.832">:Elevator</text><polygon fill="#181818" points="2324,767.0957,2334,771.0957,2324,775.0957,2328,771.0957" style="stroke:#181818;stroke-width:1.0;"/><line style="stroke:#181818;stroke-width:1.0;" x1="2133" x2="2330" y1="771.0957" y2="771.0957"/><text fill="#000000" font-family="sans-serif" font-size="13" font-weight="bold" lengthAdjust="spacing" textLength="18" x="2140" y="766.3535">17</text><text fill="#000000" font-family="sans-serif" font-size="13" lengthAdjust="spacing" textLength="86" x="2162" y="766.3535">save(elevator)</text><polygon fill="#181818" points="1722,826.4063,1712,830.4063,1722,834.4063,1718,830.4063" style="stroke:#181818;stroke-width:1.0;"/><line style="stroke:#181818;stroke-width:1.0;stroke-dasharray:2.0,2.0;" x1="1716" x2="2127" y1="830.4063" y2="830.4063"/><text fill="#000000" font-family="sans-serif" font-size="13" font-weight="bold" lengthAdjust="spacing" textLength="18" x="1728" y="825.6641">18</text><text fill="#000000" font-family="sans-serif" font-size="13" lengthAdjust="spacing" textLength="186" x="1750" y="825.6641">res.status(201).send(elevator)</text><polygon fill="#181818" points="1300,855.7168,1290,859.7168,1300,863.7168,1296,859.7168" style="stroke:#181818;stroke-width:1.0;"/><line style="stroke:#181818;stroke-width:1.0;stroke-dasharray:2.0,2.0;" x1="1294" x2="1705" y1="859.7168" y2="859.7168"/><text fill="#000000" font-family="sans-serif" font-size="13" font-weight="bold" lengthAdjust="spacing" textLength="18" x="1306" y="854.9746">19</text><text fill="#000000" font-family="sans-serif" font-size="13" lengthAdjust="spacing" textLength="100" x="1328" y="854.9746">201 OK elevator</text><polygon fill="#181818" points="878,885.0273,868,889.0273,878,893.0273,874,889.0273" style="stroke:#181818;stroke-width:1.0;"/><line style="stroke:#181818;stroke-width:1.0;stroke-dasharray:2.0,2.0;" x1="872" x2="1283" y1="889.0273" y2="889.0273"/><text fill="#000000" font-family="sans-serif" font-size="13" font-weight="bold" lengthAdjust="spacing" textLength="18" x="884" y="884.2852">20</text><text fill="#000000" font-family="sans-serif" font-size="13" lengthAdjust="spacing" textLength="100" x="906" y="884.2852">201 OK elevator</text><polygon fill="#181818" points="456,914.3379,446,918.3379,456,922.3379,452,918.3379" style="stroke:#181818;stroke-width:1.0;"/><line style="stroke:#181818;stroke-width:1.0;stroke-dasharray:2.0,2.0;" x1="450" x2="861" y1="918.3379" y2="918.3379"/><text fill="#000000" font-family="sans-serif" font-size="13" font-weight="bold" lengthAdjust="spacing" textLength="18" x="462" y="913.5957">21</text><text fill="#000000" font-family="sans-serif" font-size="13" lengthAdjust="spacing" textLength="100" x="484" y="913.5957">201 OK elevator</text><polygon fill="#181818" points="97,943.6484,87,947.6484,97,951.6484,93,947.6484" style="stroke:#181818;stroke-width:1.0;"/><line style="stroke:#181818;stroke-width:1.0;stroke-dasharray:2.0,2.0;" x1="91" x2="439" y1="947.6484" y2="947.6484"/><text fill="#000000" font-family="sans-serif" font-size="13" font-weight="bold" lengthAdjust="spacing" textLength="18" x="103" y="942.9063">22</text><text fill="#000000" font-family="sans-serif" font-size="13" lengthAdjust="spacing" textLength="261" x="125" y="942.9063">Imprime elevador que acaba de ser criado</text><!--SRC=[lLRDJjmm4BxxAQOv9OY5BKMg554E_AX25L0rRTLANBpni5Wuzc8xsow8Xwbww0Fq4VR5Ee5DDjka45ZeAVROC_FDUBx9k7EfHzpo33AZJNfcJORWROxCLISZdfxp8IP-eX0iffxheQfVS6TSc6zI3-6KAuUCUUdfwgxHdakD5XAyo56d27kI3mkDCDcBe0UVaetNVGYFNaMCyTmRdMS3jBHElR4Gl4LNV0MPujaeTm5ZJHdqjY7OsjhTZ2j_szidEluiNSwLlEJJNzEV9eZXGCjKSZ0ZjBUomaXg9RU02iSKWYqSop7tsCKYwt07UWMw1kOO4gC8ZUSWoAy3ZIawD_rX9Mt2GIwLe7GUYDLRQAHDwnDTRdOirxMpGoDGpRS9sgCye-lAfDnBex-iGhdy6Z613ufokPHxQqH-EOlIpOAczJDakXNJuVItoDNDKnTXqCqJJUi3VMfiLk5yVvnyXFKoVsuThfxp2QxPdT5tWSmUgLTagSJumUGU_t_iLUWBEDZ2hWwpYD4QfT36n5OapVtPIMZnOfKQaekQHkTQh2cgcoUqOvdYGspFL1ZxIx2GN1oP64wb5ZkJ_Ig7uJoTBNOB7SQLhmJmuWteN2bMlt7JKXheIy5TcEgPfCZMdES-T-5cln-jETGYl8ACkX2r-XY24ZHmHOaH4y3lqddY_dNKcj5cOJs9YravB4FkfN0yccTTM-HJe-ly1peqpbjEZdJXA2lEq5f3LQr5XuAxgSlQhsIXY5kAC2Xb1B4CALXPANbNy6rjOCGakfzLZe-nOjA_UDGPslq4sUY_dBtBt6cB-R8jT647n41MuVZTdBWj5bkQsD9ywERvjYS_U_7VWUJHFyRcjBBLwtKSLxAHbHbMuo3Gr0eyvGDUc7FqaCMuACn3HwW_]--></g></svg>