<?xml version="1.0" encoding="us-ascii" standalone="no"?><svg xmlns="http://www.w3.org/2000/svg" xmlns:xlink="http://www.w3.org/1999/xlink" contentStyleType="text/css" height="751px" preserveAspectRatio="none" style="width:1799px;height:751px;background:#FFFFFF;" version="1.1" viewBox="0 0 1799 751" width="1799px" zoomAndPan="magnify"><defs/><g><text fill="#000000" font-family="sans-serif" font-size="14" font-weight="bold" lengthAdjust="spacing" textLength="340" x="728.5" y="28.5352">Container Sequence Diagram (SD) - US270 (N3)</text><rect fill="#FFFFFF" height="59.9316" style="stroke:#181818;stroke-width:1.0;" width="10" x="420" y="150.2871"/><rect fill="#FFFFFF" height="413.0137" style="stroke:#181818;stroke-width:1.0;" width="10" x="420" y="239.5293"/><rect fill="#FFFFFF" height="323.7715" style="stroke:#181818;stroke-width:1.0;" width="10" x="754" y="299.4609"/><rect fill="#FFFFFF" height="234.5293" style="stroke:#181818;stroke-width:1.0;" width="10" x="1088" y="359.3926"/><rect fill="#FFFFFF" height="175.9082" style="stroke:#181818;stroke-width:1.0;" width="10" x="1273" y="388.7031"/><rect fill="#FFFFFF" height="117.2871" style="stroke:#181818;stroke-width:1.0;" width="10" x="1458" y="418.0137"/><rect fill="#FFFFFF" height="30" style="stroke:#181818;stroke-width:1.0;" width="10" x="1736" y="505.3008"/><line style="stroke:#181818;stroke-width:0.5;stroke-dasharray:5.0,5.0;" x1="71" x2="71" y1="118.9766" y2="670.543"/><line style="stroke:#181818;stroke-width:0.5;stroke-dasharray:5.0,5.0;" x1="424.5" x2="424.5" y1="118.9766" y2="670.543"/><line style="stroke:#181818;stroke-width:0.5;stroke-dasharray:5.0,5.0;" x1="759" x2="759" y1="118.9766" y2="670.543"/><line style="stroke:#181818;stroke-width:0.5;stroke-dasharray:5.0,5.0;" x1="1092.5" x2="1092.5" y1="118.9766" y2="670.543"/><line style="stroke:#181818;stroke-width:0.5;stroke-dasharray:5.0,5.0;" x1="1277.5" x2="1277.5" y1="118.9766" y2="670.543"/><line style="stroke:#181818;stroke-width:0.5;stroke-dasharray:5.0,5.0;" x1="1462.5" x2="1462.5" y1="118.9766" y2="670.543"/><line style="stroke:#181818;stroke-width:0.5;stroke-dasharray:5.0,5.0;" x1="1642" x2="1642" y1="465.002" y2="670.543"/><line style="stroke:#181818;stroke-width:0.5;stroke-dasharray:5.0,5.0;" x1="1741" x2="1741" y1="118.9766" y2="670.543"/><text fill="#000000" font-family="sans-serif" font-size="14" lengthAdjust="spacing" textLength="126" x="5" y="116.0234">Gestor de Campus</text><ellipse cx="71" cy="50.9883" fill="#E3E3E3" rx="8" ry="8" style="stroke:#181818;stroke-width:0.5;"/><path d="M71,58.9883 L71,85.9883 M58,66.9883 L84,66.9883 M71,85.9883 L58,100.9883 M71,85.9883 L84,100.9883 " fill="none" style="stroke:#181818;stroke-width:0.5;"/><text fill="#000000" font-family="sans-serif" font-size="14" lengthAdjust="spacing" textLength="126" x="5" y="683.0781">Gestor de Campus</text><ellipse cx="71" cy="694.5313" fill="#E3E3E3" rx="8" ry="8" style="stroke:#181818;stroke-width:0.5;"/><path d="M71,702.5313 L71,729.5313 M58,710.5313 L84,710.5313 M71,729.5313 L58,744.5313 M71,729.5313 L84,744.5313 " fill="none" style="stroke:#181818;stroke-width:0.5;"/><rect fill="#E3E3E3" height="46.9766" rx="2.5" ry="2.5" style="stroke:#181818;stroke-width:0.5;" width="119" x="365.5" y="71"/><text fill="#000000" font-family="sans-serif" font-size="14" lengthAdjust="spacing" textLength="105" x="372.5" y="91.5352">&#171;C4:Container&#187;</text><text fill="#000000" font-family="sans-serif" font-size="14" lengthAdjust="spacing" textLength="89" x="380.5" y="108.0234">:Visualiza&#231;&#227;o</text><rect fill="#E3E3E3" height="46.9766" rx="2.5" ry="2.5" style="stroke:#181818;stroke-width:0.5;" width="119" x="365.5" y="669.543"/><text fill="#000000" font-family="sans-serif" font-size="14" lengthAdjust="spacing" textLength="105" x="372.5" y="690.0781">&#171;C4:Container&#187;</text><text fill="#000000" font-family="sans-serif" font-size="14" lengthAdjust="spacing" textLength="89" x="380.5" y="706.5664">:Visualiza&#231;&#227;o</text><rect fill="#E3E3E3" height="63.4648" rx="2.5" ry="2.5" style="stroke:#181818;stroke-width:0.5;" width="138" x="690" y="54.5117"/><text fill="#000000" font-family="sans-serif" font-size="14" lengthAdjust="spacing" textLength="105" x="706.5" y="75.0469">&#171;C4:Container&#187;</text><text fill="#000000" font-family="sans-serif" font-size="14" lengthAdjust="spacing" textLength="124" x="697" y="91.5352">M&#243;dulo de Gest&#227;o</text><text fill="#000000" font-family="sans-serif" font-size="14" lengthAdjust="spacing" textLength="99" x="709.5" y="108.0234">de Informa&#231;&#227;o</text><rect fill="#E3E3E3" height="63.4648" rx="2.5" ry="2.5" style="stroke:#181818;stroke-width:0.5;" width="138" x="690" y="669.543"/><text fill="#000000" font-family="sans-serif" font-size="14" lengthAdjust="spacing" textLength="105" x="706.5" y="690.0781">&#171;C4:Container&#187;</text><text fill="#000000" font-family="sans-serif" font-size="14" lengthAdjust="spacing" textLength="124" x="697" y="706.5664">M&#243;dulo de Gest&#227;o</text><text fill="#000000" font-family="sans-serif" font-size="14" lengthAdjust="spacing" textLength="99" x="709.5" y="723.0547">de Informa&#231;&#227;o</text><rect fill="#E3E3E3" height="30.4883" rx="2.5" ry="2.5" style="stroke:#181818;stroke-width:0.5;" width="109" x="1038.5" y="87.4883"/><text fill="#000000" font-family="sans-serif" font-size="14" lengthAdjust="spacing" textLength="95" x="1045.5" y="108.0234">elevatorRoute</text><rect fill="#E3E3E3" height="30.4883" rx="2.5" ry="2.5" style="stroke:#181818;stroke-width:0.5;" width="109" x="1038.5" y="669.543"/><text fill="#000000" font-family="sans-serif" font-size="14" lengthAdjust="spacing" textLength="95" x="1045.5" y="690.0781">elevatorRoute</text><rect fill="#E3E3E3" height="30.4883" rx="2.5" ry="2.5" style="stroke:#181818;stroke-width:0.5;" width="139" x="1208.5" y="87.4883"/><text fill="#000000" font-family="sans-serif" font-size="14" lengthAdjust="spacing" textLength="125" x="1215.5" y="108.0234">elevatorController</text><rect fill="#E3E3E3" height="30.4883" rx="2.5" ry="2.5" style="stroke:#181818;stroke-width:0.5;" width="139" x="1208.5" y="669.543"/><text fill="#000000" font-family="sans-serif" font-size="14" lengthAdjust="spacing" textLength="125" x="1215.5" y="690.0781">elevatorController</text><rect fill="#E3E3E3" height="30.4883" rx="2.5" ry="2.5" style="stroke:#181818;stroke-width:0.5;" width="117" x="1404.5" y="87.4883"/><text fill="#000000" font-family="sans-serif" font-size="14" lengthAdjust="spacing" textLength="103" x="1411.5" y="108.0234">elevatorService</text><rect fill="#E3E3E3" height="30.4883" rx="2.5" ry="2.5" style="stroke:#181818;stroke-width:0.5;" width="117" x="1404.5" y="669.543"/><text fill="#000000" font-family="sans-serif" font-size="14" lengthAdjust="spacing" textLength="103" x="1411.5" y="690.0781">elevatorService</text><rect fill="#E3E3E3" height="46.9766" rx="2.5" ry="2.5" style="stroke:#181818;stroke-width:0.5;" width="73" x="1606" y="669.543"/><text fill="#000000" font-family="sans-serif" font-size="14" lengthAdjust="spacing" textLength="55" x="1615" y="690.0781">elevator</text><text fill="#000000" font-family="sans-serif" font-size="14" lengthAdjust="spacing" textLength="59" x="1613" y="706.5664">:Elevator</text><rect fill="#E3E3E3" height="30.4883" rx="2.5" ry="2.5" style="stroke:#181818;stroke-width:0.5;" width="104" x="1689" y="87.4883"/><text fill="#000000" font-family="sans-serif" font-size="14" lengthAdjust="spacing" textLength="90" x="1696" y="108.0234">elevatorRepo</text><rect fill="#E3E3E3" height="30.4883" rx="2.5" ry="2.5" style="stroke:#181818;stroke-width:0.5;" width="104" x="1689" y="669.543"/><text fill="#000000" font-family="sans-serif" font-size="14" lengthAdjust="spacing" textLength="90" x="1696" y="690.0781">elevatorRepo</text><rect fill="#FFFFFF" height="59.9316" style="stroke:#181818;stroke-width:1.0;" width="10" x="420" y="150.2871"/><rect fill="#FFFFFF" height="413.0137" style="stroke:#181818;stroke-width:1.0;" width="10" x="420" y="239.5293"/><rect fill="#FFFFFF" height="323.7715" style="stroke:#181818;stroke-width:1.0;" width="10" x="754" y="299.4609"/><rect fill="#FFFFFF" height="234.5293" style="stroke:#181818;stroke-width:1.0;" width="10" x="1088" y="359.3926"/><rect fill="#FFFFFF" height="175.9082" style="stroke:#181818;stroke-width:1.0;" width="10" x="1273" y="388.7031"/><rect fill="#FFFFFF" height="117.2871" style="stroke:#181818;stroke-width:1.0;" width="10" x="1458" y="418.0137"/><rect fill="#FFFFFF" height="30" style="stroke:#181818;stroke-width:1.0;" width="10" x="1736" y="505.3008"/><polygon fill="#181818" points="408,146.2871,418,150.2871,408,154.2871,412,150.2871" style="stroke:#181818;stroke-width:1.0;"/><line style="stroke:#181818;stroke-width:1.0;" x1="71" x2="414" y1="150.2871" y2="150.2871"/><text fill="#000000" font-family="sans-serif" font-size="13" font-weight="bold" lengthAdjust="spacing" textLength="9" x="78" y="145.5449">1</text><text fill="#000000" font-family="sans-serif" font-size="13" lengthAdjust="spacing" textLength="203" x="91" y="145.5449">Inicia opera&#231;&#227;o de criar elevador</text><polygon fill="#181818" points="82,206.2188,72,210.2188,82,214.2188,78,210.2188" style="stroke:#181818;stroke-width:1.0;"/><line style="stroke:#181818;stroke-width:1.0;stroke-dasharray:2.0,2.0;" x1="76" x2="424" y1="210.2188" y2="210.2188"/><text fill="#000000" font-family="sans-serif" font-size="13" font-weight="bold" lengthAdjust="spacing" textLength="9" x="88" y="190.166">2</text><text fill="#000000" font-family="sans-serif" font-size="13" lengthAdjust="spacing" textLength="312" x="101" y="174.8555">Solicita dados necess&#225;rios (buildingId, elevatorId,</text><text fill="#000000" font-family="sans-serif" font-size="13" lengthAdjust="spacing" textLength="292" x="101" y="190.166">elevatorBrand, elevatorModel, elevatorSerNum,</text><text fill="#000000" font-family="sans-serif" font-size="13" lengthAdjust="spacing" textLength="130" x="101" y="205.4766">locationX, locationY)</text><polygon fill="#181818" points="408,235.5293,418,239.5293,408,243.5293,412,239.5293" style="stroke:#181818;stroke-width:1.0;"/><line style="stroke:#181818;stroke-width:1.0;" x1="71" x2="414" y1="239.5293" y2="239.5293"/><text fill="#000000" font-family="sans-serif" font-size="13" font-weight="bold" lengthAdjust="spacing" textLength="9" x="78" y="234.7871">3</text><text fill="#000000" font-family="sans-serif" font-size="13" lengthAdjust="spacing" textLength="168" x="91" y="234.7871">Introduz dados solicitados</text><polygon fill="#181818" points="742,295.4609,752,299.4609,742,303.4609,746,299.4609" style="stroke:#181818;stroke-width:1.0;"/><line style="stroke:#181818;stroke-width:1.0;" x1="430" x2="748" y1="299.4609" y2="299.4609"/><text fill="#000000" font-family="sans-serif" font-size="13" font-weight="bold" lengthAdjust="spacing" textLength="9" x="437" y="279.4082">4</text><text fill="#000000" font-family="sans-serif" font-size="13" lengthAdjust="spacing" textLength="253" x="450" y="264.0977">POST /elevators/ {buildingId, elevatorId,</text><text fill="#000000" font-family="sans-serif" font-size="13" lengthAdjust="spacing" textLength="292" x="450" y="279.4082">elevatorBrand, elevatorModel, elevatorSerNum,</text><text fill="#000000" font-family="sans-serif" font-size="13" lengthAdjust="spacing" textLength="130" x="450" y="294.7188">locationX, locationY}</text><polygon fill="#181818" points="1076,355.3926,1086,359.3926,1076,363.3926,1080,359.3926" style="stroke:#181818;stroke-width:1.0;"/><line style="stroke:#181818;stroke-width:1.0;" x1="764" x2="1082" y1="359.3926" y2="359.3926"/><text fill="#000000" font-family="sans-serif" font-size="13" font-weight="bold" lengthAdjust="spacing" textLength="9" x="771" y="339.3398">5</text><text fill="#000000" font-family="sans-serif" font-size="13" lengthAdjust="spacing" textLength="253" x="784" y="324.0293">POST /elevators/ {buildingId, elevatorId,</text><text fill="#000000" font-family="sans-serif" font-size="13" lengthAdjust="spacing" textLength="292" x="784" y="339.3398">elevatorBrand, elevatorModel, elevatorSerNum,</text><text fill="#000000" font-family="sans-serif" font-size="13" lengthAdjust="spacing" textLength="130" x="784" y="354.6504">locationX, locationY}</text><polygon fill="#181818" points="1261,384.7031,1271,388.7031,1261,392.7031,1265,388.7031" style="stroke:#181818;stroke-width:1.0;"/><line style="stroke:#181818;stroke-width:1.0;" x1="1098" x2="1267" y1="388.7031" y2="388.7031"/><text fill="#000000" font-family="sans-serif" font-size="13" font-weight="bold" lengthAdjust="spacing" textLength="9" x="1105" y="383.9609">6</text><text fill="#000000" font-family="sans-serif" font-size="13" lengthAdjust="spacing" textLength="143" x="1118" y="383.9609">createElevator(req, res)</text><polygon fill="#181818" points="1446,414.0137,1456,418.0137,1446,422.0137,1450,418.0137" style="stroke:#181818;stroke-width:1.0;"/><line style="stroke:#181818;stroke-width:1.0;" x1="1283" x2="1452" y1="418.0137" y2="418.0137"/><text fill="#000000" font-family="sans-serif" font-size="13" font-weight="bold" lengthAdjust="spacing" textLength="9" x="1290" y="413.2715">7</text><text fill="#000000" font-family="sans-serif" font-size="13" lengthAdjust="spacing" textLength="143" x="1303" y="413.2715">createElevator(req, res)</text><polygon fill="#181818" points="1594,443.3242,1604,447.3242,1594,451.3242,1598,447.3242" style="stroke:#181818;stroke-width:1.0;"/><line style="stroke:#181818;stroke-width:1.0;" x1="1468" x2="1600" y1="447.3242" y2="447.3242"/><text fill="#000000" font-family="sans-serif" font-size="13" font-weight="bold" lengthAdjust="spacing" textLength="9" x="1475" y="442.582">8</text><text fill="#000000" font-family="sans-serif" font-size="13" lengthAdjust="spacing" textLength="101" x="1488" y="442.582">create(req.body)</text><rect fill="#E3E3E3" height="46.9766" rx="2.5" ry="2.5" style="stroke:#181818;stroke-width:0.5;" width="73" x="1606" y="426.0137"/><text fill="#000000" font-family="sans-serif" font-size="14" lengthAdjust="spacing" textLength="55" x="1615" y="446.5488">elevator</text><text fill="#000000" font-family="sans-serif" font-size="14" lengthAdjust="spacing" textLength="59" x="1613" y="463.0371">:Elevator</text><polygon fill="#181818" points="1724,501.3008,1734,505.3008,1724,509.3008,1728,505.3008" style="stroke:#181818;stroke-width:1.0;"/><line style="stroke:#181818;stroke-width:1.0;" x1="1468" x2="1730" y1="505.3008" y2="505.3008"/><text fill="#000000" font-family="sans-serif" font-size="13" font-weight="bold" lengthAdjust="spacing" textLength="9" x="1475" y="500.5586">9</text><text fill="#000000" font-family="sans-serif" font-size="13" lengthAdjust="spacing" textLength="86" x="1488" y="500.5586">save(elevator)</text><polygon fill="#181818" points="1109,560.6113,1099,564.6113,1109,568.6113,1105,564.6113" style="stroke:#181818;stroke-width:1.0;"/><line style="stroke:#181818;stroke-width:1.0;stroke-dasharray:2.0,2.0;" x1="1103" x2="1277" y1="564.6113" y2="564.6113"/><text fill="#000000" font-family="sans-serif" font-size="13" font-weight="bold" lengthAdjust="spacing" textLength="18" x="1115" y="559.8691">10</text><text fill="#000000" font-family="sans-serif" font-size="13" lengthAdjust="spacing" textLength="100" x="1137" y="559.8691">200 OK elevator</text><polygon fill="#181818" points="775,589.9219,765,593.9219,775,597.9219,771,593.9219" style="stroke:#181818;stroke-width:1.0;"/><line style="stroke:#181818;stroke-width:1.0;stroke-dasharray:2.0,2.0;" x1="769" x2="1092" y1="593.9219" y2="593.9219"/><text fill="#000000" font-family="sans-serif" font-size="13" font-weight="bold" lengthAdjust="spacing" textLength="18" x="781" y="589.1797">11</text><text fill="#000000" font-family="sans-serif" font-size="13" lengthAdjust="spacing" textLength="100" x="803" y="589.1797">200 OK elevator</text><polygon fill="#181818" points="441,619.2324,431,623.2324,441,627.2324,437,623.2324" style="stroke:#181818;stroke-width:1.0;"/><line style="stroke:#181818;stroke-width:1.0;stroke-dasharray:2.0,2.0;" x1="435" x2="758" y1="623.2324" y2="623.2324"/><text fill="#000000" font-family="sans-serif" font-size="13" font-weight="bold" lengthAdjust="spacing" textLength="18" x="447" y="618.4902">12</text><text fill="#000000" font-family="sans-serif" font-size="13" lengthAdjust="spacing" textLength="100" x="469" y="618.4902">200 OK elevator</text><polygon fill="#181818" points="82,648.543,72,652.543,82,656.543,78,652.543" style="stroke:#181818;stroke-width:1.0;"/><line style="stroke:#181818;stroke-width:1.0;stroke-dasharray:2.0,2.0;" x1="76" x2="424" y1="652.543" y2="652.543"/><text fill="#000000" font-family="sans-serif" font-size="13" font-weight="bold" lengthAdjust="spacing" textLength="18" x="88" y="647.8008">13</text><text fill="#000000" font-family="sans-serif" font-size="13" lengthAdjust="spacing" textLength="261" x="110" y="647.8008">Imprime elevador que acaba de ser criado</text><!--SRC=[lLN1RXCn4BtxAqOvRQg4HWK9QHNbG8jGXDeY5X18kKpiQMhLQszjRr2B-1Z4WG_W4_9Zs4rskqsYiWag9y-CPvxVZ3rZToLrWHPpo8qs_DAQdC3RafYhTmhaLpYZpDye0alSevwffeExH66-IZs32rIE6FFI1zTZeprAJHOokYv9Su8JYRCOaMGdNUZ3n-pevG2Ii-TTnh3qHfVvb6oGkJSMEc_8nLK4ACoBqdKOsxH1VmITuV3uHLgVDnfDTFf9kXALlCN5hyLFqqbXh2MN2AOWkxH546ubMY15yv22ZGVBENfgWyXQ-40_ijlWd49cL63Z4KGuru4cJiujVbWPb6HQIYL2ESUYjwGMeeCyqPNoog9kx9qQGUfUpSYUbNbmLuQZbqP_xa4bVkaoGJjb-MybzzQ8ydQLfLib7UGdgFHMJgUBtw9KTrSTqmYU4ntaiRumDgzvlZlFFi1XLJzt2D-UyWg-iqUpRqEPxHaNgrHnV6zAJ_y_zphr1ppO0wr9C-PeZL9aqz2j529VhtOIIzUzC91STnFqFefjcfhmWUrSSje5UnN2rlIx5rZPmWEje3e71nLwH7qsDUAckosuBW4L9WM7SqegqnOMqQlPot-phxDkbcFzLK0AHuC1dB-jpTiGjzHuTNlxzsAxavTFPkyUQ3k-7c6oTzzk3jDXlzzockQ5bJdLlnM4JnMGunGZd0iN6NypONQTy7y0]--></g></svg>