<?xml version="1.0" encoding="us-ascii" standalone="no"?><svg xmlns="http://www.w3.org/2000/svg" xmlns:xlink="http://www.w3.org/1999/xlink" contentStyleType="text/css" height="844px" preserveAspectRatio="none" style="width:1232px;height:844px;background:#FFFFFF;" version="1.1" viewBox="0 0 1232 844" width="1232px" zoomAndPan="magnify"><defs/><g><text fill="#000000" font-family="sans-serif" font-size="14" font-weight="bold" lengthAdjust="spacing" textLength="340" x="444.75" y="28.5352">Container Sequence Diagram (SD) - US100 (N3)</text><rect fill="#FFFFFF" height="278.1055" style="stroke:#181818;stroke-width:1.0;" width="10" x="374.5" y="165.5977"/><rect fill="#FFFFFF" height="272.416" style="stroke:#181818;stroke-width:1.0;" width="10" x="374.5" y="473.0137"/><rect fill="#FFFFFF" height="204.1738" style="stroke:#181818;stroke-width:1.0;" width="10" x="528.5" y="194.9082"/><rect fill="#FFFFFF" height="213.7949" style="stroke:#181818;stroke-width:1.0;" width="10" x="528.5" y="502.3242"/><rect fill="#FFFFFF" height="145.5527" style="stroke:#181818;stroke-width:1.0;" width="10" x="752.5" y="224.2188"/><rect fill="#FFFFFF" height="124.5527" style="stroke:#181818;stroke-width:1.0;" width="10" x="752.5" y="562.2559"/><rect fill="#FFFFFF" height="86.9316" style="stroke:#181818;stroke-width:1.0;" width="10" x="982.5" y="253.5293"/><rect fill="#FFFFFF" height="32.3105" style="stroke:#181818;stroke-width:1.0;" width="10" x="982.5" y="625.1875"/><line style="stroke:#181818;stroke-width:0.5;stroke-dasharray:5.0,5.0;" x1="30" x2="30" y1="118.9766" y2="763.4297"/><line style="stroke:#181818;stroke-width:0.5;stroke-dasharray:5.0,5.0;" x1="379" x2="379" y1="118.9766" y2="763.4297"/><line style="stroke:#181818;stroke-width:0.5;stroke-dasharray:5.0,5.0;" x1="533" x2="533" y1="118.9766" y2="763.4297"/><line style="stroke:#181818;stroke-width:0.5;stroke-dasharray:5.0,5.0;" x1="757.5" x2="757.5" y1="118.9766" y2="763.4297"/><line style="stroke:#181818;stroke-width:0.5;stroke-dasharray:5.0,5.0;" x1="987.5" x2="987.5" y1="118.9766" y2="763.4297"/><text fill="#000000" font-family="sans-serif" font-size="14" lengthAdjust="spacing" textLength="45" x="5" y="116.0234">Utente</text><ellipse cx="30.5" cy="50.9883" fill="#E3E3E3" rx="8" ry="8" style="stroke:#181818;stroke-width:0.5;"/><path d="M30.5,58.9883 L30.5,85.9883 M17.5,66.9883 L43.5,66.9883 M30.5,85.9883 L17.5,100.9883 M30.5,85.9883 L43.5,100.9883 " fill="none" style="stroke:#181818;stroke-width:0.5;"/><text fill="#000000" font-family="sans-serif" font-size="14" lengthAdjust="spacing" textLength="45" x="5" y="775.9648">Utente</text><ellipse cx="30.5" cy="787.418" fill="#E3E3E3" rx="8" ry="8" style="stroke:#181818;stroke-width:0.5;"/><path d="M30.5,795.418 L30.5,822.418 M17.5,803.418 L43.5,803.418 M30.5,822.418 L17.5,837.418 M30.5,822.418 L43.5,837.418 " fill="none" style="stroke:#181818;stroke-width:0.5;"/><rect fill="#E3E3E3" height="46.9766" rx="2.5" ry="2.5" style="stroke:#181818;stroke-width:0.5;" width="119" x="320" y="71"/><text fill="#000000" font-family="sans-serif" font-size="14" lengthAdjust="spacing" textLength="105" x="327" y="91.5352">&#171;C4:Container&#187;</text><text fill="#000000" font-family="sans-serif" font-size="14" lengthAdjust="spacing" textLength="89" x="335" y="108.0234">:Visualiza&#231;&#227;o</text><rect fill="#E3E3E3" height="46.9766" rx="2.5" ry="2.5" style="stroke:#181818;stroke-width:0.5;" width="119" x="320" y="762.4297"/><text fill="#000000" font-family="sans-serif" font-size="14" lengthAdjust="spacing" textLength="105" x="327" y="782.9648">&#171;C4:Container&#187;</text><text fill="#000000" font-family="sans-serif" font-size="14" lengthAdjust="spacing" textLength="89" x="335" y="799.4531">:Visualiza&#231;&#227;o</text><rect fill="#E3E3E3" height="30.4883" rx="2.5" ry="2.5" style="stroke:#181818;stroke-width:0.5;" width="95" x="486" y="87.4883"/><text fill="#000000" font-family="sans-serif" font-size="14" lengthAdjust="spacing" textLength="81" x="493" y="108.0234">Component</text><rect fill="#E3E3E3" height="30.4883" rx="2.5" ry="2.5" style="stroke:#181818;stroke-width:0.5;" width="95" x="486" y="762.4297"/><text fill="#000000" font-family="sans-serif" font-size="14" lengthAdjust="spacing" textLength="81" x="493" y="782.9648">Component</text><rect fill="#E3E3E3" height="30.4883" rx="2.5" ry="2.5" style="stroke:#181818;stroke-width:0.5;" width="62" x="726.5" y="87.4883"/><text fill="#000000" font-family="sans-serif" font-size="14" lengthAdjust="spacing" textLength="48" x="733.5" y="108.0234">Service</text><rect fill="#E3E3E3" height="30.4883" rx="2.5" ry="2.5" style="stroke:#181818;stroke-width:0.5;" width="62" x="726.5" y="762.4297"/><text fill="#000000" font-family="sans-serif" font-size="14" lengthAdjust="spacing" textLength="48" x="733.5" y="782.9648">Service</text><rect fill="#E3E3E3" height="63.4648" rx="2.5" ry="2.5" style="stroke:#181818;stroke-width:0.5;" width="138" x="918.5" y="54.5117"/><text fill="#000000" font-family="sans-serif" font-size="14" lengthAdjust="spacing" textLength="105" x="935" y="75.0469">&#171;C4:Container&#187;</text><text fill="#000000" font-family="sans-serif" font-size="14" lengthAdjust="spacing" textLength="124" x="925.5" y="91.5352">M&#243;dulo de Gest&#227;o</text><text fill="#000000" font-family="sans-serif" font-size="14" lengthAdjust="spacing" textLength="99" x="938" y="108.0234">de Informa&#231;&#227;o</text><rect fill="#E3E3E3" height="63.4648" rx="2.5" ry="2.5" style="stroke:#181818;stroke-width:0.5;" width="138" x="918.5" y="762.4297"/><text fill="#000000" font-family="sans-serif" font-size="14" lengthAdjust="spacing" textLength="105" x="935" y="782.9648">&#171;C4:Container&#187;</text><text fill="#000000" font-family="sans-serif" font-size="14" lengthAdjust="spacing" textLength="124" x="925.5" y="799.4531">M&#243;dulo de Gest&#227;o</text><text fill="#000000" font-family="sans-serif" font-size="14" lengthAdjust="spacing" textLength="99" x="938" y="815.9414">de Informa&#231;&#227;o</text><rect fill="#FFFFFF" height="278.1055" style="stroke:#181818;stroke-width:1.0;" width="10" x="374.5" y="165.5977"/><rect fill="#FFFFFF" height="272.416" style="stroke:#181818;stroke-width:1.0;" width="10" x="374.5" y="473.0137"/><rect fill="#FFFFFF" height="204.1738" style="stroke:#181818;stroke-width:1.0;" width="10" x="528.5" y="194.9082"/><rect fill="#FFFFFF" height="213.7949" style="stroke:#181818;stroke-width:1.0;" width="10" x="528.5" y="502.3242"/><rect fill="#FFFFFF" height="145.5527" style="stroke:#181818;stroke-width:1.0;" width="10" x="752.5" y="224.2188"/><rect fill="#FFFFFF" height="124.5527" style="stroke:#181818;stroke-width:1.0;" width="10" x="752.5" y="562.2559"/><rect fill="#FFFFFF" height="86.9316" style="stroke:#181818;stroke-width:1.0;" width="10" x="982.5" y="253.5293"/><rect fill="#FFFFFF" height="32.3105" style="stroke:#181818;stroke-width:1.0;" width="10" x="982.5" y="625.1875"/><polygon fill="#181818" points="362.5,161.5977,372.5,165.5977,362.5,169.5977,366.5,165.5977" style="stroke:#181818;stroke-width:1.0;"/><line style="stroke:#181818;stroke-width:1.0;" x1="30.5" x2="368.5" y1="165.5977" y2="165.5977"/><text fill="#000000" font-family="sans-serif" font-size="13" font-weight="bold" lengthAdjust="spacing" textLength="9" x="37.5" y="153.2002">1</text><text fill="#000000" font-family="sans-serif" font-size="13" lengthAdjust="spacing" textLength="186" x="50.5" y="145.5449">Inicia opera&#231;&#227;o de retificar os</text><text fill="#000000" font-family="sans-serif" font-size="13" lengthAdjust="spacing" textLength="97" x="50.5" y="160.8555">dados pessoais</text><polygon fill="#181818" points="516.5,190.9082,526.5,194.9082,516.5,198.9082,520.5,194.9082" style="stroke:#181818;stroke-width:1.0;"/><line style="stroke:#181818;stroke-width:1.0;" x1="384.5" x2="522.5" y1="194.9082" y2="194.9082"/><text fill="#000000" font-family="sans-serif" font-size="13" font-weight="bold" lengthAdjust="spacing" textLength="9" x="391.5" y="190.166">2</text><text fill="#000000" font-family="sans-serif" font-size="13" lengthAdjust="spacing" textLength="45" x="404.5" y="190.166">ngInit()</text><polygon fill="#181818" points="740.5,220.2188,750.5,224.2188,740.5,228.2188,744.5,224.2188" style="stroke:#181818;stroke-width:1.0;"/><line style="stroke:#181818;stroke-width:1.0;" x1="538.5" x2="746.5" y1="224.2188" y2="224.2188"/><text fill="#000000" font-family="sans-serif" font-size="13" font-weight="bold" lengthAdjust="spacing" textLength="9" x="545.5" y="219.4766">3</text><text fill="#000000" font-family="sans-serif" font-size="13" lengthAdjust="spacing" textLength="62" x="558.5" y="219.4766">getRoles()</text><polygon fill="#181818" points="970.5,249.5293,980.5,253.5293,970.5,257.5293,974.5,253.5293" style="stroke:#181818;stroke-width:1.0;"/><line style="stroke:#181818;stroke-width:1.0;" x1="762.5" x2="976.5" y1="253.5293" y2="253.5293"/><text fill="#000000" font-family="sans-serif" font-size="13" font-weight="bold" lengthAdjust="spacing" textLength="9" x="769.5" y="248.7871">4</text><text fill="#000000" font-family="sans-serif" font-size="13" lengthAdjust="spacing" textLength="62" x="782.5" y="248.7871">getRoles()</text><line style="stroke:#181818;stroke-width:1.0;" x1="992.5" x2="1034.5" y1="298.1504" y2="298.1504"/><line style="stroke:#181818;stroke-width:1.0;" x1="1034.5" x2="1034.5" y1="298.1504" y2="311.1504"/><line style="stroke:#181818;stroke-width:1.0;" x1="993.5" x2="1034.5" y1="311.1504" y2="311.1504"/><polygon fill="#181818" points="1003.5,307.1504,993.5,311.1504,1003.5,315.1504,999.5,311.1504" style="stroke:#181818;stroke-width:1.0;"/><text fill="#000000" font-family="sans-serif" font-size="13" font-weight="bold" lengthAdjust="spacing" textLength="9" x="999.5" y="285.7529">5</text><text fill="#000000" font-family="sans-serif" font-size="13" lengthAdjust="spacing" textLength="137" x="1012.5" y="278.0977">middleware.rolecheck</text><text fill="#000000" font-family="sans-serif" font-size="13" lengthAdjust="spacing" textLength="128" x="1012.5" y="293.4082">("Admin" || "Utente")</text><polygon fill="#181818" points="773.5,336.4609,763.5,340.4609,773.5,344.4609,769.5,340.4609" style="stroke:#181818;stroke-width:1.0;"/><line style="stroke:#181818;stroke-width:1.0;stroke-dasharray:2.0,2.0;" x1="767.5" x2="986.5" y1="340.4609" y2="340.4609"/><text fill="#000000" font-family="sans-serif" font-size="13" font-weight="bold" lengthAdjust="spacing" textLength="9" x="779.5" y="335.7188">6</text><text fill="#000000" font-family="sans-serif" font-size="13" lengthAdjust="spacing" textLength="84" x="792.5" y="335.7188">Lista de roles</text><polygon fill="#181818" points="549.5,365.7715,539.5,369.7715,549.5,373.7715,545.5,369.7715" style="stroke:#181818;stroke-width:1.0;"/><line style="stroke:#181818;stroke-width:1.0;stroke-dasharray:2.0,2.0;" x1="543.5" x2="756.5" y1="369.7715" y2="369.7715"/><text fill="#000000" font-family="sans-serif" font-size="13" font-weight="bold" lengthAdjust="spacing" textLength="9" x="555.5" y="365.0293">7</text><text fill="#000000" font-family="sans-serif" font-size="13" lengthAdjust="spacing" textLength="84" x="568.5" y="365.0293">Lista de roles</text><polygon fill="#181818" points="395.5,395.082,385.5,399.082,395.5,403.082,391.5,399.082" style="stroke:#181818;stroke-width:1.0;"/><line style="stroke:#181818;stroke-width:1.0;stroke-dasharray:2.0,2.0;" x1="389.5" x2="532.5" y1="399.082" y2="399.082"/><text fill="#000000" font-family="sans-serif" font-size="13" font-weight="bold" lengthAdjust="spacing" textLength="9" x="401.5" y="394.3398">8</text><text fill="#000000" font-family="sans-serif" font-size="13" lengthAdjust="spacing" textLength="31" x="414.5" y="394.3398">roles</text><polygon fill="#181818" points="41.5,439.7031,31.5,443.7031,41.5,447.7031,37.5,443.7031" style="stroke:#181818;stroke-width:1.0;"/><line style="stroke:#181818;stroke-width:1.0;stroke-dasharray:2.0,2.0;" x1="35.5" x2="378.5" y1="443.7031" y2="443.7031"/><text fill="#000000" font-family="sans-serif" font-size="13" font-weight="bold" lengthAdjust="spacing" textLength="9" x="47.5" y="431.3057">9</text><text fill="#000000" font-family="sans-serif" font-size="13" lengthAdjust="spacing" textLength="307" x="60.5" y="423.6504">Solicita dados necess&#225;rios (firstName, lastName,</text><text fill="#000000" font-family="sans-serif" font-size="13" lengthAdjust="spacing" textLength="96" x="60.5" y="438.9609">password, role)</text><polygon fill="#181818" points="362.5,469.0137,372.5,473.0137,362.5,477.0137,366.5,473.0137" style="stroke:#181818;stroke-width:1.0;"/><line style="stroke:#181818;stroke-width:1.0;" x1="30.5" x2="368.5" y1="473.0137" y2="473.0137"/><text fill="#000000" font-family="sans-serif" font-size="13" font-weight="bold" lengthAdjust="spacing" textLength="18" x="37.5" y="468.2715">10</text><text fill="#000000" font-family="sans-serif" font-size="13" lengthAdjust="spacing" textLength="168" x="59.5" y="468.2715">Introduz dados solicitados</text><polygon fill="#181818" points="516.5,498.3242,526.5,502.3242,516.5,506.3242,520.5,502.3242" style="stroke:#181818;stroke-width:1.0;"/><line style="stroke:#181818;stroke-width:1.0;" x1="384.5" x2="522.5" y1="502.3242" y2="502.3242"/><text fill="#000000" font-family="sans-serif" font-size="13" font-weight="bold" lengthAdjust="spacing" textLength="18" x="391.5" y="497.582">11</text><text fill="#000000" font-family="sans-serif" font-size="13" lengthAdjust="spacing" textLength="103" x="413.5" y="497.582">updateAccount()</text><polygon fill="#181818" points="740.5,558.2559,750.5,562.2559,740.5,566.2559,744.5,562.2559" style="stroke:#181818;stroke-width:1.0;"/><line style="stroke:#181818;stroke-width:1.0;" x1="538.5" x2="746.5" y1="562.2559" y2="562.2559"/><text fill="#000000" font-family="sans-serif" font-size="13" font-weight="bold" lengthAdjust="spacing" textLength="18" x="545.5" y="542.2031">12</text><text fill="#000000" font-family="sans-serif" font-size="13" lengthAdjust="spacing" textLength="165" x="567.5" y="526.8926">updateAccount(firstName,</text><text fill="#000000" font-family="sans-serif" font-size="13" lengthAdjust="spacing" textLength="173" x="567.5" y="542.2031">lastName, email, password,</text><text fill="#000000" font-family="sans-serif" font-size="13" lengthAdjust="spacing" textLength="28" x="567.5" y="557.5137">role)</text><polygon fill="#181818" points="970.5,621.1875,980.5,625.1875,970.5,629.1875,974.5,625.1875" style="stroke:#181818;stroke-width:1.0;"/><line style="stroke:#181818;stroke-width:1.0;" x1="762.5" x2="976.5" y1="625.1875" y2="625.1875"/><text fill="#000000" font-family="sans-serif" font-size="13" font-weight="bold" lengthAdjust="spacing" textLength="18" x="769.5" y="605.1348">13</text><text fill="#000000" font-family="sans-serif" font-size="13" lengthAdjust="spacing" textLength="165" x="791.5" y="589.8242">PUT /auth/updateAccount</text><text fill="#000000" font-family="sans-serif" font-size="13" lengthAdjust="spacing" textLength="179" x="791.5" y="605.1348">{firstName, lastName, email,</text><text fill="#000000" font-family="sans-serif" font-size="13" lengthAdjust="spacing" textLength="96" x="791.5" y="620.4453">password, role}</text><path d="M997,575.2559 L997,630.2559 L1225,630.2559 L1225,585.2559 L1215,575.2559 L997,575.2559 " fill="#FAFAFA" style="stroke:#181818;stroke-width:0.5;"/><path d="M1215,575.2559 L1215,585.2559 L1225,585.2559 L1215,575.2559 " fill="#FAFAFA" style="stroke:#181818;stroke-width:0.5;"/><text fill="#000000" font-family="sans-serif" font-size="13" lengthAdjust="spacing" textLength="207" x="1003" y="592.8242">M&#243;dulo de Gest&#227;o de Informa&#231;&#227;o</text><text fill="#000000" font-family="sans-serif" font-size="13" lengthAdjust="spacing" textLength="174" x="1003" y="608.1348">&#233; a igual a qualquer um dos</text><text fill="#000000" font-family="sans-serif" font-size="13" lengthAdjust="spacing" textLength="135" x="1003" y="623.4453">use cases do Sprint A</text><polygon fill="#181818" points="773.5,653.498,763.5,657.498,773.5,661.498,769.5,657.498" style="stroke:#181818;stroke-width:1.0;"/><line style="stroke:#181818;stroke-width:1.0;stroke-dasharray:2.0,2.0;" x1="767.5" x2="986.5" y1="657.498" y2="657.498"/><text fill="#000000" font-family="sans-serif" font-size="13" font-weight="bold" lengthAdjust="spacing" textLength="18" x="779.5" y="652.7559">14</text><text fill="#000000" font-family="sans-serif" font-size="13" lengthAdjust="spacing" textLength="77" x="801.5" y="652.7559">200 OK user</text><polygon fill="#181818" points="549.5,682.8086,539.5,686.8086,549.5,690.8086,545.5,686.8086" style="stroke:#181818;stroke-width:1.0;"/><line style="stroke:#181818;stroke-width:1.0;stroke-dasharray:2.0,2.0;" x1="543.5" x2="756.5" y1="686.8086" y2="686.8086"/><text fill="#000000" font-family="sans-serif" font-size="13" font-weight="bold" lengthAdjust="spacing" textLength="18" x="555.5" y="682.0664">15</text><text fill="#000000" font-family="sans-serif" font-size="13" lengthAdjust="spacing" textLength="77" x="577.5" y="682.0664">200 OK user</text><polygon fill="#181818" points="395.5,712.1191,385.5,716.1191,395.5,720.1191,391.5,716.1191" style="stroke:#181818;stroke-width:1.0;"/><line style="stroke:#181818;stroke-width:1.0;stroke-dasharray:2.0,2.0;" x1="389.5" x2="532.5" y1="716.1191" y2="716.1191"/><text fill="#000000" font-family="sans-serif" font-size="13" font-weight="bold" lengthAdjust="spacing" textLength="18" x="401.5" y="711.377">16</text><text fill="#000000" font-family="sans-serif" font-size="13" lengthAdjust="spacing" textLength="77" x="423.5" y="711.377">200 OK user</text><polygon fill="#181818" points="41.5,741.4297,31.5,745.4297,41.5,749.4297,37.5,745.4297" style="stroke:#181818;stroke-width:1.0;"/><line style="stroke:#181818;stroke-width:1.0;stroke-dasharray:2.0,2.0;" x1="35.5" x2="378.5" y1="745.4297" y2="745.4297"/><text fill="#000000" font-family="sans-serif" font-size="13" font-weight="bold" lengthAdjust="spacing" textLength="18" x="47.5" y="740.6875">17</text><text fill="#000000" font-family="sans-serif" font-size="13" lengthAdjust="spacing" textLength="141" x="69.5" y="740.6875">Mensagem de sucesso</text><!--SRC=[jLRDRXen4BxxAKQSG88c_Jcj418YKbMrIQjkwMalhZqiLjRsnZz1JTE7gNgeUkuZy6AT9Sj2Gj8I0YTxiMVccszcFkFFbIcvungqDLPCdTK8mKLalZafkJZdEQRXQu7WK0HkycBzWfzoQMVAv33XXKV6WWfqTMHDuCgWWnGl8Xg1SA9uNbcqqvCEz62SFZy-XlRPomvZF0Phelw2ZlOYM0UjSK0JiCNOSWUz0RJw_T6hfF4z66Gc-Qnyv8MwulDVyv-sbS0ReuJYO4jqDx-1hA07DL62Ex0-Cv8mUoZHUykLhqAgInvm6_ziYpiLr97LfJM4F06J4wJGxgpYD8UisLKsARfB9J217CD7Mw1VjwaFMRq-GCVf_8-CnIBbr-W3eQ5iaJYPMAUNyEuFiACtjYkAtHD8G2if2vnnXyySvI6cACupqsuDfLQc1TVNJGDrTiUtgWWnzaxvm1UTLF7693wPjwQGwztopqZB5bXhccs7OiFNgWMtw-WgK4rf0gajQCOgb8j1CYXebEO_dAAFzaGv7ywunYuKlDvbf1RUpwoJtGMKpdy8t9YwNMGWE2lZLOtHrv1fVzXvfmh6KfBteH0scaVC_ORbYidCD5G2QgwABZI4PkQ6qSCenOVn9pWYVPuUtS86cVbsNw5hT7Vh_PqzNMUC9MEdyYb9wgO1tBcVcVbluA1oAXIj5xJGE-GWQf3L4n0zWk0UFNr2MZf5EGtteHK9lA1txVrRe0Zqd1rAA6w7sOT8m8CkLssxXsoQGUxtUjjDyYaQJ_z1TENNnqfgx6Fbuoy0]--></g></svg>