<?xml version="1.0" encoding="us-ascii" standalone="no"?><svg xmlns="http://www.w3.org/2000/svg" xmlns:xlink="http://www.w3.org/1999/xlink" contentStyleType="text/css" height="548px" preserveAspectRatio="none" style="width:991px;height:548px;background:#FFFFFF;" version="1.1" viewBox="0 0 991 548" width="991px" zoomAndPan="magnify"><defs/><g><text fill="#000000" font-family="sans-serif" font-size="14" font-weight="bold" lengthAdjust="spacing" textLength="349" x="322" y="28.5352">Container Sequence Diagram (SD) - US1060 (N3)</text><rect fill="#FFFFFF" height="329.7266" style="stroke:#181818;stroke-width:1.0;" width="10" x="66" y="128.9766"/><rect fill="#FFFFFF" height="299.416" style="stroke:#181818;stroke-width:1.0;" width="10" x="316" y="150.2871"/><rect fill="#FFFFFF" height="225.4844" style="stroke:#181818;stroke-width:1.0;" width="10" x="433" y="179.5977"/><rect fill="#FFFFFF" height="166.8633" style="stroke:#181818;stroke-width:1.0;" width="10" x="587" y="208.9082"/><rect fill="#FFFFFF" height="97.5869" style="stroke:#181818;stroke-width:1.0;" width="10" x="741" y="238.2188"/><line style="stroke:#181818;stroke-width:0.5;stroke-dasharray:5.0,5.0;" x1="71" x2="71" y1="118.9766" y2="467.7031"/><line style="stroke:#181818;stroke-width:0.5;stroke-dasharray:5.0,5.0;" x1="320.5" x2="320.5" y1="118.9766" y2="467.7031"/><line style="stroke:#181818;stroke-width:0.5;stroke-dasharray:5.0,5.0;" x1="437.5" x2="437.5" y1="118.9766" y2="467.7031"/><line style="stroke:#181818;stroke-width:0.5;stroke-dasharray:5.0,5.0;" x1="592" x2="592" y1="118.9766" y2="467.7031"/><line style="stroke:#181818;stroke-width:0.5;stroke-dasharray:5.0,5.0;" x1="746" x2="746" y1="118.9766" y2="467.7031"/><text fill="#000000" font-family="sans-serif" font-size="14" lengthAdjust="spacing" textLength="126" x="5" y="116.0234">Gestor de Campus</text><ellipse cx="71" cy="50.9883" fill="#E3E3E3" rx="8" ry="8" style="stroke:#181818;stroke-width:0.5;"/><path d="M71,58.9883 L71,85.9883 M58,66.9883 L84,66.9883 M71,85.9883 L58,100.9883 M71,85.9883 L84,100.9883 " fill="none" style="stroke:#181818;stroke-width:0.5;"/><text fill="#000000" font-family="sans-serif" font-size="14" lengthAdjust="spacing" textLength="126" x="5" y="480.2383">Gestor de Campus</text><ellipse cx="71" cy="491.6914" fill="#E3E3E3" rx="8" ry="8" style="stroke:#181818;stroke-width:0.5;"/><path d="M71,499.6914 L71,526.6914 M58,507.6914 L84,507.6914 M71,526.6914 L58,541.6914 M71,526.6914 L84,541.6914 " fill="none" style="stroke:#181818;stroke-width:0.5;"/><rect fill="#E3E3E3" height="46.9766" rx="2.5" ry="2.5" style="stroke:#181818;stroke-width:0.5;" width="119" x="261.5" y="71"/><text fill="#000000" font-family="sans-serif" font-size="14" lengthAdjust="spacing" textLength="105" x="268.5" y="91.5352">&#171;C4:Container&#187;</text><text fill="#000000" font-family="sans-serif" font-size="14" lengthAdjust="spacing" textLength="89" x="276.5" y="108.0234">:Visualiza&#231;&#227;o</text><rect fill="#E3E3E3" height="46.9766" rx="2.5" ry="2.5" style="stroke:#181818;stroke-width:0.5;" width="119" x="261.5" y="466.7031"/><text fill="#000000" font-family="sans-serif" font-size="14" lengthAdjust="spacing" textLength="105" x="268.5" y="487.2383">&#171;C4:Container&#187;</text><text fill="#000000" font-family="sans-serif" font-size="14" lengthAdjust="spacing" textLength="89" x="276.5" y="503.7266">:Visualiza&#231;&#227;o</text><rect fill="#E3E3E3" height="30.4883" rx="2.5" ry="2.5" style="stroke:#181818;stroke-width:0.5;" width="95" x="390.5" y="87.4883"/><text fill="#000000" font-family="sans-serif" font-size="14" lengthAdjust="spacing" textLength="81" x="397.5" y="108.0234">Component</text><rect fill="#E3E3E3" height="30.4883" rx="2.5" ry="2.5" style="stroke:#181818;stroke-width:0.5;" width="95" x="390.5" y="466.7031"/><text fill="#000000" font-family="sans-serif" font-size="14" lengthAdjust="spacing" textLength="81" x="397.5" y="487.2383">Component</text><rect fill="#E3E3E3" height="30.4883" rx="2.5" ry="2.5" style="stroke:#181818;stroke-width:0.5;" width="62" x="561" y="87.4883"/><text fill="#000000" font-family="sans-serif" font-size="14" lengthAdjust="spacing" textLength="48" x="568" y="108.0234">Service</text><rect fill="#E3E3E3" height="30.4883" rx="2.5" ry="2.5" style="stroke:#181818;stroke-width:0.5;" width="62" x="561" y="466.7031"/><text fill="#000000" font-family="sans-serif" font-size="14" lengthAdjust="spacing" textLength="48" x="568" y="487.2383">Service</text><rect fill="#E3E3E3" height="63.4648" rx="2.5" ry="2.5" style="stroke:#181818;stroke-width:0.5;" width="138" x="677" y="54.5117"/><text fill="#000000" font-family="sans-serif" font-size="14" lengthAdjust="spacing" textLength="105" x="693.5" y="75.0469">&#171;C4:Container&#187;</text><text fill="#000000" font-family="sans-serif" font-size="14" lengthAdjust="spacing" textLength="124" x="684" y="91.5352">M&#243;dulo de Gest&#227;o</text><text fill="#000000" font-family="sans-serif" font-size="14" lengthAdjust="spacing" textLength="99" x="696.5" y="108.0234">de Informa&#231;&#227;o</text><rect fill="#E3E3E3" height="63.4648" rx="2.5" ry="2.5" style="stroke:#181818;stroke-width:0.5;" width="138" x="677" y="466.7031"/><text fill="#000000" font-family="sans-serif" font-size="14" lengthAdjust="spacing" textLength="105" x="693.5" y="487.2383">&#171;C4:Container&#187;</text><text fill="#000000" font-family="sans-serif" font-size="14" lengthAdjust="spacing" textLength="124" x="684" y="503.7266">M&#243;dulo de Gest&#227;o</text><text fill="#000000" font-family="sans-serif" font-size="14" lengthAdjust="spacing" textLength="99" x="696.5" y="520.2148">de Informa&#231;&#227;o</text><rect fill="#FFFFFF" height="329.7266" style="stroke:#181818;stroke-width:1.0;" width="10" x="66" y="128.9766"/><rect fill="#FFFFFF" height="299.416" style="stroke:#181818;stroke-width:1.0;" width="10" x="316" y="150.2871"/><rect fill="#FFFFFF" height="225.4844" style="stroke:#181818;stroke-width:1.0;" width="10" x="433" y="179.5977"/><rect fill="#FFFFFF" height="166.8633" style="stroke:#181818;stroke-width:1.0;" width="10" x="587" y="208.9082"/><rect fill="#FFFFFF" height="97.5869" style="stroke:#181818;stroke-width:1.0;" width="10" x="741" y="238.2188"/><polygon fill="#181818" points="304,146.2871,314,150.2871,304,154.2871,308,150.2871" style="stroke:#181818;stroke-width:1.0;"/><line style="stroke:#181818;stroke-width:1.0;" x1="76" x2="310" y1="150.2871" y2="150.2871"/><text fill="#000000" font-family="sans-serif" font-size="13" font-weight="bold" lengthAdjust="spacing" textLength="9" x="83" y="145.5449">1</text><text fill="#000000" font-family="sans-serif" font-size="13" lengthAdjust="spacing" textLength="208" x="96" y="145.5449">Inicia opera&#231;&#227;o de listar edif&#237;cios</text><polygon fill="#181818" points="421,175.5977,431,179.5977,421,183.5977,425,179.5977" style="stroke:#181818;stroke-width:1.0;"/><line style="stroke:#181818;stroke-width:1.0;" x1="326" x2="427" y1="179.5977" y2="179.5977"/><text fill="#000000" font-family="sans-serif" font-size="13" font-weight="bold" lengthAdjust="spacing" textLength="9" x="333" y="174.8555">2</text><text fill="#000000" font-family="sans-serif" font-size="13" lengthAdjust="spacing" textLength="45" x="346" y="174.8555">ngInit()</text><polygon fill="#181818" points="575,204.9082,585,208.9082,575,212.9082,579,208.9082" style="stroke:#181818;stroke-width:1.0;"/><line style="stroke:#181818;stroke-width:1.0;" x1="443" x2="581" y1="208.9082" y2="208.9082"/><text fill="#000000" font-family="sans-serif" font-size="13" font-weight="bold" lengthAdjust="spacing" textLength="9" x="450" y="204.166">3</text><text fill="#000000" font-family="sans-serif" font-size="13" lengthAdjust="spacing" textLength="86" x="463" y="204.166">getBuildings()</text><polygon fill="#181818" points="729,234.2188,739,238.2188,729,242.2188,733,238.2188" style="stroke:#181818;stroke-width:1.0;"/><line style="stroke:#181818;stroke-width:1.0;" x1="597" x2="735" y1="238.2188" y2="238.2188"/><text fill="#000000" font-family="sans-serif" font-size="13" font-weight="bold" lengthAdjust="spacing" textLength="9" x="604" y="233.4766">4</text><text fill="#000000" font-family="sans-serif" font-size="13" lengthAdjust="spacing" textLength="86" x="617" y="233.4766">getBuildings()</text><line style="stroke:#181818;stroke-width:1.0;" x1="751" x2="793" y1="282.8398" y2="282.8398"/><line style="stroke:#181818;stroke-width:1.0;" x1="793" x2="793" y1="282.8398" y2="295.8398"/><line style="stroke:#181818;stroke-width:1.0;" x1="752" x2="793" y1="295.8398" y2="295.8398"/><polygon fill="#181818" points="762,291.8398,752,295.8398,762,299.8398,758,295.8398" style="stroke:#181818;stroke-width:1.0;"/><text fill="#000000" font-family="sans-serif" font-size="13" font-weight="bold" lengthAdjust="spacing" textLength="9" x="758" y="270.4424">5</text><text fill="#000000" font-family="sans-serif" font-size="13" lengthAdjust="spacing" textLength="137" x="771" y="262.7871">middleware.rolecheck</text><text fill="#000000" font-family="sans-serif" font-size="13" lengthAdjust="spacing" textLength="202" x="771" y="278.0977">("Admin" || "Gestor de Campus")</text><polygon fill="#181818" points="608,331.8057,598,335.8057,608,339.8057,604,335.8057" style="stroke:#181818;stroke-width:1.0;"/><line style="stroke:#181818;stroke-width:1.0;stroke-dasharray:2.0,2.0;" x1="602" x2="745" y1="335.8057" y2="335.8057"/><text fill="#000000" font-family="sans-serif" font-size="13" font-weight="bold" lengthAdjust="spacing" textLength="9" x="614" y="331.0635">6</text><text fill="#000000" font-family="sans-serif" font-size="13" lengthAdjust="spacing" textLength="107" x="627" y="331.0635">Lista de edif&#237;cios</text><path d="M756,308.8398 L756,348.8398 L984,348.8398 L984,318.8398 L974,308.8398 L756,308.8398 " fill="#FAFAFA" style="stroke:#181818;stroke-width:0.5;"/><path d="M974,308.8398 L974,318.8398 L984,318.8398 L974,308.8398 " fill="#FAFAFA" style="stroke:#181818;stroke-width:0.5;"/><text fill="#000000" font-family="sans-serif" font-size="13" lengthAdjust="spacing" textLength="207" x="762" y="326.4082">M&#243;dulo de Gest&#227;o de Informa&#231;&#227;o</text><text fill="#000000" font-family="sans-serif" font-size="13" lengthAdjust="spacing" textLength="184" x="762" y="341.7188">&#233; a representa&#231;&#227;o do Sprint A</text><polygon fill="#181818" points="454,371.7715,444,375.7715,454,379.7715,450,375.7715" style="stroke:#181818;stroke-width:1.0;"/><line style="stroke:#181818;stroke-width:1.0;stroke-dasharray:2.0,2.0;" x1="448" x2="591" y1="375.7715" y2="375.7715"/><text fill="#000000" font-family="sans-serif" font-size="13" font-weight="bold" lengthAdjust="spacing" textLength="9" x="460" y="371.0293">7</text><text fill="#000000" font-family="sans-serif" font-size="13" lengthAdjust="spacing" textLength="107" x="473" y="371.0293">Lista de edif&#237;cios</text><polygon fill="#181818" points="337,401.082,327,405.082,337,409.082,333,405.082" style="stroke:#181818;stroke-width:1.0;"/><line style="stroke:#181818;stroke-width:1.0;stroke-dasharray:2.0,2.0;" x1="331" x2="437" y1="405.082" y2="405.082"/><text fill="#000000" font-family="sans-serif" font-size="13" font-weight="bold" lengthAdjust="spacing" textLength="9" x="343" y="400.3398">8</text><text fill="#000000" font-family="sans-serif" font-size="13" lengthAdjust="spacing" textLength="59" x="356" y="400.3398">buildings</text><polygon fill="#181818" points="87,445.7031,77,449.7031,87,453.7031,83,449.7031" style="stroke:#181818;stroke-width:1.0;"/><line style="stroke:#181818;stroke-width:1.0;stroke-dasharray:2.0,2.0;" x1="81" x2="320" y1="449.7031" y2="449.7031"/><text fill="#000000" font-family="sans-serif" font-size="13" font-weight="bold" lengthAdjust="spacing" textLength="9" x="93" y="437.3057">9</text><text fill="#000000" font-family="sans-serif" font-size="13" lengthAdjust="spacing" textLength="151" x="106" y="429.6504">Mostra lista de edificios</text><text fill="#000000" font-family="sans-serif" font-size="13" lengthAdjust="spacing" textLength="134" x="106" y="444.9609">presentes no sistema</text><!--SRC=[fLEnRjim4Dtr5GTDzf0YHOCEGc0WTO0YG995Q2Sj5-ei7qmULP9Aq29_qw7eqAcVe1yhcLYs42UmuKuyyExTFJw-yokM5XqQC5QiMZfh28BhAFERJ8jgXGsLuRicSAG2IgF71Nw9jNrWQM21sbEM1GwnT6ub80ivAEbRHw88BXcRX9YKbrCuWI_b-zEFfp2v_J3DCko2bSxSaOkn2jP1_fbyEklO2qtR-Vmfm_SOwBNaxXMSp20_Fv-V5HioirabnLVs7Mh-WVsl_gVD2xWILenWMtBFTwc9PX_G0TMywFyejduqVN_Jx82Qn6zkJMk591GWJUGH9jFjd4qosqG9KvAxPqK5D1G-TQphABuVuzO5sVfyGuUR_c_TwQUt9kaYeqfYV2KBwyn0yUqXHtRCZcLo_2CAC5pNcXxGqJjdDQabgLKba_oYDYmvF3w-OgZfyKotVnJrkqu-Ie2HashwRnd5Hh3ZPXcTimk05_MLzBy1u_wsZdoqqM1p2sNhEDhgOckMiIltyn-yDdBeOMiNMzyDlXett9h-i1rAqtO-BsfYVN3ulCK3UqxaArbhG1x4Wey5P73Fb-oizpy0]--></g></svg>