<?xml version="1.0" encoding="us-ascii" standalone="no"?><svg xmlns="http://www.w3.org/2000/svg" xmlns:xlink="http://www.w3.org/1999/xlink" contentStyleType="text/css" height="437px" preserveAspectRatio="none" style="width:484px;height:437px;background:#FFFFFF;" version="1.1" viewBox="0 0 484 437" width="484px" zoomAndPan="magnify"><defs/><g><text fill="#000000" font-family="sans-serif" font-size="14" font-weight="bold" lengthAdjust="spacing" textLength="340" x="74.25" y="28.5352">Container Sequence Diagram (SD) - US110 (N3)</text><rect fill="#FFFFFF" height="172.5527" style="stroke:#181818;stroke-width:1.0;" width="10" x="215.5" y="165.5977"/><rect fill="#FFFFFF" height="113.9316" style="stroke:#181818;stroke-width:1.0;" width="10" x="351.5" y="194.9082"/><line style="stroke:#181818;stroke-width:0.5;stroke-dasharray:5.0,5.0;" x1="30" x2="30" y1="118.9766" y2="356.1504"/><line style="stroke:#181818;stroke-width:0.5;stroke-dasharray:5.0,5.0;" x1="220" x2="220" y1="118.9766" y2="356.1504"/><line style="stroke:#181818;stroke-width:0.5;stroke-dasharray:5.0,5.0;" x1="356" x2="356" y1="118.9766" y2="356.1504"/><text fill="#000000" font-family="sans-serif" font-size="14" lengthAdjust="spacing" textLength="45" x="5" y="116.0234">Utente</text><ellipse cx="30.5" cy="50.9883" fill="#E3E3E3" rx="8" ry="8" style="stroke:#181818;stroke-width:0.5;"/><path d="M30.5,58.9883 L30.5,85.9883 M17.5,66.9883 L43.5,66.9883 M30.5,85.9883 L17.5,100.9883 M30.5,85.9883 L43.5,100.9883 " fill="none" style="stroke:#181818;stroke-width:0.5;"/><text fill="#000000" font-family="sans-serif" font-size="14" lengthAdjust="spacing" textLength="45" x="5" y="368.6855">Utente</text><ellipse cx="30.5" cy="380.1387" fill="#E3E3E3" rx="8" ry="8" style="stroke:#181818;stroke-width:0.5;"/><path d="M30.5,388.1387 L30.5,415.1387 M17.5,396.1387 L43.5,396.1387 M30.5,415.1387 L17.5,430.1387 M30.5,415.1387 L43.5,430.1387 " fill="none" style="stroke:#181818;stroke-width:0.5;"/><rect fill="#E3E3E3" height="46.9766" rx="2.5" ry="2.5" style="stroke:#181818;stroke-width:0.5;" width="119" x="161" y="71"/><text fill="#000000" font-family="sans-serif" font-size="14" lengthAdjust="spacing" textLength="105" x="168" y="91.5352">&#171;C4:Container&#187;</text><text fill="#000000" font-family="sans-serif" font-size="14" lengthAdjust="spacing" textLength="89" x="176" y="108.0234">:Visualiza&#231;&#227;o</text><rect fill="#E3E3E3" height="46.9766" rx="2.5" ry="2.5" style="stroke:#181818;stroke-width:0.5;" width="119" x="161" y="355.1504"/><text fill="#000000" font-family="sans-serif" font-size="14" lengthAdjust="spacing" textLength="105" x="168" y="375.6855">&#171;C4:Container&#187;</text><text fill="#000000" font-family="sans-serif" font-size="14" lengthAdjust="spacing" textLength="89" x="176" y="392.1738">:Visualiza&#231;&#227;o</text><rect fill="#E3E3E3" height="30.4883" rx="2.5" ry="2.5" style="stroke:#181818;stroke-width:0.5;" width="95" x="309" y="87.4883"/><text fill="#000000" font-family="sans-serif" font-size="14" lengthAdjust="spacing" textLength="81" x="316" y="108.0234">Component</text><rect fill="#E3E3E3" height="30.4883" rx="2.5" ry="2.5" style="stroke:#181818;stroke-width:0.5;" width="95" x="309" y="355.1504"/><text fill="#000000" font-family="sans-serif" font-size="14" lengthAdjust="spacing" textLength="81" x="316" y="375.6855">Component</text><rect fill="#FFFFFF" height="172.5527" style="stroke:#181818;stroke-width:1.0;" width="10" x="215.5" y="165.5977"/><rect fill="#FFFFFF" height="113.9316" style="stroke:#181818;stroke-width:1.0;" width="10" x="351.5" y="194.9082"/><polygon fill="#181818" points="203.5,161.5977,213.5,165.5977,203.5,169.5977,207.5,165.5977" style="stroke:#181818;stroke-width:1.0;"/><line style="stroke:#181818;stroke-width:1.0;" x1="30.5" x2="209.5" y1="165.5977" y2="165.5977"/><text fill="#000000" font-family="sans-serif" font-size="13" font-weight="bold" lengthAdjust="spacing" textLength="9" x="37.5" y="153.2002">1</text><text fill="#000000" font-family="sans-serif" font-size="13" lengthAdjust="spacing" textLength="153" x="50.5" y="145.5449">Solicita c&#243;pia dos dados</text><text fill="#000000" font-family="sans-serif" font-size="13" lengthAdjust="spacing" textLength="55" x="50.5" y="160.8555">pessoais</text><polygon fill="#181818" points="339.5,190.9082,349.5,194.9082,339.5,198.9082,343.5,194.9082" style="stroke:#181818;stroke-width:1.0;"/><line style="stroke:#181818;stroke-width:1.0;" x1="225.5" x2="345.5" y1="194.9082" y2="194.9082"/><text fill="#000000" font-family="sans-serif" font-size="13" font-weight="bold" lengthAdjust="spacing" textLength="9" x="232.5" y="190.166">2</text><text fill="#000000" font-family="sans-serif" font-size="13" lengthAdjust="spacing" textLength="94" x="245.5" y="190.166">downloadInfo()</text><line style="stroke:#181818;stroke-width:1.0;" x1="361.5" x2="403.5" y1="224.2188" y2="224.2188"/><line style="stroke:#181818;stroke-width:1.0;" x1="403.5" x2="403.5" y1="224.2188" y2="237.2188"/><line style="stroke:#181818;stroke-width:1.0;" x1="362.5" x2="403.5" y1="237.2188" y2="237.2188"/><polygon fill="#181818" points="372.5,233.2188,362.5,237.2188,372.5,241.2188,368.5,237.2188" style="stroke:#181818;stroke-width:1.0;"/><text fill="#000000" font-family="sans-serif" font-size="13" font-weight="bold" lengthAdjust="spacing" textLength="9" x="368.5" y="219.4766">3</text><text fill="#000000" font-family="sans-serif" font-size="13" lengthAdjust="spacing" textLength="96" x="381.5" y="219.4766">createElement()</text><line style="stroke:#181818;stroke-width:1.0;" x1="361.5" x2="403.5" y1="266.5293" y2="266.5293"/><line style="stroke:#181818;stroke-width:1.0;" x1="403.5" x2="403.5" y1="266.5293" y2="279.5293"/><line style="stroke:#181818;stroke-width:1.0;" x1="362.5" x2="403.5" y1="279.5293" y2="279.5293"/><polygon fill="#181818" points="372.5,275.5293,362.5,279.5293,372.5,283.5293,368.5,279.5293" style="stroke:#181818;stroke-width:1.0;"/><text fill="#000000" font-family="sans-serif" font-size="13" font-weight="bold" lengthAdjust="spacing" textLength="9" x="368.5" y="261.7871">4</text><text fill="#000000" font-family="sans-serif" font-size="13" lengthAdjust="spacing" textLength="38" x="381.5" y="261.7871">click()</text><polygon fill="#181818" points="236.5,304.8398,226.5,308.8398,236.5,312.8398,232.5,308.8398" style="stroke:#181818;stroke-width:1.0;"/><line style="stroke:#181818;stroke-width:1.0;stroke-dasharray:2.0,2.0;" x1="230.5" x2="355.5" y1="308.8398" y2="308.8398"/><text fill="#000000" font-family="sans-serif" font-size="13" font-weight="bold" lengthAdjust="spacing" textLength="9" x="242.5" y="304.0977">5</text><text fill="#000000" font-family="sans-serif" font-size="13" lengthAdjust="spacing" textLength="46" x="255.5" y="304.0977">200 OK</text><polygon fill="#181818" points="41.5,334.1504,31.5,338.1504,41.5,342.1504,37.5,338.1504" style="stroke:#181818;stroke-width:1.0;"/><line style="stroke:#181818;stroke-width:1.0;stroke-dasharray:2.0,2.0;" x1="35.5" x2="219.5" y1="338.1504" y2="338.1504"/><text fill="#000000" font-family="sans-serif" font-size="13" font-weight="bold" lengthAdjust="spacing" textLength="9" x="47.5" y="333.4082">6</text><text fill="#000000" font-family="sans-serif" font-size="13" lengthAdjust="spacing" textLength="135" x="60.5" y="333.4082">Download do ficheiro</text><!--SRC=[ZP2nJiD038RtUmehKpj4Qe4fghgq30W9XgXCNSp5JQrUx71teOBNOU01U8I-65S9GWOGsMpvi_t_VpYmjEYnWKP5xTvhGn1zHoRqanRj0MiguuiZy6GZIks6GDXZfKUM6dRe0XaJEIPqfHAHXJoKzDIHM88rOttUc9JhAUImAUVp6KpkBgV6O1TLkkQHVAfjL0_P9f94oepvhY1VGhPOhAwA_lPokPNYWKE7Zb_nz7vwqwo0KXrRZWZszD4oGgK1gYGoRAMb41Gvd9_mCqOQSp59-1ywgrjfqweaiL2afqTnYjMDx7Go_VdNCyRyuCFT0godH5uxQbARTl_aair3cW-1SHabVHUp6TpVcef-KTOdliZpSP6llzmcsx1ZkoVsEhmz9kLF]--></g></svg>