<?xml version="1.0" encoding="us-ascii" standalone="no"?><svg xmlns="http://www.w3.org/2000/svg" xmlns:xlink="http://www.w3.org/1999/xlink" contentStyleType="text/css" height="278px" preserveAspectRatio="none" style="width:388px;height:278px;background:#FFFFFF;" version="1.1" viewBox="0 0 388 278" width="388px" zoomAndPan="magnify"><defs/><g><text fill="#000000" font-family="sans-serif" font-size="14" font-weight="bold" lengthAdjust="spacing" textLength="295" x="45.75" y="28.5352">System Sequence Diagram (SSD) - US110</text><rect fill="#FFFFFF" height="29.3105" style="stroke:#181818;stroke-width:1.0;" width="10" x="324.5" y="150.2871"/><line style="stroke:#181818;stroke-width:0.5;stroke-dasharray:5.0,5.0;" x1="30" x2="30" y1="118.9766" y2="197.5977"/><line style="stroke:#181818;stroke-width:0.5;stroke-dasharray:5.0,5.0;" x1="329.5" x2="329.5" y1="118.9766" y2="197.5977"/><text fill="#000000" font-family="sans-serif" font-size="14" lengthAdjust="spacing" textLength="45" x="5" y="116.0234">Utente</text><ellipse cx="30.5" cy="50.9883" fill="#E3E3E3" rx="8" ry="8" style="stroke:#181818;stroke-width:0.5;"/><path d="M30.5,58.9883 L30.5,85.9883 M17.5,66.9883 L43.5,66.9883 M30.5,85.9883 L17.5,100.9883 M30.5,85.9883 L43.5,100.9883 " fill="none" style="stroke:#181818;stroke-width:0.5;"/><text fill="#000000" font-family="sans-serif" font-size="14" lengthAdjust="spacing" textLength="45" x="5" y="210.1328">Utente</text><ellipse cx="30.5" cy="221.5859" fill="#E3E3E3" rx="8" ry="8" style="stroke:#181818;stroke-width:0.5;"/><path d="M30.5,229.5859 L30.5,256.5859 M17.5,237.5859 L43.5,237.5859 M30.5,256.5859 L17.5,271.5859 M30.5,256.5859 L43.5,271.5859 " fill="none" style="stroke:#181818;stroke-width:0.5;"/><rect fill="#E3E3E3" height="46.9766" rx="2.5" ry="2.5" style="stroke:#181818;stroke-width:0.5;" width="106" x="276.5" y="71"/><text fill="#000000" font-family="sans-serif" font-size="14" lengthAdjust="spacing" textLength="85" x="287" y="91.5352">&#171;C4:System&#187;</text><text fill="#000000" font-family="sans-serif" font-size="14" lengthAdjust="spacing" textLength="92" x="283.5" y="108.0234">:RobDroneGo</text><rect fill="#E3E3E3" height="46.9766" rx="2.5" ry="2.5" style="stroke:#181818;stroke-width:0.5;" width="106" x="276.5" y="196.5977"/><text fill="#000000" font-family="sans-serif" font-size="14" lengthAdjust="spacing" textLength="85" x="287" y="217.1328">&#171;C4:System&#187;</text><text fill="#000000" font-family="sans-serif" font-size="14" lengthAdjust="spacing" textLength="92" x="283.5" y="233.6211">:RobDroneGo</text><rect fill="#FFFFFF" height="29.3105" style="stroke:#181818;stroke-width:1.0;" width="10" x="324.5" y="150.2871"/><polygon fill="#181818" points="312.5,146.2871,322.5,150.2871,312.5,154.2871,316.5,150.2871" style="stroke:#181818;stroke-width:1.0;"/><line style="stroke:#181818;stroke-width:1.0;" x1="30.5" x2="318.5" y1="150.2871" y2="150.2871"/><text fill="#000000" font-family="sans-serif" font-size="13" font-weight="bold" lengthAdjust="spacing" textLength="9" x="37.5" y="145.5449">1</text><text fill="#000000" font-family="sans-serif" font-size="13" lengthAdjust="spacing" textLength="245" x="50.5" y="145.5449">Solicita c&#243;pia dos seus dados pessoais</text><polygon fill="#181818" points="41.5,175.5977,31.5,179.5977,41.5,183.5977,37.5,179.5977" style="stroke:#181818;stroke-width:1.0;"/><line style="stroke:#181818;stroke-width:1.0;stroke-dasharray:2.0,2.0;" x1="35.5" x2="328.5" y1="179.5977" y2="179.5977"/><text fill="#000000" font-family="sans-serif" font-size="13" font-weight="bold" lengthAdjust="spacing" textLength="9" x="47.5" y="174.8555">2</text><text fill="#000000" font-family="sans-serif" font-size="13" lengthAdjust="spacing" textLength="257" x="60.5" y="174.8555">Transfere ficheiro com os dados pedidos</text><!--SRC=[ZOqnJiH034NxEOML2ef8h4GLHMc8HC-mtJRUYPDOcnc7iSDgpyKHk1Y942mLKFb9VlfFJvncp1WXIf8mPea4bXTo-lsPCPnm86-NYI1JC4p3z5FG4JivSngWnqd9EMDRLNzHemYUNXPAWQ1b73Rznlls5ahO-ztkpZbSJD8IZvHN3YOPYhrHCYgS-o8e6oZg-k6- -XnjcaEgdkJOPadqA4K5NYOER0ZX_MrcX4uKb1Q53ZUSILMGTIlmAnhzEdVjrcNvH_WvOzAUCa7FOIJE0a4YoBNSyNfTH_zBVm00]--></g></svg>