<?xml version="1.0" encoding="us-ascii" standalone="no"?><svg xmlns="http://www.w3.org/2000/svg" xmlns:xlink="http://www.w3.org/1999/xlink" contentStyleType="text/css" height="1000px" preserveAspectRatio="none" style="width:2386px;height:1000px;background:#FFFFFF;" version="1.1" viewBox="0 0 2386 1000" width="2386px" zoomAndPan="magnify"><defs/><g><text fill="#000000" font-family="sans-serif" font-size="14" font-weight="bold" lengthAdjust="spacing" textLength="340" x="1022" y="28.5352">Container Sequence Diagram (SD) - US200 (N3)</text><rect fill="#FFFFFF" height="772.7402" style="stroke:#181818;stroke-width:1.0;" width="10" x="81" y="128.9766"/><rect fill="#FFFFFF" height="44.6211" style="stroke:#181818;stroke-width:1.0;" width="10" x="508" y="150.2871"/><rect fill="#FFFFFF" height="677.498" style="stroke:#181818;stroke-width:1.0;" width="10" x="508" y="224.2188"/><rect fill="#FFFFFF" height="603.5664" style="stroke:#181818;stroke-width:1.0;" width="10" x="891" y="268.8398"/><rect fill="#FFFFFF" height="529.6348" style="stroke:#181818;stroke-width:1.0;" width="10" x="1274" y="313.4609"/><rect fill="#FFFFFF" height="471.0137" style="stroke:#181818;stroke-width:1.0;" width="10" x="1657" y="342.7715"/><rect fill="#FFFFFF" height="412.3926" style="stroke:#181818;stroke-width:1.0;" width="10" x="2107" y="372.082"/><rect fill="#FFFFFF" height="236.4844" style="stroke:#181818;stroke-width:1.0;" width="10" x="2270" y="401.3926"/><rect fill="#FFFFFF" height="30" style="stroke:#181818;stroke-width:1.0;" width="10" x="2270" y="725.1641"/><rect fill="none" height="193.1738" style="stroke:#000000;stroke-width:1.5;" width="2316" x="10" y="416.3926"/><line style="stroke:#181818;stroke-width:0.5;stroke-dasharray:5.0,5.0;" x1="86" x2="86" y1="118.9766" y2="919.7168"/><line style="stroke:#181818;stroke-width:0.5;stroke-dasharray:5.0,5.0;" x1="512.5" x2="512.5" y1="118.9766" y2="919.7168"/><line style="stroke:#181818;stroke-width:0.5;stroke-dasharray:5.0,5.0;" x1="896" x2="896" y1="118.9766" y2="919.7168"/><line style="stroke:#181818;stroke-width:0.5;stroke-dasharray:5.0,5.0;" x1="1278.5" x2="1278.5" y1="118.9766" y2="919.7168"/><line style="stroke:#181818;stroke-width:0.5;stroke-dasharray:5.0,5.0;" x1="1661.5" x2="1661.5" y1="118.9766" y2="919.7168"/><line style="stroke:#181818;stroke-width:0.5;stroke-dasharray:5.0,5.0;" x1="2111.5" x2="2111.5" y1="118.9766" y2="919.7168"/><line style="stroke:#181818;stroke-width:0.5;stroke-dasharray:5.0,5.0;" x1="2275" x2="2275" y1="118.9766" y2="919.7168"/><line style="stroke:#181818;stroke-width:0.5;stroke-dasharray:5.0,5.0;" x1="2353" x2="2353" y1="684.8652" y2="919.7168"/><text fill="#000000" font-family="sans-serif" font-size="14" lengthAdjust="spacing" textLength="126" x="20" y="116.0234">Gestor de Campus</text><ellipse cx="86" cy="50.9883" fill="#E3E3E3" rx="8" ry="8" style="stroke:#181818;stroke-width:0.5;"/><path d="M86,58.9883 L86,85.9883 M73,66.9883 L99,66.9883 M86,85.9883 L73,100.9883 M86,85.9883 L99,100.9883 " fill="none" style="stroke:#181818;stroke-width:0.5;"/><text fill="#000000" font-family="sans-serif" font-size="14" lengthAdjust="spacing" textLength="126" x="20" y="932.252">Gestor de Campus</text><ellipse cx="86" cy="943.7051" fill="#E3E3E3" rx="8" ry="8" style="stroke:#181818;stroke-width:0.5;"/><path d="M86,951.7051 L86,978.7051 M73,959.7051 L99,959.7051 M86,978.7051 L73,993.7051 M86,978.7051 L99,993.7051 " fill="none" style="stroke:#181818;stroke-width:0.5;"/><rect fill="#E3E3E3" height="46.9766" rx="2.5" ry="2.5" style="stroke:#181818;stroke-width:0.5;" width="119" x="453.5" y="71"/><text fill="#000000" font-family="sans-serif" font-size="14" lengthAdjust="spacing" textLength="105" x="460.5" y="91.5352">&#171;C4:Container&#187;</text><text fill="#000000" font-family="sans-serif" font-size="14" lengthAdjust="spacing" textLength="89" x="468.5" y="108.0234">:Visualiza&#231;&#227;o</text><rect fill="#E3E3E3" height="46.9766" rx="2.5" ry="2.5" style="stroke:#181818;stroke-width:0.5;" width="119" x="453.5" y="918.7168"/><text fill="#000000" font-family="sans-serif" font-size="14" lengthAdjust="spacing" textLength="105" x="460.5" y="939.252">&#171;C4:Container&#187;</text><text fill="#000000" font-family="sans-serif" font-size="14" lengthAdjust="spacing" textLength="89" x="468.5" y="955.7402">:Visualiza&#231;&#227;o</text><rect fill="#E3E3E3" height="63.4648" rx="2.5" ry="2.5" style="stroke:#181818;stroke-width:0.5;" width="138" x="827" y="54.5117"/><text fill="#000000" font-family="sans-serif" font-size="14" lengthAdjust="spacing" textLength="105" x="843.5" y="75.0469">&#171;C4:Container&#187;</text><text fill="#000000" font-family="sans-serif" font-size="14" lengthAdjust="spacing" textLength="124" x="834" y="91.5352">M&#243;dulo de Gest&#227;o</text><text fill="#000000" font-family="sans-serif" font-size="14" lengthAdjust="spacing" textLength="99" x="846.5" y="108.0234">de Informa&#231;&#227;o</text><rect fill="#E3E3E3" height="63.4648" rx="2.5" ry="2.5" style="stroke:#181818;stroke-width:0.5;" width="138" x="827" y="918.7168"/><text fill="#000000" font-family="sans-serif" font-size="14" lengthAdjust="spacing" textLength="105" x="843.5" y="939.252">&#171;C4:Container&#187;</text><text fill="#000000" font-family="sans-serif" font-size="14" lengthAdjust="spacing" textLength="124" x="834" y="955.7402">M&#243;dulo de Gest&#227;o</text><text fill="#000000" font-family="sans-serif" font-size="14" lengthAdjust="spacing" textLength="99" x="846.5" y="972.2285">de Informa&#231;&#227;o</text><rect fill="#E3E3E3" height="30.4883" rx="2.5" ry="2.5" style="stroke:#181818;stroke-width:0.5;" width="87" x="1235.5" y="87.4883"/><text fill="#000000" font-family="sans-serif" font-size="14" lengthAdjust="spacing" textLength="73" x="1242.5" y="108.0234">floorRoute</text><rect fill="#E3E3E3" height="30.4883" rx="2.5" ry="2.5" style="stroke:#181818;stroke-width:0.5;" width="87" x="1235.5" y="918.7168"/><text fill="#000000" font-family="sans-serif" font-size="14" lengthAdjust="spacing" textLength="73" x="1242.5" y="939.252">floorRoute</text><rect fill="#E3E3E3" height="30.4883" rx="2.5" ry="2.5" style="stroke:#181818;stroke-width:0.5;" width="117" x="1603.5" y="87.4883"/><text fill="#000000" font-family="sans-serif" font-size="14" lengthAdjust="spacing" textLength="103" x="1610.5" y="108.0234">floorController</text><rect fill="#E3E3E3" height="30.4883" rx="2.5" ry="2.5" style="stroke:#181818;stroke-width:0.5;" width="117" x="1603.5" y="918.7168"/><text fill="#000000" font-family="sans-serif" font-size="14" lengthAdjust="spacing" textLength="103" x="1610.5" y="939.252">floorController</text><rect fill="#E3E3E3" height="30.4883" rx="2.5" ry="2.5" style="stroke:#181818;stroke-width:0.5;" width="95" x="2064.5" y="87.4883"/><text fill="#000000" font-family="sans-serif" font-size="14" lengthAdjust="spacing" textLength="81" x="2071.5" y="108.0234">floorService</text><rect fill="#E3E3E3" height="30.4883" rx="2.5" ry="2.5" style="stroke:#181818;stroke-width:0.5;" width="95" x="2064.5" y="918.7168"/><text fill="#000000" font-family="sans-serif" font-size="14" lengthAdjust="spacing" textLength="81" x="2071.5" y="939.252">floorService</text><rect fill="#E3E3E3" height="30.4883" rx="2.5" ry="2.5" style="stroke:#181818;stroke-width:0.5;" width="82" x="2234" y="87.4883"/><text fill="#000000" font-family="sans-serif" font-size="14" lengthAdjust="spacing" textLength="68" x="2241" y="108.0234">floorRepo</text><rect fill="#E3E3E3" height="30.4883" rx="2.5" ry="2.5" style="stroke:#181818;stroke-width:0.5;" width="82" x="2234" y="918.7168"/><text fill="#000000" font-family="sans-serif" font-size="14" lengthAdjust="spacing" textLength="68" x="2241" y="939.252">floorRepo</text><rect fill="#E3E3E3" height="46.9766" rx="2.5" ry="2.5" style="stroke:#181818;stroke-width:0.5;" width="54" x="2326" y="918.7168"/><text fill="#000000" font-family="sans-serif" font-size="14" lengthAdjust="spacing" textLength="33" x="2336.5" y="939.252">floor</text><text fill="#000000" font-family="sans-serif" font-size="14" lengthAdjust="spacing" textLength="40" x="2333" y="955.7402">:Floor</text><rect fill="#FFFFFF" height="772.7402" style="stroke:#181818;stroke-width:1.0;" width="10" x="81" y="128.9766"/><rect fill="#FFFFFF" height="44.6211" style="stroke:#181818;stroke-width:1.0;" width="10" x="508" y="150.2871"/><rect fill="#FFFFFF" height="677.498" style="stroke:#181818;stroke-width:1.0;" width="10" x="508" y="224.2188"/><rect fill="#FFFFFF" height="603.5664" style="stroke:#181818;stroke-width:1.0;" width="10" x="891" y="268.8398"/><rect fill="#FFFFFF" height="529.6348" style="stroke:#181818;stroke-width:1.0;" width="10" x="1274" y="313.4609"/><rect fill="#FFFFFF" height="471.0137" style="stroke:#181818;stroke-width:1.0;" width="10" x="1657" y="342.7715"/><rect fill="#FFFFFF" height="412.3926" style="stroke:#181818;stroke-width:1.0;" width="10" x="2107" y="372.082"/><rect fill="#FFFFFF" height="236.4844" style="stroke:#181818;stroke-width:1.0;" width="10" x="2270" y="401.3926"/><rect fill="#FFFFFF" height="30" style="stroke:#181818;stroke-width:1.0;" width="10" x="2270" y="725.1641"/><polygon fill="#181818" points="496,146.2871,506,150.2871,496,154.2871,500,150.2871" style="stroke:#181818;stroke-width:1.0;"/><line style="stroke:#181818;stroke-width:1.0;" x1="91" x2="502" y1="150.2871" y2="150.2871"/><text fill="#000000" font-family="sans-serif" font-size="13" font-weight="bold" lengthAdjust="spacing" textLength="9" x="98" y="145.5449">1</text><text fill="#000000" font-family="sans-serif" font-size="13" lengthAdjust="spacing" textLength="255" x="111" y="145.5449">Inicia opera&#231;&#227;o de editar piso de edif&#237;cio</text><polygon fill="#181818" points="102,190.9082,92,194.9082,102,198.9082,98,194.9082" style="stroke:#181818;stroke-width:1.0;"/><line style="stroke:#181818;stroke-width:1.0;stroke-dasharray:2.0,2.0;" x1="96" x2="512" y1="194.9082" y2="194.9082"/><text fill="#000000" font-family="sans-serif" font-size="13" font-weight="bold" lengthAdjust="spacing" textLength="9" x="108" y="182.5107">2</text><text fill="#000000" font-family="sans-serif" font-size="13" lengthAdjust="spacing" textLength="380" x="121" y="174.8555">Solicita dados necess&#225;rios (buildingId, floorId, floorNumber,</text><text fill="#000000" font-family="sans-serif" font-size="13" lengthAdjust="spacing" textLength="157" x="121" y="190.166">floorId, floorDescription)</text><polygon fill="#181818" points="496,220.2188,506,224.2188,496,228.2188,500,224.2188" style="stroke:#181818;stroke-width:1.0;"/><line style="stroke:#181818;stroke-width:1.0;" x1="91" x2="502" y1="224.2188" y2="224.2188"/><text fill="#000000" font-family="sans-serif" font-size="13" font-weight="bold" lengthAdjust="spacing" textLength="9" x="98" y="219.4766">3</text><text fill="#000000" font-family="sans-serif" font-size="13" lengthAdjust="spacing" textLength="168" x="111" y="219.4766">Introduz dados solicitados</text><polygon fill="#181818" points="879,264.8398,889,268.8398,879,272.8398,883,268.8398" style="stroke:#181818;stroke-width:1.0;"/><line style="stroke:#181818;stroke-width:1.0;" x1="518" x2="885" y1="268.8398" y2="268.8398"/><text fill="#000000" font-family="sans-serif" font-size="13" font-weight="bold" lengthAdjust="spacing" textLength="9" x="525" y="256.4424">4</text><text fill="#000000" font-family="sans-serif" font-size="13" lengthAdjust="spacing" textLength="293" x="538" y="248.7871">PUT /floors/ {buildingId, floorId, floorNumber,</text><text fill="#000000" font-family="sans-serif" font-size="13" lengthAdjust="spacing" textLength="157" x="538" y="264.0977">floorId, floorDescription}</text><polygon fill="#181818" points="1262,309.4609,1272,313.4609,1262,317.4609,1266,313.4609" style="stroke:#181818;stroke-width:1.0;"/><line style="stroke:#181818;stroke-width:1.0;" x1="901" x2="1268" y1="313.4609" y2="313.4609"/><text fill="#000000" font-family="sans-serif" font-size="13" font-weight="bold" lengthAdjust="spacing" textLength="9" x="908" y="301.0635">5</text><text fill="#000000" font-family="sans-serif" font-size="13" lengthAdjust="spacing" textLength="293" x="921" y="293.4082">PUT /floors/ {buildingId, floorId, floorNumber,</text><text fill="#000000" font-family="sans-serif" font-size="13" lengthAdjust="spacing" textLength="157" x="921" y="308.7188">floorId, floorDescription}</text><polygon fill="#181818" points="1645,338.7715,1655,342.7715,1645,346.7715,1649,342.7715" style="stroke:#181818;stroke-width:1.0;"/><line style="stroke:#181818;stroke-width:1.0;" x1="1284" x2="1651" y1="342.7715" y2="342.7715"/><text fill="#000000" font-family="sans-serif" font-size="13" font-weight="bold" lengthAdjust="spacing" textLength="9" x="1291" y="338.0293">6</text><text fill="#000000" font-family="sans-serif" font-size="13" lengthAdjust="spacing" textLength="130" x="1304" y="338.0293">updateFloor(req, res)</text><polygon fill="#181818" points="2095,368.082,2105,372.082,2095,376.082,2099,372.082" style="stroke:#181818;stroke-width:1.0;"/><line style="stroke:#181818;stroke-width:1.0;" x1="1667" x2="2101" y1="372.082" y2="372.082"/><text fill="#000000" font-family="sans-serif" font-size="13" font-weight="bold" lengthAdjust="spacing" textLength="9" x="1674" y="367.3398">7</text><text fill="#000000" font-family="sans-serif" font-size="13" lengthAdjust="spacing" textLength="130" x="1687" y="367.3398">updateFloor(req, res)</text><polygon fill="#181818" points="2258,397.3926,2268,401.3926,2258,405.3926,2262,401.3926" style="stroke:#181818;stroke-width:1.0;"/><line style="stroke:#181818;stroke-width:1.0;" x1="2117" x2="2264" y1="401.3926" y2="401.3926"/><text fill="#000000" font-family="sans-serif" font-size="13" font-weight="bold" lengthAdjust="spacing" textLength="9" x="2124" y="396.6504">8</text><text fill="#000000" font-family="sans-serif" font-size="13" lengthAdjust="spacing" textLength="121" x="2137" y="396.6504">findByFloorId(floor)</text><path d="M10,416.3926 L72,416.3926 L72,423.7031 L62,433.7031 L10,433.7031 L10,416.3926 " fill="#EEEEEE" style="stroke:#000000;stroke-width:1.5;"/><rect fill="none" height="193.1738" style="stroke:#000000;stroke-width:1.5;" width="2316" x="10" y="416.3926"/><text fill="#000000" font-family="sans-serif" font-size="13" font-weight="bold" lengthAdjust="spacing" textLength="17" x="25" y="429.9609">alt</text><text fill="#000000" font-family="sans-serif" font-size="11" font-weight="bold" lengthAdjust="spacing" textLength="109" x="87" y="429.0273">[floor == oldFloor]</text><polygon fill="#181818" points="2128,451.0137,2118,455.0137,2128,459.0137,2124,455.0137" style="stroke:#181818;stroke-width:1.0;"/><line style="stroke:#181818;stroke-width:1.0;stroke-dasharray:2.0,2.0;" x1="2122" x2="2269" y1="455.0137" y2="455.0137"/><text fill="#000000" font-family="sans-serif" font-size="13" font-weight="bold" lengthAdjust="spacing" textLength="9" x="2134" y="450.2715">9</text><text fill="#000000" font-family="sans-serif" font-size="13" lengthAdjust="spacing" textLength="30" x="2147" y="450.2715">floor</text><polygon fill="#181818" points="1678,480.3242,1668,484.3242,1678,488.3242,1674,484.3242" style="stroke:#181818;stroke-width:1.0;"/><line style="stroke:#181818;stroke-width:1.0;" x1="1672" x2="2106" y1="484.3242" y2="484.3242"/><text fill="#000000" font-family="sans-serif" font-size="13" font-weight="bold" lengthAdjust="spacing" textLength="18" x="1684" y="479.582">10</text><text fill="#000000" font-family="sans-serif" font-size="13" lengthAdjust="spacing" textLength="327" x="1706" y="479.582">res.status(400).send({ message: "Floor not found." })</text><polygon fill="#181818" points="1295,509.6348,1285,513.6348,1295,517.6348,1291,513.6348" style="stroke:#181818;stroke-width:1.0;"/><line style="stroke:#181818;stroke-width:1.0;stroke-dasharray:2.0,2.0;" x1="1289" x2="1656" y1="513.6348" y2="513.6348"/><text fill="#000000" font-family="sans-serif" font-size="13" font-weight="bold" lengthAdjust="spacing" textLength="18" x="1301" y="508.8926">11</text><text fill="#000000" font-family="sans-serif" font-size="13" lengthAdjust="spacing" textLength="327" x="1323" y="508.8926">res.status(400).send({ message: "Floor not found." })</text><polygon fill="#181818" points="912,538.9453,902,542.9453,912,546.9453,908,542.9453" style="stroke:#181818;stroke-width:1.0;"/><line style="stroke:#181818;stroke-width:1.0;stroke-dasharray:2.0,2.0;" x1="906" x2="1273" y1="542.9453" y2="542.9453"/><text fill="#000000" font-family="sans-serif" font-size="13" font-weight="bold" lengthAdjust="spacing" textLength="18" x="918" y="538.2031">12</text><text fill="#000000" font-family="sans-serif" font-size="13" lengthAdjust="spacing" textLength="327" x="940" y="538.2031">res.status(404).send({ message: "Floor not found." })</text><polygon fill="#181818" points="529,568.2559,519,572.2559,529,576.2559,525,572.2559" style="stroke:#181818;stroke-width:1.0;"/><line style="stroke:#181818;stroke-width:1.0;stroke-dasharray:2.0,2.0;" x1="523" x2="890" y1="572.2559" y2="572.2559"/><text fill="#000000" font-family="sans-serif" font-size="13" font-weight="bold" lengthAdjust="spacing" textLength="18" x="535" y="567.5137">13</text><text fill="#000000" font-family="sans-serif" font-size="13" lengthAdjust="spacing" textLength="327" x="557" y="567.5137">res.status(404).send({ message: "Floor not found." })</text><polygon fill="#181818" points="102,597.5664,92,601.5664,102,605.5664,98,601.5664" style="stroke:#181818;stroke-width:1.0;"/><line style="stroke:#181818;stroke-width:1.0;stroke-dasharray:2.0,2.0;" x1="96" x2="507" y1="601.5664" y2="601.5664"/><text fill="#000000" font-family="sans-serif" font-size="13" font-weight="bold" lengthAdjust="spacing" textLength="18" x="108" y="596.8242">14</text><text fill="#000000" font-family="sans-serif" font-size="13" lengthAdjust="spacing" textLength="172" x="130" y="596.8242">Imprime mensagem de erro</text><polygon fill="#181818" points="2128,633.877,2118,637.877,2128,641.877,2124,637.877" style="stroke:#181818;stroke-width:1.0;"/><line style="stroke:#181818;stroke-width:1.0;stroke-dasharray:2.0,2.0;" x1="2122" x2="2274" y1="637.877" y2="637.877"/><text fill="#000000" font-family="sans-serif" font-size="13" font-weight="bold" lengthAdjust="spacing" textLength="18" x="2134" y="633.1348">15</text><text fill="#000000" font-family="sans-serif" font-size="13" lengthAdjust="spacing" textLength="24" x="2156" y="633.1348">null</text><polygon fill="#181818" points="2314,663.1875,2324,667.1875,2314,671.1875,2318,667.1875" style="stroke:#181818;stroke-width:1.0;"/><line style="stroke:#181818;stroke-width:1.0;" x1="2117" x2="2320" y1="667.1875" y2="667.1875"/><text fill="#000000" font-family="sans-serif" font-size="13" font-weight="bold" lengthAdjust="spacing" textLength="18" x="2124" y="662.4453">16</text><text fill="#000000" font-family="sans-serif" font-size="13" lengthAdjust="spacing" textLength="101" x="2146" y="662.4453">create(req.body)</text><rect fill="#E3E3E3" height="46.9766" rx="2.5" ry="2.5" style="stroke:#181818;stroke-width:0.5;" width="54" x="2326" y="645.877"/><text fill="#000000" font-family="sans-serif" font-size="14" lengthAdjust="spacing" textLength="33" x="2336.5" y="666.4121">floor</text><text fill="#000000" font-family="sans-serif" font-size="14" lengthAdjust="spacing" textLength="40" x="2333" y="682.9004">:Floor</text><polygon fill="#181818" points="2258,721.1641,2268,725.1641,2258,729.1641,2262,725.1641" style="stroke:#181818;stroke-width:1.0;"/><line style="stroke:#181818;stroke-width:1.0;" x1="2117" x2="2264" y1="725.1641" y2="725.1641"/><text fill="#000000" font-family="sans-serif" font-size="13" font-weight="bold" lengthAdjust="spacing" textLength="18" x="2124" y="720.4219">17</text><text fill="#000000" font-family="sans-serif" font-size="13" lengthAdjust="spacing" textLength="106" x="2146" y="720.4219">updateOne(floor)</text><polygon fill="#181818" points="1678,780.4746,1668,784.4746,1678,788.4746,1674,784.4746" style="stroke:#181818;stroke-width:1.0;"/><line style="stroke:#181818;stroke-width:1.0;" x1="1672" x2="2111" y1="784.4746" y2="784.4746"/><text fill="#000000" font-family="sans-serif" font-size="13" font-weight="bold" lengthAdjust="spacing" textLength="18" x="1684" y="779.7324">18</text><text fill="#000000" font-family="sans-serif" font-size="13" lengthAdjust="spacing" textLength="394" x="1706" y="779.7324">res.status(201).send({ message: "Floor updated successfully" })</text><polygon fill="#181818" points="1295,809.7852,1285,813.7852,1295,817.7852,1291,813.7852" style="stroke:#181818;stroke-width:1.0;"/><line style="stroke:#181818;stroke-width:1.0;stroke-dasharray:2.0,2.0;" x1="1289" x2="1661" y1="813.7852" y2="813.7852"/><text fill="#000000" font-family="sans-serif" font-size="13" font-weight="bold" lengthAdjust="spacing" textLength="18" x="1301" y="809.043">19</text><text fill="#000000" font-family="sans-serif" font-size="13" lengthAdjust="spacing" textLength="80" x="1323" y="809.043">200 OK floor</text><polygon fill="#181818" points="912,839.0957,902,843.0957,912,847.0957,908,843.0957" style="stroke:#181818;stroke-width:1.0;"/><line style="stroke:#181818;stroke-width:1.0;stroke-dasharray:2.0,2.0;" x1="906" x2="1278" y1="843.0957" y2="843.0957"/><text fill="#000000" font-family="sans-serif" font-size="13" font-weight="bold" lengthAdjust="spacing" textLength="18" x="918" y="838.3535">20</text><text fill="#000000" font-family="sans-serif" font-size="13" lengthAdjust="spacing" textLength="80" x="940" y="838.3535">200 OK floor</text><polygon fill="#181818" points="529,868.4063,519,872.4063,529,876.4063,525,872.4063" style="stroke:#181818;stroke-width:1.0;"/><line style="stroke:#181818;stroke-width:1.0;stroke-dasharray:2.0,2.0;" x1="523" x2="895" y1="872.4063" y2="872.4063"/><text fill="#000000" font-family="sans-serif" font-size="13" font-weight="bold" lengthAdjust="spacing" textLength="18" x="535" y="867.6641">21</text><text fill="#000000" font-family="sans-serif" font-size="13" lengthAdjust="spacing" textLength="80" x="557" y="867.6641">200 OK floor</text><polygon fill="#181818" points="97,897.7168,87,901.7168,97,905.7168,93,901.7168" style="stroke:#181818;stroke-width:1.0;"/><line style="stroke:#181818;stroke-width:1.0;stroke-dasharray:2.0,2.0;" x1="91" x2="512" y1="901.7168" y2="901.7168"/><text fill="#000000" font-family="sans-serif" font-size="13" font-weight="bold" lengthAdjust="spacing" textLength="18" x="103" y="896.9746">22</text><text fill="#000000" font-family="sans-serif" font-size="13" lengthAdjust="spacing" textLength="209" x="125" y="896.9746">Apresenta mensagem de sucesso</text><!--SRC=[jLRDJjj04BxlKunyiX49AULa0L8BeeggGjMKdhWitd5OiTur-qCL40-3UkYffpv2NgoxJkea3WH3uEJzcPtvvfi_cqikIwff0OMIAhlGga2msY4nzKr9iqiwn84T2GIDcQLoAEO5p0LbwYUNGyYfC4Y8vTQB7YXfAPUeOO1N3cM6SCZfCBo81uS9TE1qiDthGNpyFY64EgkaAyvH-tLcbORe4vhmPLuLBKfdekg6NrEB3rqk7q5d7wBTtOETjCQoltycqn_SE2hu3Ht_7lzIKGfzoJDEGPMe9sT12J9kgOQIc__RVFmduseEnDEwIGiPw0ISI-XJ62ZXSLaAp1DiG6A6neplDVUR-DnnmJpfVRO9kL1ArulZYiRDCxbuV8WcqxoqNCc4C7oM5-kHQxLYxcRgXPawvTTlmEI3cBwC_p8dgYW6DxpacVJhlioLBcgSNq-_mrR5bDc2stNelIChFMi3XxpmNM2WWlDDEOklwrJjqym0cIrhom6pLaAWJi6Lp3yu2iUnngjDtpzCqb0qaoUDVQroWFgQPzXEtrIOp6zcj62fKiYvP1z7HnDNu-gYgIK84YhiP0TxUw04grwG-hugt4M0-KoYQNgU5m-xQoorpiGxlLxIDIXPV0k5hs_VQbE8AaiWbRUld6JT2EwIPNeQmLv3wpI4wzJFWlMTjjPVdETjsy-hmMhTjlj5gRcVemNAOAAefeVMYX1lUcNsI2V4V6kUPM8pewBgm8Egq4SR6oba6lsRK1RTSyL6oQe2cDJHYSGLoTyAnwhCtkwzUvJk2G06ncLXgENUyL55VDFgGZK_clkGGlYLEFayBS2cbcQFMJlTdp8uwOvldjoFONZnr5aUyxkTJZii7qeVU_GY2udl0-pZgvxxmp4l_i1_u3y0]--></g></svg>