<?xml version="1.0" encoding="us-ascii" standalone="no"?><svg xmlns="http://www.w3.org/2000/svg" xmlns:xlink="http://www.w3.org/1999/xlink" contentStyleType="text/css" height="711px" preserveAspectRatio="none" style="width:1093px;height:711px;background:#FFFFFF;" version="1.1" viewBox="0 0 1093 711" width="1093px" zoomAndPan="magnify"><defs/><g><text fill="#000000" font-family="sans-serif" font-size="14" font-weight="bold" lengthAdjust="spacing" textLength="349" x="373" y="28.5352">Container Sequence Diagram (SD) - US1080 (N3)</text><rect fill="#FFFFFF" height="492.2793" style="stroke:#181818;stroke-width:1.0;" width="10" x="66" y="128.9766"/><rect fill="#FFFFFF" height="314.1055" style="stroke:#181818;stroke-width:1.0;" width="10" x="335" y="165.5977"/><rect fill="#FFFFFF" height="103.2422" style="stroke:#181818;stroke-width:1.0;" width="10" x="335" y="509.0137"/><rect fill="#FFFFFF" height="255.4844" style="stroke:#181818;stroke-width:1.0;" width="10" x="535" y="194.9082"/><rect fill="#FFFFFF" height="29.3105" style="stroke:#181818;stroke-width:1.0;" width="10" x="535" y="538.3242"/><rect fill="#FFFFFF" height="166.8633" style="stroke:#181818;stroke-width:1.0;" width="10" x="689" y="254.2188"/><rect fill="#FFFFFF" height="97.5869" style="stroke:#181818;stroke-width:1.0;" width="10" x="843" y="283.5293"/><line style="stroke:#181818;stroke-width:0.5;stroke-dasharray:5.0,5.0;" x1="71" x2="71" y1="118.9766" y2="630.2559"/><line style="stroke:#181818;stroke-width:0.5;stroke-dasharray:5.0,5.0;" x1="339.5" x2="339.5" y1="118.9766" y2="630.2559"/><line style="stroke:#181818;stroke-width:0.5;stroke-dasharray:5.0,5.0;" x1="539.5" x2="539.5" y1="118.9766" y2="630.2559"/><line style="stroke:#181818;stroke-width:0.5;stroke-dasharray:5.0,5.0;" x1="694" x2="694" y1="118.9766" y2="630.2559"/><line style="stroke:#181818;stroke-width:0.5;stroke-dasharray:5.0,5.0;" x1="848" x2="848" y1="118.9766" y2="630.2559"/><text fill="#000000" font-family="sans-serif" font-size="14" lengthAdjust="spacing" textLength="126" x="5" y="116.0234">Gestor de Campus</text><ellipse cx="71" cy="50.9883" fill="#E3E3E3" rx="8" ry="8" style="stroke:#181818;stroke-width:0.5;"/><path d="M71,58.9883 L71,85.9883 M58,66.9883 L84,66.9883 M71,85.9883 L58,100.9883 M71,85.9883 L84,100.9883 " fill="none" style="stroke:#181818;stroke-width:0.5;"/><text fill="#000000" font-family="sans-serif" font-size="14" lengthAdjust="spacing" textLength="126" x="5" y="642.791">Gestor de Campus</text><ellipse cx="71" cy="654.2441" fill="#E3E3E3" rx="8" ry="8" style="stroke:#181818;stroke-width:0.5;"/><path d="M71,662.2441 L71,689.2441 M58,670.2441 L84,670.2441 M71,689.2441 L58,704.2441 M71,689.2441 L84,704.2441 " fill="none" style="stroke:#181818;stroke-width:0.5;"/><rect fill="#E3E3E3" height="46.9766" rx="2.5" ry="2.5" style="stroke:#181818;stroke-width:0.5;" width="119" x="280.5" y="71"/><text fill="#000000" font-family="sans-serif" font-size="14" lengthAdjust="spacing" textLength="105" x="287.5" y="91.5352">&#171;C4:Container&#187;</text><text fill="#000000" font-family="sans-serif" font-size="14" lengthAdjust="spacing" textLength="89" x="295.5" y="108.0234">:Visualiza&#231;&#227;o</text><rect fill="#E3E3E3" height="46.9766" rx="2.5" ry="2.5" style="stroke:#181818;stroke-width:0.5;" width="119" x="280.5" y="629.2559"/><text fill="#000000" font-family="sans-serif" font-size="14" lengthAdjust="spacing" textLength="105" x="287.5" y="649.791">&#171;C4:Container&#187;</text><text fill="#000000" font-family="sans-serif" font-size="14" lengthAdjust="spacing" textLength="89" x="295.5" y="666.2793">:Visualiza&#231;&#227;o</text><rect fill="#E3E3E3" height="30.4883" rx="2.5" ry="2.5" style="stroke:#181818;stroke-width:0.5;" width="95" x="492.5" y="87.4883"/><text fill="#000000" font-family="sans-serif" font-size="14" lengthAdjust="spacing" textLength="81" x="499.5" y="108.0234">Component</text><rect fill="#E3E3E3" height="30.4883" rx="2.5" ry="2.5" style="stroke:#181818;stroke-width:0.5;" width="95" x="492.5" y="629.2559"/><text fill="#000000" font-family="sans-serif" font-size="14" lengthAdjust="spacing" textLength="81" x="499.5" y="649.791">Component</text><rect fill="#E3E3E3" height="30.4883" rx="2.5" ry="2.5" style="stroke:#181818;stroke-width:0.5;" width="62" x="663" y="87.4883"/><text fill="#000000" font-family="sans-serif" font-size="14" lengthAdjust="spacing" textLength="48" x="670" y="108.0234">Service</text><rect fill="#E3E3E3" height="30.4883" rx="2.5" ry="2.5" style="stroke:#181818;stroke-width:0.5;" width="62" x="663" y="629.2559"/><text fill="#000000" font-family="sans-serif" font-size="14" lengthAdjust="spacing" textLength="48" x="670" y="649.791">Service</text><rect fill="#E3E3E3" height="63.4648" rx="2.5" ry="2.5" style="stroke:#181818;stroke-width:0.5;" width="138" x="779" y="54.5117"/><text fill="#000000" font-family="sans-serif" font-size="14" lengthAdjust="spacing" textLength="105" x="795.5" y="75.0469">&#171;C4:Container&#187;</text><text fill="#000000" font-family="sans-serif" font-size="14" lengthAdjust="spacing" textLength="124" x="786" y="91.5352">M&#243;dulo de Gest&#227;o</text><text fill="#000000" font-family="sans-serif" font-size="14" lengthAdjust="spacing" textLength="99" x="798.5" y="108.0234">de Informa&#231;&#227;o</text><rect fill="#E3E3E3" height="63.4648" rx="2.5" ry="2.5" style="stroke:#181818;stroke-width:0.5;" width="138" x="779" y="629.2559"/><text fill="#000000" font-family="sans-serif" font-size="14" lengthAdjust="spacing" textLength="105" x="795.5" y="649.791">&#171;C4:Container&#187;</text><text fill="#000000" font-family="sans-serif" font-size="14" lengthAdjust="spacing" textLength="124" x="786" y="666.2793">M&#243;dulo de Gest&#227;o</text><text fill="#000000" font-family="sans-serif" font-size="14" lengthAdjust="spacing" textLength="99" x="798.5" y="682.7676">de Informa&#231;&#227;o</text><rect fill="#FFFFFF" height="492.2793" style="stroke:#181818;stroke-width:1.0;" width="10" x="66" y="128.9766"/><rect fill="#FFFFFF" height="314.1055" style="stroke:#181818;stroke-width:1.0;" width="10" x="335" y="165.5977"/><rect fill="#FFFFFF" height="103.2422" style="stroke:#181818;stroke-width:1.0;" width="10" x="335" y="509.0137"/><rect fill="#FFFFFF" height="255.4844" style="stroke:#181818;stroke-width:1.0;" width="10" x="535" y="194.9082"/><rect fill="#FFFFFF" height="29.3105" style="stroke:#181818;stroke-width:1.0;" width="10" x="535" y="538.3242"/><rect fill="#FFFFFF" height="166.8633" style="stroke:#181818;stroke-width:1.0;" width="10" x="689" y="254.2188"/><rect fill="#FFFFFF" height="97.5869" style="stroke:#181818;stroke-width:1.0;" width="10" x="843" y="283.5293"/><polygon fill="#181818" points="323,161.5977,333,165.5977,323,169.5977,327,165.5977" style="stroke:#181818;stroke-width:1.0;"/><line style="stroke:#181818;stroke-width:1.0;" x1="76" x2="329" y1="165.5977" y2="165.5977"/><text fill="#000000" font-family="sans-serif" font-size="13" font-weight="bold" lengthAdjust="spacing" textLength="9" x="83" y="153.2002">1</text><text fill="#000000" font-family="sans-serif" font-size="13" lengthAdjust="spacing" textLength="208" x="96" y="145.5449">Inicia opera&#231;&#227;o de listar edif&#237;cios</text><text fill="#000000" font-family="sans-serif" font-size="13" lengthAdjust="spacing" textLength="202" x="96" y="160.8555">com m&#237;nimo e m&#225;ximo de pisos</text><polygon fill="#181818" points="523,190.9082,533,194.9082,523,198.9082,527,194.9082" style="stroke:#181818;stroke-width:1.0;"/><line style="stroke:#181818;stroke-width:1.0;" x1="345" x2="529" y1="194.9082" y2="194.9082"/><text fill="#000000" font-family="sans-serif" font-size="13" font-weight="bold" lengthAdjust="spacing" textLength="9" x="352" y="190.166">2</text><text fill="#000000" font-family="sans-serif" font-size="13" lengthAdjust="spacing" textLength="45" x="365" y="190.166">ngInit()</text><polygon fill="#181818" points="677,250.2188,687,254.2188,677,258.2188,681,254.2188" style="stroke:#181818;stroke-width:1.0;"/><line style="stroke:#181818;stroke-width:1.0;" x1="545" x2="683" y1="254.2188" y2="254.2188"/><text fill="#000000" font-family="sans-serif" font-size="13" font-weight="bold" lengthAdjust="spacing" textLength="9" x="552" y="249.4766">3</text><text fill="#000000" font-family="sans-serif" font-size="13" lengthAdjust="spacing" textLength="86" x="565" y="249.4766">getBuildings()</text><polygon fill="#181818" points="831,279.5293,841,283.5293,831,287.5293,835,283.5293" style="stroke:#181818;stroke-width:1.0;"/><line style="stroke:#181818;stroke-width:1.0;" x1="699" x2="837" y1="283.5293" y2="283.5293"/><text fill="#000000" font-family="sans-serif" font-size="13" font-weight="bold" lengthAdjust="spacing" textLength="9" x="706" y="278.7871">4</text><text fill="#000000" font-family="sans-serif" font-size="13" lengthAdjust="spacing" textLength="86" x="719" y="278.7871">getBuildings()</text><line style="stroke:#181818;stroke-width:1.0;" x1="853" x2="895" y1="328.1504" y2="328.1504"/><line style="stroke:#181818;stroke-width:1.0;" x1="895" x2="895" y1="328.1504" y2="341.1504"/><line style="stroke:#181818;stroke-width:1.0;" x1="854" x2="895" y1="341.1504" y2="341.1504"/><polygon fill="#181818" points="864,337.1504,854,341.1504,864,345.1504,860,341.1504" style="stroke:#181818;stroke-width:1.0;"/><text fill="#000000" font-family="sans-serif" font-size="13" font-weight="bold" lengthAdjust="spacing" textLength="9" x="860" y="315.7529">5</text><text fill="#000000" font-family="sans-serif" font-size="13" lengthAdjust="spacing" textLength="137" x="873" y="308.0977">middleware.rolecheck</text><text fill="#000000" font-family="sans-serif" font-size="13" lengthAdjust="spacing" textLength="202" x="873" y="323.4082">("Admin" || "Gestor de Campus")</text><polygon fill="#181818" points="710,377.1162,700,381.1162,710,385.1162,706,381.1162" style="stroke:#181818;stroke-width:1.0;"/><line style="stroke:#181818;stroke-width:1.0;stroke-dasharray:2.0,2.0;" x1="704" x2="847" y1="381.1162" y2="381.1162"/><text fill="#000000" font-family="sans-serif" font-size="13" font-weight="bold" lengthAdjust="spacing" textLength="9" x="716" y="376.374">6</text><text fill="#000000" font-family="sans-serif" font-size="13" lengthAdjust="spacing" textLength="107" x="729" y="376.374">Lista de edificios</text><path d="M858,354.1504 L858,394.1504 L1086,394.1504 L1086,364.1504 L1076,354.1504 L858,354.1504 " fill="#FAFAFA" style="stroke:#181818;stroke-width:0.5;"/><path d="M1076,354.1504 L1076,364.1504 L1086,364.1504 L1076,354.1504 " fill="#FAFAFA" style="stroke:#181818;stroke-width:0.5;"/><text fill="#000000" font-family="sans-serif" font-size="13" lengthAdjust="spacing" textLength="207" x="864" y="371.7188">M&#243;dulo de Gest&#227;o de Informa&#231;&#227;o</text><text fill="#000000" font-family="sans-serif" font-size="13" lengthAdjust="spacing" textLength="184" x="864" y="387.0293">&#233; a representa&#231;&#227;o do Sprint A</text><polygon fill="#181818" points="556,417.082,546,421.082,556,425.082,552,421.082" style="stroke:#181818;stroke-width:1.0;"/><line style="stroke:#181818;stroke-width:1.0;stroke-dasharray:2.0,2.0;" x1="550" x2="693" y1="421.082" y2="421.082"/><text fill="#000000" font-family="sans-serif" font-size="13" font-weight="bold" lengthAdjust="spacing" textLength="9" x="562" y="416.3398">7</text><text fill="#000000" font-family="sans-serif" font-size="13" lengthAdjust="spacing" textLength="107" x="575" y="416.3398">Lista de edificios</text><polygon fill="#181818" points="356,446.3926,346,450.3926,356,454.3926,352,450.3926" style="stroke:#181818;stroke-width:1.0;"/><line style="stroke:#181818;stroke-width:1.0;stroke-dasharray:2.0,2.0;" x1="350" x2="539" y1="450.3926" y2="450.3926"/><text fill="#000000" font-family="sans-serif" font-size="13" font-weight="bold" lengthAdjust="spacing" textLength="9" x="362" y="445.6504">8</text><text fill="#000000" font-family="sans-serif" font-size="13" lengthAdjust="spacing" textLength="59" x="375" y="445.6504">buildings</text><polygon fill="#181818" points="87,475.7031,77,479.7031,87,483.7031,83,479.7031" style="stroke:#181818;stroke-width:1.0;"/><line style="stroke:#181818;stroke-width:1.0;stroke-dasharray:2.0,2.0;" x1="81" x2="339" y1="479.7031" y2="479.7031"/><text fill="#000000" font-family="sans-serif" font-size="13" font-weight="bold" lengthAdjust="spacing" textLength="9" x="93" y="474.9609">9</text><text fill="#000000" font-family="sans-serif" font-size="13" lengthAdjust="spacing" textLength="221" x="106" y="474.9609">Solicita m&#225;ximo e minimo de pisos</text><polygon fill="#181818" points="323,505.0137,333,509.0137,323,513.0137,327,509.0137" style="stroke:#181818;stroke-width:1.0;"/><line style="stroke:#181818;stroke-width:1.0;" x1="76" x2="329" y1="509.0137" y2="509.0137"/><text fill="#000000" font-family="sans-serif" font-size="13" font-weight="bold" lengthAdjust="spacing" textLength="18" x="83" y="504.2715">10</text><text fill="#000000" font-family="sans-serif" font-size="13" lengthAdjust="spacing" textLength="168" x="105" y="504.2715">Introduz dados solicitados</text><polygon fill="#181818" points="523,534.3242,533,538.3242,523,542.3242,527,538.3242" style="stroke:#181818;stroke-width:1.0;"/><line style="stroke:#181818;stroke-width:1.0;" x1="345" x2="529" y1="538.3242" y2="538.3242"/><text fill="#000000" font-family="sans-serif" font-size="13" font-weight="bold" lengthAdjust="spacing" textLength="18" x="352" y="533.582">11</text><text fill="#000000" font-family="sans-serif" font-size="13" lengthAdjust="spacing" textLength="149" x="374" y="533.582">filterBuildingsByFloors()</text><polygon fill="#181818" points="356,563.6348,346,567.6348,356,571.6348,352,567.6348" style="stroke:#181818;stroke-width:1.0;"/><line style="stroke:#181818;stroke-width:1.0;stroke-dasharray:2.0,2.0;" x1="350" x2="539" y1="567.6348" y2="567.6348"/><text fill="#000000" font-family="sans-serif" font-size="13" font-weight="bold" lengthAdjust="spacing" textLength="18" x="362" y="562.8926">12</text><text fill="#000000" font-family="sans-serif" font-size="13" lengthAdjust="spacing" textLength="59" x="384" y="562.8926">buildings</text><polygon fill="#181818" points="87,608.2559,77,612.2559,87,616.2559,83,612.2559" style="stroke:#181818;stroke-width:1.0;"/><line style="stroke:#181818;stroke-width:1.0;stroke-dasharray:2.0,2.0;" x1="81" x2="339" y1="612.2559" y2="612.2559"/><text fill="#000000" font-family="sans-serif" font-size="13" font-weight="bold" lengthAdjust="spacing" textLength="18" x="93" y="599.8584">13</text><text fill="#000000" font-family="sans-serif" font-size="13" lengthAdjust="spacing" textLength="213" x="115" y="592.2031">Lista de edificios com os crit&#233;rios</text><text fill="#000000" font-family="sans-serif" font-size="13" lengthAdjust="spacing" textLength="50" x="115" y="607.5137">pedidos</text><!--SRC=[jLNDRjD04BxxAKO-9OUW8ZWWAuhKfW9L0YuMd7BPxawSKTOxPdVTqgelWpYW7dhY4VnYx8RQIR4f8T2JL_EttyvytzYjoLJ2YX9ADYnNbai4RsjCNEUfX5oB0dD_fH4iIYzCeNS3t4eelYHJm59eXqdYoOVGEHiloA2573_LQ2J2AOaYPepoqp5Cu4F-_EZL4OpUlnWdYQWzcxeyHnlEqhE5z0sw-5MXbYYhsgKR3rq8ZqFElWacCqYdq_dBh0CpcorCzf5SBJHTY-PRyvNJ3CuCIHB05TgVjbX4a_F20YfQDdUIs2sCvD2fvivGoO3XzELpF8NOYXox7NH_lZJP8oRYdtDPiK7ZCp15mEb7u-qzdJDHs1bpj1SaCUcSiSoz4J8eq9_Kf5KOcDkjrQObRUXmyzurtrMjDu-E_Gum5oQSpyoIRTdY_lqj1rPC3aLo-2CoA4afZPV2uZFB6kKAvNfXHkcnAicaS7CpmCBnuKYtKyhWRUHUZ8_ieqY-tGaVsaJ38TbIiGfawYV0B_4Bqzo229AlBBf0erOP37bbAT3gU4kLXqHz7Fq0F_VJQQ3LUSkftO9R5UmdgdXRRt0PvAm3rW2yrNLGE9a70dzy1Zs9_zjAyfPLVGqgR5S7xXwSUker4vgy9EtHTl8zkNgjcQqRNZnFCCN_mFI1nayda_qwtsSlnBqVFvPySsitlu8gUDNVK-87]--></g></svg>