<?xml version="1.0" encoding="us-ascii" standalone="no"?><svg xmlns="http://www.w3.org/2000/svg" xmlns:xlink="http://www.w3.org/1999/xlink" contentStyleType="text/css" height="484px" preserveAspectRatio="none" style="width:638px;height:484px;background:#FFFFFF;" version="1.1" viewBox="0 0 638 484" width="638px" zoomAndPan="magnify"><defs/><g><text fill="#000000" font-family="sans-serif" font-size="14" font-weight="bold" lengthAdjust="spacing" textLength="357" x="139.5" y="28.5352">Container Sequence Diagram (SSD) - US1080 (N2)</text><rect fill="#FFFFFF" height="256.1055" style="stroke:#181818;stroke-width:1.0;" width="10" x="66" y="128.9766"/><rect fill="#FFFFFF" height="103.2422" style="stroke:#181818;stroke-width:1.0;" width="10" x="372" y="165.5977"/><rect fill="#FFFFFF" height="86.9316" style="stroke:#181818;stroke-width:1.0;" width="10" x="372" y="298.1504"/><rect fill="#FFFFFF" height="29.3105" style="stroke:#181818;stroke-width:1.0;" width="10" x="558" y="194.9082"/><line style="stroke:#181818;stroke-width:0.5;stroke-dasharray:5.0,5.0;" x1="71" x2="71" y1="118.9766" y2="403.082"/><line style="stroke:#181818;stroke-width:0.5;stroke-dasharray:5.0,5.0;" x1="376.5" x2="376.5" y1="118.9766" y2="403.082"/><line style="stroke:#181818;stroke-width:0.5;stroke-dasharray:5.0,5.0;" x1="563" x2="563" y1="118.9766" y2="403.082"/><text fill="#000000" font-family="sans-serif" font-size="14" lengthAdjust="spacing" textLength="126" x="5" y="116.0234">Gestor de Campus</text><ellipse cx="71" cy="50.9883" fill="#E3E3E3" rx="8" ry="8" style="stroke:#181818;stroke-width:0.5;"/><path d="M71,58.9883 L71,85.9883 M58,66.9883 L84,66.9883 M71,85.9883 L58,100.9883 M71,85.9883 L84,100.9883 " fill="none" style="stroke:#181818;stroke-width:0.5;"/><text fill="#000000" font-family="sans-serif" font-size="14" lengthAdjust="spacing" textLength="126" x="5" y="415.6172">Gestor de Campus</text><ellipse cx="71" cy="427.0703" fill="#E3E3E3" rx="8" ry="8" style="stroke:#181818;stroke-width:0.5;"/><path d="M71,435.0703 L71,462.0703 M58,443.0703 L84,443.0703 M71,462.0703 L58,477.0703 M71,462.0703 L84,477.0703 " fill="none" style="stroke:#181818;stroke-width:0.5;"/><rect fill="#E3E3E3" height="46.9766" rx="2.5" ry="2.5" style="stroke:#181818;stroke-width:0.5;" width="119" x="317.5" y="71"/><text fill="#000000" font-family="sans-serif" font-size="14" lengthAdjust="spacing" textLength="105" x="324.5" y="91.5352">&#171;C4:Container&#187;</text><text fill="#000000" font-family="sans-serif" font-size="14" lengthAdjust="spacing" textLength="89" x="332.5" y="108.0234">:Visualiza&#231;&#227;o</text><rect fill="#E3E3E3" height="46.9766" rx="2.5" ry="2.5" style="stroke:#181818;stroke-width:0.5;" width="119" x="317.5" y="402.082"/><text fill="#000000" font-family="sans-serif" font-size="14" lengthAdjust="spacing" textLength="105" x="324.5" y="422.6172">&#171;C4:Container&#187;</text><text fill="#000000" font-family="sans-serif" font-size="14" lengthAdjust="spacing" textLength="89" x="332.5" y="439.1055">:Visualiza&#231;&#227;o</text><rect fill="#E3E3E3" height="63.4648" rx="2.5" ry="2.5" style="stroke:#181818;stroke-width:0.5;" width="138" x="494" y="54.5117"/><text fill="#000000" font-family="sans-serif" font-size="14" lengthAdjust="spacing" textLength="105" x="510.5" y="75.0469">&#171;C4:Container&#187;</text><text fill="#000000" font-family="sans-serif" font-size="14" lengthAdjust="spacing" textLength="124" x="501" y="91.5352">M&#243;dulo de Gest&#227;o</text><text fill="#000000" font-family="sans-serif" font-size="14" lengthAdjust="spacing" textLength="99" x="513.5" y="108.0234">de Informa&#231;&#227;o</text><rect fill="#E3E3E3" height="63.4648" rx="2.5" ry="2.5" style="stroke:#181818;stroke-width:0.5;" width="138" x="494" y="402.082"/><text fill="#000000" font-family="sans-serif" font-size="14" lengthAdjust="spacing" textLength="105" x="510.5" y="422.6172">&#171;C4:Container&#187;</text><text fill="#000000" font-family="sans-serif" font-size="14" lengthAdjust="spacing" textLength="124" x="501" y="439.1055">M&#243;dulo de Gest&#227;o</text><text fill="#000000" font-family="sans-serif" font-size="14" lengthAdjust="spacing" textLength="99" x="513.5" y="455.5938">de Informa&#231;&#227;o</text><rect fill="#FFFFFF" height="256.1055" style="stroke:#181818;stroke-width:1.0;" width="10" x="66" y="128.9766"/><rect fill="#FFFFFF" height="103.2422" style="stroke:#181818;stroke-width:1.0;" width="10" x="372" y="165.5977"/><rect fill="#FFFFFF" height="86.9316" style="stroke:#181818;stroke-width:1.0;" width="10" x="372" y="298.1504"/><rect fill="#FFFFFF" height="29.3105" style="stroke:#181818;stroke-width:1.0;" width="10" x="558" y="194.9082"/><polygon fill="#181818" points="360,161.5977,370,165.5977,360,169.5977,364,165.5977" style="stroke:#181818;stroke-width:1.0;"/><line style="stroke:#181818;stroke-width:1.0;" x1="76" x2="366" y1="165.5977" y2="165.5977"/><text fill="#000000" font-family="sans-serif" font-size="13" font-weight="bold" lengthAdjust="spacing" textLength="9" x="83" y="153.2002">1</text><text fill="#000000" font-family="sans-serif" font-size="13" lengthAdjust="spacing" textLength="246" x="96" y="145.5449">Requesita a listagem dos edif&#237;cios com</text><text fill="#000000" font-family="sans-serif" font-size="13" lengthAdjust="spacing" textLength="171" x="96" y="160.8555">m&#225;ximo e m&#237;nimo de pisos</text><polygon fill="#181818" points="546,190.9082,556,194.9082,546,198.9082,550,194.9082" style="stroke:#181818;stroke-width:1.0;"/><line style="stroke:#181818;stroke-width:1.0;" x1="382" x2="552" y1="194.9082" y2="194.9082"/><text fill="#000000" font-family="sans-serif" font-size="13" font-weight="bold" lengthAdjust="spacing" textLength="9" x="389" y="190.166">2</text><text fill="#000000" font-family="sans-serif" font-size="13" lengthAdjust="spacing" textLength="101" x="402" y="190.166">GET /buildings/</text><polygon fill="#181818" points="393,220.2188,383,224.2188,393,228.2188,389,224.2188" style="stroke:#181818;stroke-width:1.0;"/><line style="stroke:#181818;stroke-width:1.0;stroke-dasharray:2.0,2.0;" x1="387" x2="562" y1="224.2188" y2="224.2188"/><text fill="#000000" font-family="sans-serif" font-size="13" font-weight="bold" lengthAdjust="spacing" textLength="9" x="399" y="219.4766">3</text><text fill="#000000" font-family="sans-serif" font-size="13" lengthAdjust="spacing" textLength="109" x="412" y="219.4766">200 OK buildings</text><polygon fill="#181818" points="87,264.8398,77,268.8398,87,272.8398,83,268.8398" style="stroke:#181818;stroke-width:1.0;"/><line style="stroke:#181818;stroke-width:1.0;" x1="81" x2="376" y1="268.8398" y2="268.8398"/><text fill="#000000" font-family="sans-serif" font-size="13" font-weight="bold" lengthAdjust="spacing" textLength="9" x="93" y="256.4424">4</text><text fill="#000000" font-family="sans-serif" font-size="13" lengthAdjust="spacing" textLength="191" x="106" y="248.7871">Solicita informa&#231;&#227;o necess&#225;ria</text><text fill="#000000" font-family="sans-serif" font-size="13" lengthAdjust="spacing" textLength="259" x="106" y="264.0977">para a listagem dos edif&#237;cios (max e min)</text><polygon fill="#181818" points="360,294.1504,370,298.1504,360,302.1504,364,298.1504" style="stroke:#181818;stroke-width:1.0;"/><line style="stroke:#181818;stroke-width:1.0;" x1="76" x2="366" y1="298.1504" y2="298.1504"/><text fill="#000000" font-family="sans-serif" font-size="13" font-weight="bold" lengthAdjust="spacing" textLength="9" x="83" y="293.4082">5</text><text fill="#000000" font-family="sans-serif" font-size="13" lengthAdjust="spacing" textLength="183" x="96" y="293.4082">Apresenta dados necess&#225;rios</text><line style="stroke:#181818;stroke-width:1.0;" x1="382" x2="424" y1="327.4609" y2="327.4609"/><line style="stroke:#181818;stroke-width:1.0;" x1="424" x2="424" y1="327.4609" y2="340.4609"/><line style="stroke:#181818;stroke-width:1.0;" x1="383" x2="424" y1="340.4609" y2="340.4609"/><polygon fill="#181818" points="393,336.4609,383,340.4609,393,344.4609,389,340.4609" style="stroke:#181818;stroke-width:1.0;"/><text fill="#000000" font-family="sans-serif" font-size="13" font-weight="bold" lengthAdjust="spacing" textLength="9" x="389" y="322.7188">6</text><text fill="#000000" font-family="sans-serif" font-size="13" lengthAdjust="spacing" textLength="149" x="402" y="322.7188">filterBuildingsByFloors()</text><polygon fill="#181818" points="82,381.082,72,385.082,82,389.082,78,385.082" style="stroke:#181818;stroke-width:1.0;"/><line style="stroke:#181818;stroke-width:1.0;stroke-dasharray:2.0,2.0;" x1="76" x2="376" y1="385.082" y2="385.082"/><text fill="#000000" font-family="sans-serif" font-size="13" font-weight="bold" lengthAdjust="spacing" textLength="9" x="88" y="372.6846">7</text><text fill="#000000" font-family="sans-serif" font-size="13" lengthAdjust="spacing" textLength="160" x="101" y="365.0293">Imprime lista de edif&#237;cios</text><text fill="#000000" font-family="sans-serif" font-size="13" lengthAdjust="spacing" textLength="188" x="101" y="380.3398">com os par&#226;metros desejados</text><!--SRC=[lLHDRnD13Btlhx1oIWwhfXK754MHQ0jLXGeI2vpsuiuugUbyRCUpqF9l2WTEEVKdx1zZ9X9ff4tRK0bEQwtVsCz-RqOksJKOq8BrpgkBu2r132qLiiuqg2vnGLMyCGI1L4ItC9i0kK3jlx5Rm1oDK554ZWbwv5r4TXIWegkMd28uPbpa4yEgEXv12P-g_V7BCGpV7OoA0jleNMlFAQHOHHzWS4AIlpeLGzkqCbXb-2j6sfRi_u9o1eFfzEZ5PCrcDglTv3DBYuQ_O_Uh- -a74_YGAGf710J34jF05hGN8CtpRgauXShRsjdkzfgj1mBRBLsEKhU6nSi6jQSx5ZjW7Y1_rjtfrgpwvdaJidOfFdLp7-nwe9FN7s7ll6MZap2ozoYvNIeMppm7vQuI78p7yFujh3aNclu5wQrRxXbd0fKthB8XUACYE58aqjq6ndfb_qVyChHudNt2RlJ4B7rtFD_9hvf0GWa26ZEXUyR_pw9zLdCsaSBX7sqFRzuOxuCCHzj6dPRbRbLFRHCulLWh1NA5- -tNBbrNIFCdaReVbc98iKwR-PAtyhTwRCBxxyvl]--></g></svg>