<?xml version="1.0" encoding="us-ascii" standalone="no"?><svg xmlns="http://www.w3.org/2000/svg" xmlns:xlink="http://www.w3.org/1999/xlink" contentStyleType="text/css" height="813px" preserveAspectRatio="none" style="width:1376px;height:813px;background:#FFFFFF;" version="1.1" viewBox="0 0 1376 813" width="1376px" zoomAndPan="magnify"><defs/><g><text fill="#000000" font-family="sans-serif" font-size="14" font-weight="bold" lengthAdjust="spacing" textLength="376" x="501.25" y="28.5352">Container Sequence Diagram (SD) - US020-070 (N3)</text><rect fill="#FFFFFF" height="262.7949" style="stroke:#181818;stroke-width:1.0;" width="10" x="318.5" y="150.2871"/><rect fill="#FFFFFF" height="272.416" style="stroke:#181818;stroke-width:1.0;" width="10" x="318.5" y="442.3926"/><rect fill="#FFFFFF" height="204.1738" style="stroke:#181818;stroke-width:1.0;" width="10" x="523.5" y="179.5977"/><rect fill="#FFFFFF" height="198.4844" style="stroke:#181818;stroke-width:1.0;" width="10" x="523.5" y="471.7031"/><rect fill="#FFFFFF" height="145.5527" style="stroke:#181818;stroke-width:1.0;" width="10" x="896.5" y="208.9082"/><rect fill="#FFFFFF" height="139.8633" style="stroke:#181818;stroke-width:1.0;" width="10" x="896.5" y="501.0137"/><rect fill="#FFFFFF" height="86.9316" style="stroke:#181818;stroke-width:1.0;" width="10" x="1126.5" y="238.2188"/><rect fill="#FFFFFF" height="39.9658" style="stroke:#181818;stroke-width:1.0;" width="10" x="1126.5" y="560.9453"/><line style="stroke:#181818;stroke-width:0.5;stroke-dasharray:5.0,5.0;" x1="63" x2="63" y1="118.9766" y2="732.8086"/><line style="stroke:#181818;stroke-width:0.5;stroke-dasharray:5.0,5.0;" x1="323" x2="323" y1="118.9766" y2="732.8086"/><line style="stroke:#181818;stroke-width:0.5;stroke-dasharray:5.0,5.0;" x1="528" x2="528" y1="118.9766" y2="732.8086"/><line style="stroke:#181818;stroke-width:0.5;stroke-dasharray:5.0,5.0;" x1="901.5" x2="901.5" y1="118.9766" y2="732.8086"/><line style="stroke:#181818;stroke-width:0.5;stroke-dasharray:5.0,5.0;" x1="1131.5" x2="1131.5" y1="118.9766" y2="732.8086"/><text fill="#000000" font-family="sans-serif" font-size="14" lengthAdjust="spacing" textLength="111" x="5" y="116.0234">Potencial Utente</text><ellipse cx="63.5" cy="50.9883" fill="#E3E3E3" rx="8" ry="8" style="stroke:#181818;stroke-width:0.5;"/><path d="M63.5,58.9883 L63.5,85.9883 M50.5,66.9883 L76.5,66.9883 M63.5,85.9883 L50.5,100.9883 M63.5,85.9883 L76.5,100.9883 " fill="none" style="stroke:#181818;stroke-width:0.5;"/><text fill="#000000" font-family="sans-serif" font-size="14" lengthAdjust="spacing" textLength="111" x="5" y="745.3438">Potencial Utente</text><ellipse cx="63.5" cy="756.7969" fill="#E3E3E3" rx="8" ry="8" style="stroke:#181818;stroke-width:0.5;"/><path d="M63.5,764.7969 L63.5,791.7969 M50.5,772.7969 L76.5,772.7969 M63.5,791.7969 L50.5,806.7969 M63.5,791.7969 L76.5,806.7969 " fill="none" style="stroke:#181818;stroke-width:0.5;"/><rect fill="#E3E3E3" height="46.9766" rx="2.5" ry="2.5" style="stroke:#181818;stroke-width:0.5;" width="119" x="264" y="71"/><text fill="#000000" font-family="sans-serif" font-size="14" lengthAdjust="spacing" textLength="105" x="271" y="91.5352">&#171;C4:Container&#187;</text><text fill="#000000" font-family="sans-serif" font-size="14" lengthAdjust="spacing" textLength="89" x="279" y="108.0234">:Visualiza&#231;&#227;o</text><rect fill="#E3E3E3" height="46.9766" rx="2.5" ry="2.5" style="stroke:#181818;stroke-width:0.5;" width="119" x="264" y="731.8086"/><text fill="#000000" font-family="sans-serif" font-size="14" lengthAdjust="spacing" textLength="105" x="271" y="752.3438">&#171;C4:Container&#187;</text><text fill="#000000" font-family="sans-serif" font-size="14" lengthAdjust="spacing" textLength="89" x="279" y="768.832">:Visualiza&#231;&#227;o</text><rect fill="#E3E3E3" height="30.4883" rx="2.5" ry="2.5" style="stroke:#181818;stroke-width:0.5;" width="95" x="481" y="87.4883"/><text fill="#000000" font-family="sans-serif" font-size="14" lengthAdjust="spacing" textLength="81" x="488" y="108.0234">Component</text><rect fill="#E3E3E3" height="30.4883" rx="2.5" ry="2.5" style="stroke:#181818;stroke-width:0.5;" width="95" x="481" y="731.8086"/><text fill="#000000" font-family="sans-serif" font-size="14" lengthAdjust="spacing" textLength="81" x="488" y="752.3438">Component</text><rect fill="#E3E3E3" height="30.4883" rx="2.5" ry="2.5" style="stroke:#181818;stroke-width:0.5;" width="62" x="870.5" y="87.4883"/><text fill="#000000" font-family="sans-serif" font-size="14" lengthAdjust="spacing" textLength="48" x="877.5" y="108.0234">Service</text><rect fill="#E3E3E3" height="30.4883" rx="2.5" ry="2.5" style="stroke:#181818;stroke-width:0.5;" width="62" x="870.5" y="731.8086"/><text fill="#000000" font-family="sans-serif" font-size="14" lengthAdjust="spacing" textLength="48" x="877.5" y="752.3438">Service</text><rect fill="#E3E3E3" height="63.4648" rx="2.5" ry="2.5" style="stroke:#181818;stroke-width:0.5;" width="138" x="1062.5" y="54.5117"/><text fill="#000000" font-family="sans-serif" font-size="14" lengthAdjust="spacing" textLength="105" x="1079" y="75.0469">&#171;C4:Container&#187;</text><text fill="#000000" font-family="sans-serif" font-size="14" lengthAdjust="spacing" textLength="124" x="1069.5" y="91.5352">M&#243;dulo de Gest&#227;o</text><text fill="#000000" font-family="sans-serif" font-size="14" lengthAdjust="spacing" textLength="99" x="1082" y="108.0234">de Informa&#231;&#227;o</text><rect fill="#E3E3E3" height="63.4648" rx="2.5" ry="2.5" style="stroke:#181818;stroke-width:0.5;" width="138" x="1062.5" y="731.8086"/><text fill="#000000" font-family="sans-serif" font-size="14" lengthAdjust="spacing" textLength="105" x="1079" y="752.3438">&#171;C4:Container&#187;</text><text fill="#000000" font-family="sans-serif" font-size="14" lengthAdjust="spacing" textLength="124" x="1069.5" y="768.832">M&#243;dulo de Gest&#227;o</text><text fill="#000000" font-family="sans-serif" font-size="14" lengthAdjust="spacing" textLength="99" x="1082" y="785.3203">de Informa&#231;&#227;o</text><rect fill="#FFFFFF" height="262.7949" style="stroke:#181818;stroke-width:1.0;" width="10" x="318.5" y="150.2871"/><rect fill="#FFFFFF" height="272.416" style="stroke:#181818;stroke-width:1.0;" width="10" x="318.5" y="442.3926"/><rect fill="#FFFFFF" height="204.1738" style="stroke:#181818;stroke-width:1.0;" width="10" x="523.5" y="179.5977"/><rect fill="#FFFFFF" height="198.4844" style="stroke:#181818;stroke-width:1.0;" width="10" x="523.5" y="471.7031"/><rect fill="#FFFFFF" height="145.5527" style="stroke:#181818;stroke-width:1.0;" width="10" x="896.5" y="208.9082"/><rect fill="#FFFFFF" height="139.8633" style="stroke:#181818;stroke-width:1.0;" width="10" x="896.5" y="501.0137"/><rect fill="#FFFFFF" height="86.9316" style="stroke:#181818;stroke-width:1.0;" width="10" x="1126.5" y="238.2188"/><rect fill="#FFFFFF" height="39.9658" style="stroke:#181818;stroke-width:1.0;" width="10" x="1126.5" y="560.9453"/><polygon fill="#181818" points="306.5,146.2871,316.5,150.2871,306.5,154.2871,310.5,150.2871" style="stroke:#181818;stroke-width:1.0;"/><line style="stroke:#181818;stroke-width:1.0;" x1="63.5" x2="312.5" y1="150.2871" y2="150.2871"/><text fill="#000000" font-family="sans-serif" font-size="13" font-weight="bold" lengthAdjust="spacing" textLength="9" x="70.5" y="145.5449">1</text><text fill="#000000" font-family="sans-serif" font-size="13" lengthAdjust="spacing" textLength="167" x="83.5" y="145.5449">Inicia opera&#231;&#227;o de registro</text><polygon fill="#181818" points="511.5,175.5977,521.5,179.5977,511.5,183.5977,515.5,179.5977" style="stroke:#181818;stroke-width:1.0;"/><line style="stroke:#181818;stroke-width:1.0;" x1="328.5" x2="517.5" y1="179.5977" y2="179.5977"/><text fill="#000000" font-family="sans-serif" font-size="13" font-weight="bold" lengthAdjust="spacing" textLength="9" x="335.5" y="174.8555">2</text><text fill="#000000" font-family="sans-serif" font-size="13" lengthAdjust="spacing" textLength="45" x="348.5" y="174.8555">ngInit()</text><polygon fill="#181818" points="884.5,204.9082,894.5,208.9082,884.5,212.9082,888.5,208.9082" style="stroke:#181818;stroke-width:1.0;"/><line style="stroke:#181818;stroke-width:1.0;" x1="533.5" x2="890.5" y1="208.9082" y2="208.9082"/><text fill="#000000" font-family="sans-serif" font-size="13" font-weight="bold" lengthAdjust="spacing" textLength="9" x="540.5" y="204.166">3</text><text fill="#000000" font-family="sans-serif" font-size="13" lengthAdjust="spacing" textLength="62" x="553.5" y="204.166">getRoles()</text><polygon fill="#181818" points="1114.5,234.2188,1124.5,238.2188,1114.5,242.2188,1118.5,238.2188" style="stroke:#181818;stroke-width:1.0;"/><line style="stroke:#181818;stroke-width:1.0;" x1="906.5" x2="1120.5" y1="238.2188" y2="238.2188"/><text fill="#000000" font-family="sans-serif" font-size="13" font-weight="bold" lengthAdjust="spacing" textLength="9" x="913.5" y="233.4766">4</text><text fill="#000000" font-family="sans-serif" font-size="13" lengthAdjust="spacing" textLength="62" x="926.5" y="233.4766">getRoles()</text><line style="stroke:#181818;stroke-width:1.0;" x1="1136.5" x2="1178.5" y1="282.8398" y2="282.8398"/><line style="stroke:#181818;stroke-width:1.0;" x1="1178.5" x2="1178.5" y1="282.8398" y2="295.8398"/><line style="stroke:#181818;stroke-width:1.0;" x1="1137.5" x2="1178.5" y1="295.8398" y2="295.8398"/><polygon fill="#181818" points="1147.5,291.8398,1137.5,295.8398,1147.5,299.8398,1143.5,295.8398" style="stroke:#181818;stroke-width:1.0;"/><text fill="#000000" font-family="sans-serif" font-size="13" font-weight="bold" lengthAdjust="spacing" textLength="9" x="1143.5" y="270.4424">5</text><text fill="#000000" font-family="sans-serif" font-size="13" lengthAdjust="spacing" textLength="137" x="1156.5" y="262.7871">middleware.rolecheck</text><text fill="#000000" font-family="sans-serif" font-size="13" lengthAdjust="spacing" textLength="189" x="1156.5" y="278.0977">("Admin" || "Potencial Utente")</text><polygon fill="#181818" points="917.5,321.1504,907.5,325.1504,917.5,329.1504,913.5,325.1504" style="stroke:#181818;stroke-width:1.0;"/><line style="stroke:#181818;stroke-width:1.0;stroke-dasharray:2.0,2.0;" x1="911.5" x2="1130.5" y1="325.1504" y2="325.1504"/><text fill="#000000" font-family="sans-serif" font-size="13" font-weight="bold" lengthAdjust="spacing" textLength="9" x="923.5" y="320.4082">6</text><text fill="#000000" font-family="sans-serif" font-size="13" lengthAdjust="spacing" textLength="84" x="936.5" y="320.4082">Lista de roles</text><polygon fill="#181818" points="544.5,350.4609,534.5,354.4609,544.5,358.4609,540.5,354.4609" style="stroke:#181818;stroke-width:1.0;"/><line style="stroke:#181818;stroke-width:1.0;stroke-dasharray:2.0,2.0;" x1="538.5" x2="900.5" y1="354.4609" y2="354.4609"/><text fill="#000000" font-family="sans-serif" font-size="13" font-weight="bold" lengthAdjust="spacing" textLength="9" x="550.5" y="349.7188">7</text><text fill="#000000" font-family="sans-serif" font-size="13" lengthAdjust="spacing" textLength="84" x="563.5" y="349.7188">Lista de roles</text><polygon fill="#181818" points="339.5,379.7715,329.5,383.7715,339.5,387.7715,335.5,383.7715" style="stroke:#181818;stroke-width:1.0;"/><line style="stroke:#181818;stroke-width:1.0;stroke-dasharray:2.0,2.0;" x1="333.5" x2="527.5" y1="383.7715" y2="383.7715"/><text fill="#000000" font-family="sans-serif" font-size="13" font-weight="bold" lengthAdjust="spacing" textLength="9" x="345.5" y="379.0293">8</text><text fill="#000000" font-family="sans-serif" font-size="13" lengthAdjust="spacing" textLength="31" x="358.5" y="379.0293">roles</text><polygon fill="#181818" points="74.5,409.082,64.5,413.082,74.5,417.082,70.5,413.082" style="stroke:#181818;stroke-width:1.0;"/><line style="stroke:#181818;stroke-width:1.0;stroke-dasharray:2.0,2.0;" x1="68.5" x2="322.5" y1="413.082" y2="413.082"/><text fill="#000000" font-family="sans-serif" font-size="13" font-weight="bold" lengthAdjust="spacing" textLength="9" x="80.5" y="408.3398">9</text><text fill="#000000" font-family="sans-serif" font-size="13" lengthAdjust="spacing" textLength="218" x="93.5" y="408.3398">Solicita dados que pretende mudar</text><polygon fill="#181818" points="306.5,438.3926,316.5,442.3926,306.5,446.3926,310.5,442.3926" style="stroke:#181818;stroke-width:1.0;"/><line style="stroke:#181818;stroke-width:1.0;" x1="63.5" x2="312.5" y1="442.3926" y2="442.3926"/><text fill="#000000" font-family="sans-serif" font-size="13" font-weight="bold" lengthAdjust="spacing" textLength="18" x="70.5" y="437.6504">10</text><text fill="#000000" font-family="sans-serif" font-size="13" lengthAdjust="spacing" textLength="168" x="92.5" y="437.6504">Introduz dados solicitados</text><polygon fill="#181818" points="511.5,467.7031,521.5,471.7031,511.5,475.7031,515.5,471.7031" style="stroke:#181818;stroke-width:1.0;"/><line style="stroke:#181818;stroke-width:1.0;" x1="328.5" x2="517.5" y1="471.7031" y2="471.7031"/><text fill="#000000" font-family="sans-serif" font-size="13" font-weight="bold" lengthAdjust="spacing" textLength="18" x="335.5" y="466.9609">11</text><text fill="#000000" font-family="sans-serif" font-size="13" lengthAdjust="spacing" textLength="154" x="357.5" y="466.9609">onSubmit(form: ngForm)</text><polygon fill="#181818" points="884.5,497.0137,894.5,501.0137,884.5,505.0137,888.5,501.0137" style="stroke:#181818;stroke-width:1.0;"/><line style="stroke:#181818;stroke-width:1.0;" x1="533.5" x2="890.5" y1="501.0137" y2="501.0137"/><text fill="#000000" font-family="sans-serif" font-size="13" font-weight="bold" lengthAdjust="spacing" textLength="18" x="540.5" y="496.2715">12</text><text fill="#000000" font-family="sans-serif" font-size="13" lengthAdjust="spacing" textLength="322" x="562.5" y="496.2715">signup(firstName, lastName, email, password, role)</text><polygon fill="#181818" points="1114.5,556.9453,1124.5,560.9453,1114.5,564.9453,1118.5,560.9453" style="stroke:#181818;stroke-width:1.0;"/><line style="stroke:#181818;stroke-width:1.0;" x1="906.5" x2="1120.5" y1="560.9453" y2="560.9453"/><text fill="#000000" font-family="sans-serif" font-size="13" font-weight="bold" lengthAdjust="spacing" textLength="18" x="913.5" y="540.8926">13</text><text fill="#000000" font-family="sans-serif" font-size="13" lengthAdjust="spacing" textLength="121" x="935.5" y="525.582">POST /auth/signup</text><text fill="#000000" font-family="sans-serif" font-size="13" lengthAdjust="spacing" textLength="179" x="935.5" y="540.8926">{firstName, lastName, email,</text><text fill="#000000" font-family="sans-serif" font-size="13" lengthAdjust="spacing" textLength="96" x="935.5" y="556.2031">password, role}</text><polygon fill="#181818" points="917.5,596.9111,907.5,600.9111,917.5,604.9111,913.5,600.9111" style="stroke:#181818;stroke-width:1.0;"/><line style="stroke:#181818;stroke-width:1.0;stroke-dasharray:2.0,2.0;" x1="911.5" x2="1130.5" y1="600.9111" y2="600.9111"/><text fill="#000000" font-family="sans-serif" font-size="13" font-weight="bold" lengthAdjust="spacing" textLength="18" x="923.5" y="596.1689">14</text><text fill="#000000" font-family="sans-serif" font-size="13" lengthAdjust="spacing" textLength="77" x="945.5" y="596.1689">201 OK user</text><path d="M1141,573.9453 L1141,613.9453 L1369,613.9453 L1369,583.9453 L1359,573.9453 L1141,573.9453 " fill="#FAFAFA" style="stroke:#181818;stroke-width:0.5;"/><path d="M1359,573.9453 L1359,583.9453 L1369,583.9453 L1359,573.9453 " fill="#FAFAFA" style="stroke:#181818;stroke-width:0.5;"/><text fill="#000000" font-family="sans-serif" font-size="13" lengthAdjust="spacing" textLength="207" x="1147" y="591.5137">M&#243;dulo de Gest&#227;o de Informa&#231;&#227;o</text><text fill="#000000" font-family="sans-serif" font-size="13" lengthAdjust="spacing" textLength="184" x="1147" y="606.8242">&#233; a representa&#231;&#227;o do Sprint A</text><polygon fill="#181818" points="544.5,636.877,534.5,640.877,544.5,644.877,540.5,640.877" style="stroke:#181818;stroke-width:1.0;"/><line style="stroke:#181818;stroke-width:1.0;stroke-dasharray:2.0,2.0;" x1="538.5" x2="900.5" y1="640.877" y2="640.877"/><text fill="#000000" font-family="sans-serif" font-size="13" font-weight="bold" lengthAdjust="spacing" textLength="18" x="550.5" y="636.1348">15</text><text fill="#000000" font-family="sans-serif" font-size="13" lengthAdjust="spacing" textLength="77" x="572.5" y="636.1348">201 OK user</text><polygon fill="#181818" points="339.5,666.1875,329.5,670.1875,339.5,674.1875,335.5,670.1875" style="stroke:#181818;stroke-width:1.0;"/><line style="stroke:#181818;stroke-width:1.0;stroke-dasharray:2.0,2.0;" x1="333.5" x2="527.5" y1="670.1875" y2="670.1875"/><text fill="#000000" font-family="sans-serif" font-size="13" font-weight="bold" lengthAdjust="spacing" textLength="18" x="345.5" y="665.4453">16</text><text fill="#000000" font-family="sans-serif" font-size="13" lengthAdjust="spacing" textLength="77" x="367.5" y="665.4453">201 OK user</text><polygon fill="#181818" points="74.5,710.8086,64.5,714.8086,74.5,718.8086,70.5,714.8086" style="stroke:#181818;stroke-width:1.0;"/><line style="stroke:#181818;stroke-width:1.0;stroke-dasharray:2.0,2.0;" x1="68.5" x2="322.5" y1="714.8086" y2="714.8086"/><text fill="#000000" font-family="sans-serif" font-size="13" font-weight="bold" lengthAdjust="spacing" textLength="18" x="80.5" y="702.4111">17</text><text fill="#000000" font-family="sans-serif" font-size="13" lengthAdjust="spacing" textLength="152" x="102.5" y="694.7559">Mensagem de sucesso e</text><text fill="#000000" font-family="sans-serif" font-size="13" lengthAdjust="spacing" textLength="165" x="102.5" y="710.0664">route para p&#225;gina de login</text><!--SRC=[nLRRRjD047tVhnZbAP4I6WeIabLLgbA1AkX5cFBabwqzSLRnpfgzjAAKZq4y89xvXFmOisbk9Ma9QIgUFFBkp9ovd6ExeQ9QMgb16pBvm1gDu6r0uMOdjSo7iiJKVwuGBEPUKbajNd03MPWhHINqPULG2AyyN-qPyb8HMaZnKq3A4GwLBAD7CpriGGVEq-vkjzDzrONcoOkM439uGq5Ve6KxzyP2uynuzbIoWdCsF3Q4M7u7dNrexEtrNYQpdFlx6IKVbGkoKjToz6FqtJGIE2B5Vc1gjBVle8WbbSfvQs9ATIazhXDBh74dmkePNHjYb0bGoUbzipNFCpiKColwf6WlLOu9bEZVcmhTei_aK4oUzvH-FFfLX6fStXjqdj5anFOHzOtLKtYh4smOJMoAOlC24j2gA2gyaXQVMQuZ7s0-pAZPE2YqeWRStAnOeDRcIEUpuTwzuwMHu_s97HG5Fhg3iv4kxis3cQRBiB0-wr61eou5cs_ZUiiTCorrDu7KL4oo29XLmG4p7sgBVCe5w518-vTMBJ7jSOHdOXVXUWB6JR2n_RHiv_uQIiE5PiB74KVsl-RdskJd04wL5EfcNrddJwJ6DbHoQg6MgcgpD3jtPMpH7a_pgLJYx3Jz03iipeETMqmPVNa0LKPtONqL_r5S5kLqj_iSJjz2SF7xiWM-4gybM5KEMDoN7U2F-ncDVeBahmspmV6mfnyW0sbj5G__OBK0tCMz9VBV4tA-arjepmhQxdKww_7s6CdnFuUE6Lp8qJa3c94rWG75lmweHzzAHMDPh0nR_weglm40]--></g></svg>