<?xml version="1.0" encoding="us-ascii" standalone="no"?><svg xmlns="http://www.w3.org/2000/svg" xmlns:xlink="http://www.w3.org/1999/xlink" contentStyleType="text/css" height="454px" preserveAspectRatio="none" style="width:520px;height:454px;background:#FFFFFF;" version="1.1" viewBox="0 0 520 454" width="520px" zoomAndPan="magnify"><defs/><g><text fill="#000000" font-family="sans-serif" font-size="14" font-weight="bold" lengthAdjust="spacing" textLength="366" x="76.25" y="28.5352">System Sequence Diagram (SSD) - US020-070 (N2)</text><rect fill="#FFFFFF" height="87.9316" style="stroke:#181818;stroke-width:1.0;" width="10" x="277.5" y="150.2871"/><rect fill="#FFFFFF" height="87.9316" style="stroke:#181818;stroke-width:1.0;" width="10" x="277.5" y="267.5293"/><rect fill="#FFFFFF" height="29.3105" style="stroke:#181818;stroke-width:1.0;" width="10" x="440.5" y="179.5977"/><rect fill="#FFFFFF" height="29.3105" style="stroke:#181818;stroke-width:1.0;" width="10" x="440.5" y="296.8398"/><line style="stroke:#181818;stroke-width:0.5;stroke-dasharray:5.0,5.0;" x1="63" x2="63" y1="118.9766" y2="373.4609"/><line style="stroke:#181818;stroke-width:0.5;stroke-dasharray:5.0,5.0;" x1="282" x2="282" y1="118.9766" y2="373.4609"/><line style="stroke:#181818;stroke-width:0.5;stroke-dasharray:5.0,5.0;" x1="445.5" x2="445.5" y1="118.9766" y2="373.4609"/><text fill="#000000" font-family="sans-serif" font-size="14" lengthAdjust="spacing" textLength="111" x="5" y="116.0234">Potencial Utente</text><ellipse cx="63.5" cy="50.9883" fill="#E3E3E3" rx="8" ry="8" style="stroke:#181818;stroke-width:0.5;"/><path d="M63.5,58.9883 L63.5,85.9883 M50.5,66.9883 L76.5,66.9883 M63.5,85.9883 L50.5,100.9883 M63.5,85.9883 L76.5,100.9883 " fill="none" style="stroke:#181818;stroke-width:0.5;"/><text fill="#000000" font-family="sans-serif" font-size="14" lengthAdjust="spacing" textLength="111" x="5" y="385.9961">Potencial Utente</text><ellipse cx="63.5" cy="397.4492" fill="#E3E3E3" rx="8" ry="8" style="stroke:#181818;stroke-width:0.5;"/><path d="M63.5,405.4492 L63.5,432.4492 M50.5,413.4492 L76.5,413.4492 M63.5,432.4492 L50.5,447.4492 M63.5,432.4492 L76.5,447.4492 " fill="none" style="stroke:#181818;stroke-width:0.5;"/><rect fill="#E3E3E3" height="46.9766" rx="2.5" ry="2.5" style="stroke:#181818;stroke-width:0.5;" width="119" x="223" y="71"/><text fill="#000000" font-family="sans-serif" font-size="14" lengthAdjust="spacing" textLength="105" x="230" y="91.5352">&#171;C4:Container&#187;</text><text fill="#000000" font-family="sans-serif" font-size="14" lengthAdjust="spacing" textLength="89" x="238" y="108.0234">:Visualiza&#231;&#227;o</text><rect fill="#E3E3E3" height="46.9766" rx="2.5" ry="2.5" style="stroke:#181818;stroke-width:0.5;" width="119" x="223" y="372.4609"/><text fill="#000000" font-family="sans-serif" font-size="14" lengthAdjust="spacing" textLength="105" x="230" y="392.9961">&#171;C4:Container&#187;</text><text fill="#000000" font-family="sans-serif" font-size="14" lengthAdjust="spacing" textLength="89" x="238" y="409.4844">:Visualiza&#231;&#227;o</text><rect fill="#E3E3E3" height="63.4648" rx="2.5" ry="2.5" style="stroke:#181818;stroke-width:0.5;" width="138" x="376.5" y="54.5117"/><text fill="#000000" font-family="sans-serif" font-size="14" lengthAdjust="spacing" textLength="105" x="393" y="75.0469">&#171;C4:Container&#187;</text><text fill="#000000" font-family="sans-serif" font-size="14" lengthAdjust="spacing" textLength="124" x="383.5" y="91.5352">M&#243;dulo de Gest&#227;o</text><text fill="#000000" font-family="sans-serif" font-size="14" lengthAdjust="spacing" textLength="99" x="396" y="108.0234">de Informa&#231;&#227;o</text><rect fill="#E3E3E3" height="63.4648" rx="2.5" ry="2.5" style="stroke:#181818;stroke-width:0.5;" width="138" x="376.5" y="372.4609"/><text fill="#000000" font-family="sans-serif" font-size="14" lengthAdjust="spacing" textLength="105" x="393" y="392.9961">&#171;C4:Container&#187;</text><text fill="#000000" font-family="sans-serif" font-size="14" lengthAdjust="spacing" textLength="124" x="383.5" y="409.4844">M&#243;dulo de Gest&#227;o</text><text fill="#000000" font-family="sans-serif" font-size="14" lengthAdjust="spacing" textLength="99" x="396" y="425.9727">de Informa&#231;&#227;o</text><rect fill="#FFFFFF" height="87.9316" style="stroke:#181818;stroke-width:1.0;" width="10" x="277.5" y="150.2871"/><rect fill="#FFFFFF" height="87.9316" style="stroke:#181818;stroke-width:1.0;" width="10" x="277.5" y="267.5293"/><rect fill="#FFFFFF" height="29.3105" style="stroke:#181818;stroke-width:1.0;" width="10" x="440.5" y="179.5977"/><rect fill="#FFFFFF" height="29.3105" style="stroke:#181818;stroke-width:1.0;" width="10" x="440.5" y="296.8398"/><polygon fill="#181818" points="265.5,146.2871,275.5,150.2871,265.5,154.2871,269.5,150.2871" style="stroke:#181818;stroke-width:1.0;"/><line style="stroke:#181818;stroke-width:1.0;" x1="63.5" x2="271.5" y1="150.2871" y2="150.2871"/><text fill="#000000" font-family="sans-serif" font-size="13" font-weight="bold" lengthAdjust="spacing" textLength="9" x="70.5" y="145.5449">1</text><text fill="#000000" font-family="sans-serif" font-size="13" lengthAdjust="spacing" textLength="182" x="83.5" y="145.5449">Solicita registro como utente</text><polygon fill="#181818" points="428.5,175.5977,438.5,179.5977,428.5,183.5977,432.5,179.5977" style="stroke:#181818;stroke-width:1.0;"/><line style="stroke:#181818;stroke-width:1.0;" x1="287.5" x2="434.5" y1="179.5977" y2="179.5977"/><text fill="#000000" font-family="sans-serif" font-size="13" font-weight="bold" lengthAdjust="spacing" textLength="9" x="294.5" y="174.8555">2</text><text fill="#000000" font-family="sans-serif" font-size="13" lengthAdjust="spacing" textLength="73" x="307.5" y="174.8555">GET /roles/</text><polygon fill="#181818" points="298.5,204.9082,288.5,208.9082,298.5,212.9082,294.5,208.9082" style="stroke:#181818;stroke-width:1.0;"/><line style="stroke:#181818;stroke-width:1.0;stroke-dasharray:2.0,2.0;" x1="292.5" x2="444.5" y1="208.9082" y2="208.9082"/><text fill="#000000" font-family="sans-serif" font-size="13" font-weight="bold" lengthAdjust="spacing" textLength="9" x="304.5" y="204.166">3</text><text fill="#000000" font-family="sans-serif" font-size="13" lengthAdjust="spacing" textLength="81" x="317.5" y="204.166">200 OK roles</text><polygon fill="#181818" points="74.5,234.2188,64.5,238.2188,74.5,242.2188,70.5,238.2188" style="stroke:#181818;stroke-width:1.0;"/><line style="stroke:#181818;stroke-width:1.0;stroke-dasharray:2.0,2.0;" x1="68.5" x2="281.5" y1="238.2188" y2="238.2188"/><text fill="#000000" font-family="sans-serif" font-size="13" font-weight="bold" lengthAdjust="spacing" textLength="9" x="80.5" y="233.4766">4</text><text fill="#000000" font-family="sans-serif" font-size="13" lengthAdjust="spacing" textLength="166" x="93.5" y="233.4766">Solicita dados necess&#225;rios</text><polygon fill="#181818" points="265.5,263.5293,275.5,267.5293,265.5,271.5293,269.5,267.5293" style="stroke:#181818;stroke-width:1.0;"/><line style="stroke:#181818;stroke-width:1.0;" x1="63.5" x2="271.5" y1="267.5293" y2="267.5293"/><text fill="#000000" font-family="sans-serif" font-size="13" font-weight="bold" lengthAdjust="spacing" textLength="9" x="70.5" y="262.7871">5</text><text fill="#000000" font-family="sans-serif" font-size="13" lengthAdjust="spacing" textLength="168" x="83.5" y="262.7871">Introduz dados solicitados</text><polygon fill="#181818" points="428.5,292.8398,438.5,296.8398,428.5,300.8398,432.5,296.8398" style="stroke:#181818;stroke-width:1.0;"/><line style="stroke:#181818;stroke-width:1.0;" x1="287.5" x2="434.5" y1="296.8398" y2="296.8398"/><text fill="#000000" font-family="sans-serif" font-size="13" font-weight="bold" lengthAdjust="spacing" textLength="9" x="294.5" y="292.0977">6</text><text fill="#000000" font-family="sans-serif" font-size="13" lengthAdjust="spacing" textLength="121" x="307.5" y="292.0977">POST /auth/signup</text><polygon fill="#181818" points="298.5,322.1504,288.5,326.1504,298.5,330.1504,294.5,326.1504" style="stroke:#181818;stroke-width:1.0;"/><line style="stroke:#181818;stroke-width:1.0;stroke-dasharray:2.0,2.0;" x1="292.5" x2="444.5" y1="326.1504" y2="326.1504"/><text fill="#000000" font-family="sans-serif" font-size="13" font-weight="bold" lengthAdjust="spacing" textLength="9" x="304.5" y="321.4082">7</text><text fill="#000000" font-family="sans-serif" font-size="13" lengthAdjust="spacing" textLength="77" x="317.5" y="321.4082">201 OK user</text><polygon fill="#181818" points="74.5,351.4609,64.5,355.4609,74.5,359.4609,70.5,355.4609" style="stroke:#181818;stroke-width:1.0;"/><line style="stroke:#181818;stroke-width:1.0;stroke-dasharray:2.0,2.0;" x1="68.5" x2="281.5" y1="355.4609" y2="355.4609"/><text fill="#000000" font-family="sans-serif" font-size="13" font-weight="bold" lengthAdjust="spacing" textLength="9" x="80.5" y="350.7188">8</text><text fill="#000000" font-family="sans-serif" font-size="13" lengthAdjust="spacing" textLength="141" x="93.5" y="350.7188">Mensagem de sucesso</text><!--SRC=[rPJFQi9048Vl-nH3Jde8fb8eY7ZH8bAiGcfFNhR961UJ7Rkpsw9lKthe0_GHVB5kH8eGsgR_eBqDoMzdl-nyMLuflPP65b2GfcHfg42mng7WrpThcQnaXh7Tv0W64ojrbXy7U2bJkbSwWuNC6OMmolfel66B1SHuwr0d20CbipBUYED14qAOnL4x2gEp21gNxQOGqbdIhhX1u-l4ae5WIjOlLJA7cIyi1a9Kdq7OWw3RxPzs-gIjL1fDhpVNdMl5JkPgAtTFkqSAEX1JhX9bfV-8JB4r10aL16xVfjnItKcBTNg96fatiCQxvzJb12d24Ddwv5pxUgGNP8fNrE7v5RGCvSYjTy7gT1DVN0TXtODjHn5CBc3FArBy3U3gwPPm5HUEXfnwAHaq9iYyUp2AFaAh3FaxhesqzojrsmC67wXy_RT4cqvYRvh_zPOjLfbswt-XsqcfcsD_K_o4RTKfTyEm7ieODVkxiIXtO5UgHf-rx0K0]--></g></svg>