<?xml version="1.0" encoding="us-ascii" standalone="no"?><svg xmlns="http://www.w3.org/2000/svg" xmlns:xlink="http://www.w3.org/1999/xlink" contentStyleType="text/css" height="548px" preserveAspectRatio="none" style="width:1141px;height:548px;background:#FFFFFF;" version="1.1" viewBox="0 0 1141 548" width="1141px" zoomAndPan="magnify"><defs/><g><text fill="#000000" font-family="sans-serif" font-size="14" font-weight="bold" lengthAdjust="spacing" textLength="349" x="397" y="28.5352">Container Sequence Diagram (SD) - US1100 (N3)</text><rect fill="#FFFFFF" height="329.7266" style="stroke:#181818;stroke-width:1.0;" width="10" x="66" y="128.9766"/><rect fill="#FFFFFF" height="299.416" style="stroke:#181818;stroke-width:1.0;" width="10" x="366" y="150.2871"/><rect fill="#FFFFFF" height="225.4844" style="stroke:#181818;stroke-width:1.0;" width="10" x="483" y="179.5977"/><rect fill="#FFFFFF" height="166.8633" style="stroke:#181818;stroke-width:1.0;" width="10" x="687" y="208.9082"/><rect fill="#FFFFFF" height="97.5869" style="stroke:#181818;stroke-width:1.0;" width="10" x="891" y="238.2188"/><line style="stroke:#181818;stroke-width:0.5;stroke-dasharray:5.0,5.0;" x1="71" x2="71" y1="118.9766" y2="467.7031"/><line style="stroke:#181818;stroke-width:0.5;stroke-dasharray:5.0,5.0;" x1="370.5" x2="370.5" y1="118.9766" y2="467.7031"/><line style="stroke:#181818;stroke-width:0.5;stroke-dasharray:5.0,5.0;" x1="487.5" x2="487.5" y1="118.9766" y2="467.7031"/><line style="stroke:#181818;stroke-width:0.5;stroke-dasharray:5.0,5.0;" x1="692" x2="692" y1="118.9766" y2="467.7031"/><line style="stroke:#181818;stroke-width:0.5;stroke-dasharray:5.0,5.0;" x1="896" x2="896" y1="118.9766" y2="467.7031"/><text fill="#000000" font-family="sans-serif" font-size="14" lengthAdjust="spacing" textLength="126" x="5" y="116.0234">Gestor de Campus</text><ellipse cx="71" cy="50.9883" fill="#E3E3E3" rx="8" ry="8" style="stroke:#181818;stroke-width:0.5;"/><path d="M71,58.9883 L71,85.9883 M58,66.9883 L84,66.9883 M71,85.9883 L58,100.9883 M71,85.9883 L84,100.9883 " fill="none" style="stroke:#181818;stroke-width:0.5;"/><text fill="#000000" font-family="sans-serif" font-size="14" lengthAdjust="spacing" textLength="126" x="5" y="480.2383">Gestor de Campus</text><ellipse cx="71" cy="491.6914" fill="#E3E3E3" rx="8" ry="8" style="stroke:#181818;stroke-width:0.5;"/><path d="M71,499.6914 L71,526.6914 M58,507.6914 L84,507.6914 M71,526.6914 L58,541.6914 M71,526.6914 L84,541.6914 " fill="none" style="stroke:#181818;stroke-width:0.5;"/><rect fill="#E3E3E3" height="46.9766" rx="2.5" ry="2.5" style="stroke:#181818;stroke-width:0.5;" width="119" x="311.5" y="71"/><text fill="#000000" font-family="sans-serif" font-size="14" lengthAdjust="spacing" textLength="105" x="318.5" y="91.5352">&#171;C4:Container&#187;</text><text fill="#000000" font-family="sans-serif" font-size="14" lengthAdjust="spacing" textLength="89" x="326.5" y="108.0234">:Visualiza&#231;&#227;o</text><rect fill="#E3E3E3" height="46.9766" rx="2.5" ry="2.5" style="stroke:#181818;stroke-width:0.5;" width="119" x="311.5" y="466.7031"/><text fill="#000000" font-family="sans-serif" font-size="14" lengthAdjust="spacing" textLength="105" x="318.5" y="487.2383">&#171;C4:Container&#187;</text><text fill="#000000" font-family="sans-serif" font-size="14" lengthAdjust="spacing" textLength="89" x="326.5" y="503.7266">:Visualiza&#231;&#227;o</text><rect fill="#E3E3E3" height="30.4883" rx="2.5" ry="2.5" style="stroke:#181818;stroke-width:0.5;" width="95" x="440.5" y="87.4883"/><text fill="#000000" font-family="sans-serif" font-size="14" lengthAdjust="spacing" textLength="81" x="447.5" y="108.0234">Component</text><rect fill="#E3E3E3" height="30.4883" rx="2.5" ry="2.5" style="stroke:#181818;stroke-width:0.5;" width="95" x="440.5" y="466.7031"/><text fill="#000000" font-family="sans-serif" font-size="14" lengthAdjust="spacing" textLength="81" x="447.5" y="487.2383">Component</text><rect fill="#E3E3E3" height="30.4883" rx="2.5" ry="2.5" style="stroke:#181818;stroke-width:0.5;" width="62" x="661" y="87.4883"/><text fill="#000000" font-family="sans-serif" font-size="14" lengthAdjust="spacing" textLength="48" x="668" y="108.0234">Service</text><rect fill="#E3E3E3" height="30.4883" rx="2.5" ry="2.5" style="stroke:#181818;stroke-width:0.5;" width="62" x="661" y="466.7031"/><text fill="#000000" font-family="sans-serif" font-size="14" lengthAdjust="spacing" textLength="48" x="668" y="487.2383">Service</text><rect fill="#E3E3E3" height="63.4648" rx="2.5" ry="2.5" style="stroke:#181818;stroke-width:0.5;" width="138" x="827" y="54.5117"/><text fill="#000000" font-family="sans-serif" font-size="14" lengthAdjust="spacing" textLength="105" x="843.5" y="75.0469">&#171;C4:Container&#187;</text><text fill="#000000" font-family="sans-serif" font-size="14" lengthAdjust="spacing" textLength="124" x="834" y="91.5352">M&#243;dulo de Gest&#227;o</text><text fill="#000000" font-family="sans-serif" font-size="14" lengthAdjust="spacing" textLength="99" x="846.5" y="108.0234">de Informa&#231;&#227;o</text><rect fill="#E3E3E3" height="63.4648" rx="2.5" ry="2.5" style="stroke:#181818;stroke-width:0.5;" width="138" x="827" y="466.7031"/><text fill="#000000" font-family="sans-serif" font-size="14" lengthAdjust="spacing" textLength="105" x="843.5" y="487.2383">&#171;C4:Container&#187;</text><text fill="#000000" font-family="sans-serif" font-size="14" lengthAdjust="spacing" textLength="124" x="834" y="503.7266">M&#243;dulo de Gest&#227;o</text><text fill="#000000" font-family="sans-serif" font-size="14" lengthAdjust="spacing" textLength="99" x="846.5" y="520.2148">de Informa&#231;&#227;o</text><rect fill="#FFFFFF" height="329.7266" style="stroke:#181818;stroke-width:1.0;" width="10" x="66" y="128.9766"/><rect fill="#FFFFFF" height="299.416" style="stroke:#181818;stroke-width:1.0;" width="10" x="366" y="150.2871"/><rect fill="#FFFFFF" height="225.4844" style="stroke:#181818;stroke-width:1.0;" width="10" x="483" y="179.5977"/><rect fill="#FFFFFF" height="166.8633" style="stroke:#181818;stroke-width:1.0;" width="10" x="687" y="208.9082"/><rect fill="#FFFFFF" height="97.5869" style="stroke:#181818;stroke-width:1.0;" width="10" x="891" y="238.2188"/><polygon fill="#181818" points="354,146.2871,364,150.2871,354,154.2871,358,150.2871" style="stroke:#181818;stroke-width:1.0;"/><line style="stroke:#181818;stroke-width:1.0;" x1="76" x2="360" y1="150.2871" y2="150.2871"/><text fill="#000000" font-family="sans-serif" font-size="13" font-weight="bold" lengthAdjust="spacing" textLength="9" x="83" y="145.5449">1</text><text fill="#000000" font-family="sans-serif" font-size="13" lengthAdjust="spacing" textLength="258" x="96" y="145.5449">Inicia opera&#231;&#227;o de listar pisos de edificio</text><polygon fill="#181818" points="471,175.5977,481,179.5977,471,183.5977,475,179.5977" style="stroke:#181818;stroke-width:1.0;"/><line style="stroke:#181818;stroke-width:1.0;" x1="376" x2="477" y1="179.5977" y2="179.5977"/><text fill="#000000" font-family="sans-serif" font-size="13" font-weight="bold" lengthAdjust="spacing" textLength="9" x="383" y="174.8555">2</text><text fill="#000000" font-family="sans-serif" font-size="13" lengthAdjust="spacing" textLength="45" x="396" y="174.8555">ngInit()</text><polygon fill="#181818" points="675,204.9082,685,208.9082,675,212.9082,679,208.9082" style="stroke:#181818;stroke-width:1.0;"/><line style="stroke:#181818;stroke-width:1.0;" x1="493" x2="681" y1="208.9082" y2="208.9082"/><text fill="#000000" font-family="sans-serif" font-size="13" font-weight="bold" lengthAdjust="spacing" textLength="9" x="500" y="204.166">3</text><text fill="#000000" font-family="sans-serif" font-size="13" lengthAdjust="spacing" textLength="67" x="513" y="204.166">getFloors()</text><polygon fill="#181818" points="879,234.2188,889,238.2188,879,242.2188,883,238.2188" style="stroke:#181818;stroke-width:1.0;"/><line style="stroke:#181818;stroke-width:1.0;" x1="697" x2="885" y1="238.2188" y2="238.2188"/><text fill="#000000" font-family="sans-serif" font-size="13" font-weight="bold" lengthAdjust="spacing" textLength="9" x="704" y="233.4766">4</text><text fill="#000000" font-family="sans-serif" font-size="13" lengthAdjust="spacing" textLength="67" x="717" y="233.4766">getFloors()</text><line style="stroke:#181818;stroke-width:1.0;" x1="901" x2="943" y1="282.8398" y2="282.8398"/><line style="stroke:#181818;stroke-width:1.0;" x1="943" x2="943" y1="282.8398" y2="295.8398"/><line style="stroke:#181818;stroke-width:1.0;" x1="902" x2="943" y1="295.8398" y2="295.8398"/><polygon fill="#181818" points="912,291.8398,902,295.8398,912,299.8398,908,295.8398" style="stroke:#181818;stroke-width:1.0;"/><text fill="#000000" font-family="sans-serif" font-size="13" font-weight="bold" lengthAdjust="spacing" textLength="9" x="908" y="270.4424">5</text><text fill="#000000" font-family="sans-serif" font-size="13" lengthAdjust="spacing" textLength="137" x="921" y="262.7871">middleware.rolecheck</text><text fill="#000000" font-family="sans-serif" font-size="13" lengthAdjust="spacing" textLength="202" x="921" y="278.0977">("Admin" || "Gestor de Campus")</text><polygon fill="#181818" points="708,331.8057,698,335.8057,708,339.8057,704,335.8057" style="stroke:#181818;stroke-width:1.0;"/><line style="stroke:#181818;stroke-width:1.0;stroke-dasharray:2.0,2.0;" x1="702" x2="895" y1="335.8057" y2="335.8057"/><text fill="#000000" font-family="sans-serif" font-size="13" font-weight="bold" lengthAdjust="spacing" textLength="9" x="714" y="331.0635">6</text><text fill="#000000" font-family="sans-serif" font-size="13" lengthAdjust="spacing" textLength="157" x="727" y="331.0635">Lista de pisos de edificio</text><path d="M906,308.8398 L906,348.8398 L1134,348.8398 L1134,318.8398 L1124,308.8398 L906,308.8398 " fill="#FAFAFA" style="stroke:#181818;stroke-width:0.5;"/><path d="M1124,308.8398 L1124,318.8398 L1134,318.8398 L1124,308.8398 " fill="#FAFAFA" style="stroke:#181818;stroke-width:0.5;"/><text fill="#000000" font-family="sans-serif" font-size="13" lengthAdjust="spacing" textLength="207" x="912" y="326.4082">M&#243;dulo de Gest&#227;o de Informa&#231;&#227;o</text><text fill="#000000" font-family="sans-serif" font-size="13" lengthAdjust="spacing" textLength="184" x="912" y="341.7188">&#233; a representa&#231;&#227;o do Sprint A</text><polygon fill="#181818" points="504,371.7715,494,375.7715,504,379.7715,500,375.7715" style="stroke:#181818;stroke-width:1.0;"/><line style="stroke:#181818;stroke-width:1.0;stroke-dasharray:2.0,2.0;" x1="498" x2="691" y1="375.7715" y2="375.7715"/><text fill="#000000" font-family="sans-serif" font-size="13" font-weight="bold" lengthAdjust="spacing" textLength="9" x="510" y="371.0293">7</text><text fill="#000000" font-family="sans-serif" font-size="13" lengthAdjust="spacing" textLength="157" x="523" y="371.0293">Lista de pisos de edificio</text><polygon fill="#181818" points="387,401.082,377,405.082,387,409.082,383,405.082" style="stroke:#181818;stroke-width:1.0;"/><line style="stroke:#181818;stroke-width:1.0;stroke-dasharray:2.0,2.0;" x1="381" x2="487" y1="405.082" y2="405.082"/><text fill="#000000" font-family="sans-serif" font-size="13" font-weight="bold" lengthAdjust="spacing" textLength="9" x="393" y="400.3398">8</text><text fill="#000000" font-family="sans-serif" font-size="13" lengthAdjust="spacing" textLength="37" x="406" y="400.3398">floors</text><polygon fill="#181818" points="87,445.7031,77,449.7031,87,453.7031,83,449.7031" style="stroke:#181818;stroke-width:1.0;"/><line style="stroke:#181818;stroke-width:1.0;stroke-dasharray:2.0,2.0;" x1="81" x2="370" y1="449.7031" y2="449.7031"/><text fill="#000000" font-family="sans-serif" font-size="13" font-weight="bold" lengthAdjust="spacing" textLength="9" x="93" y="437.3057">9</text><text fill="#000000" font-family="sans-serif" font-size="13" lengthAdjust="spacing" textLength="201" x="106" y="429.6504">Mostra lista de pisos de edificio</text><text fill="#000000" font-family="sans-serif" font-size="13" lengthAdjust="spacing" textLength="134" x="106" y="444.9609">presentes no sistema</text><!--SRC=[fPEzRjim4CTtFiL1apsaID1EGc0WSD0YGDj5Q2SjL-ei4oRlL99Aq29lqw7et4VmYvLq_2543cAuaoZUr_-ElmihmnrwTE24HI-zE8BeUr9XR-bGhx2bAlwm19vqH6xjq24iiP47moqiq0PIAfgONEV24GsJXug-zyIQuDPWcoCcrUqKBk1BTNLrUGcJps-dIc4VXNltZNmwwoWUYWyKyhT9kT1rVIWs5dEFaOuPnrTmCOFY-dh-hjoBcSrgBh-QqACrFt7zU_rBYXBks6Y381tvfxkSn9eGqKDdWeJyJurP93SPY7Wzjph19ykSY-k4YMC9t2OvSJ8zrDaRrVwKOohozqPJ2It5zrR4Xs7GrggstnTcyMdzj-djfjyylYIdvdI-uuLujzFtGeKpqwbpPPpVGGdED8sb1_JqneiblIIzgdbIt3JES06FZqU8cfwlzF0wQNWVCqWvO8nIG_yzJPOKx4sxJEYC0-2PVythFu1fZpjF8N6qmrsWwhn9NDqSW1bYUN8RE-m6f9wsXQd2OeFOCDk1_DCMAPSQlMEQYuJeyMcZZtPGytOU5805Gd8aXwyypsZN_m40]--></g></svg>