<?xml version="1.0" encoding="us-ascii" standalone="no"?><svg xmlns="http://www.w3.org/2000/svg" xmlns:xlink="http://www.w3.org/1999/xlink" contentStyleType="text/css" height="647px" preserveAspectRatio="none" style="width:1089px;height:647px;background:#FFFFFF;" version="1.1" viewBox="0 0 1089 647" width="1089px" zoomAndPan="magnify"><defs/><g><text fill="#000000" font-family="sans-serif" font-size="14" font-weight="bold" lengthAdjust="spacing" textLength="349" x="369" y="28.5352">Container Sequence Diagram (SD) - US1200 (N3)</text><rect fill="#FFFFFF" height="428.6582" style="stroke:#181818;stroke-width:1.0;" width="10" x="66" y="128.9766"/><rect fill="#FFFFFF" height="235.1738" style="stroke:#181818;stroke-width:1.0;" width="10" x="366" y="165.5977"/><rect fill="#FFFFFF" height="118.5527" style="stroke:#181818;stroke-width:1.0;" width="10" x="366" y="430.082"/><rect fill="#FFFFFF" height="176.5527" style="stroke:#181818;stroke-width:1.0;" width="10" x="601" y="194.9082"/><rect fill="#FFFFFF" height="29.3105" style="stroke:#181818;stroke-width:1.0;" width="10" x="601" y="459.3926"/><rect fill="#FFFFFF" height="87.9316" style="stroke:#181818;stroke-width:1.0;" width="10" x="805" y="254.2188"/><rect fill="#FFFFFF" height="29.3105" style="stroke:#181818;stroke-width:1.0;" width="10" x="1009" y="283.5293"/><line style="stroke:#181818;stroke-width:0.5;stroke-dasharray:5.0,5.0;" x1="71" x2="71" y1="118.9766" y2="566.6348"/><line style="stroke:#181818;stroke-width:0.5;stroke-dasharray:5.0,5.0;" x1="370.5" x2="370.5" y1="118.9766" y2="566.6348"/><line style="stroke:#181818;stroke-width:0.5;stroke-dasharray:5.0,5.0;" x1="605.5" x2="605.5" y1="118.9766" y2="566.6348"/><line style="stroke:#181818;stroke-width:0.5;stroke-dasharray:5.0,5.0;" x1="810" x2="810" y1="118.9766" y2="566.6348"/><line style="stroke:#181818;stroke-width:0.5;stroke-dasharray:5.0,5.0;" x1="1014" x2="1014" y1="118.9766" y2="566.6348"/><text fill="#000000" font-family="sans-serif" font-size="14" lengthAdjust="spacing" textLength="126" x="5" y="116.0234">Gestor de Campus</text><ellipse cx="71" cy="50.9883" fill="#E3E3E3" rx="8" ry="8" style="stroke:#181818;stroke-width:0.5;"/><path d="M71,58.9883 L71,85.9883 M58,66.9883 L84,66.9883 M71,85.9883 L58,100.9883 M71,85.9883 L84,100.9883 " fill="none" style="stroke:#181818;stroke-width:0.5;"/><text fill="#000000" font-family="sans-serif" font-size="14" lengthAdjust="spacing" textLength="126" x="5" y="579.1699">Gestor de Campus</text><ellipse cx="71" cy="590.623" fill="#E3E3E3" rx="8" ry="8" style="stroke:#181818;stroke-width:0.5;"/><path d="M71,598.623 L71,625.623 M58,606.623 L84,606.623 M71,625.623 L58,640.623 M71,625.623 L84,640.623 " fill="none" style="stroke:#181818;stroke-width:0.5;"/><rect fill="#E3E3E3" height="46.9766" rx="2.5" ry="2.5" style="stroke:#181818;stroke-width:0.5;" width="119" x="311.5" y="71"/><text fill="#000000" font-family="sans-serif" font-size="14" lengthAdjust="spacing" textLength="105" x="318.5" y="91.5352">&#171;C4:Container&#187;</text><text fill="#000000" font-family="sans-serif" font-size="14" lengthAdjust="spacing" textLength="89" x="326.5" y="108.0234">:Visualiza&#231;&#227;o</text><rect fill="#E3E3E3" height="46.9766" rx="2.5" ry="2.5" style="stroke:#181818;stroke-width:0.5;" width="119" x="311.5" y="565.6348"/><text fill="#000000" font-family="sans-serif" font-size="14" lengthAdjust="spacing" textLength="105" x="318.5" y="586.1699">&#171;C4:Container&#187;</text><text fill="#000000" font-family="sans-serif" font-size="14" lengthAdjust="spacing" textLength="89" x="326.5" y="602.6582">:Visualiza&#231;&#227;o</text><rect fill="#E3E3E3" height="30.4883" rx="2.5" ry="2.5" style="stroke:#181818;stroke-width:0.5;" width="95" x="558.5" y="87.4883"/><text fill="#000000" font-family="sans-serif" font-size="14" lengthAdjust="spacing" textLength="81" x="565.5" y="108.0234">Component</text><rect fill="#E3E3E3" height="30.4883" rx="2.5" ry="2.5" style="stroke:#181818;stroke-width:0.5;" width="95" x="558.5" y="565.6348"/><text fill="#000000" font-family="sans-serif" font-size="14" lengthAdjust="spacing" textLength="81" x="565.5" y="586.1699">Component</text><rect fill="#E3E3E3" height="30.4883" rx="2.5" ry="2.5" style="stroke:#181818;stroke-width:0.5;" width="62" x="779" y="87.4883"/><text fill="#000000" font-family="sans-serif" font-size="14" lengthAdjust="spacing" textLength="48" x="786" y="108.0234">Service</text><rect fill="#E3E3E3" height="30.4883" rx="2.5" ry="2.5" style="stroke:#181818;stroke-width:0.5;" width="62" x="779" y="565.6348"/><text fill="#000000" font-family="sans-serif" font-size="14" lengthAdjust="spacing" textLength="48" x="786" y="586.1699">Service</text><rect fill="#E3E3E3" height="63.4648" rx="2.5" ry="2.5" style="stroke:#181818;stroke-width:0.5;" width="138" x="945" y="54.5117"/><text fill="#000000" font-family="sans-serif" font-size="14" lengthAdjust="spacing" textLength="105" x="961.5" y="75.0469">&#171;C4:Container&#187;</text><text fill="#000000" font-family="sans-serif" font-size="14" lengthAdjust="spacing" textLength="124" x="952" y="91.5352">M&#243;dulo de Gest&#227;o</text><text fill="#000000" font-family="sans-serif" font-size="14" lengthAdjust="spacing" textLength="99" x="964.5" y="108.0234">de Informa&#231;&#227;o</text><rect fill="#E3E3E3" height="63.4648" rx="2.5" ry="2.5" style="stroke:#181818;stroke-width:0.5;" width="138" x="945" y="565.6348"/><text fill="#000000" font-family="sans-serif" font-size="14" lengthAdjust="spacing" textLength="105" x="961.5" y="586.1699">&#171;C4:Container&#187;</text><text fill="#000000" font-family="sans-serif" font-size="14" lengthAdjust="spacing" textLength="124" x="952" y="602.6582">M&#243;dulo de Gest&#227;o</text><text fill="#000000" font-family="sans-serif" font-size="14" lengthAdjust="spacing" textLength="99" x="964.5" y="619.1465">de Informa&#231;&#227;o</text><rect fill="#FFFFFF" height="428.6582" style="stroke:#181818;stroke-width:1.0;" width="10" x="66" y="128.9766"/><rect fill="#FFFFFF" height="235.1738" style="stroke:#181818;stroke-width:1.0;" width="10" x="366" y="165.5977"/><rect fill="#FFFFFF" height="118.5527" style="stroke:#181818;stroke-width:1.0;" width="10" x="366" y="430.082"/><rect fill="#FFFFFF" height="176.5527" style="stroke:#181818;stroke-width:1.0;" width="10" x="601" y="194.9082"/><rect fill="#FFFFFF" height="29.3105" style="stroke:#181818;stroke-width:1.0;" width="10" x="601" y="459.3926"/><rect fill="#FFFFFF" height="87.9316" style="stroke:#181818;stroke-width:1.0;" width="10" x="805" y="254.2188"/><rect fill="#FFFFFF" height="29.3105" style="stroke:#181818;stroke-width:1.0;" width="10" x="1009" y="283.5293"/><polygon fill="#181818" points="354,161.5977,364,165.5977,354,169.5977,358,165.5977" style="stroke:#181818;stroke-width:1.0;"/><line style="stroke:#181818;stroke-width:1.0;" x1="76" x2="360" y1="165.5977" y2="165.5977"/><text fill="#000000" font-family="sans-serif" font-size="13" font-weight="bold" lengthAdjust="spacing" textLength="9" x="83" y="153.2002">1</text><text fill="#000000" font-family="sans-serif" font-size="13" lengthAdjust="spacing" textLength="258" x="96" y="145.5449">Inicia opera&#231;&#227;o de listar pisos de edif&#237;cio</text><text fill="#000000" font-family="sans-serif" font-size="13" lengthAdjust="spacing" textLength="228" x="96" y="160.8555">com passagem para outros edif&#237;cios</text><polygon fill="#181818" points="589,190.9082,599,194.9082,589,198.9082,593,194.9082" style="stroke:#181818;stroke-width:1.0;"/><line style="stroke:#181818;stroke-width:1.0;" x1="376" x2="595" y1="194.9082" y2="194.9082"/><text fill="#000000" font-family="sans-serif" font-size="13" font-weight="bold" lengthAdjust="spacing" textLength="9" x="383" y="190.166">2</text><text fill="#000000" font-family="sans-serif" font-size="13" lengthAdjust="spacing" textLength="45" x="396" y="190.166">ngInit()</text><polygon fill="#181818" points="793,250.2188,803,254.2188,793,258.2188,797,254.2188" style="stroke:#181818;stroke-width:1.0;"/><line style="stroke:#181818;stroke-width:1.0;" x1="611" x2="799" y1="254.2188" y2="254.2188"/><text fill="#000000" font-family="sans-serif" font-size="13" font-weight="bold" lengthAdjust="spacing" textLength="9" x="618" y="249.4766">3</text><text fill="#000000" font-family="sans-serif" font-size="13" lengthAdjust="spacing" textLength="67" x="631" y="249.4766">getFloors()</text><polygon fill="#181818" points="997,279.5293,1007,283.5293,997,287.5293,1001,283.5293" style="stroke:#181818;stroke-width:1.0;"/><line style="stroke:#181818;stroke-width:1.0;" x1="815" x2="1003" y1="283.5293" y2="283.5293"/><text fill="#000000" font-family="sans-serif" font-size="13" font-weight="bold" lengthAdjust="spacing" textLength="9" x="822" y="278.7871">4</text><text fill="#000000" font-family="sans-serif" font-size="13" lengthAdjust="spacing" textLength="67" x="835" y="278.7871">getFloors()</text><polygon fill="#181818" points="826,308.8398,816,312.8398,826,316.8398,822,312.8398" style="stroke:#181818;stroke-width:1.0;"/><line style="stroke:#181818;stroke-width:1.0;stroke-dasharray:2.0,2.0;" x1="820" x2="1013" y1="312.8398" y2="312.8398"/><text fill="#000000" font-family="sans-serif" font-size="13" font-weight="bold" lengthAdjust="spacing" textLength="9" x="832" y="308.0977">5</text><text fill="#000000" font-family="sans-serif" font-size="13" lengthAdjust="spacing" textLength="157" x="845" y="308.0977">Lista de pisos de edificio</text><polygon fill="#181818" points="622,338.1504,612,342.1504,622,346.1504,618,342.1504" style="stroke:#181818;stroke-width:1.0;"/><line style="stroke:#181818;stroke-width:1.0;stroke-dasharray:2.0,2.0;" x1="616" x2="809" y1="342.1504" y2="342.1504"/><text fill="#000000" font-family="sans-serif" font-size="13" font-weight="bold" lengthAdjust="spacing" textLength="9" x="628" y="337.4082">6</text><text fill="#000000" font-family="sans-serif" font-size="13" lengthAdjust="spacing" textLength="157" x="641" y="337.4082">Lista de pisos de edificio</text><polygon fill="#181818" points="387,367.4609,377,371.4609,387,375.4609,383,371.4609" style="stroke:#181818;stroke-width:1.0;"/><line style="stroke:#181818;stroke-width:1.0;stroke-dasharray:2.0,2.0;" x1="381" x2="605" y1="371.4609" y2="371.4609"/><text fill="#000000" font-family="sans-serif" font-size="13" font-weight="bold" lengthAdjust="spacing" textLength="9" x="393" y="366.7188">7</text><text fill="#000000" font-family="sans-serif" font-size="13" lengthAdjust="spacing" textLength="37" x="406" y="366.7188">floors</text><polygon fill="#181818" points="87,396.7715,77,400.7715,87,404.7715,83,400.7715" style="stroke:#181818;stroke-width:1.0;"/><line style="stroke:#181818;stroke-width:1.0;stroke-dasharray:2.0,2.0;" x1="81" x2="370" y1="400.7715" y2="400.7715"/><text fill="#000000" font-family="sans-serif" font-size="13" font-weight="bold" lengthAdjust="spacing" textLength="9" x="93" y="396.0293">8</text><text fill="#000000" font-family="sans-serif" font-size="13" lengthAdjust="spacing" textLength="133" x="106" y="396.0293">Solicita id do edif&#237;cio</text><polygon fill="#181818" points="354,426.082,364,430.082,354,434.082,358,430.082" style="stroke:#181818;stroke-width:1.0;"/><line style="stroke:#181818;stroke-width:1.0;" x1="76" x2="360" y1="430.082" y2="430.082"/><text fill="#000000" font-family="sans-serif" font-size="13" font-weight="bold" lengthAdjust="spacing" textLength="9" x="83" y="425.3398">9</text><text fill="#000000" font-family="sans-serif" font-size="13" lengthAdjust="spacing" textLength="168" x="96" y="425.3398">Introduz dados solicitados</text><polygon fill="#181818" points="589,455.3926,599,459.3926,589,463.3926,593,459.3926" style="stroke:#181818;stroke-width:1.0;"/><line style="stroke:#181818;stroke-width:1.0;" x1="376" x2="595" y1="459.3926" y2="459.3926"/><text fill="#000000" font-family="sans-serif" font-size="13" font-weight="bold" lengthAdjust="spacing" textLength="18" x="383" y="454.6504">10</text><text fill="#000000" font-family="sans-serif" font-size="13" lengthAdjust="spacing" textLength="184" x="405" y="454.6504">filterFloorsWithConnections()</text><polygon fill="#181818" points="387,484.7031,377,488.7031,387,492.7031,383,488.7031" style="stroke:#181818;stroke-width:1.0;"/><line style="stroke:#181818;stroke-width:1.0;stroke-dasharray:2.0,2.0;" x1="381" x2="605" y1="488.7031" y2="488.7031"/><text fill="#000000" font-family="sans-serif" font-size="13" font-weight="bold" lengthAdjust="spacing" textLength="18" x="393" y="483.9609">11</text><text fill="#000000" font-family="sans-serif" font-size="13" lengthAdjust="spacing" textLength="37" x="415" y="483.9609">floors</text><polygon fill="#181818" points="87,544.6348,77,548.6348,87,552.6348,83,548.6348" style="stroke:#181818;stroke-width:1.0;"/><line style="stroke:#181818;stroke-width:1.0;stroke-dasharray:2.0,2.0;" x1="81" x2="370" y1="548.6348" y2="548.6348"/><text fill="#000000" font-family="sans-serif" font-size="13" font-weight="bold" lengthAdjust="spacing" textLength="18" x="93" y="528.582">12</text><text fill="#000000" font-family="sans-serif" font-size="13" lengthAdjust="spacing" textLength="228" x="115" y="513.2715">Lista de pisos de edificio no edificio</text><text fill="#000000" font-family="sans-serif" font-size="13" lengthAdjust="spacing" textLength="238" x="115" y="528.582">escolhido com passagens para outros</text><text fill="#000000" font-family="sans-serif" font-size="13" lengthAdjust="spacing" textLength="54" x="115" y="543.8926">edif&#237;cios</text><!--SRC=[jLIzRjim4Dxv50TFzY0W_Pa4muk35W7QBaBRnGjBdkL3f3kLf58qhzEXKwS-Wb-if1DB2gmWgfjEEl5- -F6xxyvV4pVQwHfgOJ4x9pL2S2qgttaQRQvrYKNuNY4uD45pMGq3_4vR-KPSmbPN7fKA56BeMZXeOdHGuDSMsI1SaYvJnhouN4067uiNBoykOFxXrK8ftGRXjlw2BjecY8FPM_JfQsCjNJUjdnqyTAC3ZZbFZo1RmMovNB_EEp2hrORpJ-HRNT6jtl_S_v1P3bTCXZH8W-xkB1Mfo0Vje24lFlsZfUt-bo7Pi974Y_UHbsIucDe65yEw63-0-ZG2DI4cFMOjTIEC77BWCe8EyqL_J-TK5hl30jqD6LITCvMvFuGSIWnlAX7dXuMEEUeODqxZ-_rlsrO7gXBp4UE6ett5Mt7r4VGZLvnPJfqB8-jVdSExrDWK_w2rKG4oPEvSY1rf3_irxTAHTatJS2HwUs1vMArNn3I1fQjEXYY7Ggg8Cw8d2rPwZJ_1red8_sr2utpPzXPiN3OU_3qa-xy7BV5ALK1tf-7F57OncUCQ964_FdxFtRnd4EK8yyiicqRzuye5bixUC7eZrOwYGWRhaVrmFyQWVa7-fNh-0000]--></g></svg>