<?xml version="1.0" encoding="us-ascii" standalone="no"?><svg xmlns="http://www.w3.org/2000/svg" xmlns:xlink="http://www.w3.org/1999/xlink" contentStyleType="text/css" height="726px" preserveAspectRatio="none" style="width:1259px;height:726px;background:#FFFFFF;" version="1.1" viewBox="0 0 1259 726" width="1259px" zoomAndPan="magnify"><defs/><g><text fill="#000000" font-family="sans-serif" font-size="14" font-weight="bold" lengthAdjust="spacing" textLength="349" x="456" y="28.5352">Container Sequence Diagram (SD) - US1200 (N3)</text><rect fill="#FFFFFF" height="507.5898" style="stroke:#181818;stroke-width:1.0;" width="10" x="66" y="128.9766"/><rect fill="#FFFFFF" height="314.1055" style="stroke:#181818;stroke-width:1.0;" width="10" x="366" y="165.5977"/><rect fill="#FFFFFF" height="118.5527" style="stroke:#181818;stroke-width:1.0;" width="10" x="366" y="509.0137"/><rect fill="#FFFFFF" height="255.4844" style="stroke:#181818;stroke-width:1.0;" width="10" x="601" y="194.9082"/><rect fill="#FFFFFF" height="29.3105" style="stroke:#181818;stroke-width:1.0;" width="10" x="601" y="538.3242"/><rect fill="#FFFFFF" height="166.8633" style="stroke:#181818;stroke-width:1.0;" width="10" x="805" y="254.2188"/><rect fill="#FFFFFF" height="97.5869" style="stroke:#181818;stroke-width:1.0;" width="10" x="1009" y="283.5293"/><line style="stroke:#181818;stroke-width:0.5;stroke-dasharray:5.0,5.0;" x1="71" x2="71" y1="118.9766" y2="645.5664"/><line style="stroke:#181818;stroke-width:0.5;stroke-dasharray:5.0,5.0;" x1="370.5" x2="370.5" y1="118.9766" y2="645.5664"/><line style="stroke:#181818;stroke-width:0.5;stroke-dasharray:5.0,5.0;" x1="605.5" x2="605.5" y1="118.9766" y2="645.5664"/><line style="stroke:#181818;stroke-width:0.5;stroke-dasharray:5.0,5.0;" x1="810" x2="810" y1="118.9766" y2="645.5664"/><line style="stroke:#181818;stroke-width:0.5;stroke-dasharray:5.0,5.0;" x1="1014" x2="1014" y1="118.9766" y2="645.5664"/><text fill="#000000" font-family="sans-serif" font-size="14" lengthAdjust="spacing" textLength="126" x="5" y="116.0234">Gestor de Campus</text><ellipse cx="71" cy="50.9883" fill="#E3E3E3" rx="8" ry="8" style="stroke:#181818;stroke-width:0.5;"/><path d="M71,58.9883 L71,85.9883 M58,66.9883 L84,66.9883 M71,85.9883 L58,100.9883 M71,85.9883 L84,100.9883 " fill="none" style="stroke:#181818;stroke-width:0.5;"/><text fill="#000000" font-family="sans-serif" font-size="14" lengthAdjust="spacing" textLength="126" x="5" y="658.1016">Gestor de Campus</text><ellipse cx="71" cy="669.5547" fill="#E3E3E3" rx="8" ry="8" style="stroke:#181818;stroke-width:0.5;"/><path d="M71,677.5547 L71,704.5547 M58,685.5547 L84,685.5547 M71,704.5547 L58,719.5547 M71,704.5547 L84,719.5547 " fill="none" style="stroke:#181818;stroke-width:0.5;"/><rect fill="#E3E3E3" height="46.9766" rx="2.5" ry="2.5" style="stroke:#181818;stroke-width:0.5;" width="119" x="311.5" y="71"/><text fill="#000000" font-family="sans-serif" font-size="14" lengthAdjust="spacing" textLength="105" x="318.5" y="91.5352">&#171;C4:Container&#187;</text><text fill="#000000" font-family="sans-serif" font-size="14" lengthAdjust="spacing" textLength="89" x="326.5" y="108.0234">:Visualiza&#231;&#227;o</text><rect fill="#E3E3E3" height="46.9766" rx="2.5" ry="2.5" style="stroke:#181818;stroke-width:0.5;" width="119" x="311.5" y="644.5664"/><text fill="#000000" font-family="sans-serif" font-size="14" lengthAdjust="spacing" textLength="105" x="318.5" y="665.1016">&#171;C4:Container&#187;</text><text fill="#000000" font-family="sans-serif" font-size="14" lengthAdjust="spacing" textLength="89" x="326.5" y="681.5898">:Visualiza&#231;&#227;o</text><rect fill="#E3E3E3" height="30.4883" rx="2.5" ry="2.5" style="stroke:#181818;stroke-width:0.5;" width="95" x="558.5" y="87.4883"/><text fill="#000000" font-family="sans-serif" font-size="14" lengthAdjust="spacing" textLength="81" x="565.5" y="108.0234">Component</text><rect fill="#E3E3E3" height="30.4883" rx="2.5" ry="2.5" style="stroke:#181818;stroke-width:0.5;" width="95" x="558.5" y="644.5664"/><text fill="#000000" font-family="sans-serif" font-size="14" lengthAdjust="spacing" textLength="81" x="565.5" y="665.1016">Component</text><rect fill="#E3E3E3" height="30.4883" rx="2.5" ry="2.5" style="stroke:#181818;stroke-width:0.5;" width="62" x="779" y="87.4883"/><text fill="#000000" font-family="sans-serif" font-size="14" lengthAdjust="spacing" textLength="48" x="786" y="108.0234">Service</text><rect fill="#E3E3E3" height="30.4883" rx="2.5" ry="2.5" style="stroke:#181818;stroke-width:0.5;" width="62" x="779" y="644.5664"/><text fill="#000000" font-family="sans-serif" font-size="14" lengthAdjust="spacing" textLength="48" x="786" y="665.1016">Service</text><rect fill="#E3E3E3" height="63.4648" rx="2.5" ry="2.5" style="stroke:#181818;stroke-width:0.5;" width="138" x="945" y="54.5117"/><text fill="#000000" font-family="sans-serif" font-size="14" lengthAdjust="spacing" textLength="105" x="961.5" y="75.0469">&#171;C4:Container&#187;</text><text fill="#000000" font-family="sans-serif" font-size="14" lengthAdjust="spacing" textLength="124" x="952" y="91.5352">M&#243;dulo de Gest&#227;o</text><text fill="#000000" font-family="sans-serif" font-size="14" lengthAdjust="spacing" textLength="99" x="964.5" y="108.0234">de Informa&#231;&#227;o</text><rect fill="#E3E3E3" height="63.4648" rx="2.5" ry="2.5" style="stroke:#181818;stroke-width:0.5;" width="138" x="945" y="644.5664"/><text fill="#000000" font-family="sans-serif" font-size="14" lengthAdjust="spacing" textLength="105" x="961.5" y="665.1016">&#171;C4:Container&#187;</text><text fill="#000000" font-family="sans-serif" font-size="14" lengthAdjust="spacing" textLength="124" x="952" y="681.5898">M&#243;dulo de Gest&#227;o</text><text fill="#000000" font-family="sans-serif" font-size="14" lengthAdjust="spacing" textLength="99" x="964.5" y="698.0781">de Informa&#231;&#227;o</text><rect fill="#FFFFFF" height="507.5898" style="stroke:#181818;stroke-width:1.0;" width="10" x="66" y="128.9766"/><rect fill="#FFFFFF" height="314.1055" style="stroke:#181818;stroke-width:1.0;" width="10" x="366" y="165.5977"/><rect fill="#FFFFFF" height="118.5527" style="stroke:#181818;stroke-width:1.0;" width="10" x="366" y="509.0137"/><rect fill="#FFFFFF" height="255.4844" style="stroke:#181818;stroke-width:1.0;" width="10" x="601" y="194.9082"/><rect fill="#FFFFFF" height="29.3105" style="stroke:#181818;stroke-width:1.0;" width="10" x="601" y="538.3242"/><rect fill="#FFFFFF" height="166.8633" style="stroke:#181818;stroke-width:1.0;" width="10" x="805" y="254.2188"/><rect fill="#FFFFFF" height="97.5869" style="stroke:#181818;stroke-width:1.0;" width="10" x="1009" y="283.5293"/><polygon fill="#181818" points="354,161.5977,364,165.5977,354,169.5977,358,165.5977" style="stroke:#181818;stroke-width:1.0;"/><line style="stroke:#181818;stroke-width:1.0;" x1="76" x2="360" y1="165.5977" y2="165.5977"/><text fill="#000000" font-family="sans-serif" font-size="13" font-weight="bold" lengthAdjust="spacing" textLength="9" x="83" y="153.2002">1</text><text fill="#000000" font-family="sans-serif" font-size="13" lengthAdjust="spacing" textLength="258" x="96" y="145.5449">Inicia opera&#231;&#227;o de listar pisos de edif&#237;cio</text><text fill="#000000" font-family="sans-serif" font-size="13" lengthAdjust="spacing" textLength="228" x="96" y="160.8555">com passagem para outros edif&#237;cios</text><polygon fill="#181818" points="589,190.9082,599,194.9082,589,198.9082,593,194.9082" style="stroke:#181818;stroke-width:1.0;"/><line style="stroke:#181818;stroke-width:1.0;" x1="376" x2="595" y1="194.9082" y2="194.9082"/><text fill="#000000" font-family="sans-serif" font-size="13" font-weight="bold" lengthAdjust="spacing" textLength="9" x="383" y="190.166">2</text><text fill="#000000" font-family="sans-serif" font-size="13" lengthAdjust="spacing" textLength="45" x="396" y="190.166">ngInit()</text><polygon fill="#181818" points="793,250.2188,803,254.2188,793,258.2188,797,254.2188" style="stroke:#181818;stroke-width:1.0;"/><line style="stroke:#181818;stroke-width:1.0;" x1="611" x2="799" y1="254.2188" y2="254.2188"/><text fill="#000000" font-family="sans-serif" font-size="13" font-weight="bold" lengthAdjust="spacing" textLength="9" x="618" y="249.4766">3</text><text fill="#000000" font-family="sans-serif" font-size="13" lengthAdjust="spacing" textLength="67" x="631" y="249.4766">getFloors()</text><polygon fill="#181818" points="997,279.5293,1007,283.5293,997,287.5293,1001,283.5293" style="stroke:#181818;stroke-width:1.0;"/><line style="stroke:#181818;stroke-width:1.0;" x1="815" x2="1003" y1="283.5293" y2="283.5293"/><text fill="#000000" font-family="sans-serif" font-size="13" font-weight="bold" lengthAdjust="spacing" textLength="9" x="822" y="278.7871">4</text><text fill="#000000" font-family="sans-serif" font-size="13" lengthAdjust="spacing" textLength="67" x="835" y="278.7871">getFloors()</text><line style="stroke:#181818;stroke-width:1.0;" x1="1019" x2="1061" y1="328.1504" y2="328.1504"/><line style="stroke:#181818;stroke-width:1.0;" x1="1061" x2="1061" y1="328.1504" y2="341.1504"/><line style="stroke:#181818;stroke-width:1.0;" x1="1020" x2="1061" y1="341.1504" y2="341.1504"/><polygon fill="#181818" points="1030,337.1504,1020,341.1504,1030,345.1504,1026,341.1504" style="stroke:#181818;stroke-width:1.0;"/><text fill="#000000" font-family="sans-serif" font-size="13" font-weight="bold" lengthAdjust="spacing" textLength="9" x="1026" y="315.7529">5</text><text fill="#000000" font-family="sans-serif" font-size="13" lengthAdjust="spacing" textLength="137" x="1039" y="308.0977">middleware.rolecheck</text><text fill="#000000" font-family="sans-serif" font-size="13" lengthAdjust="spacing" textLength="202" x="1039" y="323.4082">("Admin" || "Gestor de Campus")</text><polygon fill="#181818" points="826,377.1162,816,381.1162,826,385.1162,822,381.1162" style="stroke:#181818;stroke-width:1.0;"/><line style="stroke:#181818;stroke-width:1.0;stroke-dasharray:2.0,2.0;" x1="820" x2="1013" y1="381.1162" y2="381.1162"/><text fill="#000000" font-family="sans-serif" font-size="13" font-weight="bold" lengthAdjust="spacing" textLength="9" x="832" y="376.374">6</text><text fill="#000000" font-family="sans-serif" font-size="13" lengthAdjust="spacing" textLength="157" x="845" y="376.374">Lista de pisos de edificio</text><path d="M1024,354.1504 L1024,394.1504 L1252,394.1504 L1252,364.1504 L1242,354.1504 L1024,354.1504 " fill="#FAFAFA" style="stroke:#181818;stroke-width:0.5;"/><path d="M1242,354.1504 L1242,364.1504 L1252,364.1504 L1242,354.1504 " fill="#FAFAFA" style="stroke:#181818;stroke-width:0.5;"/><text fill="#000000" font-family="sans-serif" font-size="13" lengthAdjust="spacing" textLength="207" x="1030" y="371.7188">M&#243;dulo de Gest&#227;o de Informa&#231;&#227;o</text><text fill="#000000" font-family="sans-serif" font-size="13" lengthAdjust="spacing" textLength="184" x="1030" y="387.0293">&#233; a representa&#231;&#227;o do Sprint A</text><polygon fill="#181818" points="622,417.082,612,421.082,622,425.082,618,421.082" style="stroke:#181818;stroke-width:1.0;"/><line style="stroke:#181818;stroke-width:1.0;stroke-dasharray:2.0,2.0;" x1="616" x2="809" y1="421.082" y2="421.082"/><text fill="#000000" font-family="sans-serif" font-size="13" font-weight="bold" lengthAdjust="spacing" textLength="9" x="628" y="416.3398">7</text><text fill="#000000" font-family="sans-serif" font-size="13" lengthAdjust="spacing" textLength="157" x="641" y="416.3398">Lista de pisos de edificio</text><polygon fill="#181818" points="387,446.3926,377,450.3926,387,454.3926,383,450.3926" style="stroke:#181818;stroke-width:1.0;"/><line style="stroke:#181818;stroke-width:1.0;stroke-dasharray:2.0,2.0;" x1="381" x2="605" y1="450.3926" y2="450.3926"/><text fill="#000000" font-family="sans-serif" font-size="13" font-weight="bold" lengthAdjust="spacing" textLength="9" x="393" y="445.6504">8</text><text fill="#000000" font-family="sans-serif" font-size="13" lengthAdjust="spacing" textLength="37" x="406" y="445.6504">floors</text><polygon fill="#181818" points="87,475.7031,77,479.7031,87,483.7031,83,479.7031" style="stroke:#181818;stroke-width:1.0;"/><line style="stroke:#181818;stroke-width:1.0;stroke-dasharray:2.0,2.0;" x1="81" x2="370" y1="479.7031" y2="479.7031"/><text fill="#000000" font-family="sans-serif" font-size="13" font-weight="bold" lengthAdjust="spacing" textLength="9" x="93" y="474.9609">9</text><text fill="#000000" font-family="sans-serif" font-size="13" lengthAdjust="spacing" textLength="133" x="106" y="474.9609">Solicita id do edif&#237;cio</text><polygon fill="#181818" points="354,505.0137,364,509.0137,354,513.0137,358,509.0137" style="stroke:#181818;stroke-width:1.0;"/><line style="stroke:#181818;stroke-width:1.0;" x1="76" x2="360" y1="509.0137" y2="509.0137"/><text fill="#000000" font-family="sans-serif" font-size="13" font-weight="bold" lengthAdjust="spacing" textLength="18" x="83" y="504.2715">10</text><text fill="#000000" font-family="sans-serif" font-size="13" lengthAdjust="spacing" textLength="168" x="105" y="504.2715">Introduz dados solicitados</text><polygon fill="#181818" points="589,534.3242,599,538.3242,589,542.3242,593,538.3242" style="stroke:#181818;stroke-width:1.0;"/><line style="stroke:#181818;stroke-width:1.0;" x1="376" x2="595" y1="538.3242" y2="538.3242"/><text fill="#000000" font-family="sans-serif" font-size="13" font-weight="bold" lengthAdjust="spacing" textLength="18" x="383" y="533.582">11</text><text fill="#000000" font-family="sans-serif" font-size="13" lengthAdjust="spacing" textLength="184" x="405" y="533.582">filterFloorsWithConnections()</text><polygon fill="#181818" points="387,563.6348,377,567.6348,387,571.6348,383,567.6348" style="stroke:#181818;stroke-width:1.0;"/><line style="stroke:#181818;stroke-width:1.0;stroke-dasharray:2.0,2.0;" x1="381" x2="605" y1="567.6348" y2="567.6348"/><text fill="#000000" font-family="sans-serif" font-size="13" font-weight="bold" lengthAdjust="spacing" textLength="18" x="393" y="562.8926">12</text><text fill="#000000" font-family="sans-serif" font-size="13" lengthAdjust="spacing" textLength="37" x="415" y="562.8926">floors</text><polygon fill="#181818" points="87,623.5664,77,627.5664,87,631.5664,83,627.5664" style="stroke:#181818;stroke-width:1.0;"/><line style="stroke:#181818;stroke-width:1.0;stroke-dasharray:2.0,2.0;" x1="81" x2="370" y1="627.5664" y2="627.5664"/><text fill="#000000" font-family="sans-serif" font-size="13" font-weight="bold" lengthAdjust="spacing" textLength="18" x="93" y="607.5137">13</text><text fill="#000000" font-family="sans-serif" font-size="13" lengthAdjust="spacing" textLength="228" x="115" y="592.2031">Lista de pisos de edificio no edificio</text><text fill="#000000" font-family="sans-serif" font-size="13" lengthAdjust="spacing" textLength="238" x="115" y="607.5137">escolhido com passagens para outros</text><text fill="#000000" font-family="sans-serif" font-size="13" lengthAdjust="spacing" textLength="54" x="115" y="622.8242">edif&#237;cios</text><!--SRC=[jLMzRjim4Dxr50TDzk0Y_Pa48q3We4M0jelGTj72YcU9C7MdabI21dcR3aM7Jdq4lrYFJYmhjOAuRZg9ultmuyVlxlpAKAkSQg1Xuh9st204rs7YUqkhofMgC0zVBOB3CYYgxD31rqhpbQ4AbifwJ99WWhWkc88oX0vo_D8XbGZdHbKnOfAVJs467_BdBqvEOFB-vJH9L1UOkkOpEbcNWHsaRz37hvPSgcaxdsuivb8573FkRy7i5DBvVF4gwy6SdXQKVJI-KzPSg_NtzJTECxWWKne5tAAxtOj9hF51EMYDPn__KPlb-cTfkA2I8o_U2oznuIIq2qxSUXy_WFeuWkG0dtYP1JSj4rB8W2e17IRJtJczCT7OR-ReBas9IM-CQUus8OCAmslBxFmmqJOcsVgDq_Xk_KjtTaDLP5um5YJh2rgoQxQW7pZYo7J9iJ2Elq46ZT7QufLo-ConnRB6SbNG93tJZQ4KRcv6n3Wz7kdkVJ9u6oKO_U-9KBJAmpS-banY2NQcgaLE-m7mXtz1wn-Wf0Eq3hq8QLie37dhZ0ZhRAUN-r8zx1OZIZsiV4LZout0XjbsnN1ORSMZzbunWvoju1JqHiURzkNz2FrxzVrlpKbQY-wkGKkVzU3l8Ed_tMCYhyO6TBVb-yc4Me999e1XykETvwaVxmbKFiByV3OxZFg7bGl4_ReWz2NRseX21fE1_70qYDDkDlobUdu3]--></g></svg>