<?xml version="1.0" encoding="us-ascii" standalone="no"?><svg xmlns="http://www.w3.org/2000/svg" xmlns:xlink="http://www.w3.org/1999/xlink" contentStyleType="text/css" height="514px" preserveAspectRatio="none" style="width:645px;height:514px;background:#FFFFFF;" version="1.1" viewBox="0 0 645 514" width="645px" zoomAndPan="magnify"><defs/><g><text fill="#000000" font-family="sans-serif" font-size="14" font-weight="bold" lengthAdjust="spacing" textLength="357" x="143" y="28.5352">Container Sequence Diagram (SSD) - US1200 (N2)</text><rect fill="#FFFFFF" height="286.7266" style="stroke:#181818;stroke-width:1.0;" width="10" x="66" y="128.9766"/><rect fill="#FFFFFF" height="103.2422" style="stroke:#181818;stroke-width:1.0;" width="10" x="344" y="180.9082"/><rect fill="#FFFFFF" height="102.2422" style="stroke:#181818;stroke-width:1.0;" width="10" x="344" y="313.4609"/><rect fill="#FFFFFF" height="29.3105" style="stroke:#181818;stroke-width:1.0;" width="10" x="565" y="210.2188"/><line style="stroke:#181818;stroke-width:0.5;stroke-dasharray:5.0,5.0;" x1="71" x2="71" y1="118.9766" y2="433.7031"/><line style="stroke:#181818;stroke-width:0.5;stroke-dasharray:5.0,5.0;" x1="348.5" x2="348.5" y1="118.9766" y2="433.7031"/><line style="stroke:#181818;stroke-width:0.5;stroke-dasharray:5.0,5.0;" x1="570" x2="570" y1="118.9766" y2="433.7031"/><text fill="#000000" font-family="sans-serif" font-size="14" lengthAdjust="spacing" textLength="126" x="5" y="116.0234">Gestor de Campus</text><ellipse cx="71" cy="50.9883" fill="#E3E3E3" rx="8" ry="8" style="stroke:#181818;stroke-width:0.5;"/><path d="M71,58.9883 L71,85.9883 M58,66.9883 L84,66.9883 M71,85.9883 L58,100.9883 M71,85.9883 L84,100.9883 " fill="none" style="stroke:#181818;stroke-width:0.5;"/><text fill="#000000" font-family="sans-serif" font-size="14" lengthAdjust="spacing" textLength="126" x="5" y="446.2383">Gestor de Campus</text><ellipse cx="71" cy="457.6914" fill="#E3E3E3" rx="8" ry="8" style="stroke:#181818;stroke-width:0.5;"/><path d="M71,465.6914 L71,492.6914 M58,473.6914 L84,473.6914 M71,492.6914 L58,507.6914 M71,492.6914 L84,507.6914 " fill="none" style="stroke:#181818;stroke-width:0.5;"/><rect fill="#E3E3E3" height="46.9766" rx="2.5" ry="2.5" style="stroke:#181818;stroke-width:0.5;" width="119" x="289.5" y="71"/><text fill="#000000" font-family="sans-serif" font-size="14" lengthAdjust="spacing" textLength="105" x="296.5" y="91.5352">&#171;C4:Container&#187;</text><text fill="#000000" font-family="sans-serif" font-size="14" lengthAdjust="spacing" textLength="89" x="304.5" y="108.0234">:Visualiza&#231;&#227;o</text><rect fill="#E3E3E3" height="46.9766" rx="2.5" ry="2.5" style="stroke:#181818;stroke-width:0.5;" width="119" x="289.5" y="432.7031"/><text fill="#000000" font-family="sans-serif" font-size="14" lengthAdjust="spacing" textLength="105" x="296.5" y="453.2383">&#171;C4:Container&#187;</text><text fill="#000000" font-family="sans-serif" font-size="14" lengthAdjust="spacing" textLength="89" x="304.5" y="469.7266">:Visualiza&#231;&#227;o</text><rect fill="#E3E3E3" height="63.4648" rx="2.5" ry="2.5" style="stroke:#181818;stroke-width:0.5;" width="138" x="501" y="54.5117"/><text fill="#000000" font-family="sans-serif" font-size="14" lengthAdjust="spacing" textLength="105" x="517.5" y="75.0469">&#171;C4:Container&#187;</text><text fill="#000000" font-family="sans-serif" font-size="14" lengthAdjust="spacing" textLength="124" x="508" y="91.5352">M&#243;dulo de Gest&#227;o</text><text fill="#000000" font-family="sans-serif" font-size="14" lengthAdjust="spacing" textLength="99" x="520.5" y="108.0234">de Informa&#231;&#227;o</text><rect fill="#E3E3E3" height="63.4648" rx="2.5" ry="2.5" style="stroke:#181818;stroke-width:0.5;" width="138" x="501" y="432.7031"/><text fill="#000000" font-family="sans-serif" font-size="14" lengthAdjust="spacing" textLength="105" x="517.5" y="453.2383">&#171;C4:Container&#187;</text><text fill="#000000" font-family="sans-serif" font-size="14" lengthAdjust="spacing" textLength="124" x="508" y="469.7266">M&#243;dulo de Gest&#227;o</text><text fill="#000000" font-family="sans-serif" font-size="14" lengthAdjust="spacing" textLength="99" x="520.5" y="486.2148">de Informa&#231;&#227;o</text><rect fill="#FFFFFF" height="286.7266" style="stroke:#181818;stroke-width:1.0;" width="10" x="66" y="128.9766"/><rect fill="#FFFFFF" height="103.2422" style="stroke:#181818;stroke-width:1.0;" width="10" x="344" y="180.9082"/><rect fill="#FFFFFF" height="102.2422" style="stroke:#181818;stroke-width:1.0;" width="10" x="344" y="313.4609"/><rect fill="#FFFFFF" height="29.3105" style="stroke:#181818;stroke-width:1.0;" width="10" x="565" y="210.2188"/><polygon fill="#181818" points="332,176.9082,342,180.9082,332,184.9082,336,180.9082" style="stroke:#181818;stroke-width:1.0;"/><line style="stroke:#181818;stroke-width:1.0;" x1="76" x2="338" y1="180.9082" y2="180.9082"/><text fill="#000000" font-family="sans-serif" font-size="13" font-weight="bold" lengthAdjust="spacing" textLength="9" x="83" y="160.8555">1</text><text fill="#000000" font-family="sans-serif" font-size="13" lengthAdjust="spacing" textLength="189" x="96" y="145.5449">Requesita a listagem de todos</text><text fill="#000000" font-family="sans-serif" font-size="13" lengthAdjust="spacing" textLength="178" x="96" y="160.8555">os pisos de um edif&#237;cio com</text><text fill="#000000" font-family="sans-serif" font-size="13" lengthAdjust="spacing" textLength="200" x="96" y="176.166">passagens para outros edif&#237;cios</text><line style="stroke:#181818;stroke-width:1.0;" x1="563" x2="553" y1="210.2188" y2="206.2188"/><line style="stroke:#181818;stroke-width:1.0;" x1="563" x2="553" y1="210.2188" y2="214.2188"/><line style="stroke:#181818;stroke-width:1.0;" x1="354" x2="564" y1="210.2188" y2="210.2188"/><text fill="#000000" font-family="sans-serif" font-size="13" font-weight="bold" lengthAdjust="spacing" textLength="9" x="361" y="205.4766">2</text><text fill="#000000" font-family="sans-serif" font-size="13" lengthAdjust="spacing" textLength="79" x="374" y="205.4766">GET /floors/</text><line style="stroke:#181818;stroke-width:1.0;" x1="355" x2="365" y1="239.5293" y2="235.5293"/><line style="stroke:#181818;stroke-width:1.0;" x1="355" x2="365" y1="239.5293" y2="243.5293"/><line style="stroke:#181818;stroke-width:1.0;" x1="354" x2="569" y1="239.5293" y2="239.5293"/><text fill="#000000" font-family="sans-serif" font-size="13" font-weight="bold" lengthAdjust="spacing" textLength="9" x="371" y="234.7871">3</text><text fill="#000000" font-family="sans-serif" font-size="13" lengthAdjust="spacing" textLength="87" x="384" y="234.7871">200 OK floors</text><polygon fill="#181818" points="87,280.1504,77,284.1504,87,288.1504,83,284.1504" style="stroke:#181818;stroke-width:1.0;"/><line style="stroke:#181818;stroke-width:1.0;stroke-dasharray:2.0,2.0;" x1="81" x2="348" y1="284.1504" y2="284.1504"/><text fill="#000000" font-family="sans-serif" font-size="13" font-weight="bold" lengthAdjust="spacing" textLength="9" x="93" y="271.7529">4</text><text fill="#000000" font-family="sans-serif" font-size="13" lengthAdjust="spacing" textLength="207" x="106" y="264.0977">Solicita id do edif&#237;cio para o qual</text><text fill="#000000" font-family="sans-serif" font-size="13" lengthAdjust="spacing" textLength="148" x="106" y="279.4082">&#233; pretendido a listagem</text><polygon fill="#181818" points="332,309.4609,342,313.4609,332,317.4609,336,313.4609" style="stroke:#181818;stroke-width:1.0;"/><line style="stroke:#181818;stroke-width:1.0;" x1="76" x2="338" y1="313.4609" y2="313.4609"/><text fill="#000000" font-family="sans-serif" font-size="13" font-weight="bold" lengthAdjust="spacing" textLength="9" x="83" y="308.7188">5</text><text fill="#000000" font-family="sans-serif" font-size="13" lengthAdjust="spacing" textLength="140" x="96" y="308.7188">Introduz id do edif&#237;cio</text><line style="stroke:#181818;stroke-width:1.0;" x1="354" x2="396" y1="342.7715" y2="342.7715"/><line style="stroke:#181818;stroke-width:1.0;" x1="396" x2="396" y1="342.7715" y2="355.7715"/><line style="stroke:#181818;stroke-width:1.0;" x1="355" x2="396" y1="355.7715" y2="355.7715"/><line style="stroke:#181818;stroke-width:1.0;" x1="355" x2="365" y1="355.7715" y2="351.7715"/><line style="stroke:#181818;stroke-width:1.0;" x1="355" x2="365" y1="355.7715" y2="359.7715"/><text fill="#000000" font-family="sans-serif" font-size="13" font-weight="bold" lengthAdjust="spacing" textLength="9" x="361" y="338.0293">6</text><text fill="#000000" font-family="sans-serif" font-size="13" lengthAdjust="spacing" textLength="184" x="374" y="338.0293">filterFloorsWithConnections()</text><polygon fill="#181818" points="82,411.7031,72,415.7031,82,419.7031,78,415.7031" style="stroke:#181818;stroke-width:1.0;"/><line style="stroke:#181818;stroke-width:1.0;stroke-dasharray:2.0,2.0;" x1="76" x2="348" y1="415.7031" y2="415.7031"/><text fill="#000000" font-family="sans-serif" font-size="13" font-weight="bold" lengthAdjust="spacing" textLength="9" x="88" y="395.6504">7</text><text fill="#000000" font-family="sans-serif" font-size="13" lengthAdjust="spacing" textLength="218" x="101" y="380.3398">Imprime lista de pisos do edif&#237;cios</text><text fill="#000000" font-family="sans-serif" font-size="13" lengthAdjust="spacing" textLength="231" x="101" y="395.6504">com passagens para outros edif&#237;cios</text><text fill="#000000" font-family="sans-serif" font-size="13" lengthAdjust="spacing" textLength="185" x="101" y="410.9609">que se encontram no sistema</text><!--SRC=[lLHDRzD04BtxLunoIWvHIyKfYd9feQeG864-Bhuitd4ogdV6tGyG_JiS40TE_0J_CMRJAbWua50aBlPgz-tiUpDl9bmJTyOR1qvOweqNXn1zmYBiJZfJNvirbl5JY-2nZeRNxH0GDiRAH-8rDAODM1IHeaBFXQCXHWybtYJa6k62p3hVc9RbnGpcyAPyT7Pw2jCNPxEYC2aA9_SUlQxhA1ucbnZotsemuxeK9jiJ-c0YxZiSRy5y1PFbylpnOiTcjQfuyPP2CYtTclvB_rac2tYLAGQA1Woq5A8ATZbE52kXOWdGKT2lRYK7QAdflzKaK8khD0qXw0LMa2O494Mlq1qe34WVvb8SWL5PUtKzxx_Rr4fccLEXq8frVSMDUBVJUldaDPmqhOWF9t-aTaouue7tVYTXN9hia9VFu8vmOV6V6H-NuUoSaPyMK4fBTVO9MR0oSC9TwU56erJSVuNEOqIsfA2VbZf0V-o5XplwYjM5Djt-IlI_cN5CgQ4sed-wBUGxYXk5iyuJ4WxJsJwjo_dyIB6kywIZQvld7E6-MmUwjOkrMU5GhrQiWm02WWuiVJDFAnO86XUT-Tlo3U7ZSVK3]--></g></svg>