<?xml version="1.0" encoding="us-ascii" standalone="no"?><svg xmlns="http://www.w3.org/2000/svg" xmlns:xlink="http://www.w3.org/1999/xlink" contentStyleType="text/css" height="457px" preserveAspectRatio="none" style="width:834px;height:457px;background:#FFFFFF;" version="1.1" viewBox="0 0 834 457" width="834px" zoomAndPan="magnify"><defs/><g><text fill="#000000" font-family="sans-serif" font-size="14" font-weight="bold" lengthAdjust="spacing" textLength="348" x="242" y="28.5352">Container Sequence Diagram (SSD) - US270 (N2)</text><rect fill="#FFFFFF" height="59.9316" style="stroke:#181818;stroke-width:1.0;" width="10" x="420" y="150.2871"/><rect fill="#FFFFFF" height="118.5527" style="stroke:#181818;stroke-width:1.0;" width="10" x="420" y="239.5293"/><rect fill="#FFFFFF" height="29.3105" style="stroke:#181818;stroke-width:1.0;" width="10" x="754" y="299.4609"/><line style="stroke:#181818;stroke-width:0.5;stroke-dasharray:5.0,5.0;" x1="71" x2="71" y1="118.9766" y2="376.082"/><line style="stroke:#181818;stroke-width:0.5;stroke-dasharray:5.0,5.0;" x1="424.5" x2="424.5" y1="118.9766" y2="376.082"/><line style="stroke:#181818;stroke-width:0.5;stroke-dasharray:5.0,5.0;" x1="759" x2="759" y1="118.9766" y2="376.082"/><text fill="#000000" font-family="sans-serif" font-size="14" lengthAdjust="spacing" textLength="126" x="5" y="116.0234">Gestor de Campus</text><ellipse cx="71" cy="50.9883" fill="#E3E3E3" rx="8" ry="8" style="stroke:#181818;stroke-width:0.5;"/><path d="M71,58.9883 L71,85.9883 M58,66.9883 L84,66.9883 M71,85.9883 L58,100.9883 M71,85.9883 L84,100.9883 " fill="none" style="stroke:#181818;stroke-width:0.5;"/><text fill="#000000" font-family="sans-serif" font-size="14" lengthAdjust="spacing" textLength="126" x="5" y="388.6172">Gestor de Campus</text><ellipse cx="71" cy="400.0703" fill="#E3E3E3" rx="8" ry="8" style="stroke:#181818;stroke-width:0.5;"/><path d="M71,408.0703 L71,435.0703 M58,416.0703 L84,416.0703 M71,435.0703 L58,450.0703 M71,435.0703 L84,450.0703 " fill="none" style="stroke:#181818;stroke-width:0.5;"/><rect fill="#E3E3E3" height="46.9766" rx="2.5" ry="2.5" style="stroke:#181818;stroke-width:0.5;" width="119" x="365.5" y="71"/><text fill="#000000" font-family="sans-serif" font-size="14" lengthAdjust="spacing" textLength="105" x="372.5" y="91.5352">&#171;C4:Container&#187;</text><text fill="#000000" font-family="sans-serif" font-size="14" lengthAdjust="spacing" textLength="89" x="380.5" y="108.0234">:Visualiza&#231;&#227;o</text><rect fill="#E3E3E3" height="46.9766" rx="2.5" ry="2.5" style="stroke:#181818;stroke-width:0.5;" width="119" x="365.5" y="375.082"/><text fill="#000000" font-family="sans-serif" font-size="14" lengthAdjust="spacing" textLength="105" x="372.5" y="395.6172">&#171;C4:Container&#187;</text><text fill="#000000" font-family="sans-serif" font-size="14" lengthAdjust="spacing" textLength="89" x="380.5" y="412.1055">:Visualiza&#231;&#227;o</text><rect fill="#E3E3E3" height="63.4648" rx="2.5" ry="2.5" style="stroke:#181818;stroke-width:0.5;" width="138" x="690" y="54.5117"/><text fill="#000000" font-family="sans-serif" font-size="14" lengthAdjust="spacing" textLength="105" x="706.5" y="75.0469">&#171;C4:Container&#187;</text><text fill="#000000" font-family="sans-serif" font-size="14" lengthAdjust="spacing" textLength="124" x="697" y="91.5352">M&#243;dulo de Gest&#227;o</text><text fill="#000000" font-family="sans-serif" font-size="14" lengthAdjust="spacing" textLength="99" x="709.5" y="108.0234">de Informa&#231;&#227;o</text><rect fill="#E3E3E3" height="63.4648" rx="2.5" ry="2.5" style="stroke:#181818;stroke-width:0.5;" width="138" x="690" y="375.082"/><text fill="#000000" font-family="sans-serif" font-size="14" lengthAdjust="spacing" textLength="105" x="706.5" y="395.6172">&#171;C4:Container&#187;</text><text fill="#000000" font-family="sans-serif" font-size="14" lengthAdjust="spacing" textLength="124" x="697" y="412.1055">M&#243;dulo de Gest&#227;o</text><text fill="#000000" font-family="sans-serif" font-size="14" lengthAdjust="spacing" textLength="99" x="709.5" y="428.5938">de Informa&#231;&#227;o</text><rect fill="#FFFFFF" height="59.9316" style="stroke:#181818;stroke-width:1.0;" width="10" x="420" y="150.2871"/><rect fill="#FFFFFF" height="118.5527" style="stroke:#181818;stroke-width:1.0;" width="10" x="420" y="239.5293"/><rect fill="#FFFFFF" height="29.3105" style="stroke:#181818;stroke-width:1.0;" width="10" x="754" y="299.4609"/><polygon fill="#181818" points="408,146.2871,418,150.2871,408,154.2871,412,150.2871" style="stroke:#181818;stroke-width:1.0;"/><line style="stroke:#181818;stroke-width:1.0;" x1="71" x2="414" y1="150.2871" y2="150.2871"/><text fill="#000000" font-family="sans-serif" font-size="13" font-weight="bold" lengthAdjust="spacing" textLength="9" x="78" y="145.5449">1</text><text fill="#000000" font-family="sans-serif" font-size="13" lengthAdjust="spacing" textLength="310" x="91" y="145.5449">Inicia opera&#231;&#227;o de criar um elevador num edif&#237;cio</text><polygon fill="#181818" points="82,206.2188,72,210.2188,82,214.2188,78,210.2188" style="stroke:#181818;stroke-width:1.0;"/><line style="stroke:#181818;stroke-width:1.0;stroke-dasharray:2.0,2.0;" x1="76" x2="424" y1="210.2188" y2="210.2188"/><text fill="#000000" font-family="sans-serif" font-size="13" font-weight="bold" lengthAdjust="spacing" textLength="9" x="88" y="190.166">2</text><text fill="#000000" font-family="sans-serif" font-size="13" lengthAdjust="spacing" textLength="312" x="101" y="174.8555">Solicita dados necess&#225;rios (buildingId, elevatorId,</text><text fill="#000000" font-family="sans-serif" font-size="13" lengthAdjust="spacing" textLength="292" x="101" y="190.166">elevatorBrand, elevatorModel, elevatorSerNum,</text><text fill="#000000" font-family="sans-serif" font-size="13" lengthAdjust="spacing" textLength="130" x="101" y="205.4766">locationX, locationY)</text><polygon fill="#181818" points="408,235.5293,418,239.5293,408,243.5293,412,239.5293" style="stroke:#181818;stroke-width:1.0;"/><line style="stroke:#181818;stroke-width:1.0;" x1="71" x2="414" y1="239.5293" y2="239.5293"/><text fill="#000000" font-family="sans-serif" font-size="13" font-weight="bold" lengthAdjust="spacing" textLength="9" x="78" y="234.7871">3</text><text fill="#000000" font-family="sans-serif" font-size="13" lengthAdjust="spacing" textLength="168" x="91" y="234.7871">Introduz dados solicitados</text><polygon fill="#181818" points="742,295.4609,752,299.4609,742,303.4609,746,299.4609" style="stroke:#181818;stroke-width:1.0;"/><line style="stroke:#181818;stroke-width:1.0;stroke-dasharray:2.0,2.0;" x1="430" x2="748" y1="299.4609" y2="299.4609"/><text fill="#000000" font-family="sans-serif" font-size="13" font-weight="bold" lengthAdjust="spacing" textLength="9" x="437" y="279.4082">4</text><text fill="#000000" font-family="sans-serif" font-size="13" lengthAdjust="spacing" textLength="253" x="450" y="264.0977">POST /elevators/ {buildingId, elevatorId,</text><text fill="#000000" font-family="sans-serif" font-size="13" lengthAdjust="spacing" textLength="292" x="450" y="279.4082">elevatorBrand, elevatorModel, elevatorSerNum,</text><text fill="#000000" font-family="sans-serif" font-size="13" lengthAdjust="spacing" textLength="130" x="450" y="294.7188">locationX, locationY}</text><polygon fill="#181818" points="441,324.7715,431,328.7715,441,332.7715,437,328.7715" style="stroke:#181818;stroke-width:1.0;"/><line style="stroke:#181818;stroke-width:1.0;stroke-dasharray:2.0,2.0;" x1="435" x2="758" y1="328.7715" y2="328.7715"/><text fill="#000000" font-family="sans-serif" font-size="13" font-weight="bold" lengthAdjust="spacing" textLength="9" x="447" y="324.0293">5</text><text fill="#000000" font-family="sans-serif" font-size="13" lengthAdjust="spacing" textLength="100" x="460" y="324.0293">200 OK elevator</text><polygon fill="#181818" points="82,354.082,72,358.082,82,362.082,78,358.082" style="stroke:#181818;stroke-width:1.0;"/><line style="stroke:#181818;stroke-width:1.0;stroke-dasharray:2.0,2.0;" x1="76" x2="424" y1="358.082" y2="358.082"/><text fill="#000000" font-family="sans-serif" font-size="13" font-weight="bold" lengthAdjust="spacing" textLength="9" x="88" y="353.3398">6</text><text fill="#000000" font-family="sans-serif" font-size="13" lengthAdjust="spacing" textLength="261" x="101" y="353.3398">Imprime elevador que acaba de ser criado</text><!--SRC=[jLJDQXin4BxhAGQVRCWIOme5Otne0iMK98LjImk-ZAMn8o9fjlf9QKeVflJGKqzzX7snI4sy3InDDYqvQKRwPlHzCoE52-qQz6Z1icDvxjaIH9z8XEwaGNc1EwhZPqFWIKPqEtCN4CvHyIVjTh154qY8g6E67h6Bg1rvgEbZ8YS9ZZNkIiIuheydKC7RUlPy2kFJsKG8J95TiXlosPQHFOnUKYYhohdGDYcCXEZlGRM4qM9nz6pUNRXShjtydGu9ZRx2zaVxdKTpM3ajDG8tv6_sIXBfDNf85iZGPPRXmHL7wMtxKsekJFGbHXfoXHY0WQhGxOcOGyqcqui8AhC8u4XI2EqthxCptYHjL2xmIXtS4CtHsLwxlVF2exjpTiAAp1-t9d-QR8ORbXWrk_S7i3S_J8IYHwdylnv4pofTtQeCjwAp_KILxkDEsbygcT_DBpeoTEsolN9RzhOZ-lgiVWE7-mA6G_Zob3tuUg_w8Op5FyRzhKhzriscKpXxrUbvO6g6SUuFqgAg1awIRRpEdrNtRlCN0oXnWoLToBzEUTgA7plTrm00]--></g></svg>